<?xml version="1.0" standalone="no"?>
<!DOCTYPE svg PUBLIC "-//W3C//DTD SVG 20010904//EN"
 "http://www.w3.org/TR/2001/REC-SVG-20010904/DTD/svg10.dtd">
<svg version="1.0" xmlns="http://www.w3.org/2000/svg"
 width="341.000000pt" height="341.000000pt" viewBox="0 0 341.000000 341.000000"
 preserveAspectRatio="xMidYMid meet">
<metadata>
Created by potrace 1.14, written by Peter Selinger 2001-2017
</metadata>
<g transform="translate(0.000000,341.000000) scale(0.100000,-0.100000)"
fill="#000000" stroke="none">
<path d="M857 3353 c-21 -21 9 -63 34 -47 15 9 10 41 -7 48 -19 7 -19 7 -27
-1z"/>
<path d="M737 3219 c-4 -15 1 -22 19 -29 22 -9 24 -14 18 -48 -7 -42 0 -49 45
-48 18 1 26 8 32 30 10 38 6 44 -37 52 -29 5 -34 10 -28 26 4 13 1 24 -7 29
-23 14 -36 10 -42 -12z"/>
<path d="M624 3066 c-8 -31 -1 -42 30 -48 21 -4 26 0 31 24 8 34 8 33 -27 42
-23 5 -28 3 -34 -18z"/>
<path d="M737 2993 c-3 -4 -12 -33 -20 -65 l-15 -56 61 -16 c34 -8 63 -13 65
-12 8 8 34 117 29 122 -3 3 -20 10 -39 14 -18 5 -43 12 -54 15 -12 4 -24 3
-27 -2z"/>
<path d="M520 2868 c-6 -21 -13 -45 -16 -52 -3 -8 5 -16 23 -19 15 -4 38 -9
49 -13 23 -6 30 4 44 62 7 30 6 31 -41 47 l-49 15 -10 -40z"/>
<path d="M865 2812 c-3 -3 -5 -15 -5 -28 0 -15 7 -23 24 -26 20 -4 25 0 28 23
4 22 0 28 -19 32 -12 2 -25 2 -28 -1z"/>
<path d="M673 2690 c-12 -39 -18 -72 -14 -74 23 -14 133 -37 140 -30 12 13 43
135 37 142 -3 3 -6 3 -6 0 0 -3 -27 3 -61 13 -33 10 -64 19 -68 19 -4 0 -17
-32 -28 -70z"/>
<path d="M432 2638 c-7 -29 -15 -63 -18 -74 -5 -19 1 -23 66 -39 39 -10 72
-16 74 -14 4 6 36 124 36 136 0 5 -24 15 -52 22 -29 6 -62 14 -74 17 -18 5
-22 -1 -32 -48z"/>
<path d="M881 2626 c-23 -86 -22 -88 42 -104 32 -8 60 -12 63 -9 3 3 10 25 15
49 5 24 12 50 15 59 3 12 -4 18 -23 23 -16 3 -44 10 -65 15 l-36 8 -11 -41z"/>
<path d="M672 2514 c-9 -19 -7 -23 11 -28 33 -9 34 -8 39 18 7 34 -36 43 -50
10z"/>
<path d="M982 2452 c-6 -26 -14 -57 -18 -68 -5 -19 1 -23 60 -39 37 -10 68
-16 70 -14 1 2 10 32 18 67 l16 62 -57 16 c-31 8 -61 17 -67 19 -6 2 -16 -18
-22 -43z"/>
<path d="M776 2481 c-2 -3 -11 -32 -19 -63 l-15 -57 55 -16 c30 -9 60 -14 65
-13 11 4 38 80 38 109 0 12 -17 21 -60 32 -33 8 -62 12 -64 8z"/>
<path d="M441 2437 c-10 -25 10 -43 35 -33 21 8 17 43 -7 49 -14 4 -22 -1 -28
-16z"/>
<path d="M576 2449 c-3 -8 -11 -37 -19 -65 l-14 -51 46 -11 c25 -6 54 -14 63
-17 13 -5 19 2 27 32 25 97 27 89 -22 101 -24 7 -52 14 -61 18 -9 3 -18 0 -20
-7z"/>
<path d="M430 2286 c-6 -22 -15 -54 -21 -70 -5 -17 -6 -33 -2 -37 10 -8 115
-39 135 -39 9 0 20 25 31 71 10 40 15 74 13 76 -2 3 -36 13 -75 23 l-71 18
-10 -42z"/>
<path d="M1005 2300 c-3 -4 -7 -25 -11 -46 -3 -20 -10 -48 -15 -62 -5 -14 -8
-27 -5 -29 2 -3 36 -13 74 -23 l71 -18 19 72 c11 39 18 72 17 74 -8 10 -146
39 -150 32z"/>
<path d="M1231 2233 c-7 -27 -14 -55 -17 -64 -3 -12 8 -19 51 -28 30 -7 58
-12 62 -12 8 0 45 112 39 118 -3 3 -113 33 -120 33 -2 0 -9 -21 -15 -47z"/>
<path d="M686 2258 c-10 -34 -27 -104 -27 -113 0 -7 122 -48 128 -42 4 5 34
129 31 131 -2 1 -23 8 -48 15 -25 7 -53 15 -63 17 -9 3 -19 -1 -21 -8z"/>
<path d="M877 2244 c-21 -21 8 -64 33 -49 11 7 20 45 10 45 -5 0 -15 2 -22 5
-8 3 -17 2 -21 -1z"/>
<path d="M1399 2100 c-11 -38 -18 -73 -15 -79 4 -5 38 -18 76 -27 81 -21 78
-11 38 -149 -11 -38 -22 -78 -24 -90 -9 -46 -22 -80 -30 -79 -5 1 -81 21 -169
44 -223 58 -348 90 -356 90 -4 0 -10 -17 -14 -38 -10 -61 -16 -65 -66 -51 -24
6 -60 15 -80 19 l-36 7 -18 -79 c-10 -43 -16 -80 -14 -81 2 -2 38 -13 79 -23
55 -15 74 -24 71 -34 -21 -85 -25 -77 47 -130 37 -28 80 -60 97 -73 148 -111
292 -294 337 -428 l16 -46 -36 -44 c-48 -60 -188 -198 -237 -234 -22 -17 -46
-36 -53 -43 -31 -28 -213 -129 -307 -168 -94 -40 -234 -85 -300 -97 -170 -31
-235 -39 -328 -40 -70 -1 -60 -7 62 -42 170 -47 379 -87 551 -103 161 -15 545
-7 640 13 14 3 36 7 50 10 64 9 203 47 285 76 203 71 385 184 535 330 148 145
220 251 369 542 212 416 378 663 559 836 70 67 173 134 230 151 23 7 41 14 39
16 -15 15 -202 20 -252 6 -25 -7 -45 -1 -120 35 -209 101 -414 94 -615 -19
-79 -44 -186 -133 -252 -209 l-48 -55 25 -51 c63 -133 94 -273 90 -418 -4
-153 -24 -236 -26 -104 0 41 -2 81 -3 89 -2 8 -6 39 -10 69 -8 60 -48 186 -78
246 -108 212 -395 450 -611 506 -39 10 -73 19 -74 19 -1 0 -12 -31 -24 -70z
m786 -912 c-3 -7 -34 -128 -71 -268 -36 -140 -67 -256 -69 -258 -9 -9 -265 64
-265 75 0 17 -5 18 132 -18 66 -17 121 -29 124 -26 3 2 7 13 9 23 2 11 27 105
55 209 28 105 53 204 57 220 5 27 20 55 29 55 2 0 1 -6 -1 -12z"/>
<path d="M494 2103 c2 -2 -4 -30 -14 -63 l-18 -58 57 -16 c32 -9 60 -16 64
-16 6 0 37 95 37 115 0 6 -29 18 -65 27 -36 8 -64 14 -61 11z"/>
<path d="M1025 2068 c-26 -78 -54 -212 -45 -218 6 -4 53 -17 105 -30 74 -18
95 -27 95 -41 0 -13 27 -23 130 -49 72 -18 132 -31 134 -29 6 6 58 202 63 235
5 33 16 28 -132 65 -22 6 -83 19 -135 29 -52 11 -120 26 -150 34 -66 19 -60
19 -65 4z"/>
<path d="M690 1969 c-12 -49 -21 -91 -19 -93 6 -4 165 -46 176 -46 9 0 59 177
52 184 -6 6 -158 46 -173 46 -8 0 -21 -33 -36 -91z"/>
<path d="M500 1840 c-7 -33 -13 -62 -14 -66 -1 -8 80 -34 106 -34 12 0 21 13
28 43 6 23 13 50 16 59 4 13 -5 20 -38 28 -24 7 -53 16 -64 20 -20 8 -23 4
-34 -50z"/>
</g>
</svg>
