<svg width="56" height="50" viewBox="0 0 56 50" fill="none" xmlns="http://www.w3.org/2000/svg">
<path d="M35.8703 18.0968C35.6265 18.0131 35.363 17.9722 35.0976 17.977L29.3781 18.2118L25.0481 14.072C24.951 13.9797 24.8461 13.8927 24.7341 13.8118C24.7139 13.7984 24.6915 13.7859 24.6702 13.7733C24.402 13.6152 24.0988 13.499 23.7764 13.4308C23.7596 13.4272 23.7416 13.4237 23.7248 13.4201C23.5878 13.3902 23.4485 13.3678 23.3076 13.353C22.1795 13.2314 21.048 13.125 19.9187 13.0114C19.7335 12.9849 19.5425 13.0049 19.372 13.0684C19.2016 13.132 19.0599 13.2361 18.9666 13.3664C18.4586 13.9906 17.9371 14.6086 17.4202 15.2284C17.1219 15.5852 16.8214 15.9402 16.4917 16.3328C16.4872 16.3284 16.4849 16.3248 16.4804 16.3203C16.4771 16.3247 16.4733 16.3289 16.4692 16.3328C16.1395 15.9402 15.839 15.5852 15.5407 15.2284C15.0237 14.6086 14.5023 13.9906 13.9943 13.3664C13.9009 13.2361 13.7593 13.132 13.5888 13.0684C13.4184 13.0049 13.2274 12.9849 13.0422 13.0114C12.6362 13.0525 12.2291 13.0919 11.8221 13.1321C11.0987 13.2037 10.3754 13.2752 9.65322 13.353C9.40813 13.3785 9.16763 13.4269 8.93663 13.497C8.93227 13.4985 8.92777 13.4997 8.92318 13.5006C8.28393 13.674 7.7455 14.0268 7.40814 14.4933C7.35049 14.5717 7.29917 14.6529 7.25451 14.7365L4.26255 20.3349L4.15602 20.5343C3.9612 20.8985 3.94837 21.3084 4.12014 21.6799L4.42628 22.347L6.84744 27.627C7.01324 27.9842 7.34161 28.2785 7.76719 28.4514C8.19277 28.6242 8.68436 28.6629 9.14411 28.5598C9.62671 28.4501 10.0349 28.192 10.2791 27.8424C10.5232 27.4928 10.5833 27.0801 10.4461 26.6952L9.86629 25.0729L8.55758 21.4062L9.68237 19.9807C9.6891 20.0827 9.69469 20.1819 9.69809 20.2812C9.7093 20.6076 9.72163 20.9341 9.73285 21.2605C9.74406 21.5654 9.75416 21.8695 9.76424 22.1745L11.3084 26.4993C11.4431 26.8773 11.4499 27.2769 11.3282 27.6577C11.2065 28.0384 10.9605 28.3867 10.6154 28.6671C10.4356 28.8141 10.2306 28.9399 10.0065 29.0409C10.1029 31.8115 10.1994 34.5818 10.2958 37.3517C10.3294 38.322 10.3788 39.8155 10.4225 41.072C10.4493 41.8486 10.8532 42.5866 11.549 43.1303C12.2448 43.674 13.1782 43.981 14.1524 43.9866L16.4804 44L18.8085 43.9866C19.7826 43.981 20.716 43.674 21.4119 43.1303C22.1077 42.5866 22.5116 41.8486 22.5383 41.072C22.5821 39.8155 22.6314 38.3221 22.6651 37.3517C22.8635 31.6621 23.0628 25.972 23.2628 20.2812C23.2729 19.9977 23.2964 19.4441 23.3233 18.9898C23.3233 18.9898 26.3287 21.3696 27.1575 21.9044C27.3274 22.0152 27.5143 22.1084 27.7137 22.1816C27.8473 22.1944 27.9823 22.1956 28.1163 22.1852L35.3152 20.9407C35.7271 20.9092 36.1141 20.7693 36.4151 20.5429C36.7162 20.3166 36.9142 20.0167 36.9778 19.6907C37.0415 19.3646 36.9672 19.031 36.7666 18.7423C36.5661 18.4537 36.2507 18.2266 35.8703 18.0968V18.0968Z" fill="url(#paint0_linear_101_1817)"/>
<path d="M12.8499 8.49016C13.012 9.32476 13.4594 10.077 14.1155 10.6178C14.7715 11.1586 15.5952 11.4544 16.4454 11.4544C17.2956 11.4544 18.1193 11.1586 18.7753 10.6178C19.4313 10.077 19.8787 9.32476 20.0409 8.49016L20.5996 5.60577C20.6739 5.06004 20.6305 4.50474 20.4724 3.97718C20.3142 3.44962 20.045 2.96203 19.6827 2.54718C19.3204 2.13233 18.8736 1.79984 18.3721 1.57205C17.8707 1.34427 17.3263 1.22646 16.7755 1.22656H16.1152C15.5645 1.22647 15.0201 1.34427 14.5186 1.57206C14.0172 1.79985 13.5703 2.13234 13.208 2.54719C12.8458 2.96203 12.5765 3.44962 12.4184 3.97718C12.2602 4.50474 12.2168 5.06004 12.2911 5.60577L12.8499 8.49016Z" fill="url(#paint1_linear_101_1817)"/>
<path d="M53.5604 35.2047C53.3817 35.1811 53.203 35.1609 53.0248 35.1402C52.7702 33.8226 52.2498 32.5707 51.4952 31.4609C51.608 31.3197 51.7199 31.1774 51.831 31.0341C52.1342 30.6447 52.433 30.2509 52.7186 29.8443L50.456 27.5818C50.0494 27.8673 49.6556 28.1661 49.2662 28.4693C49.1229 28.5801 48.9807 28.692 48.8394 28.8051C47.7283 28.0497 46.4749 27.5289 45.1556 27.2746C45.1355 27.0964 45.1141 26.9182 45.0917 26.74C45.0306 26.2506 44.9637 25.7608 44.878 25.2715H41.6782C41.593 25.7608 41.5261 26.2506 41.4645 26.74C41.4419 26.9182 41.4207 27.0964 41.401 27.2746C40.0816 27.5287 38.8279 28.0495 37.7168 28.8051C37.5755 28.6918 37.4332 28.5799 37.29 28.4693C36.9006 28.1661 36.5073 27.8673 36.1006 27.5818L33.8376 29.8443C34.1236 30.2509 34.4225 30.6447 34.7252 31.0341C34.8365 31.1769 34.9484 31.319 35.0609 31.4604C34.3055 32.5717 33.7848 33.8253 33.5304 35.1447C33.3522 35.1649 33.1742 35.1862 32.9963 35.2087C32.5065 35.2697 32.0172 35.3367 31.5273 35.4223V38.6221C32.0172 38.7073 32.5065 38.7743 32.9963 38.8358C33.1745 38.8584 33.3526 38.8796 33.5304 38.8993C33.7843 40.2173 34.3043 41.4698 35.0585 42.5801C34.9457 42.7219 34.833 42.8636 34.7227 43.0074C34.4205 43.3978 34.1227 43.7921 33.8376 44.1997L36.1006 46.4622C36.5082 46.1777 36.9026 45.8798 37.2929 45.5776C37.4367 45.4673 37.5785 45.3546 37.7202 45.2418C38.8293 45.9951 40.0802 46.5147 41.3966 46.7689C41.4168 46.9471 41.4375 47.1258 41.4611 47.304C41.5231 47.7938 41.591 48.2832 41.6782 48.773H44.878C44.9651 48.2832 45.0336 47.7938 45.0956 47.304C45.1192 47.1258 45.1394 46.9471 45.1601 46.7689C46.4763 46.5146 47.727 45.995 48.8359 45.2418C48.9777 45.3546 49.12 45.4673 49.2637 45.5776C49.6536 45.8798 50.0479 46.1777 50.456 46.4622L52.7186 44.1997C52.434 43.7921 52.1362 43.3978 51.8334 43.0074C51.7232 42.8631 51.6104 42.7214 51.4982 42.5796C52.2512 41.4706 52.7706 40.2199 53.0248 38.9037C53.203 38.883 53.3817 38.8629 53.5604 38.8392C54.0497 38.7772 54.5395 38.7093 55.0288 38.6221V35.4223C54.5395 35.3352 54.0497 35.2668 53.5604 35.2047ZM46.4341 43.2378C45.6178 43.6523 44.7279 43.9019 43.8152 43.9724C42.9025 44.043 41.9848 43.933 41.1145 43.6489C40.2443 43.3647 39.4385 42.9119 38.7433 42.3164C38.048 41.7208 37.4769 40.9941 37.0625 40.1777C36.8982 39.8561 36.7596 39.5219 36.648 39.1784C36.364 38.308 36.2547 37.3901 36.3265 36.4774C36.3982 35.5647 36.6495 34.6751 37.066 33.8598C37.7371 32.5482 38.8041 31.4812 40.1157 30.8101C40.4395 30.6442 40.7759 30.5043 41.1219 30.3917C42.5235 29.9367 44.0332 29.9368 45.4348 30.3922C45.7806 30.5046 46.1169 30.6444 46.4405 30.8101C47.7521 31.4812 48.8191 32.5482 49.4902 33.8598C49.9899 34.8377 50.2508 35.9202 50.2514 37.0184C50.252 38.1166 49.9923 39.1993 49.4936 40.1778C48.8216 41.4946 47.7508 42.5655 46.4341 43.2378Z" fill="#495056"/>
<path d="M43.2777 31.5088L42.6758 31.9459L42.9059 32.6533H43.6496L43.8797 31.9459L43.2777 31.5088Z" fill="#495056"/>
<path d="M48.0738 34.2613L47.3941 33.959L46.8965 34.5121L47.2688 35.1563L47.9965 35.0012L48.0738 34.2613Z" fill="#495056"/>
<path d="M48.0918 39.7922L48.0133 39.0523L47.2855 38.8984L46.9141 39.543L47.4125 40.0953L48.0918 39.7922Z" fill="#495056"/>
<path d="M43.3117 42.575L43.9129 42.1367L43.6816 41.4297L42.9379 41.4309L42.709 42.1387L43.3117 42.575Z" fill="#495056"/>
<path d="M38.5117 39.8301L39.1922 40.1313L39.6887 39.5773L39.3152 38.9336L38.5879 39.0898L38.5117 39.8301Z" fill="#495056"/>
<path d="M38.4844 34.2994L38.5645 35.0393L39.2922 35.192L39.6625 34.5467L39.1633 33.9951L38.4844 34.2994Z" fill="#495056"/>
<path d="M43.2768 39.5125C44.6518 39.5125 45.7664 38.3979 45.7664 37.0229C45.7664 35.6479 44.6518 34.5332 43.2768 34.5332C41.9018 34.5332 40.7871 35.6479 40.7871 37.0229C40.7871 38.3979 41.9018 39.5125 43.2768 39.5125Z" fill="#495056"/>
<defs>
<linearGradient id="paint0_linear_101_1817" x1="5.79348" y1="13" x2="44.6937" y2="22.6993" gradientUnits="userSpaceOnUse">
<stop offset="0.00164986" stop-color="#5552FF"/>
<stop offset="0.489583" stop-color="#00C1EB"/>
<stop offset="1" stop-color="#00E3AD"/>
</linearGradient>
<linearGradient id="paint1_linear_101_1817" x1="12.7112" y1="1.22656" x2="22.8299" y2="3.16819" gradientUnits="userSpaceOnUse">
<stop offset="0.00164986" stop-color="#5552FF"/>
<stop offset="0.489583" stop-color="#00C1EB"/>
<stop offset="1" stop-color="#00E3AD"/>
</linearGradient>
</defs>
</svg>
