<svg width="50" height="50" viewBox="0 0 50 50" fill="none" xmlns="http://www.w3.org/2000/svg">
<path d="M32.9949 29.7413C32.6985 27.6486 31.9928 25.6347 30.918 23.8148C29.8433 21.9948 28.4205 20.4044 26.731 19.1344C25.0416 17.8644 23.1184 16.9396 21.0715 16.4129C19.0246 15.8862 16.894 15.7679 14.8013 16.0648C12.7086 16.3616 10.695 17.0678 8.87527 18.143C7.05557 19.2182 5.4655 20.6413 4.19587 22.3311C2.92624 24.0208 2.00192 25.9442 1.4757 27.9912C0.949479 30.0383 0.831672 32.1689 1.129 34.2615C1.23602 35.0256 1.39892 35.7808 1.61638 36.521C2.0999 37.9404 2.77812 39.2858 3.63161 40.5187C3.63982 40.6467 3.64805 40.7747 3.64923 40.9015C3.67647 42.085 3.41999 43.2577 2.90125 44.3218C2.3825 45.3858 1.61656 46.3102 0.667468 47.0177C0.606377 47.063 0.560059 47.1253 0.534362 47.1968C0.508666 47.2683 0.504743 47.3459 0.52309 47.4196C0.541437 47.4934 0.58123 47.5601 0.637444 47.6112C0.693659 47.6624 0.763773 47.6958 0.838933 47.7071C3.65976 48.1164 6.5319 47.4603 8.89523 45.8668C8.96805 45.8187 9.03969 45.7693 9.11015 45.72L9.16887 45.6777C10.9952 46.7683 12.9916 47.5448 15.0749 47.9748C17.5282 48.2777 20.0182 48.0118 22.3522 47.1976C24.6862 46.3835 26.8015 45.043 28.5342 43.28C30.2669 41.517 31.5705 39.3788 32.344 37.0311C33.1175 34.6833 33.3402 32.189 32.9949 29.7413L32.9949 29.7413ZM9.54703 34.1335C9.12539 34.1334 8.71325 34.0083 8.36272 33.7739C8.01218 33.5396 7.739 33.2066 7.5777 32.8171C7.41639 32.4275 7.37422 31.9988 7.45651 31.5853C7.53879 31.1718 7.74184 30.7919 8.03999 30.4938C8.33813 30.1956 8.71798 29.9926 9.13151 29.9103C9.54504 29.828 9.97369 29.8702 10.3633 30.0315C10.7528 30.1928 11.0858 30.466 11.3201 30.8165C11.5545 31.167 11.6796 31.5792 11.6797 32.0008C11.6797 32.2809 11.6246 32.5582 11.5174 32.817C11.4102 33.0757 11.2531 33.3108 11.0551 33.5089C10.857 33.7069 10.6219 33.864 10.3632 33.9712C10.1044 34.0784 9.8271 34.1335 9.54703 34.1335ZM17.1089 34.1335C16.6873 34.1334 16.2751 34.0082 15.9246 33.7739C15.5741 33.5396 15.3009 33.2066 15.1396 32.817C14.9783 32.4275 14.9361 31.9988 15.0184 31.5853C15.1007 31.1718 15.3038 30.7919 15.6019 30.4938C15.9 30.1956 16.2799 29.9926 16.6934 29.9103C17.107 29.828 17.5356 29.8702 17.9252 30.0315C18.3147 30.1928 18.6477 30.466 18.8821 30.8165C19.1164 31.167 19.2415 31.5792 19.2416 32.0008C19.2416 32.2809 19.1865 32.5582 19.0793 32.817C18.9721 33.0757 18.815 33.3108 18.617 33.5089C18.4189 33.7069 18.1838 33.864 17.9251 33.9712C17.6663 34.0784 17.389 34.1335 17.1089 34.1335ZM24.6696 34.1335C24.248 34.1334 23.8358 34.0083 23.4853 33.7739C23.1348 33.5396 22.8616 33.2066 22.7003 32.817C22.539 32.4275 22.4968 31.9988 22.5791 31.5853C22.6614 31.1718 22.8645 30.7919 23.1626 30.4938C23.4607 30.1956 23.8406 29.9926 24.2541 29.9103C24.6677 29.828 25.0963 29.8702 25.4859 30.0315C25.8754 30.1928 26.2084 30.466 26.4427 30.8165C26.6771 31.167 26.8022 31.5792 26.8023 32.0008C26.8023 32.2809 26.7472 32.5582 26.64 32.817C26.5328 33.0757 26.3757 33.3108 26.1777 33.5089C25.9796 33.7069 25.7445 33.864 25.4858 33.9712C25.227 34.0784 24.9497 34.1335 24.6696 34.1335Z" fill="url(#paint0_linear_101_1727)"/>
<path d="M49.4769 33.4155C49.459 33.4895 49.4193 33.5564 49.363 33.6077C49.3067 33.659 49.2363 33.6922 49.161 33.7032C46.3403 34.1129 43.4681 33.4572 41.1047 31.8641C41.0319 31.8159 40.9602 31.7654 40.8898 31.7161L40.831 31.6738C39.0603 32.7316 37.1289 33.4936 35.1129 33.9298C35.2687 32.4394 35.2407 30.9355 35.0296 29.4519C34.4227 25.1791 32.3136 21.2623 29.0805 18.4036C25.8474 15.5449 21.7017 13.9315 17.3867 13.8525C17.9349 11.7941 18.8862 9.86503 20.1856 8.1771C21.4849 6.48918 23.1065 5.07599 24.9561 4.01947C26.8057 2.96296 28.8467 2.28414 30.9607 2.02237C33.0747 1.76061 35.2196 1.92111 37.2711 2.49456C39.3225 3.06802 41.2398 4.04302 42.9116 5.36304C44.5834 6.68306 45.9765 8.32183 47.0102 10.1843C48.0439 12.0468 48.6976 14.096 48.9333 16.213C49.1691 18.3301 48.9822 20.4729 48.3835 22.5171C47.8999 23.9363 47.2221 25.2816 46.3695 26.5147C46.3601 26.6428 46.3519 26.7708 46.3507 26.8976C46.3234 28.0812 46.5799 29.2542 47.0986 30.3184C47.6174 31.3827 48.3833 32.3073 49.3324 33.015C49.3936 33.0598 49.44 33.1219 49.4657 33.1932C49.4915 33.2645 49.4953 33.3419 49.4769 33.4155Z" fill="#495056"/>
<defs>
<linearGradient id="paint0_linear_101_1727" x1="2.28569" y1="15.9053" x2="40.9727" y2="25.0935" gradientUnits="userSpaceOnUse">
<stop offset="0.00164986" stop-color="#5552FF"/>
<stop offset="0.489583" stop-color="#00C1EB"/>
<stop offset="1" stop-color="#00E3AD"/>
</linearGradient>
</defs>
</svg>
