<svg width="50" height="50" viewBox="0 0 50 50" fill="none" xmlns="http://www.w3.org/2000/svg">
<path d="M46.875 43.75H3.125C2.65625 43.75 2.03125 43.4375 1.71875 42.9688C1.40625 42.5 1.40625 41.875 1.71875 41.4062L4.84375 36.7188C5.15625 36.25 5.625 35.9375 6.25 35.9375H43.75C44.375 35.9375 44.8438 36.25 45.1562 36.875L48.2812 41.5625C48.5938 42.0313 48.4375 42.6563 48.2812 43.125C47.9688 43.4375 47.3438 43.75 46.875 43.75Z" fill="#495056"/>
<path d="M42.1875 7.8125H7.8125C6.875 7.8125 6.25 8.4375 6.25 9.375V31.25C6.25 32.1875 6.875 32.8125 7.8125 32.8125H42.1875C43.125 32.8125 43.75 32.1875 43.75 31.25V9.375C43.75 8.4375 43.125 7.8125 42.1875 7.8125ZM18.2812 23.9062C18.9062 24.5312 18.9062 25.4688 18.2812 26.0938C17.9688 26.4063 17.6562 26.5625 17.1875 26.5625C16.7188 26.5625 16.4062 26.4063 16.0938 26.0938L11.4063 21.4062C10.7813 20.7812 10.7813 19.8438 11.4063 19.2188L16.0938 14.5313C16.7188 13.9063 17.6562 13.9063 18.2812 14.5313C18.9062 15.1563 18.9062 16.0938 18.2812 16.7188L14.6875 20.3125L18.2812 23.9062ZM29.5312 14.6875L23.2812 27.1875C22.9688 27.8125 22.5 28.125 21.875 28.125C21.5625 28.125 21.4063 28.125 21.25 27.9688C20.4688 27.6562 20.1562 26.7188 20.625 25.9375L26.875 13.4375C27.1875 12.6563 28.125 12.3437 28.9062 12.8125C29.5312 13.125 29.8438 14.0625 29.5312 14.6875ZM38.5938 21.4062L33.9063 26.0938C33.5938 26.4063 33.2812 26.5625 32.8125 26.5625C32.3438 26.5625 32.0312 26.4063 31.7187 26.0938C31.0937 25.4688 31.0937 24.5312 31.7187 23.9062L35.3125 20.3125L31.7187 16.7188C31.0937 16.0938 31.0937 15.1563 31.7187 14.5313C32.3437 13.9063 33.2813 13.9063 33.9063 14.5313L38.5938 19.2188C39.2188 19.8438 39.2188 20.7812 38.5938 21.4062Z" fill="url(#paint0_linear_101_1762)"/>
<defs>
<linearGradient id="paint0_linear_101_1762" x1="8.28804" y1="7.8125" x2="50.082" y2="22.4963" gradientUnits="userSpaceOnUse">
<stop offset="0.00164986" stop-color="#5552FF"/>
<stop offset="0.489583" stop-color="#00C1EB"/>
<stop offset="1" stop-color="#00E3AD"/>
</linearGradient>
</defs>
</svg>
