<svg width="50" height="50" viewBox="0 0 50 50" fill="none" xmlns="http://www.w3.org/2000/svg">
<path d="M38.1868 11.8128L13.7285 36.2711C12.8119 37.1878 11.2702 37.0628 10.5202 35.9794C7.93685 32.2086 6.41602 27.7503 6.41602 23.167V14.0212C6.41602 12.3128 7.70769 10.3753 9.29103 9.72949L20.8952 4.97949C23.5202 3.89616 26.4369 3.89616 29.0619 4.97949L37.4785 8.41698C38.8744 8.97948 39.2285 10.7712 38.1868 11.8128Z" fill="url(#paint0_linear_163_2232)"/>
<path d="M40.1462 14.6664C41.5003 13.5206 43.5629 14.4997 43.5629 16.2705V23.1664C43.5629 33.3539 36.167 42.8955 26.0629 45.6872C25.3754 45.8747 24.6254 45.8747 23.917 45.6872C20.9587 44.8539 18.2087 43.4581 15.8545 41.6247C14.8545 40.8539 14.7504 39.3956 15.6254 38.4997C20.167 33.8539 33.4587 20.3122 40.1462 14.6664Z" fill="#495056"/>
<defs>
<linearGradient id="paint0_linear_163_2232" x1="8.17546" y1="4.167" x2="46.6434" y2="13.0828" gradientUnits="userSpaceOnUse">
<stop offset="0.00164986" stop-color="#5552FF"/>
<stop offset="0.489583" stop-color="#00C1EB"/>
<stop offset="1" stop-color="#00E3AD"/>
</linearGradient>
</defs>
</svg>
