<svg width="50" height="50" viewBox="0 0 50 50" fill="none" xmlns="http://www.w3.org/2000/svg">
<path d="M25 3.125C12.9688 3.125 3.125 12.9688 3.125 25C3.125 37.0312 12.9688 46.875 25 46.875C37.0312 46.875 46.875 37.0312 46.875 25C46.875 12.9688 37.0312 3.125 25 3.125ZM29.6875 18.75C29.6875 17.8125 30.3125 17.1875 31.25 17.1875C32.1875 17.1875 32.8125 17.8125 32.8125 18.75V25C32.8125 25.9375 32.1875 26.5625 31.25 26.5625C30.3125 26.5625 29.6875 25.9375 29.6875 25V18.75ZM17.1875 18.75C17.1875 17.8125 17.8125 17.1875 18.75 17.1875C19.6875 17.1875 20.3125 17.8125 20.3125 18.75V25C20.3125 25.9375 19.6875 26.5625 18.75 26.5625C17.8125 26.5625 17.1875 25.9375 17.1875 25V18.75ZM34.2188 30.9375C31.7188 33.125 28.4375 34.375 25 34.375C21.5625 34.375 18.2813 33.125 15.7813 30.9375C15.1563 30.3125 15 29.375 15.625 28.75C16.25 28.125 17.1875 27.9687 17.8125 28.5937C19.8438 30.3125 22.3438 31.4062 25 31.4062C27.6562 31.4062 30.1562 30.4687 32.1875 28.5937C32.8125 27.9687 33.75 28.125 34.375 28.75C35 29.375 35 30.3125 34.2188 30.9375Z" fill="#495056"/>
</svg>
