<svg width="500" height="500" viewBox="0 0 500 500" fill="none" xmlns="http://www.w3.org/2000/svg">
<path d="M444.091 265.15H417.611V276.34H444.091V265.15Z" fill="#EBEBEB"/>
<path d="M444.091 36.7598H417.611V47.9498H444.091V36.7598Z" fill="#EBEBEB"/>
<path d="M458.861 50.8696H432.381V62.0596H458.861V50.8696Z" fill="#EBEBEB"/>
<path d="M67.6206 36.7798H41.1406V47.9698H67.6206V36.7798Z" fill="#EBEBEB"/>
<path d="M194.59 170.65H221.07V159.46H194.59V170.65Z" fill="#EBEBEB"/>
<path d="M209.36 156.54H235.84V145.35H209.36V156.54Z" fill="#EBEBEB"/>
<path d="M317.726 106.019C323.832 93.1752 318.371 77.813 305.528 71.7062C292.684 65.5995 277.322 71.0606 271.215 83.9041C265.109 96.7475 270.57 112.11 283.413 118.216C296.257 124.323 311.619 118.862 317.726 106.019Z" fill="#EBEBEB"/>
<path d="M304.892 118.265C317.46 113.149 323.501 98.8127 318.385 86.2445C313.268 73.6763 298.932 67.6352 286.364 72.7514C273.796 77.8676 267.755 92.2037 272.871 104.772C277.987 117.34 292.323 123.381 304.892 118.265Z" fill="#DBDBDB"/>
<path d="M304.317 116.838C316.09 112.041 321.745 98.6069 316.948 86.8333C312.15 75.0596 298.717 69.4044 286.943 74.2019C275.169 78.9995 269.514 92.4331 274.312 104.207C279.109 115.98 292.543 121.636 304.317 116.838Z" fill="white"/>
<path opacity="0.5" d="M318.13 90.6399C307.64 96.9899 290.42 107.41 280.79 113.12C278.065 110.827 275.911 107.93 274.5 104.66L306.34 75.1499C309.315 76.7166 311.912 78.9147 313.949 81.5905C315.985 84.2662 317.412 87.3547 318.13 90.6399Z" fill="#EBEBEB"/>
<path opacity="0.5" d="M318.632 96.3296C318.547 98.8904 318.033 101.419 317.111 103.81L288.401 117.39C287.15 116.973 285.935 116.451 284.771 115.83C293.451 110.82 309.292 101.7 318.632 96.3296Z" fill="#EBEBEB"/>
<path d="M295.85 74.1797H295.41V77.6697H295.85V74.1797Z" fill="#C7C7C7"/>
<path d="M285.148 76.9156L284.758 77.1406L286.503 80.1631L286.893 79.9381L285.148 76.9156Z" fill="#C7C7C7"/>
<path d="M277.234 84.6414L277.014 85.0225L280.036 86.7675L280.256 86.3864L277.234 84.6414Z" fill="#C7C7C7"/>
<path d="M277.771 95.2998H274.281V95.7398H277.771V95.2998Z" fill="#C7C7C7"/>
<path d="M280.054 104.259L277.031 106.004L277.251 106.385L280.274 104.64L280.054 104.259Z" fill="#C7C7C7"/>
<path d="M286.511 110.891L284.768 113.914L285.157 114.139L286.901 111.116L286.511 110.891Z" fill="#C7C7C7"/>
<path d="M295.85 113.38H295.41V116.87H295.85V113.38Z" fill="#C7C7C7"/>
<path d="M305.975 111.321L305.584 111.546L307.329 114.582L307.72 114.357L305.975 111.321Z" fill="#C7C7C7"/>
<path d="M311.183 104.25L310.963 104.631L313.985 106.376L314.205 105.995L311.183 104.25Z" fill="#C7C7C7"/>
<path d="M316.98 95.2998H313.49V95.7398H316.98V95.2998Z" fill="#C7C7C7"/>
<path d="M314.005 84.6598L310.982 86.4048L311.202 86.7858L314.225 85.0408L314.005 84.6598Z" fill="#C7C7C7"/>
<path d="M306.099 76.9083L304.355 79.9316L304.745 80.1564L306.489 77.1331L306.099 76.9083Z" fill="#C7C7C7"/>
<path d="M295.961 75.75L296.721 97.08L294.541 97.05L295.371 75.75H295.961Z" fill="#C7C7C7"/>
<path d="M309.251 88.0898L294.901 97.2498L293.861 95.3298L308.961 87.5698L309.251 88.0898Z" fill="#A6A6A6"/>
<path d="M296.371 95.5199C296.373 95.6179 296.355 95.7152 296.318 95.8062C296.281 95.8971 296.227 95.9799 296.158 96.0496C296.089 96.1194 296.007 96.1748 295.917 96.2126C295.826 96.2504 295.729 96.2699 295.631 96.2699C295.526 96.2821 295.42 96.2719 295.319 96.2401C295.218 96.2082 295.125 96.1553 295.046 96.085C294.967 96.0146 294.904 95.9283 294.861 95.8318C294.817 95.7353 294.795 95.6307 294.795 95.5249C294.795 95.4191 294.817 95.3145 294.861 95.218C294.904 95.1215 294.967 95.0352 295.046 94.9648C295.125 94.8945 295.218 94.8416 295.319 94.8098C295.42 94.7779 295.526 94.7677 295.631 94.7799C295.828 94.7799 296.016 94.8579 296.155 94.9966C296.293 95.1354 296.371 95.3236 296.371 95.5199Z" fill="#C7C7C7"/>
<path d="M457.172 89.2197H345.771V228.22H457.172V89.2197Z" fill="#EBEBEB"/>
<path d="M452.401 94.1299H350.551V223.4H452.401V94.1299Z" fill="white"/>
<path d="M389.05 129.44C380.68 128.57 374.44 139.05 369.05 155.44C363.66 171.83 364.21 181.11 364.92 183.8C365.63 186.49 368.57 192.17 374.37 192.8C380.17 193.43 384.48 189.03 387.59 186.52C390.7 184.01 397.03 182.87 398.35 177.13C399.67 171.39 397.35 152.13 396.98 148.61C396.61 145.09 396.47 130.22 389.05 129.44Z" fill="#DBDBDB"/>
<path d="M395.691 178.62C394.171 182.05 388.201 182.36 386.361 184.44C384.521 186.52 379.271 190.81 375.201 191.05C371.131 191.29 368.101 186.67 367.071 184.28C366.311 182.53 365.981 176.68 367.561 167.89C368.228 164.177 369.103 160.504 370.181 156.89C371.082 153.837 372.14 150.833 373.351 147.89C377.241 138.46 381.721 132.79 384.851 131.73C395.291 128.23 393.941 143.73 395.051 150.31C395.421 152.5 395.781 155.97 396.051 159.75C396.191 161.88 396.311 164.12 396.381 166.29C396.561 171.87 396.421 177 395.691 178.62Z" fill="#EBEBEB"/>
<path d="M375.251 150.14C375.251 150.005 375.217 149.873 375.152 149.755C375.087 149.638 374.993 149.539 374.879 149.468C374.764 149.396 374.634 149.356 374.5 149.349C374.365 149.343 374.231 149.37 374.111 149.43C373.82 149.608 373.573 149.849 373.386 150.134C373.199 150.419 373.078 150.742 373.031 151.08C372.911 151.61 373.031 152.5 373.741 152.42C374.201 152.36 374.491 151.88 374.741 151.52C375.057 151.128 375.236 150.643 375.251 150.14Z" fill="#DBDBDB"/>
<path d="M376.121 144.66C375.582 145.069 375.224 145.671 375.121 146.34C374.961 146.86 374.721 147.8 375.511 147.91C376.141 147.99 376.451 147.29 376.651 146.83C376.897 146.34 377.059 145.813 377.131 145.27C377.137 145.149 377.11 145.029 377.053 144.922C376.996 144.815 376.911 144.725 376.808 144.663C376.704 144.6 376.586 144.567 376.465 144.566C376.344 144.566 376.225 144.598 376.121 144.66Z" fill="#DBDBDB"/>
<path d="M377.81 148.62C377.789 148.538 377.75 148.462 377.696 148.397C377.642 148.333 377.574 148.281 377.497 148.247C377.42 148.212 377.336 148.195 377.252 148.197C377.168 148.2 377.085 148.221 377.01 148.26C376.624 148.468 376.318 148.797 376.137 149.196C375.956 149.595 375.912 150.043 376.01 150.47C376.033 150.558 376.076 150.641 376.135 150.711C376.194 150.781 376.268 150.837 376.351 150.874C376.435 150.912 376.526 150.93 376.617 150.927C376.709 150.925 376.799 150.902 376.88 150.86C377.231 150.613 377.505 150.271 377.669 149.874C377.834 149.478 377.883 149.043 377.81 148.62Z" fill="#DBDBDB"/>
<path d="M380.431 142.75C380.453 142.625 380.437 142.497 380.386 142.38C380.335 142.264 380.251 142.166 380.145 142.097C380.039 142.028 379.914 141.991 379.788 141.992C379.661 141.992 379.537 142.03 379.431 142.1C379.049 142.378 378.752 142.758 378.575 143.196C378.399 143.635 378.349 144.114 378.431 144.58C378.477 144.705 378.569 144.807 378.689 144.865C378.808 144.923 378.945 144.932 379.072 144.89C379.453 144.668 379.775 144.358 380.012 143.985C380.248 143.613 380.392 143.189 380.431 142.75Z" fill="#DBDBDB"/>
<path d="M377.79 140.78C377.415 140.987 377.117 141.31 376.94 141.7C376.737 142.058 376.683 142.482 376.79 142.88C376.802 142.927 376.826 142.972 376.857 143.009C376.889 143.047 376.929 143.077 376.975 143.097C377.02 143.118 377.069 143.127 377.118 143.126C377.168 143.125 377.216 143.112 377.26 143.09C377.608 142.912 377.909 142.654 378.138 142.338C378.367 142.022 378.519 141.656 378.58 141.27C378.65 140.85 378.11 140.62 377.79 140.78Z" fill="#DBDBDB"/>
<path d="M380.381 137.83C380.007 138.002 379.687 138.273 379.454 138.612C379.222 138.952 379.086 139.349 379.061 139.76C379.06 139.864 379.086 139.966 379.136 140.057C379.186 140.148 379.259 140.225 379.347 140.28C379.435 140.335 379.536 140.367 379.64 140.372C379.744 140.377 379.847 140.356 379.941 140.31C380.556 139.855 380.975 139.182 381.111 138.43C381.136 138.333 381.133 138.232 381.102 138.137C381.072 138.043 381.015 137.959 380.938 137.896C380.861 137.832 380.768 137.793 380.669 137.781C380.57 137.769 380.47 137.786 380.381 137.83Z" fill="#DBDBDB"/>
<path d="M382.79 135.4C382.757 135.265 382.672 135.149 382.554 135.076C382.436 135.004 382.295 134.98 382.16 135.01C381.8 135.1 381.63 135.39 381.44 135.68C381.336 135.795 381.26 135.932 381.218 136.082C381.177 136.231 381.17 136.388 381.2 136.54C381.219 136.622 381.265 136.696 381.33 136.75C381.395 136.804 381.475 136.836 381.56 136.84C381.727 136.84 381.892 136.797 382.038 136.717C382.185 136.637 382.309 136.521 382.4 136.38C382.501 136.274 382.595 136.16 382.68 136.04C382.8 135.849 382.839 135.619 382.79 135.4Z" fill="#DBDBDB"/>
<path d="M382.411 140.36C382.395 140.29 382.365 140.224 382.322 140.166C382.28 140.107 382.227 140.058 382.165 140.021C382.104 139.984 382.035 139.959 381.964 139.949C381.893 139.938 381.821 139.942 381.751 139.96C381.564 140.022 381.395 140.128 381.257 140.269C381.12 140.41 381.018 140.581 380.961 140.77C380.801 141.11 380.711 141.77 381.201 141.88C381.691 141.99 381.901 141.67 382.111 141.35C382.171 141.24 382.251 141.13 382.311 141.02C382.419 140.818 382.454 140.585 382.411 140.36Z" fill="#DBDBDB"/>
<path d="M380.251 146.24C380.252 146.132 380.225 146.026 380.173 145.931C380.122 145.837 380.047 145.757 379.955 145.7C379.864 145.643 379.76 145.61 379.652 145.605C379.545 145.599 379.437 145.622 379.341 145.67C379.017 145.879 378.767 146.185 378.625 146.543C378.484 146.902 378.458 147.296 378.551 147.67C378.571 147.747 378.608 147.819 378.659 147.881C378.711 147.942 378.775 147.992 378.848 148.025C378.921 148.059 379 148.075 379.08 148.075C379.16 148.074 379.239 148.055 379.311 148.02C379.59 147.838 379.812 147.582 379.951 147.28C380.145 146.967 380.248 146.607 380.251 146.24Z" fill="#DBDBDB"/>
<path d="M375.05 152.69C374.658 153.112 374.434 153.664 374.42 154.24C374.42 154.58 374.54 155.51 375.11 155.3C375.282 155.216 375.434 155.097 375.556 154.951C375.678 154.804 375.768 154.633 375.82 154.45C376.019 154.067 376.157 153.655 376.23 153.23C376.231 153.092 376.193 152.957 376.12 152.841C376.046 152.725 375.94 152.633 375.815 152.576C375.691 152.519 375.552 152.499 375.416 152.519C375.28 152.54 375.153 152.599 375.05 152.69Z" fill="#DBDBDB"/>
<path d="M372.331 154.33C372.072 154.587 371.884 154.905 371.782 155.255C371.681 155.605 371.67 155.975 371.751 156.33C371.778 156.425 371.831 156.51 371.905 156.576C371.979 156.642 372.07 156.685 372.168 156.701C372.266 156.716 372.366 156.704 372.456 156.665C372.547 156.626 372.625 156.562 372.681 156.48C373.054 155.984 373.289 155.397 373.361 154.78C373.358 154.662 373.321 154.547 373.255 154.449C373.19 154.351 373.097 154.274 372.989 154.227C372.881 154.179 372.761 154.164 372.645 154.182C372.528 154.201 372.419 154.252 372.331 154.33Z" fill="#DBDBDB"/>
<path d="M374.001 159.06C373.98 158.966 373.937 158.879 373.877 158.805C373.817 158.73 373.74 158.671 373.653 158.631C373.565 158.591 373.47 158.572 373.374 158.576C373.279 158.579 373.185 158.604 373.101 158.65C372.85 158.792 372.651 159.008 372.531 159.27C372.445 159.507 372.397 159.757 372.391 160.01C372.391 160.52 372.751 161.16 373.341 160.92C373.489 160.833 373.617 160.716 373.717 160.577C373.817 160.437 373.886 160.278 373.921 160.11C374.047 159.775 374.075 159.41 374.001 159.06Z" fill="#DBDBDB"/>
<path d="M371.09 162.2C371.09 162.092 371.059 161.987 371 161.896C370.942 161.806 370.859 161.734 370.76 161.69C370.662 161.645 370.553 161.63 370.447 161.646C370.34 161.662 370.241 161.709 370.16 161.78C369.968 161.964 369.825 162.193 369.743 162.446C369.66 162.699 369.642 162.968 369.69 163.23C369.715 163.324 369.764 163.41 369.831 163.48C369.899 163.55 369.983 163.602 370.077 163.63C370.17 163.658 370.269 163.662 370.364 163.641C370.459 163.62 370.547 163.575 370.62 163.51C370.928 163.143 371.095 162.679 371.09 162.2Z" fill="#DBDBDB"/>
<path d="M371.631 164.56C371.515 164.521 371.39 164.523 371.276 164.565C371.161 164.607 371.065 164.686 371.001 164.79C370.917 164.927 370.885 165.09 370.911 165.25C370.931 165.367 370.987 165.475 371.071 165.56C371.133 165.636 371.218 165.691 371.314 165.714C371.41 165.738 371.511 165.729 371.601 165.69C371.657 165.666 371.711 165.635 371.761 165.6C371.838 165.54 371.901 165.465 371.946 165.378C371.991 165.292 372.016 165.197 372.021 165.1C372.026 164.979 371.99 164.86 371.919 164.762C371.848 164.664 371.747 164.593 371.631 164.56Z" fill="#DBDBDB"/>
<path d="M385 133.19C384.883 133.154 384.757 133.157 384.642 133.199C384.527 133.24 384.428 133.318 384.36 133.42C384.281 133.563 384.249 133.727 384.27 133.89C384.292 134.005 384.352 134.111 384.44 134.19C384.502 134.266 384.587 134.321 384.683 134.344C384.779 134.368 384.879 134.359 384.97 134.32L385.12 134.24C385.198 134.182 385.263 134.106 385.308 134.02C385.353 133.933 385.378 133.837 385.38 133.74C385.384 133.619 385.349 133.501 385.281 133.402C385.212 133.303 385.114 133.228 385 133.19Z" fill="#DBDBDB"/>
<path d="M413.89 129.44C422.26 128.57 428.5 139.05 433.89 155.44C439.28 171.83 438.73 181.11 438.02 183.8C437.31 186.49 434.37 192.17 428.57 192.8C422.77 193.43 418.46 189.03 415.35 186.52C412.24 184.01 405.9 182.87 404.59 177.13C403.28 171.39 405.59 152.13 405.96 148.61C406.33 145.09 406.47 130.22 413.89 129.44Z" fill="#DBDBDB"/>
<path d="M407.251 178.62C408.761 182.05 414.741 182.36 416.581 184.44C418.421 186.52 423.671 190.81 427.741 191.05C431.811 191.29 434.841 186.67 435.871 184.28C436.631 182.53 436.961 176.68 435.381 167.89C434.714 164.177 433.84 160.504 432.761 156.89C431.86 153.837 430.802 150.833 429.591 147.89C425.701 138.46 421.221 132.79 418.091 131.73C407.651 128.23 409.001 143.73 407.891 150.31C407.521 152.5 407.161 155.97 406.891 159.75C406.751 161.88 406.631 164.12 406.561 166.29C406.381 171.87 406.521 177 407.251 178.62Z" fill="#EBEBEB"/>
<path d="M409.761 153.39C409.65 153.283 409.501 153.223 409.346 153.223C409.192 153.223 409.043 153.283 408.931 153.39C408.341 153.96 407.931 156.18 409.211 156.24C410.491 156.3 410.361 154 409.761 153.39Z" fill="#DBDBDB"/>
<path d="M412 156C411.916 155.917 411.803 155.871 411.685 155.871C411.567 155.871 411.454 155.917 411.37 156C411.106 156.317 410.932 156.701 410.867 157.109C410.801 157.517 410.848 157.935 411 158.32C411.07 158.453 411.178 158.562 411.309 158.635C411.441 158.708 411.591 158.74 411.741 158.729C411.891 158.717 412.035 158.662 412.153 158.569C412.272 158.477 412.362 158.352 412.41 158.21C412.545 157.838 412.578 157.437 412.506 157.049C412.433 156.66 412.259 156.298 412 156Z" fill="#DBDBDB"/>
<path d="M409.001 158.55C408.141 158.89 408.101 160.46 408.481 161.14C408.558 161.276 408.671 161.387 408.808 161.46C408.946 161.533 409.101 161.566 409.256 161.555C409.411 161.543 409.56 161.488 409.685 161.395C409.81 161.302 409.906 161.175 409.961 161.03C410.131 160.44 410.081 158.09 409.001 158.55Z" fill="#DBDBDB"/>
<path d="M411.651 162.56C411.596 162.459 411.517 162.374 411.42 162.313C411.323 162.252 411.212 162.217 411.098 162.211C410.984 162.205 410.87 162.228 410.767 162.279C410.664 162.329 410.576 162.405 410.511 162.5C410.349 162.724 410.249 162.988 410.221 163.263C410.193 163.539 410.238 163.817 410.351 164.07C410.414 164.182 410.505 164.277 410.615 164.345C410.725 164.413 410.85 164.452 410.979 164.458C411.109 164.464 411.237 164.437 411.353 164.38C411.469 164.322 411.568 164.236 411.641 164.13C411.778 163.891 411.85 163.621 411.852 163.346C411.854 163.071 411.784 162.8 411.651 162.56Z" fill="#DBDBDB"/>
<path d="M409.001 165.38C408.882 165.262 408.722 165.196 408.556 165.196C408.389 165.196 408.229 165.262 408.111 165.38C408 165.491 407.914 165.624 407.859 165.77C407.803 165.917 407.778 166.073 407.787 166.23C407.795 166.386 407.836 166.539 407.908 166.679C407.979 166.818 408.079 166.941 408.201 167.04C408.316 167.118 408.455 167.156 408.594 167.147C408.734 167.137 408.866 167.082 408.971 166.99C409.168 166.77 409.28 166.486 409.286 166.19C409.291 165.895 409.19 165.607 409.001 165.38Z" fill="#DBDBDB"/>
<path d="M410.001 168.55C409.919 168.5 409.826 168.474 409.731 168.474C409.635 168.474 409.542 168.5 409.461 168.55C409.355 168.611 409.27 168.703 409.219 168.814C409.167 168.925 409.15 169.049 409.171 169.17C409.197 169.29 409.262 169.398 409.356 169.478C409.45 169.557 409.568 169.604 409.691 169.61C409.8 169.615 409.908 169.589 410.002 169.534C410.096 169.479 410.172 169.397 410.221 169.3C410.284 169.17 410.297 169.021 410.256 168.882C410.215 168.743 410.124 168.625 410.001 168.55Z" fill="#DBDBDB"/>
<path d="M412.34 149.93C412.303 149.865 412.253 149.809 412.192 149.765C412.131 149.722 412.061 149.693 411.988 149.68C411.914 149.666 411.839 149.669 411.767 149.688C411.695 149.707 411.628 149.742 411.57 149.79C411.284 150.167 411.082 150.602 410.978 151.064C410.875 151.527 410.872 152.006 410.97 152.47C411.013 152.671 411.129 152.849 411.295 152.971C411.461 153.092 411.665 153.149 411.87 153.13C412.075 153.113 412.267 153.023 412.41 152.876C412.553 152.729 412.639 152.535 412.65 152.33C412.821 151.518 412.712 150.672 412.34 149.93Z" fill="#DBDBDB"/>
<path d="M410.351 147.33C410.296 147.226 410.202 147.148 410.09 147.112C409.977 147.077 409.856 147.087 409.751 147.14C409.458 147.322 409.213 147.573 409.039 147.871C408.865 148.169 408.766 148.505 408.751 148.85C408.661 149.46 408.641 150.47 409.391 150.67C410.141 150.87 410.461 149.94 410.541 149.35C410.714 148.675 410.647 147.96 410.351 147.33Z" fill="#DBDBDB"/>
<path d="M413 146.18C413.009 145.782 412.874 145.395 412.62 145.09C412.515 144.973 412.367 144.902 412.21 144.893C412.053 144.883 411.899 144.936 411.78 145.04C411.494 145.318 411.32 145.692 411.29 146.09C411.216 146.469 411.216 146.86 411.29 147.24C411.33 147.409 411.424 147.562 411.557 147.674C411.691 147.786 411.857 147.852 412.031 147.862C412.206 147.873 412.378 147.826 412.524 147.73C412.67 147.634 412.781 147.494 412.84 147.33C412.968 146.96 413.022 146.57 413 146.18Z" fill="#DBDBDB"/>
<path d="M411.121 141.73C411.103 141.653 411.065 141.582 411.011 141.524C410.957 141.466 410.889 141.422 410.814 141.398C410.738 141.374 410.658 141.37 410.58 141.386C410.503 141.402 410.431 141.438 410.371 141.49C410.081 141.723 409.873 142.043 409.776 142.402C409.679 142.761 409.698 143.142 409.831 143.49C409.886 143.595 409.968 143.685 410.068 143.749C410.168 143.814 410.283 143.851 410.401 143.858C410.52 143.865 410.639 143.842 410.745 143.789C410.852 143.737 410.944 143.658 411.011 143.56C411.166 143.283 411.256 142.974 411.275 142.658C411.294 142.341 411.242 142.024 411.121 141.73Z" fill="#DBDBDB"/>
<path d="M414 160.5C414.01 160.407 414.01 160.313 414 160.22C413.98 160.115 413.932 160.018 413.86 159.94C413.788 159.818 413.673 159.727 413.538 159.686C413.403 159.646 413.257 159.658 413.13 159.72C412.878 159.853 412.688 160.079 412.6 160.35C412.499 160.679 412.517 161.033 412.65 161.35C412.716 161.478 412.819 161.583 412.946 161.652C413.072 161.722 413.216 161.752 413.36 161.74C413.5 161.725 413.633 161.671 413.744 161.584C413.856 161.498 413.94 161.382 413.99 161.25C414.046 161.003 414.049 160.748 414 160.5Z" fill="#DBDBDB"/>
<path d="M414.92 154.08C414.81 153.71 414.53 153.08 414.03 153.33C413.22 153.7 413.14 155.17 413.48 155.86C413.553 155.989 413.662 156.095 413.793 156.165C413.924 156.235 414.072 156.266 414.221 156.254C414.369 156.242 414.51 156.189 414.629 156.099C414.748 156.01 414.838 155.889 414.89 155.75C415.07 155.209 415.081 154.626 414.92 154.08Z" fill="#DBDBDB"/>
<path d="M414.79 148.92C414.69 148.56 414.31 148.18 413.92 148.35C413.809 148.388 413.709 148.453 413.63 148.54C413.489 148.69 413.404 148.884 413.39 149.09C413.359 149.225 413.36 149.365 413.391 149.501C413.422 149.636 413.483 149.762 413.57 149.87C413.635 149.936 413.713 149.989 413.799 150.025C413.885 150.061 413.977 150.08 414.07 150.08C414.163 150.08 414.255 150.061 414.341 150.025C414.427 149.989 414.505 149.936 414.57 149.87C414.73 149.717 414.826 149.51 414.84 149.29C414.835 149.165 414.819 149.041 414.79 148.92Z" fill="#DBDBDB"/>
<path d="M414.361 141.43C414.361 141.04 414.031 140.27 413.511 140.36C412.991 140.45 412.681 141.08 412.611 141.53C412.535 141.811 412.539 142.107 412.622 142.386C412.705 142.665 412.864 142.916 413.081 143.11C413.178 143.171 413.291 143.204 413.406 143.204C413.521 143.204 413.634 143.171 413.731 143.11C413.975 142.911 414.162 142.65 414.273 142.355C414.384 142.06 414.414 141.741 414.361 141.43Z" fill="#DBDBDB"/>
<path d="M412.601 137C412.53 136.927 412.437 136.878 412.337 136.86C412.237 136.842 412.133 136.856 412.041 136.9C411.746 137.077 411.509 137.336 411.356 137.644C411.204 137.952 411.143 138.298 411.181 138.64C411.174 138.84 411.239 139.037 411.364 139.194C411.488 139.351 411.664 139.46 411.861 139.5C412.058 139.539 412.262 139.505 412.435 139.403C412.609 139.302 412.739 139.141 412.801 138.95C412.904 138.628 412.939 138.289 412.904 137.954C412.87 137.618 412.767 137.294 412.601 137Z" fill="#DBDBDB"/>
<path d="M413.101 134.09C413.072 133.954 412.993 133.834 412.88 133.752C412.768 133.671 412.629 133.635 412.49 133.65C412.343 133.681 412.208 133.754 412.101 133.86C411.931 134.023 411.831 134.245 411.821 134.48C411.817 134.634 411.868 134.784 411.964 134.904C412.061 135.024 412.197 135.106 412.349 135.135C412.5 135.163 412.657 135.137 412.791 135.062C412.925 134.986 413.027 134.865 413.08 134.72C413.167 134.52 413.174 134.295 413.101 134.09Z" fill="#DBDBDB"/>
<path d="M411.001 158C409.914 157.853 408.881 157.434 408.001 156.78L407.441 156.42C406.654 155.909 405.908 155.337 405.211 154.71L405.111 154.62C404.859 154.38 404.622 154.127 404.401 153.86C403.921 153.3 403.401 152.62 402.911 151.92C402.801 151.76 402.691 151.61 402.591 151.45C402.301 151.04 402.021 150.62 401.751 150.22C401.601 150 401.451 149.78 401.321 149.56C400.919 148.842 400.44 148.172 399.891 147.56C399.582 147.87 399.298 148.205 399.041 148.56L398.471 149.27L398.101 149.72C397.901 149.96 397.691 150.21 397.481 150.44C397.233 150.737 396.969 151.02 396.691 151.29C396.395 151.598 396.059 151.864 395.691 152.08C395.578 152.144 395.45 152.175 395.321 152.17C394.211 152.05 392.911 149.65 392.971 148.58C393.01 148.342 393.11 148.118 393.261 147.93C393.467 147.63 393.691 147.343 393.931 147.07C394.231 146.73 394.581 146.35 394.931 145.98L395.381 145.5L396.021 144.84L396.371 144.46C396.835 144.014 397.221 143.494 397.511 142.92C397.522 142.813 397.522 142.706 397.511 142.6C397.511 142.45 397.511 142.24 397.451 142C397.451 141.54 397.341 140.94 397.261 140.24C397.261 140.02 397.261 139.79 397.191 139.55C397.121 138.95 397.041 138.31 396.971 137.64C396.971 137.39 396.921 137.13 396.891 136.87C396.801 136.03 396.711 135.16 396.631 134.34L396.571 133.77C396.571 133.26 396.481 132.77 396.451 132.3C396.421 131.83 396.391 131.45 396.371 131.08C396.302 130.496 396.326 129.906 396.441 129.33C396.711 128.72 399.441 128.12 401.781 127.85C403.551 127.64 405.111 127.61 405.291 127.85C405.402 128.49 405.425 129.143 405.361 129.79C405.361 130.11 405.361 130.47 405.361 130.85C405.361 131.52 405.291 132.25 405.251 133.03C405.251 133.29 405.251 133.56 405.201 133.82C405.201 134.57 405.111 135.34 405.061 136.11C405.061 136.47 405.011 136.83 404.991 137.19C404.991 137.81 404.911 138.42 404.871 138.98C404.871 139.38 404.821 139.76 404.791 140.12C404.761 140.48 404.791 140.96 404.721 141.31C404.651 141.66 404.721 141.95 404.671 142.19C404.65 142.419 404.65 142.65 404.671 142.88C405.1 143.98 405.69 145.011 406.421 145.94C406.611 146.2 406.821 146.45 407.031 146.7C407.241 146.95 407.591 147.33 407.881 147.62C408.171 147.91 408.261 148.01 408.451 148.19C408.821 148.55 409.201 148.9 409.571 149.19L410.571 150.02L411.671 150.92L412.351 151.48C412.551 151.65 412.751 151.81 412.921 151.97C413.301 152.265 413.62 152.632 413.861 153.05C414.391 154.68 411.811 157.85 411.001 158Z" fill="#A6A6A6"/>
<path d="M405.37 129.89C405.37 130.21 405.37 130.57 405.37 130.95C403.87 131.29 402.31 131.47 400.84 131.69L397.4 132.23C397.09 132.23 396.79 132.33 396.49 132.36C396.49 131.92 396.43 131.51 396.41 131.14L397.51 130.9C398.57 130.68 399.64 130.5 400.71 130.34C402.251 130.084 403.808 129.934 405.37 129.89Z" fill="#C7C7C7"/>
<path d="M405.23 133.13C405.23 133.39 405.23 133.66 405.18 133.92C404.07 134.03 402.96 134.07 401.86 134.15C400.14 134.26 398.37 134.45 396.64 134.4L396.58 133.83C398.17 133.57 399.8 133.5 401.39 133.39C402.66 133.31 403.94 133.18 405.23 133.13Z" fill="#C7C7C7"/>
<path d="M405.002 136.21C405.002 136.57 404.952 136.93 404.932 137.29C402.279 137.627 399.605 137.764 396.932 137.7C396.932 137.45 396.882 137.19 396.852 136.93C399.544 136.467 402.27 136.226 405.002 136.21Z" fill="#C7C7C7"/>
<path d="M404.851 139.08C404.851 139.48 404.801 139.86 404.771 140.22C402.276 140.418 399.77 140.445 397.271 140.3C397.271 140.08 397.271 139.85 397.201 139.61C399.735 139.246 402.292 139.069 404.851 139.08Z" fill="#C7C7C7"/>
<path d="M404.701 141.41C404.701 141.76 404.701 142.05 404.651 142.29C403.701 142.38 402.741 142.43 401.801 142.49C400.371 142.58 398.941 142.71 397.521 142.66C397.521 142.51 397.521 142.3 397.461 142.06C398.741 141.85 400.031 141.78 401.331 141.68C402.441 141.59 403.571 141.48 404.701 141.41Z" fill="#C7C7C7"/>
<path d="M396.721 151.35C396.425 151.658 396.089 151.924 395.721 152.14C395.193 151.513 394.718 150.844 394.301 150.14C393.896 149.476 393.561 148.772 393.301 148.04C393.507 147.74 393.731 147.453 393.971 147.18C394.401 147.98 394.841 148.78 395.321 149.54C395.754 150.168 396.221 150.772 396.721 151.35Z" fill="#C7C7C7"/>
<path d="M398.131 149.78C397.931 150.02 397.721 150.27 397.511 150.5C396.564 149.067 395.705 147.578 394.941 146.04L395.391 145.56C396.181 146.79 397.261 148.43 398.131 149.78Z" fill="#C7C7C7"/>
<path d="M399.071 148.62L398.501 149.33C398.131 148.74 397.791 148.11 397.451 147.54C396.941 146.68 396.451 145.79 396.031 144.9L396.381 144.52C396.941 145.41 397.511 146.29 398.081 147.17C398.391 147.65 398.741 148.13 399.071 148.62Z" fill="#C7C7C7"/>
<path d="M407.002 146.8C405.387 148.129 403.637 149.285 401.782 150.25C401.632 150.03 401.482 149.81 401.352 149.59C402.502 148.66 404.802 147.03 406.352 146.04C406.582 146.3 406.792 146.55 407.002 146.8Z" fill="#C7C7C7"/>
<path d="M408.421 148.29C406.681 149.635 404.85 150.858 402.941 151.95C402.831 151.79 402.721 151.64 402.621 151.48C404.061 150.48 406.291 148.81 407.851 147.72C408.044 147.906 408.234 148.096 408.421 148.29Z" fill="#C7C7C7"/>
<path d="M410.5 150.15C408.882 151.84 407.085 153.349 405.14 154.65C404.888 154.411 404.651 154.157 404.43 153.89C406.051 152.277 407.756 150.751 409.54 149.32L410.5 150.15Z" fill="#C7C7C7"/>
<path d="M412.851 152.1C411.495 153.908 409.87 155.497 408.031 156.81L407.471 156.45C408.331 155.6 409.221 154.79 410.081 153.93C410.941 153.07 411.551 152.38 412.281 151.61C412.481 151.78 412.681 151.94 412.851 152.1Z" fill="#C7C7C7"/>
<path d="M426.301 100.2H376.641V103.97H426.301V100.2Z" fill="#C7C7C7"/>
<path d="M415.491 106.86H387.441V110.63H415.491V106.86Z" fill="#C7C7C7"/>
<path d="M250 459.79C365.792 459.79 459.66 451.386 459.66 441.02C459.66 430.654 365.792 422.25 250 422.25C134.208 422.25 40.3398 430.654 40.3398 441.02C40.3398 451.386 134.208 459.79 250 459.79Z" fill="#EBEBEB"/>
<path d="M37.3208 378.91H230.801L230.801 69.2001H37.3208L37.3208 378.91Z" fill="#C7C7C7"/>
<path d="M47.1912 155.3L220.951 155.3V80.3103L47.1912 80.3103V155.3Z" fill="#A6A6A6"/>
<path d="M47.1912 243.8L220.951 243.8V168.81H47.1912V243.8Z" fill="#A6A6A6"/>
<path d="M47.1912 332.29H220.951V257.3H47.1912V332.29Z" fill="#A6A6A6"/>
<path d="M109.39 174.41H91.5898V243.8H109.39V174.41Z" fill="white"/>
<path d="M109.39 197.31H91.5898V211.31H109.39V197.31Z" fill="#407BFF"/>
<path d="M109.39 217.16H91.5898V225.3H109.39V217.16Z" fill="#407BFF"/>
<path d="M89.1809 174.41H71.3809V243.8H89.1809V174.41Z" fill="white"/>
<path d="M89.1809 197.31H71.3809V211.31H89.1809V197.31Z" fill="#455A64"/>
<path d="M89.1809 217.16H71.3809V225.3H89.1809V217.16Z" fill="#455A64"/>
<path d="M68.9699 174.41H51.1699V243.8H68.9699V174.41Z" fill="white"/>
<path d="M68.9699 197.31H51.1699V211.31H68.9699V197.31Z" fill="#407BFF"/>
<path d="M68.9699 217.16H51.1699V225.3H68.9699V217.16Z" fill="#407BFF"/>
<path d="M50.5108 155.31H66.5508V128.62H50.5108V155.31Z" fill="white"/>
<path d="M48.31 128.61H68.75V124.07H48.31V128.61Z" fill="#407BFF"/>
<path d="M52.58 150.95H64.5V134.49H52.58V150.95Z" fill="#455A64"/>
<path d="M50.5108 123.03H66.5508V96.3403H50.5108V123.03Z" fill="white"/>
<path d="M48.31 96.3301H68.75V91.7901H48.31V96.3301Z" fill="#407BFF"/>
<path d="M52.58 118.66H64.5V102.2H52.58V118.66Z" fill="#455A64"/>
<path d="M72.2705 155.31H88.3105V128.62H72.2705V155.31Z" fill="white"/>
<path d="M70.0698 128.61H90.5098V124.07H70.0698V128.61Z" fill="#407BFF"/>
<path d="M74.33 150.95H86.25V134.49H74.33V150.95Z" fill="#455A64"/>
<path d="M72.2705 123.03H88.3105V96.3403H72.2705V123.03Z" fill="white"/>
<path d="M70.0698 96.3301H90.5098V91.7901H70.0698V96.3301Z" fill="#407BFF"/>
<path d="M74.33 118.66H86.25V102.2H74.33V118.66Z" fill="#455A64"/>
<path d="M94.0108 155.31H110.051V128.62H94.0108V155.31Z" fill="white"/>
<path d="M91.81 128.61H112.25V124.07H91.81V128.61Z" fill="#407BFF"/>
<path d="M96.0702 150.95H107.99V134.49H96.0702V150.95Z" fill="#455A64"/>
<path d="M94.0108 123.03H110.051V96.3403H94.0108V123.03Z" fill="white"/>
<path d="M91.81 96.3301H112.25V91.7901H91.81V96.3301Z" fill="#407BFF"/>
<path d="M96.0702 118.66H107.99V102.2H96.0702V118.66Z" fill="#455A64"/>
<path d="M115.761 155.31H131.801V128.62H115.761V155.31Z" fill="white"/>
<path d="M113.56 128.61H134V124.07H113.56V128.61Z" fill="#407BFF"/>
<path d="M117.82 150.95H129.74V134.49H117.82V150.95Z" fill="#455A64"/>
<path d="M115.761 123.03H131.801V96.3403H115.761V123.03Z" fill="white"/>
<path d="M113.56 96.3301H134V91.7901H113.56V96.3301Z" fill="#407BFF"/>
<path d="M117.82 118.66H129.74V102.2H117.82V118.66Z" fill="#455A64"/>
<path d="M217.461 243.8H198.961V224.03C198.961 222.622 199.52 221.271 200.516 220.276C201.512 219.28 202.863 218.72 204.271 218.72H212.151C213.559 218.72 214.91 219.28 215.906 220.276C216.901 221.271 217.461 222.622 217.461 224.03V243.8Z" fill="white"/>
<path d="M202.87 218.79H213.59V216.23H202.87V218.79Z" fill="white"/>
<path d="M200.14 216.23H216.32V213.5H200.14V216.23Z" fill="#407BFF"/>
<path d="M201.95 238.33H217.48V224.79H201.95V238.33Z" fill="#455A64"/>
<path d="M197.391 243.8H178.891V224.03C178.891 222.622 179.45 221.271 180.446 220.276C181.442 219.28 182.792 218.72 184.201 218.72H192.081C193.489 218.72 194.84 219.28 195.835 220.276C196.831 221.271 197.391 222.622 197.391 224.03V243.8Z" fill="white"/>
<path d="M182.78 218.79H193.5V216.23H182.78V218.79Z" fill="white"/>
<path d="M180.05 216.23H196.23V213.5H180.05V216.23Z" fill="#407BFF"/>
<path d="M181.851 238.33H197.381V224.79H181.851V238.33Z" fill="#455A64"/>
<path d="M177.301 243.8H158.801V224.03C158.801 222.624 159.359 221.275 160.353 220.279C161.346 219.284 162.694 218.723 164.101 218.72H171.981C173.389 218.72 174.74 219.28 175.736 220.276C176.731 221.271 177.291 222.622 177.291 224.03V243.8H177.301Z" fill="white"/>
<path d="M162.69 218.79H173.41V216.23H162.69V218.79Z" fill="white"/>
<path d="M159.961 216.23H176.141V213.5H159.961V216.23Z" fill="#407BFF"/>
<path d="M161.771 238.33H177.301V224.79H161.771V238.33Z" fill="#455A64"/>
<path d="M157.22 243.8H138.72V224.03C138.72 222.622 139.28 221.271 140.275 220.276C141.271 219.28 142.622 218.72 144.03 218.72H151.93C153.339 218.72 154.689 219.28 155.685 220.276C156.681 221.271 157.24 222.622 157.24 224.03V243.8H157.22Z" fill="white"/>
<path d="M142.61 218.79H153.33V216.23H142.61V218.79Z" fill="white"/>
<path d="M139.881 216.23H156.061V213.5H139.881V216.23Z" fill="#407BFF"/>
<path d="M141.681 238.33H157.211V224.79H141.681V238.33Z" fill="#455A64"/>
<path d="M137.121 243.8H118.621V224.03C118.621 222.622 119.181 221.271 120.176 220.276C121.172 219.28 122.523 218.72 123.931 218.72H131.811C133.219 218.72 134.57 219.28 135.566 220.276C136.562 221.271 137.121 222.622 137.121 224.03V243.8Z" fill="white"/>
<path d="M122.52 218.79H133.24V216.23H122.52V218.79Z" fill="white"/>
<path d="M119.791 216.23H135.971V213.5H119.791V216.23Z" fill="#407BFF"/>
<path d="M121.591 238.33H137.121V224.79H121.591V238.33Z" fill="#455A64"/>
<path d="M217.461 212.46H198.961V192.69C198.961 191.282 199.52 189.931 200.516 188.935C201.512 187.939 202.863 187.38 204.271 187.38H212.151C213.559 187.38 214.91 187.939 215.906 188.935C216.901 189.931 217.461 191.282 217.461 192.69V212.46Z" fill="white"/>
<path d="M202.87 187.45H213.59V184.89H202.87V187.45Z" fill="white"/>
<path d="M200.14 184.9H216.32V182.17H200.14V184.9Z" fill="#407BFF"/>
<path d="M201.95 207H217.48V193.46H201.95V207Z" fill="#455A64"/>
<path d="M197.391 212.46H178.891V192.69C178.891 191.282 179.45 189.931 180.446 188.935C181.442 187.939 182.792 187.38 184.201 187.38H192.081C193.489 187.38 194.84 187.939 195.835 188.935C196.831 189.931 197.391 191.282 197.391 192.69V212.46Z" fill="white"/>
<path d="M182.78 187.45H193.5V184.89H182.78V187.45Z" fill="white"/>
<path d="M180.05 184.9H196.23V182.17H180.05V184.9Z" fill="#407BFF"/>
<path d="M181.851 207H197.381V193.46H181.851V207Z" fill="#455A64"/>
<path d="M177.301 212.46H158.801V192.69C158.801 191.282 159.36 189.931 160.356 188.935C161.352 187.939 162.702 187.38 164.111 187.38H171.991C173.399 187.38 174.75 187.939 175.746 188.935C176.741 189.931 177.301 191.282 177.301 192.69V212.46Z" fill="white"/>
<path d="M162.69 187.45H173.41V184.89H162.69V187.45Z" fill="white"/>
<path d="M159.961 184.9H176.141V182.17H159.961V184.9Z" fill="#407BFF"/>
<path d="M161.771 207H177.301V193.46H161.771V207Z" fill="#455A64"/>
<path d="M157.22 212.46H138.72V192.69C138.72 191.282 139.28 189.931 140.275 188.935C141.271 187.939 142.622 187.38 144.03 187.38H151.93C153.339 187.38 154.689 187.939 155.685 188.935C156.681 189.931 157.24 191.282 157.24 192.69V212.46H157.22Z" fill="white"/>
<path d="M142.61 187.45H153.33V184.89H142.61V187.45Z" fill="white"/>
<path d="M139.881 184.9H156.061V182.17H139.881V184.9Z" fill="#407BFF"/>
<path d="M141.681 207H157.211V193.46H141.681V207Z" fill="#455A64"/>
<path d="M137.121 212.46H118.621V192.69C118.621 191.282 119.181 189.931 120.176 188.935C121.172 187.939 122.523 187.38 123.931 187.38H131.811C133.219 187.38 134.57 187.939 135.566 188.935C136.562 189.931 137.121 191.282 137.121 192.69V212.46Z" fill="white"/>
<path d="M122.52 187.45H133.24V184.89H122.52V187.45Z" fill="white"/>
<path d="M119.791 184.9H135.971V182.17H119.791V184.9Z" fill="#407BFF"/>
<path d="M121.591 207H137.121V193.46H121.591V207Z" fill="#455A64"/>
<path d="M175.49 332.15H135.05V298.72C135.05 297.262 135.63 295.863 136.661 294.831C137.693 293.8 139.092 293.22 140.55 293.22H169.99C171.449 293.22 172.848 293.8 173.879 294.831C174.911 295.863 175.49 297.262 175.49 298.72V332.15Z" fill="white"/>
<path d="M135.05 293.22H175.49V286.47H135.05V293.22Z" fill="#263238"/>
<path d="M152.7 288.09H157.85C159.076 288.09 160.07 287.096 160.07 285.87V284.2C160.07 282.974 159.076 281.98 157.85 281.98H152.7C151.474 281.98 150.48 282.974 150.48 284.2V285.87C150.48 287.096 151.474 288.09 152.7 288.09Z" fill="#263238"/>
<path d="M137.251 323.61H173.301V305.59H137.251V323.61Z" fill="#455A64"/>
<path d="M133.15 332.15H92.7104V298.72C92.7104 297.262 93.2898 295.863 94.3213 294.831C95.3527 293.8 96.7517 293.22 98.2104 293.22H127.65C129.109 293.22 130.508 293.8 131.539 294.831C132.571 295.863 133.15 297.262 133.15 298.72V332.15Z" fill="white"/>
<path d="M92.7104 293.22H133.15V286.47H92.7104V293.22Z" fill="#263238"/>
<path d="M110.351 288.09H115.501C116.727 288.09 117.721 287.096 117.721 285.87V284.2C117.721 282.974 116.727 281.98 115.501 281.98H110.351C109.125 281.98 108.131 282.974 108.131 284.2V285.87C108.131 287.096 109.125 288.09 110.351 288.09Z" fill="#263238"/>
<path d="M94.9012 323.61H130.951V305.59H94.9012V323.61Z" fill="#455A64"/>
<path d="M217.76 332.15H177.32V298.72C177.32 297.262 177.899 295.863 178.931 294.831C179.962 293.8 181.361 293.22 182.82 293.22H212.26C213.718 293.22 215.117 293.8 216.149 294.831C217.18 295.863 217.76 297.262 217.76 298.72V332.15Z" fill="white"/>
<path d="M177.32 293.22H217.76V286.47H177.32V293.22Z" fill="#263238"/>
<path d="M194.96 288.09H200.11C201.336 288.09 202.33 287.096 202.33 285.87V284.2C202.33 282.974 201.336 281.98 200.11 281.98H194.96C193.734 281.98 192.74 282.974 192.74 284.2V285.87C192.74 287.096 193.734 288.09 194.96 288.09Z" fill="#263238"/>
<path d="M179.511 323.61H215.561V305.59H179.511V323.61Z" fill="#455A64"/>
<path d="M90.8008 332.15H50.3608L50.3608 298.72C50.3608 297.262 50.9402 295.863 51.9717 294.831C53.0031 293.8 54.4021 293.22 55.8608 293.22H85.3008C86.7595 293.22 88.1584 293.8 89.1899 294.831C90.2213 295.863 90.8008 297.262 90.8008 298.72V332.15Z" fill="white"/>
<path d="M50.3608 293.22H90.8008V286.47H50.3608V293.22Z" fill="#263238"/>
<path d="M68.0109 288.09H73.1609C74.3869 288.09 75.3809 287.096 75.3809 285.87V284.2C75.3809 282.974 74.3869 281.98 73.1609 281.98H68.0109C66.7848 281.98 65.7909 282.974 65.7909 284.2V285.87C65.7909 287.096 66.7848 288.09 68.0109 288.09Z" fill="#263238"/>
<path d="M52.5594 323.61H88.6094V305.59H52.5594V323.61Z" fill="#455A64"/>
<path d="M137.861 155.31H161.041V125.32H137.861V155.31Z" fill="white"/>
<path d="M137.85 125.32H161.04L156.59 119.2H142.3L137.85 125.32Z" fill="white"/>
<path d="M139.66 119.2H159.24V113.25H139.66V119.2Z" fill="#455A64"/>
<path d="M141.171 145.47H161.041V131.99H141.171V145.47Z" fill="#407BFF"/>
<path d="M164.33 155.31H187.51V125.32H164.33V155.31Z" fill="white"/>
<path d="M164.34 125.32H187.52L183.07 119.2H168.78L164.34 125.32Z" fill="white"/>
<path d="M166.141 119.2H185.721V113.25H166.141V119.2Z" fill="#455A64"/>
<path d="M167.65 145.47H187.52V131.99H167.65V145.47Z" fill="#407BFF"/>
<path d="M190.81 155.31H213.99V125.32H190.81V155.31Z" fill="white"/>
<path d="M190.82 125.32H214L209.55 119.2H195.26L190.82 125.32Z" fill="white"/>
<path d="M192.621 119.2H212.201V113.25H192.621V119.2Z" fill="#455A64"/>
<path d="M194.13 145.47H214V131.99H194.13V145.47Z" fill="#407BFF"/>
<path d="M34 378.91L88 378.67L142 378.58L250 378.41L358 378.58L412 378.67L466 378.91L412 379.15L358 379.24L250 379.41L142 379.24L88 379.15L34 378.91Z" fill="#263238"/>
<path d="M255.619 369.07C255.619 369.07 260.769 407 260.769 407.07C260.869 414.32 261.079 420.68 261.489 423.96C261.484 423.977 261.484 423.994 261.489 424.01C261.501 424.788 261.696 425.552 262.059 426.24C262.055 426.257 262.055 426.274 262.059 426.29C264.239 427.72 322.229 428.67 324.269 428.02C326.309 427.37 324.609 421.53 322.389 419.69C320.169 417.85 298.119 407.57 298.119 407.57L292.599 369.66L255.619 369.07Z" fill="#F7A9A0"/>
<path d="M260.85 411.69C260.97 416.95 261.17 421.37 261.5 423.92C261.493 423.936 261.493 423.954 261.5 423.97C261.505 424.747 261.697 425.512 262.06 426.2C262.06 426.2 262.06 426.2 262.06 426.25C264.24 427.68 322.23 428.62 324.27 427.98C326.31 427.34 324.61 421.49 322.39 419.66C321.32 418.78 315.72 415.97 310.17 413.28C311.93 414.66 313.7 416.36 312.89 417.05C311.52 418.26 276.35 417 260.85 411.69Z" fill="#263238"/>
<path d="M307.001 411.69C307.001 411.69 296.741 407.02 279.141 415.47L307.001 411.69Z" fill="#263238"/>
<path d="M259.161 395.21L296.261 394.4L272.061 204.77H233.801L259.161 395.21Z" fill="#F7A9A0"/>
<path d="M237.749 369.63C237.749 369.63 232.889 405.79 232.889 405.81C232.889 413.07 232.679 419.43 232.279 422.71C232.284 422.726 232.284 422.744 232.279 422.76C232.274 423.538 232.089 424.305 231.739 425C229.569 426.45 177.739 427.77 175.739 427.14C173.739 426.51 175.359 420.64 177.569 418.8C179.779 416.96 195.569 406.52 195.569 406.52L201.659 368.63L237.749 369.63Z" fill="#F7A9A0"/>
<path d="M175.69 427.18C177.69 427.81 229.51 426.49 231.69 425.05C231.69 425.05 231.69 425.05 231.69 424.99C232.053 424.302 232.245 423.538 232.25 422.76C232.255 422.74 232.255 422.72 232.25 422.7C232.669 418.892 232.85 415.061 232.79 411.23C224.33 416.59 202.44 418.98 195.48 417.45C189.31 416.1 190.66 411.13 191.96 408.89C187.19 412.07 179.04 417.54 177.48 418.84C175.31 420.68 173.65 426.55 175.69 427.18Z" fill="#263238"/>
<path d="M192 408.89C192 408.89 209.43 406.05 221.34 415.47L192 408.89Z" fill="#263238"/>
<path d="M268.579 204.73C268.429 205.43 266.029 216.55 263.579 226.1C261.769 233.1 259.909 239.21 258.849 239.84C257.576 240.621 256.237 241.29 254.849 241.84L234.389 394.68L197.539 393.86L217.069 229.16L221.689 204.73H268.579Z" fill="#F7A9A0"/>
<path d="M219.821 204.84H273.001L288.701 321.35C288.701 321.35 263.261 327.82 247.631 327.66C232.001 327.5 204.221 319 204.221 319L219.821 204.84Z" fill="#263238"/>
<path d="M246.659 110.34C245.104 110.852 243.708 111.758 242.606 112.969C241.504 114.179 240.734 115.654 240.369 117.25C239.93 119.374 239.232 121.437 238.289 123.39C237.147 125.251 235.738 126.936 234.109 128.39C231.578 130.645 229.787 133.611 228.969 136.9C227.989 140.723 227.765 144.701 228.309 148.61C227.982 144.528 228.437 140.422 229.649 136.51C230.869 132.58 233.369 130.38 235.989 127.67C238.097 125.538 239.617 122.895 240.399 120C240.718 118.155 241.28 116.359 242.069 114.66C243.225 112.915 244.881 111.559 246.819 110.77C247.059 110.63 246.899 110.25 246.659 110.34Z" fill="#263238"/>
<path d="M274 136.52C272.35 133.3 270.55 130.52 269.86 126.71C269.22 123.26 269.09 119.71 268.43 116.27C268.43 116.21 268.35 116.27 268.36 116.27C269.25 122.34 268.75 128.27 271.54 133.68C273.197 136.538 274.49 139.592 275.39 142.77C276.181 146.312 276.333 149.966 275.84 153.56C275.84 153.69 275.98 153.71 276.01 153.56C277.356 147.82 276.645 141.79 274 136.52Z" fill="#263238"/>
<path d="M254.07 164C257.07 173.77 269.67 205.57 279.43 208.55C285.83 210.55 312.38 210.14 317.43 204.29C319.63 201.74 317.86 182.53 314.29 182.99C310.72 183.45 289.37 184.48 286.84 183.51C284.31 182.54 266.73 158.51 259.93 152.39C248.2 141.76 252.44 158.73 254.07 164Z" fill="#F7A9A0"/>
<path d="M306.429 181L304.629 209.49C304.629 209.49 283.439 211.57 274.799 207.38C264.309 202.29 252.349 166.49 250.799 160.66C248.289 151.09 249.949 145.66 254.889 147.66C256.809 148.41 259.229 150.28 262.089 153.48C264.949 156.68 281.999 178 287.649 182.35C290.799 184.77 306.429 181 306.429 181Z" fill="#EBEBEB"/>
<path d="M299.439 207.8C299.579 203.58 300.789 186.34 301.299 182.63C301.299 182.38 301.509 182.34 301.509 182.63C301.389 195.28 299.959 203.69 299.609 207.82C299.599 207.9 299.439 207.91 299.439 207.8Z" fill="#263238"/>
<path d="M295.689 209.93C288.839 210.07 279.749 209.73 274.799 207.33C264.309 202.24 252.349 166.44 250.799 160.61C248.289 151.04 249.949 145.61 254.889 147.61L255.349 147.81L295.689 209.93Z" fill="#263238"/>
<path d="M271.56 189.3L275.75 218.09C275.75 218.09 228.83 218.78 217.18 217.96C217.18 217.96 226.68 164.14 239.18 150.54C245.44 143.74 252.79 144.25 257.48 149.01C258.67 150.21 272.82 168.91 274.31 176.06C275.64 182.36 271.56 189.3 271.56 189.3Z" fill="#407BFF"/>
<path d="M244.399 146.56C244.399 146.56 253.219 166.62 253.749 182.89C255.169 226.53 249.069 298.57 246.959 303.76C244.059 310.88 200.449 317.96 200.449 317.96C200.449 317.96 213.249 210.54 224.859 177.96C235.619 147.71 244.399 146.56 244.399 146.56Z" fill="#EBEBEB"/>
<path d="M215 248.33C214.8 254.74 215.09 262 216.46 263.33C219.02 265.83 225.82 265.62 227.96 265.61C230.1 265.6 237.72 265.61 239.51 261.61C240.3 259.88 240.51 250.92 240.51 247.75C240.51 246.46 240.21 240.13 240.11 239.42C240.11 239.26 239.64 239.27 239.62 239.42C239.51 240.15 239.62 242.78 239.54 243.28C227.27 244.85 219.67 243.54 215.73 242.78C215.73 241.59 215.73 240.67 215.73 239.49C219.568 240.194 223.459 240.562 227.36 240.59C231.623 240.502 235.878 240.198 240.11 239.68C240.21 239.68 240.11 239.2 239.99 239.2C238.39 239.2 232.84 239.77 227.26 239.77C223.266 239.69 219.279 239.379 215.32 238.84C215.08 238.89 215.07 245.25 215 248.33ZM217.2 262.6C215.85 261.05 215.68 256.6 215.68 253.89C215.68 250.2 215.68 247.25 215.68 243.56C223.518 245.175 231.592 245.283 239.47 243.88C239.47 244.04 239.55 251.82 239.47 254.3C239.38 257.47 239.28 260.3 238.06 261.98C237.06 263.39 234.06 264.81 227.32 264.8C222.44 264.79 218.32 263.9 217.18 262.6H217.2Z" fill="#A6A6A6"/>
<path d="M273.161 304.42C275.571 310.14 290.001 314 290.001 314L271.821 188.77C274.126 185.004 275.026 180.545 274.361 176.18C273.141 169.18 258.431 148.78 256.051 147.73C258.508 158.242 260.212 168.916 261.151 179.67C265.231 223.69 270.521 298.2 273.161 304.42Z" fill="#EBEBEB"/>
<path d="M269.719 166.67C268.409 164.58 267.069 162.51 265.779 160.41C265.779 160.35 265.839 160.28 265.879 160.34C267.189 162.06 268.469 163.81 269.739 165.56C269.319 164.62 268.909 163.68 268.529 162.72C268.529 162.61 268.639 162.52 268.699 162.63C269.279 163.86 269.809 165.12 270.319 166.38C271.452 167.964 272.455 169.636 273.319 171.38C275.189 174.949 275.752 179.06 274.909 183C274.639 184.11 274.247 185.187 273.739 186.21C273.389 186.9 272.259 188.41 272.269 188.45C273.009 192.55 273.559 196.7 274.139 200.83C274.719 204.96 275.319 209.19 275.799 213.38C276.079 215.75 276.259 218.15 276.599 220.51C276.599 220.6 276.479 220.63 276.469 220.51C276.169 218.45 275.719 216.41 275.349 214.36C274.979 212.31 274.639 210.26 274.349 208.2C273.679 204.04 273.089 199.87 272.489 195.7C272.149 193.34 271.769 190.99 271.489 188.62C271.884 187.728 272.339 186.862 272.849 186.03C273.259 185.157 273.593 184.25 273.849 183.32C274.386 181.427 274.553 179.447 274.339 177.49C273.879 173.57 271.819 170 269.719 166.67Z" fill="#263238"/>
<path d="M256.16 148.19C257.127 149.483 258.11 150.763 259.11 152.03C260.11 153.29 261.11 154.57 262.11 155.83V155.53L259.64 157.8L259.44 157.99L259.66 158.17C260.66 159.06 261.75 159.92 262.8 160.79L262.71 160.57C262.33 162.92 261.92 165.27 261.58 167.63C261.24 169.99 260.88 172.35 260.58 174.71C261.08 172.37 261.55 170.037 261.99 167.71C262.46 165.36 262.86 163.01 263.28 160.66V160.53L263.17 160.44C262.17 159.56 261.09 158.67 260.04 157.81V158.18L262.46 155.87L262.61 155.73L262.48 155.57C261.48 154.32 260.37 153.1 259.31 151.87C258.25 150.64 257.26 149.4 256.16 148.19Z" fill="#DBDBDB"/>
<path d="M245.349 146.67C245.599 147.59 248.349 153.82 252.529 154.27C255.169 154.55 255.529 145.43 255.529 145.43L255.629 144.87L256.999 137L247.659 131.49L246.309 130.77C246.309 130.77 246.059 132.94 245.769 135.64C245.769 135.76 245.769 135.89 245.769 136.02L245.709 136.46C245.659 136.86 245.619 137.28 245.579 137.69C245.539 138.1 245.519 138.3 245.489 138.63C245.459 138.96 245.439 139.29 245.409 139.63C245.23 141.973 245.21 144.325 245.349 146.67Z" fill="#F7A9A0"/>
<path d="M245.811 135.68C246.678 137.829 248.002 139.763 249.69 141.35C251.379 142.937 253.392 144.138 255.591 144.87L257.001 137L247.661 131.49L246.311 130.77C246.311 130.77 246.101 133 245.811 135.68Z" fill="#263238"/>
<path d="M267.94 127.7C266.42 141.59 257.94 142.24 254.94 141.91C252.23 141.61 243.01 140.23 243.09 126.26C243.17 112.29 250.09 108.61 256.37 108.97C262.65 109.33 269.47 113.81 267.94 127.7Z" fill="#F7A9A0"/>
<path d="M265.401 124.34C265.095 124.24 264.794 124.123 264.501 123.99C264.167 123.913 263.868 123.726 263.651 123.46C263.598 123.364 263.578 123.252 263.597 123.143C263.615 123.034 263.669 122.934 263.751 122.86C263.932 122.736 264.144 122.662 264.364 122.646C264.583 122.63 264.803 122.673 265.001 122.77C265.422 122.915 265.776 123.206 266.001 123.59C266.046 123.681 266.064 123.782 266.053 123.882C266.042 123.983 266.003 124.078 265.94 124.156C265.877 124.235 265.793 124.294 265.697 124.327C265.602 124.359 265.499 124.364 265.401 124.34Z" fill="#263238"/>
<path d="M255.94 122.78C256.273 122.802 256.607 122.802 256.94 122.78C257.289 122.816 257.641 122.735 257.94 122.55C258.017 122.473 258.069 122.374 258.087 122.266C258.105 122.159 258.088 122.048 258.04 121.95C257.908 121.775 257.732 121.638 257.53 121.554C257.328 121.47 257.107 121.441 256.89 121.47C256.439 121.455 255.999 121.612 255.66 121.91C255.598 121.979 255.556 122.063 255.537 122.153C255.518 122.244 255.523 122.338 255.551 122.425C255.579 122.513 255.63 122.592 255.698 122.655C255.766 122.717 255.85 122.76 255.94 122.78Z" fill="#263238"/>
<path d="M257.331 126.59C257.331 126.59 257.251 126.59 257.241 126.66C257.141 127.66 256.861 128.66 255.961 128.86V128.92C257.001 128.92 257.381 127.5 257.331 126.59Z" fill="#263238"/>
<path d="M256.63 125.49C255.13 125.15 254.63 128.18 255.97 128.49C257.31 128.8 257.88 125.76 256.63 125.49Z" fill="#263238"/>
<path d="M256 125.54C255.7 125.66 255.39 125.91 255.06 125.89C254.73 125.87 254.47 125.49 254.28 125.14C254.18 125.407 254.186 125.703 254.298 125.965C254.409 126.228 254.618 126.437 254.88 126.55C255.43 126.73 255.88 126.29 256.18 125.74C256.19 125.66 256.12 125.49 256 125.54Z" fill="#263238"/>
<path d="M263 127.47C263 127.47 263.06 127.53 263.05 127.57C262.84 128.5 262.76 129.57 263.55 130.07C263.55 130.07 263.55 130.13 263.55 130.12C262.54 129.78 262.66 128.32 263 127.47Z" fill="#263238"/>
<path d="M264.001 126.66C265.521 126.83 265.061 129.87 263.651 129.71C262.241 129.55 262.751 126.51 264.001 126.66Z" fill="#263238"/>
<path d="M264.63 127C264.85 127.2 265.04 127.53 265.32 127.59C265.6 127.65 265.95 127.37 266.21 127.09C266.14 127.67 265.85 128.24 265.28 128.27C264.71 128.3 264.46 127.74 264.41 127.14C264.44 127 264.54 126.87 264.63 127Z" fill="#263238"/>
<path d="M261.06 131.44C261.044 132.139 260.99 132.837 260.9 133.53C260.9 133.59 260.73 133.59 260.5 133.53C259.915 133.536 259.34 133.38 258.837 133.08C258.334 132.78 257.924 132.348 257.65 131.83C257.65 131.76 257.71 131.71 257.76 131.76C258.506 132.478 259.463 132.938 260.49 133.07C260.57 132.89 260.49 130.61 260.59 130.62C261.096 130.752 261.581 130.954 262.03 131.22C262.21 128.22 261.91 125.22 262.14 122.28C262.14 122.17 262.31 122.17 262.32 122.28C262.736 125.476 262.833 128.705 262.61 131.92C262.58 132.32 261.31 131.59 261.06 131.44Z" fill="#263238"/>
<path d="M260.12 133.14C259.705 133.558 259.188 133.862 258.62 134.02C258.308 134.1 257.979 134.079 257.68 133.96C257.03 133.7 257.1 133.08 257.29 132.57C257.389 132.297 257.523 132.038 257.69 131.8C258.338 132.492 259.189 132.961 260.12 133.14Z" fill="#263238"/>
<path d="M258.62 134C258.308 134.08 257.979 134.059 257.68 133.94C257.03 133.68 257.1 133.06 257.29 132.55C257.643 132.606 257.967 132.78 258.208 133.043C258.45 133.306 258.595 133.644 258.62 134Z" fill="#FF9CBD"/>
<path d="M268.129 122.72C266.419 122.91 261.429 118.18 260.179 112.59C259.169 115.482 257.177 117.927 254.549 119.5C252.183 121.065 249.383 121.842 246.549 121.72C246.549 121.72 244.169 127.66 243.129 127.58C242.089 127.5 239.999 105.1 257.999 108.55C257.999 108.55 263.349 109.1 265.999 112.83C268.649 116.56 268.129 122.72 268.129 122.72Z" fill="#263238"/>
<path d="M254.27 131.24C253.46 130.998 252.734 130.534 252.174 129.9C251.615 129.266 251.244 128.488 251.105 127.654C250.965 126.82 251.063 125.964 251.386 125.183C251.709 124.401 252.244 123.726 252.932 123.234C253.619 122.742 254.431 122.452 255.274 122.398C256.118 122.344 256.96 122.528 257.705 122.929C258.449 123.329 259.066 123.931 259.486 124.665C259.906 125.398 260.112 126.235 260.08 127.08C260.03 128.279 259.508 129.41 258.627 130.225C257.747 131.04 256.579 131.474 255.38 131.43C255.003 131.414 254.63 131.35 254.27 131.24ZM256.67 123.15C256.345 123.051 256.009 122.998 255.67 122.99C254.674 122.961 253.705 123.312 252.959 123.972C252.213 124.631 251.746 125.55 251.653 126.541C251.56 127.532 251.847 128.522 252.457 129.309C253.067 130.096 253.953 130.622 254.936 130.779C255.919 130.937 256.926 130.714 257.751 130.156C258.576 129.599 259.158 128.748 259.378 127.777C259.599 126.806 259.442 125.788 258.939 124.928C258.436 124.069 257.624 123.433 256.67 123.15Z" fill="#37474F"/>
<path d="M264.51 133C262.85 132.51 261.85 130.37 262.25 128C262.417 126.87 262.935 125.821 263.73 125C264.048 124.633 264.456 124.353 264.913 124.19C265.371 124.026 265.863 123.983 266.342 124.066C266.821 124.148 267.27 124.353 267.646 124.661C268.023 124.968 268.313 125.367 268.49 125.82C268.96 126.846 269.099 127.992 268.89 129.1C268.46 131.56 266.63 133.3 264.8 132.98C264.704 132.997 264.607 133.004 264.51 133ZM266.46 124.81C266.389 124.784 266.315 124.764 266.24 124.75C265.857 124.702 265.468 124.746 265.106 124.88C264.744 125.014 264.419 125.234 264.16 125.52C263.456 126.232 262.997 127.15 262.85 128.14C262.48 130.27 263.39 132.22 264.85 132.48C266.31 132.74 267.85 131.22 268.24 129.09C268.433 128.108 268.315 127.091 267.9 126.18C267.772 125.857 267.578 125.565 267.33 125.322C267.082 125.079 266.785 124.891 266.46 124.77V124.81Z" fill="#37474F"/>
<path d="M259.839 127.57L259.539 127.05C260.309 126.6 262.009 126.11 262.889 127.46L262.389 127.79C261.589 126.58 259.909 127.53 259.839 127.57Z" fill="#37474F"/>
<path d="M239.781 125.28L239.301 124.91C239.471 124.69 241.001 122.72 242.371 122.73C243.741 122.74 251.511 124.88 251.841 124.97L251.681 125.56C249.431 124.94 243.351 123.35 242.361 123.34C241.371 123.33 240.191 124.73 239.781 125.28Z" fill="#37474F"/>
<path d="M245.451 126.23C245.451 126.23 243.311 121.36 241.161 122.04C239.011 122.72 240.021 129.36 242.161 130.67C242.42 130.856 242.714 130.987 243.025 131.055C243.336 131.124 243.657 131.129 243.97 131.07C244.283 131.011 244.581 130.89 244.846 130.713C245.111 130.536 245.337 130.307 245.511 130.04L245.451 126.23Z" fill="#F7A9A0"/>
<path d="M253.869 166C253.869 166 250.489 161.55 253.709 159.5C256.929 157.45 259.549 162.38 259.549 162.38L253.869 166Z" fill="#455A64"/>
<path d="M280.58 195.27L281.04 200.72L281.21 202.52L279.64 201.63L274.89 198.9L253.76 165.78L259.44 162.15L280.58 195.28V195.27Z" fill="#455A64"/>
<path d="M281.051 200.72L281.211 202.52L279.631 201.63L281.051 200.72Z" fill="#37474F"/>
<path d="M259.789 161.662L253.154 165.896L253.993 167.211L260.628 162.977L259.789 161.662Z" fill="#263238"/>
<path d="M260.719 163.133L254.084 167.366L254.923 168.681L261.558 164.448L260.719 163.133Z" fill="#263238"/>
<path d="M254.93 168.67L257.07 167.3L263.54 180.04L262.72 180.5L254.93 168.67Z" fill="#263238"/>
<path d="M232.541 156C216.001 173.52 197.131 203.24 204.801 209.83C211.801 215.83 237.931 210.83 254.421 204.76C257.561 203.61 245.511 175.81 242.301 177.38C238.915 179.081 235.425 180.564 231.851 181.82C230.951 182.05 235.591 171.43 241.281 158.56C247.621 144.2 242.001 146 232.541 156Z" fill="#F7A9A0"/>
<path d="M282.09 176.16C282.09 179.36 274.16 178.57 274.16 178.57C275.297 179.355 276.125 180.511 276.5 181.84C277.04 184.21 273.56 186.11 273.56 186.11C274.57 187.169 275.239 188.507 275.48 189.95C275.77 192.27 272.48 194.68 272.48 194.68C272.871 196.165 272.715 197.741 272.04 199.12C270.09 202.73 263.77 202.67 259.86 203.4C255.478 204.322 251.178 205.596 247 207.21L240.4 178.3C240.4 178.3 257.52 168.62 262.24 168.94C266.21 169.22 282.17 171.27 282.09 176.16Z" fill="#F7A9A0"/>
<path d="M274.101 178.48C269.883 177.333 265.541 176.708 261.171 176.62C261.071 176.62 261.071 176.76 261.171 176.77C265.461 176.96 269.801 178.31 274.071 178.68C274.097 178.684 274.124 178.677 274.146 178.661C274.167 178.645 274.182 178.622 274.186 178.595C274.19 178.569 274.183 178.542 274.167 178.52C274.151 178.498 274.127 178.484 274.101 178.48Z" fill="#263238"/>
<path d="M273.45 185.78C272.464 185.57 271.455 185.493 270.45 185.55C269.396 185.55 268.346 185.55 267.299 185.55C265.189 185.55 263.08 185.7 260.98 185.87C260.89 185.87 260.88 186.02 260.98 186.02C263.08 185.97 265.179 185.95 267.279 186.02L270.439 186.1C271.436 186.212 272.443 186.212 273.439 186.1C273.482 186.102 273.523 186.086 273.554 186.057C273.585 186.028 273.603 185.988 273.605 185.945C273.606 185.903 273.59 185.862 273.561 185.831C273.532 185.8 273.492 185.782 273.45 185.78Z" fill="#263238"/>
<path d="M272.44 194.68C271.559 194.511 270.657 194.491 269.77 194.62L266.89 194.74C264.97 194.8 263.05 194.87 261.13 194.87C261.03 194.87 261.03 195.02 261.13 195.02C263.08 195.02 265.03 195.02 266.99 195.02H269.86C270.734 195.093 271.615 195.008 272.46 194.77C272.465 194.763 272.469 194.755 272.471 194.747C272.473 194.738 272.473 194.729 272.471 194.721C272.469 194.712 272.465 194.704 272.46 194.697C272.454 194.69 272.448 194.684 272.44 194.68Z" fill="#263238"/>
<path d="M240.669 148.31C228.819 155.1 197.589 196.31 202.669 208.08C207.749 219.85 245.669 208.29 245.669 208.29L243.369 176.68C243.369 176.68 233.369 181.91 233.029 181.4C232.689 180.89 238.919 166.69 241.449 160.91C243.979 155.13 246.999 144.69 240.669 148.31Z" fill="#EBEBEB"/>
<path d="M241 206.36C240.44 202.17 238.78 184.97 238.67 181.23C238.67 180.97 238.82 180.9 238.87 181.17C240.87 193.67 240.87 202.17 241.16 206.33C241.19 206.43 241 206.46 241 206.36Z" fill="#263238"/>
<path d="M243.179 176.71C242.072 177.074 240.995 177.526 239.959 178.06C239.019 178.49 238.079 178.93 237.149 179.38C235.149 180.38 233.149 181.38 231.149 182.38C229.149 183.38 227.149 184.47 225.149 185.55C223.149 186.63 221.279 187.83 219.309 188.92C219.219 188.97 219.309 189.1 219.389 189.05C221.389 188.05 223.459 187.05 225.489 186.05L231.439 183.1C233.439 182.1 235.439 181.1 237.389 180.16L240.289 178.7C241.351 178.226 242.377 177.674 243.359 177.05C243.38 177.017 243.393 176.979 243.394 176.94C243.396 176.901 243.387 176.862 243.369 176.827C243.351 176.792 243.323 176.763 243.29 176.743C243.257 176.722 243.218 176.711 243.179 176.71Z" fill="#263238"/>
<path d="M240.159 167.55C239.529 168.31 238.909 169.06 238.319 169.85C238.209 169.99 238.109 170.14 238.009 170.29L238.509 169.07C239.159 167.661 239.727 166.215 240.209 164.74C240.209 164.68 240.129 164.64 240.099 164.74C239.313 166.157 238.605 167.616 237.979 169.11C237.319 170.54 236.649 171.97 235.979 173.41C235.309 174.85 234.689 176.29 234.079 177.75C233.43 179.163 232.882 180.62 232.439 182.11C232.439 182.2 232.539 182.23 232.589 182.16C233.414 180.77 234.139 179.323 234.759 177.83C235.409 176.39 236.029 174.94 236.659 173.49L237.429 171.66L237.739 171.25C238.039 170.88 238.319 170.49 238.589 170.1C239.139 169.29 239.659 168.46 240.179 167.62C240.219 167.56 240.179 167.53 240.159 167.55Z" fill="#263238"/>
<path d="M245.8 207.6C245.8 207.39 245.68 207.35 245.63 207.6C245.58 207.85 245.63 207.95 245.56 208.07C244.27 208.37 239.56 209.65 238.42 209.95C236 210.583 233.566 211.13 231.12 211.59C228.66 212.05 226.2 212.43 223.71 212.74C221.22 213.05 218.71 213.37 216.26 213.45C216.238 213.45 216.218 213.458 216.203 213.473C216.188 213.489 216.18 213.509 216.18 213.53C216.18 213.551 216.188 213.572 216.203 213.587C216.218 213.602 216.238 213.61 216.26 213.61C218.8 213.56 221.32 213.56 223.85 213.36C226.38 213.16 228.85 212.82 231.24 212.36C233.63 211.9 236.24 211.36 238.65 210.7C239.88 210.37 241.09 210.01 242.3 209.63C243.474 209.324 244.616 208.906 245.71 208.38C245.748 208.356 245.779 208.321 245.8 208.281C245.821 208.241 245.832 208.196 245.83 208.15L245.8 207.6Z" fill="#263238"/>
<path d="M251 172.82L250.16 173.22L243.39 164.05L243.24 163.85L243.34 163.63L245.83 158.26L238.83 157.92H238.48L238.61 157.61C240.05 154.18 241.45 150.73 242.91 147.31C241.69 150.71 240.42 154.08 239.18 157.46L246.39 157.64H246.89L246.68 158.1L244.23 163.75L251 172.82Z" fill="#DBDBDB"/>
<path d="M238.77 157.43H239.1L238.98 157.75L238.77 157.43Z" fill="#DBDBDB"/>
<path d="M244.01 163.55L244.15 163.74L244.06 163.97L244.01 163.55Z" fill="#DBDBDB"/>
<path d="M245.989 157.81L246.289 158.29L245.779 158.26L245.989 157.81Z" fill="#DBDBDB"/>
<path d="M297.919 211.81L264.789 209.77L282.879 168.22L316.009 170.26L297.919 211.81Z" fill="white"/>
<path d="M300.191 211.95L267.061 209.91L285.151 168.36L318.281 170.4L300.191 211.95Z" fill="#455A64"/>
<path d="M288.67 168.58C288.391 169.304 287.843 169.892 287.14 170.22C286.81 170.37 286.75 169.95 287.08 169.81C287.515 169.598 287.867 169.246 288.08 168.81C288.08 168.73 288.15 168.65 288.18 168.58C288.28 168.323 288.314 168.044 288.28 167.77C288.256 167.655 288.196 167.55 288.11 167.47H288.05C287.971 167.45 287.888 167.45 287.81 167.47C287.662 167.507 287.528 167.583 287.42 167.69C287.22 167.888 287.046 168.11 286.9 168.35C286.895 168.377 286.895 168.404 286.9 168.43C286.9 168.43 286.9 168.43 286.9 168.49H286.43C286.555 168.205 286.72 167.939 286.92 167.7C287.077 167.491 287.277 167.318 287.506 167.192C287.735 167.066 287.989 166.99 288.25 166.97C288.436 166.98 288.611 167.06 288.741 167.193C288.87 167.327 288.945 167.504 288.95 167.69C288.928 168.005 288.832 168.31 288.67 168.58Z" fill="#407BFF"/>
<path d="M291.259 168.74C290.986 169.468 290.436 170.057 289.729 170.38C289.409 170.53 289.349 170.11 289.669 169.97C290.102 169.754 290.453 169.403 290.669 168.97C290.669 168.89 290.739 168.81 290.759 168.74C290.859 168.483 290.894 168.204 290.859 167.93C290.839 167.814 290.779 167.708 290.689 167.63H290.629C290.554 167.61 290.474 167.61 290.399 167.63C290.249 167.668 290.111 167.744 289.999 167.85C289.86 167.973 289.739 168.114 289.639 168.27C289.579 168.34 289.539 168.43 289.479 168.51C289.465 168.538 289.448 168.565 289.429 168.59C289.429 168.59 289.429 168.59 289.429 168.65H288.959C289.084 168.363 289.253 168.097 289.459 167.86C289.613 167.65 289.811 167.476 290.039 167.35C290.267 167.224 290.519 167.149 290.779 167.13C290.966 167.138 291.142 167.217 291.272 167.351C291.403 167.485 291.477 167.664 291.479 167.85C291.479 168.16 291.403 168.466 291.259 168.74Z" fill="#407BFF"/>
<path d="M293.85 168.9C293.716 169.26 293.514 169.59 293.253 169.871C292.992 170.153 292.678 170.38 292.33 170.54C292 170.69 291.94 170.27 292.26 170.13C292.693 169.914 293.044 169.563 293.26 169.13C293.26 169.05 293.33 168.97 293.35 168.9C293.455 168.644 293.489 168.364 293.45 168.09C293.429 167.973 293.369 167.867 293.28 167.79H293.21C293.134 167.771 293.055 167.771 292.98 167.79C292.83 167.829 292.693 167.905 292.58 168.01C292.447 168.136 292.329 168.277 292.23 168.43C292.171 168.506 292.117 168.586 292.07 168.67C292.068 168.697 292.068 168.723 292.07 168.75C292.07 168.75 292.07 168.75 292.07 168.81H291.6C291.729 168.525 291.897 168.259 292.1 168.02C292.255 167.811 292.453 167.638 292.68 167.512C292.908 167.386 293.16 167.31 293.42 167.29C293.606 167.298 293.783 167.377 293.913 167.511C294.043 167.644 294.117 167.823 294.12 168.01C294.104 168.324 294.011 168.63 293.85 168.9Z" fill="#407BFF"/>
<path d="M296.45 169.06C296.171 169.784 295.623 170.372 294.92 170.7C294.59 170.85 294.53 170.43 294.86 170.29C295.296 170.078 295.648 169.726 295.86 169.29C295.86 169.21 295.93 169.13 295.96 169.06C296.06 168.803 296.095 168.524 296.06 168.25C296.036 168.135 295.977 168.03 295.89 167.95H295.83C295.751 167.93 295.669 167.93 295.59 167.95C295.443 167.987 295.308 168.063 295.2 168.17C295.001 168.368 294.826 168.59 294.68 168.83V168.88C294.659 168.903 294.642 168.93 294.63 168.96C294.63 168.96 294.63 168.96 294.63 169.02H294.16C294.286 168.735 294.451 168.469 294.65 168.23C294.807 168.021 295.007 167.847 295.236 167.722C295.466 167.596 295.719 167.52 295.98 167.5C296.166 167.51 296.341 167.59 296.471 167.723C296.601 167.857 296.675 168.034 296.68 168.22C296.666 168.513 296.588 168.8 296.45 169.06Z" fill="#407BFF"/>
<path d="M299 169.22C298.727 169.948 298.177 170.537 297.47 170.86C297.15 171.01 297.09 170.59 297.41 170.45C297.843 170.234 298.194 169.883 298.41 169.45C298.41 169.37 298.48 169.29 298.5 169.22C298.605 168.964 298.64 168.684 298.6 168.41C298.58 168.293 298.52 168.187 298.43 168.11H298.37C298.295 168.09 298.215 168.09 298.14 168.11C297.99 168.147 297.852 168.223 297.74 168.33C297.601 168.453 297.48 168.594 297.38 168.75C297.32 168.82 297.28 168.91 297.22 168.99V169.04C297.222 169.067 297.222 169.094 297.22 169.12C297.22 169.12 297.22 169.12 297.22 169.18H296.75C296.875 168.893 297.044 168.627 297.25 168.39C297.404 168.18 297.602 168.006 297.83 167.88C298.058 167.754 298.31 167.679 298.57 167.66C298.757 167.668 298.933 167.747 299.063 167.881C299.194 168.015 299.268 168.193 299.27 168.38C299.246 168.677 299.154 168.965 299 169.22Z" fill="#407BFF"/>
<path d="M301.631 169.38C301.498 169.74 301.295 170.07 301.034 170.352C300.773 170.633 300.46 170.86 300.111 171.02C299.781 171.17 299.721 170.75 300.041 170.61C300.474 170.394 300.825 170.043 301.041 169.61C301.041 169.53 301.111 169.45 301.131 169.38C301.236 169.124 301.27 168.844 301.231 168.57C301.211 168.454 301.151 168.348 301.061 168.27H300.991C300.915 168.251 300.836 168.251 300.761 168.27C300.611 168.31 300.474 168.385 300.361 168.49C300.228 168.616 300.11 168.757 300.011 168.91C299.95 168.985 299.896 169.065 299.851 169.15V169.2C299.849 169.227 299.849 169.254 299.851 169.28C299.851 169.28 299.851 169.28 299.851 169.34H299.381C299.51 169.055 299.678 168.789 299.881 168.55C300.036 168.341 300.234 168.168 300.462 168.042C300.689 167.916 300.941 167.841 301.201 167.82C301.388 167.828 301.564 167.907 301.694 168.041C301.825 168.175 301.898 168.354 301.901 168.54C301.877 168.837 301.785 169.125 301.631 169.38Z" fill="#407BFF"/>
<path d="M304.23 169.54C303.951 170.264 303.403 170.852 302.7 171.18C302.37 171.33 302.31 170.91 302.64 170.77C303.076 170.558 303.428 170.206 303.64 169.77C303.64 169.69 303.71 169.61 303.74 169.54C303.84 169.283 303.875 169.004 303.84 168.73C303.817 168.615 303.757 168.51 303.67 168.43H303.61C303.532 168.405 303.448 168.405 303.37 168.43C303.223 168.467 303.088 168.543 302.98 168.65C302.841 168.773 302.72 168.914 302.62 169.07C302.559 169.144 302.505 169.225 302.46 169.31V169.36C302.456 169.386 302.456 169.413 302.46 169.44C302.46 169.44 302.46 169.44 302.46 169.5H301.99C302.116 169.215 302.281 168.949 302.48 168.71C302.637 168.501 302.837 168.327 303.066 168.202C303.296 168.076 303.549 168 303.81 167.98C303.996 167.99 304.171 168.07 304.301 168.203C304.431 168.337 304.505 168.514 304.51 168.7C304.481 168.997 304.385 169.284 304.23 169.54Z" fill="#407BFF"/>
<path d="M306.82 169.7C306.546 170.428 305.996 171.017 305.29 171.34C304.97 171.49 304.91 171.07 305.23 170.93C305.663 170.714 306.014 170.363 306.23 169.93C306.23 169.85 306.3 169.77 306.32 169.7C306.425 169.444 306.459 169.164 306.42 168.89C306.399 168.773 306.339 168.667 306.25 168.59H306.19C306.115 168.565 306.034 168.565 305.96 168.59C305.809 168.627 305.671 168.703 305.56 168.81C305.421 168.933 305.3 169.074 305.2 169.23C305.142 169.307 305.088 169.387 305.04 169.47V169.52C305.025 169.548 305.008 169.575 304.99 169.6C304.99 169.6 304.99 169.6 304.99 169.66H304.52C304.649 169.375 304.817 169.109 305.02 168.87C305.174 168.66 305.372 168.486 305.599 168.36C305.827 168.234 306.08 168.159 306.34 168.14C306.526 168.148 306.703 168.227 306.833 168.361C306.963 168.495 307.037 168.673 307.04 168.86C307.031 169.153 306.956 169.441 306.82 169.7Z" fill="#407BFF"/>
<path d="M309.41 169.86C309.277 170.22 309.074 170.55 308.813 170.831C308.553 171.113 308.239 171.34 307.89 171.5C307.56 171.65 307.5 171.23 307.82 171.09C308.253 170.874 308.604 170.523 308.82 170.09C308.82 170.01 308.89 169.93 308.91 169.86C309.015 169.604 309.05 169.324 309.01 169.05C308.99 168.933 308.93 168.827 308.84 168.75H308.77C308.695 168.726 308.615 168.726 308.54 168.75C308.391 168.789 308.253 168.865 308.14 168.97C308.007 169.096 307.89 169.237 307.79 169.39C307.729 169.464 307.675 169.545 307.63 169.63V169.71C307.63 169.71 307.63 169.71 307.63 169.77H307.16C307.289 169.485 307.458 169.219 307.66 168.98C307.815 168.771 308.013 168.598 308.241 168.472C308.469 168.346 308.721 168.27 308.98 168.25C309.167 168.258 309.343 168.337 309.474 168.471C309.604 168.604 309.678 168.783 309.68 168.97C309.664 169.284 309.572 169.59 309.41 169.86Z" fill="#407BFF"/>
<path d="M311.999 170C311.72 170.724 311.172 171.312 310.469 171.64C310.139 171.79 310.079 171.37 310.409 171.23C310.845 171.018 311.197 170.666 311.409 170.23C311.409 170.15 311.479 170.07 311.509 170C311.609 169.743 311.644 169.464 311.609 169.19C311.585 169.075 311.526 168.97 311.439 168.89H311.379C311.301 168.866 311.217 168.866 311.139 168.89C310.992 168.927 310.857 169.003 310.749 169.11C310.61 169.233 310.489 169.374 310.389 169.53C310.328 169.605 310.274 169.685 310.229 169.77C310.207 169.793 310.19 169.821 310.179 169.85C310.179 169.85 310.179 169.85 310.179 169.91H309.709C309.834 169.625 309.999 169.359 310.199 169.12C310.356 168.911 310.556 168.738 310.785 168.612C311.015 168.486 311.268 168.41 311.529 168.39C311.715 168.4 311.89 168.48 312.02 168.613C312.15 168.747 312.224 168.924 312.229 169.11C312.222 169.421 312.144 169.725 311.999 170Z" fill="#407BFF"/>
<path d="M314.6 170.18C314.326 170.908 313.776 171.497 313.07 171.82C312.75 171.97 312.69 171.55 313.01 171.41C313.443 171.194 313.794 170.843 314.01 170.41C314.01 170.33 314.08 170.25 314.1 170.18C314.205 169.924 314.239 169.644 314.2 169.37C314.179 169.254 314.119 169.148 314.03 169.07H313.97C313.895 169.045 313.814 169.045 313.74 169.07C313.589 169.108 313.452 169.183 313.34 169.29C313.201 169.413 313.08 169.554 312.98 169.71C312.922 169.787 312.868 169.867 312.82 169.95C312.822 169.977 312.822 170.004 312.82 170.03C312.82 170.03 312.82 170.03 312.82 170.09H312.35C312.479 169.805 312.647 169.539 312.85 169.3C313.004 169.09 313.202 168.916 313.429 168.79C313.657 168.664 313.91 168.589 314.17 168.57C314.356 168.578 314.533 168.657 314.663 168.791C314.793 168.925 314.867 169.104 314.87 169.29C314.854 169.605 314.761 169.91 314.6 170.18Z" fill="#407BFF"/>
<path d="M317.189 170.34C317.056 170.7 316.853 171.03 316.593 171.312C316.332 171.593 316.018 171.82 315.669 171.98C315.339 172.13 315.279 171.71 315.599 171.57C316.032 171.354 316.383 171.003 316.599 170.57C316.599 170.49 316.669 170.41 316.689 170.34C316.795 170.084 316.829 169.804 316.789 169.53C316.769 169.414 316.709 169.307 316.619 169.23H316.549C316.475 169.206 316.394 169.206 316.319 169.23C316.17 169.27 316.033 169.345 315.919 169.45C315.787 169.576 315.669 169.717 315.569 169.87C315.508 169.945 315.455 170.025 315.409 170.11V170.16C315.408 170.187 315.408 170.214 315.409 170.24C315.409 170.24 315.409 170.24 315.409 170.3H314.939C315.069 170.015 315.237 169.749 315.439 169.51C315.595 169.301 315.793 169.128 316.02 169.002C316.248 168.876 316.5 168.801 316.759 168.78C316.946 168.788 317.123 168.867 317.253 169.001C317.383 169.135 317.457 169.313 317.459 169.5C317.436 169.797 317.343 170.085 317.189 170.34Z" fill="#407BFF"/>
<path d="M315.361 179.9C316.611 183.68 320.361 188.65 320.361 191.62C320.393 192.364 320.18 193.099 319.753 193.71C319.327 194.321 318.711 194.774 318.001 195C318.001 195 320.741 196.81 320.291 199.5C320.051 200.89 317.641 201.73 317.641 201.73C318.238 202.175 318.702 202.777 318.981 203.468C319.26 204.16 319.343 204.914 319.221 205.65C318.781 207.54 316.431 208.1 316.431 208.1C316.431 208.1 317.781 210.54 316.721 212.32C314.561 215.92 298.071 213.89 296.271 207.5C295.431 204.5 299.431 205.24 299.431 205.24C299.431 205.24 293.921 202.82 294.251 199.41C294.581 196 299.731 197.24 299.731 197.24C299.731 197.24 294.411 194.85 295.111 191.35C295.841 187.7 300.771 189.83 300.771 189.83C300.771 189.83 297.411 186.89 298.561 184.33C300.461 180.11 306.731 186.48 310.461 186.07L313.191 180.34L315.361 179.9Z" fill="#F7A9A0"/>
<path d="M317.999 185.5C317.119 181.81 321.999 177.99 321.699 174.34C321.249 169.41 315.259 173.45 313.189 180.29L312.529 185.87L317.999 185.5Z" fill="#F7A9A0"/>
<path d="M317.731 201.73C317.801 201.73 317.801 201.84 317.731 201.85C311.321 202.561 304.868 200.954 299.541 197.32C299.351 197.18 299.321 196.88 299.541 197.02C303.271 199.32 312.371 201.53 317.731 201.73Z" fill="#263238"/>
<path d="M300.49 189.37C305.74 192.88 311.57 194.37 317.79 194.99C317.87 194.99 317.85 195.11 317.79 195.12C314.66 195.64 310.79 194.81 307.79 193.91C304.995 193.129 302.455 191.629 300.42 189.56C300.29 189.48 300.38 189.3 300.49 189.37Z" fill="#263238"/>
<path d="M441.67 250H58.3398V277.45H441.67V250Z" fill="#37474F"/>
<path d="M434.109 277.45H65.8789V436.77H434.109V277.45Z" fill="#37474F"/>
<path d="M434.109 277.45H65.8789V294.28H434.109V277.45Z" fill="#263238"/>
<path d="M164.051 359.55C164.053 359.36 164.13 359.178 164.265 359.044C164.399 358.909 164.581 358.833 164.771 358.83H170.711C172.302 358.83 173.828 359.462 174.953 360.587C176.079 361.713 176.711 363.239 176.711 364.83C176.711 366.421 176.079 367.948 174.953 369.073C173.828 370.198 172.302 370.83 170.711 370.83L165.521 370.89V379.14C165.5 379.32 165.413 379.486 165.278 379.607C165.142 379.728 164.967 379.794 164.786 379.794C164.604 379.794 164.429 379.728 164.294 379.607C164.158 379.486 164.072 379.32 164.051 379.14V359.55ZM170.711 369.39C171.879 369.335 172.982 368.832 173.789 367.986C174.597 367.14 175.048 366.015 175.048 364.845C175.048 363.675 174.597 362.55 173.789 361.704C172.982 360.858 171.879 360.355 170.711 360.3H165.521V369.39H170.711Z" fill="white"/>
<path d="M196.809 370.05H185.999V379.11C185.978 379.29 185.892 379.456 185.756 379.577C185.621 379.698 185.446 379.764 185.264 379.764C185.083 379.764 184.908 379.698 184.772 379.577C184.637 379.456 184.55 379.29 184.529 379.11V359.55C184.55 359.37 184.637 359.204 184.772 359.083C184.908 358.963 185.083 358.896 185.264 358.896C185.446 358.896 185.621 358.963 185.756 359.083C185.892 359.204 185.978 359.37 185.999 359.55V368.61H196.799V359.55C196.82 359.37 196.907 359.204 197.042 359.083C197.178 358.963 197.353 358.896 197.534 358.896C197.716 358.896 197.891 358.963 198.026 359.083C198.162 359.204 198.248 359.37 198.269 359.55V379.11C198.248 379.29 198.162 379.456 198.026 379.577C197.891 379.698 197.716 379.764 197.534 379.764C197.353 379.764 197.178 379.698 197.042 379.577C196.907 379.456 196.82 379.29 196.799 379.11L196.809 370.05Z" fill="white"/>
<path d="M218.35 374.4H208.78L206.92 379.4C206.868 379.541 206.773 379.662 206.65 379.747C206.527 379.833 206.381 379.879 206.23 379.88H205.96C205.773 379.802 205.623 379.654 205.544 379.467C205.466 379.279 205.464 379.068 205.54 378.88L212.83 359.41C212.896 359.275 212.998 359.161 213.126 359.082C213.253 359.002 213.4 358.96 213.55 358.96C213.702 358.952 213.853 358.991 213.981 359.071C214.11 359.152 214.211 359.27 214.27 359.41L221.56 378.88C221.602 378.971 221.624 379.07 221.627 379.17C221.63 379.269 221.612 379.369 221.576 379.462C221.54 379.555 221.485 379.64 221.415 379.712C221.346 379.784 221.262 379.841 221.17 379.88C221.05 379.88 220.99 379.88 220.9 379.88C220.751 379.875 220.607 379.828 220.484 379.742C220.362 379.657 220.267 379.538 220.21 379.4L218.35 374.4ZM209.35 372.93H217.84L213.61 361.65L209.35 372.93Z" fill="white"/>
<path d="M239.68 375.09C239.682 374.46 239.527 373.839 239.228 373.283C238.93 372.728 238.497 372.256 237.97 371.91C237.238 371.402 236.412 371.045 235.54 370.86C235.45 370.86 235.42 370.8 235.39 370.8H230.29V379.11C230.269 379.29 230.183 379.456 230.047 379.577C229.912 379.698 229.737 379.764 229.555 379.764C229.374 379.764 229.199 379.698 229.063 379.577C228.928 379.456 228.841 379.29 228.82 379.11V359.55C228.824 359.37 228.893 359.198 229.015 359.066C229.136 358.933 229.302 358.849 229.48 358.83H235.48C236.842 358.837 238.16 359.307 239.219 360.163C240.278 361.019 241.014 362.209 241.307 363.538C241.6 364.868 241.433 366.257 240.832 367.479C240.231 368.7 239.232 369.681 238 370.26C238.097 370.316 238.197 370.366 238.3 370.41C239.15 370.861 239.862 371.535 240.358 372.36C240.855 373.184 241.118 374.128 241.12 375.09C241.086 375.909 241.177 376.729 241.39 377.52C241.442 377.714 241.546 377.891 241.69 378.03C241.859 378.013 242.029 378.05 242.175 378.136C242.32 378.223 242.435 378.354 242.5 378.51C242.56 378.707 242.544 378.918 242.455 379.104C242.366 379.289 242.211 379.434 242.02 379.51C241.9 379.517 241.78 379.517 241.66 379.51H241.6C241.307 379.478 241.028 379.368 240.79 379.192C240.553 379.017 240.367 378.781 240.25 378.51C239.793 377.431 239.598 376.259 239.68 375.09ZM235.48 360.3H230.29V369.36H235.6C236.802 369.344 237.948 368.852 238.786 367.991C239.624 367.13 240.086 365.972 240.07 364.77C240.054 363.569 239.562 362.423 238.701 361.584C237.84 360.746 236.682 360.284 235.48 360.3Z" fill="white"/>
<path d="M267.19 361.83L260.47 371.16C260.407 371.262 260.318 371.345 260.213 371.403C260.108 371.461 259.99 371.491 259.87 371.49H259.81C259.685 371.498 259.56 371.472 259.449 371.414C259.337 371.356 259.245 371.268 259.18 371.16L252.46 361.86V379.11C252.439 379.29 252.353 379.456 252.217 379.577C252.082 379.697 251.907 379.764 251.725 379.764C251.544 379.764 251.369 379.697 251.233 379.577C251.098 379.456 251.011 379.29 250.99 379.11V359.67C250.989 359.557 251.016 359.447 251.068 359.347C251.121 359.248 251.197 359.163 251.29 359.1C251.29 359.1 251.29 359.1 251.35 359.04C251.51 358.941 251.7 358.905 251.885 358.938C252.069 358.971 252.235 359.072 252.35 359.22L259.82 369.57L267.26 359.22C267.374 359.07 267.54 358.968 267.725 358.935C267.91 358.901 268.101 358.939 268.26 359.04C268.339 359.112 268.409 359.193 268.47 359.28C268.537 359.4 268.577 359.533 268.59 359.67V379.11C268.588 379.3 268.511 379.482 268.377 379.616C268.242 379.751 268.06 379.827 267.87 379.83C267.775 379.831 267.681 379.813 267.593 379.778C267.505 379.742 267.425 379.689 267.358 379.622C267.291 379.555 267.238 379.475 267.202 379.387C267.167 379.299 267.149 379.205 267.15 379.11L267.19 361.83Z" fill="white"/>
<path d="M288.85 374.4H279.28L277.42 379.4C277.368 379.541 277.273 379.662 277.15 379.747C277.027 379.833 276.881 379.879 276.73 379.88H276.46C276.273 379.802 276.123 379.654 276.044 379.467C275.966 379.279 275.964 379.068 276.04 378.88L283.33 359.41C283.396 359.275 283.498 359.161 283.626 359.082C283.753 359.002 283.9 358.96 284.05 358.96C284.202 358.952 284.353 358.991 284.481 359.071C284.61 359.152 284.711 359.27 284.77 359.41L292.06 378.88C292.102 378.971 292.124 379.07 292.127 379.17C292.13 379.269 292.112 379.369 292.076 379.462C292.04 379.555 291.985 379.64 291.915 379.712C291.846 379.784 291.762 379.841 291.67 379.88C291.55 379.88 291.49 379.88 291.4 379.88C291.251 379.875 291.107 379.828 290.984 379.742C290.862 379.657 290.767 379.538 290.71 379.4L288.85 374.4ZM279.85 372.93H288.34L284.11 361.65L279.85 372.93Z" fill="white"/>
<path d="M308.53 358.53C310.982 358.532 313.366 359.344 315.31 360.84C315.387 360.9 315.452 360.976 315.5 361.061C315.548 361.147 315.579 361.242 315.59 361.34C315.601 361.437 315.593 361.536 315.565 361.631C315.538 361.725 315.492 361.813 315.43 361.89C315.375 361.967 315.306 362.032 315.225 362.082C315.145 362.131 315.055 362.164 314.962 362.178C314.868 362.192 314.773 362.187 314.681 362.163C314.59 362.14 314.504 362.098 314.43 362.04C312.746 360.738 310.677 360.034 308.55 360.04C306.115 360.04 303.78 361.007 302.058 362.729C300.337 364.45 299.37 366.785 299.37 369.22C299.37 371.654 300.337 373.989 302.058 375.711C303.78 377.433 306.115 378.4 308.55 378.4C310.665 378.444 312.728 377.735 314.37 376.4C314.527 376.294 314.719 376.254 314.906 376.287C315.093 376.321 315.259 376.426 315.37 376.58C315.437 376.652 315.489 376.738 315.522 376.832C315.554 376.926 315.566 377.026 315.558 377.125C315.549 377.224 315.52 377.32 315.472 377.407C315.424 377.494 315.359 377.57 315.28 377.63C313.333 379.116 310.949 379.918 308.5 379.91C305.675 379.91 302.966 378.788 300.969 376.79C298.972 374.793 297.85 372.084 297.85 369.26C297.85 366.435 298.972 363.726 300.969 361.729C302.966 359.732 305.675 358.61 308.5 358.61L308.53 358.53Z" fill="white"/>
<path d="M329.83 369.75L322.78 360.12C322.682 359.963 322.643 359.776 322.671 359.593C322.698 359.409 322.79 359.242 322.93 359.12C323.002 359.059 323.086 359.014 323.176 358.987C323.267 358.96 323.362 358.952 323.456 358.963C323.549 358.975 323.64 359.005 323.721 359.053C323.803 359.1 323.874 359.164 323.93 359.24L330.5 368.24L337.1 359.24C337.156 359.164 337.226 359.1 337.308 359.053C337.39 359.005 337.48 358.975 337.574 358.963C337.667 358.952 337.762 358.96 337.853 358.987C337.943 359.014 338.027 359.059 338.1 359.12C338.251 359.234 338.352 359.402 338.38 359.589C338.408 359.777 338.361 359.967 338.25 360.12L331.25 369.69V379.11C331.251 379.205 331.233 379.299 331.198 379.387C331.162 379.475 331.109 379.555 331.042 379.622C330.975 379.689 330.895 379.742 330.807 379.778C330.719 379.814 330.625 379.831 330.53 379.83C330.34 379.828 330.158 379.751 330.023 379.616C329.889 379.482 329.812 379.3 329.81 379.11L329.83 369.75Z" fill="white"/>
<path d="M434.109 349.6H65.8789V350.6H434.109V349.6Z" fill="white"/>
<path d="M434.109 346.72H65.8789V347.72H434.109V346.72Z" fill="white"/>
<path d="M434.109 390.9H65.8789V391.9H434.109V390.9Z" fill="white"/>
<path d="M434.109 388.01H65.8789V389.01H434.109V388.01Z" fill="white"/>
<path d="M253.059 308.26H246.939V334.44H253.059V308.26Z" fill="#EBEBEB"/>
<path d="M263.09 324.41V318.29H236.91V324.41H263.09Z" fill="#EBEBEB"/>
<path d="M427.82 378.35C427.82 378.35 443.71 374.74 452.42 366.72C461.13 358.7 466 344.31 466 344.31C459.959 345.474 454.003 347.041 448.17 349C445.986 351.246 444.168 353.821 442.78 356.63C442.643 354.816 442.643 352.994 442.78 351.18C440.745 352.059 438.841 353.213 437.12 354.61C429.86 360.92 427.82 378.35 427.82 378.35Z" fill="#407BFF"/>
<path d="M456.08 351.3C458.24 349.8 460.45 348.36 462.6 346.84C462.628 346.823 462.648 346.795 462.656 346.763C462.663 346.731 462.658 346.698 462.64 346.67C462.623 346.642 462.596 346.622 462.564 346.615C462.532 346.607 462.498 346.613 462.47 346.63C458.38 349.08 454.34 351.69 450.47 354.43C449.11 355.38 447.78 356.38 446.47 357.43L446.75 356.96C447.23 356.16 447.75 355.38 448.23 354.6C449.229 353.005 450.36 351.496 451.61 350.09C451.61 350.04 451.61 349.96 451.53 350.02C450.29 351.44 449.06 352.86 447.93 354.37C447.39 355.09 446.93 355.84 446.42 356.6C446.174 356.987 445.934 357.386 445.7 357.8C445.63 357.93 445.54 358.07 445.46 358.21C443.46 359.82 441.46 361.5 439.46 363.28C438.28 364.38 437.14 365.52 436.04 366.7C436.66 364.77 437.19 362.83 437.91 360.93C437.91 360.87 437.83 360.84 437.8 360.93C437.11 362.93 436.35 364.93 435.8 366.93C434.58 368.263 433.42 369.63 432.32 371.03L432.38 370.77C432.56 370.02 432.74 369.27 432.94 368.53C433.33 367.09 433.75 365.66 434.24 364.25C435.149 361.321 436.597 358.587 438.51 356.19C438.51 356.19 438.51 356.06 438.43 356.11C435.455 359.825 433.372 364.173 432.34 368.82C432.174 369.487 432.014 370.153 431.86 370.82C431.78 371.18 431.68 371.55 431.62 371.92C431.14 372.57 430.67 373.23 430.22 373.92C427.512 378.059 425.255 382.478 423.49 387.1C421.505 392.303 419.806 397.611 418.4 403C418.4 403.021 418.409 403.041 418.424 403.056C418.439 403.071 418.459 403.08 418.48 403.08C418.502 403.08 418.522 403.071 418.537 403.056C418.552 403.041 418.56 403.021 418.56 403C421.67 393.7 424.84 384.27 430.17 376C431.289 374.246 432.497 372.55 433.79 370.92C436.424 370.75 439.023 370.232 441.52 369.38C444.251 368.464 446.855 367.208 449.27 365.64C450.655 364.71 451.99 363.709 453.27 362.64C453.276 362.635 453.28 362.63 453.283 362.623C453.286 362.617 453.288 362.61 453.288 362.603C453.289 362.596 453.288 362.589 453.286 362.583C453.284 362.576 453.28 362.57 453.275 362.565C453.271 362.56 453.265 362.555 453.259 362.552C453.253 362.549 453.246 362.547 453.239 362.547C453.232 362.546 453.225 362.547 453.218 362.549C453.212 362.552 453.206 362.555 453.2 362.56C450.982 364.35 448.534 365.833 445.92 366.97C443.354 368.142 440.673 369.043 437.92 369.66C436.75 369.91 435.56 370.1 434.37 370.26C435.819 368.425 437.364 366.669 439 365C439.54 364.46 440.09 364 440.65 363.43C442.502 362.135 444.466 361.01 446.52 360.07C449.12 358.81 451.69 357.48 454.27 356.17C455.72 355.43 457.16 354.67 458.63 353.95C458.69 353.95 458.63 353.83 458.57 353.86C455.96 355.12 453.31 356.3 450.67 357.51C448.19 358.65 445.67 359.79 443.3 361.13C443.19 361.13 443.1 361.25 443 361.3C445.15 359.43 447.38 357.64 449.66 355.92C451.77 354.36 453.9 352.8 456.08 351.3Z" fill="#263238"/>
<path d="M455.171 359.49C453.881 360.06 452.561 360.56 451.281 361.16C450.001 361.76 448.721 362.5 447.471 363.24C447.421 363.24 447.471 363.35 447.471 363.32C448.741 362.71 450.021 362.15 451.281 361.51C452.541 360.87 453.841 360.18 455.151 359.6C455.163 359.598 455.174 359.592 455.183 359.584C455.191 359.575 455.197 359.564 455.199 359.552C455.201 359.54 455.2 359.528 455.195 359.517C455.19 359.506 455.182 359.497 455.171 359.49Z" fill="#263238"/>
<path d="M376.191 298.25C379.127 302.039 380.789 306.659 380.941 311.45C380.991 312.88 380.761 314.86 380.601 317.2C384.578 319.496 388.103 322.499 391.001 326.06C387.827 324.22 384.185 323.348 380.521 323.55C380.601 325.147 380.805 326.735 381.131 328.3C383.443 328.31 385.732 328.765 387.871 329.64C385.784 329.616 383.713 330.024 381.791 330.84C384.621 339.84 393.041 349.12 416.301 353.05C418.765 341.996 417.308 330.429 412.181 320.33C405.181 306.62 376.191 298.25 376.191 298.25Z" fill="#407BFF"/>
<path d="M424.321 391.62C423.915 387.767 423.411 383.927 422.811 380.1C421.634 372.439 420.069 364.843 418.121 357.34C417.212 353.829 416.089 350.376 414.761 347C414.831 346.379 414.861 345.755 414.851 345.13C414.851 344.39 414.851 343.64 414.851 342.9C414.851 341.41 414.771 339.9 414.641 338.44C414.405 335.499 413.927 332.582 413.211 329.72C412.781 328.06 412.291 326.43 411.801 324.79C411.801 324.73 411.681 324.79 411.701 324.79C412.474 327.651 413.049 330.561 413.421 333.5C413.836 336.391 414.096 339.302 414.201 342.22C414.201 343.02 414.201 343.82 414.201 344.62C414.201 344.96 414.201 345.3 414.201 345.62C413.057 342.841 411.748 340.133 410.281 337.51C407.906 333.352 405.232 329.372 402.281 325.6C402.273 325.161 402.209 324.724 402.091 324.3C401.981 323.78 401.871 323.3 401.751 322.74C401.511 321.68 401.241 320.63 400.961 319.57C400.381 317.47 399.621 315.43 398.961 313.35C398.957 313.339 398.949 313.33 398.939 313.324C398.929 313.318 398.918 313.314 398.906 313.314C398.895 313.314 398.883 313.318 398.873 313.324C398.864 313.33 398.856 313.339 398.851 313.35C399.471 315.41 399.851 317.55 400.351 319.64C400.581 320.64 400.811 321.72 401.031 322.76C401.151 323.27 401.261 323.76 401.371 324.31C401.366 324.35 401.366 324.39 401.371 324.43C400.431 323.243 399.471 322.074 398.491 320.92C394.051 315.72 389.181 310.92 384.281 306.14C383.681 305.56 383.061 304.98 382.451 304.41C382.401 304.36 382.331 304.41 382.371 304.49C387.061 309.37 391.671 314.31 396.031 319.49C397.031 320.71 398.091 321.96 399.101 323.22L397.511 322.22C396.161 321.33 394.791 320.47 393.381 319.68C391.971 318.89 390.541 318.12 389.091 317.4C387.641 316.68 386.011 316.06 384.571 315.22C384.511 315.22 384.451 315.29 384.521 315.32C385.992 315.995 387.41 316.78 388.761 317.67C390.181 318.497 391.588 319.35 392.981 320.23C394.351 321.1 395.721 321.95 397.081 322.84C398.211 323.57 399.321 324.37 400.501 325.05C403.214 328.519 405.718 332.145 408.001 335.91C409.406 338.277 410.691 340.714 411.851 343.21L411.011 342.85L408.881 341.85C407.521 341.24 406.141 340.65 404.771 340.06C402.161 338.92 399.511 337.88 396.951 336.63C395.511 335.955 394.118 335.183 392.781 334.32C392.721 334.32 392.671 334.37 392.731 334.41C397.501 337.7 402.841 340.01 408.121 342.35L410.411 343.35C411.031 343.63 411.661 343.94 412.311 344.18C413.889 347.688 415.216 351.304 416.281 355C418.367 362.405 420.056 369.916 421.341 377.5C422.681 385.09 423.581 392.74 424.281 400.42C424.361 401.42 424.451 402.33 424.561 403.29C424.574 403.362 424.612 403.426 424.668 403.473C424.723 403.519 424.794 403.545 424.866 403.545C424.939 403.545 425.009 403.519 425.065 403.473C425.121 403.426 425.158 403.362 425.171 403.29C425.121 399.4 424.721 395.49 424.321 391.62Z" fill="#263238"/>
<path d="M410.172 327.4C409.742 325.03 409.112 322.72 408.482 320.4C408.482 320.33 408.362 320.4 408.372 320.4C408.962 322.67 409.372 324.99 409.812 327.29C410.252 329.59 410.632 332 410.962 334.37C410.962 334.37 411.032 334.37 411.022 334.37C410.872 332.033 410.589 329.705 410.172 327.4Z" fill="#263238"/>
<path d="M400.15 333.81C398.531 332.746 396.84 331.794 395.09 330.96C394.24 330.52 393.38 330.11 392.53 329.69C391.68 329.27 390.72 328.91 389.84 328.47C389.78 328.47 389.73 328.53 389.84 328.56C390.69 328.99 391.5 329.5 392.33 329.96C393.16 330.42 394.05 330.96 394.91 331.37C396.62 332.28 398.29 333.3 400.07 334.04C400.097 334.04 400.123 334.031 400.144 334.015C400.165 334 400.182 333.978 400.19 333.953C400.199 333.928 400.2 333.901 400.193 333.875C400.186 333.85 400.171 333.827 400.15 333.81Z" fill="#263238"/>
<path opacity="0.1" d="M428.111 350.82C428.111 350.82 442.811 347.3 449.571 337.44C456.011 328.01 458.101 311.95 458.261 310.54C458.001 311.84 454.961 325.87 444.951 332.41C437.291 337.42 429.881 341.54 428.111 350.82Z" fill="#263238"/>
<path d="M441.682 325.41C439.064 327.812 437.184 330.909 436.262 334.34C436.262 334.34 436.262 334.34 436.262 334.34C437.344 330.993 439.213 327.955 441.712 325.48C441.802 325.44 441.732 325.36 441.682 325.41Z" fill="#263238"/>
<path d="M428.111 350.82C428.111 350.82 442.811 347.3 449.571 337.44C456.011 328.01 458.101 311.95 458.261 310.54C458.266 310.507 458.266 310.473 458.261 310.44C458.261 310.44 451.261 320.44 443.791 323.03C436.321 325.62 426.001 334.43 428.111 350.82Z" fill="#407BFF"/>
<path d="M455.671 316C454.356 318.704 452.838 321.304 451.131 323.78C449.413 326.124 447.377 328.218 445.081 330C443.081 331.59 440.971 333 438.951 334.58V334.51C439.331 333.94 439.741 333.4 440.161 332.86C441.001 331.79 441.921 330.77 442.841 329.77C444.671 327.77 446.541 325.84 448.181 323.69C449.089 322.504 449.876 321.231 450.531 319.89C450.531 319.83 450.461 319.8 450.431 319.89C448.051 324.89 443.281 328.04 439.881 332.24C439.397 332.837 438.943 333.457 438.521 334.1C438.187 334.564 437.905 335.064 437.681 335.59C435.827 337.084 434.15 338.785 432.681 340.66C432.807 339.697 433.004 338.744 433.271 337.81C433.613 336.499 434.138 335.244 434.831 334.08C434.831 334.02 434.771 333.96 434.741 334.02C434.026 335.182 433.449 336.424 433.021 337.72C432.716 338.755 432.538 339.822 432.491 340.9C431.759 341.886 431.091 342.918 430.491 343.99C430.551 343.68 430.611 343.36 430.681 343.05C430.971 341.58 431.291 340.12 431.681 338.68C432.37 335.732 433.568 332.926 435.221 330.39C435.229 330.378 435.232 330.363 435.229 330.349C435.227 330.335 435.218 330.323 435.206 330.315C435.194 330.307 435.18 330.304 435.166 330.307C435.152 330.31 435.139 330.318 435.131 330.33C433.445 332.833 432.125 335.564 431.211 338.44C430.741 339.88 430.361 341.35 430.031 342.83C429.871 343.55 429.731 344.28 429.591 345.01C429.521 345.38 429.441 345.77 429.381 346.15C427.918 349.362 426.779 352.712 425.981 356.15C424.54 362.276 423.494 368.489 422.851 374.75C422.098 381.302 421.764 387.895 421.851 394.49C421.851 395.32 421.911 396.15 421.961 396.97C421.961 397.19 422.291 397.22 422.301 396.97C422.451 393.71 422.531 390.44 422.721 387.18C422.911 383.92 423.201 380.66 423.551 377.41C424.225 371.026 425.247 364.683 426.611 358.41C427.811 353.03 429.351 347.62 432.291 342.91C433.754 340.566 435.541 338.441 437.601 336.6C439.661 334.75 441.911 333.13 444.091 331.41C446.291 329.742 448.288 327.822 450.041 325.69C451.837 323.313 453.403 320.771 454.721 318.1L455.781 316.1C455.801 316 455.711 315.91 455.671 316Z" fill="#263238"/>
<path d="M453.141 318.13C452.174 320.109 451.078 322.023 449.861 323.86C449.861 323.86 449.861 323.94 449.931 323.86C451.192 322.042 452.3 320.122 453.241 318.12C453.271 318.1 453.171 318.07 453.141 318.13Z" fill="#263238"/>
<path d="M374.141 344.31C374.141 344.31 373.901 365.21 386.401 371.24C398.901 377.27 405.601 372.24 414.091 374.24C413.761 373.74 407.701 365.03 398.091 362.63C388.131 360.18 377.141 353 374.141 344.31Z" fill="#407BFF"/>
<path opacity="0.1" d="M374.141 344.31C374.141 344.31 373.901 365.21 386.401 371.24C398.901 377.27 405.601 372.24 414.091 374.24C409.604 372.106 404.808 370.692 399.881 370.05C392.001 369.12 376.931 364 374.141 344.31Z" fill="black"/>
<path d="M414.91 374.65C413.415 373.291 411.731 372.156 409.91 371.28C409.64 371.15 409.37 371.05 409.09 370.93C408.81 370.81 408.82 370.61 408.67 370.45C408.3 370.06 407.91 369.69 407.5 369.33C406.714 368.655 405.871 368.05 404.98 367.52C402.91 366.3 400.65 365.45 398.53 364.32C398.518 364.319 398.506 364.321 398.496 364.327C398.485 364.333 398.476 364.342 398.471 364.353C398.466 364.364 398.464 364.376 398.465 364.388C398.467 364.4 398.472 364.411 398.48 364.42C399.48 364.96 400.54 365.56 401.55 366.15C402.56 366.74 403.55 367.28 404.55 367.9C405.419 368.457 406.245 369.078 407.02 369.76C407.24 369.95 407.45 370.16 407.67 370.37C406.286 369.907 404.873 369.532 403.44 369.25C401.15 368.79 398.84 368.46 396.56 367.97C395.438 367.733 394.33 367.436 393.24 367.08C392.24 366.24 391.17 365.41 390.19 364.51C388.998 363.426 387.916 362.227 386.96 360.93C386.96 360.87 386.82 360.93 386.87 360.98C388.383 363.033 390.099 364.929 391.99 366.64C391.45 366.43 390.92 366.21 390.39 365.97C386.099 364.047 382.416 360.987 379.74 357.12C379.74 357.06 379.61 357.12 379.65 357.17C381.921 360.489 384.852 363.304 388.26 365.44C389.969 366.511 391.798 367.377 393.71 368.02C395.925 368.704 398.184 369.238 400.47 369.62C402.712 369.982 404.925 370.507 407.09 371.19C409.085 371.866 410.961 372.851 412.65 374.11C415.833 376.584 418.398 379.764 420.14 383.4C422.37 388.223 423.764 393.39 424.26 398.68C424.26 398.91 424.63 398.91 424.62 398.68C424 389.89 421.68 380.75 414.91 374.65Z" fill="#263238"/>
<path d="M400.411 367.83C399.758 366.855 398.875 366.055 397.841 365.5C396.654 364.882 395.611 364.02 394.781 362.97C394.781 362.92 394.651 362.97 394.691 363.03C395.442 363.989 396.356 364.808 397.391 365.45C398.528 366.049 399.529 366.877 400.331 367.88C400.361 367.93 400.441 367.88 400.411 367.83Z" fill="#263238"/>
<path d="M407.041 390.07L407.611 401.56L409.351 436.68H435.571L437.311 401.56L437.881 390.07H407.041Z" fill="#455A64"/>
<path d="M407.041 390.07L407.611 401.56H437.311L437.881 390.07H407.041Z" fill="#263238"/>
<path d="M405.211 396.24H439.721V385.28H405.211V396.24Z" fill="#455A64"/>
<path d="M326.361 250H278.631V246.29L326.361 244.75V250Z" fill="#455A64"/>
<path d="M363.87 249.94H332.38C329.7 249.94 333.59 242.29 343.38 239.35C353.17 236.41 367 247.07 363.87 249.94Z" fill="#37474F"/>
<path d="M351.512 249.94C351.436 249.053 351.518 248.159 351.752 247.3C351.967 246.434 352.304 245.602 352.752 244.83C353.219 244.068 353.815 243.391 354.512 242.83C355.201 242.258 356.006 241.841 356.872 241.61C356.229 242.165 355.621 242.76 355.052 243.39C354.514 244.014 354.032 244.683 353.612 245.39C352.777 246.841 352.074 248.364 351.512 249.94Z" fill="#263238"/>
<path d="M355.25 242.66C356.22 242.855 357.163 243.163 358.06 243.58C358.967 243.989 359.834 244.481 360.65 245.05C361.481 245.629 362.22 246.33 362.84 247.13C363.503 247.915 363.858 248.913 363.84 249.94C363.486 249.058 362.931 248.271 362.22 247.64C361.543 246.991 360.814 246.399 360.04 245.87C358.53 244.76 356.88 243.78 355.25 242.66Z" fill="#263238"/>
<path d="M386.47 235.13H309.92L322.1 178.14H398.64L386.47 235.13Z" fill="#455A64"/>
<path d="M389.3 235.13H312.75L324.93 178.14H401.47L389.3 235.13Z" fill="#37474F"/>
<path d="M348.011 214.7H346.221L348.941 201.91H350.741L348.011 214.7Z" fill="#263238"/>
<path d="M351.562 214.7H349.762L352.492 201.91H354.282L351.562 214.7Z" fill="#263238"/>
<path d="M355.101 214.7H353.301L356.031 201.91H357.821L355.101 214.7Z" fill="#263238"/>
<path d="M358.642 214.7H356.842L359.572 201.91H361.362L358.642 214.7Z" fill="#263238"/>
<path d="M362.181 214.7H360.391L363.111 201.91H364.911L362.181 214.7Z" fill="#263238"/>
<path d="M365.722 214.7H363.932L366.652 201.91H368.452L365.722 214.7Z" fill="#263238"/>
<path d="M369.261 214.7H367.471L370.191 201.91H371.991L369.261 214.7Z" fill="#263238"/>
<path d="M367.65 250.01H330V247.09L367.65 245.87V250.01Z" fill="#455A64"/>
<path d="M377.88 250.01H357.67L345.5 218.08H365.71L377.88 250.01Z" fill="#455A64"/>
<path d="M381.21 250.01H361L348.83 218.08H369.04L381.21 250.01Z" fill="#263238"/>
</svg>
