<svg width="67" height="56" viewBox="0 0 67 56" fill="none" xmlns="http://www.w3.org/2000/svg">
<path d="M38.0029 55.0098V39.7876C38.0029 31.8091 38.9478 25.2653 40.8374 20.1562C42.797 15.0472 46.0864 10.708 50.7056 7.13867C55.3247 3.56934 60.5737 1.18978 66.4526 0V12.1777C62.3234 14.5573 59.9788 17.7417 59.4189 21.731H66.4526V55.0098H38.0029ZM0 55.0098V39.7876C0 31.8091 0.944824 25.2653 2.83447 20.1562C4.79411 15.0472 8.0835 10.708 12.7026 7.13867C17.3918 3.56934 22.6408 1.18978 28.4497 0V12.1777C24.3205 14.5573 21.9759 17.7417 21.416 21.731H28.4497V55.0098H0Z" fill="#4B3FF5"/>
</svg>
