<svg width="210" height="50" viewBox="0 0 210 50" fill="none" xmlns="http://www.w3.org/2000/svg">
<path d="M31.1908 40.3974L30.1112 44.3288L26.0137 43.2935L27.0939 39.3621L31.1908 40.3974Z" fill="#622CCF"/>
<path d="M28.0277 34.9946L26.9688 38.937L31.0784 39.9532L32.1374 36.0108L28.0277 34.9946Z" fill="#AFC304"/>
<path d="M29.1003 31.0909L28.041 35.0344L32.1506 36.0506L33.2099 32.1071L29.1003 31.0909Z" fill="#FF9600"/>
<path d="M26.0139 43.2936L24.9348 47.2244L20.8379 46.1891L21.9175 42.2583L26.0139 43.2936Z" fill="#015189"/>
<path d="M27.0946 39.3616L26.0143 43.2929L21.918 42.2575L22.9965 38.3262L27.0946 39.3616Z" fill="#03A48F"/>
<path d="M24.0764 34.3974L22.9961 38.3281L27.0935 39.3648L28.1739 35.4341L24.0764 34.3974Z" fill="#02C4AB"/>
<path d="M16.7418 45.1535L15.6803 49.0052C15.5738 49.0052 15.4709 49.0108 15.3679 49.0108L11.5664 48.0498L12.6449 44.1218L16.7418 45.1535Z" fill="#3078A9"/>
<path d="M29.2505 31.5011L28.1714 35.4325L24.0742 34.3972L25.1539 30.4658L29.2505 31.5011Z" fill="#AFC304"/>
<path d="M21.9168 42.2577L20.8372 46.1886L16.7402 45.1527L17.8193 41.2224L21.9168 42.2577Z" fill="#016CB6"/>
<path d="M25.155 30.4653L24.076 34.3972L19.9785 33.3613L21.0582 29.4299L25.155 30.4653Z" fill="#00C7C0"/>
<path d="M30.3302 27.5694L29.2512 31.5008L25.1543 30.4654L26.2327 26.5347L30.3302 27.5694Z" fill="#D9DC01"/>
<path d="M26.2326 26.5358L25.1541 30.4666L21.0566 29.4306L22.1357 25.4998L26.2326 26.5358Z" fill="#03D9D1"/>
<path d="M18.0357 24.4609L16.957 28.3918L21.0541 29.4268L22.1328 25.4958L18.0357 24.4609Z" fill="#C3D42F"/>
<path d="M18.0399 24.4644L16.9608 28.3946L12.8633 27.3599L13.9424 23.428L18.0399 24.4644Z" fill="#02D4E1"/>
<path d="M39.605 25.7097L38.5258 29.6405L34.4277 28.6051L35.5073 24.6743L39.605 25.7097Z" fill="#FF0000"/>
<path d="M23.2192 21.5704L22.1387 25.5017L26.2356 26.5383L27.3161 22.607L23.2192 21.5704Z" fill="#D9DC01"/>
<path d="M18.9773 20.1973L17.918 24.1409L22.0276 25.1571L23.0869 21.2135L18.9773 20.1973Z" fill="#FFEA00"/>
<path d="M19.1786 20.384L18.2493 23.7677L14.7227 22.8759L15.6514 19.4927L19.1786 20.384Z" fill="#C3D42F"/>
<path d="M15.351 16.1685L14.7676 18.3403L17.0317 18.9002L17.6151 16.7284L15.351 16.1685Z" fill="#D9DC01"/>
<path d="M18.9333 16.5612L18.4258 18.4077L20.3504 18.8947L20.8579 17.0481L18.9333 16.5612Z" fill="#B7CC01"/>
<path d="M21.5995 18.1786L20.9727 20.4631L23.3537 21.0646L23.9806 18.7801L21.5995 18.1786Z" fill="#FFB400"/>
<path d="M10.8632 19.7351L10.1035 22.4993L12.985 23.2283L13.7447 20.4642L10.8632 19.7351Z" fill="#EFAF02"/>
<path d="M11.0261 24.3546L10.373 26.7307L12.8502 27.3575L13.5033 24.9813L11.0261 24.3546Z" fill="#02A6C4"/>
<path d="M10.4573 16.7266L9.91797 18.6887L11.9636 19.2063L12.5029 17.2441L10.4573 16.7266Z" fill="#F97C00"/>
<path d="M6.65217 15.8818L6.03906 18.1125L8.36406 18.7008L8.97717 16.4701L6.65217 15.8818Z" fill="#FEB900"/>
<path d="M7.53546 19.1242L7.02734 20.9729L8.95477 21.4606L9.46288 19.6118L7.53546 19.1242Z" fill="#00CAD7"/>
<path d="M7.78937 22.2472L7.28125 24.0959L9.20867 24.5836L9.71679 22.7349L7.78937 22.2472Z" fill="#029DD0"/>
<path d="M44.7814 22.8144L43.7017 26.7457L39.6055 25.7104L40.6839 21.7791L44.7814 22.8144Z" fill="#DB0350"/>
<path d="M40.6838 21.7795L39.6053 25.7108L35.5078 24.6755L36.5868 20.7441L40.6838 21.7795Z" fill="#EF8202"/>
<path d="M15.1141 13.3959L14.5703 15.3777L16.6352 15.8993L17.179 13.9175L15.1141 13.3959Z" fill="#B7CC01"/>
<path d="M11.7887 13.5235L11.2695 15.4124L13.2382 15.9105L13.7574 14.0216L11.7887 13.5235Z" fill="#FFC600"/>
<path d="M10.6672 14.4365L10.1625 16.2726L8.25 15.7889L8.75375 13.9534L10.6672 14.4365Z" fill="#FB7000"/>
<path d="M8.99725 11.1118L8.40306 13.2755L6.14844 12.7054L6.7421 10.5422L8.99725 11.1118Z" fill="#FE234C"/>
<path d="M10.5126 9.51599L9.91797 11.6794L12.1728 12.2499L12.7675 10.0865L10.5126 9.51599Z" fill="#02CDF2"/>
<path d="M13.554 10.8866L13.0391 12.7603L14.9919 13.2543L15.5069 11.3807L13.554 10.8866Z" fill="#01CC6F"/>
<path d="M11.179 6.00523L10.6641 7.87891L12.6169 8.373L13.1319 6.49932L11.179 6.00523Z" fill="#00BADC"/>
<path d="M9.57931 4.67197L9.32617 5.59448L10.2877 5.83736L10.5408 4.91485L9.57931 4.67197Z" fill="#FF0000"/>
<path d="M11.9152 3.34034L11.6094 4.479L12.7967 4.77261L13.1026 3.63394L11.9152 3.34034Z" fill="#01CCA8"/>
<path d="M11.313 2.45662L11.123 3.14771L11.8425 3.32974L12.0325 2.63865L11.313 2.45662Z" fill="#F5CE63"/>
<path d="M13.0335 0.737239L12.8398 1.43042L13.5615 1.61601L13.7551 0.92283L13.0335 0.737239Z" fill="#FB7000"/>
<path d="M9.53253 7.80384L9.12959 9.27179L7.59961 8.88519L8.00261 7.41724L9.53253 7.80384Z" fill="#EF8202"/>
<path d="M13.1717 8.69065L12.9648 9.44312L13.7488 9.64146L13.9556 8.88899L13.1717 8.69065Z" fill="#02D4E1"/>
<path d="M10.2967 12.7992L10.1055 13.4978L10.8328 13.6811L11.0241 12.9825L10.2967 12.7992Z" fill="#FF0000"/>
<path d="M13.3718 17.005L13.1836 17.7058L13.9132 17.8862L14.1015 17.1854L13.3718 17.005Z" fill="#FF0024"/>
<path d="M6.73108 13.973L6.53906 14.6716L7.2664 14.8557L7.45842 14.157L6.73108 13.973Z" fill="#FF6600"/>
<path d="M45.8073 19.0742C44.3451 18.4384 42.9555 18.1848 41.6677 18.1944L40.6836 21.7795L44.7811 22.8148L45.8073 19.0742Z" fill="#EF8202"/>
<path d="M36.9474 19.428L36.5859 20.7439L40.6799 21.7792L41.664 18.1941C39.8862 18.2076 38.2943 18.7241 36.9474 19.428Z" fill="#EFAF02"/>
<path d="M35.332 20.4271L36.5865 20.7442L36.948 19.4282C36.385 19.7235 35.845 20.0573 35.332 20.4271Z" fill="#F86F01"/>
<path d="M32.2012 23.4362C32.2884 23.5926 32.3711 23.748 32.4491 23.9026L35.5067 24.6776L36.5858 20.7468L35.3313 20.4275C33.3469 21.8531 32.2012 23.4362 32.2012 23.4362Z" fill="#EFAF02"/>
<path d="M33.5648 33.1044C33.5707 32.9331 33.5747 32.7629 33.5771 32.5938L33.3486 32.5376L32.2695 36.4689L36.3635 37.5042L37.4426 33.5735L33.703 32.628C33.6274 32.9356 33.5648 33.1044 33.5648 33.1044Z" fill="#97008E"/>
<path d="M27.7436 21.0342L27.3125 22.6054L30.3725 23.3792C29.5855 22.5101 28.7042 21.724 27.7436 21.0342Z" fill="#96C702"/>
<path d="M27.7431 21.0344C26.6175 20.2256 25.4242 19.5074 24.1755 18.8869C24.1093 18.8527 24.0466 18.8179 23.9822 18.7837L23.2148 21.5681L27.3124 22.6034L27.7431 21.0344Z" fill="#FFCC00"/>
<path d="M12.8638 27.3591L12.4883 28.7267C12.9796 29.1273 13.4639 29.4854 13.9282 29.799C14.6913 30.3135 15.4223 30.8706 16.1173 31.4673L16.9608 28.3956L12.8638 27.3591Z" fill="#02A6C4"/>
<path d="M16.9607 28.3928L16.1172 31.4662C16.6146 31.8953 17.0574 32.3137 17.4454 32.7215L19.9784 33.3612L21.0581 29.4331L16.9607 28.3928Z" fill="#00BADC"/>
<path d="M19.4397 35.3222L19.9786 33.3582L17.4453 32.7185C18.3711 33.6902 19.0075 34.5798 19.4397 35.3222Z" fill="#0184B5"/>
<path d="M20.3386 37.5044L20.2386 37.6296L22.9962 38.3265L24.0759 34.3985L19.9783 33.3621L19.4395 35.3261C20.2105 36.6475 20.3386 37.5044 20.3386 37.5044Z" fill="#02A6C4"/>
<path d="M22.9963 38.3273L20.2387 37.6304C19.6076 38.4322 18.9206 39.1921 18.1824 39.9047L17.8203 41.2229L21.9178 42.2582L22.9963 38.3273Z" fill="#03BDEC"/>
<path d="M18.1813 39.9045C17.7791 40.2928 17.3697 40.6593 16.9531 41.0038L17.8187 41.2227L18.1813 39.9045Z" fill="#24F0FD"/>
<path d="M12.7356 43.7815C12.5765 43.8636 12.4173 43.9437 12.2578 44.0217L12.6432 44.1196L12.7356 43.7815Z" fill="#3078A9"/>
<path d="M17.8211 41.2215L16.9556 41.0027C15.6613 42.0762 14.2463 43.008 12.737 43.7808L12.6445 44.1175L16.7385 45.1516L17.8211 41.2215Z" fill="#23ACCF"/>
<path d="M7.4668 47.0134L11.5643 48.0493L12.6433 44.1213L12.258 44.0237C10.8396 44.71 9.3576 45.2677 7.83119 45.6897L7.4668 47.0134Z" fill="#23ACCF"/>
<path d="M7.83231 45.6868C6.84589 45.9605 5.84422 46.1808 4.83203 46.3467L7.46792 47.0128L7.83231 45.6868Z" fill="#19CBD2"/>
<path d="M3.20734 46.5645L2.94241 47.5311C1.38319 47.1467 0.357367 46.8128 0.0766154 46.7197L0 46.6944C0 46.6944 1.25333 46.7709 3.20734 46.5645Z" fill="#19CBD2"/>
<path d="M7.46587 47.0149L7.09099 48.378C5.48205 48.1182 4.07021 47.8095 2.94141 47.5323L3.20634 46.5656C3.70464 46.5146 4.24968 46.4439 4.83051 46.3479L7.46587 47.0149Z" fill="#1A7F99"/>
<path d="M11.5636 48.0502L11.3332 48.8869C9.81842 48.7713 8.39193 48.59 7.0918 48.3779L7.46668 47.0149L11.5636 48.0502Z" fill="#1A5E8C"/>
<path d="M15.3656 49.0101C13.9742 49.0326 12.6214 48.982 11.3301 48.8855L11.5605 48.0488L15.3656 49.0101Z" fill="#015189"/>
<path d="M20.8395 46.1879L20.1675 48.6283C18.6823 48.8472 17.1839 48.9728 15.6816 49.0042L16.7426 45.1526L20.8395 46.1879Z" fill="#0A47AD"/>
<path d="M24.936 47.2232L24.8448 47.5514C23.3199 48.0374 21.7547 48.3979 20.166 48.6289L20.838 46.1885L24.936 47.2232Z" fill="#4710B7"/>
<path d="M25.4489 47.3539C25.2482 47.4219 25.0483 47.4901 24.8477 47.5525L24.9389 47.2234L25.4489 47.3539Z" fill="#670097"/>
<path d="M30.112 44.3272V44.3306L29.8378 45.3253C28.4524 46.1446 26.9824 46.8242 25.4514 47.3533L24.9414 47.2231L26.0205 43.2952L30.112 44.3272Z" fill="#320097"/>
<path d="M31.0345 44.5621C30.6426 44.8309 30.2414 45.0851 29.8379 45.3252L30.1122 44.3305V44.3271L31.0345 44.5621Z" fill="#004E8F"/>
<path d="M34.7855 41.3106C33.6703 42.5311 32.4112 43.6233 31.0337 44.5653L30.1113 44.3335V44.3301L31.1898 40.4021L34.7883 41.3095L34.7855 41.3106Z" fill="#320097"/>
<path d="M37.4496 37.7785C36.8843 38.6973 36.2552 39.5784 35.5664 40.4159L36.3653 37.5059L37.4496 37.7785Z" fill="#320097"/>
<path d="M39.4414 34.077C39.1408 34.6426 38.8344 35.2336 38.5276 35.8447C38.1853 36.5203 37.8266 37.165 37.4515 37.7789L36.3672 37.5045L37.4458 33.5735L39.4414 34.077Z" fill="#670097"/>
<path d="M41.5071 30.3941C40.8412 31.506 40.1524 32.7334 39.4409 34.0763L37.4453 33.5711L38.5272 29.6433L41.5071 30.3941Z" fill="#97008E"/>
<path d="M43.7023 26.7461L43.5852 27.1733C42.922 28.1272 42.2262 29.1934 41.5071 30.3942L38.5273 29.6423L39.6058 25.7144L43.7023 26.7461Z" fill="#BF0145"/>
<path d="M43.8577 26.786C43.7694 26.9133 43.6781 27.0408 43.584 27.1732L43.7011 26.7461L43.8577 26.786Z" fill="#A3013B"/>
<path d="M46.707 23.3028C45.8257 24.2247 44.8764 25.3672 43.8593 26.7869L43.7031 26.7471L44.7821 22.8191L46.707 23.3028Z" fill="#BF0145"/>
<path d="M48.9102 19.6542L49.9559 19.9198L50.0372 19.6224C49.6612 19.6118 49.2849 19.6224 48.9102 19.6542Z" fill="#FF0000"/>
<path d="M52.0009 19.8381C51.6404 19.9152 51.288 20.024 50.9482 20.163L49.9609 19.9144L50.0435 19.6232V19.6204C50.7012 19.6391 51.3561 19.7119 52.0009 19.8381Z" fill="#CF0186"/>
<path d="M50.9317 20.1653C50.5106 20.3434 50.105 20.5534 49.7188 20.7934L49.9573 19.9197L50.9317 20.1653Z" fill="#E80179"/>
<path d="M49.9565 19.9204L49.719 20.794C48.8259 21.34 47.8234 22.1408 46.7099 23.3024L44.7852 22.8159L45.8102 19.0747C46.3813 19.3222 46.9322 19.6105 47.4583 19.9372C47.4583 19.9372 47.9712 19.7391 48.914 19.6566L49.9565 19.9204Z" fill="#E8115D"/>
<path d="M31.2021 24.3964C30.9507 24.0515 30.6746 23.7111 30.3739 23.3751L27.314 22.6013L26.2344 26.5333L30.3319 27.568L31.2021 24.3964Z" fill="#C3D42F"/>
<path d="M34.4268 28.6045L34.0022 30.151C34.0016 30.984 33.902 31.8143 33.7051 32.6256L37.4446 33.5711L38.5249 29.6398L34.4268 28.6045Z" fill="#FF6600"/>
<path d="M33.3477 32.5368L33.5761 32.593C33.5796 32.3046 33.5761 32.0198 33.5667 31.7356L33.3477 32.5368Z" fill="#FF6600"/>
<path d="M33.9001 28.4709C33.9725 29.028 34.0069 29.589 34.0032 30.1504L34.4278 28.6062L33.9001 28.4709ZM33.0714 28.2616L30.3308 27.5686L29.25 31.4994L33.3439 32.5341L33.5651 31.7368C33.5422 30.5639 33.3765 29.3976 33.0714 28.2616Z" fill="#FFB400"/>
<path d="M30.3301 27.5706L33.0689 28.2631C32.6907 26.878 32.0569 25.5691 31.1976 24.3984L30.3301 27.5706Z" fill="#FFCC00"/>
<path d="M34.4271 28.6048L35.5069 24.6768L32.4492 23.9041C33.3078 25.5774 33.7271 27.1346 33.9003 28.4745L34.4271 28.6048Z" fill="#FFCC00"/>
<path d="M36.3672 37.5036L35.5665 40.4137C35.3098 40.7217 35.0566 41.0158 34.791 41.3017V41.3045L31.1953 40.394V40.3907L32.2744 36.4626L36.3672 37.5036Z" fill="#004E8F"/>
<path d="M80.432 25.4526V43.562H78.1937L66.7296 30.0576V43.562H64V25.4526H66.2382L77.7024 38.957V25.4526H80.432Z" fill="#080E21"/>
<path d="M98.8435 36.7839C98.8435 36.9736 98.8253 37.2237 98.7889 37.5342H87.0518C87.2156 38.7415 87.7706 39.7159 88.7168 40.4575C89.6813 41.1819 90.8732 41.5441 92.2926 41.5441C94.0213 41.5441 95.4134 40.9922 96.4688 39.8884L97.9155 41.4924C97.2604 42.2167 96.4415 42.7686 95.4588 43.1481C94.4944 43.5275 93.4117 43.7172 92.2107 43.7172C90.6821 43.7172 89.3264 43.424 88.1436 42.8376C86.9608 42.234 86.0419 41.3975 85.3868 40.3282C84.7499 39.2589 84.4314 38.0516 84.4314 36.7063C84.4314 35.3783 84.7408 34.1796 85.3595 33.1103C85.9964 32.041 86.8607 31.2131 87.9525 30.6267C89.0626 30.0231 90.3091 29.7213 91.6921 29.7213C93.075 29.7213 94.3033 30.0231 95.377 30.6267C96.4688 31.2131 97.315 32.041 97.9155 33.1103C98.5342 34.1796 98.8435 35.4042 98.8435 36.7839ZM91.6921 31.8168C90.4365 31.8168 89.381 32.179 88.5258 32.9033C87.6887 33.6277 87.1974 34.5763 87.0518 35.7491H96.3323C96.1867 34.5936 95.6863 33.6536 94.831 32.9292C93.994 32.1876 92.9476 31.8168 91.6921 31.8168Z" fill="#080E21"/>
<path d="M106.631 43.7172C105.448 43.7172 104.311 43.5706 103.219 43.2774C102.127 42.967 101.272 42.5789 100.653 42.1132L101.745 40.1471C102.382 40.5783 103.155 40.9232 104.065 41.1819C104.975 41.4406 105.894 41.57 106.822 41.57C109.115 41.57 110.261 40.9491 110.261 39.7073C110.261 39.2934 110.107 38.9657 109.797 38.7242C109.488 38.4827 109.097 38.3103 108.624 38.2068C108.169 38.0861 107.514 37.9567 106.658 37.8187C105.494 37.6463 104.538 37.4479 103.792 37.2237C103.064 36.9995 102.437 36.6201 101.909 36.0854C101.381 35.5508 101.117 34.8005 101.117 33.8347C101.117 32.5929 101.663 31.6012 102.755 30.8596C103.847 30.1007 105.312 29.7213 107.15 29.7213C108.114 29.7213 109.079 29.8334 110.043 30.0576C111.007 30.2818 111.799 30.5836 112.418 30.9631L111.299 32.9292C110.116 32.2048 108.724 31.8427 107.122 31.8427C106.012 31.8427 105.166 32.0151 104.584 32.3601C104.002 32.705 103.71 33.162 103.71 33.7312C103.71 34.1796 103.874 34.5332 104.202 34.7919C104.529 35.0506 104.93 35.2403 105.403 35.361C105.894 35.4818 106.576 35.6197 107.45 35.775C108.615 35.9647 109.552 36.1717 110.261 36.3959C110.989 36.6028 111.608 36.965 112.117 37.4824C112.627 37.9998 112.882 38.7242 112.882 39.6555C112.882 40.8973 112.318 41.889 111.189 42.6307C110.079 43.355 108.56 43.7172 106.631 43.7172Z" fill="#080E21"/>
<path d="M124.291 42.76C123.909 43.0705 123.435 43.3119 122.871 43.4844C122.307 43.6396 121.725 43.7172 121.124 43.7172C119.669 43.7172 118.54 43.3464 117.74 42.6048C116.939 41.8632 116.539 40.8025 116.539 39.4227V31.8944H114.082V29.8506H116.539V26.8496H119.159V29.8506H123.308V31.8944H119.159V39.3192C119.159 40.0609 119.35 40.63 119.732 41.0267C120.133 41.4234 120.697 41.6217 121.425 41.6217C122.225 41.6217 122.908 41.4061 123.472 40.9749L124.291 42.76Z" fill="#080E21"/>
<path d="M133.175 43.7172C131.737 43.7172 130.445 43.4154 129.299 42.8117C128.153 42.2081 127.252 41.3802 126.597 40.3282C125.96 39.2589 125.641 38.0516 125.641 36.7063C125.641 35.361 125.96 34.1624 126.597 33.1103C127.252 32.041 128.153 31.2131 129.299 30.6267C130.445 30.0231 131.737 29.7213 133.175 29.7213C134.613 29.7213 135.895 30.0231 137.024 30.6267C138.17 31.2131 139.062 32.041 139.699 33.1103C140.354 34.1624 140.681 35.361 140.681 36.7063C140.681 38.0516 140.354 39.2589 139.699 40.3282C139.062 41.3802 138.17 42.2081 137.024 42.8117C135.895 43.4154 134.613 43.7172 133.175 43.7172ZM133.175 41.5441C134.103 41.5441 134.931 41.3458 135.659 40.9491C136.405 40.5351 136.987 39.966 137.406 39.2416C137.824 38.5 138.034 37.6549 138.034 36.7063C138.034 35.7577 137.824 34.9212 137.406 34.1969C136.987 33.4552 136.405 32.8861 135.659 32.4894C134.931 32.0927 134.103 31.8944 133.175 31.8944C132.247 31.8944 131.41 32.0927 130.664 32.4894C129.936 32.8861 129.354 33.4552 128.917 34.1969C128.498 34.9212 128.289 35.7577 128.289 36.7063C128.289 37.6549 128.498 38.5 128.917 39.2416C129.354 39.966 129.936 40.5351 130.664 40.9491C131.41 41.3458 132.247 41.5441 133.175 41.5441Z" fill="#080E21"/>
<path d="M146.816 32.1531C147.271 31.3597 147.945 30.7561 148.836 30.3422C149.728 29.9282 150.811 29.7213 152.084 29.7213V32.1272C151.939 32.11 151.739 32.1014 151.484 32.1014C150.065 32.1014 148.945 32.5067 148.127 33.3173C147.326 34.1106 146.926 35.2489 146.926 36.7322V43.562H144.305V29.8506H146.816V32.1531Z" fill="#080E21"/>
<path d="M170.121 34.2234C171.377 34.4821 172.341 34.9995 173.015 35.7756C173.706 36.5345 174.052 37.5175 174.052 38.7248C174.052 40.2771 173.442 41.4757 172.223 42.3208C171.022 43.1487 169.239 43.5626 166.873 43.5626H158.084V25.4533H166.327C168.456 25.4533 170.103 25.8586 171.268 26.6692C172.451 27.4798 173.042 28.6267 173.042 30.11C173.042 31.1103 172.778 31.964 172.25 32.6711C171.741 33.361 171.031 33.8784 170.121 34.2234ZM160.104 27.0314V33.6025H166.191C167.738 33.6025 168.929 33.3265 169.767 32.7746C170.604 32.2055 171.022 31.3862 171.022 30.3169C171.022 29.2476 170.604 28.437 169.767 27.8851C168.929 27.3159 167.738 27.0314 166.191 27.0314H160.104ZM166.846 41.9845C168.556 41.9845 169.848 41.7086 170.722 41.1567C171.595 40.6048 172.032 39.7424 172.032 38.5696C172.032 36.3102 170.303 35.1806 166.846 35.1806H160.104V41.9845H166.846Z" fill="#080E21"/>
<path d="M178.253 29.9547H180.191V43.5626H178.253V29.9547ZM179.236 26.9796C178.835 26.9796 178.499 26.8503 178.226 26.5916C177.953 26.3329 177.816 26.0224 177.816 25.6602C177.816 25.3153 177.953 25.0135 178.226 24.7548C178.499 24.4961 178.835 24.3667 179.236 24.3667C179.636 24.3667 179.973 24.4961 180.245 24.7548C180.518 24.9962 180.655 25.2894 180.655 25.6344C180.655 26.0138 180.518 26.3329 180.245 26.5916C179.973 26.8503 179.636 26.9796 179.236 26.9796Z" fill="#080E21"/>
<path d="M187.439 32.6194C187.894 31.7053 188.568 31.0154 189.459 30.5497C190.369 30.0841 191.488 29.8512 192.817 29.8512V31.6363L192.353 31.6104C190.842 31.6104 189.659 32.0502 188.804 32.9298C187.949 33.8094 187.521 35.0426 187.521 36.6293V43.5626H185.583V29.9547H187.439V32.6194Z" fill="#080E21"/>
<path d="M209.294 24.3667V43.5626H207.438V40.8721C206.856 41.7862 206.082 42.4847 205.118 42.9676C204.172 43.4505 203.098 43.692 201.897 43.692C200.55 43.692 199.331 43.3988 198.239 42.8124C197.148 42.226 196.292 41.4067 195.674 40.3547C195.055 39.3026 194.746 38.1039 194.746 36.7587C194.746 35.4134 195.055 34.2147 195.674 33.1627C196.292 32.1106 197.148 31.3 198.239 30.7308C199.331 30.1444 200.55 29.8512 201.897 29.8512C203.062 29.8512 204.108 30.0841 205.036 30.5497C205.982 30.9982 206.756 31.6622 207.356 32.5418V24.3667H209.294ZM202.061 42.0621C203.062 42.0621 203.962 41.8465 204.763 41.4154C205.582 40.9669 206.219 40.3374 206.674 39.5268C207.147 38.7162 207.383 37.7935 207.383 36.7587C207.383 35.7239 207.147 34.8011 206.674 33.9905C206.219 33.1799 205.582 32.559 204.763 32.1278C203.962 31.6794 203.062 31.4552 202.061 31.4552C201.042 31.4552 200.123 31.6794 199.304 32.1278C198.503 32.559 197.866 33.1799 197.393 33.9905C196.938 34.8011 196.711 35.7239 196.711 36.7587C196.711 37.7935 196.938 38.7162 197.393 39.5268C197.866 40.3374 198.503 40.9669 199.304 41.4154C200.123 41.8465 201.042 42.0621 202.061 42.0621Z" fill="#080E21"/>
</svg>
