<svg width="403" height="328" viewBox="0 0 403 328" fill="none" xmlns="http://www.w3.org/2000/svg">
<rect width="403" height="328" fill="#F5F5F5"/>
<mask id="mask0_0_1" style="mask-type:alpha" maskUnits="userSpaceOnUse" x="0" y="0" width="393" height="328">
<rect width="393" height="328" rx="6" fill="white"/>
</mask>
<g mask="url(#mask0_0_1)">
<g opacity="0.2">
<path d="M323.118 327.549L319.479 342.177L305.67 338.325L309.311 323.697L323.118 327.549Z" fill="#622CCF"/>
<path d="M312.456 307.449L308.887 322.118L322.737 325.899L326.306 311.23L312.456 307.449Z" fill="#AFC304"/>
<path d="M316.072 292.926L312.502 307.599L326.352 311.38L329.922 296.707L316.072 292.926Z" fill="#FF9600"/>
<path d="M309.311 323.696L305.67 338.323L291.865 334.471L295.5 319.843L309.311 323.696Z" fill="#03A48F"/>
<path d="M299.143 305.226L295.501 319.851L309.31 323.708L312.951 309.083L299.143 305.226Z" fill="#02C4AB"/>
<path d="M316.577 294.453L312.94 309.08L299.132 305.228L302.771 290.6L316.577 294.453Z" fill="#AFC304"/>
<path d="M302.778 290.596L299.141 305.226L285.332 301.371L288.971 286.744L302.778 290.596Z" fill="#00C7C0"/>
<path d="M320.217 279.826L316.581 294.454L302.774 290.602L306.408 275.976L320.217 279.826Z" fill="#D9DC01"/>
<path d="M306.407 275.978L302.772 290.603L288.963 286.748L292.6 272.123L306.407 275.978Z" fill="#03D9D1"/>
<path d="M278.782 268.258L275.147 282.884L288.955 286.736L292.589 272.109L278.782 268.258Z" fill="#C3D42F"/>
<path d="M278.798 268.27L275.162 282.894L261.352 279.044L264.989 264.414L278.798 268.27Z" fill="#02D4E1"/>
<path d="M351.474 272.902L347.837 287.528L334.026 283.676L337.665 269.05L351.474 272.902Z" fill="#FF0000"/>
<path d="M296.251 257.502L292.61 272.13L306.417 275.987L310.058 261.359L296.251 257.502Z" fill="#D9DC01"/>
<path d="M281.955 252.394L278.386 267.067L292.235 270.848L295.805 256.175L281.955 252.394Z" fill="#FFEA00"/>
<path d="M282.635 253.085L279.503 265.675L267.618 262.357L270.748 249.769L282.635 253.085Z" fill="#C3D42F"/>
<path d="M269.736 237.401L267.77 245.482L275.4 247.565L277.366 239.485L269.736 237.401Z" fill="#D9DC01"/>
<path d="M281.807 238.864L280.096 245.734L286.582 247.545L288.293 240.675L281.807 238.864Z" fill="#B7CC01"/>
<path d="M290.793 244.882L288.68 253.382L296.704 255.62L298.817 247.12L290.793 244.882Z" fill="#FFB400"/>
<path d="M254.609 250.672L252.049 260.956L261.76 263.669L264.32 253.384L254.609 250.672Z" fill="#EFAF02"/>
<path d="M255.158 267.862L252.957 276.703L261.305 279.035L263.506 270.194L255.158 267.862Z" fill="#02A6C4"/>
<path d="M253.242 239.478L251.425 246.779L258.319 248.704L260.137 241.403L253.242 239.478Z" fill="#F97C00"/>
<path d="M240.42 236.335L238.354 244.635L246.189 246.823L248.256 238.524L240.42 236.335Z" fill="#FEB900"/>
<path d="M243.393 248.398L241.681 255.276L248.176 257.09L249.889 250.212L243.393 248.398Z" fill="#00CAD7"/>
<path d="M244.254 260.017L242.541 266.896L249.037 268.71L250.749 261.832L244.254 260.017Z" fill="#029DD0"/>
<path d="M368.917 262.13L365.278 276.757L351.473 272.905L355.108 258.278L368.917 262.13Z" fill="#DB0350"/>
<path d="M355.106 258.278L351.472 272.906L337.663 269.054L341.299 254.426L355.106 258.278Z" fill="#EF8202"/>
<path d="M268.936 227.089L267.104 234.463L274.063 236.404L275.895 229.031L268.936 227.089Z" fill="#B7CC01"/>
<path d="M257.729 227.558L255.979 234.586L262.614 236.439L264.364 229.411L257.729 227.558Z" fill="#FFC600"/>
<path d="M253.951 230.956L252.25 237.787L245.805 235.988L247.503 229.158L253.951 230.956Z" fill="#FB7000"/>
<path d="M248.322 218.589L246.319 226.64L238.721 224.519L240.722 216.47L248.322 218.589Z" fill="#FE234C"/>
<path d="M253.429 212.65L251.425 220.699L259.024 222.821L261.028 214.772L253.429 212.65Z" fill="#02CDF2"/>
<path d="M263.682 217.753L261.945 224.724L268.527 226.562L270.263 219.591L263.682 217.753Z" fill="#01CC6F"/>
<path d="M255.674 199.595L253.938 206.566L260.519 208.405L262.255 201.433L255.674 199.595Z" fill="#00BADC"/>
<path d="M250.283 194.636L249.431 198.068L252.671 198.973L253.524 195.54L250.283 194.636Z" fill="#FF0000"/>
<path d="M258.154 189.681L257.123 193.918L261.125 195.01L262.155 190.774L258.154 189.681Z" fill="#01CCA8"/>
<path d="M256.125 186.396L255.486 188.964L257.91 189.642L258.549 187.074L256.125 186.396Z" fill="#F5CE63"/>
<path d="M261.926 180L261.274 182.576L263.706 183.266L264.358 180.69L261.926 180Z" fill="#FB7000"/>
<path d="M250.126 206.289L248.768 211.751L243.612 210.313L244.97 204.851L250.126 206.289Z" fill="#EF8202"/>
<path d="M262.389 209.578L261.693 212.374L264.335 213.112L265.031 210.316L262.389 209.578Z" fill="#02D4E1"/>
<path d="M252.698 224.867L252.054 227.463L254.505 228.146L255.149 225.549L252.698 224.867Z" fill="#FF0000"/>
<path d="M263.062 240.516L262.428 243.121L264.887 243.793L265.52 241.188L263.062 240.516Z" fill="#FF0024"/>
<path d="M240.685 229.233L240.038 231.829L242.489 232.513L243.136 229.917L240.685 229.233Z" fill="#FF6600"/>
<path d="M372.377 248.214C367.449 245.848 362.766 244.905 358.426 244.94L355.11 258.279L368.919 262.132L372.377 248.214Z" fill="#EF8202"/>
<path d="M342.517 249.531L341.299 254.427L355.096 258.279L358.412 244.94C352.421 244.99 347.056 246.912 342.517 249.531Z" fill="#EFAF02"/>
<path d="M337.075 253.247L341.303 254.427L342.521 249.53C340.624 250.629 338.804 251.871 337.075 253.247Z" fill="#F86F01"/>
<path d="M326.523 264.445C326.817 265.027 327.096 265.606 327.358 266.181L337.663 269.064L341.3 254.439L337.072 253.251C330.384 258.555 326.523 264.445 326.523 264.445Z" fill="#EFAF02"/>
<path d="M331.119 300.418C331.139 299.78 331.152 299.147 331.16 298.518L330.39 298.309L326.754 312.936L340.551 316.788L344.188 302.163L331.585 298.645C331.33 299.789 331.119 300.418 331.119 300.418Z" fill="#97008E"/>
<path d="M311.499 255.507L310.047 261.353L320.359 264.232C317.707 260.999 314.737 258.074 311.499 255.507Z" fill="#96C702"/>
<path d="M311.497 255.507C307.703 252.498 303.682 249.825 299.473 247.517C299.251 247.389 299.039 247.26 298.822 247.132L296.236 257.492L310.045 261.345L311.497 255.507Z" fill="#FFCC00"/>
<path d="M261.353 279.036L260.088 284.124C261.744 285.614 263.376 286.947 264.941 288.114C267.512 290.028 269.976 292.101 272.318 294.321L275.161 282.892L261.353 279.036Z" fill="#02A6C4"/>
<path d="M275.162 282.887L272.319 294.322C273.996 295.919 275.488 297.476 276.795 298.993L285.332 301.373L288.97 286.758L275.162 282.887Z" fill="#00BADC"/>
<path d="M283.516 308.67L285.332 301.363L276.795 298.983C279.915 302.598 282.06 305.908 283.516 308.67Z" fill="#0184B5"/>
<path d="M286.542 316.788L286.205 317.254L295.498 319.847L299.137 305.232L285.328 301.375L283.511 308.683C286.11 313.6 286.542 316.788 286.542 316.788Z" fill="#02A6C4"/>
<path d="M295.498 319.849L286.205 317.256C284.078 320.24 281.762 323.067 279.274 325.719L278.054 330.623L291.863 334.475L295.498 319.849Z" fill="#03BDEC"/>
<path d="M279.271 325.715C277.915 327.16 276.536 328.523 275.132 329.805L278.049 330.619L279.271 325.715Z" fill="#24F0FD"/>
<path d="M335.228 330.953C331.47 335.494 327.227 339.557 322.584 343.062L319.476 342.2V342.187L323.11 327.572L335.238 330.948L335.228 330.953Z" fill="#320097"/>
<path d="M344.209 317.806C342.304 321.225 340.183 324.503 337.862 327.619L340.554 316.792L344.209 317.806Z" fill="#320097"/>
<path d="M350.92 304.034C349.906 306.138 348.874 308.337 347.84 310.61C346.686 313.124 345.477 315.523 344.213 317.807L340.559 316.786L344.194 302.16L350.92 304.034Z" fill="#670097"/>
<path d="M357.884 290.332C355.64 294.469 353.319 299.036 350.921 304.033L344.195 302.153L347.842 287.539L357.884 290.332Z" fill="#97008E"/>
<path d="M365.282 276.756L364.888 278.345C362.653 281.895 360.308 285.862 357.884 290.33L347.842 287.532L351.477 272.917L365.282 276.756Z" fill="#BF0145"/>
<path d="M365.808 276.909C365.51 277.383 365.202 277.857 364.885 278.35L365.28 276.761L365.808 276.909Z" fill="#A3013B"/>
<path d="M375.408 263.945C372.438 267.375 369.238 271.626 365.811 276.909L365.284 276.76L368.921 262.145L375.408 263.945Z" fill="#BF0145"/>
<path d="M382.831 250.374L386.355 251.356L386.629 250.256C385.362 250.217 384.094 250.256 382.831 250.374Z" fill="#FF0000"/>
<path d="M393.247 251.054C392.032 251.341 390.845 251.746 389.7 252.263L386.373 251.338L386.651 250.254V250.244C388.867 250.314 391.074 250.585 393.247 251.054Z" fill="#CF0186"/>
<path d="M389.647 252.273C388.228 252.936 386.861 253.717 385.559 254.61L386.363 251.359L389.647 252.273Z" fill="#E80179"/>
<path d="M386.359 251.363L385.558 254.614C382.549 256.645 379.17 259.624 375.418 263.946L368.931 262.136L372.385 248.216C374.31 249.137 376.167 250.21 377.94 251.425C377.94 251.425 379.668 250.688 382.846 250.381L386.359 251.363Z" fill="#E8115D"/>
<path d="M323.152 268.016C322.305 266.733 321.374 265.466 320.361 264.216L310.049 261.337L306.41 275.966L320.219 279.816L323.152 268.016Z" fill="#C3D42F"/>
<path d="M334.024 283.674L332.593 289.428C332.591 292.528 332.255 295.617 331.592 298.636L344.194 302.153L347.835 287.526L334.024 283.674Z" fill="#FF6600"/>
<path d="M330.385 298.304L331.155 298.513C331.167 297.44 331.155 296.38 331.124 295.323L330.385 298.304Z" fill="#FF6600"/>
<path d="M332.246 283.18C332.489 285.253 332.605 287.34 332.593 289.429L334.024 283.683L332.246 283.18ZM329.453 282.401L320.217 279.823L316.574 294.448L330.371 298.298L331.116 295.331C331.039 290.967 330.481 286.628 329.453 282.401Z" fill="#FFB400"/>
<path d="M320.216 279.827L329.446 282.403C328.171 277.25 326.035 272.38 323.139 268.024L320.216 279.827Z" fill="#FFCC00"/>
<path d="M334.023 283.678L337.662 269.063L327.357 266.188C330.251 272.414 331.664 278.208 332.248 283.194L334.023 283.678Z" fill="#FFCC00"/>
<path d="M340.563 316.785L337.865 327.612C336.999 328.758 336.146 329.853 335.251 330.916V330.927L323.133 327.539V327.527L326.77 312.911L340.563 316.785Z" fill="#004E8F"/>
</g>
</g>
</svg>
