<svg width="500" height="500" viewBox="0 0 500 500" fill="none" xmlns="http://www.w3.org/2000/svg">
<path d="M202.75 470.37C287.526 470.37 356.25 462.11 356.25 451.92C356.25 441.73 287.526 433.47 202.75 433.47C117.974 433.47 49.25 441.73 49.25 451.92C49.25 462.11 117.974 470.37 202.75 470.37Z" fill="#EBEBEB"/>
<path d="M35.0703 422.48L88.8003 422.24L142.53 422.15L250 421.98L357.47 422.15L411.2 422.23L464.93 422.48L411.2 422.72L357.47 422.81L250 422.98L142.53 422.81L88.8003 422.72L35.0703 422.48Z" fill="#263238"/>
<path d="M69.5898 371.35C69.2931 363.77 69.3966 356.179 69.8998 348.61C71.0131 333.004 73.3875 317.513 76.9998 302.29C78.9998 293.72 81.4298 285.29 83.9998 276.87C84.0698 276.62 84.4798 276.69 84.4098 276.95C76.5298 306.63 70.0598 337.25 70.5098 368.1C70.6298 376.74 71.6298 385.22 72.4498 393.79C72.4498 394.02 72.0998 394.12 72.0398 393.88C70.5689 386.456 69.7491 378.917 69.5898 371.35Z" fill="#8661C1"/>
<path d="M84.4201 277C84.4201 277 96.3601 307.31 93.6901 314.43C91.0201 321.55 85.5001 323 85.5001 323C85.5001 323 92.8101 333.43 87.7001 343.21C82.5901 352.99 71.2601 352.53 70.5001 363.62C70.5001 363.64 69.8701 317.27 84.4201 277Z" fill="#8661C1"/>
<path d="M71.8005 344.49C71.7858 344.441 71.7858 344.389 71.8005 344.34C73.3683 323.638 77.2525 303.176 83.3805 283.34C83.3805 283.28 83.5005 283.34 83.4805 283.34C81.1205 292.21 79.0105 301.12 77.2105 310.08C78.8179 308.564 80.7765 307.472 82.9105 306.9C82.9105 306.9 82.9705 306.95 82.9105 306.97C80.666 307.825 78.6597 309.208 77.0605 311C76.7072 312.753 76.3738 314.51 76.0605 316.27C78.7305 313.27 82.4305 311.81 86.1305 310.4V310.48C82.2805 312.05 78.4405 314.08 75.8205 317.4C74.9138 322.427 74.1172 327.473 73.4305 332.54C75.3564 330.516 77.8308 329.098 80.5505 328.46C80.6305 328.46 80.6705 328.56 80.5505 328.58C77.7445 329.388 75.2352 330.997 73.3305 333.21C73.0905 334.99 72.8605 336.78 72.6505 338.56C74.1481 337.302 75.8357 336.289 77.6505 335.56C77.6505 335.56 77.7305 335.62 77.6505 335.64C75.8017 336.44 74.1089 337.56 72.6505 338.95C72.6505 338.95 72.6505 338.95 72.5905 338.95C72.3905 340.65 72.1905 342.35 72.0205 344.05C74.7051 340.798 78.194 338.305 82.1405 336.82C82.1509 336.826 82.1594 336.835 82.1654 336.845C82.1713 336.856 82.1744 336.868 82.1744 336.88C82.1744 336.892 82.1713 336.904 82.1654 336.914C82.1594 336.925 82.1509 336.934 82.1405 336.94C78.2321 338.648 74.7995 341.285 72.1405 344.62C72.1111 344.656 72.0718 344.683 72.0274 344.697C71.983 344.711 71.9354 344.712 71.8905 344.7C71.6305 347.3 71.4005 349.92 71.2005 352.53C71.3872 349.85 71.5872 347.17 71.8005 344.49Z" fill="#263238"/>
<path d="M81.3897 303.94C83.5527 302.594 86.025 301.826 88.5697 301.71C88.6297 301.71 88.6297 301.79 88.5697 301.8C86.1153 302.255 83.7315 303.032 81.4798 304.11C81.3798 304.16 81.2997 304 81.3897 303.94Z" fill="#263238"/>
<path d="M79.9404 336C81.6024 335.047 83.4324 334.422 85.3304 334.16C85.3904 334.16 85.4004 334.25 85.3304 334.26C83.4718 334.634 81.6768 335.274 80.0004 336.16C79.9404 336.19 79.8704 336.07 79.9404 336Z" fill="#263238"/>
<path d="M38.2101 314.87C43.2513 318.378 47.8777 322.447 52.0001 327C56.263 331.803 59.5568 337.386 61.7001 343.44C66.231 356.063 68.6698 369.341 68.9201 382.75C69.0677 390.174 68.353 397.59 66.7901 404.85C66.7808 404.906 66.7498 404.955 66.7038 404.988C66.6579 405.021 66.6008 405.034 66.5451 405.025C66.4894 405.016 66.4397 404.985 66.4068 404.939C66.374 404.893 66.3608 404.836 66.3701 404.78C68.3207 391.965 68.2499 378.923 66.1601 366.13C64.1101 353.6 60.8901 339.96 52.9201 329.77C48.5801 324.22 43.1701 319.86 37.8201 315.35C37.5601 315.06 37.9201 314.67 38.2101 314.87Z" fill="#8661C1"/>
<path d="M67.1802 373.67C64.305 369.021 60.9281 364.702 57.1102 360.79C51.1102 354.79 46.1102 350.58 45.3302 346.63C44.5502 342.68 51.3302 339.77 51.3302 339.77C51.3302 339.77 43.0602 341.26 40.8002 337.77C38.5402 334.28 37.4502 314.21 37.4502 314.21C37.4502 314.21 52.4502 324.94 59.4502 339.99C66.4502 355.04 67.1802 373.67 67.1802 373.67Z" fill="#8661C1"/>
<path d="M42.7998 333.07C43.7935 332.931 44.7991 332.898 45.7998 332.97C45.9198 332.97 45.9098 333.18 45.7998 333.18C44.7998 333.18 43.7998 333.18 42.7998 333.18C42.7907 333.184 42.7807 333.186 42.7708 333.185C42.7608 333.184 42.7513 333.181 42.7429 333.175C42.7346 333.17 42.7278 333.162 42.723 333.154C42.7183 333.145 42.7158 333.135 42.7158 333.125C42.7158 333.115 42.7183 333.105 42.723 333.096C42.7278 333.088 42.7346 333.08 42.7429 333.075C42.7513 333.069 42.7608 333.066 42.7708 333.065C42.7807 333.064 42.7907 333.066 42.7998 333.07Z" fill="#263238"/>
<path d="M53.6203 352.56C55.2092 352.598 56.7793 352.913 58.2603 353.49C58.2603 353.49 58.2603 353.57 58.2603 353.56C56.7303 353.2 55.1903 353.05 53.6403 352.79C53.6147 352.785 53.5913 352.772 53.5738 352.752C53.5564 352.733 53.5457 352.709 53.5434 352.682C53.5412 352.656 53.5474 352.63 53.5613 352.608C53.5752 352.586 53.5959 352.569 53.6203 352.56Z" fill="#263238"/>
<path d="M56.8705 345.83C57.5415 345.822 58.2116 345.882 58.8705 346.01C58.8864 346.01 58.9017 346.016 58.9129 346.027C58.9242 346.039 58.9305 346.054 58.9305 346.07C58.9305 346.086 58.9242 346.101 58.9129 346.112C58.9017 346.124 58.8864 346.13 58.8705 346.13C58.2022 346.164 57.5321 346.13 56.8705 346.03C56.844 346.03 56.8186 346.019 56.7998 346.001C56.781 345.982 56.7705 345.956 56.7705 345.93C56.7705 345.903 56.781 345.878 56.7998 345.859C56.8186 345.84 56.844 345.83 56.8705 345.83Z" fill="#263238"/>
<path d="M111.26 336.2C106.359 337.855 101.662 340.062 97.2603 342.78C92.6984 345.675 88.7447 349.432 85.6203 353.84C79.039 363.013 74.0025 373.201 70.7103 384C68.8749 389.975 67.7373 396.143 67.3203 402.38C67.3203 402.428 67.3393 402.474 67.373 402.507C67.4068 402.541 67.4526 402.56 67.5003 402.56C67.5481 402.56 67.5938 402.541 67.6276 402.507C67.6614 402.474 67.6803 402.428 67.6803 402.38C69.0664 391.562 72.1369 381.028 76.7803 371.16C81.3403 361.49 87.1003 351.16 95.9103 344.8C100.7 341.31 106.09 339.03 111.46 336.61C111.74 336.5 111.54 336.1 111.26 336.2Z" fill="#8661C1"/>
<path d="M74.2197 377.08C77.6223 373.987 81.3547 371.277 85.3497 369C91.5597 365.55 96.6097 363.28 98.1597 360.26C99.7097 357.24 94.8997 353.33 94.8997 353.33C94.8997 353.33 101.24 356.44 103.9 354.15C106.56 351.86 112 335.85 112 335.85C112 335.85 97.3497 341.06 88.1997 351.62C79.0497 362.18 74.2197 377.08 74.2197 377.08Z" fill="#8661C1"/>
<path d="M99.1599 345.61C99.8289 345.556 100.502 345.596 101.16 345.73C101.169 345.726 101.179 345.724 101.189 345.725C101.199 345.726 101.208 345.729 101.217 345.735C101.225 345.74 101.232 345.748 101.237 345.756C101.241 345.765 101.244 345.775 101.244 345.785C101.244 345.795 101.241 345.805 101.237 345.813C101.232 345.822 101.225 345.83 101.217 345.835C101.208 345.841 101.199 345.844 101.189 345.845C101.179 345.846 101.169 345.844 101.16 345.84C100.52 345.77 99.8799 345.84 99.2299 345.78C99.0699 345.77 99.0499 345.62 99.1599 345.61Z" fill="#263238"/>
<path d="M55.3301 422.56H88.3901L83.6801 388.02L82.4701 379.16H61.2401L60.0401 388.02L55.3301 422.56Z" fill="#455A64"/>
<path d="M60.04 388.02H83.68L82.47 379.16H61.24L60.04 388.02Z" fill="#263238"/>
<path d="M58.2098 383.59H85.5098V376.09H58.2098V383.59Z" fill="#455A64"/>
<path d="M261.6 459C259.44 459.69 197.92 458.9 195.6 457.38C194.71 456.81 194.31 447.84 194.13 436.99C194.13 436.87 194.13 436.76 194.13 436.65C194.13 434.41 194.06 432.11 194.06 429.77C194.06 429.45 194.06 429.13 194.06 428.77L197.06 396.85L238.22 397.26L234.16 428.88L234.11 430.13L233.86 436.68V437.35C233.86 437.35 257.27 448.19 259.65 450.13C262.03 452.07 263.76 458.31 261.6 459Z" fill="#F7A9A0"/>
<path d="M261.6 459C259.44 459.69 197.92 458.9 195.6 457.38C194.71 456.81 194.31 447.84 194.13 436.99C194.13 436.87 194.13 436.76 194.13 436.65C194.13 434.41 194.06 432.11 194.06 429.77C194.06 429.45 194.06 429.13 194.06 428.77L234.14 428.88L234.09 430.13L233.84 436.68V437.35C233.84 437.35 257.25 448.19 259.63 450.13C262.01 452.07 263.76 458.31 261.6 459Z" fill="#EBEBEB"/>
<path d="M261.61 459C260.5 459.36 243.78 459.32 227.44 459C224.16 458.94 220.89 458.86 217.77 458.78C206.12 458.46 196.49 457.98 195.6 457.39C194.71 456.8 194.31 448.11 194.13 437.46C194.13 437.31 194.13 437.16 194.13 437.01C194.13 436.86 194.13 436.77 194.13 436.66L233.78 436.73V437.41C233.78 437.41 257.2 448.24 259.57 450.18C261.94 452.12 263.76 458.31 261.61 459Z" fill="#8661C1"/>
<path d="M260.94 456.6C250.57 456.21 208.71 455.6 198.43 456.02C198.35 456.02 198.35 456.08 198.43 456.09C208.7 456.7 250.56 456.95 260.93 456.77C261.15 456.77 261.15 456.61 260.94 456.6Z" fill="#263238"/>
<path d="M238.23 436.89C234.16 436.07 229.16 436.64 226 439.5C225.88 439.61 226 439.79 226.17 439.75C230.075 438.541 234.097 437.754 238.17 437.4C238.232 437.397 238.29 437.373 238.336 437.331C238.381 437.289 238.41 437.232 238.417 437.171C238.424 437.109 238.41 437.047 238.375 436.996C238.341 436.944 238.289 436.907 238.23 436.89Z" fill="#263238"/>
<path d="M241.15 438.7C237.08 437.89 232.08 438.45 228.93 441.32C228.8 441.43 228.93 441.6 229.1 441.56C233.005 440.353 237.028 439.569 241.1 439.22C241.169 439.227 241.238 439.206 241.291 439.161C241.344 439.117 241.378 439.054 241.385 438.985C241.391 438.916 241.37 438.847 241.326 438.794C241.282 438.74 241.219 438.707 241.15 438.7Z" fill="#263238"/>
<path d="M244.08 440.52C240 439.7 235.01 440.26 231.85 443.13C231.73 443.24 231.85 443.41 232.02 443.37C235.926 442.168 239.949 441.383 244.02 441.03C244.082 441.027 244.141 441.003 244.186 440.961C244.232 440.919 244.261 440.862 244.268 440.8C244.275 440.739 244.26 440.677 244.226 440.626C244.191 440.574 244.14 440.537 244.08 440.52Z" fill="#263238"/>
<path d="M227.44 459C224.16 458.94 220.89 458.86 217.77 458.78C206.12 458.46 196.49 457.98 195.6 457.39C194.71 456.8 194.31 448.11 194.13 437.46C194.13 437.31 194.13 437.16 194.13 437.01C194.13 436.86 194.13 436.77 194.13 436.66C199.59 440.45 218.73 453.19 227.44 459Z" fill="#263238"/>
<path d="M236.51 436.86H192.2C192.2 436.86 201.12 333.36 200.78 331.55C200.33 329.24 197.72 318.76 194.24 305.08C193.14 300.79 191.97 296.2 190.74 291.44C187.44 278.56 183.8 264.49 180.63 252.25C175.86 233.9 172.14 219.65 172.14 219.65H209.7C209.7 219.65 214.08 233.53 219.59 251.58C228.59 280.92 240.59 321.29 241.78 331.11C243.7 347 236.51 436.86 236.51 436.86Z" fill="#263238"/>
<path d="M234.55 429.29C227.78 429.15 229.73 429.1 222.96 429.03C219.65 429.03 197.88 428.81 194.79 429.32C194.72 429.32 194.72 429.45 194.79 429.46C197.88 429.97 219.65 429.79 222.96 429.75C229.73 429.69 227.78 429.63 234.55 429.49C234.563 429.49 234.576 429.487 234.588 429.482C234.6 429.477 234.611 429.47 234.621 429.461C234.63 429.451 234.637 429.44 234.642 429.428C234.647 429.416 234.65 429.403 234.65 429.39C234.65 429.377 234.647 429.364 234.642 429.352C234.637 429.34 234.63 429.329 234.621 429.319C234.611 429.31 234.6 429.303 234.588 429.298C234.576 429.293 234.563 429.29 234.55 429.29Z" fill="#37474F"/>
<path d="M209.11 325.23C207.66 318.82 205.49 312.54 203.6 306.23C199.76 293.47 195.893 280.727 192 268C190.06 261.62 188.11 255.24 186.15 248.86C185.156 245.653 184.156 242.437 183.15 239.21C182.15 236.07 181.04 232.95 180.15 229.78C179.79 228.48 179.59 229.19 180.05 230.83C180.99 234.14 181.91 237.45 182.87 240.74C184.776 247.273 186.696 253.8 188.63 260.32C192.483 273.3 196.36 286.273 200.26 299.24C202.213 305.74 204.166 312.24 206.12 318.74C207.114 321.831 207.916 324.98 208.52 328.17C209.039 331.507 209.17 334.893 208.91 338.26C208.49 345.04 207.7 351.81 207.07 358.57C206.44 365.33 205.82 372.13 205.19 378.91C203.943 392.403 202.706 405.893 201.48 419.38C201.33 421.09 201.18 422.8 201.05 424.51C201 425.08 201.87 425.04 201.93 424.51C203.39 411.17 204.51 397.79 205.76 384.43C207.01 371.07 208.25 357.84 209.49 344.55C209.81 341.21 210.16 337.87 210.16 334.55C210.169 331.413 209.817 328.286 209.11 325.23Z" fill="#37474F"/>
<path d="M205.44 219.65C202.83 239.82 197.86 277.65 194.24 305.08C185.76 271.83 172.14 219.65 172.14 219.65H205.44Z" fill="#37474F"/>
<path d="M214.66 459.59C212.5 460.29 150.97 459.72 148.66 458.21C147.76 457.65 147.32 448.68 147.1 437.83V437.49C147.05 435.25 147.01 432.95 147 430.61C147 430.29 147 429.97 147 429.61C146.85 413.94 148 397.69 148 397.69L188.22 397.95L187.1 429.57V430.83L186.87 437.37V438.05C186.87 438.05 210.32 448.8 212.71 450.73C215.1 452.66 216.82 458.89 214.66 459.59Z" fill="#F7A9A0"/>
<path d="M214.66 459.59C212.5 460.29 150.97 459.72 148.66 458.21C147.76 457.65 147.32 448.68 147.1 437.83V437.49C147.05 435.25 147.01 432.95 147 430.61C147 430.29 147 429.97 147 429.61H187.08V430.87L186.85 437.41V438.09C186.85 438.09 210.3 448.84 212.69 450.77C215.08 452.7 216.82 458.89 214.66 459.59Z" fill="#EBEBEB"/>
<path d="M214.66 459.59C212.5 460.29 150.97 459.72 148.66 458.21C147.76 457.65 147.32 448.68 147.1 437.83V437.49L186.8 437.41V438.09C186.8 438.09 210.25 448.84 212.64 450.77C215.03 452.7 216.82 458.89 214.66 459.59Z" fill="#8661C1"/>
<path d="M214 457.2C203.63 456.85 161.77 456.41 151.49 456.85C151.41 456.85 151.41 456.91 151.49 456.91C161.76 457.49 203.62 457.58 213.99 457.37C214.2 457.36 214.2 457.2 214 457.2Z" fill="#263238"/>
<path d="M191.21 437.57C187.13 436.77 182.14 437.35 178.99 440.23C178.87 440.34 178.99 440.51 179.16 440.47C183.064 439.252 187.087 438.45 191.16 438.08C191.221 438.075 191.279 438.05 191.323 438.007C191.366 437.964 191.394 437.907 191.4 437.846C191.406 437.785 191.39 437.724 191.355 437.673C191.32 437.623 191.269 437.586 191.21 437.57Z" fill="#263238"/>
<path d="M194.14 439.37C190.06 438.57 185.07 439.15 181.92 442.03C181.8 442.14 181.92 442.31 182.09 442.27C185.993 441.05 190.016 440.252 194.09 439.89C194.159 439.897 194.227 439.875 194.281 439.831C194.334 439.787 194.368 439.724 194.375 439.655C194.381 439.586 194.36 439.517 194.316 439.464C194.272 439.41 194.209 439.377 194.14 439.37Z" fill="#263238"/>
<path d="M197.07 441.17C192.99 440.37 188 440.95 184.85 443.83C184.73 443.94 184.85 444.11 185.02 444.07C188.924 442.85 192.947 442.052 197.02 441.69C197.054 441.693 197.089 441.69 197.122 441.68C197.154 441.67 197.185 441.653 197.211 441.631C197.238 441.61 197.26 441.583 197.276 441.553C197.292 441.522 197.302 441.489 197.305 441.455C197.309 441.421 197.305 441.386 197.295 441.354C197.285 441.321 197.269 441.29 197.247 441.264C197.225 441.237 197.198 441.215 197.168 441.199C197.138 441.183 197.104 441.173 197.07 441.17Z" fill="#263238"/>
<path d="M208.48 219.65C208.48 219.65 207.62 237.65 203.48 251.85C203.15 253.03 202.79 254.19 202.4 255.3C198.631 256.819 195.009 258.68 191.58 260.86C191.58 260.86 191.15 275.32 190.71 291.44C190.23 309.44 189.71 329.57 189.84 333.83C190.21 349.78 187.84 437.5 187.84 437.5L143.54 437.68C143.54 437.68 151.54 339.68 151.54 333.88C151.46 324.48 153.69 282.97 155.41 252.69C156.47 234.03 157.33 219.69 157.33 219.69L208.48 219.65Z" fill="#263238"/>
<path d="M186.351 429.62C179.591 429.51 181.53 429.45 174.76 429.41C171.45 429.41 149.68 429.3 146.59 429.82C146.572 429.82 146.554 429.827 146.541 429.84C146.528 429.854 146.521 429.871 146.521 429.89C146.521 429.908 146.528 429.926 146.541 429.939C146.554 429.952 146.572 429.96 146.59 429.96C149.69 430.46 171.45 430.18 174.76 430.13C181.53 430.04 179.591 429.99 186.361 429.82C186.481 429.82 186.481 429.63 186.351 429.62Z" fill="#37474F"/>
<path d="M161 226.07C160.19 250.79 159.32 275.51 158.22 300.22C157.12 324.93 155.62 349.79 153.54 374.52C152.38 388.33 151.29 407.77 149.8 421.52C149.8 421.62 149.93 421.65 149.94 421.52C153.17 397 154.94 366.68 156.55 342.01C158.16 317.34 159.21 292.62 160.06 267.92C160.53 253.92 160.89 239.92 161.31 225.99C161.35 225.86 161 225.88 161 226.07Z" fill="#37474F"/>
<path d="M204.27 254.23C199.866 256.067 195.629 258.286 191.61 260.86C191.585 260.882 191.568 260.911 191.561 260.944C191.555 260.977 191.56 261.011 191.574 261.04C191.589 261.07 191.614 261.094 191.644 261.109C191.674 261.123 191.708 261.127 191.74 261.12C196.02 259.04 200.38 257.04 204.53 254.74C204.586 254.699 204.625 254.64 204.641 254.573C204.657 254.506 204.649 254.436 204.617 254.374C204.586 254.313 204.534 254.265 204.47 254.238C204.407 254.212 204.336 254.209 204.27 254.23Z" fill="#37474F"/>
<path d="M204.52 239C204.23 240.58 203.85 242.14 203.52 243.7C203.19 245.26 202.96 246.7 202.58 248.12C202.262 249.525 201.547 250.809 200.52 251.82C199.94 252.36 199.31 252.82 198.69 253.32C198.36 253.59 198 253.84 197.69 254.11C197.69 253.9 197.77 253.69 197.81 253.47L198.11 251.68C198.34 250.36 198.55 249.03 198.75 247.68C199.15 245.07 199.52 242.43 200.07 239.84C200.064 239.822 200.052 239.807 200.037 239.796C200.022 239.785 200.003 239.78 199.985 239.78C199.966 239.78 199.948 239.785 199.933 239.796C199.917 239.807 199.906 239.822 199.9 239.84C199.25 242.4 198.53 244.94 197.97 247.52C197.69 248.79 196.7 255.05 196.65 255.52C196.6 255.99 196.57 256.44 196.55 256.9C196.495 257.365 196.495 257.835 196.55 258.3C196.557 258.322 196.571 258.342 196.59 258.356C196.608 258.37 196.631 258.377 196.655 258.377C196.678 258.377 196.701 258.37 196.72 258.356C196.739 258.342 196.753 258.322 196.76 258.3C196.953 257.866 197.088 257.409 197.16 256.94C197.27 256.49 197.37 256.04 197.45 255.58C197.45 255.42 197.51 255.25 197.53 255.08C198.15 254.71 198.72 254.21 199.3 253.8C199.88 253.39 200.55 252.91 201.14 252.41C202.226 251.493 203.01 250.269 203.39 248.9C203.768 247.425 204.012 245.919 204.12 244.4C204.32 242.62 204.47 240.84 204.72 239.06C204.7 238.92 204.54 238.87 204.52 239Z" fill="#37474F"/>
<path d="M184.63 173.29C190.75 183.48 216.86 205.49 226.06 206.01C232.71 206.39 255.8 188.13 262 181.72C268 175.52 246.28 158.72 242.52 162.08C237.2 166.87 225.59 180.67 223.02 181.08C221.21 181.39 210.11 176.19 192.88 166.36C183.35 161 181 167.21 184.63 173.29Z" fill="#F7A9A0"/>
<path d="M250.29 152.4C253.99 150.32 258.07 147.63 262.47 146.94C266.87 146.25 271.53 151.41 271.82 153.06C272.11 154.71 272.26 165.35 267.88 166.12C263.5 166.89 264.75 158.48 264.42 157.6C264.09 156.72 263.73 155.6 262.92 155.81C262.11 156.02 248.83 165.45 248.83 165.45L250.29 152.4Z" fill="#F7A9A0"/>
<path d="M250.67 153C250.92 153 261.86 146.26 266.26 145.58C270.66 144.9 275.32 150.04 275.61 151.7C275.9 153.36 276.06 163.99 271.67 164.76C267.28 165.53 268.54 157.12 268.22 156.24C267.9 155.36 267.52 154.24 266.71 154.45C265.9 154.66 252.62 164.09 252.62 164.09L250.67 153Z" fill="#F7A9A0"/>
<path d="M270.08 164.42C269.486 163.728 269.08 162.894 268.9 162C268.64 161.08 268.529 160.125 268.57 159.17C268.671 158.341 268.708 157.505 268.68 156.67C268.535 155.859 268.191 155.096 267.68 154.45C267.23 153.9 266.63 154.22 266.11 154.51C265.347 154.965 264.612 155.466 263.91 156.01C263.15 156.57 262.39 157.15 261.64 157.73C260.835 158.293 260.066 158.908 259.34 159.57C259.28 159.62 259.34 159.72 259.41 159.68C260.119 159.256 260.804 158.792 261.46 158.29C262.23 157.76 262.99 157.22 263.77 156.7C264.55 156.18 265.19 155.7 265.92 155.22C266.18 155.05 266.69 154.65 267.02 154.67C267.35 154.69 267.68 155.48 267.8 155.73C268.12 156.487 268.211 157.322 268.06 158.13C267.98 158.955 267.98 159.785 268.06 160.61C268.117 161.389 268.313 162.151 268.64 162.86C269.029 163.484 269.492 164.058 270.02 164.57C270 164.61 270.16 164.49 270.08 164.42Z" fill="#263238"/>
<path d="M238.78 166.91C238.78 166.91 249 153.7 251.14 151.06C255.44 145.76 275.29 133.28 278.21 132.44C281.13 131.6 283.28 137.52 269.88 146.44C262.82 151.12 262.23 155.74 262.8 158.14C263.37 160.54 266.48 164.66 270.54 163.84C274.6 163.02 276.21 156.59 279.85 155.27C283.49 153.95 282.21 161.27 280.26 165.69C278.157 170.016 274.87 173.657 270.78 176.19C267.48 178.13 257.38 184.76 257.38 184.76L238.78 166.91Z" fill="#F7A9A0"/>
<path d="M275.11 160.05C273.78 161.51 272.31 163.36 270.3 163.79C268.29 164.22 266.62 163.11 265.35 161.58C263.989 160.091 263.252 158.137 263.29 156.12C263.454 154.272 264.149 152.512 265.29 151.05C266.681 149.27 268.326 147.704 270.17 146.4C270.25 146.34 270.17 146.23 270.07 146.28C268.34 147.45 262.91 150.87 262.65 156.23C262.621 158.29 263.388 160.281 264.79 161.79C265.98 163.25 267.57 164.59 269.58 164.4C272.03 164.18 273.76 161.85 275.24 160.08C275.3 160 275.18 160 275.11 160.05Z" fill="#263238"/>
<path d="M242.08 162.46L258.9 192.81C258.9 192.81 233.74 207.64 225.62 206.81C217.5 205.98 193.81 186.81 184.55 174.21C178.91 166.56 182.87 160.08 193.87 165.82C205.16 171.71 221.01 179.82 222.14 180.01C223.27 180.2 242.08 162.46 242.08 162.46Z" fill="#455A64"/>
<path d="M225.75 186.53C226.061 187.186 226.277 187.883 226.39 188.6C225.916 188.048 225.529 187.427 225.24 186.76C224.925 186.105 224.706 185.408 224.59 184.69C225.063 185.244 225.453 185.864 225.75 186.53ZM247.17 177.9C247.289 178.617 247.508 179.314 247.82 179.97C248.109 180.637 248.496 181.258 248.97 181.81C248.724 180.371 248.103 179.022 247.17 177.9ZM201.07 173C201.184 173.717 201.399 174.414 201.71 175.07C202.008 175.729 202.395 176.345 202.86 176.9C202.75 176.182 202.534 175.484 202.22 174.83C201.924 174.169 201.537 173.553 201.07 173ZM226.36 201.06C227.077 200.942 227.774 200.724 228.43 200.41C229.093 200.118 229.709 199.731 230.26 199.26C229.544 199.378 228.847 199.594 228.19 199.9C227.526 200.208 226.91 200.609 226.36 201.09V201.06ZM251.17 192.39C252.606 192.143 253.954 191.526 255.08 190.6C254.362 190.713 253.665 190.928 253.01 191.24C252.344 191.546 251.725 191.943 251.17 192.42V192.39ZM239.92 168.6C240.638 168.499 241.338 168.297 242 168C242.667 167.711 243.287 167.323 243.84 166.85C243.122 166.961 242.425 167.177 241.77 167.49C241.103 167.77 240.48 168.144 239.92 168.6ZM212.07 181.81C211.649 182.401 211.313 183.047 211.07 183.73C210.807 184.406 210.645 185.117 210.59 185.84C211.012 185.25 211.349 184.604 211.59 183.92C211.853 183.244 212.014 182.533 212.07 181.81ZM238.33 186.66C237.497 187.844 236.98 189.221 236.83 190.66C237.26 190.079 237.597 189.434 237.83 188.75C238.091 188.079 238.259 187.376 238.33 186.66ZM191.8 174.27C191.375 174.858 191.039 175.505 190.8 176.19C190.538 176.867 190.373 177.577 190.31 178.3C190.736 177.713 191.073 177.066 191.31 176.38C191.571 175.703 191.736 174.993 191.8 174.27ZM200.34 188.52C199.751 188.096 199.104 187.759 198.42 187.52C197.739 187.26 197.025 187.095 196.3 187.03C196.888 187.454 197.535 187.791 198.22 188.03C198.9 188.29 199.614 188.455 200.34 188.52ZM235.41 177.68C234.819 177.26 234.173 176.923 233.49 176.68C232.814 176.417 232.103 176.255 231.38 176.2C231.969 176.622 232.616 176.959 233.3 177.2C233.975 177.463 234.686 177.625 235.41 177.68ZM218.33 194.68C217.742 194.26 217.1 193.923 216.42 193.68C215.739 193.42 215.025 193.255 214.3 193.19C214.886 193.618 215.533 193.955 216.22 194.19C216.897 194.447 217.607 194.605 218.33 194.66V194.68ZM244.77 199C244.182 198.58 243.54 198.243 242.86 198C242.18 197.738 241.466 197.576 240.74 197.52C241.33 197.94 241.976 198.277 242.66 198.52C243.336 198.781 244.047 198.942 244.77 199Z" fill="white"/>
<path d="M243.77 182.07C242.67 179.77 238.33 170.52 237.43 168.14C237.43 168.14 237.43 168.07 237.5 168.14C238.8 170.24 243.35 179.24 244.5 181.55C246.824 186.1 248.897 190.773 250.71 195.55C250.71 195.63 250.62 195.72 250.56 195.63C248 191.24 245.94 186.62 243.77 182.07Z" fill="#263238"/>
<path d="M184.55 174.23C192.06 184.42 209.03 198.98 219.55 204.56L187.38 163.68C181.55 163.2 180.23 168.37 184.55 174.23Z" fill="#263238"/>
<path d="M152.69 246.35C152.86 246.51 217.77 242.06 218.31 241.35C219.07 240.35 198.53 174.35 193.38 164.69C191.19 160.56 180.69 159.97 176.54 163.87C166.15 173.64 158.92 205.23 157.4 214.7C154.88 230.32 152.11 245.78 152.69 246.35Z" fill="#455A64"/>
<path d="M184.8 184.57C185.112 185.229 185.327 185.93 185.44 186.65C184.967 186.098 184.579 185.477 184.29 184.81C183.98 184.154 183.764 183.457 183.65 182.74C184.114 183.295 184.501 183.911 184.8 184.57ZM191.08 209.57C191.327 211.007 191.944 212.354 192.87 213.48C192.623 212.043 192.006 210.696 191.08 209.57ZM198.44 238.77C198.556 239.488 198.775 240.185 199.09 240.84C199.379 241.507 199.767 242.128 200.24 242.68C199.995 241.241 199.374 239.892 198.44 238.77ZM168.44 203.16C168.554 203.877 168.77 204.574 169.08 205.23C169.373 205.895 169.76 206.515 170.23 207.07C169.988 205.632 169.371 204.283 168.44 203.16ZM159 222.21C159.118 222.927 159.336 223.624 159.65 224.28C159.942 224.943 160.329 225.56 160.8 226.11C160.557 224.673 159.936 223.327 159 222.21ZM184.57 232.8C184.681 233.517 184.897 234.215 185.21 234.87C185.506 235.536 185.897 236.156 186.37 236.71C186.252 235.993 186.034 235.296 185.72 234.64C185.418 233.973 185.021 233.353 184.54 232.8H184.57ZM203.82 198.24C204.065 199.674 204.682 201.019 205.61 202.14C205.365 200.706 204.748 199.361 203.82 198.24ZM175.92 194.81C176.637 194.696 177.334 194.48 177.99 194.17C178.644 193.865 179.253 193.471 179.8 193C179.079 193.108 178.377 193.324 177.72 193.64C177.058 193.941 176.442 194.335 175.89 194.81H175.92ZM170 218.54C170.72 218.427 171.421 218.212 172.08 217.9C172.739 217.601 173.355 217.214 173.91 216.75C173.192 216.86 172.494 217.075 171.84 217.39C171.176 217.685 170.556 218.072 170 218.54ZM173.12 245L174.27 244.93L174.71 244.74C175.371 244.44 175.99 244.053 176.55 243.59C175.832 243.698 175.134 243.914 174.48 244.23C174.004 244.443 173.548 244.701 173.12 245ZM197.39 222.62C198.107 222.502 198.804 222.284 199.46 221.97C200.126 221.679 200.746 221.291 201.3 220.82C200.58 220.933 199.879 221.148 199.22 221.46C198.557 221.768 197.941 222.169 197.39 222.65V222.62ZM175.89 174.27C176.607 174.156 177.304 173.94 177.96 173.63C178.626 173.337 179.245 172.95 179.8 172.48C179.083 172.591 178.385 172.807 177.73 173.12C177.063 173.422 176.443 173.819 175.89 174.3V174.27ZM170.07 177.72C169.65 178.311 169.313 178.957 169.07 179.64C168.807 180.316 168.645 181.027 168.59 181.75C169.012 181.16 169.349 180.514 169.59 179.83C169.85 179.164 170.012 178.463 170.07 177.75V177.72ZM161.37 208.03C160.948 208.62 160.611 209.266 160.37 209.95C160.105 210.629 159.94 211.343 159.88 212.07C160.304 211.482 160.641 210.835 160.88 210.15C161.138 209.479 161.303 208.776 161.37 208.06V208.03ZM162.11 235.33C161.691 235.922 161.355 236.568 161.11 237.25C160.848 237.93 160.686 238.644 160.63 239.37C161.05 238.779 161.387 238.133 161.63 237.45C161.889 236.78 162.051 236.076 162.11 235.36V235.33ZM193 195.25C192.576 195.838 192.239 196.485 192 197.17C191.734 197.845 191.569 198.556 191.51 199.28C191.936 198.693 192.273 198.046 192.51 197.36C192.771 196.683 192.936 195.973 193 195.25ZM183.53 219.77C183.11 220.361 182.773 221.007 182.53 221.69C182.268 222.37 182.106 223.084 182.05 223.81C182.47 223.219 182.807 222.573 183.05 221.89C183.312 221.21 183.474 220.496 183.53 219.77ZM209.23 229.77C208.81 230.361 208.473 231.007 208.23 231.69C207.968 232.37 207.806 233.084 207.75 233.81C208.17 233.219 208.507 232.573 208.75 231.89C209.012 231.21 209.174 230.496 209.23 229.77ZM191.8 174.27C191.376 174.858 191.039 175.505 190.8 176.19C190.539 176.867 190.374 177.577 190.31 178.3C190.736 177.713 191.073 177.066 191.31 176.38C191.571 175.703 191.736 174.993 191.8 174.27ZM200.34 188.52C199.752 188.096 199.105 187.759 198.42 187.52C197.739 187.26 197.026 187.095 196.3 187.03C196.888 187.454 197.535 187.791 198.22 188.03C198.901 188.29 199.614 188.455 200.34 188.52ZM174.16 231.27C173.569 230.85 172.923 230.513 172.24 230.27C171.563 230.009 170.853 229.844 170.13 229.78C170.715 230.21 171.362 230.547 172.05 230.78C172.725 231.046 173.436 231.211 174.16 231.27ZM208.63 212.94C207.447 212.106 206.07 211.59 204.63 211.44C205.216 211.868 205.863 212.205 206.55 212.44C207.216 212.705 207.916 212.873 208.63 212.94ZM163.19 190.84C163.7 191.164 164.243 191.432 164.81 191.64C165.486 191.903 166.197 192.065 166.92 192.12C166.33 191.698 165.684 191.361 165 191.12C164.434 190.911 163.847 190.764 163.25 190.68C163.226 190.732 163.206 190.785 163.19 190.84ZM194.32 231.27C193.729 230.85 193.083 230.513 192.4 230.27C191.723 230.009 191.013 229.844 190.29 229.78C190.875 230.21 191.522 230.547 192.21 230.78C192.885 231.046 193.596 231.211 194.32 231.27ZM184.54 204.65C183.95 204.228 183.304 203.891 182.62 203.65C181.944 203.387 181.233 203.225 180.51 203.17C181.101 203.59 181.747 203.927 182.43 204.17C183.106 204.433 183.817 204.595 184.54 204.65Z" fill="white"/>
<path d="M193.78 165.76H193.73C194.11 168.69 194.81 175.5 190.16 175.4C188.279 175.2 186.495 174.465 185.02 173.28C183.495 172.195 182.091 170.952 180.83 169.57C179.367 168.065 178.029 166.443 176.83 164.72C176.78 164.65 176.67 164.72 176.72 164.81C177.94 166.53 178.98 168.34 180.37 169.95C181.687 171.518 183.211 172.901 184.9 174.06C186.471 175.278 188.375 175.993 190.36 176.11C191.221 176.091 192.048 175.775 192.703 175.216C193.357 174.656 193.798 173.887 193.95 173.04C194.437 170.631 194.379 168.144 193.78 165.76Z" fill="#263238"/>
<path d="M201.58 238.69L235.21 246.58L252.73 200.47L219.1 192.58L201.58 238.69Z" fill="#A6A6A6"/>
<path d="M203.23 239.08L236.86 246.97L254.39 200.86L220.75 192.97L203.23 239.08Z" fill="#C7C7C7"/>
<path d="M233.72 218.92C233.421 219.785 232.815 220.511 232.018 220.96C231.22 221.41 230.285 221.552 229.39 221.36C228.963 221.275 228.56 221.098 228.209 220.841C227.857 220.584 227.566 220.254 227.354 219.874C227.143 219.493 227.017 219.071 226.986 218.637C226.954 218.203 227.017 217.767 227.17 217.36C227.485 216.51 228.097 215.802 228.893 215.368C229.689 214.934 230.615 214.803 231.5 215C231.918 215.087 232.311 215.262 232.656 215.514C233 215.765 233.287 216.087 233.497 216.458C233.707 216.829 233.835 217.24 233.874 217.665C233.912 218.089 233.86 218.517 233.72 218.92Z" fill="white"/>
<path d="M170.26 170.39C160.53 183.93 139.61 214.86 145.79 222C155.93 233.75 180.71 244 188.47 246.36C191.82 247.36 203.81 223.02 200.65 221.02C196.86 218.62 172.59 209.08 172.47 207.91C172.35 206.74 176.89 189.96 178.38 176.82C180.23 160.51 174.32 164.74 170.26 170.39Z" fill="#F7A9A0"/>
<path d="M188.45 219.31C188.45 219.31 198.66 216.31 205.45 214.68C209.22 213.76 215.84 212.77 218.92 213.36C223.53 214.25 242.24 220.92 240.72 225.49C239.35 229.63 224 221.86 224 221.86C224 221.86 240.18 228.33 237.61 233.01C235.04 237.69 218.86 226.6 218.86 226.6C218.86 226.6 235.34 233.6 231.92 238.03C229.34 241.36 214.13 232.14 214.13 232.14C214.13 232.14 228.25 238.28 225.74 241.81C222.97 245.72 208.39 238.1 208.39 238.1C200.51 246.02 193.67 247.1 188.49 246.36C187.27 246.19 188.45 219.31 188.45 219.31Z" fill="#F7A9A0"/>
<path d="M219.28 219.59C231.56 223.45 236.4 229.1 236.28 228.98C232.52 226.05 225.91 222.86 224.05 221.98C222.19 221.1 221.13 220.5 219.28 219.64C219.2 219.64 219.23 219.58 219.28 219.59Z" fill="#263238"/>
<path d="M215.3 225.92C220.32 227.261 225.061 229.485 229.3 232.49C229.46 232.61 229.37 232.65 229.19 232.56C226.85 231.4 217.6 227.02 215.19 225.98C215.23 226 215.26 225.91 215.3 225.92Z" fill="#263238"/>
<path d="M211.5 231.14C215.381 232.257 219.02 234.088 222.23 236.54C222.39 236.66 222.23 236.71 222.07 236.62C218.54 234.75 215.78 233.27 211.45 231.27C211.38 231.24 211.42 231.11 211.5 231.14Z" fill="#263238"/>
<path d="M193.191 217.25L179.521 246.39C179.521 246.39 146.951 228.84 144.521 220.59C142.091 212.34 164.211 176.06 170.941 168.66C177.671 161.26 179.851 164.29 179.661 172.74C179.471 181.19 172.811 207.5 173.001 208C173.191 208.5 193.191 217.25 193.191 217.25Z" fill="#455A64"/>
<path d="M169.58 205C169.892 205.659 170.107 206.36 170.22 207.08C169.75 206.525 169.363 205.905 169.07 205.24C168.76 204.584 168.544 203.887 168.43 203.17C168.898 203.723 169.285 204.339 169.58 205ZM154.19 198.25C154.435 199.684 155.052 201.029 155.98 202.15C155.866 201.433 155.65 200.736 155.34 200.08C155.042 199.417 154.655 198.798 154.19 198.24V198.25ZM158.97 222.25C159.088 222.967 159.306 223.664 159.62 224.32C159.912 224.983 160.299 225.6 160.77 226.15C160.527 224.713 159.906 223.367 158.97 222.25ZM184.54 232.84C184.639 233.456 184.813 234.057 185.06 234.63L185.35 234.01C185.127 233.577 184.855 233.171 184.54 232.8V232.84ZM170 218.54C170.72 218.427 171.421 218.212 172.08 217.9C172.739 217.601 173.355 217.214 173.91 216.75C173.192 216.86 172.494 217.075 171.84 217.39C171.176 217.685 170.556 218.072 170 218.54ZM175.2 243.97C175.37 244.07 175.53 244.17 175.69 244.25C175.999 244.064 176.29 243.849 176.56 243.61C176.089 243.685 175.63 243.816 175.19 244L175.2 243.97ZM175.9 174.3C176.617 174.186 177.314 173.97 177.97 173.66C178.636 173.367 179.255 172.98 179.81 172.51C179.092 172.621 178.395 172.837 177.74 173.15C177.071 173.442 176.448 173.829 175.89 174.3H175.9ZM170.08 177.75C169.66 178.341 169.323 178.987 169.08 179.67C168.817 180.346 168.655 181.057 168.6 181.78C169.022 181.19 169.359 180.544 169.6 179.86C169.86 179.183 170.018 178.473 170.07 177.75H170.08ZM161.38 208.06C160.958 208.65 160.621 209.296 160.38 209.98C160.115 210.659 159.95 211.373 159.89 212.1C160.314 211.511 160.651 210.865 160.89 210.18C161.147 209.499 161.309 208.785 161.37 208.06H161.38ZM150.38 218.84C149.96 219.427 149.623 220.07 149.38 220.75C149.118 221.43 148.956 222.144 148.9 222.87C149.32 222.279 149.657 221.633 149.9 220.95C150.15 220.272 150.302 219.561 150.35 218.84H150.38ZM161.82 235.84C161.9 235.9 161.99 235.95 162.06 236.01C162.101 235.799 162.128 235.585 162.14 235.37C162.014 235.519 161.897 235.676 161.79 235.84H161.82ZM183.56 219.77C183.14 220.361 182.803 221.007 182.56 221.69C182.298 222.37 182.136 223.084 182.08 223.81C182.5 223.219 182.837 222.573 183.08 221.89C183.332 221.209 183.483 220.495 183.53 219.77H183.56ZM174.19 231.27C173.599 230.849 172.953 230.513 172.27 230.27C171.593 230.008 170.883 229.844 170.16 229.78C170.745 230.21 171.392 230.547 172.08 230.78C172.746 231.043 173.447 231.208 174.16 231.27H174.19ZM163.19 190.84C163.7 191.164 164.243 191.432 164.81 191.64C165.486 191.903 166.197 192.065 166.92 192.12C166.33 191.698 165.684 191.361 165 191.12C164.434 190.911 163.847 190.764 163.25 190.68C163.226 190.732 163.206 190.785 163.19 190.84ZM147 211.54C147.51 211.864 148.053 212.132 148.62 212.34C149.297 212.598 150.008 212.76 150.73 212.82C150.14 212.398 149.494 212.061 148.81 211.82C148.244 211.611 147.657 211.464 147.06 211.38L147 211.54Z" fill="white"/>
<path d="M175.39 195.56C175.83 193.56 176.27 191.61 176.68 189.63C176.9 188.63 177.11 187.57 177.34 186.55C177.45 186.08 177.55 185.55 177.66 185.13C177.71 184.9 177.79 184.66 177.83 184.43C177.97 183.56 177.83 184.33 178.07 183.49C178.07 183.43 178.17 183.49 178.16 183.49C178.16 184.04 178.22 183.82 178.16 184.23C178.1 184.64 178.05 184.85 178 185.17C177.93 185.65 177.85 186.12 177.78 186.6C177.62 187.6 177.45 188.55 177.26 189.53C177.26 189.66 177.21 189.78 177.18 189.91C177.184 189.877 177.184 189.843 177.18 189.81C177.54 188.75 177.91 187.7 178.29 186.65C178.29 186.65 178.37 186.65 178.36 186.65C178.11 187.74 177.82 188.81 177.47 189.87C177.27 190.49 177.03 191.09 176.78 191.69C176.53 192.99 176.28 194.29 176 195.58C175.16 199.58 174.28 203.64 173.12 207.58C174.82 208.36 176.56 209.06 178.26 209.85C179.96 210.64 181.67 211.44 183.37 212.25C185.07 213.06 186.77 213.86 188.45 214.69C189.26 215.09 190.05 215.51 190.85 215.92C191.65 216.33 192.54 216.92 193.42 217.32C193.51 217.32 193.42 217.49 193.34 217.45C192.43 217.03 191.46 216.73 190.53 216.33C189.6 215.93 188.9 215.63 188.1 215.27C186.38 214.5 184.67 213.7 182.97 212.9C181.27 212.1 179.56 211.31 177.86 210.5C176.16 209.69 174.52 208.78 172.86 207.97C172.835 207.958 172.812 207.94 172.795 207.917C172.777 207.894 172.766 207.868 172.76 207.84C172.722 207.816 172.692 207.782 172.674 207.741C172.657 207.699 172.652 207.654 172.66 207.61C173.47 203.59 174.49 199.59 175.39 195.56Z" fill="#263238"/>
<path d="M179.6 228.75C180.6 226.64 184.75 218.22 185.93 216.21C185.93 216.21 186.01 216.21 186 216.21C185.24 218.35 181.41 226.77 180.4 228.89C178.496 233.173 176.359 237.349 174 241.4C174 241.47 173.82 241.4 173.86 241.35C175.45 237 177.6 232.91 179.6 228.75Z" fill="#263238"/>
<path d="M156.08 232C156.83 232.43 157.53 233 158.24 233.45L160.45 234.97C161.89 235.97 163.34 237.02 164.87 237.88C164.96 237.88 164.87 238.06 164.79 238.01C163.24 237.11 161.65 236.29 160.14 235.31C158.642 234.401 157.253 233.324 156 232.1C156 232 156 231.94 156.08 232Z" fill="#263238"/>
<path d="M190.2 172.26C186.89 172.82 180.95 167.02 179.01 162.85C178.88 162.56 179.5 159.68 180.08 156.15C180.42 154 180.76 151.6 180.9 149.39L194.55 153.67C193.576 156.382 192.938 159.203 192.65 162.07C192.624 162.376 192.624 162.684 192.65 162.99C192.65 162.99 192.65 163.08 192.65 163.14C192.86 164.88 193.39 171.72 190.2 172.26Z" fill="#F7A9A0"/>
<path d="M192.68 163C192.68 163 192.68 163.09 192.68 163.14C192.207 163.18 191.732 163.18 191.26 163.14C183.26 162.43 182 152.49 181.81 149.7L185.22 150.77L194.54 153.69C193.566 156.402 192.931 159.223 192.65 162.09C192.635 162.394 192.645 162.698 192.68 163Z" fill="#263238"/>
<path d="M195.18 126.93C195.18 126.93 200.12 128.17 201.68 132.77C203.24 137.37 202.9 142.49 202.53 142.77C202.16 143.05 195.18 126.93 195.18 126.93Z" fill="#263238"/>
<path d="M178.38 136C177.51 141.08 181.87 154.88 185.75 157.59C191.37 161.52 199.68 160.92 202.75 154.37C205.75 148.02 199.75 130.13 195.52 127.76C189.3 124.25 179.68 128.48 178.38 136Z" fill="#F7A9A0"/>
<path d="M193.45 143.4C193.45 143.4 193.39 143.46 193.45 143.5C193.77 144.42 193.98 145.5 193.24 146.1C193.24 146.1 193.24 146.17 193.24 146.15C194.19 145.69 193.9 144.22 193.45 143.4Z" fill="#263238"/>
<path d="M192.32 142.68C190.78 143.04 191.6 146.07 193.02 145.75C194.44 145.43 193.6 142.39 192.32 142.68Z" fill="#263238"/>
<path d="M198.74 141.79C198.74 141.79 198.83 141.79 198.84 141.85C199.06 142.85 199.48 143.85 200.41 143.93C200.41 143.93 200.41 143.93 200.41 143.99C199.34 144.12 198.8 142.72 198.74 141.79Z" fill="#263238"/>
<path d="M199.32 140.58C200.8 140.06 201.74 143.06 200.32 143.58C198.9 144.1 198.08 141 199.32 140.58Z" fill="#263238"/>
<path d="M190.74 141.62C191.13 141.4 191.45 141.14 191.81 140.89C192.17 140.64 192.57 140.42 192.75 139.89C192.787 139.748 192.777 139.598 192.721 139.463C192.665 139.327 192.566 139.214 192.44 139.14C192.165 139.035 191.868 139.005 191.578 139.052C191.288 139.099 191.016 139.223 190.79 139.41C190.274 139.719 189.889 140.206 189.71 140.78C189.669 140.916 189.67 141.061 189.712 141.197C189.753 141.333 189.834 141.453 189.945 141.543C190.055 141.633 190.189 141.688 190.33 141.702C190.472 141.716 190.614 141.687 190.74 141.62Z" fill="#263238"/>
<path d="M200.09 138.73C199.657 138.755 199.223 138.755 198.79 138.73C198.336 138.798 197.872 138.714 197.47 138.49C197.358 138.396 197.281 138.267 197.25 138.124C197.219 137.981 197.237 137.832 197.3 137.7C197.464 137.455 197.691 137.258 197.956 137.13C198.222 137.002 198.516 136.947 198.81 136.97C199.41 136.93 200.005 137.111 200.48 137.48C200.587 137.57 200.665 137.69 200.704 137.824C200.744 137.958 200.742 138.101 200.701 138.235C200.659 138.368 200.579 138.486 200.47 138.574C200.362 138.663 200.229 138.717 200.09 138.73Z" fill="#263238"/>
<path d="M194.47 152.11C194.734 152.328 195.066 152.448 195.41 152.45C195.776 152.355 196.118 152.181 196.41 151.94C196.41 151.94 196.47 151.94 196.41 151.94C196.324 152.161 196.18 152.354 195.993 152.5C195.807 152.646 195.585 152.739 195.35 152.77C195.138 152.785 194.926 152.732 194.747 152.618C194.567 152.505 194.428 152.338 194.35 152.14C194.36 152.13 194.43 152.09 194.47 152.11Z" fill="#263238"/>
<path d="M194.7 149C195.038 149.309 195.436 149.546 195.87 149.694C196.303 149.842 196.763 149.898 197.22 149.86C197.62 149.829 198.014 149.742 198.39 149.6C198.464 149.582 198.535 149.552 198.6 149.51L198.8 149.43C198.847 149.407 198.885 149.369 198.908 149.322C198.932 149.275 198.939 149.222 198.93 149.17V149.07V148.99C198.76 148.26 198.39 147.17 198.39 147.17C198.69 147.23 200.2 147.48 200.08 147.11C199.12 143.863 197.83 140.724 196.23 137.74C196.217 137.724 196.2 137.713 196.181 137.708C196.161 137.703 196.141 137.704 196.122 137.713C196.104 137.721 196.089 137.735 196.079 137.752C196.07 137.77 196.066 137.79 196.07 137.81C196.94 140.81 198.33 143.64 199.26 146.65C198.719 146.552 198.166 146.532 197.62 146.59C197.53 146.65 198.37 148.67 198.42 149.01C197.844 149.233 197.228 149.336 196.611 149.313C195.994 149.291 195.388 149.144 194.83 148.88C194.68 148.88 194.62 149 194.7 149Z" fill="#263238"/>
<path d="M197.86 149.37C197.606 149.996 197.192 150.544 196.66 150.96C196.369 151.172 196.02 151.29 195.66 151.3C194.85 151.3 194.66 150.62 194.66 149.99C194.65 149.654 194.681 149.319 194.75 148.99C195.722 149.438 196.809 149.571 197.86 149.37Z" fill="#263238"/>
<path d="M196.66 151C196.369 151.212 196.02 151.33 195.66 151.34C194.85 151.34 194.66 150.66 194.66 150.03C195.054 149.95 195.463 150.001 195.824 150.176C196.186 150.352 196.479 150.641 196.66 151Z" fill="#FF98B9"/>
<path d="M181.66 149C183.33 148.95 183.53 143.83 183.43 141.92C183.34 140.24 182.2 135.19 182.16 134.84C182.12 134.49 190.16 136.93 193.62 134.53C197.08 132.13 198.43 127.86 197.94 126.25C197.45 124.64 191.37 122.25 187.22 123.37C183.07 124.49 179.29 131.61 179.29 131.61C179.703 130.638 180.037 129.635 180.29 128.61C179.628 129.012 179.076 129.571 178.681 130.237C178.287 130.903 178.063 131.657 178.03 132.43C178.03 132.43 177.76 129.9 177.54 129.92C177.32 129.94 175.96 132.66 176.94 134.03C176.94 134.03 175.27 136.89 175.81 139.22C176.35 141.55 179.71 149.05 181.66 149Z" fill="#263238"/>
<path d="M196.05 132.82C195.126 133.805 194.061 134.648 192.89 135.32C191.532 135.915 190.048 136.166 188.57 136.05C187.094 135.978 185.639 135.671 184.26 135.14C183.04 134.68 181.88 134.02 180.63 133.66C180.32 133.57 180.15 134.04 180.38 134.22C182.881 136.046 185.903 137.02 189 137C190.436 136.986 191.844 136.599 193.085 135.877C194.326 135.154 195.358 134.122 196.08 132.88C196.08 132.88 196.06 132.81 196.05 132.82Z" fill="#263238"/>
<path d="M182.86 147.11C182.86 147.11 179 143 177.1 144.47C175.2 145.94 178.57 152.16 181.1 152.7C181.423 152.793 181.763 152.82 182.097 152.779C182.431 152.737 182.754 152.629 183.045 152.46C183.337 152.291 183.591 152.065 183.793 151.795C183.995 151.525 184.14 151.217 184.22 150.89L182.86 147.11Z" fill="#F7A9A0"/>
<path d="M192.75 162.9L189.37 171.06L179.3 160.57L176.38 163.86C176.38 163.86 186.15 180.45 186.22 179.71L189.68 172.71L194.5 177.71L194.24 165.37L192.75 162.9Z" fill="white"/>
<path d="M194.72 171.55C194.61 169.55 194.55 167.46 194.35 165.43C194.35 165.35 194.23 165.32 194.21 165.43C193.78 167.43 194.21 175.17 194.21 177.04C194.01 176.83 189.74 172.67 189.7 172.73C188.95 173.85 186.42 178.96 186.24 179.43C184.7 176.79 178.77 167.21 176.93 164.72C176.926 164.711 176.921 164.703 176.913 164.696C176.906 164.689 176.897 164.684 176.888 164.681C176.878 164.678 176.868 164.677 176.859 164.678C176.849 164.679 176.839 164.682 176.831 164.687C176.822 164.692 176.815 164.699 176.809 164.707C176.803 164.715 176.799 164.724 176.797 164.734C176.795 164.744 176.795 164.754 176.798 164.763C176.8 164.773 176.804 164.782 176.81 164.79C178.17 167.56 186.01 180.46 186.14 180.43C187.473 178.018 188.678 175.538 189.75 173C190.47 173.91 194.75 178.6 194.75 178.29C194.862 176.044 194.852 173.794 194.72 171.55Z" fill="#263238"/>
<path opacity="0.5" d="M401.892 137.68C402.799 131.393 398.438 125.562 392.152 124.655C385.866 123.748 380.035 128.109 379.128 134.395C378.221 140.681 382.581 146.513 388.867 147.42C395.154 148.327 400.985 143.966 401.892 137.68Z" fill="#8661C1"/>
<path d="M395.891 141.421C398.867 138.445 398.867 133.62 395.891 130.644C392.915 127.669 388.091 127.669 385.115 130.644C382.139 133.62 382.139 138.445 385.115 141.421C388.091 144.397 392.915 144.397 395.891 141.421Z" fill="#8661C1"/>
<path opacity="0.5" d="M285.612 312.373C286.626 306.103 282.364 300.199 276.094 299.186C269.824 298.173 263.92 302.434 262.907 308.704C261.894 314.974 266.155 320.878 272.425 321.891C278.695 322.905 284.599 318.643 285.612 312.373Z" fill="#8661C1"/>
<path d="M281.701 312.313C282.665 308.217 280.126 304.115 276.029 303.151C271.932 302.187 267.83 304.726 266.866 308.823C265.902 312.92 268.442 317.022 272.539 317.986C276.635 318.95 280.737 316.41 281.701 312.313Z" fill="#8661C1"/>
<path opacity="0.5" d="M301.295 128.222C302.715 119.427 296.736 111.147 287.942 109.727C279.147 108.308 270.867 114.286 269.448 123.081C268.028 131.875 274.006 140.155 282.801 141.575C291.595 142.995 299.876 137.016 301.295 128.222Z" fill="#8661C1"/>
<path d="M295.91 127.415C296.883 121.597 292.957 116.092 287.139 115.118C281.322 114.145 275.816 118.072 274.843 123.889C273.869 129.707 277.796 135.212 283.614 136.185C289.431 137.159 294.936 133.232 295.91 127.415Z" fill="#8661C1"/>
<path opacity="0.5" d="M195.64 376.22C204.548 376.22 211.77 368.998 211.77 360.09C211.77 351.182 204.548 343.96 195.64 343.96C186.731 343.96 179.51 351.182 179.51 360.09C179.51 368.998 186.731 376.22 195.64 376.22Z" fill="#8661C1"/>
<path d="M195.64 370.77C201.538 370.77 206.32 365.988 206.32 360.09C206.32 354.192 201.538 349.41 195.64 349.41C189.742 349.41 184.96 354.192 184.96 360.09C184.96 365.988 189.742 370.77 195.64 370.77Z" fill="#8661C1"/>
<path opacity="0.5" d="M128.71 270.49C135.061 270.49 140.21 265.341 140.21 258.99C140.21 252.639 135.061 247.49 128.71 247.49C122.359 247.49 117.21 252.639 117.21 258.99C117.21 265.341 122.359 270.49 128.71 270.49Z" fill="#8661C1"/>
<path d="M128.71 266.61C132.918 266.61 136.33 263.198 136.33 258.99C136.33 254.782 132.918 251.37 128.71 251.37C124.501 251.37 121.09 254.782 121.09 258.99C121.09 263.198 124.501 266.61 128.71 266.61Z" fill="#8661C1"/>
<path opacity="0.5" d="M126.359 118.5C132.711 118.5 137.859 113.351 137.859 107C137.859 100.649 132.711 95.5 126.359 95.5C120.008 95.5 114.859 100.649 114.859 107C114.859 113.351 120.008 118.5 126.359 118.5Z" fill="#8661C1"/>
<path d="M126.36 114.62C130.569 114.62 133.98 111.208 133.98 107C133.98 102.792 130.569 99.38 126.36 99.38C122.152 99.38 118.74 102.792 118.74 107C118.74 111.208 122.152 114.62 126.36 114.62Z" fill="#8661C1"/>
<path opacity="0.5" d="M382.87 300.54C387.923 300.54 392.02 296.443 392.02 291.39C392.02 286.337 387.923 282.24 382.87 282.24C377.816 282.24 373.72 286.337 373.72 291.39C373.72 296.443 377.816 300.54 382.87 300.54Z" fill="#8661C1"/>
<path d="M388.93 291.39C388.93 292.589 388.574 293.76 387.908 294.757C387.242 295.753 386.296 296.53 385.189 296.989C384.081 297.447 382.863 297.567 381.687 297.334C380.512 297.1 379.432 296.523 378.584 295.675C377.737 294.828 377.16 293.748 376.926 292.572C376.692 291.397 376.812 290.178 377.271 289.071C377.73 287.964 378.506 287.017 379.503 286.351C380.499 285.685 381.671 285.33 382.87 285.33C384.477 285.33 386.018 285.969 387.155 287.105C388.291 288.241 388.93 289.783 388.93 291.39Z" fill="#8661C1"/>
<path opacity="0.5" d="M101.33 146.4C101.33 147.599 100.975 148.77 100.309 149.767C99.6428 150.763 98.6963 151.54 97.589 151.999C96.4817 152.457 95.2632 152.577 94.0877 152.344C92.9122 152.11 91.8324 151.533 90.9849 150.685C90.1374 149.838 89.5602 148.758 89.3264 147.582C89.0926 146.407 89.2126 145.188 89.6713 144.081C90.1299 142.974 90.9066 142.027 91.9032 141.361C92.8998 140.696 94.0714 140.34 95.27 140.34C96.8772 140.34 98.4186 140.979 99.555 142.115C100.692 143.251 101.33 144.793 101.33 146.4Z" fill="#8661C1"/>
<path d="M95.2698 150.41C97.4844 150.41 99.2798 148.615 99.2798 146.4C99.2798 144.185 97.4844 142.39 95.2698 142.39C93.0551 142.39 91.2598 144.185 91.2598 146.4C91.2598 148.615 93.0551 150.41 95.2698 150.41Z" fill="#8661C1"/>
<path opacity="0.5" d="M381.49 235.84C381.492 237.041 381.137 238.216 380.471 239.215C379.806 240.215 378.858 240.994 377.749 241.455C376.64 241.916 375.42 242.038 374.242 241.805C373.063 241.572 371.981 240.994 371.131 240.146C370.281 239.297 369.702 238.216 369.467 237.038C369.232 235.86 369.352 234.639 369.811 233.529C370.27 232.42 371.048 231.471 372.046 230.804C373.045 230.136 374.219 229.78 375.42 229.78C376.216 229.779 377.005 229.935 377.742 230.238C378.478 230.542 379.147 230.989 379.711 231.551C380.275 232.114 380.722 232.783 381.027 233.519C381.333 234.255 381.49 235.043 381.49 235.84Z" fill="#8661C1"/>
<path d="M379.439 235.84C379.439 236.631 379.205 237.405 378.765 238.062C378.326 238.72 377.701 239.233 376.97 239.536C376.239 239.838 375.435 239.918 374.659 239.763C373.883 239.609 373.17 239.228 372.611 238.669C372.052 238.109 371.671 237.396 371.516 236.62C371.362 235.845 371.441 235.04 371.744 234.309C372.047 233.578 372.559 232.954 373.217 232.514C373.875 232.075 374.648 231.84 375.439 231.84C376.5 231.84 377.518 232.262 378.268 233.012C379.018 233.762 379.439 234.779 379.439 235.84Z" fill="#8661C1"/>
<path opacity="0.5" d="M301.499 249.98C304.846 249.98 307.559 247.267 307.559 243.92C307.559 240.573 304.846 237.86 301.499 237.86C298.153 237.86 295.439 240.573 295.439 243.92C295.439 247.267 298.153 249.98 301.499 249.98Z" fill="#8661C1"/>
<path d="M301.5 247.93C303.715 247.93 305.51 246.135 305.51 243.92C305.51 241.705 303.715 239.91 301.5 239.91C299.286 239.91 297.49 241.705 297.49 243.92C297.49 246.135 299.286 247.93 301.5 247.93Z" fill="#8661C1"/>
<path opacity="0.5" d="M125.19 318.82C125.19 320.019 124.835 321.19 124.169 322.187C123.503 323.183 122.557 323.96 121.449 324.419C120.342 324.877 119.124 324.997 117.948 324.764C116.773 324.53 115.693 323.953 114.845 323.105C113.998 322.258 113.421 321.178 113.187 320.002C112.953 318.827 113.073 317.608 113.532 316.501C113.99 315.394 114.767 314.447 115.764 313.781C116.76 313.115 117.932 312.76 119.13 312.76C120.738 312.76 122.279 313.398 123.415 314.535C124.552 315.671 125.19 317.213 125.19 318.82Z" fill="#8661C1"/>
<path d="M123.14 318.82C123.14 319.611 122.905 320.385 122.466 321.042C122.026 321.7 121.401 322.213 120.67 322.516C119.939 322.818 119.135 322.898 118.359 322.743C117.583 322.589 116.871 322.208 116.311 321.648C115.752 321.089 115.371 320.376 115.217 319.6C115.062 318.825 115.141 318.02 115.444 317.289C115.747 316.558 116.26 315.934 116.917 315.494C117.575 315.055 118.349 314.82 119.14 314.82C120.201 314.82 121.218 315.241 121.968 315.992C122.718 316.742 123.14 317.759 123.14 318.82Z" fill="#8661C1"/>
<path opacity="0.5" d="M248.94 81.8901C248.938 83.0882 248.581 84.2589 247.914 85.2541C247.247 86.2493 246.3 87.0245 245.192 87.4816C244.085 87.9388 242.867 88.0574 241.692 87.8224C240.517 87.5874 239.438 87.0095 238.592 86.1616C237.745 85.3137 237.169 84.2339 236.936 83.0586C236.703 81.8834 236.824 80.6654 237.283 79.5587C237.742 78.452 238.518 77.5061 239.515 76.8407C240.511 76.1752 241.682 75.8201 242.88 75.8201C243.677 75.8201 244.466 75.9771 245.202 76.2823C245.938 76.5875 246.606 77.0348 247.169 77.5985C247.732 78.1623 248.178 78.8316 248.482 79.5679C248.786 80.3043 248.942 81.0934 248.94 81.8901Z" fill="#8661C1"/>
<path d="M246.899 81.89C246.899 82.6811 246.665 83.4545 246.225 84.1123C245.786 84.7701 245.161 85.2828 244.43 85.5855C243.699 85.8883 242.895 85.9675 242.119 85.8132C241.343 85.6588 240.63 85.2779 240.071 84.7184C239.512 84.159 239.131 83.4463 238.976 82.6704C238.822 81.8945 238.901 81.0902 239.204 80.3593C239.507 79.6284 240.019 79.0037 240.677 78.5641C241.335 78.1246 242.108 77.89 242.899 77.89C243.96 77.89 244.978 78.3114 245.728 79.0616C246.478 79.8117 246.899 80.8291 246.899 81.89Z" fill="#8661C1"/>
<path opacity="0.5" d="M303.55 53.7401C303.55 54.9386 303.194 56.1102 302.528 57.1068C301.863 58.1034 300.916 58.8801 299.809 59.3388C298.701 59.7974 297.483 59.9174 296.307 59.6836C295.132 59.4498 294.052 58.8726 293.205 58.0251C292.357 57.1776 291.78 56.0978 291.546 54.9223C291.312 53.7468 291.432 52.5283 291.891 51.421C292.35 50.3137 293.126 49.3672 294.123 48.7013C295.119 48.0355 296.291 47.6801 297.49 47.6801C299.097 47.6801 300.638 48.3185 301.775 49.455C302.911 50.5915 303.55 52.1328 303.55 53.7401Z" fill="#8661C1"/>
<path d="M301.5 53.74C301.5 54.5311 301.265 55.3045 300.826 55.9623C300.386 56.6201 299.762 57.1328 299.031 57.4355C298.3 57.7383 297.496 57.8175 296.72 57.6631C295.944 57.5088 295.231 57.1278 294.672 56.5684C294.112 56.009 293.731 55.2963 293.577 54.5204C293.423 53.7444 293.502 52.9402 293.804 52.2093C294.107 51.4784 294.62 50.8536 295.278 50.4141C295.935 49.9746 296.709 49.74 297.5 49.74C298.561 49.74 299.578 50.1614 300.328 50.9116C301.079 51.6617 301.5 52.6791 301.5 53.74Z" fill="#8661C1"/>
<path d="M352.6 157.4C352.602 157.962 352.437 158.512 352.126 158.981C351.815 159.449 351.372 159.815 350.854 160.031C350.335 160.247 349.764 160.305 349.212 160.197C348.66 160.088 348.153 159.819 347.755 159.422C347.357 159.025 347.086 158.519 346.975 157.968C346.865 157.417 346.921 156.845 347.135 156.326C347.35 155.806 347.714 155.362 348.181 155.049C348.648 154.737 349.198 154.57 349.76 154.57C350.511 154.57 351.232 154.868 351.765 155.398C352.297 155.929 352.597 156.649 352.6 157.4Z" fill="#8661C1"/>
<path d="M159.73 318.82C159.73 319.382 159.563 319.931 159.251 320.398C158.939 320.865 158.496 321.229 157.977 321.444C157.458 321.659 156.887 321.715 156.336 321.605C155.785 321.496 155.279 321.225 154.882 320.828C154.484 320.431 154.214 319.925 154.104 319.374C153.995 318.823 154.051 318.252 154.266 317.733C154.481 317.214 154.845 316.771 155.312 316.459C155.779 316.147 156.328 315.98 156.89 315.98C157.643 315.98 158.365 316.279 158.898 316.812C159.431 317.344 159.73 318.067 159.73 318.82Z" fill="#8661C1"/>
<path d="M156.89 81.8901C156.89 82.4522 156.723 83.0017 156.411 83.4689C156.098 83.9362 155.654 84.3002 155.134 84.5148C154.615 84.7295 154.043 84.7851 153.492 84.6747C152.941 84.5643 152.435 84.2929 152.038 83.8947C151.641 83.4965 151.372 82.9895 151.263 82.438C151.155 81.8864 151.213 81.3151 151.429 80.7963C151.646 80.2775 152.011 79.8347 152.479 79.5238C152.948 79.213 153.498 79.0481 154.06 79.0501C154.432 79.0501 154.801 79.1236 155.145 79.2664C155.489 79.4093 155.802 79.6186 156.065 79.8825C156.328 80.1463 156.536 80.4595 156.677 80.804C156.819 81.1485 156.891 81.5176 156.89 81.8901Z" fill="#8661C1"/>
<path d="M119.13 187.4C119.13 187.962 118.964 188.511 118.652 188.978C118.34 189.445 117.896 189.809 117.377 190.024C116.858 190.239 116.287 190.295 115.736 190.185C115.185 190.076 114.679 189.805 114.282 189.408C113.885 189.011 113.614 188.505 113.505 187.954C113.395 187.403 113.451 186.832 113.666 186.313C113.881 185.794 114.245 185.351 114.712 185.039C115.179 184.727 115.728 184.56 116.29 184.56C117.043 184.56 117.766 184.859 118.298 185.392C118.831 185.924 119.13 186.647 119.13 187.4Z" fill="#8661C1"/>
<path d="M421.829 215.3C421.831 215.862 421.666 216.412 421.356 216.881C421.045 217.349 420.602 217.714 420.083 217.931C419.564 218.147 418.993 218.205 418.442 218.097C417.89 217.988 417.383 217.718 416.985 217.322C416.587 216.925 416.315 216.419 416.205 215.868C416.094 215.317 416.15 214.745 416.365 214.225C416.579 213.706 416.943 213.262 417.411 212.949C417.878 212.637 418.427 212.47 418.989 212.47C419.741 212.47 420.462 212.768 420.994 213.298C421.526 213.829 421.827 214.548 421.829 215.3Z" fill="#8661C1"/>
<path d="M184.36 230.05C184.36 230.612 184.193 231.162 183.88 231.629C183.568 232.096 183.124 232.46 182.604 232.675C182.085 232.889 181.513 232.945 180.962 232.835C180.411 232.724 179.905 232.453 179.508 232.055C179.111 231.656 178.841 231.149 178.733 230.598C178.625 230.046 178.682 229.475 178.899 228.956C179.115 228.437 179.481 227.995 179.949 227.684C180.418 227.373 180.968 227.208 181.53 227.21C182.281 227.213 183.001 227.513 183.531 228.045C184.062 228.578 184.36 229.298 184.36 230.05Z" fill="#8661C1"/>
<path d="M80.6798 244.87C82.2483 244.87 83.5198 243.599 83.5198 242.03C83.5198 240.462 82.2483 239.19 80.6798 239.19C79.1114 239.19 77.8398 240.462 77.8398 242.03C77.8398 243.599 79.1114 244.87 80.6798 244.87Z" fill="#8661C1"/>
<path d="M355.44 347.08C355.44 347.642 355.273 348.191 354.961 348.658C354.649 349.125 354.206 349.489 353.687 349.704C353.168 349.919 352.597 349.975 352.046 349.865C351.495 349.756 350.989 349.485 350.592 349.088C350.194 348.691 349.924 348.185 349.814 347.634C349.705 347.083 349.761 346.512 349.976 345.993C350.191 345.474 350.555 345.031 351.022 344.719C351.489 344.407 352.038 344.24 352.6 344.24C353.353 344.24 354.075 344.539 354.608 345.072C355.141 345.604 355.44 346.327 355.44 347.08Z" fill="#8661C1"/>
<path d="M252.78 277.6C252.78 278.162 252.613 278.711 252.301 279.178C251.989 279.645 251.545 280.009 251.026 280.224C250.507 280.439 249.936 280.495 249.386 280.385C248.835 280.276 248.329 280.005 247.931 279.608C247.534 279.211 247.264 278.705 247.154 278.154C247.045 277.603 247.101 277.032 247.316 276.513C247.531 275.994 247.895 275.551 248.362 275.239C248.829 274.927 249.378 274.76 249.94 274.76C250.693 274.76 251.415 275.059 251.948 275.592C252.48 276.124 252.78 276.847 252.78 277.6Z" fill="#8661C1"/>
<path d="M247.07 383.07C247.07 383.632 246.903 384.181 246.591 384.648C246.279 385.115 245.835 385.479 245.316 385.694C244.798 385.909 244.227 385.965 243.676 385.855C243.125 385.746 242.619 385.475 242.221 385.078C241.824 384.681 241.554 384.175 241.444 383.624C241.335 383.073 241.391 382.502 241.606 381.983C241.821 381.464 242.185 381.021 242.652 380.709C243.119 380.397 243.668 380.23 244.23 380.23C244.983 380.23 245.705 380.529 246.238 381.062C246.77 381.594 247.07 382.317 247.07 383.07Z" fill="#8661C1"/>
<path d="M219.619 133.19C219.621 133.752 219.457 134.302 219.146 134.771C218.835 135.239 218.392 135.604 217.873 135.821C217.354 136.037 216.783 136.095 216.232 135.987C215.68 135.878 215.173 135.608 214.775 135.212C214.377 134.815 214.105 134.309 213.995 133.758C213.884 133.207 213.94 132.635 214.155 132.115C214.369 131.596 214.733 131.152 215.201 130.839C215.668 130.527 216.217 130.36 216.779 130.36C217.531 130.36 218.252 130.658 218.784 131.188C219.316 131.719 219.617 132.439 219.619 133.19Z" fill="#8661C1"/>
<path d="M220.52 46.36C220.52 46.9222 220.353 47.4716 220.041 47.9389C219.728 48.4061 219.284 48.7701 218.764 48.9848C218.245 49.1995 217.673 49.2551 217.122 49.1447C216.571 49.0343 216.065 48.7628 215.668 48.3647C215.271 47.9665 215.002 47.4595 214.893 46.9079C214.785 46.3564 214.842 45.785 215.059 45.2663C215.275 44.7475 215.641 44.3047 216.109 43.9938C216.578 43.6829 217.128 43.5181 217.69 43.52C218.062 43.52 218.431 43.5936 218.775 43.7364C219.119 43.8793 219.432 44.0886 219.695 44.3525C219.957 44.6163 220.166 44.9295 220.307 45.274C220.449 45.6185 220.521 45.9876 220.52 46.36Z" fill="#8661C1"/>
<path d="M351.2 90.78C351.212 91.3441 351.055 91.899 350.751 92.3738C350.446 92.8487 350.007 93.222 349.489 93.4462C348.971 93.6704 348.398 93.7353 347.843 93.6325C347.289 93.5298 346.777 93.2642 346.374 92.8695C345.971 92.4748 345.694 91.969 345.58 91.4165C345.465 90.864 345.518 90.2899 345.731 89.7675C345.944 89.245 346.308 88.7979 346.776 88.4831C347.244 88.1683 347.796 88.0001 348.36 88C349.103 87.9998 349.816 88.2908 350.347 88.8105C350.878 89.3302 351.184 90.0372 351.2 90.78Z" fill="#8661C1"/>
<path d="M195.62 360.25L195.55 360.17L156.8 318.9L80.5498 242.08V242L95.1398 146.33L126.23 106.93L154 81.7901L217.75 46.1901L217.82 46.2901L243 81.8101L285.41 125.49L348.41 90.6301L348.48 90.7001L390.62 136L419.13 215.32V215.37L383 291.5H382.94L274.33 310.68L195.62 360.25ZM80.8098 242L157 318.73L195.68 359.93L274.28 310.44L382.81 291.27L418.88 215.27L390.41 136.07L348.34 90.9401L285.34 125.8L285.27 125.74L242.79 82.0001L217.65 46.5201L154.12 82.0001L126.45 107.1L95.3898 146.45L80.8098 242Z" fill="#8661C1"/>
<path d="M352.65 347.24L352.55 347.19L274.2 310.66L249.87 277.71L181.6 230.25L156.92 319.17L156.78 318.87L128.58 259L116.16 187.38L154 81.74H154.11L233.55 100L242.81 81.79H242.9L348.49 90.7V90.81L349.24 126.48L390.53 135.94V136.18L349.4 132.12L349.93 157.46L301.79 243.77L375.59 235.7V235.82L383 291.41L352.65 347.24ZM274.36 310.46L352.55 346.91L382.75 291.36L375.32 236L301.32 244.09L301.44 243.88L349.68 157.39L349.15 132.09L285.4 125.79L216.61 133.36L216.71 133.16L233.47 100.21L154.14 82L116.42 187.41L128.83 259L156.83 318.51L181.42 229.89L181.57 230L250 277.52L274.36 310.46ZM349.36 131.84L388.56 135.71L349.25 126.71L349.36 131.84ZM233.68 100.25L217 133L285.36 125.48L349.1 131.78L348.99 126.61L233.68 100.25ZM233.8 100.02L349 126.4L348.25 90.9L243 82L233.8 100.02Z" fill="#8661C1"/>
<path d="M348.29 90.88L297.42 53.84L297.56 53.64L348.44 90.68L348.29 90.88Z" fill="#8661C1"/>
<path d="M244.22 383.21L195.66 360.21L194.77 360.29L195.38 360.07L119 318.91L80.5899 242.14L80.1299 241.97L80.6099 241.92L116.15 187.39L95.0999 146.39L95.2199 146.34L160.57 117.77L153.87 81.6201L154.13 81.8401L185 107L217.06 93.0001L217.55 46.1901H217.69L297.92 53.6201L297.54 53.8101L242.94 82.0001L217.32 93.1901L216.9 133.45L216.7 133.29L184.97 107.29L160.85 117.83L181.67 230.12H181.54L81.2299 242.1L128.75 258.87L249.91 277.47L301.55 243.74L301.62 243.86L334 309.19L382.77 291.3L385.77 231.13L375.48 236L375.37 235.78L385.72 230.9L387.72 189.4L349.5 157.4L349.66 157.31L390.6 135.84L388 189.23L419.21 215.33L419.04 215.42L386 231L383 291.46H382.92L334.09 309.38L352.79 347.14H352.63L244.22 383.21ZM196.12 360.21L244.24 382.98L351.57 347.33L196.12 360.21ZM119.23 318.77L195.65 360L333.74 309.33L301.46 244.1L250 277.73H249.95L128.72 259.13L80.9299 242.26L119.23 318.77ZM333.85 309.55L196.55 359.93L352.41 347L333.85 309.55ZM95.4399 146.55L116.44 187.5V187.56L80.9299 241.88L181.38 229.94L160.62 118L95.4399 146.55ZM388 189.55L386 230.73L418.78 215.27L388 189.55ZM350 157.43L387.77 189L390.37 136.21L350 157.43ZM185.23 107.22L216.66 132.93L217.07 93.3001L185.23 107.22ZM154.23 82.2201L160.8 117.64L184.74 107.18L154.23 82.2201ZM217.8 46.5101L217.32 92.9401L242.82 81.7901L297.04 53.8501L217.8 46.5101Z" fill="#8661C1"/>
<path d="M285.472 125.479L285.254 125.601L303.443 158.28L303.661 158.158L285.472 125.479Z" fill="#8661C1"/>
<path d="M382.85 291.6L361.02 276.02L361.16 275.82L382.99 291.4L382.85 291.6Z" fill="#8661C1"/>
<path d="M205.006 312.735L196.408 359.857L196.654 359.902L205.252 312.78L205.006 312.735Z" fill="#8661C1"/>
<path d="M235.21 312.63H175.2V312.88H235.21V312.63Z" fill="#8661C1"/>
<path d="M326.82 167.12C326.824 170.662 325.782 174.127 323.825 177.08C321.868 180.033 319.084 182.342 315.82 183.72L308.82 167.12H326.82Z" fill="#8661C1"/>
<path d="M306.49 165.89L313.54 182.48C312.99 182.7 312.44 182.91 311.88 183.08C309.183 183.921 306.326 184.116 303.54 183.648C300.754 183.181 298.117 182.064 295.843 180.388C293.569 178.713 291.721 176.526 290.448 174.003C289.176 171.481 288.515 168.695 288.52 165.87C288.521 164.053 288.794 162.246 289.33 160.51C290.197 157.724 291.729 155.19 293.793 153.128C295.858 151.065 298.393 149.535 301.18 148.67C303.439 147.963 305.816 147.708 308.174 147.92C310.532 148.132 312.824 148.808 314.921 149.908C317.017 151.007 318.876 152.51 320.391 154.329C321.906 156.149 323.048 158.249 323.75 160.51C324.28 162.248 324.553 164.053 324.56 165.87L306.49 165.89Z" fill="#8661C1"/>
<path d="M306.489 165.89L313.539 182.48C312.989 182.7 312.439 182.91 311.879 183.08C308.395 184.16 304.664 184.16 301.179 183.08C298.228 182.152 295.565 180.479 293.448 178.221C291.331 175.964 289.832 173.2 289.096 170.194C288.359 167.189 288.41 164.044 289.242 161.064C290.075 158.084 291.662 155.369 293.85 153.181C296.038 150.993 298.753 149.406 301.734 148.573C304.714 147.74 307.858 147.69 310.864 148.426C313.869 149.163 316.634 150.662 318.891 152.779C321.148 154.895 322.821 157.558 323.749 160.51C324.28 162.247 324.553 164.053 324.559 165.87L306.489 165.89Z" fill="#A6A6A6"/>
<path d="M306.5 165.89L294.75 179.55C292.467 177.58 290.716 175.069 289.657 172.247C288.598 169.424 288.265 166.381 288.688 163.396C289.111 160.411 290.277 157.581 292.079 155.164C293.881 152.747 296.261 150.821 299.001 149.564C301.741 148.306 304.753 147.757 307.76 147.966C310.767 148.176 313.674 149.137 316.213 150.762C318.752 152.387 320.842 154.624 322.292 157.267C323.742 159.91 324.504 162.875 324.51 165.89H306.5Z" fill="#455A64"/>
<path d="M335.97 258.63H332.03V278.65H335.97V258.63Z" fill="#8661C1"/>
<path d="M342.74 261.96H338.8V278.66H342.74V261.96Z" fill="#8661C1"/>
<path d="M349.52 268.03H345.58V278.66H349.52V268.03Z" fill="#8661C1"/>
<path d="M356.29 261.67H352.35V278.66H356.29V261.67Z" fill="#8661C1"/>
<path d="M363.06 264.46H359.12V278.66H363.06V264.46Z" fill="#8661C1"/>
<path d="M369.83 255.84H365.89V278.65H369.83V255.84Z" fill="#8661C1"/>
<path d="M329.75 254.45V260.5V266.55V278.66L329.65 278.56C339.22 278.56 348.79 278.56 358.36 278.56H366.36L373.45 278.62H366.36H358.36C348.79 278.62 339.22 278.62 329.65 278.62H329.55V278.53V266.42V260.37L329.75 254.45Z" fill="#A6A6A6"/>
<path d="M328.88 255.84C329.451 255.694 330.049 255.694 330.62 255.84C330.049 255.987 329.451 255.987 328.88 255.84Z" fill="#A6A6A6"/>
<path d="M328.88 258.24C329.164 258.169 329.457 258.132 329.75 258.13C330.044 258.127 330.336 258.164 330.62 258.24C330.049 258.386 329.451 258.386 328.88 258.24Z" fill="#A6A6A6"/>
<path d="M328.88 260.64C329.451 260.494 330.049 260.494 330.62 260.64C330.051 260.8 329.449 260.8 328.88 260.64Z" fill="#A6A6A6"/>
<path d="M328.88 263.05C329.449 262.89 330.051 262.89 330.62 263.05C330.049 263.197 329.451 263.197 328.88 263.05Z" fill="#A6A6A6"/>
<path d="M328.88 265.45C329.451 265.304 330.049 265.304 330.62 265.45C330.049 265.597 329.451 265.597 328.88 265.45Z" fill="#A6A6A6"/>
<path d="M328.88 267.85C329.451 267.704 330.049 267.704 330.62 267.85C330.049 267.997 329.451 267.997 328.88 267.85Z" fill="#A6A6A6"/>
<path d="M328.88 270.25C329.164 270.179 329.457 270.142 329.75 270.14C330.044 270.132 330.337 270.169 330.62 270.25C330.049 270.397 329.451 270.397 328.88 270.25Z" fill="#A6A6A6"/>
<path d="M328.88 272.65C329.451 272.504 330.049 272.504 330.62 272.65C330.051 272.81 329.449 272.81 328.88 272.65Z" fill="#A6A6A6"/>
<path d="M328.88 275.06C329.449 274.9 330.051 274.9 330.62 275.06C330.049 275.207 329.451 275.207 328.88 275.06Z" fill="#A6A6A6"/>
<path d="M185.89 312.76C185.885 315.35 184.939 317.849 183.228 319.792C181.517 321.736 179.157 322.991 176.589 323.323C174.021 323.655 171.419 323.042 169.27 321.598C167.12 320.154 165.569 317.978 164.906 315.475C164.243 312.972 164.512 310.313 165.664 307.994C166.816 305.675 168.773 303.854 171.168 302.87C173.564 301.887 176.235 301.808 178.684 302.649C181.133 303.49 183.193 305.193 184.48 307.44C185.406 309.06 185.892 310.894 185.89 312.76Z" fill="#DBDBDB"/>
<path d="M184.48 307.44L175.2 312.76V302.07C177.083 302.07 178.932 302.566 180.561 303.509C182.191 304.452 183.542 305.808 184.48 307.44Z" fill="#8661C1"/>
<path d="M182.513 313.96C183.165 309.931 180.428 306.136 176.399 305.483C172.37 304.831 168.575 307.568 167.923 311.597C167.27 315.626 170.007 319.421 174.036 320.073C178.065 320.726 181.86 317.989 182.513 313.96Z" fill="white"/>
<path d="M178.28 311.11H172.13V311.98H178.28V311.11Z" fill="#263238"/>
<path d="M179.8 313.53H170.6V314.4H179.8V313.53Z" fill="#A6A6A6"/>
<path d="M215.79 312.76C215.79 313.282 215.75 313.804 215.67 314.32C215.258 317.038 213.808 319.49 211.625 321.161C209.442 322.831 206.697 323.591 203.966 323.279C201.235 322.967 198.731 321.609 196.981 319.489C195.23 317.37 194.37 314.654 194.581 311.913C194.792 309.172 196.057 306.62 198.111 304.793C200.165 302.966 202.847 302.006 205.594 302.116C208.34 302.226 210.937 303.396 212.839 305.381C214.74 307.366 215.798 310.011 215.79 312.76Z" fill="#DBDBDB"/>
<path d="M215.79 312.76C215.79 313.282 215.75 313.804 215.67 314.32L205.1 312.76V302.07C206.504 302.067 207.895 302.342 209.194 302.878C210.492 303.415 211.671 304.202 212.664 305.195C213.658 306.188 214.445 307.368 214.981 308.666C215.518 309.964 215.792 311.356 215.79 312.76Z" fill="#8661C1"/>
<path d="M212.304 314.456C213.239 310.483 210.776 306.505 206.803 305.57C202.83 304.635 198.852 307.098 197.917 311.071C196.982 315.044 199.445 319.022 203.418 319.957C207.391 320.892 211.37 318.429 212.304 314.456Z" fill="white"/>
<path d="M208.18 311.11H202.03V311.98H208.18V311.11Z" fill="#263238"/>
<path d="M209.7 313.53H200.5V314.4H209.7V313.53Z" fill="#A6A6A6"/>
<path d="M245.9 312.76C245.902 315.357 244.958 317.867 243.246 319.82C241.534 321.773 239.17 323.037 236.595 323.375C234.02 323.714 231.409 323.104 229.25 321.66C227.092 320.216 225.532 318.035 224.862 315.526C224.192 313.016 224.458 310.349 225.61 308.021C226.762 305.693 228.721 303.864 231.123 302.874C233.524 301.884 236.203 301.802 238.661 302.642C241.119 303.482 243.187 305.187 244.48 307.44C245.41 309.059 245.9 310.893 245.9 312.76Z" fill="#DBDBDB"/>
<path d="M245.9 312.76C245.905 314.926 245.252 317.042 244.027 318.828C242.802 320.614 241.062 321.985 239.04 322.76L235.21 312.76V302.07C238.044 302.073 240.762 303.2 242.766 305.204C244.77 307.208 245.897 309.926 245.9 312.76Z" fill="#8661C1"/>
<path d="M242.6 312.76C242.6 314.222 242.167 315.65 241.355 316.866C240.543 318.081 239.389 319.028 238.038 319.587C236.688 320.147 235.202 320.293 233.769 320.008C232.335 319.723 231.018 319.019 229.985 317.986C228.951 316.952 228.247 315.635 227.962 314.202C227.677 312.768 227.824 311.282 228.383 309.932C228.942 308.582 229.889 307.427 231.105 306.615C232.32 305.803 233.749 305.37 235.21 305.37C237.17 305.37 239.05 306.149 240.436 307.534C241.822 308.92 242.6 310.8 242.6 312.76Z" fill="white"/>
<path d="M238.28 311.11H232.13V311.98H238.28V311.11Z" fill="#263238"/>
<path d="M239.809 313.53H230.609V314.4H239.809V313.53Z" fill="#A6A6A6"/>
<path d="M152.179 168.48H156.359V141.37H152.179V168.48Z" fill="#EBEBEB"/>
<path d="M152.179 168.48H156.359V147.88H152.179V168.48Z" fill="#8661C1"/>
<path d="M145.88 168.48H150.06V141.37H145.88V168.48Z" fill="#EBEBEB"/>
<path d="M145.88 168.48H150.06V150.63H145.88V168.48Z" fill="#455A64"/>
<path d="M139.59 168.48H143.77V141.37H139.59V168.48Z" fill="#EBEBEB"/>
<path d="M139.59 168.48H143.77V160.23H139.59V168.48Z" fill="#8661C1"/>
<path d="M133.299 168.48H137.479V141.37H133.299V168.48Z" fill="#EBEBEB"/>
<path d="M133.299 168.47H137.479V145.84H133.299V168.47Z" fill="#455A64"/>
<path d="M127.02 168.48H131.2V141.37H127.02V168.48Z" fill="#EBEBEB"/>
<path d="M127.02 168.48H131.2V144.05H127.02V168.48Z" fill="#8661C1"/>
<path d="M120.73 168.48H124.91V141.37H120.73V168.48Z" fill="#EBEBEB"/>
<path d="M120.73 168.48H124.91V153H120.73V168.48Z" fill="#455A64"/>
<path d="M117.94 141.36L118 148.14L118.05 154.92L118.09 168.48L117.94 168.33L128.24 168.32L138.54 168.34L148.84 168.39L159.14 168.48L148.84 168.57L138.54 168.62L128.24 168.63H117.94H117.79V168.48L117.84 154.92L117.88 148.14L117.94 141.36Z" fill="#EBEBEB"/>
<path d="M117.34 141.36C117.543 141.309 117.751 141.282 117.96 141.28C118.169 141.281 118.377 141.308 118.58 141.36C118.379 141.421 118.17 141.449 117.96 141.44C117.75 141.448 117.541 141.421 117.34 141.36Z" fill="#EBEBEB"/>
<path d="M117.34 144.05C117.557 144.006 117.779 143.989 118 144C118.209 144.001 118.417 144.028 118.62 144.08C118.419 144.141 118.21 144.169 118 144.16C117.775 144.163 117.552 144.126 117.34 144.05Z" fill="#EBEBEB"/>
<path d="M117.34 146.74C117.542 146.684 117.75 146.657 117.96 146.66C118.169 146.656 118.378 146.683 118.58 146.74C118.378 146.797 118.169 146.824 117.96 146.82C117.75 146.823 117.542 146.796 117.34 146.74Z" fill="#EBEBEB"/>
<path d="M117.34 149.43C117.542 149.374 117.75 149.347 117.96 149.35C118.169 149.346 118.378 149.373 118.58 149.43C118.378 149.487 118.169 149.514 117.96 149.51C117.75 149.513 117.542 149.486 117.34 149.43Z" fill="#EBEBEB"/>
<path d="M117.34 152.12C117.552 152.047 117.775 152.006 118 152C118.209 151.996 118.418 152.023 118.62 152.08C118.418 152.137 118.209 152.164 118 152.16C117.779 152.18 117.557 152.167 117.34 152.12Z" fill="#EBEBEB"/>
<path d="M117.34 154.81C117.541 154.749 117.75 154.722 117.96 154.73C118.17 154.722 118.379 154.749 118.58 154.81C118.377 154.862 118.169 154.889 117.96 154.89C117.751 154.888 117.543 154.861 117.34 154.81Z" fill="#EBEBEB"/>
<path d="M117.34 157.5C117.541 157.439 117.75 157.412 117.96 157.42C118.17 157.411 118.379 157.439 118.58 157.5C118.377 157.552 118.169 157.579 117.96 157.58C117.751 157.578 117.543 157.551 117.34 157.5Z" fill="#EBEBEB"/>
<path d="M117.34 160.18C117.543 160.129 117.751 160.102 117.96 160.1C118.169 160.101 118.377 160.128 118.58 160.18C118.379 160.242 118.17 160.269 117.96 160.26C117.75 160.268 117.541 160.241 117.34 160.18Z" fill="#EBEBEB"/>
<path d="M117.34 162.87C117.543 162.819 117.751 162.792 117.96 162.79C118.169 162.791 118.377 162.818 118.58 162.87C118.379 162.931 118.17 162.959 117.96 162.95C117.75 162.958 117.541 162.931 117.34 162.87Z" fill="#EBEBEB"/>
<path d="M117.34 165.56C117.542 165.504 117.75 165.477 117.96 165.48C118.169 165.476 118.378 165.503 118.58 165.56C118.378 165.617 118.169 165.644 117.96 165.64C117.75 165.643 117.542 165.616 117.34 165.56Z" fill="#EBEBEB"/>
<path d="M422.16 183.47H394.22V197.92H422.16V183.47Z" fill="#8661C1"/>
<path d="M418.93 186.79H397.43V187.38H418.93V186.79Z" fill="white"/>
<path d="M418.93 189.2H397.43V189.79H418.93V189.2Z" fill="white"/>
<path d="M418.93 191.61H397.43V192.2H418.93V191.61Z" fill="white"/>
<path d="M418.93 194.01H397.43V194.6H418.93V194.01Z" fill="white"/>
<path d="M122.27 283.25H94.3301V297.7H122.27V283.25Z" fill="#8661C1"/>
<path d="M119.05 286.57H97.5498V287.16H119.05V286.57Z" fill="white"/>
<path d="M119.05 288.98H97.5498V289.57H119.05V288.98Z" fill="white"/>
<path d="M119.05 291.38H97.5498V291.97H119.05V291.38Z" fill="white"/>
<path d="M119.05 293.79H97.5498V294.38H119.05V293.79Z" fill="white"/>
<path d="M230.66 90.49H202.72V104.94H230.66V90.49Z" fill="#8661C1"/>
<path d="M227.439 93.8101H205.939V94.4001H227.439V93.8101Z" fill="white"/>
<path d="M227.439 96.2201H205.939V96.8101H227.439V96.2201Z" fill="white"/>
<path d="M227.439 98.63H205.939V99.22H227.439V98.63Z" fill="white"/>
<path d="M227.439 101.04H205.939V101.63H227.439V101.04Z" fill="white"/>
<path d="M285.75 349.91H257.81V364.36H285.75V349.91Z" fill="#8661C1"/>
<path d="M282.53 353.24H261.03V353.83H282.53V353.24Z" fill="white"/>
<path d="M282.53 355.64H261.03V356.23H282.53V355.64Z" fill="white"/>
<path d="M282.53 358.05H261.03V358.64H282.53V358.05Z" fill="white"/>
<path d="M282.53 360.46H261.03V361.05H282.53V360.46Z" fill="white"/>
</svg>
