<svg width="64" height="64" viewBox="0 0 64 64" fill="none" xmlns="http://www.w3.org/2000/svg">
<path d="M22.1043 34.5907C20.7391 35.1575 19.4798 35.8831 18.9726 37.3993C18.8703 37.7062 18.4281 40.1225 18.2247 41.2465C18.2119 41.3163 18.2147 41.3881 18.2328 41.4568C18.2509 41.5255 18.2838 41.5893 18.3294 41.6438C18.3749 41.6983 18.4319 41.7421 18.4963 41.7721C18.5606 41.8021 18.6308 41.8176 18.7018 41.8175H40.6016C40.6863 41.8177 40.7696 41.7955 40.8429 41.7531C40.9297 41.7033 40.9989 41.6278 41.041 41.5371C41.0831 41.4464 41.0961 41.3448 41.0782 41.2464C40.8754 40.1225 40.4326 37.7062 40.3303 37.3993C39.8237 35.8831 38.5643 35.1575 37.1992 34.5907C37.0247 34.5185 36.8484 34.4487 36.6721 34.3801C35.482 33.9186 34.2921 33.4572 33.1023 32.9957C32.815 33.6732 32.3345 34.2511 31.7209 34.6573C31.1073 35.0636 30.3877 35.2802 29.6517 35.2802C28.9158 35.2802 28.1962 35.0636 27.5826 34.6573C26.9689 34.2511 26.4885 33.6732 26.2011 32.9957C25.011 33.4571 23.8211 33.9186 22.6314 34.3801C22.4551 34.4487 22.2788 34.5185 22.1043 34.5907Z" fill="#8661C1"/>
<path d="M29.6505 31.7188C30.6711 31.7185 31.6598 31.3634 32.4473 30.7143C33.2349 30.0652 33.7723 29.1625 33.9674 28.1607L34.639 24.7003C34.728 24.0453 34.6759 23.3788 34.486 22.7456C34.2962 22.1124 33.973 21.5271 33.5383 21.0292C33.1035 20.5312 32.5672 20.1321 31.9654 19.8585C31.3636 19.585 30.7103 19.4434 30.0492 19.4433H29.2518C28.5907 19.4434 27.9374 19.5849 27.3356 19.8585C26.7338 20.132 26.1975 20.5312 25.7628 21.0292C25.3281 21.5271 25.005 22.1124 24.8152 22.7456C24.6254 23.3788 24.5733 24.0453 24.6624 24.7003L25.3338 28.1607C25.529 29.1624 26.0663 30.0651 26.8538 30.7142C27.6413 31.3633 28.63 31.7185 29.6505 31.7188Z" fill="#8661C1"/>
<path d="M52.5321 3.77289C50.0576 3.77621 47.6652 4.66009 45.7829 6.2663C43.9006 7.87251 42.6514 10.0962 42.259 12.5393C42.1744 13.0724 39.6084 26.7077 39.6084 26.7077L47.2402 23.1311C48.6177 23.945 50.1644 24.4301 51.76 24.5488C53.3555 24.6675 54.957 24.4165 56.4397 23.8154C57.9225 23.2143 59.2466 22.2792 60.3091 21.083C61.3715 19.8867 62.1437 18.4615 62.5656 16.9181C62.9875 15.3748 63.0477 13.7549 62.7416 12.1845C62.4354 10.6141 61.7711 9.13554 60.8003 7.86372C59.8296 6.5919 58.5785 5.56116 57.1445 4.85164C55.7104 4.14213 54.132 3.77297 52.5321 3.77289Z" fill="#8661C1"/>
<path d="M53.6504 44.1826H5.65324V14.4482C5.65324 14.1615 5.80833 13.9406 5.94932 13.9406H39.8523C40.0356 12.9631 40.1531 12.3192 40.1719 12.2017C40.3381 11.1638 40.6366 10.1514 41.0601 9.1893H4.93418C3.90865 9.19015 2.92536 9.59793 2.20019 10.3231C1.47503 11.0483 1.06726 12.0315 1.06641 13.0571V47.1904C1.06824 48.2152 1.47648 49.1974 2.20156 49.9216C2.92665 50.6458 3.90938 51.0529 4.93418 51.0534H21.1855L18.2717 58.4882C18.1959 58.6807 18.1683 58.8888 18.1913 59.0944C18.2142 59.2999 18.287 59.4968 18.4033 59.6678C18.5205 59.8392 18.6775 59.9795 18.8609 60.0769C19.0442 60.1743 19.2484 60.2259 19.456 60.2271H39.8476C40.0545 60.2256 40.2579 60.1739 40.4404 60.0766C40.6229 59.9792 40.7791 59.839 40.8955 59.668C41.0119 59.4971 41.0852 59.3004 41.1089 59.0949C41.1327 58.8894 41.1063 58.6813 41.0319 58.4882L38.1182 51.0534H54.3694C55.3942 51.0529 56.377 50.6458 57.1021 49.9216C57.8271 49.1974 58.2354 48.2152 58.2372 47.1904V25.309C56.8097 26.0474 55.2515 26.4992 53.6504 26.639V44.1826Z" fill="#222A4D"/>
</svg>
