<svg width="64" height="64" viewBox="0 0 64 64" fill="none" xmlns="http://www.w3.org/2000/svg">
<path d="M58.0792 47.3478C57.376 46.7327 56.5964 46.2108 55.7598 45.795C54.8163 45.3199 53.8451 44.9019 52.8515 44.5433C52.1612 44.3046 51.5724 44.084 51.085 43.8815C50.6571 43.7096 50.2452 43.5004 49.854 43.2563C49.5539 43.0761 49.3027 42.8249 49.1224 42.5248C48.9608 42.2236 48.8808 41.8853 48.8906 41.5436C48.8842 41.2517 48.9491 40.9626 49.0797 40.7014C49.2103 40.4402 49.4026 40.2148 49.6399 40.0447C50.1393 39.6646 50.96 39.4743 52.102 39.4739C53.2003 39.4693 54.2956 39.5889 55.3671 39.8306C56.3001 40.0366 57.2135 40.3232 58.097 40.6871L59.2033 36.4051C58.5155 36.1114 57.8056 35.8728 57.08 35.6914C56.0316 35.4271 54.9635 35.2481 53.8862 35.1561V31.445H49.3901V35.2989C48.4433 35.4555 47.5277 35.7627 46.6781 36.2088C45.9648 36.5857 45.3339 37.1013 44.8225 37.7253C44.3501 38.3134 43.993 38.9852 43.7698 39.7057C43.5425 40.4395 43.4282 41.2037 43.4308 41.9719C43.3968 42.8209 43.5614 43.6662 43.9114 44.4405C44.2614 45.2148 44.7872 45.8968 45.4471 46.4322C46.0674 46.9407 46.751 47.3665 47.4809 47.699C48.2305 48.0441 48.9977 48.3594 49.7825 48.6447C50.5911 48.9303 51.3048 49.1979 51.9235 49.4475C52.4578 49.655 52.9716 49.9119 53.4581 50.2148C53.8238 50.4399 54.1395 50.7374 54.3859 51.089C54.6069 51.4346 54.7187 51.8388 54.7069 52.2488C54.7214 52.5703 54.6556 52.8904 54.5155 53.18C54.3753 53.4697 54.1652 53.7199 53.9041 53.9081C53.369 54.3006 52.3757 54.4968 50.9244 54.4968C49.6877 54.5036 48.4563 54.3355 47.2668 53.9973C46.2441 53.7136 45.2474 53.3435 44.2873 52.8912L42.7529 56.9948C43.5377 57.3646 44.3417 57.6921 45.1615 57.976C46.5305 58.4251 47.9518 58.695 49.3901 58.779V63.0253H53.8862V58.6718C54.9118 58.5267 55.9065 58.2134 56.8302 57.7446C57.5701 57.3616 58.2302 56.841 58.7751 56.2107C59.2603 55.6424 59.6245 54.981 59.8454 54.2671C60.0575 53.5797 60.1658 52.8644 60.1667 52.1451C60.1874 51.2 59.9985 50.262 59.6136 49.3986C59.2472 48.6176 58.7251 47.9197 58.0792 47.3478Z" fill="#8661C1"/>
<path d="M17.0262 12.4251C17.2814 13.7418 17.9868 14.9287 19.0215 15.7821C20.0561 16.6355 21.3555 17.1022 22.6967 17.1022C24.0379 17.1022 25.3373 16.6355 26.3719 15.7821C27.4066 14.9287 28.112 13.7418 28.3671 12.4251L29.2509 7.88091C29.368 7.02035 29.2995 6.14471 29.05 5.31282C28.8006 4.48093 28.376 3.71206 27.8048 3.05787C27.2335 2.40368 26.5289 1.87931 25.7383 1.52001C24.9476 1.16071 24.0892 0.974782 23.2207 0.974731H22.1727C21.3042 0.97478 20.4458 1.1607 19.6551 1.52001C18.8644 1.87931 18.1598 2.40367 17.5886 3.05786C17.0174 3.71206 16.5928 4.48093 16.3433 5.31281C16.0939 6.1447 16.0254 7.02035 16.1424 7.88091L17.0262 12.4251Z" fill="#222A4D"/>
<path d="M50.1208 23.0422L41.438 23.2306L32.6058 20.5426L32.2716 20.443H32.2645C32.0447 20.3781 31.8199 20.3317 31.5925 20.3044C31.4929 20.2901 31.3898 20.2866 31.2867 20.2795C30.1062 20.123 28.9186 19.9844 27.7382 19.8315C27.5682 19.805 27.3944 19.8171 27.2297 19.867L27.0911 19.8173L22.5576 24.3507L22.0918 23.8813L20.6696 22.4627L18.0278 19.8173L9.21879 21.6557C8.63875 21.769 8.10186 22.042 7.66858 22.444C7.23529 22.8459 6.92282 23.3608 6.76635 23.9308L6.75997 23.956L5.44079 29.2005L3.99011 34.9571L3.89054 35.3447C3.84825 35.5204 3.82912 35.7009 3.83366 35.8816L4.09322 46.8045C4.10939 47.4913 4.39124 48.1452 4.87952 48.6285C5.3678 49.1119 6.02446 49.3871 6.71145 49.3963C7.39844 49.4055 8.06224 49.148 8.5633 48.6779C9.06436 48.2078 9.36364 47.5618 9.39822 46.8756L9.92447 36.5963L12.4632 30.5304V52.9308C12.4642 54.9275 13.057 56.879 14.1668 58.5389C15.2765 60.1988 16.8533 61.4925 18.698 62.2565C20.5427 63.0205 22.5725 63.2207 24.5309 62.8316C26.4892 62.4425 28.2883 61.4817 29.7009 60.0705C30.3584 59.4105 30.923 58.6641 31.3791 57.8518C32.2189 56.3478 32.6584 54.6533 32.6556 52.9308V27.8103L40.4246 29.3499L40.8975 29.4103C41.0253 29.421 41.1538 29.421 41.2815 29.4103L50.5013 28.3863C51.1909 28.3113 51.8246 27.9719 52.2691 27.4395C52.7137 26.907 52.9346 26.2229 52.8853 25.531C52.8361 24.8391 52.5205 24.1932 52.005 23.7291C51.4895 23.265 50.8141 23.0188 50.1208 23.0422Z" fill="#222A4D"/>
</svg>
