<svg width="64" height="64" viewBox="0 0 64 64" fill="none" xmlns="http://www.w3.org/2000/svg">
<path d="M55.0003 9.22988C53.7382 7.92856 52.2273 6.89417 50.5576 6.18813C48.8878 5.48209 47.0932 5.11882 45.2803 5.11988H45.1703C41.3634 5.11593 37.7087 6.61447 35.0003 9.28988L22.6803 21.6399C20.4583 23.8816 19.0648 26.8123 18.7286 29.9507C18.3924 33.089 19.1336 36.2484 20.8303 38.9099C21.1059 39.3419 21.4758 39.7058 21.9123 39.9743C22.3488 40.2428 22.8405 40.4088 23.3503 40.4599C23.4768 40.4698 23.6039 40.4698 23.7303 40.4599C24.6503 40.4648 25.5347 40.1053 26.1903 39.4599C26.748 38.907 27.0997 38.18 27.187 37.3995C27.2743 36.6191 27.092 35.8323 26.6703 35.1699C25.8207 33.8426 25.4488 32.2653 25.6161 30.6983C25.7833 29.1312 26.4797 27.668 27.5903 26.5499L40.1703 13.9999C40.8508 13.3239 41.6646 12.7969 42.5598 12.4526C43.4551 12.1083 44.4122 11.9541 45.3703 11.9999C46.3328 12.041 47.2757 12.2849 48.1374 12.7158C48.999 13.1466 49.76 13.7546 50.3703 14.4999C51.4444 15.873 51.9749 17.5937 51.8605 19.3332C51.7462 21.0728 50.9949 22.7092 49.7503 23.9299L47.2903 26.3899C46.9665 26.7115 46.7095 27.094 46.5341 27.5153C46.3588 27.9366 46.2685 28.3885 46.2685 28.8449C46.2685 29.3013 46.3588 29.7531 46.5341 30.1745C46.7095 30.5958 46.9665 30.9783 47.2903 31.2999C47.9425 31.949 48.8252 32.3134 49.7453 32.3134C50.6655 32.3134 51.5482 31.949 52.2003 31.2999L54.8303 28.6699C57.394 26.0948 58.8474 22.6181 58.8792 18.9845C58.9109 15.351 57.5186 11.8494 55.0003 9.22988Z" fill="#222A4D"/>
<path d="M40.5406 23.4198C39.8919 23.3466 39.2357 23.4579 38.6474 23.7408C38.0591 24.0238 37.5626 24.4669 37.2148 25.0194C36.867 25.5718 36.6822 26.2112 36.6814 26.864C36.6807 27.5168 36.8641 28.1566 37.2106 28.7098C38.0623 30.0376 38.4362 31.6159 38.2708 33.1846C38.1054 34.7534 37.4105 36.2189 36.3006 37.3398L23.7206 49.9198C23.0391 50.5944 22.2251 51.1203 21.3301 51.4646C20.4351 51.8088 19.4785 51.9638 18.5206 51.9198C17.5578 51.8756 16.615 51.6293 15.7535 51.1969C14.8921 50.7644 14.1313 50.1556 13.5206 49.4098C12.4458 48.0408 11.9147 46.3229 12.0291 44.5862C12.1435 42.8494 12.8955 41.2161 14.1406 39.9998L16.6006 37.5398C17.2451 36.8837 17.6045 35.9996 17.6006 35.0798C17.6034 34.6258 17.5165 34.1756 17.3449 33.7552C17.1733 33.3347 16.9203 32.9523 16.6006 32.6298C15.941 31.9949 15.0611 31.6403 14.1456 31.6403C13.2301 31.6403 12.3502 31.9949 11.6906 32.6298L9.2906 34.9998C7.95335 36.3527 6.89656 37.9564 6.18094 39.7188C5.46532 41.4812 5.10497 43.3677 5.1206 45.2698C5.11819 47.0844 5.48082 48.8809 6.18689 50.5525C6.89297 52.224 7.92807 53.7365 9.2306 54.9998C11.8482 57.5051 15.34 58.8901 18.9631 58.8602C22.5862 58.8303 26.0547 57.3879 28.6306 54.8398L41.2106 42.2498C43.4245 40.0076 44.8128 37.0811 45.1489 33.948C45.4849 30.8149 44.7487 27.6605 43.0606 24.9998C42.7872 24.5632 42.4184 24.1943 41.982 23.9206C41.5455 23.647 41.0527 23.4758 40.5406 23.4198Z" fill="#8661C1"/>
</svg>
