<svg width="67" height="67" viewBox="0 0 67 67" fill="none" xmlns="http://www.w3.org/2000/svg">
<path d="M62.8832 12.0012L50.1717 13.0938C50.1074 13.0993 50.0462 13.1233 49.9953 13.1628C49.9444 13.2024 49.906 13.2558 49.8848 13.3167C49.8636 13.3776 49.8605 13.4433 49.8758 13.5059C49.8911 13.5685 49.9242 13.6254 49.9711 13.6696L53.1777 16.6939L52.4659 17.4204L51.9909 17.9051L49.58 20.408C48.651 21.3871 47.7257 22.3686 46.8041 23.3524C46.1439 24.06 45.4874 24.7717 44.8346 25.4876C43.2719 27.198 41.7291 28.9278 40.2063 30.6772C39.4486 31.5547 38.6937 32.4364 37.9499 33.3278C37.7522 33.5646 37.5572 33.8041 37.3608 34.0423L36.5655 33.5952L24.1568 26.6199L22.1762 25.5071L20.757 27.0531L18.9811 28.9877L5 44.2168L7.93607 47.0804L23.0635 32.4823H23.0649L31.9204 38.243L36.4485 41.1888L38.0906 42.2571L38.4667 42.5008L40.6032 40.6289C41.4779 39.8615 42.3392 39.0815 43.1869 38.289C44.0379 37.4978 44.8764 36.697 45.7121 35.8933C47.3807 34.2818 49.0247 32.648 50.6441 30.992C52.2709 29.3415 53.8671 27.6618 55.4591 25.9792L57.8283 23.4359L58.1486 23.0863L58.9863 22.1721L62.048 25.0597C62.0944 25.1035 62.1523 25.133 62.215 25.1449C62.2777 25.1568 62.3425 25.1504 62.4017 25.1267C62.4609 25.1029 62.512 25.0627 62.5491 25.0107C62.5861 24.9588 62.6075 24.8974 62.6108 24.8336L63.2455 12.351C63.2479 12.3034 63.2401 12.2557 63.2226 12.2114C63.2051 12.167 63.1782 12.1269 63.1439 12.0937C63.1096 12.0606 63.0686 12.0352 63.0236 12.0192C62.9786 12.0033 62.9308 11.9971 62.8832 12.0012Z" fill="#8661C1"/>
<path d="M7.37695 64.9416C7.37737 65.2313 7.49264 65.509 7.69748 65.7139C7.90232 65.9187 8.18003 66.034 8.46972 66.0344H16.0446C16.3343 66.034 16.612 65.9187 16.8169 65.7139C17.0217 65.509 17.137 65.2313 17.1374 64.9416V42.8391L7.37695 52.258V64.9416Z" fill="#222A4D"/>
<path d="M20.9121 39.1956V64.9416C20.9125 65.2313 21.0278 65.509 21.2326 65.7138C21.4375 65.9187 21.7152 66.0339 22.0049 66.0344H29.5798C29.8695 66.0339 30.1472 65.9187 30.352 65.7138C30.5569 65.509 30.6721 65.2313 30.6725 64.9416V42.4888L22.8033 37.3702L20.9121 39.1956Z" fill="#222A4D"/>
<path d="M38.114 47.3244L34.4482 44.9439V64.9416C34.4487 65.2313 34.5639 65.509 34.7688 65.7138C34.9736 65.9187 35.2513 66.0339 35.541 66.0344H43.1159C43.4056 66.0339 43.6833 65.9187 43.8882 65.7138C44.093 65.509 44.2083 65.2313 44.2087 64.9416V41.9276C43.481 42.6018 42.7198 43.2873 41.9462 43.9666L38.114 47.3244Z" fill="#222A4D"/>
<path d="M52.1434 34.1813C50.6433 35.7087 49.2724 37.0759 47.9834 38.3338V64.9416C47.9838 65.2313 48.0991 65.509 48.3039 65.7138C48.5088 65.9187 48.7865 66.034 49.0762 66.0344H56.6511C56.9408 66.034 57.2185 65.9187 57.4233 65.7138C57.6281 65.509 57.7434 65.2313 57.7438 64.9416V28.3275L57.0013 29.1247C55.4627 30.7502 53.821 32.4801 52.1434 34.1813Z" fill="#222A4D"/>
<path d="M37.8215 20.7391C37.3521 21.0832 36.4779 21.2559 35.1987 21.2573C34.1102 21.2629 33.0264 21.115 31.9793 20.8177C31.0789 20.5678 30.2015 20.2417 29.3565 19.8429L28.0059 23.4553C28.6971 23.7811 29.4053 24.0696 30.1274 24.3196C31.3318 24.7155 32.5825 24.9532 33.8481 25.0268V28.7645H37.8066V24.9313C38.7091 24.8032 39.5843 24.5276 40.3975 24.1158C41.0491 23.779 41.6301 23.3206 42.1092 22.7651C42.5361 22.2651 42.8569 21.6834 43.0521 21.0556C43.2389 20.4502 43.3341 19.8203 43.3345 19.1867C43.3534 18.3551 43.1873 17.5296 42.8482 16.77C42.5264 16.0822 42.0666 15.4678 41.4975 14.9649C40.8789 14.4231 40.193 13.9634 39.4567 13.5973C38.626 13.1786 37.7707 12.8105 36.8955 12.4951C36.2882 12.2848 35.77 12.0908 35.341 11.9132C34.9645 11.762 34.6021 11.578 34.2579 11.3632C33.9944 11.2041 33.7736 10.9832 33.6145 10.7197C33.471 10.4547 33.3999 10.1566 33.4085 9.85536C33.4032 9.59843 33.4606 9.34408 33.5757 9.1143C33.6907 8.88452 33.86 8.68622 34.0689 8.53655C34.721 8.14557 35.4796 7.96949 36.2372 8.03324C37.2038 8.0287 38.1678 8.13415 39.1105 8.34754C39.9314 8.5289 40.7351 8.78114 41.5124 9.10144L42.4872 5.33192C41.8816 5.0739 41.2568 4.86372 40.6184 4.70331C39.6951 4.47165 38.7549 4.31399 37.8066 4.23185V0.965637H33.8481V4.35928C33.0147 4.49659 32.2087 4.7669 31.4611 5.15988C30.8513 5.47679 30.3108 5.91219 29.8714 6.44058C29.432 6.96897 29.1025 7.57973 28.902 8.23708C28.7015 8.88271 28.6005 9.55515 28.6026 10.2312C28.5737 10.9786 28.719 11.7225 29.0272 12.404C29.3353 13.0855 29.7978 13.6859 30.378 14.1579C30.9246 14.6046 31.5263 14.9793 32.1683 15.2728C32.8287 15.5765 33.5041 15.854 34.1943 16.1053C34.9057 16.358 35.5343 16.5916 36.0801 16.8125C36.5503 16.9952 37.0024 17.2213 37.4307 17.4878C37.7516 17.6864 38.029 17.9479 38.2462 18.2566C38.441 18.5609 38.5394 18.9169 38.5287 19.2781C38.5414 19.5612 38.4834 19.843 38.3599 20.0981C38.2365 20.3532 38.0514 20.5735 37.8215 20.7391Z" fill="#2D3E50"/>
</svg>
