<svg width="75" height="73" viewBox="0 0 75 73" fill="none" xmlns="http://www.w3.org/2000/svg">
<path d="M44.986 59.1147L43.4289 64.975L37.5191 63.4318L39.0771 57.5714L44.986 59.1147Z" fill="#622CCF"/>
<path d="M40.4241 51.0608L38.8968 56.9376L44.824 58.4524L46.3514 52.5756L40.4241 51.0608Z" fill="#AFC304"/>
<path d="M41.9707 45.2421L40.4429 51.1205L46.3701 52.6353L47.8979 46.7569L41.9707 45.2421Z" fill="#FF9600"/>
<path d="M37.5193 63.4331L35.963 69.2924L30.054 67.7491L31.6112 61.8898L37.5193 63.4331Z" fill="#015189"/>
<path d="M39.0782 57.5712L37.5202 63.4314L31.6121 61.8879L33.1676 56.0277L39.0782 57.5712Z" fill="#03A48F"/>
<path d="M34.7252 50.171L33.167 56.0304L39.0767 57.5757L40.6349 51.7164L34.7252 50.171Z" fill="#02C4AB"/>
<path d="M24.1464 66.2051L22.6154 71.9466C22.4619 71.9466 22.3134 71.955 22.1649 71.955L16.682 70.5224L18.2375 64.6672L24.1464 66.2051Z" fill="#3078A9"/>
<path d="M42.1876 45.8552L40.6312 51.7155L34.7219 50.1722L36.279 44.3119L42.1876 45.8552Z" fill="#AFC304"/>
<path d="M31.6103 61.8894L30.0532 67.7488L24.1443 66.2047L25.7006 60.3461L31.6103 61.8894Z" fill="#016CB6"/>
<path d="M36.2809 44.3087L34.7247 50.1698L28.8149 48.6257L30.3721 42.7654L36.2809 44.3087Z" fill="#00C7C0"/>
<path d="M43.7452 39.995L42.1888 45.8553L36.28 44.312L37.8353 38.4526L43.7452 39.995Z" fill="#D9DC01"/>
<path d="M37.835 38.4533L36.2795 44.3128L30.3698 42.7684L31.9261 36.9089L37.835 38.4533Z" fill="#03D9D1"/>
<path d="M26.0158 35.3592L24.4601 41.2189L30.3692 42.7616L31.925 36.9019L26.0158 35.3592Z" fill="#C3D42F"/>
<path d="M26.0187 35.3637L24.4624 41.2222L18.5526 39.6799L20.1089 33.8187L26.0187 35.3637Z" fill="#02D4E1"/>
<path d="M57.1218 37.2212L55.5653 43.0806L49.6548 41.5373L51.2118 35.6779L57.1218 37.2212Z" fill="#FF0000"/>
<path d="M33.4886 31.0515L31.9302 36.9117L37.8391 38.4569L39.3975 32.5967L33.4886 31.0515Z" fill="#D9DC01"/>
<path d="M27.3706 29.0051L25.8428 34.8835L31.77 36.3983L33.2978 30.5199L27.3706 29.0051Z" fill="#FFEA00"/>
<path d="M27.6639 29.2823L26.3235 34.3262L21.2371 32.997L22.5766 27.9537L27.6639 29.2823Z" fill="#C3D42F"/>
<path d="M22.1406 22.9981L21.2992 26.2355L24.5648 27.07L25.4062 23.8326L22.1406 22.9981Z" fill="#D9DC01"/>
<path d="M27.3076 23.5842L26.5756 26.3368L29.3514 27.0626L30.0834 24.3101L27.3076 23.5842Z" fill="#B7CC01"/>
<path d="M31.1524 25.9935L30.2483 29.3989L33.6824 30.2955L34.5866 26.8901L31.1524 25.9935Z" fill="#FFB400"/>
<path d="M15.6677 28.3152L14.572 32.4355L18.728 33.5223L19.8237 29.402L15.6677 28.3152Z" fill="#EFAF02"/>
<path d="M15.9029 35.2008L14.961 38.7428L18.5337 39.677L19.4756 36.135L15.9029 35.2008Z" fill="#02A6C4"/>
<path d="M15.0824 23.8318L14.3046 26.7567L17.255 27.5282L18.0328 24.6033L15.0824 23.8318Z" fill="#F97C00"/>
<path d="M9.59442 22.5694L8.71014 25.8947L12.0635 26.7715L12.9477 23.4463L9.59442 22.5694Z" fill="#FEB900"/>
<path d="M10.8681 27.4036L10.1352 30.1594L12.9151 30.8863L13.648 28.1305L10.8681 27.4036Z" fill="#00CAD7"/>
<path d="M11.2345 32.0601L10.5016 34.8159L13.2815 35.5428L14.0144 32.787L11.2345 32.0601Z" fill="#029DD0"/>
<path d="M64.5878 32.9056L63.0305 38.7658L57.1226 37.2226L58.678 31.3623L64.5878 32.9056Z" fill="#DB0350"/>
<path d="M58.6776 31.3619L57.1221 37.2221L51.2124 35.6788L52.7687 29.8186L58.6776 31.3619Z" fill="#EF8202"/>
<path d="M21.7959 18.8672L21.0115 21.8213L23.9898 22.5988L24.7741 19.6447L21.7959 18.8672Z" fill="#B7CC01"/>
<path d="M17.0055 19.0535L16.2567 21.8691L19.0962 22.6116L19.8449 19.796L17.0055 19.0535Z" fill="#FFC600"/>
<path d="M15.3854 20.4147L14.6574 23.1516L11.8991 22.4305L12.6256 19.6945L15.3854 20.4147Z" fill="#FB7000"/>
<path d="M12.9736 15.4617L12.1166 18.6871L8.86481 17.8372L9.72104 14.6127L12.9736 15.4617Z" fill="#FE234C"/>
<path d="M15.1622 13.0837L14.3046 16.3086L17.5568 17.159L18.4144 13.9341L15.1622 13.0837Z" fill="#02CDF2"/>
<path d="M19.5485 15.1268L18.8058 17.9198L21.6224 18.6563L22.3651 15.8633L19.5485 15.1268Z" fill="#01CC6F"/>
<path d="M16.1235 7.85069L15.3807 10.6437L18.1973 11.3802L18.94 8.58721L16.1235 7.85069Z" fill="#00BADC"/>
<path d="M13.8163 5.86559L13.4512 7.24072L14.8379 7.60276L15.203 6.22763L13.8163 5.86559Z" fill="#FF0000"/>
<path d="M17.1848 3.88138L16.7437 5.57874L18.4562 6.01639L18.8973 4.31904L17.1848 3.88138Z" fill="#01CCA8"/>
<path d="M16.3163 2.56386L16.0427 3.59277L17.0803 3.8641L17.3539 2.83519L16.3163 2.56386Z" fill="#F5CE63"/>
<path d="M18.7975 7.19242e-05L18.5186 1.0321L19.5593 1.30873L19.8383 0.276701L18.7975 7.19242e-05Z" fill="#FB7000"/>
<path d="M13.7488 10.5326L13.1677 12.7208L10.961 12.1445L11.5422 9.9563L13.7488 10.5326Z" fill="#EF8202"/>
<path d="M18.997 11.8529L18.699 12.9731L19.8296 13.2688L20.1275 12.1485L18.997 11.8529Z" fill="#02D4E1"/>
<path d="M14.8475 17.9755L14.572 19.0156L15.621 19.2888L15.8965 18.2487L14.8475 17.9755Z" fill="#FF0000"/>
<path d="M19.2855 24.2455L19.0143 25.2889L20.0665 25.5579L20.3377 24.5144L19.2855 24.2455Z" fill="#FF0024"/>
<path d="M9.71033 19.7277L9.43372 20.7678L10.4827 21.0421L10.7593 20.0019L9.71033 19.7277Z" fill="#FF6600"/>
<path d="M66.0673 27.3304C63.9584 26.3828 61.9542 26.0047 60.0968 26.0189L58.6775 31.3631L64.5872 32.9064L66.0673 27.3304Z" fill="#EF8202"/>
<path d="M53.2891 27.8579L52.7677 29.8194L58.6725 31.3627L60.0917 26.0186C57.5277 26.0387 55.2317 26.8086 53.2891 27.8579Z" fill="#EFAF02"/>
<path d="M50.9588 29.347L52.7681 29.8196L53.2894 27.858C52.4775 28.2982 51.6986 28.7958 50.9588 29.347Z" fill="#F86F01"/>
<path d="M46.4433 33.8331C46.5692 34.0663 46.6884 34.298 46.8009 34.5285L51.2109 35.6836L52.7672 29.8242L50.9578 29.3483C48.0958 31.4733 46.4433 33.8331 46.4433 33.8331Z" fill="#EFAF02"/>
<path d="M48.4099 48.2442C48.4184 47.9888 48.4243 47.7351 48.4276 47.4831L48.0981 47.3993L46.5418 53.2595L52.4465 54.8028L54.0028 48.9434L48.6093 47.534C48.5002 47.9925 48.4099 48.2442 48.4099 48.2442Z" fill="#97008E"/>
<path d="M40.0142 30.2524L39.3925 32.5945L43.8058 33.748C42.6708 32.4526 41.3997 31.2808 40.0142 30.2524Z" fill="#96C702"/>
<path d="M40.0133 30.2525C38.3898 29.0469 36.6688 27.9762 34.8678 27.0514C34.7724 27.0003 34.6819 26.9485 34.589 26.8975L33.4823 31.048L39.3921 32.5913L40.0133 30.2525Z" fill="#FFCC00"/>
<path d="M18.5533 39.678L18.0118 41.7165C18.7204 42.3137 19.4189 42.8474 20.0886 43.315C21.1892 44.0819 22.2434 44.9123 23.2459 45.8018L24.4625 41.223L18.5533 39.678Z" fill="#02A6C4"/>
<path d="M24.4623 41.2217L23.2458 45.803C23.9633 46.4426 24.6018 47.0664 25.1614 47.6742L28.8148 48.6277L30.3719 42.7724L24.4623 41.2217Z" fill="#00BADC"/>
<path d="M28.0376 51.551L28.8148 48.6234L25.1611 47.6698C26.4963 49.1183 27.4142 50.4443 28.0376 51.551Z" fill="#0184B5"/>
<path d="M29.3338 54.8024L29.1896 54.9889L33.1668 56.0277L34.724 50.1725L28.8142 48.6276L28.037 51.5552C29.1491 53.525 29.3338 54.8024 29.3338 54.8024Z" fill="#02A6C4"/>
<path d="M33.1672 56.0298L29.19 54.991C28.2797 56.1862 27.2888 57.3189 26.2241 58.3812L25.7019 60.3461L31.6117 61.8894L33.1672 56.0298Z" fill="#03BDEC"/>
<path d="M26.2227 58.38C25.6426 58.9588 25.0522 59.505 24.4513 60.0186L25.6997 60.3449L26.2227 58.38Z" fill="#24F0FD"/>
<path d="M18.3686 64.1602C18.1391 64.2822 17.9094 64.4013 17.6794 64.5173L18.2353 64.6628L18.3686 64.1602Z" fill="#3078A9"/>
<path d="M25.7002 60.3455L24.4518 60.0193C22.5851 61.6195 20.5444 63.0085 18.3674 64.1605L18.2341 64.6624L24.1388 66.2039L25.7002 60.3455Z" fill="#23ACCF"/>
<path d="M10.7695 68.9774L16.6792 70.5215L18.2355 64.6663L17.6797 64.5208C15.6341 65.5438 13.4966 66.3752 11.2951 67.0042L10.7695 68.9774Z" fill="#23ACCF"/>
<path d="M11.2934 66.9998C9.87065 67.4077 8.42595 67.7362 6.96609 67.9834L10.7678 68.9764L11.2934 66.9998Z" fill="#19CBD2"/>
<path d="M4.62591 68.3069L4.24379 69.7478C1.99496 69.1748 0.515425 68.6771 0.110501 68.5383L0 68.5007C0 68.5007 1.80766 68.6147 4.62591 68.3069Z" fill="#19CBD2"/>
<path d="M10.7709 68.98L10.2302 71.0118C7.90963 70.6245 5.87336 70.1644 4.2453 69.7512L4.62741 68.3103C5.3461 68.2342 6.13221 68.1288 6.96993 67.9857L10.7709 68.98Z" fill="#1A7F99"/>
<path d="M16.6778 70.5233L16.3455 71.7704C14.1608 71.5981 12.1034 71.3279 10.2282 71.0117L10.7689 68.98L16.6778 70.5233Z" fill="#1A5E8C"/>
<path d="M22.1617 71.9538C20.1549 71.9873 18.2038 71.9119 16.3414 71.768L16.6737 70.5209L22.1617 71.9538Z" fill="#015189"/>
<path d="M30.0566 67.7486L29.0874 71.3864C26.9454 71.7127 24.7841 71.8998 22.6175 71.9467L24.1476 66.2053L30.0566 67.7486Z" fill="#0A47AD"/>
<path d="M35.9648 69.2887L35.8333 69.7779C33.634 70.5023 31.3764 71.0396 29.0851 71.384L30.0543 67.7462L35.9648 69.2887Z" fill="#4710B7"/>
<path d="M36.7015 69.4841C36.4122 69.5853 36.1238 69.6865 35.8344 69.7794L35.966 69.29L36.7015 69.4841Z" fill="#670097"/>
<path d="M43.43 64.9747V64.9798L43.0344 66.4626C41.0363 67.6838 38.9162 68.6968 36.708 69.4856L35.9725 69.2915L37.5288 63.4363L43.43 64.9747Z" fill="#320097"/>
<path d="M44.7606 65.3245C44.1954 65.7252 43.6168 66.1042 43.0348 66.4621L43.4304 64.9793V64.9744L44.7606 65.3245Z" fill="#004E8F"/>
<path d="M50.1707 60.4778C48.5623 62.2971 46.7464 63.9251 44.7595 65.3293L43.4293 64.9838V64.9788L44.9847 59.1235L50.1748 60.4761L50.1707 60.4778Z" fill="#320097"/>
<path d="M54.0132 55.2117C53.1979 56.5811 52.2905 57.8946 51.2971 59.143L52.4493 54.8052L54.0132 55.2117Z" fill="#320097"/>
<path d="M56.8831 49.6936C56.4495 50.5367 56.0076 51.4176 55.5652 52.3285C55.0714 53.3356 54.554 54.2967 54.0131 55.2118L52.4492 54.8027L54.0049 48.943L56.8831 49.6936Z" fill="#670097"/>
<path d="M59.8651 44.203C58.9047 45.8603 57.9113 47.6899 56.885 49.6918L54.0069 48.9388L55.5672 43.0837L59.8651 44.203Z" fill="#97008E"/>
<path d="M63.031 38.7653L62.862 39.402C61.9055 40.824 60.9021 42.4133 59.8649 44.2033L55.5672 43.0825L57.1226 37.2273L63.031 38.7653Z" fill="#BF0145"/>
<path d="M63.2553 38.8247C63.128 39.0146 62.9964 39.2045 62.8606 39.4019L63.0296 38.7653L63.2553 38.8247Z" fill="#A3013B"/>
<path d="M67.362 33.6326C66.0908 35.0069 64.7217 36.71 63.2548 38.8262L63.0295 38.7669L64.5858 32.9116L67.362 33.6326Z" fill="#BF0145"/>
<path d="M70.5452 28.1956L72.0535 28.5893L72.1708 28.1485C71.6285 28.1327 71.0857 28.1485 70.5452 28.1956Z" fill="#FF0000"/>
<path d="M74.9999 28.4671C74.48 28.5821 73.9717 28.7443 73.4816 28.9514L72.0578 28.5809L72.1768 28.1468V28.1426C73.1255 28.1704 74.07 28.279 74.9999 28.4671Z" fill="#CF0186"/>
<path d="M73.4582 28.9565C72.851 29.2221 72.266 29.5352 71.7089 29.8928L72.053 28.5905L73.4582 28.9565Z" fill="#E80179"/>
<path d="M72.0512 28.5919L71.7087 29.8942C70.4206 30.7081 68.9748 31.9017 67.3688 33.6333L64.5927 32.908L66.0711 27.3313C66.8948 27.7002 67.6894 28.13 68.4481 28.6169C68.4481 28.6169 69.1879 28.3216 70.5477 28.1987L72.0512 28.5919Z" fill="#E8115D"/>
<path d="M44.9993 35.2636C44.6366 34.7495 44.2384 34.2421 43.8048 33.7413L39.3916 32.5878L37.8344 38.4489L43.7442 39.9913L44.9993 35.2636Z" fill="#C3D42F"/>
<path d="M49.6535 41.5372L49.0411 43.8425C49.0404 45.0842 48.8966 46.3219 48.6126 47.5313L54.0062 48.9407L55.5642 43.0804L49.6535 41.5372Z" fill="#FF6600"/>
<path d="M48.0966 47.3965L48.4261 47.4803C48.4312 47.0504 48.4261 46.6258 48.4126 46.2021L48.0966 47.3965Z" fill="#FF6600"/>
<path d="M48.8937 41.3385C48.9981 42.1689 49.0477 43.0052 49.0423 43.8421L49.6547 41.5402L48.8937 41.3385ZM47.6985 41.0266L43.7458 39.9935L42.1869 45.8529L48.0915 47.3954L48.4105 46.2068C48.3775 44.4584 48.1385 42.7199 47.6985 41.0266Z" fill="#FFB400"/>
<path d="M43.7446 39.9953L47.6948 41.0275C47.1492 38.9628 46.2351 37.0118 44.9958 35.2667L43.7446 39.9953Z" fill="#FFCC00"/>
<path d="M49.6537 41.5386L51.2109 35.6833L46.8009 34.5315C48.0393 37.0258 48.644 39.347 48.8937 41.3445L49.6537 41.5386Z" fill="#FFCC00"/>
<path d="M52.4518 54.8018L51.297 59.1397C50.9267 59.5989 50.5615 60.0373 50.1785 60.4634V60.4676L44.9924 59.1104V59.1054L46.5488 53.2501L52.4518 54.8018Z" fill="#004E8F"/>
</svg>
