<svg width="52" height="72" viewBox="0 0 52 72" fill="none" xmlns="http://www.w3.org/2000/svg">
<g clip-path="url(#clip0_571_3048)">
<path fill-rule="evenodd" clip-rule="evenodd" d="M44.4807 44.9351L52 62.3096L42.573 62.2012L34.8258 68.4128L28.0301 52.0463C29.9947 51.5746 31.9394 50.5933 33.9026 49.0714L34.1391 48.8997L34.1348 48.894L34.263 48.7955L34.2573 48.787C34.5066 48.5899 34.7631 48.3886 34.991 48.2168C35.4654 48.2464 35.9783 48.2647 36.618 48.2351C37.4998 48.1957 38.4458 48.0578 39.4915 47.7255C40.4118 47.4327 41.2652 47.0737 42.0488 46.6457C42.8577 46.2058 43.6179 45.6834 44.3168 45.0871L44.3111 45.0801L44.4807 44.9351ZM25.2079 0.00284799C26.1496 -0.0224937 26.9916 0.122517 27.7737 0.388605C28.4946 0.633575 29.1556 0.984135 29.8067 1.39242C30.4677 1.79789 31.0903 2.32021 31.7556 2.88335C32.3924 3.42116 33.0948 4.01247 33.8 4.4109L33.8456 4.43765C34.1362 4.54746 34.8785 4.57702 35.6549 4.60377C38.3603 4.70233 41.2795 4.80932 43.4706 8.0235L43.5902 8.21356C45.1588 10.5957 45.2756 12.3795 45.3882 14.1252L45.3939 14.2477C45.4295 14.7855 45.4922 15.2909 45.6631 15.7907C45.8512 16.3187 46.1817 16.9269 46.7658 17.6914C48.3486 19.7581 49.3259 21.57 49.7277 23.3285C50.2035 25.4149 49.8915 27.2733 48.8301 29.143C48.0736 30.472 47.0636 31.328 46.1732 32.0812C45.8512 32.3529 45.6916 32.2994 45.6275 32.4487L45.562 32.5909C45.4095 33.0372 45.3996 33.5862 45.3924 34.1452C45.3711 35.5812 45.3454 37.0693 44.3254 39.0586C43.6857 40.3032 42.8494 41.3549 41.8279 42.2137C40.825 43.0668 39.6525 43.7018 38.3219 44.1256C36.9585 44.5592 35.8658 44.4832 34.8329 44.41C34.4382 44.3832 34.1576 44.3156 34.1106 44.3353C33.3698 44.6521 32.5833 45.2772 31.8439 45.8615L31.673 45.9882C27.0585 49.6289 22.9726 49.3474 18.5718 45.8615C17.8339 45.2772 17.046 44.6535 16.3038 44.3466C16.2297 44.3142 15.6983 44.4015 15.5829 44.41C14.5486 44.4832 13.4559 44.5592 12.0939 44.1256C10.7619 43.7018 9.59079 43.0668 8.58784 42.2249C7.57205 41.3718 6.73721 40.3159 6.09041 39.0586C5.06751 37.0679 5.04471 35.5798 5.02334 34.1438C5.01479 33.5229 5.0034 32.9161 4.79967 32.4487C4.72844 32.284 4.576 32.3628 4.24263 32.0812C3.35364 31.3294 2.34071 30.4748 1.58422 29.143C0.522849 27.2733 0.212274 25.4149 0.68811 23.3285C1.08844 21.5686 2.06575 19.7581 3.64855 17.6914C4.23266 16.9269 4.5646 16.3187 4.74838 15.7893L4.784 15.6908C4.93074 15.2248 4.98773 14.7503 5.01907 14.2477L5.03189 14.0562C5.14729 12.2851 5.28406 10.4732 6.94378 8.03476C9.13348 4.81073 12.054 4.70233 14.7609 4.60377C15.5858 4.57421 16.3722 4.54324 16.6186 4.41653C17.3224 4.01247 18.0233 3.42116 18.663 2.88054L18.8368 2.74398C19.4366 2.24136 20.0022 1.77114 20.5991 1.39805C21.2345 0.991174 21.897 0.640614 22.6407 0.388605C23.4228 0.122517 24.2605 -0.0224937 25.2079 0.00284799ZM25.2093 2.47507C26.3946 2.42439 27.3292 2.83267 28.2723 3.42539C29.469 4.17578 30.8168 5.65686 32.4793 6.59732C34.8201 7.91791 39.1539 6.09471 41.3735 9.35394C42.6685 11.2532 42.7283 12.7441 42.8252 14.2153C42.9292 15.8034 43.2113 17.2634 44.8553 19.4132C47.5779 22.9709 48.1449 25.3389 46.743 27.8069C45.7856 29.4893 43.7726 30.4242 43.3067 31.4899C42.3152 33.7566 43.4122 35.4657 42.0545 38.1083C41.1128 39.9428 39.6582 41.1507 37.7207 41.7674C36.088 42.2869 34.4496 41.5351 33.1418 42.0785C30.8438 43.0317 29.1485 45.2505 27.3207 45.8108C26.6155 46.0262 25.9117 46.1332 25.2093 46.129C24.507 46.1332 23.8032 46.0262 23.098 45.8108C21.2687 45.2505 19.5748 43.0317 17.2768 42.0785C15.969 41.5351 14.3306 42.2869 12.6965 41.7674C10.7604 41.1507 9.30586 39.9428 8.36416 38.1083C7.00647 35.4657 8.10345 33.7566 7.11189 31.4899C6.64603 30.4242 4.63156 29.4893 3.67562 27.8069C2.27233 25.3389 2.84077 22.9709 5.56186 19.4132C7.20592 17.2634 7.488 15.8034 7.592 14.2153C7.68888 12.7441 7.75014 11.2532 9.04373 9.35394C11.2633 6.09471 15.5986 7.91791 17.9379 6.59732C19.6019 5.65686 20.9482 4.17578 22.1463 3.42539C23.0894 2.83267 24.024 2.42439 25.2093 2.47507ZM25.4828 18.0025L27.2637 22.1233L31.7813 22.5232C31.8287 22.5271 31.8748 22.5402 31.9171 22.5618C31.9593 22.5834 31.9968 22.6131 32.0274 22.649C32.058 22.685 32.0811 22.7266 32.0953 22.7715C32.1095 22.8163 32.1147 22.8635 32.1104 22.9103C32.1023 23.0028 32.0584 23.0885 31.9878 23.1497L28.5715 26.0978L29.5816 30.4692C29.5978 30.5388 29.5927 30.6116 29.5667 30.6783C29.5407 30.745 29.4952 30.8025 29.4359 30.8433C29.3766 30.8842 29.3063 30.9066 29.234 30.9077C29.1617 30.9088 29.0907 30.8884 29.0302 30.8493L25.1481 28.5559L21.2545 30.8564C21.0821 30.9577 20.8598 30.9028 20.7573 30.7325C20.7091 30.6535 20.6937 30.5591 20.7145 30.4692L21.726 26.0978L18.3083 23.1497C18.2723 23.1188 18.243 23.0812 18.2218 23.039C18.2006 22.9968 18.1881 22.951 18.1849 22.904C18.1817 22.857 18.188 22.8099 18.2033 22.7653C18.2186 22.7207 18.2426 22.6796 18.2741 22.6442C18.341 22.5682 18.4336 22.5274 18.5277 22.5218L23.0324 22.1233L24.8147 17.9997C24.893 17.8167 25.1053 17.7322 25.2905 17.8096C25.3817 17.8476 25.4472 17.9194 25.4828 18.0025ZM25.1481 10.5436C32.9894 10.5436 39.3476 16.8269 39.3476 24.5759C39.3476 32.3262 32.9894 38.6081 25.1481 38.6081C17.3053 38.6081 10.9485 32.3262 10.9485 24.5759C10.9485 16.8269 17.3053 10.5436 25.1481 10.5436ZM25.1481 12.913C31.6659 12.913 36.9499 18.1348 36.9499 24.5759C36.9499 31.0183 31.6659 36.2387 25.1481 36.2387C18.6288 36.2387 13.3462 31.0183 13.3462 24.5759C13.3462 18.1348 18.6288 12.913 25.1481 12.913ZM25.101 52.3771L17.1742 72L9.42696 65.7899L0 65.8969L8.22312 46.5682L8.37271 46.6513C9.15627 47.0751 10.0096 47.4355 10.9243 47.7255C11.9685 48.0578 12.9145 48.1957 13.7964 48.2351C14.4289 48.2647 14.939 48.2464 15.4105 48.2183C15.6427 48.3914 15.9106 48.6026 16.167 48.8067L16.1727 48.811C19.0334 51.0748 21.9055 52.3025 24.9529 52.3757L25.101 52.3771Z" fill="black"/>
</g>
<defs>
<clipPath id="clip0_571_3048">
<rect width="52" height="72" fill="white"/>
</clipPath>
</defs>
</svg>
