<svg width="75" height="70" viewBox="0 0 75 70" fill="none" xmlns="http://www.w3.org/2000/svg">
<path fill-rule="evenodd" clip-rule="evenodd" d="M16.2212 32.3558L20.9377 14.7782H24.9649L33.2473 45.4221L36.2407 33.9731L38.3094 32.3558H46.0178L50.7342 14.7782H54.9908L59.5926 32.3558H73.1712C74.2055 29.3484 74.7795 26.1098 74.7795 22.7577C74.7795 10.1534 65.1172 0.0920334 53.2668 0.0920334C46.9373 0.0920334 41.417 2.86956 37.3902 7.26333C33.4777 2.86956 27.8421 0.0920334 21.6315 0.0920334C9.78168 0.0920334 0 10.1534 0 22.7577C0 26.1098 0.689279 29.3484 1.61253 32.3558H16.2212Z" fill="url(#paint0_linear_78_4132)"/>
<path fill-rule="evenodd" clip-rule="evenodd" d="M57.9842 36.7507L55.9155 35.1285L52.8079 23.6819L49.7007 35.1285L47.6317 36.7507H40.0384L35.322 54.327H31.1801L22.8966 23.6819L19.9042 35.1285L17.8357 36.7507H3.22266C12.31 56.4065 37.3911 69.1257 37.3911 69.1257C37.3911 69.1257 62.4707 56.4065 71.5585 36.7507H57.9842Z" fill="#646665"/>
<defs>
<linearGradient id="paint0_linear_78_4132" x1="4.0641" y1="45.4221" x2="85.5308" y2="13.9439" gradientUnits="userSpaceOnUse">
<stop offset="0.00164986" stop-color="#5552FF"/>
<stop offset="0.489583" stop-color="#00C1EB"/>
<stop offset="1" stop-color="#00E3AD"/>
</linearGradient>
</defs>
</svg>
