<svg width="65" height="72" viewBox="0 0 65 72" fill="none" xmlns="http://www.w3.org/2000/svg">
<g clip-path="url(#clip0_571_3053)">
<path d="M0.029348 38.127C0.0117392 38.6016 0 39.082 0 39.5625C0 41.8008 0.217175 43.9629 0.645656 46.084C1.05066 48.1641 1.67871 50.168 2.51806 52.1367C2.51806 52.1602 2.54154 52.1953 2.55328 52.2188C3.38676 54.1816 4.4022 56.0156 5.55852 57.7441C6.70896 59.4785 8.03549 61.0723 9.49702 62.5312C10.9586 64.0078 12.561 65.3145 14.2925 66.457C16.0299 67.623 17.8788 68.6191 19.8275 69.457C21.8173 70.3125 23.8658 70.9336 25.9671 71.3613C28.0626 71.7832 30.2461 72 32.4883 72C34.7304 72 36.8963 71.7832 39.0211 71.3555C41.1048 70.9512 43.1122 70.3242 45.0844 69.4863C45.1079 69.4863 45.1431 69.4629 45.1666 69.4512C47.1153 68.6191 48.9701 67.6055 50.7016 66.4512C52.439 65.3027 54.0356 63.9785 55.4971 62.5254C56.9762 61.0664 58.2852 59.4668 59.4356 57.7383C60.6037 56.0039 61.5956 54.1582 62.4408 52.2129C63.2978 50.2266 63.92 48.1816 64.3485 46.084C64.777 43.9805 64.9941 41.8008 64.9941 39.5625C64.9941 39.082 64.9824 38.6074 64.9648 38.1328C43.3822 38.127 21.6647 38.127 0.029348 38.127ZM2.88198 40.9805H11.8683C12.2029 45.416 13.682 49.8691 16.3116 54.3691H6.80287C6.1983 53.3203 5.65243 52.2305 5.16525 51.082C5.14177 51.0586 5.14177 51.0469 5.13003 51.0234C4.39046 49.2539 3.8035 47.4199 3.43372 45.5156C3.13437 44.0391 2.94654 42.5391 2.88198 40.9805ZM8.6518 57.2109H18.1429C20.8488 61.1016 24.4234 65.0156 28.8667 68.9414C28.0684 68.8477 27.2878 68.7246 26.5306 68.5723C24.5995 68.1797 22.7506 67.6172 20.9545 66.8379C19.1408 66.0645 17.4503 65.1445 15.8655 64.0898C14.2866 63.041 12.8427 61.8516 11.4986 60.5098C10.4655 59.4785 9.50876 58.3887 8.6518 57.2227V57.2109ZM36.1215 68.9414C40.5883 65.0098 44.1512 61.1016 46.8453 57.2109H56.3365C55.4795 58.377 54.5228 59.4727 53.4897 60.498C52.1456 61.8398 50.7016 63.0293 49.1227 64.0781C47.5614 65.127 45.8651 66.041 44.0338 66.8262C44.0103 66.8496 43.9986 66.8496 43.9751 66.8613C42.2025 67.5996 40.3653 68.1855 38.4576 68.5547C37.677 68.7129 36.8963 68.8301 36.1215 68.9238V68.9414ZM58.1913 54.3691H48.6766C51.3121 49.875 52.7912 45.4219 53.1199 40.9805H62.1063C62.03 42.5391 61.8539 44.0391 61.5604 45.5156C61.1671 47.4434 60.6037 49.2891 59.823 51.082C59.3358 52.2246 58.79 53.3203 58.1913 54.3691ZM33.9204 67.0957V57.2109H43.3529C40.8759 60.4805 37.7357 63.7676 33.9204 67.0957ZM33.9204 54.3691V40.9805H50.2732C49.9034 45.3809 48.2658 49.834 45.3427 54.3691H33.9204ZM31.0737 40.9805V54.3691H19.6514C16.7284 49.834 15.0908 45.375 14.721 40.9805H31.0737ZM31.0737 57.2109V67.0957C27.2526 63.7676 24.1123 60.4805 21.6354 57.2109H31.0737Z" fill="black"/>
<path fill-rule="evenodd" clip-rule="evenodd" d="M48.9652 22.3479L49.9807 22.3245L50.8259 22.301C49.8339 19.2717 50.1685 16.4885 52.5398 14.1213C52.9389 15.4221 53.8429 16.4944 55.3807 17.2854C56.1144 17.8303 56.8246 18.4866 57.5114 19.2424C57.6346 18.7385 57.1709 18.135 56.6074 17.5081C57.1298 17.7659 57.6053 18.1233 57.9516 18.8147C58.3507 19.6174 58.3448 20.2971 58.2098 21.1643C58.1453 21.5686 58.0514 21.9436 57.9105 22.2952H59.3133C60.7925 19.1252 59.8533 14.426 56.8246 12.4397C55.8913 11.8303 55.2281 11.8538 54.1363 11.8538C52.8861 11.8538 52.2463 11.8889 51.1781 12.5979C49.605 13.6409 48.6365 15.4397 48.2256 17.9417C48.1493 19.1897 48.0906 21.3459 48.9652 22.3479ZM0.564453 33.5803C0.687715 30.1585 4.79644 30.0237 8.00711 28.0256L10.1554 33.5803H0.564453ZM14.493 31.6995H14.9156C15.2972 31.6995 15.6083 31.3889 15.6083 31.0081V29.8889C15.6083 29.5081 15.2972 29.1975 14.9156 29.1975H12.4093C12.0278 29.1975 11.7167 29.5081 11.7167 29.8889V31.0081C11.7167 31.3889 12.0278 31.6995 12.4093 31.6995H12.8378L12.468 33.5803H14.8511L14.493 31.6995ZM10.1084 25.6116C10.1906 24.9612 8.26537 22.8225 7.9132 21.6389C7.16189 20.4436 6.89189 19.2073 7.71363 17.9417C8.04233 17.4377 7.90146 16.0842 7.90146 15.3928C7.90146 8.5315 19.9518 8.52564 19.9518 15.3928C19.9518 16.26 19.7522 17.3909 20.2218 18.0764C21.0083 19.219 20.6033 20.5842 19.9341 21.6448C19.5115 22.8928 17.4983 24.9085 17.6333 25.6174C17.7565 29.1331 10.085 29.0159 10.1084 25.6116ZM29.9301 24.2639L32.9471 33.1057L34.4673 27.8557L33.7219 27.0471C33.3814 26.5549 33.311 26.1331 33.4988 25.7639C33.9038 24.9729 34.7314 25.1135 35.5062 25.1135C36.3221 25.1135 37.3317 24.9612 37.5841 25.9807C37.6662 26.3264 37.5606 26.678 37.3258 27.0471L36.5803 27.8557L38.1006 33.1057L40.8299 24.2639C44.3811 27.4573 51.5361 25.5881 52.3989 33.5745H17.4044C18.3141 25.1663 26.3496 27.4866 29.9301 24.2639ZM27.4707 12.5569C27.4883 13.0549 27.7466 13.7053 28.2572 14.4612L28.269 14.4729L29.9536 17.1448C30.6286 18.217 31.3271 19.301 32.2075 20.0979C33.0351 20.8596 34.0564 21.3752 35.3888 21.3752C36.8386 21.3811 37.8893 20.842 38.7521 20.0393C39.6502 19.2014 40.3662 18.0413 41.0706 16.887L42.9665 13.7756C43.3539 12.8967 43.4713 12.3635 43.3421 12.1057C43.2717 11.9592 43.0076 11.9065 42.585 11.9241C42.2915 12.0061 41.951 12.0061 41.546 11.8948L42.315 8.95923C36.3749 9.56861 33.0351 4.01978 28.8031 8.23853L29.3549 11.719C28.6681 11.8596 27.4238 11.4143 27.4707 12.5569ZM43.4595 10.9221C43.8587 11.0452 44.1463 11.2678 44.3224 11.6252C44.61 12.1936 44.4926 13.0432 43.9584 14.2561C43.9467 14.2795 43.935 14.2971 43.9291 14.3206L42.0097 17.4729C41.2643 18.6917 40.513 19.9163 39.5034 20.8596C38.4586 21.844 37.1556 22.5002 35.3829 22.4885C33.7277 22.4827 32.4775 21.8557 31.4562 20.9182C30.4701 20.0217 29.7247 18.8674 29.0144 17.7424L27.3299 15.0706C26.7077 14.1389 26.3848 13.2893 26.3614 12.5862C26.3496 12.2463 26.4083 11.9475 26.5375 11.6721C26.6725 11.3909 26.872 11.1506 27.1479 10.9631C27.2829 10.8811 27.4355 10.7991 27.594 10.7405C27.4883 9.29907 27.4531 7.51196 27.5235 6.01782C27.5588 5.65454 27.6292 5.29126 27.729 4.92212C28.1575 3.38696 29.2433 2.1565 30.5757 1.30103C31.0453 1.00806 31.5618 0.750245 32.1077 0.556886C35.336 -0.603271 39.6208 0.035401 41.9158 2.51392C42.855 3.52173 43.4419 4.86353 43.5652 6.63892L43.4595 10.9221ZM52.8274 28.1077L53.5846 25.4768L53.2148 25.0725C53.0446 24.8323 53.0152 24.6155 53.1033 24.4338C53.3029 24.0354 53.7196 24.1116 54.107 24.1116C54.512 24.1116 55.0168 24.0295 55.1459 24.5452C55.187 24.7151 55.1342 24.8909 55.0226 25.0784L54.647 25.4885L55.4042 28.1194L54.1129 29.1389L52.8274 28.1077ZM59.6127 27.1936C59.0375 26.0452 58.3096 25.0667 57.4585 24.1526C59.0551 24.7678 60.6927 25.3772 61.896 26.1389C62.6649 26.6194 63.064 26.9827 63.3692 27.5627C64.0325 28.8049 64.1029 29.9124 64.1968 31.26L64.4316 33.5803H55.099C54.8466 32.5081 54.7057 31.6116 54.1774 30.4221C55.7916 28.8342 57.5114 27.5452 59.6127 27.1936ZM48.1611 25.1897C49.0533 24.7971 49.9748 24.4631 50.7789 24.1526C50.3211 24.6506 49.8985 25.1604 49.517 25.7053C49.0885 25.5295 48.6365 25.3538 48.1611 25.1897Z" fill="black"/>
</g>
<defs>
<clipPath id="clip0_571_3053">
<rect width="65" height="72" fill="white"/>
</clipPath>
</defs>
</svg>
