<svg width="76" height="76" viewBox="0 0 76 76" fill="none" xmlns="http://www.w3.org/2000/svg">
<g clip-path="url(#clip0_485_5122)">
<path fill-rule="evenodd" clip-rule="evenodd" d="M22.5625 58.1875V61.75C22.5625 62.4055 23.0945 62.9375 23.75 62.9375H28.5C29.1555 62.9375 29.6875 62.4055 29.6875 61.75C29.6875 61.0945 29.1555 60.5625 28.5 60.5625H24.9375V58.1875H41.5625V60.5625H38C37.3445 60.5625 36.8125 61.0945 36.8125 61.75C36.8125 62.4055 37.3445 62.9375 38 62.9375H42.75C43.4055 62.9375 43.9375 62.4055 43.9375 61.75V58.1875H46.3125V59.375C46.3125 60.0305 46.8445 60.5625 47.5 60.5625H51.0625V61.75C51.0625 62.4055 51.5945 62.9375 52.25 62.9375H65.3125V66.5C65.3125 67.1555 65.8445 67.6875 66.5 67.6875C67.1555 67.6875 67.6875 67.1555 67.6875 66.5V14.25C67.6875 13.5945 67.1555 13.0625 66.5 13.0625C65.8445 13.0625 65.3125 13.5945 65.3125 14.25V17.8125H52.25C51.5945 17.8125 51.0625 18.3445 51.0625 19V20.1875H47.5C46.8445 20.1875 46.3125 20.7195 46.3125 21.375V22.5625H43.9375V15.4375H47.5C48.1555 15.4375 48.6875 14.9055 48.6875 14.25V10.6875H52.25C52.9055 10.6875 53.4375 10.1555 53.4375 9.5C53.4375 8.8445 52.9055 8.3125 52.25 8.3125H14.25C13.5945 8.3125 13.0625 8.8445 13.0625 9.5C13.0625 10.1555 13.5945 10.6875 14.25 10.6875H17.8125V14.25C17.8125 14.9055 18.3445 15.4375 19 15.4375H22.5625V22.5625H20.1875V21.375C20.1875 20.7195 19.6555 20.1875 19 20.1875H14.25C13.5945 20.1875 13.0625 20.7195 13.0625 21.375V36.8125H10.6875V35.625C10.6875 34.9695 10.1555 34.4375 9.5 34.4375C8.8445 34.4375 8.3125 34.9695 8.3125 35.625V45.125C8.3125 45.7805 8.8445 46.3125 9.5 46.3125C10.1555 46.3125 10.6875 45.7805 10.6875 45.125V43.9375H13.0625V59.375C13.0625 60.0305 13.5945 60.5625 14.25 60.5625H19C19.6555 60.5625 20.1875 60.0305 20.1875 59.375V58.1875H22.5625ZM33.25 60.5625C33.9055 60.5625 34.4375 61.0945 34.4375 61.75C34.4375 62.4055 33.9055 62.9375 33.25 62.9375C32.5945 62.9375 32.0625 62.4055 32.0625 61.75C32.0625 61.0945 32.5945 60.5625 33.25 60.5625ZM53.4375 20.1875V60.5625H65.3125V20.1875H53.4375ZM17.8125 22.5625V58.1875H15.4375V22.5625H17.8125ZM51.0625 22.5625V58.1875H48.6875V22.5625H51.0625ZM42.75 55.8125H46.3125V24.9375H20.1875V55.8125H42.75ZM29.6875 29.6875C29.2386 29.6875 28.8254 29.9416 28.6259 30.343L25.0634 37.468C24.795 38.0047 24.9684 38.6555 25.4671 38.988L28.5 41.0115V49.875C28.5 50.3429 28.7755 50.7656 29.2006 50.958C29.6281 51.1504 30.1269 51.0744 30.476 50.7633L41.1635 41.2633C41.439 41.0186 41.5863 40.66 41.5601 40.2919C41.534 39.9261 41.3393 39.5912 41.0329 39.387L38.3444 37.5939L41.4366 31.407C41.6219 31.0389 41.6005 30.6019 41.3844 30.2504C41.1682 29.9013 40.7859 29.6875 40.375 29.6875H29.6875ZM30.4214 32.0625H38.4536L35.7509 37.468C35.4825 38.0047 35.6559 38.6555 36.1546 38.988L38.437 40.5104L30.875 47.2316V40.375C30.875 39.9784 30.6755 39.6079 30.3454 39.387L27.6569 37.5939L30.4214 32.0625ZM13.0625 39.1875V41.5625H10.6875V39.1875H13.0625ZM41.5625 15.4375H24.9375V22.5625H41.5625V15.4375ZM46.3125 10.6875V13.0625H20.1875V10.6875H46.3125Z" fill="url(#paint0_linear_485_5122)"/>
</g>
<defs>
<linearGradient id="paint0_linear_485_5122" x1="8.3125" y1="8.3125" x2="78.0997" y2="9.85412" gradientUnits="userSpaceOnUse">
<stop offset="0.0927951" stop-color="#FFAD00"/>
<stop offset="1" stop-color="#009FA9"/>
</linearGradient>
<clipPath id="clip0_485_5122">
<rect width="76" height="76" fill="white"/>
</clipPath>
</defs>
</svg>
