<svg width="58" height="58" viewBox="0 0 58 58" fill="none" xmlns="http://www.w3.org/2000/svg">
<path d="M2.0038 22.4618H55.9026C56.0776 22.4618 56.2499 22.4183 56.4039 22.3351C56.558 22.2519 56.6888 22.1317 56.7848 21.9853C56.8807 21.8389 56.9387 21.6709 56.9535 21.4965C56.9683 21.3221 56.9394 21.1467 56.8695 20.9862C54.8055 16.2462 51.4367 12.2358 47.1272 9.38866C42.7379 6.48897 37.5975 4.9563 32.2612 4.9563H25.6452C20.309 4.9563 15.1684 6.48897 10.7793 9.38866C6.4698 12.2358 3.10085 16.2462 1.03689 20.9862C0.96702 21.1467 0.93819 21.322 0.953002 21.4964C0.967813 21.6708 1.0258 21.8388 1.12173 21.9852C1.21766 22.1316 1.34852 22.2518 1.50251 22.335C1.6565 22.4182 1.82878 22.4618 2.0038 22.4618ZM11.9418 11.1485C15.9851 8.47732 20.7237 7.06539 25.6452 7.06539H32.2612C37.1829 7.06539 41.9214 8.47732 45.9646 11.1485C49.4775 13.4693 52.3117 16.6297 54.2345 20.3527H3.67188C5.59474 16.6297 8.42894 13.4693 11.9418 11.1485Z" fill="url(#paint0_linear_485_5129)"/>
<path d="M19.4112 18.4095C19.9921 18.4095 20.463 17.9386 20.463 17.3577C20.463 16.7768 19.9921 16.3059 19.4112 16.3059C18.8303 16.3059 18.3594 16.7768 18.3594 17.3577C18.3594 17.9386 18.8303 18.4095 19.4112 18.4095Z" fill="url(#paint1_linear_485_5129)"/>
<path d="M21.1983 11.7833C21.7792 11.7833 22.2501 11.3124 22.2501 10.7315C22.2501 10.1506 21.7792 9.67969 21.1983 9.67969C20.6174 9.67969 20.1465 10.1506 20.1465 10.7315C20.1465 11.3124 20.6174 11.7833 21.1983 11.7833Z" fill="url(#paint2_linear_485_5129)"/>
<path d="M38.6593 13.887C39.2403 13.887 39.7112 13.4161 39.7112 12.8351C39.7112 12.2542 39.2403 11.7832 38.6593 11.7832C38.0784 11.7832 37.6074 12.2542 37.6074 12.8351C37.6074 13.4161 38.0784 13.887 38.6593 13.887Z" fill="url(#paint3_linear_485_5129)"/>
<path d="M31.2959 10.7315C31.8768 10.7315 32.3477 10.2606 32.3477 9.67973C32.3477 9.09884 31.8768 8.62793 31.2959 8.62793C30.715 8.62793 30.2441 9.09884 30.2441 9.67973C30.2441 10.2606 30.715 10.7315 31.2959 10.7315Z" fill="url(#paint4_linear_485_5129)"/>
<path d="M26.2471 15.2542C26.828 15.2542 27.2989 14.7833 27.2989 14.2024C27.2989 13.6215 26.828 13.1506 26.2471 13.1506C25.6662 13.1506 25.1953 13.6215 25.1953 14.2024C25.1953 14.7833 25.6662 15.2542 26.2471 15.2542Z" fill="url(#paint5_linear_485_5129)"/>
<path d="M34.6631 17.7787C35.244 17.7787 35.7149 17.3077 35.7149 16.7269C35.7149 16.146 35.244 15.675 34.6631 15.675C34.0822 15.675 33.6113 16.146 33.6113 16.7269C33.6113 17.3077 34.0822 17.7787 34.6631 17.7787Z" fill="url(#paint6_linear_485_5129)"/>
<path d="M13.1006 15.6749C13.6815 15.6749 14.1524 15.204 14.1524 14.6231C14.1524 14.0422 13.6815 13.5713 13.1006 13.5713C12.5197 13.5713 12.0488 14.0422 12.0488 14.6231C12.0488 15.204 12.5197 15.6749 13.1006 15.6749Z" fill="url(#paint7_linear_485_5129)"/>
<path d="M40.3428 18.4095C40.9237 18.4095 41.3946 17.9386 41.3946 17.3577C41.3946 16.7768 40.9237 16.3059 40.3428 16.3059C39.7619 16.3059 39.291 16.7768 39.291 17.3577C39.291 17.9386 39.7619 18.4095 40.3428 18.4095Z" fill="url(#paint8_linear_485_5129)"/>
<path d="M45.8116 16.306C46.3925 16.306 46.8634 15.8351 46.8634 15.2542C46.8634 14.6733 46.3925 14.2024 45.8116 14.2024C45.2307 14.2024 44.7598 14.6733 44.7598 15.2542C44.7598 15.8351 45.2307 16.306 45.8116 16.306Z" fill="url(#paint9_linear_485_5129)"/>
<path d="M55.9907 45.24H2.08412C1.93642 45.24 1.79037 45.271 1.65542 45.331C1.52048 45.391 1.39965 45.4787 1.30076 45.5885C1.20187 45.6982 1.12713 45.8274 1.08137 45.9678C1.03562 46.1083 1.01988 46.2568 1.03516 46.4037C1.21792 48.1595 1.91582 49.8014 2.99999 51.0269C4.15071 52.3274 5.63013 53.0436 7.16576 53.0436H51.111C52.648 53.0436 54.1016 52.32 55.204 51.006C56.2201 49.7951 56.8722 48.1574 57.0405 46.3947C57.0545 46.2484 57.0377 46.1008 56.9913 45.9614C56.9449 45.822 56.8698 45.6938 56.7709 45.5851C56.6721 45.4764 56.5517 45.3895 56.4173 45.3301C56.2829 45.2706 56.1376 45.24 55.9907 45.24ZM51.111 50.9345H7.16576C5.48165 50.9345 3.95098 49.4319 3.35696 47.3491H54.738C54.1883 49.4568 52.7508 50.9345 51.111 50.9345ZM4.89628 43.9745H52.9986C55.175 43.9745 56.9456 42.2039 56.9456 40.0276V40.0124C56.9456 37.836 55.175 36.0654 52.9985 36.0654H4.89628C2.7198 36.0654 0.949219 37.836 0.949219 40.0124V40.0276C0.949219 42.2039 2.7198 43.9745 4.89628 43.9745ZM3.05831 40.0124C3.05831 38.999 3.88275 38.1745 4.89628 38.1745H52.9986C54.012 38.1745 54.8366 38.999 54.8366 40.0124V40.0276C54.8366 41.041 54.0121 41.8654 52.9986 41.8654H4.89628C3.88275 41.8654 3.05831 41.041 3.05831 40.0276V40.0124ZM4.93139 31.2145H52.9988C55.1753 31.2145 56.9459 29.4406 56.9459 27.26C56.9459 25.0794 55.1753 23.3054 52.9988 23.3054H40.2021C39.9245 23.3054 39.658 23.415 39.4606 23.6103L36.9549 26.0887L34.418 23.6063C34.2209 23.4134 33.9561 23.3054 33.6804 23.3054H4.93139C2.75492 23.3054 0.984335 25.0794 0.984335 27.26C0.984335 29.4406 2.75492 31.2145 4.93139 31.2145ZM4.93139 25.4145H33.2503L36.2213 28.3217C36.6327 28.7242 37.2912 28.7226 37.7004 28.3177L40.6356 25.4145H52.9988C54.0123 25.4145 54.8368 26.2424 54.8368 27.26C54.8368 28.2775 54.0124 29.1054 52.9988 29.1054H4.93139C3.91798 29.1054 3.09343 28.2775 3.09343 27.26C3.09343 26.2424 3.91787 25.4145 4.93139 25.4145ZM2.03888 33.7687C4.11876 33.7687 5.13313 34.1009 6.20697 34.4526C7.39091 34.8404 8.61513 35.2413 11.0316 35.2413C13.4481 35.2413 14.6722 34.8404 15.8562 34.4526C16.9301 34.1009 17.9445 33.7687 20.0243 33.7687C22.104 33.7687 23.1184 34.1009 24.1922 34.4526C25.3762 34.8404 26.6004 35.2413 29.0169 35.2413C31.4334 35.2413 32.6576 34.8404 33.8415 34.4526C34.9155 34.1009 35.9299 33.7687 38.0096 33.7687C40.0897 33.7687 41.1041 34.1009 42.178 34.4526C43.3621 34.8404 44.5863 35.2413 47.003 35.2413C49.4196 35.2413 50.6438 34.8404 51.8279 34.4526C52.9019 34.1009 53.9163 33.7687 55.9963 33.7687C56.5786 33.7687 57.0508 33.2966 57.0508 32.7142C57.0508 32.1318 56.5786 31.6596 55.9963 31.6596C53.5797 31.6596 52.3555 32.0606 51.1714 32.4483C50.0974 32.8 49.083 33.1322 47.003 33.1322C44.9228 33.1322 43.9084 32.8 42.8345 32.4483C41.6505 32.0606 40.4262 31.6596 38.0096 31.6596C35.5933 31.6596 34.369 32.0606 33.1851 32.4483C32.1111 32.8 31.0968 33.1322 29.0169 33.1322C26.937 33.1322 25.9225 32.8 24.8487 32.4483C23.6648 32.0606 22.4406 31.6596 20.0243 31.6596C17.6078 31.6596 16.3837 32.0606 15.1997 32.4483C14.1258 32.8 13.1114 33.1322 11.0316 33.1322C8.95164 33.1322 7.93727 32.8 6.86343 32.4483C5.67949 32.0606 4.45537 31.6596 2.03888 31.6596C1.45656 31.6596 0.984335 32.1318 0.984335 32.7142C0.984335 33.2966 1.45656 33.7687 2.03888 33.7687Z" fill="url(#paint10_linear_485_5129)"/>
<defs>
<linearGradient id="paint0_linear_485_5129" x1="0.949219" y1="4.9563" x2="66.4838" y2="9.58808" gradientUnits="userSpaceOnUse">
<stop offset="0.0927951" stop-color="#FFAD00"/>
<stop offset="1" stop-color="#009FA9"/>
</linearGradient>
<linearGradient id="paint1_linear_485_5129" x1="18.3594" y1="16.3059" x2="20.8319" y2="16.3605" gradientUnits="userSpaceOnUse">
<stop offset="0.0927951" stop-color="#FFAD00"/>
<stop offset="1" stop-color="#009FA9"/>
</linearGradient>
<linearGradient id="paint2_linear_485_5129" x1="20.1465" y1="9.67969" x2="22.619" y2="9.73431" gradientUnits="userSpaceOnUse">
<stop offset="0.0927951" stop-color="#FFAD00"/>
<stop offset="1" stop-color="#009FA9"/>
</linearGradient>
<linearGradient id="paint3_linear_485_5129" x1="37.6074" y1="11.7832" x2="40.0802" y2="11.8378" gradientUnits="userSpaceOnUse">
<stop offset="0.0927951" stop-color="#FFAD00"/>
<stop offset="1" stop-color="#009FA9"/>
</linearGradient>
<linearGradient id="paint4_linear_485_5129" x1="30.2441" y1="8.62793" x2="32.7166" y2="8.68255" gradientUnits="userSpaceOnUse">
<stop offset="0.0927951" stop-color="#FFAD00"/>
<stop offset="1" stop-color="#009FA9"/>
</linearGradient>
<linearGradient id="paint5_linear_485_5129" x1="25.1953" y1="13.1506" x2="27.6678" y2="13.2053" gradientUnits="userSpaceOnUse">
<stop offset="0.0927951" stop-color="#FFAD00"/>
<stop offset="1" stop-color="#009FA9"/>
</linearGradient>
<linearGradient id="paint6_linear_485_5129" x1="33.6113" y1="15.675" x2="36.0838" y2="15.7297" gradientUnits="userSpaceOnUse">
<stop offset="0.0927951" stop-color="#FFAD00"/>
<stop offset="1" stop-color="#009FA9"/>
</linearGradient>
<linearGradient id="paint7_linear_485_5129" x1="12.0488" y1="13.5713" x2="14.5213" y2="13.6259" gradientUnits="userSpaceOnUse">
<stop offset="0.0927951" stop-color="#FFAD00"/>
<stop offset="1" stop-color="#009FA9"/>
</linearGradient>
<linearGradient id="paint8_linear_485_5129" x1="39.291" y1="16.3059" x2="41.7635" y2="16.3605" gradientUnits="userSpaceOnUse">
<stop offset="0.0927951" stop-color="#FFAD00"/>
<stop offset="1" stop-color="#009FA9"/>
</linearGradient>
<linearGradient id="paint9_linear_485_5129" x1="44.7598" y1="14.2024" x2="47.2323" y2="14.257" gradientUnits="userSpaceOnUse">
<stop offset="0.0927951" stop-color="#FFAD00"/>
<stop offset="1" stop-color="#009FA9"/>
</linearGradient>
<linearGradient id="paint10_linear_485_5129" x1="0.949219" y1="23.3054" x2="66.8068" y2="26.0499" gradientUnits="userSpaceOnUse">
<stop offset="0.0927951" stop-color="#FFAD00"/>
<stop offset="1" stop-color="#009FA9"/>
</linearGradient>
</defs>
</svg>
