<svg width="67" height="67" viewBox="0 0 67 67" fill="none" xmlns="http://www.w3.org/2000/svg">
<path d="M22.6795 5.23438C22.4019 5.23438 22.1356 5.34467 21.9392 5.541C21.7429 5.73732 21.6326 6.0036 21.6326 6.28125V13.6094H14.6311C11.5659 13.6094 9.07012 16.0968 9.07012 19.162V34.6055H9.045C8.0347 34.6066 7.0661 35.0084 6.35171 35.7228C5.63731 36.4372 5.23548 37.4058 5.23438 38.4161V49.6303C5.23438 51.7324 6.94288 53.4492 9.045 53.4492H9.07012V61.7656H19.5389V53.4492H46.7576V61.7656H57.2264V53.4492H57.9466C60.0488 53.4492 61.7573 51.7324 61.7573 49.6303V38.4161C61.7561 37.4058 61.3543 36.4372 60.6399 35.7228C59.9255 35.0084 58.9569 34.6066 57.9466 34.6055H57.2264V19.162C57.2264 16.0968 54.739 13.6094 51.6738 13.6094H44.6639V6.28125C44.6639 6.0036 44.5536 5.73732 44.3573 5.541C44.1609 5.34467 43.8946 5.23438 43.617 5.23438H22.6795ZM23.7348 7.32812H42.5785V13.6094H23.7348V7.32812ZM14.6311 15.7031H51.6738C53.5833 15.7031 55.141 17.2525 55.141 19.162V34.5469H11.1722V19.162C11.1722 17.2525 12.7216 15.7031 14.6311 15.7031ZM9.045 36.6992H57.955C58.4103 36.6992 58.847 36.8801 59.169 37.2021C59.491 37.5241 59.6719 37.9608 59.6719 38.4161V49.6303C59.6719 50.0864 59.4913 50.5239 59.1695 50.8472C58.8478 51.1705 58.4111 51.3533 57.955 51.3555L57.2348 51.3304H9.045C8.82048 51.332 8.59785 51.2893 8.3899 51.2047C8.18194 51.12 7.99276 50.9951 7.83322 50.8371C7.67369 50.6792 7.54694 50.4912 7.46025 50.2841C7.37357 50.077 7.32867 49.8548 7.32812 49.6303V38.4161C7.32812 37.9608 7.50901 37.5241 7.83099 37.2021C8.15296 36.8801 8.58966 36.6992 9.045 36.6992ZM14.405 42.7669C14.0718 42.7681 13.7527 42.9015 13.5179 43.1378C13.2831 43.3742 13.1518 43.6942 13.1529 44.0274C13.154 44.3606 13.2875 44.6796 13.5238 44.9145C13.7602 45.1493 14.0802 45.2805 14.4134 45.2794C14.7466 45.2778 15.0654 45.1438 15.2998 44.9071C15.5343 44.6703 15.665 44.3501 15.6633 44.0169C15.6617 43.6837 15.5277 43.3649 15.291 43.1304C15.0542 42.896 14.734 42.7653 14.4008 42.7669H14.405ZM52.3186 42.7669C51.6235 42.7669 51.0624 43.3364 51.0624 44.0232C51.0624 44.2716 51.1361 44.5145 51.2741 44.7211C51.4121 44.9277 51.6083 45.0887 51.8379 45.1838C52.0674 45.2789 52.32 45.3038 52.5637 45.2553C52.8074 45.2068 53.0312 45.0872 53.2069 44.9115C53.3826 44.7358 53.5023 44.512 53.5507 44.2683C53.5992 44.0246 53.5743 43.772 53.4792 43.5424C53.3842 43.3129 53.2231 43.1167 53.0166 42.9787C52.81 42.8406 52.5671 42.7669 52.3186 42.7669ZM14.4008 43.1857C14.8614 43.1857 15.2467 43.5626 15.2467 44.0232C15.2467 44.1885 15.1978 44.3501 15.1061 44.4876C15.0144 44.6251 14.8841 44.7325 14.7316 44.7961C14.579 44.8597 14.4111 44.8768 14.2489 44.8452C14.0866 44.8135 13.9374 44.7346 13.8199 44.6183C13.7025 44.502 13.6221 44.3535 13.5888 44.1916C13.5556 44.0297 13.571 43.8616 13.6331 43.7085C13.6952 43.5553 13.8012 43.4239 13.9378 43.3309C14.0744 43.2379 14.2355 43.1873 14.4008 43.1857ZM52.3186 43.1857C52.5407 43.1857 52.7538 43.2739 52.9108 43.431C53.0679 43.588 53.1561 43.8011 53.1561 44.0232C53.1561 44.2453 53.0679 44.4583 52.9108 44.6154C52.7538 44.7725 52.5407 44.8607 52.3186 44.8607C52.0965 44.8607 51.8835 44.7725 51.7264 44.6154C51.5694 44.4583 51.4811 44.2453 51.4811 44.0232C51.4811 43.8011 51.5694 43.588 51.7264 43.431C51.8835 43.2739 52.0965 43.1857 52.3186 43.1857ZM11.1722 53.4451H17.4535V59.6719H11.1722V53.4492V53.4451ZM48.8598 53.4451H55.141V59.6719H48.8598V53.4492V53.4451Z" fill="url(#paint0_linear_485_5150)"/>
<defs>
<linearGradient id="paint0_linear_485_5150" x1="5.23438" y1="5.23438" x2="71.6693" y2="6.70172" gradientUnits="userSpaceOnUse">
<stop offset="0.0927951" stop-color="#FFAD00"/>
<stop offset="1" stop-color="#009FA9"/>
</linearGradient>
</defs>
</svg>
