<svg width="62" height="62" viewBox="0 0 62 62" fill="none" xmlns="http://www.w3.org/2000/svg">
<path d="M43.5934 44.5625C43.4018 44.5625 43.2145 44.6193 43.0552 44.7258C42.8959 44.8322 42.7717 44.9835 42.6984 45.1605C42.625 45.3375 42.6059 45.5323 42.6432 45.7202C42.6806 45.9082 42.7729 46.0808 42.9084 46.2163C43.0438 46.3517 43.2165 46.444 43.4044 46.4814C43.5923 46.5188 43.7871 46.4996 43.9641 46.4263C44.1411 46.3529 44.2924 46.2288 44.3989 46.0695C44.5053 45.9101 44.5621 45.7229 44.5621 45.5312C44.5621 45.2743 44.4601 45.0279 44.2784 44.8462C44.0967 44.6646 43.8503 44.5625 43.5934 44.5625ZM32.6775 44.4307H38.7496C39.0065 44.4307 39.253 44.3287 39.4346 44.147C39.6163 43.9653 39.7184 43.7189 39.7184 43.462C39.7193 41.9306 39.317 40.4259 38.5517 39.0995C37.7864 37.773 36.6852 36.6715 35.359 35.9058C35.1365 35.7773 34.8721 35.7425 34.6239 35.809C34.3757 35.8755 34.1641 36.0378 34.0357 36.2603L30.9996 41.5245L27.9636 36.2642C27.8351 36.0417 27.6235 35.8793 27.3753 35.8128C27.1272 35.7464 26.8627 35.7812 26.6402 35.9096C25.314 36.6753 24.2128 37.7768 23.4476 39.1033C22.6823 40.4298 22.2799 41.9345 22.2809 43.4659C22.2809 43.7228 22.3829 43.9692 22.5646 44.1509C22.7463 44.3326 22.9927 44.4346 23.2496 44.4346H29.3217L26.2857 49.6949C26.2218 49.8052 26.1802 49.927 26.1635 50.0533C26.1467 50.1796 26.155 50.308 26.188 50.4311C26.2209 50.5542 26.2778 50.6696 26.3554 50.7707C26.433 50.8718 26.5298 50.9566 26.6402 51.0202C27.9662 51.7837 29.4695 52.1856 30.9996 52.1856C32.5297 52.1856 34.033 51.7837 35.359 51.0202C35.4694 50.9566 35.5662 50.8718 35.6438 50.7707C35.7214 50.6696 35.7783 50.5542 35.8113 50.4311C35.8442 50.308 35.8525 50.1796 35.8358 50.0533C35.819 49.927 35.7775 49.8052 35.7136 49.6949L32.6775 44.4307ZM35.1962 38.1339C36.5641 39.2099 37.4659 40.7707 37.715 42.4932H32.6775L35.1962 38.1339ZM24.2901 42.4932C24.5391 40.7707 25.4409 39.2099 26.8088 38.1339L29.3276 42.4932H24.2901ZM28.4847 49.7589L31.0035 45.3995L33.5222 49.7589C31.9023 50.3967 30.1008 50.3967 28.4809 49.7589H28.4847ZM55.8326 54.8312L37.6452 21.6186C37.0997 20.6197 36.8133 19.4999 36.8121 18.3617V5.63425C37.4502 5.39998 37.986 4.94945 38.3263 4.36102C38.6666 3.7726 38.7899 3.0835 38.6747 2.41359C38.5595 1.74368 38.2132 1.13534 37.6959 0.694364C37.1786 0.253392 36.5231 0.00769341 35.8434 0L24.2184 0C23.5387 0.00769341 22.8832 0.253392 22.3659 0.694364C21.8486 1.13534 21.5022 1.74368 21.387 2.41359C21.2719 3.0835 21.3951 3.7726 21.7354 4.36102C22.0757 4.94945 22.6115 5.39998 23.2496 5.63425V18.5147C23.2479 19.565 23.0039 20.6006 22.5366 21.5411L20.4461 25.7242L5.81212 54.9901C5.4429 55.7286 5.26857 56.5492 5.30568 57.374C5.34279 58.1988 5.59012 59.0004 6.02417 59.7027C6.45822 60.405 7.06459 60.9848 7.78571 61.3868C8.50682 61.7889 9.31874 62 10.1444 62H51.5836C52.4244 61.9999 53.2507 61.781 53.9813 61.3648C54.7118 60.9485 55.3214 60.3493 55.7501 59.6259C56.1788 58.9026 56.4119 58.0802 56.4263 57.2395C56.4408 56.3988 56.2361 55.5689 55.8326 54.8312ZM24.2184 1.9375H35.8434C36.1003 1.9375 36.3467 2.03956 36.5284 2.22124C36.7101 2.40292 36.8121 2.64932 36.8121 2.90625C36.8121 3.16318 36.7101 3.40958 36.5284 3.59126C36.3467 3.77294 36.1003 3.875 35.8434 3.875H24.2184C23.9614 3.875 23.715 3.77294 23.5334 3.59126C23.3517 3.40958 23.2496 3.16318 23.2496 2.90625C23.2496 2.64932 23.3517 2.40292 23.5334 2.22124C23.715 2.03956 23.9614 1.9375 24.2184 1.9375ZM24.2668 22.413C24.2862 22.3743 24.2997 22.3316 24.3172 22.2929C24.8899 21.1185 25.1874 19.8291 25.1871 18.5225V5.8125H34.8746V18.3675C34.8777 19.8297 35.2452 21.2681 35.9441 22.5525L37.3934 25.1875H22.8796L24.2668 22.413ZM54.0849 58.6442C53.8286 59.0789 53.4626 59.4386 53.0237 59.6875C52.5848 59.9364 52.0882 60.0657 51.5836 60.0625H10.1444C9.64887 60.0626 9.16156 59.9361 8.72874 59.6949C8.29592 59.4537 7.93195 59.1058 7.67142 58.6844C7.41089 58.2629 7.26244 57.7818 7.24018 57.2868C7.21792 56.7918 7.32259 56.2993 7.54424 55.8562L21.9108 27.125H38.4512L54.1334 55.7593C54.3782 56.2014 54.5025 56.7001 54.494 57.2054C54.4855 57.7106 54.3445 58.2048 54.0849 58.6384V58.6442ZM18.4059 42.625C18.2143 42.625 18.027 42.6818 17.8677 42.7883C17.7083 42.8947 17.5842 43.046 17.5109 43.223C17.4375 43.4 17.4184 43.5948 17.4557 43.7827C17.4931 43.9707 17.5854 44.1433 17.7209 44.2788C17.8563 44.4142 18.029 44.5065 18.2169 44.5439C18.4048 44.5813 18.5996 44.5621 18.7766 44.4888C18.9536 44.4154 19.1049 44.2913 19.2114 44.132C19.3178 43.9726 19.3746 43.7854 19.3746 43.5938C19.3746 43.3368 19.2726 43.0904 19.0909 42.9087C18.9092 42.7271 18.6628 42.625 18.4059 42.625ZM24.2184 56.1875C24.0268 56.1875 23.8395 56.2443 23.6802 56.3508C23.5208 56.4572 23.3967 56.6085 23.3234 56.7855C23.25 56.9625 23.2309 57.1573 23.2682 57.3452C23.3056 57.5332 23.3979 57.7058 23.5334 57.8413C23.6688 57.9767 23.8415 58.069 24.0294 58.1064C24.2173 58.1438 24.4121 58.1246 24.5891 58.0513C24.7661 57.9779 24.9174 57.8538 25.0239 57.6945C25.1303 57.5351 25.1871 57.3479 25.1871 57.1562C25.1871 56.8993 25.0851 56.6529 24.9034 56.4712C24.7217 56.2896 24.4753 56.1875 24.2184 56.1875ZM41.6559 52.3125C41.0811 52.3125 40.5192 52.4829 40.0412 52.8023C39.5633 53.1216 39.1908 53.5755 38.9708 54.1066C38.7509 54.6376 38.6933 55.222 38.8055 55.7857C38.9176 56.3495 39.1944 56.8673 39.6008 57.2738C40.0073 57.6802 40.5251 57.957 41.0889 58.0692C41.6526 58.1813 42.237 58.1237 42.768 57.9038C43.2991 57.6838 43.753 57.3113 44.0723 56.8334C44.3917 56.3554 44.5621 55.7936 44.5621 55.2188C44.5621 54.448 44.2559 53.7088 43.7109 53.1637C43.1659 52.6187 42.4267 52.3125 41.6559 52.3125ZM41.6559 56.1875C41.4643 56.1875 41.277 56.1307 41.1177 56.0242C40.9584 55.9178 40.8342 55.7665 40.7609 55.5895C40.6875 55.4125 40.6684 55.2177 40.7057 55.0298C40.7431 54.8418 40.8354 54.6692 40.9709 54.5337C41.1063 54.3983 41.279 54.306 41.4669 54.2686C41.6548 54.2312 41.8496 54.2504 42.0266 54.3237C42.2036 54.3971 42.3549 54.5212 42.4614 54.6805C42.5678 54.8399 42.6246 55.0271 42.6246 55.2188C42.6246 55.4757 42.5226 55.7221 42.3409 55.9038C42.1592 56.0854 41.9128 56.1875 41.6559 56.1875ZM16.4684 50.375C15.8936 50.375 15.3317 50.5454 14.8537 50.8648C14.3758 51.1841 14.0033 51.638 13.7833 52.1691C13.5634 52.7001 13.5058 53.2845 13.618 53.8482C13.7301 54.412 14.0069 54.9298 14.4133 55.3363C14.8198 55.7427 15.3376 56.0195 15.9014 56.1317C16.4651 56.2438 17.0495 56.1862 17.5805 55.9663C18.1116 55.7463 18.5655 55.3738 18.8848 54.8959C19.2042 54.4179 19.3746 53.8561 19.3746 53.2812C19.3746 52.5105 19.0684 51.7713 18.5234 51.2262C17.9784 50.6812 17.2392 50.375 16.4684 50.375ZM16.4684 54.25C16.2768 54.25 16.0895 54.1932 15.9302 54.0867C15.7708 53.9803 15.6467 53.829 15.5734 53.652C15.5 53.475 15.4809 53.2802 15.5182 53.0923C15.5556 52.9043 15.6479 52.7317 15.7834 52.5962C15.9188 52.4608 16.0915 52.3685 16.2794 52.3311C16.4673 52.2937 16.6621 52.3129 16.8391 52.3862C17.0161 52.4596 17.1674 52.5837 17.2739 52.743C17.3803 52.9024 17.4371 53.0896 17.4371 53.2812C17.4371 53.5382 17.3351 53.7846 17.1534 53.9663C16.9717 54.1479 16.7253 54.25 16.4684 54.25Z" fill="url(#paint0_linear_485_5106)"/>
<defs>
<linearGradient id="paint0_linear_485_5106" x1="5.30078" y1="0" x2="65.4021" y2="1.0948" gradientUnits="userSpaceOnUse">
<stop offset="0.0927951" stop-color="#FFAD00"/>
<stop offset="1" stop-color="#009FA9"/>
</linearGradient>
</defs>
</svg>
