<svg width="64" height="64" viewBox="0 0 64 64" fill="none" xmlns="http://www.w3.org/2000/svg">
<path d="M58.1758 21.3L55.0848 20.064L52.0498 16.268C52.0049 16.2227 51.956 16.1815 51.9038 16.145C51.4583 13.8205 50.4092 11.654 48.8618 9.86303C43.8618 3.85403 35.6358 2.23403 29.3058 6.01303C25.9353 8.04404 23.4935 11.3135 22.503 15.122C21.5125 18.9304 22.0519 22.9752 24.0058 26.391C24.6462 27.5003 25.4273 28.5221 26.3298 29.431L25.8568 29.603C19.8208 31.796 16.5718 32.003 10.7438 30.544L4.24376 28.918C4.07386 28.8764 3.89601 28.8801 3.72797 28.9287C3.55993 28.9773 3.40759 29.0692 3.28614 29.1951C3.16469 29.321 3.0784 29.4765 3.03587 29.6462C2.99334 29.8159 2.99606 29.9937 3.04376 30.162L7.38676 45.383C9.74176 53.627 17.7868 58.883 22.2868 58.883H36.7478C39.081 58.9082 41.3896 58.405 43.5007 57.4111C45.6118 56.4172 47.4706 54.9584 48.9378 53.144C50.5032 51.1515 51.5374 48.7943 51.9435 46.2931C52.3496 43.7919 52.1144 41.2285 51.2598 38.843C51.2497 38.8137 51.2381 38.785 51.2248 38.757L47.9678 31.75C47.7413 31.2657 47.6503 30.7291 47.7044 30.1972C47.7584 29.6653 47.9555 29.1579 48.2748 28.729C48.4748 28.459 48.6948 28.15 48.9218 27.81L52.5918 26.893H57.0998C57.7771 26.8974 58.4346 26.6646 58.9582 26.235C59.4818 25.8053 59.8385 25.2059 59.9664 24.5408C60.0944 23.8756 59.9854 23.1867 59.6585 22.5935C59.3316 22.0003 58.8074 21.5402 58.1768 21.293L58.1758 21.3ZM46.6708 27.533C46.1362 28.2514 45.806 29.101 45.7149 29.9918C45.6239 30.8826 45.7756 31.7814 46.1538 32.593L49.3918 39.558C50.1234 41.6228 50.3209 43.8391 49.9658 46.0007C49.6107 48.1622 48.7146 50.1989 47.3608 51.921C46.0808 53.4956 44.4612 54.7603 42.6233 55.6204C40.7854 56.4806 38.7768 56.9139 36.7478 56.888H22.2908C18.4908 56.888 11.3798 52.08 9.30976 44.834L5.43676 31.278L10.2598 32.478C16.4788 34.034 20.1298 33.808 26.5418 31.478L28.1758 30.885H28.3458C28.5536 30.8848 28.7562 30.8198 28.9253 30.6991C29.0945 30.5784 29.2219 30.408 29.2897 30.2116C29.3576 30.0151 29.3626 29.8024 29.304 29.6031C29.2454 29.4037 29.1261 29.2275 28.9628 29.099C27.3039 27.7976 25.987 26.1118 25.1257 24.1874C24.2645 22.2629 23.8848 20.1576 24.0196 18.0535C24.1544 15.9494 24.7996 13.9098 25.8994 12.111C26.9991 10.3121 28.5204 8.80813 30.3318 7.72903C35.8078 4.46203 42.9558 5.90003 47.3248 11.143C52.6308 17.516 49.1928 24.147 46.6708 27.533ZM57.9528 24.277C57.8931 24.4564 57.7785 24.6124 57.6253 24.723C57.472 24.8335 57.2878 24.893 57.0988 24.893H52.4688C52.3868 24.8925 52.3051 24.9026 52.2258 24.923L50.3198 25.4C51.2638 23.5514 51.852 21.5419 52.0538 19.476L53.6878 21.519C53.7963 21.6527 53.9375 21.756 54.0978 21.819L57.4328 23.153C57.6468 23.2382 57.8201 23.4023 57.9168 23.6114C58.0136 23.8205 58.0264 24.0587 57.9528 24.277Z" fill="url(#paint0_linear_485_5100)"/>
<path d="M40.9999 11.8931C40.4066 11.8931 39.8266 12.069 39.3332 12.3987C38.8399 12.7283 38.4554 13.1968 38.2283 13.745C38.0012 14.2932 37.9418 14.8964 38.0576 15.4783C38.1733 16.0603 38.4591 16.5948 38.8786 17.0144C39.2982 17.4339 39.8327 17.7197 40.4147 17.8354C40.9966 17.9512 41.5998 17.8918 42.148 17.6647C42.6962 17.4376 43.1647 17.0531 43.4943 16.5598C43.824 16.0664 43.9999 15.4864 43.9999 14.8931C43.9999 14.0974 43.6839 13.3344 43.1212 12.7717C42.5586 12.2091 41.7956 11.8931 40.9999 11.8931ZM40.9999 15.8931C40.8021 15.8931 40.6088 15.8344 40.4444 15.7245C40.2799 15.6147 40.1517 15.4585 40.0761 15.2758C40.0004 15.093 39.9806 14.892 40.0191 14.698C40.0577 14.504 40.153 14.3258 40.2928 14.186C40.4327 14.0461 40.6109 13.9509 40.8048 13.9123C40.9988 13.8737 41.1999 13.8935 41.3826 13.9692C41.5653 14.0449 41.7215 14.173 41.8314 14.3375C41.9413 14.5019 41.9999 14.6953 41.9999 14.8931C41.9999 15.1583 41.8946 15.4126 41.707 15.6002C41.5195 15.7877 41.2651 15.8931 40.9999 15.8931ZM29.9999 37.8881H15.9999C15.8246 37.8884 15.6524 37.9349 15.5006 38.0228C15.3489 38.1107 15.2229 38.237 15.1354 38.3889C15.0479 38.5409 15.0019 38.7132 15.002 38.8886C15.002 39.0639 15.0482 39.2362 15.1359 39.3881L19.8209 47.4191C20.6158 48.7771 21.7518 49.9039 23.1163 50.6878C24.4807 51.4717 26.0263 51.8854 27.5999 51.8881H29.9999C31.8564 51.8881 33.6369 51.1506 34.9497 49.8378C36.2624 48.5251 36.9999 46.7446 36.9999 44.8881C36.9999 43.0316 36.2624 41.2511 34.9497 39.9383C33.6369 38.6256 31.8564 37.8881 29.9999 37.8881ZM29.9999 49.8881H27.5999C25.7708 49.8834 24.0156 49.166 22.7069 47.8881H24.9999C25.2651 47.8881 25.5195 47.7827 25.707 47.5952C25.8946 47.4076 25.9999 47.1533 25.9999 46.8881C25.9999 46.6229 25.8946 46.3685 25.707 46.181C25.5195 45.9934 25.2651 45.8881 24.9999 45.8881H21.2409L20.0739 43.8881H22.9999C23.2651 43.8881 23.5195 43.7827 23.707 43.5952C23.8946 43.4076 23.9999 43.1533 23.9999 42.8881C23.9999 42.6229 23.8946 42.3685 23.707 42.181C23.5195 41.9934 23.2651 41.8881 22.9999 41.8881H18.9999C18.9709 41.8881 18.9459 41.9021 18.9169 41.9041L17.7409 39.8881H29.9999C31.326 39.8881 32.5978 40.4149 33.5355 41.3525C34.4731 42.2902 34.9999 43.562 34.9999 44.8881C34.9999 46.2142 34.4731 47.4859 33.5355 48.4236C32.5978 49.3613 31.326 49.8881 29.9999 49.8881Z" fill="url(#paint1_linear_485_5100)"/>
<defs>
<linearGradient id="paint0_linear_485_5100" x1="3.00586" y1="3.98364" x2="70.014" y2="5.52083" gradientUnits="userSpaceOnUse">
<stop offset="0.0927951" stop-color="#FFAD00"/>
<stop offset="1" stop-color="#009FA9"/>
</linearGradient>
<linearGradient id="paint1_linear_485_5100" x1="15.002" y1="11.8931" x2="49.093" y2="12.4391" gradientUnits="userSpaceOnUse">
<stop offset="0.0927951" stop-color="#FFAD00"/>
<stop offset="1" stop-color="#009FA9"/>
</linearGradient>
</defs>
</svg>
