<svg width="34" height="34" viewBox="0 0 34 34" fill="none" xmlns="http://www.w3.org/2000/svg">
<path d="M21.25 32.2289H12.75C9.8175 32.2289 7.4375 29.8489 7.4375 26.9164V19.8047C7.4375 19.5214 7.55079 19.2522 7.74913 19.0539C7.94746 18.8555 8.21667 18.7422 8.5 18.7422L14.0109 18.7705C15.2009 18.7705 16.3909 19.0539 17.4675 19.5922C18.2609 19.9889 19.1108 20.1872 20.0033 20.1872H25.5C26.0808 20.1872 26.5625 20.6689 26.5625 21.2497V26.9164C26.5625 29.8489 24.1825 32.2289 21.25 32.2289ZM9.5625 20.8672V26.9164C9.5625 28.673 10.9933 30.1039 12.75 30.1039H21.25C23.0067 30.1039 24.4375 28.673 24.4375 26.9164V22.3122H20.0033C18.785 22.3122 17.6091 22.043 16.5183 21.4905C15.725 21.0939 14.875 20.8955 14.0109 20.8955L9.5625 20.8672Z" fill="#2278E3"/>
<path d="M25.5 22.3122H20.0033C18.785 22.3122 17.6091 22.043 16.5183 21.4905C15.725 21.0938 14.875 20.8955 14.0109 20.8955L8.5 20.8672C7.91917 20.8672 7.4375 20.3855 7.4375 19.8047V15.3422C7.4375 14.4072 7.91916 13.2455 8.585 12.5797L11.5883 9.57633C11.645 9.51967 11.6875 9.4205 11.6875 9.3355V7.08301C11.6875 6.50217 12.1692 6.02051 12.75 6.02051H21.25C21.8308 6.02051 22.3125 6.50217 22.3125 7.08301V9.3355C22.3125 9.4205 22.355 9.51967 22.4117 9.57633L25.415 12.5797C26.0808 13.2455 26.5625 14.4072 26.5625 15.3422V21.2497C26.5625 21.8305 26.0808 22.3122 25.5 22.3122ZM9.5625 18.7422L14.0109 18.7705C15.2009 18.7705 16.3909 19.0538 17.4675 19.5922C18.2609 19.9888 19.1108 20.1872 20.0033 20.1872H24.4375V15.3422C24.4375 14.9738 24.1825 14.3505 23.9133 14.0813L20.91 11.078C20.4567 10.6247 20.1875 9.98717 20.1875 9.3355V8.14551H13.8125V9.3355C13.8125 9.98717 13.5433 10.6247 13.09 11.078L10.0867 14.0813C9.81749 14.3505 9.5625 14.9738 9.5625 15.3422V18.7422Z" fill="#2278E3"/>
<path d="M25.5 23.7292C24.9192 23.7292 24.4375 23.2475 24.4375 22.6667V21.25C24.4375 20.6692 24.9192 20.1875 25.5 20.1875C26.0808 20.1875 26.5625 20.6692 26.5625 21.25V22.6667C26.5625 23.2475 26.0808 23.7292 25.5 23.7292Z" fill="#2278E3"/>
<path d="M8.5 22.2839C7.91917 22.2839 7.4375 21.8022 7.4375 21.2214V19.8047C7.4375 19.2239 7.91917 18.7422 8.5 18.7422C9.08083 18.7422 9.5625 19.2239 9.5625 19.8047V21.2214C9.5625 21.8022 9.08083 22.2839 8.5 22.2839Z" fill="#2278E3"/>
<path d="M20.5423 8.14551H13.459C11.7023 8.14551 10.2715 6.71467 10.2715 4.95801C10.2715 3.20134 11.7023 1.77051 13.459 1.77051H20.5423C22.299 1.77051 23.7298 3.20134 23.7298 4.95801C23.7298 6.71467 22.299 8.14551 20.5423 8.14551ZM13.459 3.89551C12.8782 3.89551 12.3965 4.37717 12.3965 4.95801C12.3965 5.53884 12.8782 6.02051 13.459 6.02051H20.5423C21.1232 6.02051 21.6048 5.53884 21.6048 4.95801C21.6048 4.37717 21.1232 3.89551 20.5423 3.89551H13.459Z" fill="#2278E3"/>
</svg>
