<svg width="50" height="50" viewBox="0 0 50 50" fill="none" xmlns="http://www.w3.org/2000/svg">
<path d="M2.84359 7.23063C2.99335 8.00151 3.40663 8.69629 4.01256 9.19583C4.6185 9.69537 5.37934 9.96856 6.16464 9.96856C6.94993 9.96856 7.71077 9.69537 8.31671 9.19583C8.92264 8.69629 9.33592 8.00151 9.48568 7.23063L10.0018 4.56641C10.0704 4.06234 10.0303 3.54943 9.88423 3.06214C9.73815 2.57485 9.48944 2.12448 9.15484 1.7413C8.82023 1.35812 8.40747 1.05101 7.94431 0.840608C7.48114 0.630208 6.9783 0.521396 6.46959 0.521484H5.85968C5.35096 0.521395 4.84812 0.630206 4.38496 0.840606C3.92179 1.05101 3.50903 1.35812 3.17443 1.7413C2.83982 2.12448 2.59111 2.57485 2.44503 3.06214C2.29895 3.54943 2.25888 4.06234 2.3275 4.56641L2.84359 7.23063Z" fill="#1D75B8"/>
<path d="M21.0374 20.4208L14.5235 18.8435L10.5701 14.371C10.1565 13.5999 9.54141 12.9555 8.79048 12.5063C8.03955 12.0572 7.18085 11.8201 6.30583 11.8203C5.67036 11.8203 5.04112 11.9455 4.45402 12.1887C3.86692 12.4318 3.33347 12.7883 2.88412 13.2376C2.43478 13.687 2.07834 14.2204 1.83515 14.8075C1.59197 15.3946 1.4668 16.0239 1.4668 16.6593V27.5822C1.46617 28.2372 1.59894 28.8854 1.85702 29.4874C2.1151 30.0895 2.49308 30.6326 2.96791 31.0838C2.98113 31.2579 2.99559 31.432 3.00797 31.6061C3.07615 32.4657 4.26823 45.319 4.36716 46.364C4.38813 46.5998 4.40906 46.8355 4.42997 47.0712C4.48734 47.7191 4.79716 48.3183 5.29255 48.7397C5.78794 49.161 6.42916 49.3707 7.07779 49.3234C7.72643 49.2763 8.33054 48.976 8.75969 48.4873C9.18884 47.9987 9.40862 47.3608 9.37158 46.7116C9.35803 46.4753 9.33247 31.4365 9.33872 31.3517C9.90293 30.8988 10.3582 30.3249 10.6708 29.6725C10.9834 29.02 11.1454 28.3057 11.1448 27.5822V22.2245L11.6501 22.6399L11.8772 22.8269C12.1488 23.0487 12.4739 23.195 12.8199 23.2514L20.2477 24.4008C20.7675 24.4863 21.3001 24.3663 21.7331 24.0663C22.1661 23.7662 22.4655 23.3096 22.568 22.7929C22.6706 22.2762 22.5682 21.7398 22.2826 21.2972C21.997 20.8546 21.5505 20.5403 21.0374 20.4208Z" fill="url(#paint0_linear_101_1799)"/>
<path d="M2.84359 7.23063C2.99335 8.00151 3.40663 8.69629 4.01256 9.19583C4.6185 9.69537 5.37934 9.96856 6.16464 9.96856C6.94993 9.96856 7.71077 9.69537 8.31671 9.19583C8.92264 8.69629 9.33592 8.00151 9.48568 7.23063L10.0018 4.56641C10.0704 4.06234 10.0303 3.54943 9.88423 3.06214C9.73815 2.57485 9.48944 2.12448 9.15484 1.7413C8.82023 1.35812 8.40747 1.05101 7.94431 0.840608C7.48114 0.630208 6.9783 0.521396 6.46959 0.521484H5.85968C5.35096 0.521395 4.84812 0.630206 4.38496 0.840606C3.92179 1.05101 3.50903 1.35812 3.17443 1.7413C2.83982 2.12448 2.59111 2.57485 2.44503 3.06214C2.29895 3.54943 2.25888 4.06234 2.3275 4.56641L2.84359 7.23063Z" fill="url(#paint1_linear_101_1799)"/>
<path d="M46.8723 6.84679H32.5199V5.01761C32.5199 4.84909 32.4867 4.68222 32.4222 4.52653C32.3577 4.37085 32.2632 4.22938 32.1441 4.11022C32.0249 3.99107 31.8834 3.89654 31.7278 3.83206C31.5721 3.76757 31.4052 3.73438 31.2367 3.73438C31.0682 3.73438 30.9013 3.76757 30.7456 3.83206C30.5899 3.89654 30.4485 3.99107 30.3293 4.11022C30.2101 4.22938 30.1156 4.37085 30.0511 4.52653C29.9866 4.68222 29.9535 4.84909 29.9535 5.01761V6.84678H15.601C15.3829 6.8467 15.1669 6.88959 14.9653 6.973C14.7637 7.05641 14.5806 7.17871 14.4263 7.33291C14.272 7.48712 14.1496 7.6702 14.066 7.87172C13.9825 8.07323 13.9395 8.28923 13.9395 8.50737V8.81839C13.9395 9.25904 14.1146 9.68164 14.4262 9.99323C14.7378 10.3048 15.1604 10.4799 15.601 10.4799V16.2601L16.2317 16.9731L17.8904 17.3752V11.7152H44.583V29.5206H17.8904V26.0541L15.601 25.6995V30.4197C15.601 30.7885 15.7474 31.1423 16.0081 31.4032C16.2688 31.6641 16.6225 31.8107 16.9913 31.811H21.7086C21.846 32.182 22.0936 32.5021 22.4182 32.7282C22.7429 32.9543 23.129 33.0756 23.5246 33.0759H24.0432L21.5404 49.181L23.4552 49.4786L26.0043 33.0759H30.2673V49.3298H32.205V33.0758H36.4682L39.0173 49.4785L40.9321 49.181L38.4292 33.0758H38.9478C39.3434 33.0756 39.7295 32.9543 40.0541 32.7282C40.3788 32.502 40.6264 32.182 40.7638 31.811H45.4821C45.8507 31.8108 46.2043 31.6643 46.4649 31.4036C46.7256 31.1429 46.8722 30.7894 46.8723 30.4207V10.4799C47.3129 10.4797 47.7352 10.3045 48.0466 9.99295C48.358 9.68137 48.5329 9.25889 48.5329 8.81838V8.50738C48.5329 8.06698 48.3579 7.64462 48.0465 7.33321C47.7351 7.02179 47.3128 6.84683 46.8723 6.84679Z" fill="#2D3E50"/>
<defs>
<linearGradient id="paint0_linear_101_1799" x1="2.61571" y1="11.8203" x2="28.6313" y2="15.2546" gradientUnits="userSpaceOnUse">
<stop offset="0.00164986" stop-color="#5552FF"/>
<stop offset="0.489583" stop-color="#00C1EB"/>
<stop offset="1" stop-color="#00E3AD"/>
</linearGradient>
<linearGradient id="paint1_linear_101_1799" x1="2.71554" y1="0.521485" x2="12.0618" y2="2.3149" gradientUnits="userSpaceOnUse">
<stop offset="0.00164986" stop-color="#5552FF"/>
<stop offset="0.489583" stop-color="#00C1EB"/>
<stop offset="1" stop-color="#00E3AD"/>
</linearGradient>
</defs>
</svg>
