<svg width="75" height="75" viewBox="0 0 75 75" fill="none" xmlns="http://www.w3.org/2000/svg">
<path d="M69.3226 32.7001C69.6444 29.9102 69.4124 27.0843 68.64 24.3842C67.8675 21.6842 66.5697 19.1632 64.8211 16.9657C64.7543 16.886 64.6726 16.8201 64.5805 16.7719C64.241 16.4654 63.8334 16.2442 63.3914 16.1266C60.857 15.4079 56.3601 17.6688 52.3851 19.6688C50.8223 20.5226 49.1986 21.2601 47.5273 21.8751C47.1509 21.1276 46.6294 20.4624 45.9934 19.9184C45.3574 19.3744 44.6195 18.9624 43.8226 18.7063C43.0247 18.4822 42.1872 18.436 41.3694 18.571C40.5516 18.706 39.7735 19.0189 39.0898 19.4876C36.4386 21.4355 33.8919 23.5217 31.4601 25.7376C31.434 25.7581 31.409 25.78 31.3851 25.8032C29.7555 27.2282 28.0789 28.7141 26.5258 30.0891C24.9726 31.4641 23.5695 32.7126 22.5945 33.5547C19.7945 35.6239 16.7677 37.3669 13.5726 38.75C11.6034 39.6487 9.68812 40.6613 7.8367 41.7829C7.38289 42.0526 7.00621 42.4346 6.74295 42.8922C6.17281 43.7327 5.77842 44.6797 5.58349 45.6764C5.38855 46.6731 5.39708 47.6989 5.60858 48.6922C5.66894 49.3961 5.87083 50.0806 6.20215 50.7046C6.53348 51.3286 6.9874 51.8792 7.5367 52.3235C11.1211 54.4735 16.9398 55.3251 23.0289 55.3235C27.4221 55.3136 31.8056 54.9115 36.1273 54.1219C42.2508 52.9829 48.4164 49.8922 52.9195 47.6344C54.7008 46.7422 56.2383 45.9719 57.3867 45.5157C60.3398 44.3438 64.6039 42.5672 66.7851 41.6532C67.3544 41.4164 67.8591 41.0474 68.2574 40.5768C68.6557 40.1062 68.9362 39.5475 69.0758 38.9469C69.5938 36.9048 69.6779 34.7767 69.3226 32.7001ZM65.118 20.0829C67.2685 23.7996 68.2012 28.0965 67.7851 32.3704C65.664 34.0604 63.2732 35.381 60.7133 36.2766C59.757 36.5891 58.682 37.011 57.5476 37.5047C58.0324 34.1134 58.2263 30.6869 58.1273 27.2626C58.4033 27.1709 58.6736 27.0629 58.9367 26.9391C61.7511 25.4669 63.9442 23.0342 65.118 20.0829ZM53.0867 21.0641C56.432 19.3797 61.0226 17.0751 62.9601 17.6266C63.183 17.659 63.3875 17.7685 63.5379 17.9361C63.6884 18.1037 63.7753 18.3187 63.7836 18.5438C63.9398 20.4985 61.0054 24.2141 58.2633 25.5172C56.1593 26.3724 53.8047 26.3724 51.7008 25.5172C50.3928 25.0779 49.2246 24.2999 48.3148 23.2626C49.9497 22.6287 51.5439 21.8945 53.0883 21.0641H53.0867ZM39.9336 20.8032C40.6377 20.3267 41.4648 20.0645 42.3148 20.0485C42.6747 20.0493 43.0325 20.1019 43.3773 20.2047C44.0543 20.437 44.6727 20.8134 45.1901 21.3078C45.7075 21.8023 46.1115 22.4031 46.3742 23.0688L46.3883 23.1016C47.4142 24.9662 49.1257 26.3582 51.1601 26.9829C52.8852 27.6295 54.7424 27.8441 56.5695 27.6079C56.6616 31.1746 56.4115 34.742 55.8226 38.261C55.2195 38.5344 54.6039 38.8172 53.9789 39.1047C50.6776 40.7099 47.2751 42.0977 43.793 43.2594C42.3336 43.7047 40.6508 44.1438 38.8414 44.5469C38.6418 43.0059 38.1294 41.5219 37.3357 40.186C36.542 38.8501 35.4837 37.6904 34.2258 36.7782C31.7564 34.811 28.8493 33.4679 25.7508 32.8626L26.9648 31.7891C29.4988 32.2058 31.9208 33.1364 34.082 34.5235C34.1675 34.5836 34.2642 34.626 34.3663 34.648C34.4685 34.6701 34.574 34.6715 34.6767 34.6521C34.7794 34.6326 34.8771 34.5928 34.9641 34.5349C35.0511 34.477 35.1256 34.4023 35.1832 34.3151C35.2409 34.2279 35.2804 34.13 35.2995 34.0273C35.3186 33.9245 35.3169 33.819 35.2945 33.7169C35.2721 33.6149 35.2294 33.5183 35.169 33.433C35.1087 33.3477 35.0318 33.2754 34.943 33.2204C32.953 31.9316 30.7509 31.0048 28.4383 30.4829L29.5539 29.4954C31.9994 30.2486 34.3696 31.2278 36.6336 32.4204C36.7483 32.484 36.8774 32.5173 37.0086 32.5172C37.1824 32.5178 37.3515 32.4604 37.489 32.3541C37.6266 32.2478 37.7247 32.0986 37.7679 31.9302C37.8111 31.7618 37.797 31.5838 37.7276 31.4244C37.6583 31.265 37.5378 31.1333 37.3851 31.0501C35.3122 29.9472 33.1486 29.024 30.918 28.2907C31.3211 27.9344 31.7273 27.5797 32.132 27.2251C34.59 27.9294 36.9469 28.9477 39.1445 30.2547C39.3233 30.3598 39.5366 30.3895 39.7373 30.3373C39.938 30.2852 40.1098 30.1554 40.2148 29.9766C40.3199 29.7978 40.3496 29.5846 40.2974 29.3839C40.2453 29.1831 40.1155 29.0114 39.9367 28.9063C37.9107 27.7105 35.7599 26.7402 33.5226 26.0126C33.9008 25.6844 34.2732 25.3631 34.6398 25.0485C37.1137 25.7301 39.4841 26.7429 41.6867 28.0594C41.7747 28.1129 41.8724 28.1485 41.9742 28.1642C42.076 28.1799 42.1799 28.1754 42.2799 28.1509C42.3799 28.1265 42.4742 28.0826 42.5573 28.0217C42.6403 27.9608 42.7106 27.8842 42.764 27.7961C42.8175 27.7081 42.8531 27.6104 42.8688 27.5086C42.8845 27.4069 42.88 27.303 42.8555 27.2029C42.8311 27.1029 42.7872 27.0087 42.7263 26.9256C42.6654 26.8425 42.5888 26.7723 42.5008 26.7188C40.4794 25.5093 38.3237 24.5403 36.0773 23.8313C37.3104 22.7563 38.598 21.7456 39.9351 20.8032H39.9336ZM8.68358 43.0922C10.4843 42.0098 12.3446 41.0297 14.2555 40.1563C17.5745 38.7195 20.715 36.901 23.6133 34.7376L24.1445 34.2688C27.5085 34.5405 30.7048 35.8509 33.2914 38.0188C34.4011 38.8172 35.3316 39.8387 36.0234 41.0178C36.7152 42.1969 37.153 43.5075 37.3086 44.8657C31.5492 46.1189 25.6516 46.62 19.7633 46.3563C11.7945 45.7485 8.23514 44.2844 8.10233 43.6422C8.10858 43.6032 8.23202 43.3922 8.68983 43.0922H8.68358ZM67.5445 38.6032C67.4604 38.9616 67.2921 39.2948 67.0535 39.5753C66.8149 39.8557 66.513 40.0752 66.1726 40.2157C63.0582 41.5247 59.9331 42.808 56.7976 44.0657C55.5867 44.5469 54.0195 45.3329 52.207 46.2407C47.7883 48.4563 41.7383 51.4891 35.8273 52.5875C26.4117 54.3407 13.9414 54.3532 8.32733 50.986C7.6368 50.3084 7.21685 49.4024 7.14608 48.4375C6.95339 47.3215 7.02456 46.1759 7.35389 45.0922C9.54139 46.8844 15.743 47.6329 19.6445 47.9313C20.6726 48.0094 21.7461 48.0469 22.8492 48.0469C30.0994 47.9177 37.2994 46.8141 44.2555 44.7657C47.8063 43.5861 51.2753 42.1731 54.6398 40.536C56.7768 39.4976 58.9674 38.5734 61.2023 37.7672C63.617 36.9395 65.8888 35.7425 67.9367 34.2188C68.0215 35.6912 67.8914 37.1682 67.5508 38.6032H67.5445ZM58.1398 50.3766V50.8735C58.1398 51.0807 58.0575 51.2794 57.911 51.4259C57.7645 51.5724 57.5658 51.6547 57.3586 51.6547C57.1514 51.6547 56.9527 51.5724 56.8061 51.4259C56.6596 51.2794 56.5773 51.0807 56.5773 50.8735V50.3766C56.5773 50.1694 56.6596 49.9707 56.8061 49.8242C56.9527 49.6777 57.1514 49.5954 57.3586 49.5954C57.5658 49.5954 57.7645 49.6777 57.911 49.8242C58.0575 49.9707 58.1398 50.1694 58.1398 50.3766ZM61.0633 52.5C60.93 52.6588 60.7392 52.7581 60.5328 52.7761C60.3263 52.7941 60.1212 52.7294 59.9625 52.5961C59.8038 52.4629 59.7045 52.2721 59.6865 52.0657C59.6684 51.8592 59.7332 51.6541 59.8664 51.4954L60.1789 51.1141C60.2435 51.0317 60.324 50.963 60.4157 50.9123C60.5074 50.8616 60.6083 50.8299 60.7125 50.819C60.8167 50.8081 60.922 50.8182 61.0222 50.8489C61.1224 50.8795 61.2154 50.9299 61.2957 50.9972C61.3759 51.0645 61.4419 51.1473 61.4895 51.2406C61.5372 51.3339 61.5656 51.4358 61.5731 51.5403C61.5806 51.6447 61.5669 51.7497 61.533 51.8488C61.4991 51.9479 61.4457 52.0392 61.3758 52.1172L61.0633 52.5ZM63.3758 54.6329C63.4117 54.8367 63.3652 55.0465 63.2465 55.2161C63.1279 55.3858 62.9468 55.5014 62.743 55.5375L62.2523 55.6235C62.207 55.6322 62.161 55.6364 62.1148 55.636C61.9201 55.6348 61.7329 55.561 61.5898 55.4289C61.4467 55.2969 61.358 55.1162 61.3412 54.9222C61.3244 54.7283 61.3806 54.535 61.4989 54.3803C61.6171 54.2256 61.7889 54.1207 61.9804 54.086L62.4711 53.9985C62.5725 53.9808 62.6764 53.9833 62.7768 54.0058C62.8772 54.0284 62.9722 54.0706 63.0562 54.13C63.1403 54.1894 63.2118 54.2648 63.2667 54.3519C63.3215 54.439 63.3586 54.5361 63.3758 54.6375V54.6329ZM62.657 58.75C62.5534 58.9295 62.3828 59.0604 62.1826 59.114C61.9825 59.1677 61.7693 59.1396 61.5898 59.036L61.1586 58.786C60.9806 58.6817 60.8511 58.5112 60.7984 58.3117C60.7457 58.1123 60.774 57.9 60.8771 57.7214C60.9803 57.5427 61.1499 57.4121 61.349 57.3581C61.5481 57.304 61.7605 57.3309 61.9398 57.4329L62.3711 57.6813C62.4601 57.7326 62.5382 57.801 62.6008 57.8825C62.6634 57.964 62.7092 58.0571 62.7358 58.1563C62.7624 58.2556 62.7691 58.3592 62.7556 58.461C62.742 58.5629 62.7085 58.6611 62.657 58.75ZM59.9226 60.4329C59.9577 60.5294 59.9734 60.6319 59.9688 60.7345C59.9643 60.8371 59.9395 60.9378 59.896 61.0308C59.8524 61.1239 59.791 61.2074 59.7151 61.2767C59.6393 61.3459 59.5505 61.3995 59.4539 61.4344C59.3681 61.4651 59.2778 61.4809 59.1867 61.4813C59.0263 61.4813 58.8698 61.432 58.7384 61.3401C58.6071 61.2481 58.5072 61.1179 58.4523 60.9672L58.282 60.4985C58.2169 60.3054 58.2299 60.0944 58.3181 59.9107C58.4063 59.727 58.5629 59.585 58.7543 59.5151C58.9457 59.4452 59.1569 59.4528 59.3428 59.5364C59.5286 59.62 59.6745 59.7729 59.7492 59.9626L59.9226 60.4329ZM56.4523 60.5016L56.2805 60.9704C56.2257 61.1208 56.126 61.2508 55.995 61.3428C55.8639 61.4347 55.7077 61.4841 55.5476 61.4844C55.4565 61.4842 55.3662 61.4684 55.2805 61.4375C55.1839 61.4026 55.0951 61.349 55.0192 61.2798C54.9434 61.2105 54.8819 61.127 54.8384 61.034C54.7949 60.9409 54.7701 60.8402 54.7655 60.7376C54.7609 60.635 54.7766 60.5325 54.8117 60.436L54.982 59.9672C55.0531 59.7725 55.1986 59.6139 55.3866 59.5264C55.5746 59.439 55.7896 59.4298 55.9844 59.5008C56.1791 59.5719 56.3377 59.7174 56.4252 59.9054C56.5126 60.0934 56.5218 60.3084 56.4508 60.5032L56.4523 60.5016ZM53.8648 57.7235C53.9684 57.9029 53.9965 58.1162 53.9429 58.3163C53.8893 58.5164 53.7583 58.6871 53.5789 58.7907L53.1476 59.0407C52.968 59.1443 52.7546 59.1723 52.5543 59.1185C52.354 59.0647 52.1833 58.9336 52.0797 58.754C51.9761 58.5743 51.9481 58.3609 52.0019 58.1606C52.0556 57.9603 52.1867 57.7896 52.3664 57.686L52.7976 57.4375C52.9771 57.334 53.1903 57.3059 53.3905 57.3595C53.5906 57.4131 53.7612 57.5441 53.8648 57.7235ZM51.9898 55.5469C51.8888 55.5289 51.7923 55.4911 51.7058 55.4357C51.6194 55.3804 51.5447 55.3085 51.486 55.2243C51.4273 55.1401 51.3857 55.0451 51.3638 54.9448C51.3418 54.8446 51.3397 54.741 51.3578 54.6399C51.3759 54.5388 51.4136 54.4423 51.469 54.3559C51.5243 54.2694 51.5962 54.1947 51.6804 54.136C51.7646 54.0773 51.8596 54.0358 51.9599 54.0138C52.0602 53.9918 52.1638 53.9898 52.2648 54.0079L52.7555 54.0954C52.9472 54.1301 53.119 54.2351 53.2372 54.39C53.3555 54.5448 53.4116 54.7383 53.3946 54.9324C53.3775 55.1265 53.2886 55.3072 53.1452 55.4391C53.0018 55.571 52.8143 55.6446 52.6195 55.6454C52.5729 55.6459 52.5263 55.6417 52.4805 55.6329L51.9898 55.5469ZM54.768 52.6047C54.6096 52.7357 54.4059 52.799 54.2012 52.7809C53.9965 52.7627 53.8071 52.6646 53.6742 52.5079L53.3617 52.125C53.2895 52.0475 53.2339 51.956 53.1982 51.8563C53.1625 51.7565 53.1474 51.6505 53.1539 51.5448C53.1605 51.439 53.1884 51.3357 53.2361 51.2411C53.2839 51.1465 53.3503 51.0626 53.4315 50.9945C53.5126 50.9264 53.6068 50.8755 53.7083 50.8449C53.8097 50.8143 53.9163 50.8047 54.0216 50.8166C54.1269 50.8285 54.2286 50.8618 54.3207 50.9142C54.4127 50.9667 54.4931 51.0374 54.557 51.1219L54.8695 51.5032C54.935 51.5824 54.9843 51.6738 55.0144 51.7721C55.0445 51.8704 55.0549 51.9737 55.0451 52.076C55.0352 52.1784 55.0052 52.2777 54.9569 52.3685C54.9085 52.4592 54.8427 52.5395 54.7633 52.6047H54.768ZM24.6523 15.136L24.5195 14.4454C24.5002 14.3445 24.501 14.2409 24.5218 14.1403C24.5425 14.0397 24.5829 13.9443 24.6406 13.8593C24.6983 13.7744 24.7721 13.7016 24.8579 13.6452C24.9437 13.5888 25.0398 13.5498 25.1406 13.5305C25.2415 13.5112 25.3451 13.512 25.4457 13.5328C25.5462 13.5535 25.6417 13.5939 25.7267 13.6516C25.8116 13.7093 25.8844 13.7831 25.9408 13.8689C25.9972 13.9547 26.0362 14.0508 26.0555 14.1516L26.1883 14.8422C26.2075 14.9433 26.2065 15.0472 26.1855 15.1479C26.1645 15.2486 26.1237 15.3442 26.0657 15.4291C26.0076 15.5141 25.9333 15.5867 25.8471 15.6428C25.7609 15.699 25.6644 15.7375 25.5633 15.7563C25.5143 15.7656 25.4646 15.7703 25.4148 15.7704C25.2339 15.7692 25.059 15.7054 24.92 15.5897C24.7809 15.474 24.6863 15.3137 24.6523 15.136ZM28.1976 14.9797L28.4258 14.3141C28.4592 14.2171 28.5114 14.1275 28.5795 14.0507C28.6475 13.9738 28.73 13.9111 28.8223 13.8661C28.9146 13.8211 29.0148 13.7948 29.1173 13.7885C29.2198 13.7823 29.3225 13.7963 29.4195 13.8297C29.5166 13.8632 29.6061 13.9154 29.683 13.9835C29.7598 14.0515 29.8225 14.134 29.8675 14.2263C29.9125 14.3186 29.9389 14.4188 29.9451 14.5213C29.9513 14.6237 29.9373 14.7264 29.9039 14.8235L29.6742 15.4876C29.6214 15.6416 29.5218 15.7754 29.3893 15.8701C29.2568 15.9648 29.098 16.0157 28.9351 16.0157C28.8486 16.0151 28.7626 16.0009 28.6805 15.9735C28.4854 15.9057 28.3251 15.7634 28.2346 15.5778C28.1442 15.3922 28.1309 15.1783 28.1976 14.9829V14.9797ZM31.268 17.7204C31.2005 17.6429 31.1489 17.553 31.1162 17.4556C31.0835 17.3582 31.0704 17.2554 31.0775 17.1529C31.0846 17.0505 31.1119 16.9504 31.1577 16.8585C31.2035 16.7666 31.267 16.6846 31.3445 16.6172L31.8742 16.1563C32.0306 16.0202 32.2347 15.9518 32.4416 15.9661C32.6485 15.9805 32.8412 16.0764 32.9773 16.2329C33.1135 16.3893 33.1819 16.5934 33.1675 16.8003C33.1532 17.0072 33.0572 17.1999 32.9008 17.336L32.3695 17.7969C32.2132 17.9327 32.0094 18.001 31.8029 17.9866C31.5963 17.9722 31.4039 17.8765 31.268 17.7204ZM33.2492 19.6094L33.9414 19.4751C34.0436 19.4515 34.1494 19.4488 34.2526 19.467C34.3559 19.4853 34.4544 19.5241 34.5423 19.5812C34.6302 19.6383 34.7057 19.7125 34.7644 19.7994C34.823 19.8864 34.8635 19.9842 34.8836 20.0871C34.9036 20.19 34.9027 20.2959 34.881 20.3984C34.8592 20.501 34.8171 20.5981 34.757 20.684C34.6969 20.7699 34.6202 20.8429 34.5313 20.8985C34.4425 20.9542 34.3434 20.9913 34.2398 21.0079L33.5492 21.1422C33.4977 21.1518 33.4454 21.1565 33.393 21.1563C33.1999 21.1546 33.0142 21.0815 32.8719 20.951C32.7296 20.8205 32.6406 20.6419 32.6222 20.4497C32.6037 20.2575 32.6571 20.0653 32.772 19.9101C32.887 19.7549 33.0553 19.6478 33.2445 19.6094H33.2492ZM23.5273 28.5157L23.7555 27.8501C23.8282 27.6614 23.9713 27.5082 24.1546 27.4229C24.338 27.3375 24.5472 27.3266 24.7385 27.3923C24.9297 27.4581 25.088 27.5955 25.18 27.7755C25.2721 27.9556 25.2907 28.1643 25.232 28.3579L25.0008 29.0297C24.9477 29.1835 24.848 29.3169 24.7155 29.4113C24.583 29.5057 24.4244 29.5564 24.2617 29.5563C24.1756 29.5559 24.0901 29.5417 24.0086 29.5141C23.8131 29.446 23.6526 29.3031 23.5623 29.1168C23.4721 28.9305 23.4595 28.716 23.5273 28.5204V28.5157ZM22.1633 25.6251C22.2308 25.7025 22.2823 25.7924 22.315 25.8898C22.3477 25.9872 22.3608 26.09 22.3537 26.1925C22.3466 26.2949 22.3194 26.395 22.2735 26.4869C22.2277 26.5788 22.1642 26.6608 22.0867 26.7282L21.5555 27.1891C21.4134 27.3129 21.2314 27.3811 21.043 27.3813C20.9313 27.3812 20.8209 27.3572 20.7193 27.3108C20.6177 27.2645 20.5272 27.1969 20.4539 27.1126C20.3864 27.0351 20.3348 26.9452 20.3022 26.8478C20.2695 26.7504 20.2563 26.6476 20.2634 26.5451C20.2705 26.4427 20.2978 26.3426 20.3436 26.2507C20.3894 26.1588 20.4529 26.0768 20.5305 26.0094L21.0601 25.5485C21.1376 25.481 21.2275 25.4294 21.3249 25.3968C21.4223 25.3641 21.5251 25.3509 21.6276 25.358C21.73 25.3651 21.8301 25.3924 21.922 25.4382C22.0139 25.484 22.0959 25.5475 22.1633 25.6251ZM18.5695 23.2516C18.5503 23.1505 18.5512 23.0467 18.5723 22.9459C18.5933 22.8452 18.634 22.7497 18.6921 22.6647C18.7502 22.5798 18.8245 22.5072 18.9107 22.451C18.9969 22.3949 19.0934 22.3563 19.1945 22.3376L19.8867 22.2032C20.0902 22.164 20.3009 22.2073 20.4724 22.3235C20.644 22.4397 20.7624 22.6192 20.8015 22.8227C20.8407 23.0262 20.7974 23.2369 20.6813 23.4084C20.5651 23.58 20.3855 23.6984 20.182 23.7376L19.4914 23.8704C19.44 23.8813 19.3876 23.8866 19.3351 23.886C19.154 23.8848 18.979 23.8207 18.8399 23.7047C18.7008 23.5887 18.6063 23.428 18.5726 23.2501L18.5695 23.2516ZM18.8711 18.9719C18.9045 18.8748 18.9567 18.7853 19.0247 18.7084C19.0927 18.6315 19.1753 18.5687 19.2676 18.5238C19.3598 18.4788 19.4601 18.4524 19.5626 18.4462C19.6651 18.44 19.7678 18.454 19.8648 18.4876L20.5305 18.7157C20.7057 18.7757 20.8538 18.896 20.9486 19.0552C21.0433 19.2143 21.0784 19.402 21.0476 19.5846C21.0168 19.7672 20.9222 19.933 20.7805 20.0523C20.6388 20.1716 20.4594 20.2367 20.2742 20.236C20.1876 20.2355 20.1017 20.2212 20.0195 20.1938L19.3555 19.9641C19.1599 19.896 18.9994 19.7531 18.9092 19.5668C18.819 19.3805 18.8064 19.166 18.8742 18.9704L18.8711 18.9719ZM21.1961 16.5157C21.0683 16.3584 21.0067 16.1576 21.0242 15.9558C21.0416 15.7539 21.1369 15.5667 21.2897 15.4337C21.4426 15.3008 21.6411 15.2323 21.8435 15.243C22.0458 15.2536 22.2361 15.3424 22.3742 15.4907L22.843 16.0219C22.9144 16.0986 22.9697 16.1889 23.0055 16.2874C23.0413 16.386 23.0569 16.4907 23.0514 16.5954C23.0459 16.7 23.0194 16.8025 22.9735 16.8968C22.9276 16.991 22.8631 17.075 22.7841 17.1438C22.705 17.2126 22.6129 17.2648 22.5132 17.2972C22.4135 17.3297 22.3083 17.3418 22.2039 17.3327C22.0995 17.3237 21.9979 17.2937 21.9053 17.2446C21.8127 17.1955 21.7309 17.1283 21.6648 17.0469L21.1961 16.5157ZM37.0086 35.2657C37.0086 35.4202 36.9628 35.5712 36.8769 35.6997C36.7911 35.8282 36.6691 35.9283 36.5263 35.9875C36.3835 36.0466 36.2265 36.0621 36.0749 36.0319C35.9234 36.0018 35.7842 35.9274 35.6749 35.8181C35.5656 35.7088 35.4912 35.5696 35.4611 35.4181C35.4309 35.2665 35.4464 35.1095 35.5055 34.9667C35.5647 34.8239 35.6648 34.7019 35.7933 34.6161C35.9218 34.5302 36.0728 34.4844 36.2273 34.4844C36.3303 34.484 36.4324 34.504 36.5276 34.5431C36.6229 34.5823 36.7094 34.6399 36.7823 34.7127C36.8552 34.7854 36.913 34.8719 36.9524 34.9671C36.9918 35.0622 37.0119 35.1642 37.0117 35.2672L37.0086 35.2657ZM39.682 32.9063C39.682 33.0608 39.6362 33.2119 39.5504 33.3403C39.4645 33.4688 39.3425 33.569 39.1997 33.6281C39.057 33.6872 38.8999 33.7027 38.7484 33.6725C38.5968 33.6424 38.4576 33.568 38.3483 33.4587C38.2391 33.3495 38.1647 33.2103 38.1345 33.0587C38.1044 32.9072 38.1199 32.7501 38.179 32.6073C38.2381 32.4646 38.3383 32.3426 38.4667 32.2567C38.5952 32.1709 38.7463 32.1251 38.9008 32.1251C39.004 32.1242 39.1064 32.1439 39.202 32.1829C39.2976 32.2219 39.3846 32.2794 39.4578 32.3522C39.531 32.425 39.5891 32.5116 39.6287 32.607C39.6682 32.7023 39.6885 32.8046 39.6883 32.9079L39.682 32.9063ZM42.3539 30.7422C42.3539 30.8968 42.3081 31.0478 42.2222 31.1763C42.1364 31.3048 42.0144 31.4049 41.8716 31.464C41.7289 31.5232 41.5718 31.5386 41.4202 31.5085C41.2687 31.4783 41.1295 31.4039 41.0202 31.2947C40.911 31.1854 40.8365 31.0462 40.8064 30.8947C40.7763 30.7431 40.7917 30.586 40.8509 30.4433C40.91 30.3005 41.0101 30.1785 41.1386 30.0927C41.2671 30.0068 41.4181 29.961 41.5726 29.961C41.6756 29.9606 41.7777 29.9805 41.8729 30.0197C41.9682 30.0589 42.0547 30.1165 42.1276 30.1893C42.2005 30.262 42.2583 30.3485 42.2977 30.4436C42.3371 30.5388 42.3572 30.6408 42.357 30.7438L42.3539 30.7422ZM43.3742 28.6204C43.3742 28.4658 43.42 28.3148 43.5059 28.1863C43.5917 28.0578 43.7137 27.9577 43.8565 27.8986C43.9992 27.8395 44.1563 27.824 44.3079 27.8541C44.4594 27.8843 44.5986 27.9587 44.7079 28.0679C44.8171 28.1772 44.8915 28.3164 44.9217 28.468C44.9518 28.6195 44.9364 28.7766 44.8772 28.9193C44.8181 29.0621 44.718 29.1841 44.5895 29.2699C44.461 29.3558 44.31 29.4016 44.1555 29.4016C43.9491 29.4008 43.7514 29.3183 43.6056 29.1722C43.4598 29.0262 43.3777 28.8283 43.3773 28.6219L43.3742 28.6204Z" fill="url(#paint0_linear_485_5116)"/>
<defs>
<linearGradient id="paint0_linear_485_5116" x1="5.44336" y1="13.5166" x2="80.7495" y2="15.7394" gradientUnits="userSpaceOnUse">
<stop offset="0.0927951" stop-color="#FFAD00"/>
<stop offset="1" stop-color="#009FA9"/>
</linearGradient>
</defs>
</svg>
