<svg width="34" height="34" viewBox="0 0 34 34" fill="none" xmlns="http://www.w3.org/2000/svg">
<path d="M22.3971 28.5886C22.0288 28.5886 21.6463 28.5744 21.2354 28.5319C20.4988 28.4752 19.6629 28.3336 18.7988 28.1211L16.4188 27.5544C9.88795 26.0102 7.74878 22.5536 9.27878 16.0369L10.6671 10.1011C10.9788 8.75522 11.3471 7.66439 11.8004 6.75772C14.2371 1.72856 18.8979 2.18189 22.2129 2.96106L24.5788 3.51356C27.8938 4.29272 29.9904 5.52522 31.1663 7.40939C32.3279 9.29356 32.5121 11.7161 31.7329 15.0311L30.3446 20.9527C29.1263 26.1377 26.5904 28.5886 22.3971 28.5886ZM18.5863 4.60439C16.2204 4.60439 14.7188 5.58189 13.7129 7.67856C13.3446 8.44356 13.0188 9.39272 12.7354 10.5827L11.3471 16.5186C10.0863 21.8736 11.5454 24.2111 16.9004 25.4861L19.2804 26.0527C20.0454 26.2369 20.7679 26.3502 21.4196 26.4069C25.2729 26.7894 27.1854 25.1036 28.2621 20.4711L29.6504 14.5494C30.2879 11.8152 30.2029 9.90272 29.3529 8.52856C28.5029 7.15439 26.8313 6.21939 24.0829 5.58189L21.7171 5.02939C20.5413 4.74606 19.4929 4.60439 18.5863 4.60439Z" fill="#2278E3"/>
<path d="M11.8008 31.5209C8.15999 31.5209 5.83666 29.3392 4.34916 24.735L2.53582 19.1392C0.524158 12.9059 2.32332 9.39254 8.52832 7.38087L10.7667 6.65837C11.5033 6.43171 12.0558 6.27587 12.5517 6.19087C12.9625 6.10587 13.3592 6.26171 13.6 6.58754C13.8408 6.91337 13.8833 7.33837 13.7133 7.70671C13.345 8.45754 13.0192 9.40671 12.75 10.5967L11.3617 16.5325C10.1008 21.8875 11.56 24.225 16.915 25.5L19.295 26.0667C20.06 26.2509 20.7825 26.3642 21.4342 26.4209C21.8875 26.4634 22.2558 26.775 22.3833 27.2142C22.4967 27.6534 22.3267 28.1067 21.9583 28.3617C21.0233 28.9992 19.8475 29.5375 18.36 30.0192L16.1217 30.7559C14.4925 31.2659 13.0758 31.5209 11.8008 31.5209ZM11.0217 8.81171L9.19416 9.40671C4.13666 11.0359 2.93249 13.4159 4.56166 18.4875L6.37499 24.0834C8.01832 29.1409 10.3983 30.3592 15.4558 28.73L17.6942 27.9934C17.7792 27.965 17.85 27.9367 17.935 27.9084L16.4333 27.5542C9.90249 26.01 7.76332 22.5534 9.29332 16.0367L10.6817 10.1009C10.7808 9.64754 10.8942 9.20837 11.0217 8.81171Z" fill="#2278E3"/>
<path d="M24.777 14.8893C24.692 14.8893 24.607 14.8752 24.5078 14.861L17.637 13.1185C17.0703 12.9768 16.7303 12.396 16.872 11.8293C17.0136 11.2627 17.5945 10.9227 18.1611 11.0643L25.032 12.8068C25.5986 12.9485 25.9386 13.5293 25.797 14.096C25.6836 14.5635 25.2445 14.8893 24.777 14.8893Z" fill="#2278E3"/>
<path d="M20.6263 19.6776C20.5413 19.6776 20.4563 19.6634 20.3571 19.6493L16.2346 18.6009C15.6679 18.4593 15.3279 17.8784 15.4696 17.3118C15.6113 16.7451 16.1921 16.4051 16.7588 16.5468L20.8813 17.5951C21.4479 17.7368 21.7879 18.3176 21.6463 18.8843C21.5329 19.3659 21.1079 19.6776 20.6263 19.6776Z" fill="#2278E3"/>
</svg>
