<svg width="60" height="60" viewBox="0 0 60 60" fill="none" xmlns="http://www.w3.org/2000/svg">
<path d="M51.25 55H35C35.75 54 36.25 52.75 36.25 51.25C36.25 51.25 36.25 51.25 36.25 51C39.25 49.75 42.25 48 44.5 45.5C52 37.25 51.75 24.5 44 16.5L45.25 15.25C45.5 15 45.75 15 45.75 14.75L47.5 9.5C47.75 9 47.5 8.5 47.25 8.25L42 3C41.5 2.5 41 2.5 40.5 2.5L35.25 4.25C35 4.25 35 4.5 34.75 4.5L19 20.5C18.5 21 18.5 21.75 19 22.25L20 23.25L15.25 27.5C14.75 28 14.75 28.75 15.25 29.25L20.5 34.5C21 35 21.25 35 21.5 35C21.75 35 22.25 35 22.5 34.75L27 30.25L28 31.25C28.25 31.5 28.5 31.5 29 31.5C29.25 31.5 29.75 31.25 30 31.25L42.75 18.5C44.75 20.5 46.25 23 47 25.75C50 35.25 45.25 45.25 36 48.75C34.75 46.5 32.5 45 30 45C27.25 45 24.75 46.75 24 49.5C21 48.75 18.25 47.25 16 45H18.75C19.5 45 20 44.5 20 43.75C20 43 19.5 42.5 18.75 42.5H8.75C8 42.5 7.5 43 7.5 43.75C7.5 44.5 8 45 8.75 45H12.5C15.5 48.5 19.25 50.75 23.75 52C23.75 53.25 24.25 54.25 25 55H8.75C8 55 7.5 55.5 7.5 56.25C7.5 57 8 57.5 8.75 57.5H51.25C52 57.5 52.5 57 52.5 56.25C52.5 55.5 52 55 51.25 55ZM21.5 32L18 28.5L21.5 25L25 28.5L21.5 32ZM41.5 15.75C41.25 15.75 41.5 15.75 41.5 15.75C41.25 15.75 41.25 15.75 41.5 15.75L28.75 28.5L21.5 21.5L36.25 6.75L40.5 5.25L44.75 9.5L43.25 13.75L41.5 15.75ZM30 55C28 55 26.25 53.25 26.25 51.25C26.25 49.25 28 47.5 30 47.5C32 47.5 33.75 49.25 33.75 51.25C33.75 53.25 32 55 30 55Z" fill="url(#paint0_linear_485_5118)"/>
<defs>
<linearGradient id="paint0_linear_485_5118" x1="7.5" y1="2.5" x2="60.3999" y2="3.4561" gradientUnits="userSpaceOnUse">
<stop offset="0.0927951" stop-color="#FFAD00"/>
<stop offset="1" stop-color="#009FA9"/>
</linearGradient>
</defs>
</svg>
