<svg width="34" height="34" viewBox="0 0 34 34" fill="none" xmlns="http://www.w3.org/2000/svg">
<path d="M12.9757 16.4623C12.9332 16.4623 12.9048 16.4623 12.8623 16.4623C12.7915 16.4482 12.6923 16.4482 12.6073 16.4623C8.49898 16.3348 5.39648 13.1048 5.39648 9.12398C5.39648 5.07232 8.69732 1.77148 12.749 1.77148C16.8007 1.77148 20.1015 5.07232 20.1015 9.12398C20.0873 13.1048 16.9707 16.3348 13.0182 16.4623C13.004 16.4623 12.9898 16.4623 12.9757 16.4623ZM12.749 3.89648C9.87315 3.89648 7.52148 6.24815 7.52148 9.12398C7.52148 11.9573 9.73148 14.2382 12.5507 14.3373C12.6357 14.3232 12.8198 14.3232 13.004 14.3373C15.7807 14.2098 17.9623 11.929 17.9765 9.12398C17.9765 6.24815 15.6248 3.89648 12.749 3.89648Z" fill="#2278E3"/>
<path d="M23.4304 16.6452C23.3879 16.6452 23.3454 16.6452 23.3029 16.631C22.722 16.6877 22.127 16.2768 22.0704 15.696C22.0137 15.1152 22.3679 14.591 22.9487 14.5202C23.1187 14.506 23.3029 14.506 23.4587 14.506C25.527 14.3927 27.142 12.6927 27.142 10.6102C27.142 8.45685 25.3995 6.71435 23.2462 6.71435C22.6654 6.72852 22.1837 6.24685 22.1837 5.66602C22.1837 5.08518 22.6654 4.60352 23.2462 4.60352C26.5612 4.60352 29.267 7.30935 29.267 10.6243C29.267 13.8827 26.717 16.5177 23.4729 16.6452C23.4587 16.6452 23.4445 16.6452 23.4304 16.6452Z" fill="#2278E3"/>
<path d="M12.9898 31.9452C10.2131 31.9452 7.42229 31.2368 5.31146 29.8202C3.34229 28.5168 2.26562 26.7318 2.26562 24.791C2.26562 22.8502 3.34229 21.051 5.31146 19.7335C9.56146 16.9143 16.4465 16.9143 20.6681 19.7335C22.6231 21.0368 23.714 22.8218 23.714 24.7627C23.714 26.7035 22.6373 28.5027 20.6681 29.8202C18.5431 31.2368 15.7665 31.9452 12.9898 31.9452ZM6.48729 21.5185C5.12729 22.4252 4.39062 23.5868 4.39062 24.8052C4.39062 26.0093 5.14146 27.171 6.48729 28.0635C10.0148 30.4293 15.9648 30.4293 19.4923 28.0635C20.8523 27.1568 21.589 25.9952 21.589 24.7768C21.589 23.5727 20.8381 22.411 19.4923 21.5185C15.9648 19.1668 10.0148 19.1668 6.48729 21.5185Z" fill="#2278E3"/>
<path d="M25.9804 29.3959C25.4846 29.3959 25.0454 29.0559 24.9463 28.5459C24.8329 27.965 25.2013 27.4125 25.7679 27.285C26.6604 27.1009 27.4821 26.7467 28.1196 26.2509C28.9271 25.6417 29.3663 24.8767 29.3663 24.0692C29.3663 23.2617 28.9271 22.4967 28.1338 21.9017C27.5104 21.42 26.7313 21.08 25.8104 20.8675C25.2438 20.74 24.8754 20.1734 25.0029 19.5925C25.1304 19.0259 25.6971 18.6575 26.2779 18.785C27.4963 19.0542 28.5588 19.5359 29.4229 20.2017C30.7404 21.1934 31.4913 22.5959 31.4913 24.0692C31.4913 25.5425 30.7263 26.945 29.4088 27.9509C28.5304 28.6309 27.4254 29.1267 26.2071 29.3675C26.1221 29.3959 26.0513 29.3959 25.9804 29.3959Z" fill="#2278E3"/>
</svg>
