<svg width="62" height="62" viewBox="0 0 62 62" fill="none" xmlns="http://www.w3.org/2000/svg">
<g clip-path="url(#clip0_485_5144)">
<path d="M30.0311 57.6406C30.0286 57.0012 29.8454 56.3755 29.5026 55.8357C29.1598 55.2959 28.6713 54.8641 28.0936 54.59V25.14C28.9442 25.0224 29.7183 24.5856 30.2588 23.9182C30.7994 23.2509 31.0658 22.4029 31.0042 21.5464C30.9426 20.6898 30.5575 19.8887 29.927 19.3056C29.2966 18.7225 28.4679 18.401 27.6092 18.4062H6.87793C7.10277 17.3129 7.69767 16.3306 8.56234 15.6247C9.42702 14.9188 10.5086 14.5327 11.6248 14.5312H22.7654C23.9216 14.5312 25.0304 14.072 25.848 13.2544C26.6655 12.4369 27.1248 11.3281 27.1248 10.1719C27.1248 9.0157 26.6655 7.90687 25.848 7.08933C25.0304 6.27179 23.9216 5.8125 22.7654 5.8125H11.6248C10.5971 5.8125 9.61147 5.40424 8.88477 4.67754C8.15806 3.95084 7.74981 2.96521 7.74981 1.9375H5.81231C5.81384 3.4786 6.42672 4.95614 7.51645 6.04586C8.60617 7.13558 10.0837 7.74846 11.6248 7.75H22.7654C23.4078 7.75 24.0238 8.00516 24.478 8.45935C24.9321 8.91354 25.1873 9.52955 25.1873 10.1719C25.1873 10.8142 24.9321 11.4302 24.478 11.8844C24.0238 12.3386 23.4078 12.5938 22.7654 12.5938H11.6248C9.99552 12.5957 8.42138 13.1841 7.19038 14.2515C5.95938 15.3188 5.15381 16.7937 4.92106 18.4062H4.35918C3.5901 18.4046 2.84341 18.665 2.2422 19.1446C1.64099 19.6243 1.22116 20.2944 1.05191 21.0447C0.88266 21.7949 0.974099 22.5804 1.31115 23.2717C1.64821 23.963 2.21075 24.5188 2.90606 24.8475V54.5881C2.20964 54.9162 1.64594 55.472 1.30807 56.1637C0.970202 56.8554 0.878366 57.6417 1.04773 58.3926C1.2171 59.1436 1.63753 59.8143 2.2396 60.2941C2.84167 60.7738 3.58936 61.0339 4.35918 61.0312H26.6404C27.5397 61.0312 28.4021 60.674 29.038 60.0382C29.6738 59.4023 30.0311 58.5399 30.0311 57.6406ZM26.1561 25.1875V27.125H4.84356V25.1875H26.1561ZM4.84356 29.0625H26.1561V31H4.84356V29.0625ZM4.84356 32.9375H26.1561V34.875H4.84356V32.9375ZM4.84356 36.8125H26.1561V38.75H4.84356V36.8125ZM4.84356 40.6875H26.1561V42.625H4.84356V40.6875ZM4.84356 44.5625H26.1561V46.5H4.84356V44.5625ZM4.84356 48.4375H26.1561V50.375H4.84356V48.4375ZM26.1561 52.3125V54.25H4.84356V52.3125H26.1561ZM4.35918 20.3438H27.6092C27.9946 20.3438 28.3642 20.4968 28.6367 20.7694C28.9092 21.0419 29.0623 21.4115 29.0623 21.7969C29.0623 22.1823 28.9092 22.5519 28.6367 22.8244C28.3642 23.0969 27.9946 23.25 27.6092 23.25H4.35918C3.97379 23.25 3.60418 23.0969 3.33167 22.8244C3.05915 22.5519 2.90606 22.1823 2.90606 21.7969C2.90606 21.4115 3.05915 21.0419 3.33167 20.7694C3.60418 20.4968 3.97379 20.3438 4.35918 20.3438ZM2.90606 57.6406C2.90606 57.2552 3.05915 56.8856 3.33167 56.6131C3.60418 56.3406 3.97379 56.1875 4.35918 56.1875H26.6404C27.0258 56.1875 27.3954 56.3406 27.6679 56.6131C27.9405 56.8856 28.0936 57.2552 28.0936 57.6406C28.0936 58.026 27.9405 58.3956 27.6679 58.6681C27.3954 58.9407 27.0258 59.0938 26.6404 59.0938H4.35918C3.97379 59.0938 3.60418 58.9407 3.33167 58.6681C3.05915 58.3956 2.90606 58.026 2.90606 57.6406ZM58.1248 6.17191V3.875C58.1248 3.10421 57.8186 2.365 57.2736 1.81997C56.7286 1.27494 55.9893 0.96875 55.2186 0.96875H39.7186C38.9478 0.96875 38.2086 1.27494 37.6635 1.81997C37.1185 2.365 36.8123 3.10421 36.8123 3.875V6.17191C35.9533 6.52749 35.2188 7.12955 34.7016 7.90212C34.1843 8.67469 33.9075 9.58315 33.9061 10.5129V51.491C33.9075 52.4207 34.1843 53.3292 34.7016 54.1018C35.2188 54.8743 35.9533 55.4764 36.8123 55.832V58.125C36.8123 58.8958 37.1185 59.635 37.6635 60.18C38.2086 60.7251 38.9478 61.0312 39.7186 61.0312H55.2186C55.9893 61.0312 56.7286 60.7251 57.2736 60.18C57.8186 59.635 58.1248 58.8958 58.1248 58.125V55.8281C58.9838 55.4725 59.7183 54.8704 60.2355 54.0979C60.7528 53.3253 61.0296 52.4168 61.0311 51.4871V10.509C61.0288 9.57994 60.7517 8.67232 60.2345 7.90051C59.7173 7.1287 58.9832 6.52724 58.1248 6.17191ZM35.8436 50.375V48.4375H59.0936V50.375H35.8436ZM59.0936 11.625V13.5625H35.8436V11.625H59.0936ZM59.0936 15.5V17.4375H35.8436V15.5H59.0936ZM59.0936 19.375V21.3125H35.8436V19.375H59.0936ZM59.0936 23.25V25.1875H35.8436V23.25H59.0936ZM44.046 27.125L35.8436 32.1732V27.125H44.046ZM35.8436 34.4478L47.7427 27.125H50.1501L35.8436 36.9094V34.4478ZM35.8436 39.2605L53.5804 27.125H56.9623L35.8436 41.7444V39.2605ZM35.8436 46.5V44.5625H59.0936V46.5H35.8436ZM51.6342 42.625L59.0936 37.6534V42.625H51.6342ZM59.0936 35.3255L48.1467 42.625H44.7871L59.0936 32.8406V35.3255ZM59.0936 30.4895L41.3567 42.625H37.9748L59.0936 28.0056V30.4895ZM39.7186 2.90625H55.2186C55.4755 2.90625 55.7219 3.00831 55.9036 3.18999C56.0852 3.37167 56.1873 3.61807 56.1873 3.875V5.8125H38.7498V3.875C38.7498 3.61807 38.8519 3.37167 39.0335 3.18999C39.2152 3.00831 39.4616 2.90625 39.7186 2.90625ZM38.6064 7.75H56.3346C56.9209 7.75198 57.4914 7.94093 57.963 8.28937C58.4346 8.63781 58.7828 9.12759 58.957 9.6875H35.984C36.1582 9.12759 36.5064 8.63781 36.978 8.28937C37.4496 7.94093 38.0201 7.75198 38.6064 7.75ZM55.2186 59.0938H39.7186C39.4616 59.0938 39.2152 58.9917 39.0335 58.81C38.8519 58.6283 38.7498 58.3819 38.7498 58.125V56.1875H56.1873V58.125C56.1873 58.3819 56.0852 58.6283 55.9036 58.81C55.7219 58.9917 55.4755 59.0938 55.2186 59.0938ZM56.3307 54.25H38.6026C38.0162 54.248 37.4457 54.0591 36.9741 53.7106C36.5025 53.3622 36.1543 52.8724 35.9801 52.3125H58.9492C58.7753 52.8718 58.4276 53.3611 57.9568 53.7095C57.486 54.0579 56.9164 54.2472 56.3307 54.25Z" fill="url(#paint0_linear_485_5144)"/>
</g>
<defs>
<linearGradient id="paint0_linear_485_5144" x1="0.964844" y1="0.96875" x2="71.5644" y2="2.52841" gradientUnits="userSpaceOnUse">
<stop offset="0.0927951" stop-color="#FFAD00"/>
<stop offset="1" stop-color="#009FA9"/>
</linearGradient>
<clipPath id="clip0_485_5144">
<rect width="62" height="62" fill="white"/>
</clipPath>
</defs>
</svg>
