<svg width="34" height="34" viewBox="0 0 34 34" fill="none" xmlns="http://www.w3.org/2000/svg">
<path d="M17.0002 18.8416C16.8161 18.8416 16.6319 18.7991 16.4619 18.6999L3.95274 11.4608C3.44274 11.1633 3.27271 10.5116 3.57021 10.0016C3.86771 9.49157 4.50521 9.32154 5.02937 9.61904L17.0002 16.5466L28.9002 9.66158C29.4102 9.36408 30.0619 9.54827 30.3594 10.0441C30.6569 10.5541 30.4727 11.2057 29.9769 11.5032L17.5527 18.6999C17.3686 18.7849 17.1844 18.8416 17.0002 18.8416Z" fill="#2278E3"/>
<path d="M17 31.6763C16.4192 31.6763 15.9375 31.1947 15.9375 30.6138V17.7646C15.9375 17.1838 16.4192 16.7021 17 16.7021C17.5808 16.7021 18.0625 17.1838 18.0625 17.7646V30.6138C18.0625 31.1947 17.5808 31.6763 17 31.6763Z" fill="#2278E3"/>
<path d="M16.9994 32.2293C15.7103 32.2293 14.4777 31.9318 13.5427 31.4076L5.97776 27.2144C3.92359 26.081 2.30859 23.3469 2.30859 20.9952V12.9768C2.30859 10.6251 3.92359 7.9052 5.97776 6.7577L13.5427 2.56434C15.4694 1.48767 18.5011 1.48767 20.4419 2.56434L28.0069 6.7577C30.0611 7.89103 31.6761 10.6251 31.6761 12.9768V18.1619C31.6761 18.7427 31.1944 19.2244 30.6136 19.2244C30.0327 19.2244 29.5511 18.7427 29.5511 18.1619V12.9768C29.5511 11.4185 28.3469 9.37854 26.9869 8.62771L19.4219 4.43435C18.1327 3.71185 15.8802 3.71185 14.5911 4.43435L7.02607 8.62771C5.65191 9.39271 4.46191 11.4185 4.46191 12.9768V20.9952C4.46191 22.5535 5.66607 24.5935 7.02607 25.3444L14.5911 29.5376C15.8377 30.2318 18.1894 30.2318 19.4219 29.5376C19.9319 29.2543 20.5836 29.4385 20.8669 29.9485C21.1503 30.4585 20.9661 31.1101 20.4561 31.3935C19.5211 31.9318 18.2886 32.2293 16.9994 32.2293Z" fill="#2278E3"/>
<path d="M27.1994 31.3792C24.111 31.3792 21.6035 28.8717 21.6035 25.7834C21.6035 22.695 24.111 20.1875 27.1994 20.1875C30.2877 20.1875 32.7952 22.695 32.7952 25.7834C32.7952 28.8717 30.2877 31.3792 27.1994 31.3792ZM27.1994 22.3125C25.2869 22.3125 23.7285 23.8709 23.7285 25.7834C23.7285 27.6959 25.2869 29.2542 27.1994 29.2542C29.1119 29.2542 30.6702 27.6959 30.6702 25.7834C30.6702 23.8709 29.1119 22.3125 27.1994 22.3125Z" fill="#2278E3"/>
<path d="M32.583 32.2296C32.3139 32.2296 32.0447 32.1304 31.8322 31.9179L30.4155 30.5013C30.0047 30.0904 30.0047 29.4104 30.4155 28.9995C30.8264 28.5887 31.5064 28.5887 31.9172 28.9995L33.3339 30.4162C33.7447 30.827 33.7447 31.5071 33.3339 31.9179C33.1214 32.1304 32.8522 32.2296 32.583 32.2296Z" fill="#2278E3"/>
</svg>
