<svg width="603" height="276" viewBox="0 0 603 276" fill="none" xmlns="http://www.w3.org/2000/svg">
<g clip-path="url(#clip0_515_8380)">
<path d="M338.699 6.54907V122.953H462.092V6.54907H338.699Z" fill="#FFF6EF"/>
<path d="M581.058 187.817L577.752 188.268C577.269 184.702 576.082 181.269 574.259 178.167L577.126 176.483C575.113 173.061 572.452 170.064 569.292 167.659L567.269 170.307C564.405 168.127 561.134 166.542 557.648 165.645L558.488 162.413C555.79 161.713 553.009 161.385 550.223 161.439V177.211C551.672 177.152 553.122 177.308 554.525 177.673C556.401 178.158 558.163 179.008 559.71 180.173C561.257 181.339 562.559 182.798 563.542 184.467C564.525 186.136 565.169 187.983 565.437 189.901C565.706 191.818 565.594 193.771 565.108 195.645C564.262 198.908 562.324 201.783 559.615 203.791C556.907 205.799 553.592 206.82 550.223 206.682V222.438C551.798 222.469 553.373 222.375 554.933 222.156L554.483 218.855C558.054 218.374 561.494 217.188 564.603 215.366L566.287 218.233C569.711 216.222 572.71 213.561 575.113 210.4L575.102 210.396L574.338 209.807L572.464 208.38C574.644 205.518 576.23 202.248 577.129 198.764L580.362 199.602C581.366 195.758 581.602 191.754 581.057 187.818" fill="#363636"/>
<path d="M579.601 128.526C580.77 126.845 582.523 125.66 584.519 125.202C586.515 124.744 588.61 125.047 590.394 126.051C591.384 126.611 592.247 127.372 592.926 128.284C593.606 129.196 594.089 130.239 594.343 131.348C594.598 132.457 594.619 133.606 594.405 134.723C594.191 135.84 593.746 136.9 593.1 137.836C591.929 139.515 590.176 140.698 588.181 141.155C586.186 141.613 584.092 141.312 582.307 140.312C581.317 139.751 580.454 138.991 579.774 138.079C579.094 137.167 578.611 136.123 578.356 135.014C578.102 133.906 578.081 132.756 578.296 131.639C578.51 130.522 578.955 129.462 579.601 128.526ZM572.165 123.873C570.955 125.716 570.117 127.778 569.697 129.943L571.518 130.296C571.136 132.262 571.148 134.284 571.553 136.246L569.745 136.62C570.19 138.779 571.054 140.831 572.288 142.658L572.632 142.43L573.824 141.625C574.946 143.284 576.386 144.703 578.061 145.8L577.043 147.35C578.885 148.563 580.949 149.4 583.116 149.814L583.472 147.995C585.437 148.379 587.458 148.369 589.419 147.964L589.798 149.773C591.959 149.325 594.011 148.459 595.84 147.225L595.836 147.221L595.54 146.775L594.805 145.689C596.465 144.571 597.884 143.133 598.98 141.46L600.532 142.477C601.746 140.633 602.585 138.567 603 136.398L601.179 136.046C601.562 134.084 601.55 132.064 601.144 130.107L602.956 129.731C602.506 127.57 601.639 125.518 600.405 123.689L598.869 124.722C597.75 123.064 596.311 121.646 594.636 120.552L595.655 119.001C593.81 117.786 591.743 116.948 589.574 116.534L589.218 118.353C587.256 117.97 585.237 117.982 583.279 118.388L582.904 116.578C580.741 117.023 578.687 117.889 576.858 119.126L576.866 119.14L577.549 120.151L577.892 120.662C576.234 121.781 574.815 123.219 573.718 124.892L572.166 123.874" fill="#363636"/>
<path d="M542.955 41.204C540.951 29.6368 523.096 24.4842 523.478 32.0376L441.724 32.8526C436.064 32.909 431.49 38.0195 431.512 44.273L432.228 259.187C432.25 265.666 436.942 270.944 442.714 270.969L526.177 271.344C526.695 272.427 527.67 273.414 529.203 274.232C538.774 274.398 543.345 269.654 544.999 264.306C545.559 262.807 545.834 261.215 545.809 259.615C545.464 256.818 543.572 43.9162 542.956 41.2048" fill="#FFF2D5"/>
<path d="M528.309 274.271L432.509 274.047C426.533 274.033 421.673 268.613 421.655 261.947L421.107 40.9256C421.09 34.4979 425.828 29.2568 431.691 29.2136L525.623 28.5224C531.532 28.4785 536.388 33.6728 536.463 40.1301L539.081 262.163C539.159 268.86 534.335 274.284 528.309 274.271" fill="#FFF2D5"/>
<path d="M529.624 272.657C529.223 272.712 528.819 272.739 528.414 272.737L432.644 272.407C427.506 272.39 423.29 267.638 423.272 261.818L422.693 41.0413C422.679 35.4295 426.792 30.8331 431.832 30.7905L525.76 29.9959C525.909 29.9944 526.054 29.9969 526.203 30.003C528.567 30.103 530.781 31.1701 532.438 33.0054C534.155 34.9411 535.107 37.4364 535.115 40.0233L537.709 262.282C537.769 267.551 534.309 272.01 529.624 272.657Z" fill="#464646"/>
<path d="M531.824 41.1544L534.35 262.639L426.464 262.438L425.828 41.5902L531.823 41.1543" fill="white"/>
<path d="M444.221 226.106C444.221 226.106 431.245 218.17 439.753 186.89C448.265 155.607 423.229 139.432 436.99 122.226C441.25 116.899 448.095 118.103 456.299 119.307C465.71 120.688 476.91 122.07 488.05 113.589C503.143 102.097 519.112 102.85 525.918 129.463C535.955 168.698 514.067 185.596 520.173 205.332C527.832 230.077 507.621 244.783 485.284 233.577C478.69 230.272 471.317 230.527 464.415 230.781C456.402 231.077 449.022 231.373 444.221 226.107" fill="#FFD67E"/>
<path d="M474.574 92.1846H438.093C437.742 92.1846 437.395 92.1156 437.071 91.9815C436.747 91.8473 436.453 91.6507 436.205 91.4029C435.957 91.1551 435.761 90.8609 435.627 90.5371C435.493 90.2133 435.424 89.8663 435.424 89.5158V61.3619C435.424 61.0115 435.493 60.6645 435.627 60.3407C435.761 60.0169 435.958 59.7227 436.205 59.4749C436.453 59.2271 436.748 59.0305 437.071 58.8964C437.395 58.7622 437.742 58.6932 438.093 58.6931H474.574C474.925 58.6932 475.272 58.7622 475.596 58.8964C475.92 59.0305 476.214 59.2271 476.462 59.4749C476.71 59.7227 476.906 60.0169 477.04 60.3407C477.174 60.6645 477.243 61.0115 477.243 61.3619V89.5158C477.243 89.8663 477.175 90.2133 477.04 90.5371C476.906 90.8609 476.71 91.1551 476.462 91.4029C476.214 91.6507 475.92 91.8473 475.596 91.9815C475.272 92.1156 474.925 92.1846 474.574 92.1846Z" fill="#FFF2D5"/>
<path d="M475.309 88.5477H439.482V63.8597C439.482 63.8345 439.488 63.8095 439.497 63.7863C439.507 63.763 439.521 63.7419 439.539 63.7241C439.557 63.7064 439.579 63.6924 439.602 63.6829C439.625 63.6734 439.65 63.6686 439.676 63.6688C439.726 63.6691 439.774 63.6893 439.81 63.7251C439.846 63.7608 439.866 63.8093 439.866 63.8597V88.1667H475.309C475.359 88.1667 475.408 88.1867 475.443 88.2224C475.479 88.258 475.499 88.3064 475.499 88.3568C475.499 88.3818 475.494 88.4066 475.485 88.4297C475.475 88.4529 475.461 88.474 475.444 88.4917C475.426 88.5094 475.405 88.5235 475.382 88.5331C475.359 88.5427 475.334 88.5477 475.309 88.5477" fill="white"/>
<path d="M447.004 88.3569H443.049V80.7971H447.004V88.3569Z" fill="url(#paint0_linear_515_8380)"/>
<path d="M452.517 88.3559H448.562V79.0736H452.517V88.3559Z" fill="url(#paint1_linear_515_8380)"/>
<path d="M458.029 88.3566H454.076V75.5817H458.029V88.3566Z" fill="url(#paint2_linear_515_8380)"/>
<path d="M463.541 88.3571H459.588V73.1421H463.541V88.3575" fill="url(#paint3_linear_515_8380)"/>
<path d="M469.056 88.3562H465.104V67.8779H469.056V88.3562Z" fill="url(#paint4_linear_515_8380)"/>
<path d="M519.491 92.1847H483.013C482.662 92.1847 482.315 92.1156 481.991 91.9815C481.667 91.8474 481.373 91.6508 481.125 91.4029C480.877 91.1551 480.681 90.8609 480.547 90.5371C480.413 90.2133 480.344 89.8663 480.344 89.5159V61.3602C480.344 61.0098 480.413 60.6628 480.547 60.339C480.681 60.0152 480.878 59.721 481.125 59.4732C481.373 59.2254 481.668 59.0288 481.991 58.8947C482.315 58.7606 482.662 58.6915 483.013 58.6915H519.492C520.2 58.6917 520.878 58.973 521.379 59.4735C521.879 59.9739 522.16 60.6526 522.16 61.3602V89.5151C522.16 89.8656 522.091 90.2126 521.957 90.5364C521.823 90.8602 521.627 91.1544 521.379 91.4022C521.131 91.6501 520.837 91.8466 520.513 91.9808C520.189 92.1149 519.842 92.1839 519.491 92.1839" fill="#FFF2D5"/>
<path d="M520.225 88.5478H484.4V65.1992C484.401 65.1485 484.421 65.0999 484.457 65.0643C484.494 65.0287 484.542 65.0088 484.593 65.0092C484.643 65.0095 484.691 65.0297 484.727 65.0653C484.762 65.1009 484.782 65.149 484.783 65.1992V88.166H520.225C520.25 88.166 520.275 88.1709 520.298 88.1805C520.321 88.1901 520.342 88.2041 520.36 88.2219C520.378 88.2397 520.392 88.2607 520.401 88.2839C520.41 88.3071 520.415 88.3319 520.415 88.3569C520.415 88.3819 520.41 88.4067 520.401 88.4299C520.392 88.4531 520.378 88.4742 520.36 88.492C520.342 88.5097 520.321 88.5238 520.298 88.5334C520.275 88.543 520.25 88.5479 520.225 88.5478Z" fill="white"/>
<path d="M484.594 88.3567C490.597 87.8343 491.43 63.7159 500.335 74.5291C508.794 84.8017 509.236 65.7251 518.429 65.7251V88.1439L484.594 88.3569" fill="url(#paint5_linear_515_8380)"/>
<path d="M435.673 55.325H521.984V48.356H435.673V55.325ZM522.191 55.5332H435.465V48.1479H522.191V55.5332Z" fill="#FFF2D5"/>
<path d="M470.956 50.5996H456.561V53.0804H470.956V50.5996Z" fill="#FFF2D5"/>
<path d="M472.375 50.6003V53.0814H479.822V50.6003H472.375Z" fill="#FFF2D5"/>
<path d="M454.648 50.599H437.059V53.0798H454.648V50.599" fill="#FFF2D5"/>
<path d="M435.673 252.666H521.984V245.696H435.673V252.666ZM522.191 252.874H435.465V245.489H522.191V252.874Z" fill="#FFF2D5"/>
<path d="M470.956 247.942H456.561V250.423H470.956V247.942Z" fill="#FFF2D5"/>
<path d="M472.375 247.942V250.423H479.822V247.942H472.375Z" fill="#FFF2D5"/>
<path d="M496.842 247.941V250.422H504.288V247.941H496.842" fill="#FFF2D5"/>
<path d="M454.648 247.941H437.059V250.422H454.648V247.941" fill="#FFF2D5"/>
<path d="M476.986 99.2327H435.711V96.8938H476.986V99.2327Z" fill="url(#paint6_linear_515_8380)"/>
<path d="M471.807 107.845H435.709V105.506H471.807V107.845Z" fill="url(#paint7_linear_515_8380)"/>
<path d="M498.333 103.485H435.713V101.147H498.333V103.485Z" fill="url(#paint8_linear_515_8380)"/>
<path d="M500.995 22.1027C501.68 22.7865 502.608 23.1705 503.576 23.1705C504.544 23.1705 505.472 22.7865 506.157 22.1027C506.841 21.4183 507.224 20.4909 507.224 19.524C507.224 18.5571 506.841 17.6297 506.157 16.9453C505.472 16.2615 504.544 15.8774 503.576 15.8774C502.608 15.8774 501.68 16.2615 500.995 16.9453C500.311 17.6297 499.928 18.5571 499.928 19.524C499.928 20.4909 500.311 21.4183 500.995 22.1027Z" fill="#363636"/>
<path d="M490.658 8.09429L489.111 6.33212C497.798 -2.38377 511.334 -2.06187 519.598 7.0503L517.965 8.73485C510.557 0.594033 498.444 0.307105 490.658 8.09447" fill="#363636"/>
<path d="M493.879 11.7529L492.328 9.99042C499.144 3.20277 509.722 3.45227 516.207 10.5473L514.574 12.2321C508.943 6.10821 499.794 5.89346 493.88 11.7529" fill="#363636"/>
<path d="M496.992 15.2959L495.443 13.5341C500.446 8.61179 508.156 8.79099 512.925 13.935L511.291 15.6196C507.378 11.4462 501.095 11.3016 496.992 15.2961" fill="#363636"/>
<path d="M326.555 55.272H321.287V31.0017H326.555V55.272Z" fill="#363636"/>
<path d="M327.117 47.8648H320.94C320.379 48.3191 319.928 48.893 319.618 49.5444C319.308 50.1957 319.147 50.9082 319.148 51.6294L319.16 56.0718L328.92 56.0537L328.908 51.6135C328.907 50.8948 328.746 50.1854 328.436 49.5369C328.126 48.8884 327.675 48.3171 327.117 47.8646" fill="#464646"/>
<path d="M320.443 58.3002C320.14 58.0409 319.778 57.8592 319.389 57.7706C319 57.6819 318.596 57.6891 318.21 57.7913C317.824 57.8936 317.469 58.088 317.175 58.3578C316.881 58.6275 316.657 58.9646 316.523 59.34L311.797 72.5878C311.735 72.7617 311.737 72.952 311.803 73.1246C311.868 73.2972 311.993 73.4408 312.155 73.5298C312.325 73.6251 312.525 73.6524 312.715 73.6063C312.905 73.5602 313.07 73.4441 313.177 73.2813L320.917 61.5442C321.248 61.0392 321.384 60.4303 321.296 59.8325C321.209 59.2347 320.906 58.6897 320.443 58.3005" fill="black"/>
<path d="M328.348 57.834C328.68 57.6124 329.06 57.4746 329.457 57.4324C329.854 57.3902 330.256 57.4449 330.627 57.5919C330.998 57.7388 331.328 57.9736 331.588 58.276C331.849 58.5785 332.032 58.9395 332.122 59.3283L335.257 73.0398C335.297 73.2199 335.273 73.4084 335.187 73.5721C335.102 73.7358 334.962 73.8641 334.791 73.9344C334.61 74.0082 334.408 74.0113 334.225 73.9429C334.042 73.8745 333.892 73.7397 333.804 73.5654L327.497 61.0005C327.227 60.46 327.164 59.8394 327.321 59.256C327.478 58.6726 327.843 58.1669 328.348 57.8345" fill="black"/>
<path d="M329.842 57.4412H318.309V56.0507H329.843V57.4412" fill="black"/>
<path d="M321.447 57.5871C321.446 57.8855 321.327 58.1715 321.115 58.3821C320.904 58.5927 320.617 58.7109 320.318 58.7107C320.019 58.7114 319.732 58.5934 319.52 58.3827C319.308 58.1721 319.189 57.8859 319.188 57.5871C319.189 57.2882 319.308 57.002 319.52 56.7913C319.732 56.5806 320.019 56.4627 320.318 56.4634C320.617 56.4632 320.904 56.5814 321.115 56.792C321.327 57.0027 321.446 57.2886 321.447 57.5871Z" fill="#363636"/>
<path d="M328.921 57.586C328.92 57.734 328.891 57.8804 328.834 58.0169C328.777 58.1535 328.694 58.2775 328.589 58.3819C328.484 58.4863 328.36 58.569 328.223 58.6253C328.086 58.6816 327.939 58.7105 327.791 58.7101C327.492 58.7107 327.206 58.5926 326.994 58.3818C326.782 58.171 326.663 57.8848 326.662 57.586C326.663 57.2876 326.783 57.0018 326.994 56.7914C327.206 56.581 327.493 56.4633 327.791 56.4641C328.09 56.4633 328.377 56.581 328.588 56.7914C328.8 57.0017 328.92 57.2876 328.921 57.586Z" fill="#363636"/>
<path d="M323.854 35.0187H303.951V26.9823H323.854V35.0187Z" fill="#363636"/>
<path d="M307.009 39.797H290.688C289.532 39.7971 288.388 39.5696 287.32 39.1276C286.252 38.6855 285.282 38.0375 284.464 37.2206C283.647 36.4036 282.999 35.4338 282.556 34.3664C282.114 33.299 281.887 32.155 281.887 30.9997C281.887 29.8446 282.115 28.7008 282.557 27.6336C282.999 26.5665 283.648 25.5968 284.465 24.7801C285.282 23.9634 286.253 23.3156 287.32 22.8737C288.388 22.4318 289.532 22.2044 290.688 22.2046H307.009V39.7972" fill="#464646"/>
<path d="M322.915 39.797H311.4V22.2034H322.915C325.25 22.2037 327.488 23.1306 329.138 24.7802C330.789 26.4298 331.716 28.6671 331.716 31.0001C331.716 32.1553 331.489 33.2992 331.046 34.3665C330.604 35.4338 329.956 36.4035 329.139 37.2203C328.321 38.0372 327.351 38.6852 326.283 39.1272C325.216 39.5693 324.071 39.7968 322.915 39.7968" fill="black"/>
<path d="M322.11 28.4493C321.784 28.5846 321.488 28.7828 321.239 29.0327C320.989 29.2826 320.792 29.5792 320.657 29.9056C320.523 30.2319 320.454 30.5816 320.455 30.9345C320.456 31.2874 320.526 31.6367 320.662 31.9624C320.942 32.6195 321.471 33.1394 322.133 33.4087C322.794 33.6779 323.536 33.6747 324.195 33.3997C324.521 33.2644 324.818 33.0662 325.067 32.8163C325.316 32.5664 325.514 32.2698 325.648 31.9434C325.783 31.6171 325.852 31.2674 325.851 30.9145C325.85 30.5616 325.779 30.2123 325.643 29.8866C325.363 29.2295 324.835 28.7096 324.173 28.4403C323.511 28.171 322.77 28.1743 322.11 28.4493ZM324.957 35.1995C323.818 35.6747 322.537 35.6802 321.393 35.215C320.25 34.7498 319.337 33.8516 318.854 32.7162C318.618 32.1541 318.496 31.551 318.494 30.9415C318.492 30.3321 318.611 29.7283 318.843 29.1647C319.075 28.6011 319.416 28.0888 319.846 27.6573C320.277 27.2257 320.789 26.8834 321.352 26.6498C322.491 26.1744 323.771 26.1687 324.914 26.6339C326.058 27.0991 326.97 27.9975 327.453 29.1329C327.689 29.6949 327.811 30.2979 327.813 30.9073C327.815 31.5167 327.697 32.1205 327.465 32.6841C327.233 33.2477 326.892 33.76 326.462 34.1916C326.032 34.6232 325.52 34.9657 324.957 35.1993" fill="white"/>
<path d="M253.692 70.8165L239.666 49.231L244.198 46.3191L258.224 67.9047L253.692 70.8165Z" fill="white"/>
<path d="M213.687 81.1659C213.187 80.3926 212.845 79.5281 212.681 78.6221C212.516 77.716 212.533 76.7865 212.729 75.8869C212.926 74.9872 213.298 74.1354 213.825 73.3802C214.352 72.6251 215.024 71.9817 215.801 71.487L252.05 48.2837L259.673 60.0638L223.424 83.267C221.852 84.2724 219.947 84.6157 218.123 84.2221C216.299 83.8285 214.705 82.7299 213.688 81.1659" fill="#363636"/>
<path d="M256.546 71.2293L295.762 42.3558C298.187 40.5767 299.839 37.9363 300.376 34.9775C300.914 32.0187 300.296 28.9665 298.651 26.4488C296.997 23.9262 294.446 22.1258 291.514 21.4117C288.582 20.6977 285.489 21.1232 282.859 22.6024L240.459 46.4733L256.546 71.2293" fill="black"/>
<path d="M286.254 29.227C285.769 29.5392 285.351 29.9441 285.023 30.4183C284.696 30.8925 284.465 31.4267 284.345 31.9903C284.224 32.5538 284.216 33.1356 284.322 33.7022C284.427 34.2688 284.643 34.809 284.957 35.2919C285.599 36.2663 286.6 36.9482 287.742 37.1892C288.884 37.4303 290.075 37.211 291.056 36.5792C291.541 36.2673 291.959 35.8628 292.287 35.3887C292.614 34.9147 292.845 34.3806 292.965 33.8172C293.086 33.2537 293.094 32.672 292.988 32.1055C292.883 31.539 292.667 30.9989 292.352 30.5163C291.711 29.5412 290.71 28.8587 289.568 28.6173C288.426 28.3758 287.235 28.5949 286.253 29.227H286.254ZM292.803 39.2532C291.108 40.3445 289.05 40.7228 287.078 40.3059C285.106 39.8891 283.378 38.7107 282.27 37.0271C281.726 36.1933 281.353 35.2604 281.172 34.282C280.99 33.3036 281.004 32.2989 281.212 31.3258C281.42 30.3527 281.818 29.4303 282.384 28.6116C282.95 27.7929 283.672 27.0941 284.509 26.5553C286.204 25.4634 288.261 25.0848 290.233 25.5017C292.206 25.9186 293.933 27.0974 295.04 28.7814C295.583 29.6151 295.957 30.5479 296.138 31.5262C296.32 32.5045 296.306 33.509 296.099 34.4821C295.891 35.4552 295.492 36.3776 294.927 37.1964C294.361 38.0151 293.639 38.7141 292.803 39.2532Z" fill="white"/>
<path d="M232.04 197.288C220.305 192.646 214.581 179.424 219.25 167.757L240.451 114.803C245.124 103.136 258.423 97.4445 270.156 102.087C281.89 106.732 287.615 119.954 282.944 131.621L261.743 184.575C257.074 196.24 243.772 201.933 232.04 197.288" fill="black"/>
<path d="M277.293 138.401C267.751 146.626 253.308 145.605 245.034 136.119L207.478 93.0589C205.511 90.8073 204.01 88.189 203.06 85.3547C202.11 82.5205 201.731 79.5265 201.944 76.5451C202.158 73.5638 202.959 70.6541 204.302 67.9837C205.646 65.3133 207.504 62.935 209.772 60.9859C219.314 52.7596 233.756 53.7811 242.031 63.2687L279.586 106.328C281.553 108.58 283.054 111.198 284.004 114.032C284.954 116.867 285.333 119.861 285.12 122.842C284.906 125.823 284.105 128.733 282.762 131.403C281.418 134.074 279.56 136.452 277.293 138.401" fill="black"/>
<path d="M228.591 82.5633C227.146 83.8067 225.267 84.4288 223.364 84.2941C221.462 84.1594 219.69 83.2788 218.434 81.8441C217.815 81.1351 217.342 80.3107 217.043 79.4183C216.744 78.5259 216.625 77.5832 216.692 76.6445C216.759 75.7058 217.012 74.7897 217.435 73.949C217.858 73.1083 218.443 72.3596 219.157 71.7461C220.602 70.5018 222.481 69.8792 224.383 70.0139C226.286 70.1487 228.058 71.0298 229.313 72.4653C229.932 73.1742 230.405 73.9986 230.703 74.8908C231.002 75.7831 231.122 76.7257 231.055 77.6644C230.988 78.603 230.736 79.5191 230.313 80.3598C229.89 81.2006 229.305 81.9495 228.591 82.5633H228.591ZM215.985 68.1112C214.791 69.1373 213.813 70.3893 213.106 71.7951C212.398 73.2009 211.977 74.7327 211.864 76.3023C211.752 77.8718 211.952 79.448 212.452 80.94C212.952 82.432 213.742 83.8104 214.778 84.9957C216.877 87.3958 219.84 88.8692 223.022 89.0945C226.203 89.3197 229.345 88.2787 231.762 86.1983C232.955 85.1721 233.934 83.92 234.641 82.514C235.349 81.1081 235.771 79.5762 235.883 78.0066C235.995 76.4369 235.796 74.8605 235.296 73.3683C234.796 71.876 234.006 70.4974 232.971 69.3118C230.871 66.9118 227.907 65.4388 224.725 65.214C221.543 64.9891 218.402 66.0305 215.985 68.1112Z" fill="white"/>
<path d="M259.533 128.621C258.656 128.277 257.856 127.763 257.179 127.108C256.501 126.454 255.96 125.672 255.586 124.808C255.212 123.944 255.013 123.014 254.999 122.073C254.986 121.132 255.159 120.197 255.508 119.322C256.22 117.555 257.604 116.142 259.356 115.392C261.108 114.642 263.087 114.615 264.858 115.319C265.735 115.663 266.535 116.177 267.213 116.831C267.89 117.486 268.432 118.267 268.806 119.131C269.18 119.996 269.38 120.925 269.393 121.867C269.407 122.808 269.234 123.743 268.884 124.618C268.172 126.385 266.788 127.798 265.035 128.549C263.283 129.299 261.304 129.325 259.533 128.621ZM266.648 110.848C260.471 108.404 253.47 111.402 251.011 117.543C250.428 119.005 250.139 120.568 250.161 122.143C250.184 123.717 250.518 125.271 251.143 126.716C251.769 128.161 252.674 129.468 253.806 130.563C254.939 131.657 256.277 132.517 257.743 133.092C263.922 135.536 270.922 132.539 273.383 126.397C273.966 124.935 274.255 123.371 274.232 121.797C274.209 120.223 273.875 118.668 273.249 117.223C272.623 115.778 271.718 114.471 270.585 113.377C269.452 112.283 268.114 111.424 266.648 110.848Z" fill="white"/>
<path d="M233.364 185.824C232.487 185.479 231.687 184.966 231.01 184.311C230.333 183.657 229.791 182.876 229.417 182.012C229.043 181.148 228.844 180.218 228.831 179.277C228.817 178.336 228.99 177.401 229.339 176.527C230.051 174.759 231.435 173.346 233.187 172.595C234.939 171.845 236.918 171.819 238.689 172.523C239.566 172.867 240.366 173.381 241.044 174.035C241.721 174.689 242.262 175.471 242.637 176.335C243.011 177.199 243.21 178.128 243.224 179.07C243.238 180.011 243.065 180.946 242.716 181.82C242.003 183.588 240.619 185.001 238.867 185.752C237.114 186.502 235.135 186.528 233.364 185.824ZM240.479 168.052C234.302 165.606 227.301 168.604 224.841 174.747C224.257 176.21 223.969 177.773 223.991 179.347C224.014 180.921 224.348 182.475 224.974 183.92C225.6 185.365 226.505 186.672 227.637 187.766C228.77 188.86 230.108 189.719 231.574 190.295C237.753 192.741 244.753 189.743 247.214 183.6C247.798 182.137 248.086 180.574 248.063 179C248.04 177.426 247.706 175.871 247.08 174.426C246.454 172.982 245.549 171.675 244.416 170.581C243.283 169.487 241.945 168.628 240.479 168.052Z" fill="white"/>
<path d="M258.579 239.101H217.023V220.105C217.023 217.559 217.525 215.038 218.5 212.686C219.474 210.334 220.903 208.196 222.704 206.396C224.505 204.596 226.643 203.168 228.997 202.194C231.35 201.219 233.872 200.718 236.419 200.718H239.181C241.728 200.718 244.25 201.219 246.604 202.193C248.957 203.168 251.095 204.596 252.897 206.396C254.698 208.196 256.127 210.333 257.102 212.686C258.077 215.038 258.578 217.559 258.579 220.105V239.1" fill="black"/>
<path d="M241.735 225.319C240.6 226.296 239.126 226.785 237.633 226.679C236.139 226.574 234.749 225.882 233.763 224.756C233.277 224.199 232.906 223.552 232.671 222.852C232.436 222.151 232.342 221.411 232.395 220.675C232.447 219.938 232.645 219.219 232.977 218.559C233.309 217.899 233.768 217.311 234.329 216.829C235.463 215.853 236.938 215.364 238.432 215.47C239.925 215.576 241.316 216.268 242.302 217.394C242.788 217.951 243.159 218.598 243.393 219.298C243.628 219.998 243.721 220.738 243.668 221.475C243.616 222.211 243.418 222.93 243.086 223.59C242.754 224.25 242.295 224.837 241.735 225.319ZM231.841 213.975C230.904 214.781 230.135 215.764 229.58 216.867C229.025 217.971 228.694 219.173 228.606 220.405C228.518 221.637 228.675 222.874 229.067 224.045C229.46 225.217 230.08 226.299 230.893 227.229C232.54 229.113 234.866 230.27 237.363 230.447C239.86 230.623 242.326 229.806 244.223 228.172C245.16 227.367 245.928 226.384 246.483 225.281C247.039 224.177 247.37 222.975 247.458 221.743C247.547 220.511 247.39 219.274 246.998 218.102C246.605 216.931 245.985 215.849 245.172 214.919C243.524 213.035 241.198 211.879 238.701 211.702C236.204 211.526 233.738 212.343 231.84 213.975" fill="white"/>
<path d="M278.008 259.183H198.699V248.176C198.699 245.492 199.766 242.917 201.665 241.019C203.564 239.121 206.14 238.055 208.825 238.055H267.882C270.568 238.055 273.143 239.121 275.042 241.019C276.941 242.917 278.008 245.492 278.008 248.176V259.183" fill="black"/>
<path d="M290.911 273.845H185.674V252.713H290.911V273.845Z" fill="white"/>
<path d="M599.952 276H5.74483C5.60805 276 5.4726 275.973 5.34622 275.921C5.21984 275.869 5.105 275.792 5.00826 275.695C4.91152 275.599 4.83479 275.484 4.78243 275.358C4.73007 275.231 4.70312 275.096 4.70313 274.959C4.70312 274.823 4.73007 274.687 4.78243 274.561C4.83479 274.435 4.91152 274.32 5.00826 274.223C5.105 274.126 5.21984 274.05 5.34622 273.998C5.4726 273.945 5.60805 273.918 5.74483 273.918H599.952C600.089 273.918 600.224 273.945 600.351 273.997C600.477 274.049 600.592 274.126 600.689 274.222C600.786 274.319 600.863 274.434 600.916 274.56C600.968 274.687 600.995 274.822 600.995 274.959C600.995 275.096 600.968 275.232 600.916 275.358C600.863 275.485 600.786 275.599 600.689 275.696C600.592 275.793 600.477 275.869 600.351 275.922C600.224 275.974 600.089 276 599.952 276Z" fill="#464646"/>
<path d="M32.9219 177.819H82.1689V134.609H32.9219V177.819Z" fill="#E68D45"/>
<path d="M47.7676 177.819H97.0146V134.609H47.7676V177.819Z" fill="#FFF2D5"/>
<path d="M68.293 143.327H73.6118V134.609H68.293V143.327Z" fill="#FFF2D5"/>
<path d="M87.5249 174.692H82.4043V169.802H87.5251V174.692" fill="#E68D45"/>
<path d="M94.6248 174.692H89.5039V169.802H94.6248V174.692Z" fill="#E68D45"/>
<path d="M80.3768 174.692H75.2559V169.802H80.3768V174.692Z" fill="#E68D45"/>
<path d="M498.154 179.904H160.93C157.08 179.905 153.388 181.434 150.666 184.155C147.944 186.876 146.414 190.567 146.414 194.415C146.414 198.263 147.944 201.953 150.666 204.674C153.388 207.395 157.08 208.923 160.93 208.923H498.154V179.904Z" fill="#FFF2D5"/>
<path d="M337.271 211.011H340.477V208.443H337.271V211.011Z" fill="white"/>
<path d="M330.863 211.011H334.066V208.442H330.863V211.011Z" fill="white"/>
<path d="M346.798 177.819H343.594V180.388H346.798V177.819" fill="white"/>
<path d="M343.686 211.011H346.891V208.442H343.686V211.011" fill="white"/>
<path d="M340.389 177.819H337.184V180.388H340.389V177.819Z" fill="white"/>
<path d="M350.096 211.011H353.301V208.442H350.096V211.011Z" fill="white"/>
<path d="M356.508 211.011H359.714V208.442H356.508V211.011Z" fill="white"/>
<path d="M353.213 177.818H350.006V180.387H353.213V177.818Z" fill="white"/>
<path d="M366.035 177.819H362.828V180.387H366.035V177.819Z" fill="white"/>
<path d="M359.623 177.819H356.418V180.387H359.623V177.819Z" fill="white"/>
<path d="M333.976 177.819H330.77V180.388H333.976V177.819Z" fill="white"/>
<path d="M305.217 211.011H308.423V208.442H305.217V211.011Z" fill="white"/>
<path d="M362.918 211.011H366.123V208.442H362.918V211.011Z" fill="white"/>
<path d="M298.805 211.011H302.011V208.442H298.805V211.011Z" fill="white"/>
<path d="M308.334 177.819H305.129V180.388H308.334V177.819Z" fill="white"/>
<path d="M324.451 211.011H327.658V208.442H324.451V211.011Z" fill="white"/>
<path d="M301.922 177.818H298.717V180.387H301.922V177.818Z" fill="white"/>
<path d="M292.395 211.011H295.601V208.442H292.395V211.011Z" fill="white"/>
<path d="M327.566 177.819H324.363V180.388H327.566V177.819Z" fill="white"/>
<path d="M439.852 211.011H443.057V208.442H439.852V211.011Z" fill="white"/>
<path d="M318.037 211.011H321.244V208.443H318.037V211.011Z" fill="white"/>
<path d="M321.155 177.819H317.949V180.388H321.155V177.819Z" fill="white"/>
<path d="M311.627 211.011H314.833V208.443H311.627V211.011Z" fill="white"/>
<path d="M398.089 177.819H394.883V180.388H398.089V177.819Z" fill="white"/>
<path d="M410.91 177.819H407.707V180.388H410.91V177.819Z" fill="white"/>
<path d="M420.615 211.011H423.821V208.443H420.615V211.011Z" fill="white"/>
<path d="M414.207 211.011H417.411V208.442H414.207V211.011Z" fill="white"/>
<path d="M417.321 177.819H414.115V180.388H417.321V177.819Z" fill="white"/>
<path d="M407.797 211.011H411.003V208.442H407.797V211.011Z" fill="white"/>
<path d="M423.733 177.819H420.527V180.388H423.733V177.819Z" fill="white"/>
<path d="M433.439 211.011H436.646V208.442H433.439V211.011" fill="white"/>
<path d="M430.142 177.819H426.936V180.388H430.142V177.819Z" fill="white"/>
<path d="M442.968 177.819H439.764V180.387H442.968V177.819Z" fill="white"/>
<path d="M427.027 211.011H430.234V208.442H427.027V211.011Z" fill="white"/>
<path d="M436.558 177.818H433.352V180.387H436.558V177.818Z" fill="white"/>
<path d="M404.5 177.819H401.293V180.388H404.5V177.819Z" fill="white"/>
<path d="M385.267 177.819H382.061V180.388H385.267V177.819Z" fill="white"/>
<path d="M375.74 211.011H378.945V208.442H375.74V211.011Z" fill="white"/>
<path d="M369.33 211.011H372.534V208.443H369.33V211.011Z" fill="white"/>
<path d="M378.855 177.818H375.65V180.387H378.855V177.818" fill="white"/>
<path d="M382.15 211.011H385.355V208.442H382.15V211.011Z" fill="white"/>
<path d="M372.443 177.819H369.236V180.388H372.443V177.819Z" fill="white"/>
<path d="M401.387 211.011H404.591V208.442H401.387V211.011Z" fill="white"/>
<path d="M394.971 211.011H398.177V208.442H394.971V211.011Z" fill="white"/>
<path d="M295.512 177.818H292.307V180.387H295.512V177.818Z" fill="white"/>
<path d="M388.562 211.011H391.768V208.442H388.562V211.011Z" fill="white"/>
<path d="M391.678 177.819H388.471V180.388H391.678V177.819Z" fill="white"/>
<path d="M314.745 177.819H311.539V180.388H314.745V177.819Z" fill="white"/>
<path d="M183.406 211.011H186.612V208.442H183.406V211.011Z" fill="white"/>
<path d="M192.934 177.819H189.729V180.388H192.934V177.819" fill="white"/>
<path d="M170.584 211.011H173.79V208.442H170.584V211.011Z" fill="white"/>
<path d="M176.996 211.011H180.202V208.442H176.996V211.011Z" fill="white"/>
<path d="M189.818 211.011H193.024V208.442H189.818V211.011Z" fill="white"/>
<path d="M180.112 177.819H176.906V180.388H180.112V177.819Z" fill="white"/>
<path d="M186.522 177.819H183.316V180.388H186.522V177.819Z" fill="white"/>
<path d="M202.641 211.011H205.845V208.442H202.641V211.011" fill="white"/>
<path d="M199.346 177.819H196.141V180.388H199.346V177.819Z" fill="white"/>
<path d="M212.167 177.819H208.961V180.388H212.167V177.819" fill="white"/>
<path d="M205.758 177.819H202.553V180.388H205.758V177.819Z" fill="white"/>
<path d="M196.23 211.011H199.436V208.442H196.23V211.011Z" fill="white"/>
<path d="M164.172 211.011H167.378V208.442H164.172V211.011Z" fill="white"/>
<path d="M285.984 211.011H289.19V208.442H285.984V211.011Z" fill="white"/>
<path d="M146.974 195.904L144.418 196.175C144.54 197.327 144.783 198.463 145.144 199.564L147.586 198.765C147.282 197.836 147.076 196.877 146.973 195.904" fill="white"/>
<path d="M155.186 181.616L154.131 179.273C153.075 179.749 152.071 180.334 151.137 181.019L152.655 183.091C153.446 182.513 154.294 182.018 155.186 181.616" fill="white"/>
<path d="M150.483 185.059L148.57 183.342C147.796 184.205 147.114 185.145 146.535 186.149L148.762 187.431C149.251 186.583 149.828 185.788 150.483 185.059" fill="white"/>
<path d="M147.572 190.107L145.126 189.318C144.77 190.421 144.53 191.558 144.412 192.711L146.969 192.973C147.069 191.999 147.271 191.039 147.572 190.107" fill="white"/>
<path d="M151.182 207.844C152.119 208.525 153.125 209.106 154.183 209.578L155.231 207.234C154.336 206.834 153.486 206.342 152.694 205.766L151.182 207.844Z" fill="white"/>
<path d="M173.7 177.819H170.494V180.388H173.7V177.819Z" fill="white"/>
<path d="M167.288 177.819H164.084V180.388H167.288V177.819Z" fill="white"/>
<path d="M209.051 211.011H212.256V208.442H209.051V211.011Z" fill="white"/>
<path d="M160.883 180.386L160.873 177.817C159.715 177.821 158.56 177.946 157.428 178.189L157.97 180.702C158.927 180.495 159.904 180.389 160.883 180.386" fill="white"/>
<path d="M158.015 208.138L157.482 210.652C158.616 210.891 159.771 211.011 160.93 211.011H160.969V208.442H160.93C159.95 208.443 158.973 208.341 158.015 208.138Z" fill="white"/>
<path d="M146.563 202.728C147.145 203.729 147.829 204.667 148.606 205.527L150.514 203.806C149.857 203.078 149.278 202.285 148.785 201.438L146.562 202.728" fill="white"/>
<path d="M260.34 211.011H263.546V208.442H260.34V211.011Z" fill="white"/>
<path d="M269.868 177.819H266.662V180.388H269.868V177.819Z" fill="white"/>
<path d="M257.044 177.819H253.838V180.388H257.044V177.819Z" fill="white"/>
<path d="M253.928 211.011H257.133V208.442H253.928V211.011Z" fill="white"/>
<path d="M266.75 211.011H269.956V208.442H266.75V211.011Z" fill="white"/>
<path d="M263.456 177.819H260.25V180.388H263.456V177.819Z" fill="white"/>
<path d="M289.097 177.819H285.895V180.388H289.097V177.819Z" fill="white"/>
<path d="M279.574 211.011H282.779V208.442H279.574V211.011Z" fill="white"/>
<path d="M282.69 177.819H279.484V180.387H282.69V177.819Z" fill="white"/>
<path d="M276.278 177.819H273.072V180.388H276.278V177.819Z" fill="white"/>
<path d="M273.162 211.011H276.368V208.442H273.162V211.011Z" fill="white"/>
<path d="M241.107 211.011H244.313V208.442H241.107V211.011Z" fill="white"/>
<path d="M228.285 211.011H231.491V208.442H228.285V211.011Z" fill="white"/>
<path d="M231.401 177.819H228.195V180.388H231.401V177.819Z" fill="white"/>
<path d="M221.873 211.011H225.079V208.442H221.873V211.011Z" fill="white"/>
<path d="M215.461 211.011H218.667V208.442H215.461V211.011Z" fill="white"/>
<path d="M224.989 177.819H221.783V180.388H224.989V177.819Z" fill="white"/>
<path d="M250.633 177.819H247.428V180.388H250.633V177.819Z" fill="white"/>
<path d="M237.811 177.819H234.605V180.388H237.811V177.819Z" fill="white"/>
<path d="M247.518 211.011H250.723V208.442H247.518V211.011Z" fill="white"/>
<path d="M218.577 177.819H215.371V180.388H218.577V177.819Z" fill="white"/>
<path d="M234.695 211.011H237.902V208.442H234.696V211.011" fill="white"/>
<path d="M244.224 177.819H241.018V180.388H244.223V177.819" fill="white"/>
<path d="M462.2 177.819H458.994V180.387H462.2V177.819Z" fill="white"/>
<path d="M498.154 177.819H497.459V180.388H498.153V177.819" fill="white"/>
<path d="M487.844 177.819H484.637V180.388H487.844V177.819Z" fill="white"/>
<path d="M498.154 208.442H497.553V211.011H498.154V208.442Z" fill="white"/>
<path d="M494.257 177.819H491.051V180.388H494.257V177.819Z" fill="white"/>
<path d="M484.73 211.011H487.935V208.442H484.73V211.011Z" fill="white"/>
<path d="M449.379 177.819H446.174V180.388H449.379V177.819Z" fill="white"/>
<path d="M459.082 211.011H462.288V208.442H459.082V211.011Z" fill="white"/>
<path d="M452.674 211.011H455.879V208.443H452.674V211.011Z" fill="white"/>
<path d="M455.788 177.818H452.584V180.387H455.788V177.818Z" fill="white"/>
<path d="M446.262 211.011H449.467V208.442H446.262V211.011Z" fill="white"/>
<path d="M471.904 211.011H475.11V208.442H471.904V211.011Z" fill="white"/>
<path d="M478.314 211.011H481.521V208.443H478.314V211.011Z" fill="white"/>
<path d="M481.433 177.819H478.227V180.388H481.433V177.819Z" fill="white"/>
<path d="M468.61 177.819H465.404V180.388H468.61V177.819Z" fill="white"/>
<path d="M465.494 211.011H468.7V208.442H465.494V211.011Z" fill="white"/>
<path d="M475.022 177.819H471.816V180.388H475.022V177.819Z" fill="white"/>
<path d="M491.139 211.011H494.346V208.442H491.139V211.011" fill="white"/>
<path d="M498.155 207.639H160.93C157.423 207.635 154.059 206.241 151.579 203.762C149.098 201.283 147.703 197.921 147.699 194.415C147.703 190.909 149.098 187.547 151.579 185.068C154.059 182.589 157.423 181.194 160.93 181.191H498.155V178.62H160.93C156.741 178.625 152.725 180.291 149.762 183.252C146.8 186.213 145.134 190.227 145.129 194.415C145.134 198.602 146.8 202.616 149.763 205.577C152.725 208.538 156.741 210.203 160.93 210.208H498.155V207.639Z" fill="white"/>
<path d="M494.946 207.64H157.723C154.215 207.636 150.852 206.241 148.372 203.762C145.891 201.283 144.496 197.921 144.492 194.415C144.496 190.909 145.891 187.547 148.372 185.068C150.852 182.589 154.215 181.195 157.723 181.191H494.946V178.62H157.723C153.534 178.625 149.517 180.291 146.555 183.252C143.593 186.213 141.927 190.228 141.922 194.415C141.927 198.602 143.593 202.617 146.555 205.577C149.518 208.538 153.534 210.203 157.723 210.208H494.946V207.639" fill="white"/>
<path d="M164.714 197.53C163.81 198.312 162.633 198.704 161.441 198.619C160.249 198.534 159.139 197.98 158.355 197.077C157.572 196.174 157.18 194.998 157.265 193.806C157.35 192.614 157.905 191.505 158.807 190.722C159.711 189.939 160.888 189.547 162.08 189.632C163.273 189.717 164.383 190.271 165.166 191.174C165.949 192.077 166.341 193.253 166.256 194.445C166.171 195.637 165.617 196.746 164.714 197.53ZM156.823 188.433C155.313 189.742 154.385 191.598 154.244 193.591C154.102 195.584 154.758 197.552 156.068 199.061C157.378 200.57 159.234 201.497 161.227 201.639C163.221 201.781 165.189 201.126 166.699 199.817C168.209 198.508 169.137 196.653 169.279 194.66C169.421 192.667 168.765 190.699 167.456 189.189C166.146 187.68 164.29 186.753 162.296 186.611C160.302 186.469 158.334 187.125 156.823 188.433Z" fill="black"/>
<path d="M243.355 197.53C242.452 198.312 241.275 198.704 240.082 198.619C238.89 198.534 237.781 197.98 236.998 197.077C236.61 196.63 236.314 196.112 236.126 195.55C235.939 194.989 235.864 194.396 235.906 193.806C235.948 193.216 236.105 192.64 236.37 192.111C236.635 191.581 237.001 191.109 237.448 190.722C238.352 189.939 239.529 189.547 240.721 189.632C241.914 189.717 243.023 190.271 243.807 191.174C244.59 192.077 244.982 193.253 244.897 194.445C244.812 195.637 244.257 196.746 243.355 197.53ZM235.463 188.433C233.953 189.743 233.026 191.598 232.884 193.591C232.743 195.584 233.399 197.552 234.709 199.061C236.018 200.57 237.874 201.498 239.867 201.639C241.861 201.781 243.829 201.126 245.34 199.817C246.85 198.508 247.778 196.653 247.919 194.66C248.061 192.667 247.405 190.699 246.096 189.189C244.786 187.68 242.93 186.753 240.936 186.611C238.942 186.47 236.974 187.125 235.463 188.433Z" fill="#464646"/>
<path d="M321.993 197.529C321.09 198.312 319.914 198.703 318.722 198.619C317.53 198.534 316.42 197.979 315.637 197.077C315.249 196.63 314.953 196.111 314.766 195.55C314.578 194.989 314.503 194.396 314.545 193.806C314.587 193.216 314.744 192.64 315.009 192.11C315.273 191.581 315.64 191.109 316.087 190.721C316.99 189.939 318.167 189.547 319.359 189.632C320.552 189.716 321.661 190.271 322.445 191.173C322.833 191.62 323.129 192.139 323.317 192.7C323.504 193.262 323.579 193.854 323.537 194.445C323.495 195.035 323.337 195.611 323.072 196.141C322.807 196.67 322.441 197.142 321.993 197.529ZM314.103 188.433C312.593 189.742 311.665 191.597 311.523 193.59C311.381 195.584 312.037 197.552 313.347 199.061C314.657 200.57 316.512 201.498 318.506 201.64C320.5 201.781 322.468 201.126 323.979 199.817C325.489 198.508 326.417 196.653 326.559 194.66C326.701 192.667 326.045 190.699 324.735 189.189C323.426 187.68 321.57 186.753 319.576 186.611C317.582 186.469 315.614 187.124 314.103 188.433Z" fill="#464646"/>
<path d="M400.633 197.529C399.73 198.312 398.552 198.704 397.36 198.619C396.167 198.534 395.057 197.98 394.274 197.077C393.886 196.63 393.59 196.111 393.403 195.55C393.216 194.988 393.141 194.395 393.184 193.805C393.226 193.215 393.384 192.639 393.649 192.11C393.914 191.58 394.281 191.109 394.729 190.721C395.632 189.939 396.809 189.547 398.001 189.632C399.193 189.717 400.302 190.271 401.086 191.174C401.869 192.076 402.261 193.253 402.176 194.445C402.091 195.637 401.536 196.746 400.633 197.529ZM392.742 188.433C391.232 189.742 390.303 191.597 390.162 193.591C390.02 195.584 390.676 197.552 391.985 199.061C393.295 200.57 395.151 201.497 397.145 201.639C399.138 201.781 401.107 201.126 402.617 199.818C404.127 198.508 405.055 196.653 405.197 194.66C405.339 192.667 404.683 190.699 403.374 189.189C402.064 187.681 400.208 186.753 398.214 186.611C396.221 186.47 394.252 187.125 392.742 188.433Z" fill="#464646"/>
<path d="M479.271 197.529C478.368 198.312 477.191 198.704 475.999 198.619C474.807 198.534 473.697 197.979 472.914 197.077C472.131 196.174 471.74 194.997 471.825 193.805C471.91 192.613 472.465 191.504 473.368 190.721C474.272 189.939 475.448 189.547 476.641 189.632C477.833 189.717 478.942 190.271 479.725 191.174C480.113 191.621 480.409 192.14 480.596 192.701C480.783 193.263 480.858 193.855 480.816 194.446C480.773 195.036 480.615 195.612 480.35 196.141C480.085 196.67 479.718 197.142 479.271 197.529ZM471.383 188.433C470.635 189.081 470.023 189.87 469.58 190.755C469.137 191.64 468.873 192.603 468.802 193.59C468.732 194.577 468.857 195.568 469.17 196.507C469.483 197.445 469.977 198.313 470.626 199.061C471.936 200.57 473.791 201.497 475.785 201.639C477.779 201.781 479.747 201.125 481.257 199.817C482.005 199.169 482.618 198.38 483.061 197.495C483.504 196.61 483.768 195.647 483.838 194.66C483.909 193.673 483.784 192.682 483.471 191.743C483.158 190.805 482.663 189.937 482.015 189.189C480.705 187.68 478.849 186.753 476.856 186.611C474.862 186.469 472.894 187.125 471.383 188.433Z" fill="#464646"/>
<path d="M0 179.904V208.923H128.607V179.904H0Z" fill="#FFF2D5"/>
<path d="M70.3047 211.011H73.5102V208.442H70.3047V211.011Z" fill="white"/>
<path d="M28.5416 177.819H25.3359V180.388H28.5416V177.819Z" fill="white"/>
<path d="M41.3635 177.819H38.1582V180.388H41.3635V177.819Z" fill="white"/>
<path d="M51.0703 211.011H54.2757V208.442H51.0703V211.011Z" fill="white"/>
<path d="M44.6602 211.011H47.8657V208.442H44.6602V211.011Z" fill="white"/>
<path d="M47.7759 177.819H44.5703V180.388H47.7759V177.819Z" fill="white"/>
<path d="M38.248 211.011H41.4536V208.442H38.248V211.011Z" fill="white"/>
<path d="M54.1862 177.819H50.9805V180.388H54.1862V177.819Z" fill="white"/>
<path d="M63.8926 211.011H67.0983V208.442H63.8926V211.011Z" fill="white"/>
<path d="M60.5981 177.819H57.3926V180.388H60.5981V177.819Z" fill="white"/>
<path d="M73.4204 177.819H70.2148V180.388H73.4204V177.819Z" fill="white"/>
<path d="M57.4824 211.011H60.688V208.442H57.4824V211.011Z" fill="white"/>
<path d="M67.0081 177.819H63.8027V180.388H67.0083V177.819" fill="white"/>
<path d="M34.9536 177.819H31.748V180.388H34.9536V177.819Z" fill="white"/>
<path d="M15.7192 177.819H12.5137V180.388H15.7192V177.819Z" fill="white"/>
<path d="M6.19336 211.011H9.39906V208.442H6.19336V211.011Z" fill="white"/>
<path d="M0 208.442V211.011H2.98795V208.442H0Z" fill="white"/>
<path d="M9.30951 177.819H6.10352V180.388H9.30922V177.819" fill="white"/>
<path d="M12.6035 211.011H15.8091V208.442H12.6035V211.011Z" fill="white"/>
<path d="M0 177.819V180.388H2.89786V177.819H0Z" fill="white"/>
<path d="M31.8379 211.011H35.0435V208.442H31.8379V211.011Z" fill="white"/>
<path d="M25.4258 211.011H28.6315V208.442H25.4258V211.011Z" fill="white"/>
<path d="M19.0156 211.011H22.2212V208.442H19.0156V211.011Z" fill="white"/>
<path d="M22.1315 177.819H18.9258V180.388H22.1315V177.819Z" fill="white"/>
<path d="M92.653 177.819H89.4473V180.388H92.653V177.819Z" fill="white"/>
<path d="M128.607 177.819H127.914V180.388H128.607V177.819Z" fill="white"/>
<path d="M118.297 177.819H115.092V180.388H118.297V177.819Z" fill="white"/>
<path d="M128.607 208.442H128.004V211.011H128.607V208.442Z" fill="white"/>
<path d="M124.708 177.819H121.502V180.388H124.708V177.819Z" fill="white"/>
<path d="M115.182 211.011H118.387V208.442H115.182V211.011Z" fill="white"/>
<path d="M79.8306 177.819H76.625V180.388H79.8306V177.819Z" fill="white"/>
<path d="M89.5371 211.011H92.7427V208.442H89.5371V211.011Z" fill="white"/>
<path d="M83.127 211.011H86.3325V208.442H83.127V211.011Z" fill="white"/>
<path d="M86.2425 177.819H83.0371V180.388H86.2427V177.819" fill="white"/>
<path d="M76.7148 211.011H79.9204V208.442H76.7148V211.011Z" fill="white"/>
<path d="M102.359 211.011H105.564V208.442H102.359V211.011Z" fill="white"/>
<path d="M108.771 211.011H111.977V208.442H108.771V211.011Z" fill="white"/>
<path d="M111.887 177.819H108.682V180.388H111.887V177.819Z" fill="white"/>
<path d="M99.0649 177.819H95.8594V180.388H99.0649V177.819Z" fill="white"/>
<path d="M95.9492 211.011H99.1549V208.442H95.9492V211.011Z" fill="white"/>
<path d="M105.475 177.819H102.27V180.388H105.475V177.819Z" fill="white"/>
<path d="M121.594 211.011H124.799V208.442H121.594V211.011Z" fill="white"/>
<path d="M0 210.208H128.607V207.639H0V210.208Z" fill="white"/>
<path d="M0 178.62V181.191H128.607V178.62H0Z" fill="white"/>
<path d="M0 210.208H125.402V207.639H0V210.208Z" fill="white"/>
<path d="M0 178.62V181.191H125.402V178.62H0Z" fill="white"/>
<path d="M31.0853 197.53C30.1821 198.312 29.0051 198.704 27.8129 198.619C26.6207 198.534 25.511 197.98 24.7277 197.077C23.9445 196.175 23.552 194.998 23.6368 193.806C23.7215 192.614 24.2764 191.505 25.1795 190.722C26.0827 189.939 27.2599 189.547 28.4522 189.632C29.6444 189.717 30.7542 190.271 31.5375 191.174C32.3208 192.076 32.7131 193.253 32.6283 194.445C32.5435 195.637 31.9885 196.747 31.0853 197.53ZM23.1945 188.433C21.6844 189.742 20.7565 191.597 20.6147 193.591C20.4729 195.584 21.129 197.551 22.4386 199.061C23.7484 200.57 25.6042 201.498 27.598 201.639C29.5917 201.781 31.5602 201.126 33.0706 199.817C34.5809 198.508 35.509 196.653 35.6508 194.66C35.7927 192.667 35.1366 190.699 33.827 189.189C32.5171 187.68 30.6613 186.753 28.6676 186.611C26.6739 186.469 24.7054 187.125 23.1949 188.433" fill="#464646"/>
<path d="M109.726 197.53C108.823 198.312 107.645 198.704 106.453 198.619C105.261 198.534 104.151 197.98 103.368 197.077C102.585 196.175 102.193 194.998 102.277 193.806C102.362 192.614 102.917 191.505 103.82 190.722C104.723 189.939 105.9 189.547 107.093 189.632C108.285 189.717 109.395 190.271 110.178 191.174C110.961 192.077 111.354 193.253 111.269 194.445C111.184 195.637 110.629 196.747 109.726 197.53ZM101.835 188.433C100.325 189.742 99.3971 191.597 99.2553 193.591C99.1136 195.584 99.7696 197.551 101.079 199.061C102.389 200.57 104.245 201.498 106.239 201.639C108.232 201.781 110.201 201.126 111.711 199.817C113.222 198.508 114.15 196.653 114.291 194.66C114.433 192.667 113.777 190.699 112.468 189.189C111.158 187.68 109.302 186.753 107.308 186.611C105.315 186.469 103.346 187.125 101.836 188.433" fill="black"/>
<path d="M0 208V214.311H128.616V208H0Z" fill="#464646"/>
<path d="M51.9111 177.777V214.354H38.9336L47.7758 177.819L51.9111 177.777Z" fill="#464646"/>
<path d="M498.161 208H128.805C127.967 208 127.165 208.333 126.573 208.925C125.981 209.516 125.648 210.319 125.648 211.156C125.648 211.992 125.981 212.795 126.573 213.387C127.165 213.978 127.967 214.311 128.805 214.311H498.161V208Z" fill="#464646"/>
<path d="M205.943 275.146V103.987H135.441V275.146H205.943Z" fill="black"/>
<path d="M191.689 275.146V103.987H135.441V275.146H191.689Z" fill="white"/>
<path d="M178.262 64.8583H60.3145V56.01H178.262V64.8586" fill="#464646"/>
<path d="M85.2601 56.1402C85.2602 57.4515 84.739 58.7092 83.8114 59.6365C82.8838 60.5638 81.6256 61.0849 80.3137 61.085C79.0017 61.0849 77.7435 60.5638 76.8159 59.6365C75.8883 58.7092 75.3671 57.4515 75.3672 56.1402C75.3671 54.8289 75.8883 53.5712 76.8159 52.6439C77.7435 51.7166 79.0017 51.1956 80.3137 51.1954C81.6256 51.1956 82.8838 51.7166 83.8114 52.6439C84.739 53.5712 85.2602 54.8289 85.2601 56.1402Z" fill="#363636"/>
<path d="M187.904 275.146V68.1325C187.904 66.5508 187.275 65.0338 186.156 63.9153C185.037 62.7968 183.519 62.1685 181.937 62.1685H58.0332C56.4507 62.1685 54.933 62.7968 53.814 63.9153C52.695 65.0338 52.0664 66.5508 52.0664 68.1325V275.146H187.903" fill="#FFF2D5"/>
<path d="M66.1811 261.563H61.5137V224.6H66.1812V261.563" fill="#464646"/>
<path d="M75.2436 261.563H70.5762V224.6H75.2436V261.563Z" fill="#464646"/>
<path d="M84.3041 261.563H79.6367V224.6H84.3041V261.563Z" fill="#464646"/>
<path d="M93.3668 261.563H88.6992V224.6H93.3668V261.563Z" fill="#464646"/>
<path d="M102.427 261.563H97.7598V224.6H102.427V261.563Z" fill="#464646"/>
<path d="M111.49 261.563H106.822V224.6H111.49V261.563" fill="#464646"/>
<path d="M120.552 261.563H115.885V224.6H120.552V261.563Z" fill="#464646"/>
<path d="M179.057 197.947H60.6348V71.9353H179.057V197.947Z" fill="#FFD67E"/>
<path d="M113.801 149.54C113.802 151.463 113.423 153.367 112.687 155.143C111.951 156.92 110.872 158.534 109.512 159.893C108.151 161.253 106.537 162.332 104.759 163.067C102.982 163.803 101.077 164.182 99.1538 164.182C97.2302 164.182 95.3254 163.803 93.5482 163.068C91.771 162.332 90.1562 161.253 88.796 159.894C87.4358 158.534 86.3569 156.92 85.6208 155.144C84.8846 153.367 84.5058 151.463 84.5059 149.541C84.5058 147.618 84.8847 145.714 85.6208 143.938C86.3569 142.161 87.4359 140.547 88.7961 139.188C90.1563 137.828 91.7711 136.75 93.5482 136.014C95.3254 135.278 97.2302 134.899 99.1538 134.9C101.077 134.9 102.982 135.278 104.759 136.014C106.537 136.75 108.151 137.828 109.511 139.188C110.872 140.547 111.951 142.161 112.687 143.938C113.423 145.714 113.802 147.618 113.801 149.541" fill="#FFF2D5"/>
<path d="M89.1102 140.98L94.0833 145.677C93.1949 146.791 92.7011 148.168 92.6794 149.593H85.8477C85.8699 146.424 87.0274 143.369 89.1102 140.98Z" fill="url(#paint9_linear_515_8380)"/>
<path d="M90.2344 139.832C92.6029 137.688 95.6661 136.472 98.8605 136.406L98.7674 143.241C97.4841 143.315 96.2526 143.772 95.2319 144.553L90.2344 139.832Z" fill="url(#paint10_linear_515_8380)"/>
<path d="M108.257 140.002L103.356 144.777C102.503 144.048 101.475 143.553 100.373 143.342L100.466 136.466C103.383 136.751 106.123 137.994 108.257 140.002" fill="url(#paint11_linear_515_8380)"/>
<path d="M112.461 149.593H105.632C105.611 148.291 105.196 147.026 104.441 145.964L109.362 141.17C111.345 143.531 112.441 146.51 112.462 149.593" fill="url(#paint12_linear_515_8380)"/>
<path d="M95.0469 139.082L100.437 148.394L97.907 149.462L95.0469 139.082Z" fill="black"/>
<path d="M101.21 148.184C101.433 148.713 101.437 149.308 101.22 149.84C101.004 150.372 100.586 150.796 100.057 151.019C99.5275 151.242 98.9314 151.246 98.3995 151.03C97.8675 150.814 97.443 150.396 97.2194 149.868C97.1087 149.606 97.0508 149.325 97.0489 149.04C97.047 148.756 97.1011 148.474 97.2081 148.211C97.3152 147.948 97.4731 147.708 97.6729 147.506C97.8727 147.303 98.1103 147.142 98.3724 147.032C98.6343 146.921 98.9155 146.863 99.1999 146.861C99.4843 146.859 99.7663 146.913 100.03 147.02C100.293 147.127 100.533 147.285 100.735 147.484C100.938 147.684 101.099 147.922 101.21 148.184Z" fill="black"/>
<path d="M155.011 149.54C155.011 151.463 154.632 153.367 153.896 155.143C153.16 156.92 152.081 158.534 150.721 159.893C149.36 161.253 147.746 162.331 145.968 163.067C144.191 163.803 142.286 164.181 140.363 164.181C138.439 164.181 136.534 163.803 134.757 163.067C132.98 162.331 131.365 161.253 130.005 159.893C128.645 158.534 127.566 156.92 126.83 155.143C126.094 153.367 125.715 151.463 125.715 149.54C125.715 147.617 126.094 145.714 126.83 143.937C127.566 142.161 128.645 140.547 130.005 139.187C131.365 137.828 132.98 136.749 134.757 136.013C136.534 135.278 138.439 134.899 140.363 134.899C142.286 134.899 144.191 135.278 145.968 136.013C147.746 136.749 149.36 137.828 150.721 139.187C152.081 140.547 153.16 142.161 153.896 143.937C154.632 145.714 155.011 147.617 155.011 149.54Z" fill="#FFF2D5"/>
<path d="M130.317 140.98L135.291 145.677C134.402 146.791 133.908 148.168 133.887 149.593H127.055C127.077 146.424 128.234 143.369 130.317 140.98" fill="url(#paint13_linear_515_8380)"/>
<path d="M131.441 139.832C133.81 137.688 136.873 136.472 140.068 136.406L139.974 143.241C138.691 143.315 137.46 143.772 136.439 144.553L131.441 139.832Z" fill="url(#paint14_linear_515_8380)"/>
<path d="M149.464 140.002L144.563 144.777C143.71 144.048 142.682 143.554 141.58 143.342L141.673 136.466C144.59 136.751 147.33 137.994 149.464 140.002" fill="url(#paint15_linear_515_8380)"/>
<path d="M153.667 149.593H146.837C146.816 148.291 146.401 147.026 145.646 145.964L150.567 141.17C152.55 143.531 153.647 146.51 153.667 149.593" fill="url(#paint16_linear_515_8380)"/>
<path d="M150.829 146.2L140.885 150.322L140.158 147.673L150.829 146.2Z" fill="black"/>
<path d="M140.993 151.114C140.439 151.265 139.848 151.191 139.349 150.907C138.85 150.623 138.484 150.153 138.331 149.599C138.256 149.325 138.235 149.039 138.271 148.757C138.306 148.475 138.397 148.202 138.537 147.955C138.678 147.708 138.866 147.491 139.091 147.317C139.315 147.142 139.572 147.014 139.846 146.939C140.121 146.863 140.407 146.843 140.689 146.878C140.972 146.913 141.244 147.004 141.491 147.145C141.738 147.285 141.956 147.473 142.13 147.698C142.304 147.922 142.433 148.179 142.508 148.453C142.66 149.007 142.586 149.598 142.301 150.097C142.017 150.596 141.547 150.962 140.993 151.114" fill="black"/>
<path d="M162.929 121.147H75.6523V88.3507H162.929V121.147Z" fill="#FFF2D5"/>
<path d="M109.9 116.311H102.848V111.682H109.9V116.311Z" fill="url(#paint17_linear_515_8380)"/>
<path d="M109.9 110.844H102.848V106.215H109.9V110.844Z" fill="url(#paint18_linear_515_8380)"/>
<path d="M109.9 105.377H102.848V100.748H109.9V105.377Z" fill="url(#paint19_linear_515_8380)"/>
<path d="M109.9 99.9098H102.848V95.2808H109.9V99.9098Z" fill="url(#paint20_linear_515_8380)"/>
<path d="M118.065 116.311H111.014V111.682H118.065V116.311Z" fill="url(#paint21_linear_515_8380)"/>
<path d="M118.065 110.844H111.014V106.215H118.065V110.844Z" fill="url(#paint22_linear_515_8380)"/>
<path d="M118.065 105.377H111.014V100.748H118.065V105.377Z" fill="url(#paint23_linear_515_8380)"/>
<path d="M142.798 116.311H135.746V111.682H142.798V116.311Z" fill="url(#paint24_linear_515_8380)"/>
<path d="M142.798 110.844H135.746V106.215H142.798V110.844Z" fill="url(#paint25_linear_515_8380)"/>
<path d="M142.798 105.377H135.746V100.748H142.798V105.377Z" fill="url(#paint26_linear_515_8380)"/>
<path d="M126.36 116.311H119.309V111.682H126.36V116.311Z" fill="url(#paint27_linear_515_8380)"/>
<path d="M126.36 110.844H119.309V106.215H126.36V110.844Z" fill="url(#paint28_linear_515_8380)"/>
<path d="M126.36 105.377H119.309V100.748H126.36V105.377Z" fill="url(#paint29_linear_515_8380)"/>
<path d="M126.36 99.9098H119.309V95.2808H126.36V99.9098Z" fill="url(#paint30_linear_515_8380)"/>
<path d="M134.525 116.311H127.473V111.682H134.525V116.311Z" fill="url(#paint31_linear_515_8380)"/>
<path d="M93.4385 116.311H86.3867V111.682H93.4385V116.311Z" fill="url(#paint32_linear_515_8380)"/>
<path d="M134.525 110.844H127.473V106.215H134.525V110.844Z" fill="url(#paint33_linear_515_8380)"/>
<path d="M101.733 116.311H94.6816V111.682H101.733V116.311Z" fill="url(#paint34_linear_515_8380)"/>
<path d="M101.733 110.844H94.6816V106.215H101.733V110.844Z" fill="url(#paint35_linear_515_8380)"/>
<path d="M150.857 116.311H143.805V111.682H150.857V116.311Z" fill="url(#paint36_linear_515_8380)"/>
<path d="M150.857 110.844H143.805V106.215H150.857V110.844Z" fill="url(#paint37_linear_515_8380)"/>
<path d="M95.0701 184.73H87.1133V176.776H95.0702V184.73" fill="#FFF2D5"/>
<path d="M107.08 184.73H99.123V176.776H107.08V184.73Z" fill="#FFF2D5"/>
<path d="M119.088 184.73H111.131V176.776H119.088V184.73Z" fill="#FFF2D5"/>
<path d="M131.098 184.73H123.141V176.776H131.098V184.73Z" fill="#FFF2D5"/>
<path d="M143.105 184.73H135.148V176.776H143.105V184.73Z" fill="#FFF2D5"/>
<path d="M155.115 184.73H147.158V176.776H155.115V184.73Z" fill="#FFF2D5"/>
<path d="M304.708 177.818H255.459V134.608H304.708V177.818Z" fill="#E68D45"/>
<path d="M319.55 177.818H270.305V134.608H319.55V177.818" fill="#FFF2D5"/>
<path d="M296.147 143.327H290.828V134.609H296.147V143.327" fill="#FFF2D5"/>
<path d="M310.059 174.693H304.938V169.803H310.059V174.693Z" fill="#E68D45"/>
<path d="M317.161 174.692H312.041V169.802H317.161V174.692Z" fill="#E68D45"/>
<path d="M302.916 174.692H297.793V169.802H302.916V174.692Z" fill="#E68D45"/>
<path d="M393.635 177.818H344.391V134.608H393.635V177.818Z" fill="#E68D45"/>
<path d="M408.479 177.819H359.232V134.609H408.479V177.819Z" fill="#FFF2D5"/>
<path d="M385.076 143.327H379.758V134.609H385.076V143.327Z" fill="#FFF2D5"/>
<path d="M398.991 174.692H393.871V169.802H398.991V174.692Z" fill="#E68D45"/>
<path d="M406.089 174.692H400.969V169.802H406.089V174.692Z" fill="#E68D45"/>
<path d="M391.844 174.692H386.723V169.802H391.844V174.692" fill="#E68D45"/>
<path d="M77.4738 45.6855C78.3089 46.5195 79.4412 46.988 80.6217 46.988C81.8022 46.988 82.9344 46.5195 83.7695 45.6855C84.6044 44.8509 85.0734 43.7191 85.0734 42.5388C85.0734 41.3586 84.6044 40.2267 83.7695 39.3921C82.9344 38.5582 81.8022 38.0897 80.6217 38.0897C79.4412 38.0897 78.309 38.5582 77.4738 39.3921C76.6389 40.2267 76.1699 41.3586 76.1699 42.5388C76.1699 43.7191 76.6389 44.8509 77.4738 45.6855Z" fill="#363636"/>
<path d="M64.8645 28.5924L62.9746 26.4407C73.573 15.8068 90.0935 16.2005 100.173 27.3178L98.1793 29.3741C89.1425 19.4398 74.3632 19.0908 64.8637 28.5924" fill="#363636"/>
<path d="M68.7885 33.0578L66.8984 30.9061C75.2147 22.6246 88.1199 22.9287 96.0341 31.5862L94.0405 33.6425C87.1691 26.1699 76.0046 25.9068 68.7878 33.0578" fill="#363636"/>
<path d="M72.5872 37.3788L70.6973 35.229C76.8046 29.222 86.2081 29.4422 92.0272 35.7182L90.0346 37.7745C85.2587 32.6817 77.5948 32.5043 72.5875 37.3788" fill="#363636"/>
<path d="M399.862 104.093C399.862 107.928 398.338 111.606 395.625 114.318C392.912 117.03 389.233 118.553 385.397 118.554C383.497 118.554 381.615 118.18 379.859 117.454C378.104 116.727 376.509 115.662 375.165 114.319C373.821 112.977 372.755 111.382 372.028 109.628C371.3 107.873 370.926 105.993 370.926 104.093C370.926 102.194 371.301 100.314 372.028 98.5591C372.755 96.8046 373.821 95.2104 375.165 93.8676C376.509 92.5249 378.104 91.4598 379.859 90.7332C381.615 90.0066 383.497 89.6328 385.397 89.6331C389.233 89.6337 392.912 91.1574 395.625 93.8692C398.338 96.581 399.862 100.259 399.862 104.093Z" fill="url(#paint38_linear_515_8380)"/>
<path d="M382.036 111.689C381.478 111.689 380.942 111.468 380.547 111.073L375.979 106.507C375.585 106.112 375.363 105.577 375.363 105.019C375.363 104.461 375.585 103.926 375.979 103.531C376.374 103.137 376.91 102.915 377.468 102.915C378.027 102.915 378.562 103.137 378.957 103.531L382.036 106.609L391.188 97.4603C391.583 97.0658 392.119 96.8441 392.677 96.8441C393.236 96.8441 393.771 97.0658 394.166 97.4603C394.362 97.6556 394.517 97.8875 394.623 98.1429C394.729 98.3982 394.783 98.6719 394.783 98.9483C394.783 99.2247 394.729 99.4985 394.623 99.7538C394.517 100.009 394.362 100.241 394.166 100.436L383.525 111.073C383.13 111.467 382.595 111.689 382.036 111.689" fill="white"/>
<path d="M399.862 59.0114C399.862 62.8462 398.338 66.5239 395.625 69.2356C392.912 71.9474 389.233 73.4711 385.397 73.4718C383.497 73.472 381.615 73.0982 379.859 72.3716C378.104 71.645 376.509 70.58 375.165 69.2372C373.821 67.8944 372.755 66.3002 372.028 64.5457C371.301 62.7911 370.926 60.9106 370.926 59.0114C370.926 57.1122 371.301 55.2317 372.028 53.4772C372.755 51.7227 373.821 50.1287 375.165 48.786C376.509 47.4433 378.104 46.3783 379.86 45.6519C381.615 44.9254 383.497 44.5517 385.397 44.5521C389.233 44.5525 392.912 46.076 395.625 48.7875C398.338 51.4991 399.862 55.1767 399.862 59.0114Z" fill="url(#paint39_linear_515_8380)"/>
<path d="M382.036 66.6063C381.478 66.606 380.943 66.3843 380.548 65.9899L375.98 61.4237C375.585 61.029 375.363 60.4938 375.363 59.9358C375.363 59.3778 375.585 58.8426 375.98 58.4479C376.374 58.0533 376.91 57.8317 377.468 57.8317C378.027 57.8317 378.562 58.0533 378.957 58.4479L382.036 61.5266L391.189 52.3774C391.583 51.9829 392.119 51.7612 392.677 51.7612C393.236 51.7612 393.771 51.9829 394.166 52.3774C394.362 52.5727 394.517 52.8046 394.623 53.0599C394.729 53.3152 394.784 53.5889 394.784 53.8653C394.784 54.1417 394.729 54.4154 394.623 54.6707C394.517 54.926 394.362 55.1579 394.166 55.3532L383.525 65.99C383.13 66.3845 382.595 66.6062 382.036 66.6064" fill="white"/>
<path d="M482.565 177.819H433.32V134.609H482.565V177.819Z" fill="#E68D45"/>
<path d="M497.41 177.818H448.162V134.608H497.41V177.818Z" fill="#FFF2D5"/>
<path d="M474.005 143.327H468.688V134.609H474.005V143.327Z" fill="#FFF2D5"/>
<path d="M487.919 174.692H482.799V169.802H487.919V174.692Z" fill="#E68D45"/>
<path d="M495.017 174.692H489.896V169.802H495.017V174.692Z" fill="#E68D45"/>
<path d="M480.772 174.692H475.65V169.802H480.772V174.692Z" fill="#E68D45"/>
</g>
<defs>
<linearGradient id="paint0_linear_515_8380" x1="445.027" y1="80.7971" x2="445.027" y2="88.3569" gradientUnits="userSpaceOnUse">
<stop stop-color="#F7A100"/>
<stop offset="1" stop-color="#49A379"/>
</linearGradient>
<linearGradient id="paint1_linear_515_8380" x1="450.54" y1="79.0736" x2="450.54" y2="88.3559" gradientUnits="userSpaceOnUse">
<stop stop-color="#F7A100"/>
<stop offset="1" stop-color="#49A379"/>
</linearGradient>
<linearGradient id="paint2_linear_515_8380" x1="456.053" y1="75.5817" x2="456.053" y2="88.3566" gradientUnits="userSpaceOnUse">
<stop stop-color="#F7A100"/>
<stop offset="1" stop-color="#49A379"/>
</linearGradient>
<linearGradient id="paint3_linear_515_8380" x1="461.565" y1="73.1421" x2="461.565" y2="88.3575" gradientUnits="userSpaceOnUse">
<stop stop-color="#F7A100"/>
<stop offset="1" stop-color="#49A379"/>
</linearGradient>
<linearGradient id="paint4_linear_515_8380" x1="467.08" y1="67.8779" x2="467.08" y2="88.3562" gradientUnits="userSpaceOnUse">
<stop stop-color="#F7A100"/>
<stop offset="1" stop-color="#49A379"/>
</linearGradient>
<linearGradient id="paint5_linear_515_8380" x1="501.512" y1="65.7251" x2="501.512" y2="88.3569" gradientUnits="userSpaceOnUse">
<stop stop-color="#F7A100"/>
<stop offset="1" stop-color="#49A379"/>
</linearGradient>
<linearGradient id="paint6_linear_515_8380" x1="456.348" y1="96.8938" x2="456.348" y2="99.2327" gradientUnits="userSpaceOnUse">
<stop stop-color="#F7A100"/>
<stop offset="1" stop-color="#49A379"/>
</linearGradient>
<linearGradient id="paint7_linear_515_8380" x1="453.758" y1="105.506" x2="453.758" y2="107.845" gradientUnits="userSpaceOnUse">
<stop stop-color="#F7A100"/>
<stop offset="1" stop-color="#49A379"/>
</linearGradient>
<linearGradient id="paint8_linear_515_8380" x1="467.023" y1="101.147" x2="467.023" y2="103.485" gradientUnits="userSpaceOnUse">
<stop stop-color="#F7A100"/>
<stop offset="1" stop-color="#49A379"/>
</linearGradient>
<linearGradient id="paint9_linear_515_8380" x1="89.9655" y1="140.98" x2="89.9655" y2="149.593" gradientUnits="userSpaceOnUse">
<stop stop-color="#F7A100"/>
<stop offset="1" stop-color="#49A379"/>
</linearGradient>
<linearGradient id="paint10_linear_515_8380" x1="94.5475" y1="136.406" x2="94.5475" y2="144.553" gradientUnits="userSpaceOnUse">
<stop stop-color="#F7A100"/>
<stop offset="1" stop-color="#49A379"/>
</linearGradient>
<linearGradient id="paint11_linear_515_8380" x1="104.315" y1="136.466" x2="104.315" y2="144.777" gradientUnits="userSpaceOnUse">
<stop stop-color="#F7A100"/>
<stop offset="1" stop-color="#49A379"/>
</linearGradient>
<linearGradient id="paint12_linear_515_8380" x1="108.452" y1="141.17" x2="108.452" y2="149.593" gradientUnits="userSpaceOnUse">
<stop stop-color="#F7A100"/>
<stop offset="1" stop-color="#49A379"/>
</linearGradient>
<linearGradient id="paint13_linear_515_8380" x1="131.173" y1="140.98" x2="131.173" y2="149.593" gradientUnits="userSpaceOnUse">
<stop stop-color="#F7A100"/>
<stop offset="1" stop-color="#49A379"/>
</linearGradient>
<linearGradient id="paint14_linear_515_8380" x1="135.754" y1="136.406" x2="135.754" y2="144.553" gradientUnits="userSpaceOnUse">
<stop stop-color="#F7A100"/>
<stop offset="1" stop-color="#49A379"/>
</linearGradient>
<linearGradient id="paint15_linear_515_8380" x1="145.522" y1="136.466" x2="145.522" y2="144.777" gradientUnits="userSpaceOnUse">
<stop stop-color="#F7A100"/>
<stop offset="1" stop-color="#49A379"/>
</linearGradient>
<linearGradient id="paint16_linear_515_8380" x1="149.657" y1="141.17" x2="149.657" y2="149.593" gradientUnits="userSpaceOnUse">
<stop stop-color="#F7A100"/>
<stop offset="1" stop-color="#49A379"/>
</linearGradient>
<linearGradient id="paint17_linear_515_8380" x1="106.374" y1="111.682" x2="106.374" y2="116.311" gradientUnits="userSpaceOnUse">
<stop stop-color="#F7A100"/>
<stop offset="1" stop-color="#49A379"/>
</linearGradient>
<linearGradient id="paint18_linear_515_8380" x1="106.374" y1="106.215" x2="106.374" y2="110.844" gradientUnits="userSpaceOnUse">
<stop stop-color="#F7A100"/>
<stop offset="1" stop-color="#49A379"/>
</linearGradient>
<linearGradient id="paint19_linear_515_8380" x1="106.374" y1="100.748" x2="106.374" y2="105.377" gradientUnits="userSpaceOnUse">
<stop stop-color="#F7A100"/>
<stop offset="1" stop-color="#49A379"/>
</linearGradient>
<linearGradient id="paint20_linear_515_8380" x1="106.374" y1="95.2808" x2="106.374" y2="99.9098" gradientUnits="userSpaceOnUse">
<stop stop-color="#F7A100"/>
<stop offset="1" stop-color="#49A379"/>
</linearGradient>
<linearGradient id="paint21_linear_515_8380" x1="114.54" y1="111.682" x2="114.54" y2="116.311" gradientUnits="userSpaceOnUse">
<stop stop-color="#F7A100"/>
<stop offset="1" stop-color="#49A379"/>
</linearGradient>
<linearGradient id="paint22_linear_515_8380" x1="114.54" y1="106.215" x2="114.54" y2="110.844" gradientUnits="userSpaceOnUse">
<stop stop-color="#F7A100"/>
<stop offset="1" stop-color="#49A379"/>
</linearGradient>
<linearGradient id="paint23_linear_515_8380" x1="114.54" y1="100.748" x2="114.54" y2="105.377" gradientUnits="userSpaceOnUse">
<stop stop-color="#F7A100"/>
<stop offset="1" stop-color="#49A379"/>
</linearGradient>
<linearGradient id="paint24_linear_515_8380" x1="139.272" y1="111.682" x2="139.272" y2="116.311" gradientUnits="userSpaceOnUse">
<stop stop-color="#F7A100"/>
<stop offset="1" stop-color="#49A379"/>
</linearGradient>
<linearGradient id="paint25_linear_515_8380" x1="139.272" y1="106.215" x2="139.272" y2="110.844" gradientUnits="userSpaceOnUse">
<stop stop-color="#F7A100"/>
<stop offset="1" stop-color="#49A379"/>
</linearGradient>
<linearGradient id="paint26_linear_515_8380" x1="139.272" y1="100.748" x2="139.272" y2="105.377" gradientUnits="userSpaceOnUse">
<stop stop-color="#F7A100"/>
<stop offset="1" stop-color="#49A379"/>
</linearGradient>
<linearGradient id="paint27_linear_515_8380" x1="122.835" y1="111.682" x2="122.835" y2="116.311" gradientUnits="userSpaceOnUse">
<stop stop-color="#F7A100"/>
<stop offset="1" stop-color="#49A379"/>
</linearGradient>
<linearGradient id="paint28_linear_515_8380" x1="122.835" y1="106.215" x2="122.835" y2="110.844" gradientUnits="userSpaceOnUse">
<stop stop-color="#F7A100"/>
<stop offset="1" stop-color="#49A379"/>
</linearGradient>
<linearGradient id="paint29_linear_515_8380" x1="122.835" y1="100.748" x2="122.835" y2="105.377" gradientUnits="userSpaceOnUse">
<stop stop-color="#F7A100"/>
<stop offset="1" stop-color="#49A379"/>
</linearGradient>
<linearGradient id="paint30_linear_515_8380" x1="122.835" y1="95.2808" x2="122.835" y2="99.9098" gradientUnits="userSpaceOnUse">
<stop stop-color="#F7A100"/>
<stop offset="1" stop-color="#49A379"/>
</linearGradient>
<linearGradient id="paint31_linear_515_8380" x1="130.999" y1="111.682" x2="130.999" y2="116.311" gradientUnits="userSpaceOnUse">
<stop stop-color="#F7A100"/>
<stop offset="1" stop-color="#49A379"/>
</linearGradient>
<linearGradient id="paint32_linear_515_8380" x1="89.9126" y1="111.682" x2="89.9126" y2="116.311" gradientUnits="userSpaceOnUse">
<stop stop-color="#F7A100"/>
<stop offset="1" stop-color="#49A379"/>
</linearGradient>
<linearGradient id="paint33_linear_515_8380" x1="130.999" y1="106.215" x2="130.999" y2="110.844" gradientUnits="userSpaceOnUse">
<stop stop-color="#F7A100"/>
<stop offset="1" stop-color="#49A379"/>
</linearGradient>
<linearGradient id="paint34_linear_515_8380" x1="98.2075" y1="111.682" x2="98.2075" y2="116.311" gradientUnits="userSpaceOnUse">
<stop stop-color="#F7A100"/>
<stop offset="1" stop-color="#49A379"/>
</linearGradient>
<linearGradient id="paint35_linear_515_8380" x1="98.2075" y1="106.215" x2="98.2075" y2="110.844" gradientUnits="userSpaceOnUse">
<stop stop-color="#F7A100"/>
<stop offset="1" stop-color="#49A379"/>
</linearGradient>
<linearGradient id="paint36_linear_515_8380" x1="147.331" y1="111.682" x2="147.331" y2="116.311" gradientUnits="userSpaceOnUse">
<stop stop-color="#F7A100"/>
<stop offset="1" stop-color="#49A379"/>
</linearGradient>
<linearGradient id="paint37_linear_515_8380" x1="147.331" y1="106.215" x2="147.331" y2="110.844" gradientUnits="userSpaceOnUse">
<stop stop-color="#F7A100"/>
<stop offset="1" stop-color="#49A379"/>
</linearGradient>
<linearGradient id="paint38_linear_515_8380" x1="385.394" y1="89.6331" x2="385.394" y2="118.554" gradientUnits="userSpaceOnUse">
<stop stop-color="#F7A100"/>
<stop offset="1" stop-color="#49A379"/>
</linearGradient>
<linearGradient id="paint39_linear_515_8380" x1="385.394" y1="44.5521" x2="385.394" y2="73.4718" gradientUnits="userSpaceOnUse">
<stop stop-color="#F7A100"/>
<stop offset="1" stop-color="#49A379"/>
</linearGradient>
<clipPath id="clip0_515_8380">
<rect width="603" height="276" fill="white"/>
</clipPath>
</defs>
</svg>
