<svg width="64" height="64" viewBox="0 0 64 64" fill="none" xmlns="http://www.w3.org/2000/svg">
<path d="M44.271 17.4069H32.367V11.9399H38.363C41.078 11.9399 43.289 9.73092 43.289 7.01592V3.73292C43.289 3.19792 42.855 2.76392 42.318 2.76392H17.59C17.055 2.76392 16.621 3.19792 16.621 3.73292V7.01592C16.621 9.73092 18.828 11.9399 21.545 11.9399H22.041V17.4069H19.85C16.131 17.4069 13.108 20.4299 13.108 24.1489V26.4539H7.313V25.4619C7.313 24.3599 6.417 23.4659 5.317 23.4659H1.994C0.895 23.4659 0 24.3599 0 25.4619V39.3039C0 40.4049 0.895 41.2999 1.994 41.2999H5.316C6.416 41.2999 7.312 40.4049 7.312 39.3039V38.3139H13.107V54.5639C13.107 56.2299 14.461 57.5839 16.127 57.5839H18.125V60.2679C18.125 60.8029 18.559 61.2369 19.094 61.2369H26.5C27.037 61.2369 27.471 60.8029 27.471 60.2679V57.5839H49.633V60.2679C49.633 60.8029 50.067 61.2369 50.604 61.2369H58.01C58.545 61.2369 58.979 60.8029 58.979 60.2679V57.5839H60.979C62.645 57.5839 64 56.2299 64 54.5639V37.1339C64 26.2569 55.15 17.4069 44.271 17.4069ZM18.561 7.01692V4.70392H41.35V7.01692C41.35 8.66192 40.01 10.0009 38.364 10.0009H21.545C19.898 10.0009 18.561 8.66092 18.561 7.01692ZM23.98 11.9399H30.427V17.4069H23.98V11.9399ZM5.373 31.4129H1.971L1.979 29.2489H5.374V31.4129H5.373ZM1.963 33.3529H5.373V35.5169H1.953L1.963 33.3529ZM5.373 25.4619V27.3099H1.986L1.994 25.4059L5.373 25.4619ZM5.316 39.3599L1.939 39.3029L1.947 37.4549H5.373V39.3029C5.373 39.3349 5.348 39.3599 5.316 39.3599ZM7.313 36.3739V28.3939H13.108V36.3739H7.313ZM25.531 59.2979H20.064V57.5829H25.531V59.2979ZM57.039 59.2979H51.572V57.5829H57.039V59.2979ZM62.061 54.5629C62.061 55.1589 61.575 55.6429 60.979 55.6429H16.127C15.531 55.6429 15.047 55.1589 15.047 54.5629V24.1489C15.047 21.5009 17.201 19.3459 19.85 19.3459H44.272C54.081 19.3459 62.061 27.3249 62.061 37.1329V54.5629Z" fill="url(#paint0_linear_485_5103)"/>
<path d="M42.3187 44.2939C40.3697 44.2939 38.7857 45.8779 38.7857 47.8269C38.7857 49.7759 40.3697 51.3599 42.3187 51.3599C44.2677 51.3599 45.8537 49.7759 45.8537 47.8269C45.8537 45.8779 44.2687 44.2939 42.3187 44.2939ZM42.3187 49.4229C41.4397 49.4229 40.7247 48.7059 40.7247 47.8269C40.7247 46.9479 41.4397 46.2329 42.3187 46.2329C43.1997 46.2329 43.9147 46.9479 43.9147 47.8269C43.9147 48.7059 43.1997 49.4229 42.3187 49.4229ZM51.9417 44.2939C49.9927 44.2939 48.4067 45.8779 48.4067 47.8269C48.4067 49.7759 49.9927 51.3599 51.9417 51.3599C53.8907 51.3599 55.4747 49.7759 55.4747 47.8269C55.4747 45.8779 53.8917 44.2939 51.9417 44.2939ZM51.9417 49.4229C51.0607 49.4229 50.3457 48.7059 50.3457 47.8269C50.3457 46.9479 51.0607 46.2329 51.9417 46.2329C52.8207 46.2329 53.5357 46.9479 53.5357 47.8269C53.5357 48.7059 52.8207 49.4229 51.9417 49.4229ZM24.2427 23.3059H21.9847C21.4477 23.3059 21.0137 23.7399 21.0137 24.2769C21.0137 24.8119 21.4477 25.2459 21.9847 25.2459H24.2427C24.7797 25.2459 25.2137 24.8119 25.2137 24.2769C25.2137 23.7389 24.7797 23.3059 24.2427 23.3059ZM29.6627 23.3059H27.4027C26.8677 23.3059 26.4337 23.7399 26.4337 24.2769C26.4337 24.8119 26.8677 25.2459 27.4027 25.2459H29.6627C30.1997 25.2459 30.6337 24.8119 30.6337 24.2769C30.6337 23.7389 30.1997 23.3059 29.6627 23.3059ZM35.0807 23.3059H32.8227C32.2857 23.3059 31.8517 23.7399 31.8517 24.2769C31.8517 24.8119 32.2857 25.2459 32.8227 25.2459H35.0807C35.6177 25.2459 36.0517 24.8119 36.0517 24.2769C36.0517 23.7389 35.6177 23.3059 35.0807 23.3059Z" fill="url(#paint1_linear_485_5103)"/>
<defs>
<linearGradient id="paint0_linear_485_5103" x1="0" y1="2.76392" x2="75.216" y2="4.58251" gradientUnits="userSpaceOnUse">
<stop offset="0.0927951" stop-color="#FFAD00"/>
<stop offset="1" stop-color="#009FA9"/>
</linearGradient>
<linearGradient id="paint1_linear_485_5103" x1="21.0137" y1="23.3059" x2="61.5078" y2="24.4047" gradientUnits="userSpaceOnUse">
<stop offset="0.0927951" stop-color="#FFAD00"/>
<stop offset="1" stop-color="#009FA9"/>
</linearGradient>
</defs>
</svg>
