<svg width="54" height="54" viewBox="0 0 54 54" fill="none" xmlns="http://www.w3.org/2000/svg">
<path d="M0.84375 0C0.619974 0 0.405362 0.0888949 0.247129 0.247129C0.0888949 0.405362 0 0.619974 0 0.84375L0 2.53125C0 3.91838 1.14412 5.0625 2.53125 5.0625H3.375V7.59375C3.375 7.81753 3.4639 8.03214 3.62213 8.19037C3.78036 8.34861 3.99497 8.4375 4.21875 8.4375H5.0625V45.5625H4.21875C3.99497 45.5625 3.78036 45.6514 3.62213 45.8096C3.4639 45.9679 3.375 46.1825 3.375 46.4062V48.9375H2.53125C1.14412 48.9375 0 50.0816 0 51.4688V53.1562C0 53.38 0.0888949 53.5946 0.247129 53.7529C0.405362 53.9111 0.619974 54 0.84375 54H51.4688C51.6925 54 51.9071 53.9111 52.0654 53.7529C52.2236 53.5946 52.3125 53.38 52.3125 53.1562V51.4688C52.3125 50.0816 51.1684 48.9375 49.7812 48.9375H48.9375V46.4062C48.9375 46.1825 48.8486 45.9679 48.6904 45.8096C48.5321 45.6514 48.3175 45.5625 48.0938 45.5625H47.25V8.4375H48.0938C48.3175 8.4375 48.5321 8.34861 48.6904 8.19037C48.8486 8.03214 48.9375 7.81753 48.9375 7.59375V5.0625H49.7812C51.1684 5.0625 52.3125 3.91838 52.3125 2.53125V0.84375C52.3125 0.619974 52.2236 0.405362 52.0654 0.247129C51.9071 0.0888949 51.6925 0 51.4688 0L0.84375 0ZM1.6875 1.6875H50.625V2.53125C50.625 3.01388 50.2639 3.375 49.7812 3.375H2.53125C2.41969 3.37778 2.30873 3.35785 2.2051 3.31644C2.10148 3.27502 2.00735 3.21297 1.92844 3.13406C1.84953 3.05515 1.78748 2.96102 1.74606 2.8574C1.70465 2.75377 1.68472 2.64281 1.6875 2.53125V1.6875ZM5.0625 5.0625H47.25V6.75H5.0625V5.0625ZM6.75 8.4375H25.3125V45.5625H6.75V8.4375ZM27 8.4375H45.5625V45.5625H27V8.4375ZM10.8203 10.125C10.646 10.1256 10.4763 10.1801 10.3343 10.281C10.1923 10.3819 10.085 10.5243 10.0271 10.6886C9.94262 10.9252 9.80634 11.14 9.62826 11.3172C9.45017 11.4944 9.23476 11.6296 8.99775 11.7129C8.83378 11.7714 8.69191 11.8792 8.59161 12.0215C8.49131 12.1638 8.43748 12.3337 8.4375 12.5078V27.9922C8.43678 28.1669 8.49028 28.3375 8.59063 28.4805C8.69098 28.6234 8.83323 28.7318 8.99775 28.7904C9.23476 28.8738 9.45017 29.009 9.62826 29.1862C9.80634 29.3634 9.94262 29.5782 10.0271 29.8147C10.0855 29.9785 10.1931 30.1201 10.335 30.2204C10.477 30.3207 10.6464 30.3747 10.8203 30.375H21.2423C21.4161 30.3747 21.5855 30.3207 21.7275 30.2204C21.8694 30.1201 21.977 29.9785 22.0354 29.8147C22.1199 29.5782 22.2562 29.3634 22.4342 29.1862C22.6123 29.009 22.8277 28.8738 23.0648 28.7904C23.2293 28.7318 23.3715 28.6234 23.4719 28.4805C23.5722 28.3375 23.6257 28.1669 23.625 27.9922V12.5078C23.6247 12.3339 23.5707 12.1645 23.4704 12.0225C23.3701 11.8806 23.2285 11.773 23.0648 11.7146C22.8276 11.6311 22.612 11.4956 22.4339 11.3181C22.2558 11.1406 22.1197 10.9255 22.0354 10.6886C21.9775 10.5243 21.8702 10.3819 21.7282 10.281C21.5862 10.1801 21.4165 10.1256 21.2423 10.125H10.8203ZM31.0703 10.125C30.896 10.1256 30.7263 10.1801 30.5843 10.281C30.4423 10.3819 30.335 10.5243 30.2771 10.6886C30.1926 10.9252 30.0563 11.14 29.8783 11.3172C29.7002 11.4944 29.4848 11.6296 29.2478 11.7129C29.0838 11.7714 28.9419 11.8792 28.8416 12.0215C28.7413 12.1638 28.6875 12.3337 28.6875 12.5078V27.9956C28.6878 28.1694 28.7418 28.3389 28.8421 28.4809C28.9424 28.6228 29.084 28.7304 29.2478 28.7887C29.4849 28.8723 29.7005 29.0077 29.8786 29.1853C30.0567 29.3628 30.1928 29.5778 30.2771 29.8147C30.3355 29.9785 30.4431 30.1201 30.585 30.2204C30.727 30.3207 30.8964 30.3747 31.0703 30.375H41.4922C41.6661 30.3747 41.8355 30.3207 41.9775 30.2204C42.1194 30.1201 42.227 29.9785 42.2854 29.8147C42.3699 29.5782 42.5062 29.3634 42.6842 29.1862C42.8623 29.009 43.0777 28.8738 43.3148 28.7904C43.4787 28.7319 43.6206 28.6242 43.7209 28.4819C43.8212 28.3396 43.875 28.1697 43.875 27.9956V12.5078C43.8747 12.3339 43.8207 12.1645 43.7204 12.0225C43.6201 11.8806 43.4785 11.773 43.3148 11.7146C43.0776 11.6311 42.862 11.4956 42.6839 11.3181C42.5058 11.1406 42.3697 10.9255 42.2854 10.6886C42.2275 10.5243 42.1202 10.3819 41.9782 10.281C41.8362 10.1801 41.6665 10.1256 41.4922 10.125H31.0703ZM11.0548 11.8125H21.0077C21.2574 12.1888 21.5612 12.4959 21.9375 12.7457V27.7577C21.5686 28.0013 21.2533 28.3177 21.0111 28.6875H11.0531C10.8102 28.3181 10.4944 28.0023 10.125 27.7594V12.744C10.5013 12.4943 10.8051 12.1871 11.0531 11.8108L11.0548 11.8125ZM31.3048 11.8125H41.2577C41.5074 12.1888 41.8112 12.4959 42.1875 12.7457V27.7577C41.8186 28.0013 41.5033 28.3177 41.2611 28.6875H31.3031C31.0607 28.3183 30.7454 28.0025 30.3767 27.7594V12.744C30.753 12.4943 31.0568 12.1871 31.3048 11.8108V11.8125ZM19.3067 32.0625C19.1959 32.0681 19.0873 32.0956 18.9871 32.1432C18.8869 32.1908 18.797 32.2577 18.7227 32.3401C18.6483 32.4224 18.5909 32.5186 18.5537 32.6231C18.5165 32.7276 18.5003 32.8385 18.506 32.9493C18.5116 33.0601 18.539 33.1687 18.5867 33.2689C18.6343 33.3691 18.7012 33.4589 18.7835 33.5333C18.8659 33.6077 18.9621 33.6651 19.0666 33.7022C19.1711 33.7394 19.2819 33.7556 19.3927 33.75H22.7677C22.9915 33.75 23.2061 33.6611 23.3644 33.5029C23.5226 33.3446 23.6115 33.13 23.6115 32.9062C23.6115 32.6825 23.5226 32.4679 23.3644 32.3096C23.2061 32.1514 22.9915 32.0625 22.7677 32.0625H19.3927C19.3646 32.0611 19.3365 32.0611 19.3084 32.0625H19.3067ZM29.4587 32.0625C29.2349 32.0737 29.0247 32.1733 28.8744 32.3395C28.7241 32.5056 28.6459 32.7247 28.6571 32.9484C28.6683 33.1722 28.7679 33.3824 28.9341 33.5327C29.1002 33.683 29.3193 33.7612 29.5431 33.75H32.9181C33.1418 33.75 33.3564 33.6611 33.5147 33.5029C33.6729 33.3446 33.7618 33.13 33.7618 32.9062C33.7618 32.6825 33.6729 32.4679 33.5147 32.3096C33.3564 32.1514 33.1418 32.0625 32.9181 32.0625H29.5431C29.515 32.0611 29.4868 32.0611 29.4587 32.0625ZM10.8203 35.4375C10.646 35.4381 10.4763 35.4926 10.3343 35.5935C10.1923 35.6944 10.085 35.8368 10.0271 36.0011C9.94262 36.2377 9.80634 36.4525 9.62826 36.6297C9.45017 36.8069 9.23476 36.9421 8.99775 37.0254C8.83378 37.0839 8.69191 37.1917 8.59161 37.334C8.49131 37.4763 8.43748 37.6462 8.4375 37.8203V41.4922C8.43678 41.6669 8.49028 41.8375 8.59063 41.9805C8.69098 42.1234 8.83323 42.2318 8.99775 42.2904C9.23476 42.3738 9.45017 42.509 9.62826 42.6862C9.80634 42.8634 9.94262 43.0782 10.0271 43.3148C10.0855 43.4785 10.1931 43.6201 10.335 43.7204C10.477 43.8207 10.6464 43.8747 10.8203 43.875H21.2423C21.4161 43.8747 21.5855 43.8207 21.7275 43.7204C21.8694 43.6201 21.977 43.4785 22.0354 43.3148C22.1199 43.0782 22.2562 42.8634 22.4342 42.6862C22.6123 42.509 22.8277 42.3738 23.0648 42.2904C23.2293 42.2318 23.3715 42.1234 23.4719 41.9805C23.5722 41.8375 23.6257 41.6669 23.625 41.4922V37.8203C23.6247 37.6464 23.5707 37.477 23.4704 37.335C23.3701 37.1931 23.2285 37.0855 23.0648 37.0271C22.8276 36.9436 22.612 36.8081 22.4339 36.6306C22.2558 36.4531 22.1197 36.238 22.0354 36.0011C21.9775 35.8368 21.8702 35.6944 21.7282 35.5935C21.5862 35.4926 21.4165 35.4381 21.2423 35.4375H10.8203ZM31.0703 35.4375C30.896 35.4381 30.7263 35.4926 30.5843 35.5935C30.4423 35.6944 30.335 35.8368 30.2771 36.0011C30.1926 36.2377 30.0563 36.4525 29.8783 36.6297C29.7002 36.8069 29.4848 36.9421 29.2478 37.0254C29.0838 37.0839 28.9419 37.1917 28.8416 37.334C28.7413 37.4763 28.6875 37.6462 28.6875 37.8203V41.4922C28.6868 41.6669 28.7403 41.8375 28.8406 41.9805C28.941 42.1234 29.0832 42.2318 29.2478 42.2904C29.4848 42.3738 29.7002 42.509 29.8783 42.6862C30.0563 42.8634 30.1926 43.0782 30.2771 43.3148C30.3355 43.4785 30.4431 43.6201 30.585 43.7204C30.727 43.8207 30.8964 43.8747 31.0703 43.875H41.4922C41.6661 43.8747 41.8355 43.8207 41.9775 43.7204C42.1194 43.6201 42.227 43.4785 42.2854 43.3148C42.3699 43.0782 42.5062 42.8634 42.6842 42.6862C42.8623 42.509 43.0777 42.3738 43.3148 42.2904C43.4793 42.2318 43.6215 42.1234 43.7219 41.9805C43.8222 41.8375 43.8757 41.6669 43.875 41.4922V37.8203C43.8747 37.6464 43.8207 37.477 43.7204 37.335C43.6201 37.1931 43.4785 37.0855 43.3148 37.0271C43.0776 36.9436 42.862 36.8081 42.6839 36.6306C42.5058 36.4531 42.3697 36.238 42.2854 36.0011C42.2275 35.8368 42.1202 35.6944 41.9782 35.5935C41.8362 35.4926 41.6665 35.4381 41.4922 35.4375H31.0703ZM11.0548 37.125H21.0077C21.2574 37.503 21.5612 37.8084 21.9375 38.0582V41.2577C21.5686 41.5013 21.2534 41.8177 21.0111 42.1875H11.0531C10.8102 41.8182 10.4943 41.5023 10.125 41.2594V38.0582C10.5013 37.8084 10.8051 37.5013 11.0531 37.125H11.0548ZM31.3048 37.125H41.2577C41.5074 37.503 41.8112 37.8084 42.1875 38.0582V41.2577C41.8186 41.5013 41.5034 41.8177 41.2611 42.1875H31.3031C31.0607 41.8183 30.7454 41.5025 30.3767 41.2594V38.0582C30.753 37.8084 31.0568 37.5013 31.3048 37.125ZM5.0625 47.25H47.25V48.9375H5.0625V47.25ZM2.53125 50.625H49.7812C50.2639 50.625 50.625 50.9861 50.625 51.4688V52.3125H1.6875V51.4688C1.6875 50.9861 2.04862 50.625 2.53125 50.625Z" fill="url(#paint0_linear_485_5098)"/>
<defs>
<linearGradient id="paint0_linear_485_5098" x1="0" y1="0" x2="61.488" y2="1.31584" gradientUnits="userSpaceOnUse">
<stop offset="0.0927951" stop-color="#FFAD00"/>
<stop offset="1" stop-color="#009FA9"/>
</linearGradient>
</defs>
</svg>
