<svg width="60" height="60" viewBox="0 0 60 60" fill="none" xmlns="http://www.w3.org/2000/svg">
<path d="M24.375 49.6875H22.5V51.5625H24.375V49.6875Z" fill="url(#paint0_linear_485_5146)"/>
<path d="M24.375 38.4375H22.5V47.8125H24.375V38.4375Z" fill="url(#paint1_linear_485_5146)"/>
<path d="M21.5625 11.8359V6.39C22.109 6.1968 22.5824 5.83947 22.918 5.36691C23.2537 4.89434 23.4351 4.32962 23.4375 3.75V1.875C23.4375 1.62636 23.3387 1.3879 23.1629 1.21209C22.9871 1.03627 22.7486 0.9375 22.5 0.9375H12.1875C11.9389 0.9375 11.7004 1.03627 11.5246 1.21209C11.3488 1.3879 11.25 1.62636 11.25 1.875V3.75C11.2524 4.32962 11.4338 4.89434 11.7695 5.36691C12.1051 5.83947 12.5785 6.1968 13.125 6.39V11.8359L6.795 19.0706C6.64538 19.2413 6.56276 19.4605 6.5625 19.6875V52.5C6.56449 54.2399 7.25653 55.9079 8.4868 57.1382C9.71708 58.3685 11.3851 59.0605 13.125 59.0625H21.5625C23.3024 59.0605 24.9704 58.3685 26.2007 57.1382C27.431 55.9079 28.123 54.2399 28.125 52.5V19.6875C28.1247 19.4605 28.0421 19.2413 27.8925 19.0706L21.5625 11.8359ZM15 6.5625H19.6875V11.25H15V6.5625ZM14.4881 13.125H20.1994L25.1213 18.75H9.5625L14.4881 13.125ZM13.125 2.8125H21.5625V3.75C21.5625 3.99864 21.4637 4.2371 21.2879 4.41291C21.1121 4.58873 20.8736 4.6875 20.625 4.6875H14.0625C13.8139 4.6875 13.5754 4.58873 13.3996 4.41291C13.2238 4.2371 13.125 3.99864 13.125 3.75V2.8125ZM21.5625 57.1875H13.125C11.8823 57.186 10.6908 56.6917 9.81208 55.8129C8.93333 54.9342 8.43899 53.7427 8.4375 52.5V30.9375C8.47057 29.9125 8.90842 28.9424 9.65519 28.2396C10.402 27.5368 11.3968 27.1584 12.4219 27.1875C13.447 27.1584 14.4418 27.5368 15.1886 28.2396C15.9353 28.9424 16.3732 29.9125 16.4062 30.9375C16.4397 32.4596 17.0753 33.9064 18.1736 34.9608C19.2719 36.0152 20.7434 36.5912 22.2656 36.5625C23.7346 36.566 25.1532 36.0275 26.25 35.0503V52.5C26.2485 53.7427 25.7542 54.9342 24.8754 55.8129C23.9967 56.6917 22.8052 57.186 21.5625 57.1875ZM22.2656 34.6875C21.2405 34.7166 20.2457 34.3382 19.4989 33.6354C18.7522 32.9326 18.3143 31.9625 18.2812 30.9375C18.2478 29.4154 17.6122 27.9686 16.5139 26.9142C15.4156 25.8598 13.9441 25.2838 12.4219 25.3125C10.9529 25.309 9.53426 25.8475 8.4375 26.8247V20.625H26.25V30.1641L26.1778 30.1772C26.2259 30.4278 26.2501 30.6823 26.25 30.9375C26.2169 31.9625 25.7791 32.9326 25.0323 33.6354C24.2855 34.3382 23.2907 34.7166 22.2656 34.6875ZM47.8125 29.0625V26.0775C48.359 25.8843 48.8324 25.527 49.168 25.0544C49.5037 24.5818 49.6851 24.0171 49.6875 23.4375V21.5625C49.6875 21.3139 49.5887 21.0754 49.4129 20.8996C49.2371 20.7238 48.9986 20.625 48.75 20.625H36.5625C36.3139 20.625 36.0754 20.7238 35.8996 20.8996C35.7238 21.0754 35.625 21.3139 35.625 21.5625V23.4375C35.6274 24.0171 35.8088 24.5818 36.1445 25.0544C36.4801 25.527 36.9535 25.8843 37.5 26.0775V29.0625C36.0086 29.064 34.5787 29.6571 33.5242 30.7117C32.4696 31.7662 31.8765 33.1961 31.875 34.6875V53.4375C31.8765 54.9289 32.4696 56.3588 33.5242 57.4133C34.5787 58.4679 36.0086 59.061 37.5 59.0625H47.8125C49.3039 59.061 50.7338 58.4679 51.7883 57.4133C52.8429 56.3588 53.436 54.9289 53.4375 53.4375V34.6875C53.436 33.1961 52.8429 31.7662 51.7883 30.7117C50.7338 29.6571 49.3039 29.064 47.8125 29.0625ZM37.5 22.5H47.8125V23.4375C47.8125 23.6861 47.7137 23.9246 47.5379 24.1004C47.3621 24.2762 47.1236 24.375 46.875 24.375H38.4375C38.1889 24.375 37.9504 24.2762 37.7746 24.1004C37.5988 23.9246 37.5 23.6861 37.5 23.4375V22.5ZM39.375 26.25H45.9375V29.0625H39.375V26.25ZM37.5 30.9375H47.8125C48.8071 30.9375 49.7609 31.3326 50.4641 32.0359C51.1674 32.7391 51.5625 33.6929 51.5625 34.6875V37.5H33.75V34.6875C33.75 33.6929 34.1451 32.7391 34.8484 32.0359C35.5516 31.3326 36.5054 30.9375 37.5 30.9375ZM51.5625 48.75H33.75V39.375H51.5625V48.75ZM47.8125 57.1875H37.5C36.5054 57.1875 35.5516 56.7924 34.8484 56.0891C34.1451 55.3859 33.75 54.4321 33.75 53.4375V50.625H51.5625V53.4375C51.5625 54.4321 51.1674 55.3859 50.4641 56.0891C49.7609 56.7924 48.8071 57.1875 47.8125 57.1875Z" fill="url(#paint2_linear_485_5146)"/>
<defs>
<linearGradient id="paint0_linear_485_5146" x1="22.5" y1="49.6875" x2="24.7038" y2="49.7362" gradientUnits="userSpaceOnUse">
<stop offset="0.0927951" stop-color="#FFAD00"/>
<stop offset="1" stop-color="#009FA9"/>
</linearGradient>
<linearGradient id="paint1_linear_485_5146" x1="22.5" y1="38.4375" x2="24.7048" y2="38.4472" gradientUnits="userSpaceOnUse">
<stop offset="0.0927951" stop-color="#FFAD00"/>
<stop offset="1" stop-color="#009FA9"/>
</linearGradient>
<linearGradient id="paint2_linear_485_5146" x1="6.5625" y1="0.9375" x2="61.667" y2="1.91917" gradientUnits="userSpaceOnUse">
<stop offset="0.0927951" stop-color="#FFAD00"/>
<stop offset="1" stop-color="#009FA9"/>
</linearGradient>
</defs>
</svg>
