<svg width="50" height="50" viewBox="0 0 50 50" fill="none" xmlns="http://www.w3.org/2000/svg">
<path d="M11.8676 32.5763C11.9014 32.3307 11.9269 32.0935 11.9522 31.8479C11.9692 31.7039 12.0623 31.1789 12.1809 30.5098C12.2486 30.1541 12.3503 29.5951 12.4435 29.0446C12.0482 28.8054 11.684 28.5181 11.3594 28.1893C9.01345 25.8771 11.7067 22.7944 13.1548 21.1344C13.3412 20.9227 13.5021 20.7448 13.5868 20.6263C14.8487 18.7207 15.6448 16.18 16.2885 13.9526C17.5404 9.6374 20.3384 5.93483 24.1479 3.55239C23.6187 3.44997 23.0844 3.37646 22.5472 3.33218C18.9406 3.05549 15.3489 4.03182 12.3787 6.09632C9.40848 8.16081 7.24163 11.187 6.24402 14.6639C5.51568 17.1793 4.64333 19.881 3.19513 22.0745C2.7801 22.7097 -0.175639 25.5554 0.671267 26.3938C1.24783 26.9278 1.95953 27.2939 2.72927 27.4524C2.87328 27.4863 2.04327 31.7294 2.00093 32.1105C1.78922 34.1515 1.22179 36.2435 3.14426 37.5054C5.05832 38.7673 7.39582 39.4617 9.58934 40.0376C9.69944 40.063 9.80106 40.0884 9.9027 40.1139V46.7198H19.8455V42.0618C17.8635 41.5309 15.9712 40.7089 14.2304 39.6227C11.2324 37.6578 11.6304 34.4734 11.8676 32.5763Z" fill="#495056"/>
<path d="M48.106 12.3348C46.874 9.71322 44.9354 7.48715 42.5078 5.90673L39.8486 14.7824C40.5061 15.3878 40.9655 16.1777 41.1664 17.0486C41.3673 17.9195 41.3004 18.8308 40.9744 19.663C40.6485 20.4952 40.0787 21.2096 39.3398 21.7124C38.6009 22.2153 37.7273 22.4831 36.8335 22.4809C36.6517 22.4742 36.4705 22.4544 36.2915 22.4216C35.0211 25.0471 31.8113 27.5285 27.7884 28.4009C27.7288 28.5695 27.6462 28.7292 27.5428 28.8751C27.5428 28.8763 27.5426 28.8774 27.5422 28.8784C27.5418 28.8795 27.5412 28.8804 27.5404 28.8812C27.5396 28.882 27.5387 28.8826 27.5376 28.883C27.5366 28.8834 27.5355 28.8836 27.5343 28.8836C27.268 29.2741 26.8911 29.576 26.452 29.7509C26.0129 29.9257 25.5315 29.9655 25.0697 29.865C24.6079 29.7645 24.1866 29.5284 23.8598 29.1869C23.533 28.8454 23.3157 28.4141 23.2357 27.9483C23.1556 27.4825 23.2165 27.0034 23.4105 26.5724C23.6045 26.1414 23.9228 25.7782 24.3246 25.5293C24.7263 25.2803 25.1933 25.1571 25.6656 25.1753C26.1379 25.1935 26.594 25.3523 26.9754 25.6314L26.9839 25.6399C27.2172 25.8152 27.4179 26.0302 27.5767 26.2751C30.7611 25.4959 33.2934 23.5141 34.2928 21.6763C33.5613 21.1696 32.9996 20.4542 32.6809 19.6234C32.3622 18.7927 32.3012 17.8851 32.5061 17.0192C32.7109 16.1533 33.1719 15.3692 33.8291 14.7692C34.4862 14.1693 35.3089 13.7813 36.1899 13.656L39.027 4.17898C37.3632 3.58614 35.6102 3.28251 33.8439 3.28125C30.4303 3.28169 27.1095 4.39234 24.3825 6.44561C21.6555 8.49888 19.6703 11.3834 18.7264 14.6638C17.998 17.1792 17.1257 19.8809 15.6775 22.0744C15.2625 22.7096 12.3068 25.5552 13.1537 26.3937C13.7302 26.9277 14.4419 27.2938 15.2117 27.4523C15.3557 27.4862 14.5257 31.7292 14.4834 32.1104C14.2716 34.1514 13.7042 36.2433 15.6267 37.5052C17.5407 38.7671 19.8782 39.4616 22.0717 40.0375C22.1818 40.063 22.2834 40.0883 22.3851 40.1138V46.7197H37.6297V43.056C37.6304 41.9094 37.8863 40.7774 38.3787 39.742C38.8712 38.7066 39.5879 37.7938 40.4769 37.0697C40.9753 36.6632 41.3695 36.3341 41.4746 36.2264C45.7007 31.8817 49.3594 25.3774 49.478 19.017C49.5449 16.7134 49.0752 14.4257 48.106 12.3348Z" fill="url(#paint0_linear_101_1745)"/>
<defs>
<linearGradient id="paint0_linear_101_1745" x1="14.9847" y1="3.28125" x2="58.9616" y2="11.9323" gradientUnits="userSpaceOnUse">
<stop offset="0.00164986" stop-color="#5552FF"/>
<stop offset="0.489583" stop-color="#00C1EB"/>
<stop offset="1" stop-color="#00E3AD"/>
</linearGradient>
</defs>
</svg>
