<svg width="34" height="34" viewBox="0 0 34 34" fill="none" xmlns="http://www.w3.org/2000/svg">
<path d="M14.9314 31.0823C14.6055 31.0823 14.2938 30.9407 14.0813 30.6573L12.6505 28.7448C12.353 28.3482 11.9564 28.1215 11.5314 28.0931C11.0922 28.0648 10.6813 28.2632 10.3413 28.6173C8.28716 30.8132 6.72885 30.629 5.97801 30.3457C5.21301 30.0482 3.92383 29.0706 3.92383 25.9256V9.974C3.92383 3.684 5.73716 1.77148 11.673 1.77148H22.3689C28.3047 1.77148 30.118 3.684 30.118 9.974V16.009C30.118 16.5898 29.6364 17.0715 29.0555 17.0715C28.4747 17.0715 27.993 16.5898 27.993 16.009V9.974C27.993 4.85983 27.1005 3.89648 22.3689 3.89648H11.673C6.94133 3.89648 6.04883 4.85983 6.04883 9.974V25.9256C6.04883 27.4131 6.41716 28.2348 6.75716 28.3623C7.01216 28.4615 7.70636 28.3198 8.78303 27.1723C9.56219 26.3506 10.5822 25.9115 11.6447 25.9681C12.693 26.0248 13.6847 26.5773 14.3505 27.4698L15.7955 29.3823C16.1497 29.8498 16.0505 30.5157 15.583 30.8698C15.3705 31.0257 15.1439 31.0823 14.9314 31.0823Z" fill="#2278E3"/>
<path d="M22.6673 10.9785H11.334C10.7532 10.9785 10.2715 10.4968 10.2715 9.91602C10.2715 9.33518 10.7532 8.85352 11.334 8.85352H22.6673C23.2482 8.85352 23.7298 9.33518 23.7298 9.91602C23.7298 10.4968 23.2482 10.9785 22.6673 10.9785Z" fill="#2278E3"/>
<path d="M21.25 16.6455H12.75C12.1692 16.6455 11.6875 16.1638 11.6875 15.583C11.6875 15.0022 12.1692 14.5205 12.75 14.5205H21.25C21.8308 14.5205 22.3125 15.0022 22.3125 15.583C22.3125 16.1638 21.8308 16.6455 21.25 16.6455Z" fill="#2278E3"/>
<path d="M20.9957 30.8553C20.4574 30.8553 19.9474 30.6569 19.579 30.2886C19.1399 29.8494 18.9415 29.2119 19.0407 28.5461L19.3099 26.6336C19.3807 26.1378 19.6782 25.5428 20.0324 25.1886L25.0473 20.1736C25.7273 19.4936 26.3932 19.1394 27.1157 19.0686C27.994 18.9836 28.8723 19.3519 29.694 20.1736C30.5157 20.9953 30.884 21.8594 30.799 22.7519C30.7282 23.4603 30.3598 24.1403 29.694 24.8203L24.679 29.8353C24.3249 30.1894 23.7298 30.4869 23.234 30.5578L21.3215 30.827C21.2082 30.8411 21.109 30.8553 20.9957 30.8553ZM27.3565 21.1795C27.3423 21.1795 27.3282 21.1795 27.314 21.1795C27.1157 21.1936 26.8465 21.3778 26.549 21.6753L21.534 26.6903C21.4915 26.7328 21.4207 26.8745 21.4207 26.9311L21.1657 28.702L22.9365 28.4469C22.9932 28.4328 23.1348 28.3619 23.1773 28.3194L28.1923 23.3045C28.4898 22.9928 28.674 22.7378 28.6882 22.5394C28.7165 22.2561 28.4332 21.9161 28.1923 21.6753C27.9657 21.4486 27.6398 21.1795 27.3565 21.1795Z" fill="#2278E3"/>
<path d="M28.2195 25.8538C28.1204 25.8538 28.0212 25.8397 27.9362 25.8113C26.0662 25.2872 24.5787 23.7997 24.0545 21.9297C23.8987 21.363 24.2245 20.7821 24.7912 20.6121C25.3578 20.4563 25.9387 20.7822 26.0945 21.3488C26.4204 22.5105 27.3412 23.4313 28.5028 23.7571C29.0695 23.913 29.3954 24.508 29.2395 25.0747C29.112 25.5422 28.687 25.8538 28.2195 25.8538Z" fill="#2278E3"/>
</svg>
