<svg width="58" height="58" viewBox="0 0 58 58" fill="none" xmlns="http://www.w3.org/2000/svg">
<path d="M16.585 0.000771546V0.00972396C16.5477 0.0078578 16.5103 0.0078578 16.4729 0.00972396C16.4729 0.00972396 15.7041 0.0768636 14.9174 0.515512C14.407 0.805292 13.9818 1.2239 13.6844 1.72941C13.387 2.23491 13.2278 2.80957 13.2229 3.39582C13.2229 4.82814 14.1306 5.83524 14.9174 6.27612C15.1931 6.43278 15.2245 6.37907 15.4643 6.45516V15.6757H14.4019C12.7761 15.6754 11.1662 15.9949 9.6641 16.616C8.16202 17.2371 6.79721 18.1475 5.64761 19.2954C4.49802 20.4432 3.58616 21.8059 2.96414 23.3057C2.34212 24.8055 2.02212 26.4129 2.02241 28.0362V38.0557H2V47.0077H2.02241V50.3647C2.02241 50.6615 2.14049 50.9461 2.35067 51.156C2.56084 51.3658 2.8459 51.4837 3.14313 51.4837H13.1556V54.8564C13.1556 55.1532 13.2737 55.4378 13.4839 55.6476C13.694 55.8575 13.9791 55.9754 14.2763 55.9754H18.7883C19.0856 55.9754 19.3706 55.8575 19.5808 55.6476C19.791 55.4378 19.9091 55.1532 19.9091 54.8564V51.486H35.5543V54.881C35.5543 55.1778 35.6723 55.4624 35.8825 55.6723C36.0927 55.8821 36.3778 56 36.675 56H41.1803C41.4775 56 41.7626 55.8821 41.9727 55.6723C42.1829 55.4624 42.301 55.1778 42.301 54.881V51.486H52.3359C52.6331 51.486 52.9182 51.3681 53.1284 51.1582C53.3385 50.9484 53.4566 50.6637 53.4566 50.367V47.01H53.4656V38.058H53.4566V33.582H56.8793C57.1765 33.582 57.4616 33.4641 57.6717 33.2542C57.8819 33.0444 58 32.7597 58 32.463V27.9914C58 27.6947 57.8819 27.41 57.6717 27.2002C57.4616 26.9903 57.1765 26.8724 56.8793 26.8724H53.4028C52.8469 20.6329 47.9673 15.6757 41.521 15.6757H40.1201V6.5223C40.3465 6.46635 40.3644 6.51783 40.6199 6.39921C41.4582 5.98294 42.3615 4.91318 42.3615 3.39134C42.3615 1.8695 41.4582 0.795262 40.6199 0.381232C39.7794 -0.0350363 38.9725 0.000771546 38.9725 0.000771546H16.585ZM16.6859 2.24325V2.24772H38.9994C39.0083 2.24783 39.0173 2.24783 39.0263 2.24772C39.0263 2.24772 39.3401 2.24325 39.6202 2.39096C39.9027 2.52971 40.1201 2.59238 40.1201 3.39806C40.1201 4.19702 39.9027 4.26192 39.6202 4.40068C39.3378 4.53943 39.0263 4.55062 39.0263 4.55062C38.8768 4.54704 38.7282 4.57334 38.5891 4.62797C38.45 4.6826 38.3233 4.76446 38.2163 4.86872C38.1094 4.97299 38.0244 5.09756 37.9664 5.23511C37.9085 5.37265 37.8786 5.52039 37.8786 5.66962V15.6712H17.7057V5.66739C17.7055 5.39017 17.6021 5.12293 17.4158 4.91743C17.2294 4.71194 16.9733 4.58282 16.6971 4.5551C16.6971 4.5551 16.3452 4.51034 16.0112 4.32235C15.6772 4.1366 15.4643 4.00903 15.4643 3.39582C15.4643 2.78261 15.6772 2.65728 16.0112 2.46929C16.3385 2.28577 16.6724 2.24549 16.6836 2.24325H16.6859ZM14.4019 17.9137H41.5232C47.1604 17.9137 51.2062 22.3561 51.2197 28.0407V38.0557H4.26609V28.0362C4.25986 26.7052 4.51783 25.3861 5.0251 24.1551C5.53238 22.9242 6.2789 21.8058 7.22155 20.8646C8.16419 19.9234 9.28427 19.1781 10.5171 18.6716C11.7499 18.1651 13.071 17.9075 14.4041 17.9137H14.4019ZM53.5889 29.1104H55.7586V31.344H53.5889V29.1104ZM4.26609 40.296H51.2174V44.772H4.26609V40.296ZM4.26609 47.01H51.2174V49.248H4.26609V47.01ZM15.3993 51.5285H17.6699V53.7396H15.3993V51.5285ZM37.8002 51.5285H40.064V53.762H37.8002V51.5285Z" fill="url(#paint0_linear_485_5120)"/>
<defs>
<linearGradient id="paint0_linear_485_5120" x1="2" y1="0" x2="67.8203" y2="1.45399" gradientUnits="userSpaceOnUse">
<stop offset="0.0927951" stop-color="#FFAD00"/>
<stop offset="1" stop-color="#009FA9"/>
</linearGradient>
</defs>
</svg>
