<svg width="34" height="34" viewBox="0 0 34 34" fill="none" xmlns="http://www.w3.org/2000/svg">
<path d="M11.334 8.14648C10.7532 8.14648 10.2715 7.66482 10.2715 7.08398V2.83398C10.2715 2.25315 10.7532 1.77148 11.334 1.77148C11.9148 1.77148 12.3965 2.25315 12.3965 2.83398V7.08398C12.3965 7.66482 11.9148 8.14648 11.334 8.14648Z" fill="#2278E3"/>
<path d="M22.666 8.14648C22.0852 8.14648 21.6035 7.66482 21.6035 7.08398V2.83398C21.6035 2.25315 22.0852 1.77148 22.666 1.77148C23.2468 1.77148 23.7285 2.25315 23.7285 2.83398V7.08398C23.7285 7.66482 23.2468 8.14648 22.666 8.14648Z" fill="#2278E3"/>
<path d="M21.2493 19.4785H9.91602C9.33518 19.4785 8.85352 18.9968 8.85352 18.416C8.85352 17.8352 9.33518 17.3535 9.91602 17.3535H21.2493C21.8302 17.3535 22.3118 17.8352 22.3118 18.416C22.3118 18.9968 21.8302 19.4785 21.2493 19.4785Z" fill="#2278E3"/>
<path d="M16.9993 25.1465H9.91602C9.33518 25.1465 8.85352 24.6648 8.85352 24.084C8.85352 23.5032 9.33518 23.0215 9.91602 23.0215H16.9993C17.5802 23.0215 18.0618 23.5032 18.0618 24.084C18.0618 24.6648 17.5802 25.1465 16.9993 25.1465Z" fill="#2278E3"/>
<path d="M21.25 32.2288H12.75C4.78833 32.2288 3.1875 28.4747 3.1875 22.4113V13.6705C3.1875 6.95551 5.45417 4.22134 11.2767 3.89551H22.6667C22.6808 3.89551 22.7092 3.89551 22.7233 3.89551C28.5458 4.22134 30.8125 6.95551 30.8125 13.6705V22.4113C30.8125 28.4747 29.2117 32.2288 21.25 32.2288ZM11.3333 6.02051C7.36667 6.24717 5.3125 7.49384 5.3125 13.6705V22.4113C5.3125 27.8372 6.34667 30.1038 12.75 30.1038H21.25C27.6533 30.1038 28.6875 27.8372 28.6875 22.4113V13.6705C28.6875 7.50801 26.6475 6.24717 22.6383 6.02051H11.3333Z" fill="#2278E3"/>
</svg>
