<svg width="34" height="34" viewBox="0 0 34 34" fill="none" xmlns="http://www.w3.org/2000/svg">
<path d="M18.4881 23.0207H15.8248C13.9407 23.0207 12.3965 21.434 12.3965 19.479C12.3965 18.8982 12.8782 18.4165 13.459 18.4165C14.0398 18.4165 14.5215 18.8982 14.5215 19.479C14.5215 20.2582 15.1023 20.8957 15.8248 20.8957H18.4881C19.0406 20.8957 19.4798 20.3998 19.4798 19.7907C19.4798 19.0257 19.2673 18.9123 18.7857 18.7423L14.5215 17.2548C13.6148 16.929 12.3965 16.2773 12.3965 14.1948C12.3965 12.424 13.799 10.9648 15.5132 10.9648H18.1765C20.0606 10.9648 21.6048 12.5515 21.6048 14.5065C21.6048 15.0873 21.1232 15.569 20.5423 15.569C19.9615 15.569 19.4798 15.0873 19.4798 14.5065C19.4798 13.7273 18.899 13.0898 18.1765 13.0898H15.5132C14.9607 13.0898 14.5215 13.5857 14.5215 14.1948C14.5215 14.9598 14.734 15.0732 15.2156 15.2432L19.4798 16.7307C20.3865 17.0565 21.6048 17.7082 21.6048 19.7907C21.6048 21.5757 20.2023 23.0207 18.4881 23.0207Z" fill="#2278E3"/>
<path d="M17 24.4375C16.4192 24.4375 15.9375 23.9558 15.9375 23.375V10.625C15.9375 10.0442 16.4192 9.5625 17 9.5625C17.5808 9.5625 18.0625 10.0442 18.0625 10.625V23.375C18.0625 23.9558 17.5808 24.4375 17 24.4375Z" fill="#2278E3"/>
<path d="M17.0007 32.2293C8.59982 32.2293 1.77148 25.401 1.77148 17.0002C1.77148 8.59933 8.59982 1.771 17.0007 1.771C17.5815 1.771 18.0632 2.25266 18.0632 2.8335C18.0632 3.41433 17.5815 3.896 17.0007 3.896C9.77565 3.896 3.89648 9.77516 3.89648 17.0002C3.89648 24.2252 9.77565 30.1043 17.0007 30.1043C24.2257 30.1043 30.1048 24.2252 30.1048 17.0002C30.1048 16.4193 30.5865 15.9377 31.1673 15.9377C31.7482 15.9377 32.2298 16.4193 32.2298 17.0002C32.2298 25.401 25.4015 32.2293 17.0007 32.2293Z" fill="#2278E3"/>
<path d="M31.1667 9.56266C30.5858 9.56266 30.1042 9.081 30.1042 8.50016V3.896H25.5C24.9192 3.896 24.4375 3.41433 24.4375 2.8335C24.4375 2.25266 24.9192 1.771 25.5 1.771H31.1667C31.7475 1.771 32.2292 2.25266 32.2292 2.8335V8.50016C32.2292 9.081 31.7475 9.56266 31.1667 9.56266Z" fill="#2278E3"/>
<path d="M24.0824 10.9792C23.8132 10.9792 23.5441 10.88 23.3316 10.6675C22.9207 10.2567 22.9207 9.57671 23.3316 9.16587L30.4149 2.08254C30.8257 1.67171 31.5057 1.67171 31.9166 2.08254C32.3274 2.49337 32.3274 3.17337 31.9166 3.5842L24.8332 10.6675C24.6207 10.88 24.3516 10.9792 24.0824 10.9792Z" fill="#2278E3"/>
</svg>
