<svg width="50" height="50" viewBox="0 0 50 50" fill="none" xmlns="http://www.w3.org/2000/svg">
<path d="M25.6907 33.171C26.3183 34.2211 27.2676 35.041 28.3979 35.5092C29.5282 35.9773 30.7792 36.0688 31.9655 35.77C32.4975 35.6357 33.007 35.4243 33.4777 35.1424C34.2884 34.6585 34.9661 33.9807 35.45 33.17C35.732 32.6993 35.9434 32.1898 36.0777 31.6579C36.3777 30.4714 36.2868 29.2198 35.8183 28.0893C35.3499 26.9587 34.529 26.0096 33.4777 25.3831C33.007 25.1012 32.4975 24.8898 31.9655 24.7555C30.8762 24.4791 29.7293 24.5321 28.6701 24.9078C27.6109 25.2834 26.6869 25.9649 26.0151 26.8658C25.3433 27.7668 24.9539 28.8468 24.8962 29.9692C24.8384 31.0916 25.1149 32.2058 25.6907 33.171Z" fill="#8C939A"/>
<path d="M46.7106 27.7278H45.5947C45.215 25.4587 44.3235 23.3059 42.9879 21.4326L43.7777 20.6428C44.252 20.1669 44.5181 19.5222 44.5176 18.8502C44.517 18.1783 44.2499 17.534 43.7747 17.0589C43.2996 16.5837 42.6553 16.3166 41.9834 16.316C41.3114 16.3155 40.6667 16.5816 40.1908 17.056L39.401 17.8458C37.5286 16.5103 35.3763 15.6194 33.1078 15.2408V14.1231C33.1077 13.6096 32.9518 13.1082 32.6607 12.6852C32.3695 12.2622 31.9568 11.9375 31.4772 11.7541C30.9975 11.5708 30.4735 11.5373 29.9744 11.6582C29.4753 11.7791 29.0247 12.0486 28.6821 12.4311C28.9973 12.9926 29.162 13.6259 29.1603 14.2698C29.1592 15.1339 28.863 15.9717 28.3208 16.6444C27.7785 17.3171 27.0227 17.7844 26.1786 17.969C25.9353 18.7735 25.6131 19.552 25.2166 20.2932C25.3951 20.5719 25.5364 20.8728 25.6369 21.1881C26.3936 20.775 27.1995 20.4591 28.0354 20.2479C29.7004 19.8301 31.4428 19.8301 33.1078 20.2479C34.0752 20.4921 35.0016 20.8766 35.8576 21.3892C37.7678 22.5301 39.2593 24.2563 40.111 26.3118C40.9627 28.3673 41.1292 30.6425 40.5858 32.8001C40.3416 33.7675 39.9571 34.694 39.4445 35.55C38.5644 37.0243 37.3319 38.2568 35.8576 39.1369C35.0016 39.6495 34.0752 40.034 33.1077 40.2782C31.2245 40.7552 29.2448 40.6915 27.3961 40.0944C25.5473 39.4974 23.9044 38.3912 22.6558 36.9028C21.4072 35.4144 20.6036 33.6041 20.3372 31.6797C20.0708 29.7553 20.3524 27.7947 21.1497 26.0231C20.7355 25.9249 20.341 25.7571 19.983 25.5267C19.2418 25.9217 18.4641 26.2438 17.6606 26.4887C17.4757 27.3325 17.0083 28.0878 16.3356 28.6297C15.6629 29.1716 14.8253 29.4676 13.9615 29.4687C13.3512 29.4696 12.7499 29.3216 12.2097 29.0375C11.9968 29.4238 11.8883 29.8589 11.8948 30.2999C11.9013 30.7409 12.0227 31.1726 12.2468 31.5524C12.471 31.9322 12.7903 32.247 13.1733 32.4658C13.5562 32.6846 13.9896 32.7998 14.4307 32.8001H15.5484C15.9268 35.069 16.8184 37.2215 18.1552 39.0934L17.3653 39.8832C17.1298 40.1186 16.943 40.3981 16.8155 40.7057C16.688 41.0133 16.6223 41.3431 16.6222 41.676C16.6221 42.009 16.6876 42.3388 16.815 42.6465C16.9423 42.9541 17.1291 43.2337 17.3645 43.4692C17.5999 43.7047 17.8793 43.8916 18.1869 44.0191C18.4946 44.1466 18.8243 44.2123 19.1573 44.2124C19.4902 44.2124 19.82 44.1469 20.1277 44.0196C20.4353 43.8922 20.7149 43.7055 20.9504 43.4701L21.7403 42.6803C23.6135 44.0159 25.7663 44.9074 28.0354 45.2871V46.403C28.0362 47.0751 28.3038 47.7194 28.7793 48.1943C29.2548 48.6693 29.8995 48.936 30.5716 48.936C31.2436 48.936 31.8883 48.6693 32.3638 48.1943C32.8393 47.7194 33.1069 47.0751 33.1077 46.403V45.2853C35.3763 44.9067 37.5286 44.0157 39.401 42.6803L40.1908 43.4701C40.6666 43.945 41.3115 44.2115 41.9837 44.2111C42.6559 44.2108 43.3005 43.9436 43.7759 43.4683C44.2512 42.9929 44.5184 42.3483 44.5187 41.6761C44.5191 41.0039 44.2525 40.359 43.7777 39.8832L42.9879 39.0934C44.3234 37.221 45.2143 35.0686 45.5928 32.8001H46.7106C47.0439 32.8005 47.374 32.7352 47.6821 32.6079C47.9902 32.4807 48.2701 32.2939 48.506 32.0584C48.7418 31.8228 48.9289 31.5431 49.0565 31.2352C49.1842 30.9273 49.2499 30.5973 49.2499 30.2639C49.2499 29.9306 49.1842 29.6006 49.0565 29.2927C48.9289 28.9848 48.7418 28.705 48.506 28.4695C48.2701 28.2339 47.9902 28.0472 47.6821 27.9199C47.374 27.7927 47.0439 27.7274 46.7106 27.7278V27.7278Z" fill="#495056"/>
<path d="M12.1682 25.6822C12.1682 26.1578 12.3572 26.614 12.6935 26.9504C13.0299 27.2867 13.486 27.4757 13.9617 27.4757C14.4374 27.4757 14.8935 27.2867 15.2299 26.9504C15.5662 26.614 15.7552 26.1578 15.7552 25.6822V24.8918C17.3594 24.624 18.8814 23.994 20.2056 23.0496L20.7641 23.6082C20.9307 23.7747 21.1284 23.9068 21.346 23.997C21.5636 24.0871 21.7968 24.1335 22.0324 24.1335C22.2679 24.1335 22.5011 24.0871 22.7187 23.997C22.9363 23.9068 23.1341 23.7747 23.3006 23.6082C23.4672 23.4416 23.5993 23.2439 23.6894 23.0263C23.7795 22.8087 23.8259 22.5754 23.8259 22.3399C23.8259 22.1044 23.7795 21.8711 23.6894 21.6535C23.5993 21.4359 23.4672 21.2382 23.3006 21.0717L22.742 20.5131C23.6864 19.189 24.3165 17.6669 24.5842 16.0627H25.3746C25.8503 16.0627 26.3065 15.8738 26.6428 15.5374C26.9792 15.2011 27.1681 14.7449 27.1681 14.2692C27.1681 13.7936 26.9792 13.3374 26.6428 13.001C26.3065 12.6647 25.8503 12.4757 25.3746 12.4757H24.5855C24.317 10.8711 23.6865 9.34874 22.742 8.02408L23.3006 7.46553C23.6366 7.12909 23.8253 6.67301 23.8251 6.19753C23.8249 5.72204 23.636 5.26609 23.2998 4.92987C22.9635 4.59366 22.5076 4.40471 22.0321 4.40455C21.5566 4.4044 21.1005 4.59305 20.7641 4.92904L20.2056 5.48759C18.8814 4.54316 17.3594 3.91314 15.7552 3.64542V2.85501C15.7552 2.37934 15.5662 1.92317 15.2299 1.58682C14.8935 1.25048 14.4373 1.06152 13.9617 1.06152C13.486 1.06152 13.0298 1.25048 12.6935 1.58682C12.3572 1.92317 12.1682 2.37934 12.1682 2.85501V3.64413C10.5636 3.91263 9.04117 4.54306 7.71649 5.4876L7.15795 4.92905C6.9914 4.76259 6.7937 4.63056 6.57612 4.5405C6.35855 4.45045 6.12537 4.40413 5.88989 4.40419C5.65442 4.40425 5.42126 4.45069 5.20374 4.54085C4.98621 4.63102 4.78857 4.76315 4.62211 4.9297C4.45564 5.09625 4.32361 5.29395 4.23356 5.51153C4.1435 5.7291 4.09718 5.96228 4.09724 6.19775C4.0973 6.43323 4.14374 6.66639 4.23391 6.88391C4.32408 7.10144 4.45621 7.29908 4.62275 7.46554L5.1813 8.02408C4.23584 9.34836 3.60494 10.8709 3.3366 12.4757H2.5474C2.07174 12.4757 1.61555 12.6647 1.27921 13.001C0.942863 13.3374 0.753906 13.7936 0.753906 14.2692C0.753906 14.7449 0.942863 15.2011 1.27921 15.5374C1.61555 15.8738 2.07174 16.0627 2.5474 16.0627H3.33782C3.60543 17.6672 4.23596 19.1894 5.1813 20.5131L4.62276 21.0717C4.45578 21.238 4.32323 21.4357 4.23271 21.6533C4.14219 21.871 4.09547 22.1043 4.09522 22.34C4.09497 22.5758 4.1412 22.8092 4.23126 23.027C4.32132 23.2449 4.45345 23.4428 4.62009 23.6095C4.78672 23.7762 4.98459 23.9085 5.20238 23.9986C5.42016 24.0888 5.65359 24.1352 5.88931 24.135C6.12502 24.1349 6.3584 24.0883 6.57609 23.9979C6.79378 23.9075 6.9915 23.775 7.15796 23.6081L7.7165 23.0496C9.04118 23.9941 10.5636 24.6245 12.1682 24.893V25.6822ZM10.9906 19.2542C9.79431 18.5396 8.895 17.4185 8.4569 16.0957C8.01881 14.7729 8.07118 13.3366 8.60443 12.0492C9.13769 10.7618 10.1163 9.70918 11.3614 9.08358C12.6066 8.45798 14.0352 8.30116 15.3864 8.64175C15.9299 8.77893 16.4505 8.99495 16.9314 9.28295C18.0046 9.92395 18.8426 10.8938 19.3211 12.0486C19.7996 13.2035 19.8932 14.4818 19.5879 15.694C19.4507 16.2375 19.2347 16.7581 18.9466 17.239C18.4522 18.0673 17.7597 18.7598 16.9314 19.2542C16.4505 19.5422 15.9299 19.7583 15.3864 19.8954C14.6475 20.0828 13.8789 20.1226 13.1246 20.0125C12.3704 19.9025 11.6452 19.6448 10.9906 19.2542H10.9906Z" fill="url(#paint0_linear_101_1805)"/>
<defs>
<linearGradient id="paint0_linear_101_1805" x1="2.18946" y1="1.06153" x2="33.5421" y2="8.40514" gradientUnits="userSpaceOnUse">
<stop offset="0.00164986" stop-color="#5552FF"/>
<stop offset="0.489583" stop-color="#00C1EB"/>
<stop offset="1" stop-color="#00E3AD"/>
</linearGradient>
</defs>
</svg>
