<svg width="34" height="34" viewBox="0 0 34 34" fill="none" xmlns="http://www.w3.org/2000/svg">
<path d="M13.5993 29.3957C7.38018 29.3957 4.60352 26.619 4.60352 20.3998V13.5998C4.60352 7.38067 7.38018 4.604 13.5993 4.604H20.3993C26.6185 4.604 29.3952 7.38067 29.3952 13.5998C29.3952 14.1807 28.9135 14.6623 28.3327 14.6623C27.7518 14.6623 27.2702 14.1807 27.2702 13.5998C27.2702 8.52817 25.471 6.729 20.3993 6.729H13.5993C8.52768 6.729 6.72852 8.52817 6.72852 13.5998V20.3998C6.72852 25.4715 8.52768 27.2707 13.5993 27.2707C14.1802 27.2707 14.6618 27.7523 14.6618 28.3332C14.6618 28.914 14.1802 29.3957 13.5993 29.3957Z" fill="#2278E3"/>
<path d="M11.319 24.2248C11.0923 24.2248 10.8515 24.154 10.6532 23.9982C9.42068 23.0207 8.83984 21.4623 8.83984 19.1248V14.8748C8.83984 10.7665 10.7523 8.854 14.8607 8.854H19.1107C21.4482 8.854 22.9923 9.43484 23.984 10.6673C24.3523 11.1207 24.2673 11.8007 23.814 12.1548C23.3607 12.5232 22.6807 12.4523 22.3265 11.9848C21.9865 11.5457 21.2782 10.979 19.1248 10.979H14.8748C11.9282 10.979 10.979 11.9282 10.979 14.8748V19.1248C10.979 21.2782 11.5598 21.9865 11.9848 22.3265C12.4382 22.6948 12.5232 23.3607 12.1548 23.814C11.9423 24.0832 11.6307 24.2248 11.319 24.2248Z" fill="#2278E3"/>
<path d="M11.3477 6.72933C10.7527 6.72933 10.2852 6.24766 10.2852 5.66683V2.8335C10.2852 2.25266 10.7668 1.771 11.3477 1.771C11.9285 1.771 12.4102 2.25266 12.4102 2.8335V5.66683C12.4102 6.24766 11.9285 6.72933 11.3477 6.72933Z" fill="#2278E3"/>
<path d="M17 6.72933C16.4192 6.72933 15.9375 6.24766 15.9375 5.66683V2.8335C15.9375 2.25266 16.4192 1.771 17 1.771C17.5808 1.771 18.0625 2.25266 18.0625 2.8335V5.66683C18.0625 6.24766 17.5808 6.72933 17 6.72933Z" fill="#2278E3"/>
<path d="M22.666 6.72933C22.0852 6.72933 21.6035 6.24766 21.6035 5.66683V2.8335C21.6035 2.25266 22.0852 1.771 22.666 1.771C23.2468 1.771 23.7285 2.25266 23.7285 2.8335V5.66683C23.7285 6.24766 23.2468 6.72933 22.666 6.72933Z" fill="#2278E3"/>
<path d="M31.1673 12.396H28.334C27.7532 12.396 27.2715 11.9143 27.2715 11.3335C27.2715 10.7527 27.7532 10.271 28.334 10.271H31.1673C31.7482 10.271 32.2298 10.7527 32.2298 11.3335C32.2298 11.9143 31.7623 12.396 31.1673 12.396Z" fill="#2278E3"/>
<path d="M11.3477 32.2293C10.7668 32.2293 10.2852 31.7477 10.2852 31.1668V28.3335C10.2852 27.7527 10.7668 27.271 11.3477 27.271C11.9285 27.271 12.4102 27.7527 12.4102 28.3335V31.1668C12.4102 31.7477 11.9285 32.2293 11.3477 32.2293Z" fill="#2278E3"/>
<path d="M5.66732 12.396H2.83398C2.25315 12.396 1.77148 11.9285 1.77148 11.3335C1.77148 10.7385 2.25315 10.271 2.83398 10.271H5.66732C6.24815 10.271 6.72982 10.7527 6.72982 11.3335C6.72982 11.9143 6.26232 12.396 5.66732 12.396Z" fill="#2278E3"/>
<path d="M5.66732 18.0625H2.83398C2.25315 18.0625 1.77148 17.5808 1.77148 17C1.77148 16.4192 2.25315 15.9375 2.83398 15.9375H5.66732C6.24815 15.9375 6.72982 16.4192 6.72982 17C6.72982 17.5808 6.26232 18.0625 5.66732 18.0625Z" fill="#2278E3"/>
<path d="M5.66732 23.729H2.83398C2.25315 23.729 1.77148 23.2473 1.77148 22.6665C1.77148 22.0857 2.25315 21.604 2.83398 21.604H5.66732C6.24815 21.604 6.72982 22.0857 6.72982 22.6665C6.72982 23.2473 6.26232 23.729 5.66732 23.729Z" fill="#2278E3"/>
<path d="M23.6724 27.3986C21.8449 27.3986 20.3574 25.9111 20.3574 24.0836C20.3574 22.2561 21.8449 20.7686 23.6724 20.7686C25.4999 20.7686 26.9874 22.2561 26.9874 24.0836C26.9733 25.9111 25.4999 27.3986 23.6724 27.3986ZM23.6724 22.8936C23.0208 22.8936 22.4824 23.4319 22.4824 24.0836C22.4824 24.7352 23.0208 25.2736 23.6724 25.2736C24.3241 25.2736 24.8624 24.7352 24.8624 24.0836C24.8483 23.4319 24.3241 22.8936 23.6724 22.8936Z" fill="#2278E3"/>
<path d="M26.0671 32.2292C25.2737 32.2292 24.4946 31.8184 24.0696 31.0817L23.9704 30.9259C23.8146 30.6567 23.6871 30.5859 23.6587 30.5717C23.6446 30.5717 23.5029 30.6567 23.3471 30.9259L23.2621 31.0675C22.6104 32.1867 21.1796 32.555 20.0887 31.9034L18.8137 31.1667C18.2329 30.8409 17.8221 30.3025 17.6521 29.6509C17.4821 29.0134 17.5671 28.3334 17.8929 27.7667C18.0487 27.4975 18.0487 27.3417 18.0346 27.3134C18.0204 27.2992 17.8929 27.2284 17.5812 27.2284C16.2071 27.2284 15.0879 26.1092 15.0879 24.7492V23.4317C15.0879 22.0575 16.2071 20.9525 17.5671 20.9525C17.8787 20.9525 18.0062 20.8675 18.0346 20.8534C18.0346 20.8392 18.0346 20.6834 17.8787 20.4142C17.5529 19.8334 17.4537 19.1675 17.6379 18.53C17.8079 17.8925 18.2187 17.3542 18.7996 17.0142L20.0887 16.2634C21.1654 15.6259 22.5962 15.9942 23.2337 17.0992L23.3187 17.255C23.4746 17.5242 23.6021 17.595 23.6304 17.6092C23.6446 17.6092 23.7862 17.5242 23.9421 17.255L24.0271 17.1134C24.6929 15.9942 26.1096 15.6259 27.2004 16.2775L28.5179 17C29.0987 17.3259 29.5096 17.8642 29.6796 18.5159C29.8496 19.1534 29.7646 19.8334 29.4387 20.4C29.2829 20.6692 29.2829 20.825 29.2971 20.8534C29.3112 20.8675 29.4387 20.9384 29.7504 20.9384C31.1246 20.9384 32.2437 22.0575 32.2437 23.4175V24.735C32.2437 26.1092 31.1246 27.2142 29.7646 27.2142C29.4529 27.2142 29.3254 27.2992 29.2971 27.3134C29.2971 27.3275 29.2971 27.4834 29.4529 27.7525C29.7787 28.3334 29.8779 28.9992 29.6937 29.6367C29.5237 30.2742 29.1129 30.8125 28.5321 31.1525L27.2429 31.9034C26.8604 32.1159 26.4637 32.2292 26.0671 32.2292ZM23.6729 28.4467C24.5229 28.4467 25.3021 28.9567 25.8262 29.8634L25.9112 30.0192C25.9537 30.09 26.0671 30.1325 26.1521 30.0759L27.4554 29.325C27.5687 29.2684 27.6112 29.155 27.6254 29.0984C27.6396 29.0417 27.6537 28.9425 27.5971 28.8292C27.0729 27.9367 27.0304 27.0017 27.4554 26.265C27.8804 25.5284 28.7162 25.1034 29.7504 25.1034C29.9487 25.1034 30.1187 24.9334 30.1187 24.7492V23.4317C30.1187 23.2334 29.9487 23.0775 29.7646 23.0775C28.7304 23.0775 27.8804 22.6525 27.4696 21.9159C27.0446 21.1792 27.1012 20.2442 27.6112 19.3517C27.6821 19.2384 27.6679 19.125 27.6396 19.0825C27.6254 19.0259 27.5829 18.9267 27.4696 18.8559L26.1804 18.105C26.0812 18.0484 25.9679 18.0909 25.9112 18.1759L25.8404 18.3034C25.3162 19.21 24.5371 19.72 23.6871 19.72C22.8371 19.72 22.0579 19.21 21.5337 18.3034L21.4487 18.1617C21.4062 18.0767 21.2787 18.0484 21.2079 18.0909L19.9046 18.8417C19.7912 18.8984 19.7487 19.0117 19.7346 19.0684C19.7204 19.125 19.7062 19.2242 19.7629 19.3375C20.2871 20.23 20.3296 21.165 19.9046 21.9017C19.4796 22.6384 18.6437 23.0634 17.6096 23.0634C17.4112 23.0634 17.2412 23.2334 17.2412 23.4175V24.735C17.2412 24.9334 17.4112 25.0892 17.5954 25.0892C18.6296 25.0892 19.4796 25.5142 19.8904 26.2509C20.3154 26.9875 20.2587 27.9225 19.7487 28.815C19.6921 28.9284 19.7062 29.0275 19.7204 29.0842C19.7346 29.1409 19.7771 29.24 19.8904 29.3109L21.1796 30.0617C21.2787 30.1184 21.3921 30.0759 21.4487 29.9909L21.5196 29.8492C22.0296 28.9567 22.8229 28.4467 23.6729 28.4467Z" fill="#2278E3"/>
</svg>
