<svg width="50" height="50" viewBox="0 0 50 50" fill="none" xmlns="http://www.w3.org/2000/svg">
<path d="M43.4459 22.5695L41.003 19.2272C40.8497 19.0126 40.8395 18.7162 40.9928 18.5015L43.3845 15.1286C43.5992 14.8219 43.497 14.3926 43.1699 14.2189L39.5209 12.2666C39.2859 12.144 39.153 11.8782 39.2041 11.6125L39.8889 7.53426C39.9502 7.1663 39.6743 6.81878 39.2961 6.80856L35.1667 6.6348C34.901 6.62458 34.6659 6.4406 34.5944 6.18507L33.4496 2.19884C33.3474 1.8411 32.9488 1.6469 32.6012 1.80021L28.799 3.43559C28.5537 3.5378 28.2675 3.47648 28.0835 3.28228L25.3238 0.205718C25.0683 -0.0702528 24.639 -0.0702528 24.3835 0.215939L21.6646 3.33338C21.4909 3.5378 21.2047 3.59913 20.9594 3.49692L17.1367 1.92287C16.7892 1.77977 16.4008 1.97397 16.2986 2.33171L15.2049 6.31795C15.1333 6.57348 14.9085 6.75746 14.6427 6.7779L10.5134 7.01299C10.1352 7.03343 9.86947 7.38095 9.93079 7.74891L10.6769 11.8169C10.728 12.0827 10.5952 12.3484 10.3703 12.4711L6.75202 14.4744C6.42495 14.6584 6.33296 15.0877 6.5476 15.3841L8.99045 18.7264C9.14377 18.941 9.15399 19.2374 9.00067 19.4521L6.60893 22.8251C6.39428 23.1317 6.4965 23.561 6.82357 23.7347L10.4725 25.687C10.7076 25.8096 10.8405 26.0754 10.7894 26.3411L10.1046 30.4194C10.0432 30.7873 10.3192 31.1348 10.6974 31.1451L14.8267 31.3188C15.0925 31.329 15.3275 31.513 15.3991 31.7685L16.5541 35.7446C16.6563 36.1023 17.0549 36.2965 17.4024 36.1432L21.2047 34.5078C21.45 34.4056 21.7362 34.4669 21.9202 34.6611L24.6799 37.7377C24.9354 38.0137 25.3647 38.0137 25.6202 37.7275L28.339 34.61C28.5128 34.4056 28.799 34.3443 29.0443 34.4465L32.867 36.0205C33.2145 36.1636 33.6029 35.9694 33.7051 35.6117L34.7988 31.6254C34.8703 31.3699 35.0952 31.1859 35.3609 31.1655L39.4903 30.9304C39.8685 30.91 40.1342 30.5625 40.0729 30.1945L39.3267 26.1265C39.2756 25.8607 39.4085 25.595 39.6334 25.4723L43.2517 23.469C43.5787 23.3055 43.6707 22.8762 43.4459 22.5695ZM25.007 30.2047C18.8232 30.2047 13.7842 25.1657 13.7842 18.9819C13.7842 12.7981 18.8232 7.75913 25.007 7.75913C31.1907 7.75913 36.2297 12.7981 36.2297 18.9819C36.2297 25.1759 31.1907 30.2047 25.007 30.2047Z" fill="url(#paint0_linear_101_1735)"/>
<path d="M35.1156 37.4619C34.5227 38.065 33.6948 38.4227 32.8056 38.4227C32.4887 38.4227 32.1719 38.3716 31.8755 38.2898L29.2384 37.4926L27.2044 39.3528C27.1329 39.4141 27.0715 39.4755 27 39.5266L30.2708 49.6659C30.3832 50.0237 30.8431 50.1054 31.0782 49.809L33.4598 46.7529C33.5722 46.5996 33.7766 46.5383 33.9504 46.5894L37.6606 47.6728C38.0184 47.775 38.3454 47.4377 38.233 47.0902L35.1156 37.4619Z" fill="#495056"/>
<path d="M20.7847 37.4926L18.1476 38.2898C17.841 38.3818 17.5344 38.4227 17.2175 38.4227C16.3283 38.4227 15.5106 38.065 14.9075 37.4619L11.7901 47.1004C11.6777 47.4582 12.0047 47.7852 12.3625 47.683L16.0727 46.5996C16.2567 46.5485 16.4509 46.6098 16.5634 46.7631L18.9449 49.8193C19.1697 50.1157 19.6399 50.0339 19.7523 49.6762L23.0231 39.5368C22.9516 39.4857 22.88 39.4244 22.8187 39.363L20.7847 37.4926Z" fill="#495056"/>
<path d="M31.66 16.1917L27.4284 15.8851L25.8339 11.9601C25.5375 11.2242 24.4848 11.2242 24.1883 11.9601L22.5939 15.8851L18.3623 16.1917C17.5651 16.253 17.2482 17.2445 17.8513 17.7555L21.0913 20.4948L20.0795 24.6139C19.8853 25.3907 20.7336 26.004 21.4082 25.5849L25.006 23.3465L28.6039 25.5849C29.2785 26.004 30.1268 25.3907 29.9326 24.6139L28.9207 20.4948L32.1608 17.7555C32.7741 17.2445 32.4572 16.253 31.66 16.1917Z" fill="#495056"/>
<defs>
<linearGradient id="paint0_linear_101_1735" x1="8.45" y1="3.43397e-06" x2="52.6276" y2="10.1278" gradientUnits="userSpaceOnUse">
<stop offset="0.00164986" stop-color="#5552FF"/>
<stop offset="0.489583" stop-color="#00C1EB"/>
<stop offset="1" stop-color="#00E3AD"/>
</linearGradient>
</defs>
</svg>
