<svg width="75" height="70" viewBox="0 0 75 70" fill="none" xmlns="http://www.w3.org/2000/svg">
<path d="M72.0575 49.6319C75.9808 53.4854 75.9808 59.9016 72.0575 63.8697C68.133 67.7229 61.7893 67.7229 57.9807 63.8697C55.675 61.5389 54.7491 58.5033 55.0944 55.583L42.5181 47.3001C42.4058 47.4184 42.1753 47.6506 42.0557 47.7675C40.4418 49.399 38.4789 50.3329 36.4037 50.5661L36.749 55.118C38.2483 55.118 39.6354 55.821 40.7882 56.9871C43.3281 59.5521 43.3281 63.6375 40.7882 66.3226C38.2483 68.8914 34.0981 68.8914 31.5582 66.3226C29.0183 63.6375 29.0183 59.5521 31.5582 56.9871C32.2487 56.2874 32.9416 55.821 33.748 55.4671L33.2868 50.5661C31.4411 50.2171 29.477 49.2827 27.9801 47.7675L19.5577 56.2874C20.5983 59.7858 19.787 63.6375 17.1313 66.4395C13.0957 70.4075 6.86427 70.4075 2.93976 66.4395C-0.979921 62.4704 -0.979921 56.0532 2.93976 52.202C6.40193 48.7004 11.7098 48.2339 15.6331 50.9152L25.5585 43.7994C24.9791 41.9294 24.8668 39.8303 25.4402 37.9613L17.9425 34.2312C16.4396 35.5132 14.1339 35.3958 12.7504 33.8759C11.2487 32.478 11.2487 29.9125 12.7504 28.5084C14.2497 26.9932 16.7908 26.9932 18.173 28.5084C18.9794 29.3264 19.4406 30.3789 19.3259 31.4277L26.5967 35.1626C26.9432 34.5802 27.519 33.998 27.9801 33.5267C29.0183 32.478 30.2895 31.6624 31.5582 31.1945L29.2488 20.1059C27.0578 19.9885 24.9791 18.9397 23.3639 17.1904C19.4406 13.3396 19.4406 6.91813 23.3639 2.95004C27.2884 -0.901688 33.5162 -0.901688 37.4407 2.95004C41.364 6.91813 41.364 13.3396 37.4407 17.1904C36.6343 18.1241 35.5961 18.8239 34.558 19.2903L35.9426 30.6121C37.786 30.7281 39.6353 31.5436 41.2493 32.7107L43.5599 30.844C41.5958 28.0434 41.941 24.1912 44.365 21.7432C47.2478 18.8239 51.7481 18.8239 54.6332 21.7432C57.4037 24.5418 57.4037 29.208 54.6332 32.0115C52.2129 34.4629 48.5201 34.8134 45.6338 33.0603L43.3281 35.0468C44.8274 37.3784 45.2885 40.1808 44.7115 42.8656L57.9807 49.6319C61.7893 45.6638 68.133 45.6638 72.0575 49.6319Z" fill="#646665"/>
<circle cx="30.5" cy="10.5" r="10.5" fill="url(#paint0_linear_75_2004)"/>
<defs>
<linearGradient id="paint0_linear_75_2004" x1="21.1413" y1="1.90055e-06" x2="46.0674" y2="5.83834" gradientUnits="userSpaceOnUse">
<stop offset="0.00164986" stop-color="#5552FF"/>
<stop offset="0.489583" stop-color="#00C1EB"/>
<stop offset="1" stop-color="#00E3AD"/>
</linearGradient>
</defs>
</svg>
