<svg width="34" height="34" viewBox="0 0 34 34" fill="none" xmlns="http://www.w3.org/2000/svg">
<path d="M11.334 8.146C10.7532 8.146 10.2715 7.66433 10.2715 7.0835V2.8335C10.2715 2.25266 10.7532 1.771 11.334 1.771C11.9148 1.771 12.3965 2.25266 12.3965 2.8335V7.0835C12.3965 7.66433 11.9148 8.146 11.334 8.146Z" fill="#FFC54C"/>
<path d="M22.666 8.146C22.0852 8.146 21.6035 7.66433 21.6035 7.0835V2.8335C21.6035 2.25266 22.0852 1.771 22.666 1.771C23.2468 1.771 23.7285 2.25266 23.7285 2.8335V7.0835C23.7285 7.66433 23.2468 8.146 22.666 8.146Z" fill="#FFC54C"/>
<path d="M12.0417 20.5417C11.6733 20.5417 11.305 20.3858 11.0358 20.1308C10.7808 19.8617 10.625 19.5075 10.625 19.125C10.625 18.9409 10.6675 18.7567 10.7383 18.5867C10.8092 18.4167 10.9083 18.2609 11.0358 18.1192C11.56 17.595 12.5092 17.595 13.0475 18.1192C13.3025 18.3884 13.4583 18.7567 13.4583 19.125C13.4583 19.21 13.4442 19.3092 13.43 19.4084C13.4158 19.4934 13.3875 19.5784 13.345 19.6634C13.3167 19.7484 13.2742 19.8334 13.2175 19.9184C13.1608 19.9892 13.1042 20.06 13.0475 20.1308C12.7783 20.3858 12.41 20.5417 12.0417 20.5417Z" fill="#FFC54C"/>
<path d="M17.0007 20.5418C16.8165 20.5418 16.6323 20.4993 16.4623 20.4285C16.2782 20.3576 16.1365 20.2584 15.9948 20.1309C15.7398 19.8618 15.584 19.5076 15.584 19.1251C15.584 18.9409 15.6265 18.7568 15.6973 18.5868C15.7682 18.4168 15.8673 18.261 15.9948 18.1193C16.1365 17.9918 16.2782 17.8926 16.4623 17.8218C16.9865 17.6093 17.6098 17.7226 18.0065 18.1193C18.2615 18.3885 18.4173 18.7568 18.4173 19.1251C18.4173 19.2101 18.4032 19.3093 18.389 19.4085C18.3748 19.4935 18.3465 19.5785 18.304 19.6635C18.2756 19.7485 18.2332 19.8334 18.1765 19.9184C18.134 19.9893 18.0631 20.0601 18.0065 20.1309C17.7373 20.3859 17.369 20.5418 17.0007 20.5418Z" fill="#FFC54C"/>
<path d="M12.0417 25.5001C11.8575 25.5001 11.6733 25.4576 11.5033 25.3868C11.3192 25.316 11.1633 25.2168 11.0358 25.0893C10.9083 24.9618 10.8092 24.8059 10.7383 24.6218C10.6675 24.4518 10.625 24.2676 10.625 24.0834C10.625 23.8993 10.6675 23.7151 10.7383 23.5451C10.8092 23.3609 10.9083 23.2051 11.0358 23.0776C11.1633 22.9501 11.3192 22.8509 11.5033 22.7801C11.8433 22.6384 12.24 22.6242 12.58 22.7801C12.7642 22.8509 12.92 22.9501 13.0475 23.0776C13.175 23.2051 13.2742 23.3609 13.345 23.5451C13.4158 23.7151 13.4583 23.8993 13.4583 24.0834C13.4583 24.2676 13.4158 24.4518 13.345 24.6218C13.2742 24.8059 13.175 24.9618 13.0475 25.0893C12.92 25.2168 12.7642 25.316 12.58 25.3868C12.41 25.4576 12.2258 25.5001 12.0417 25.5001Z" fill="#FFC54C"/>
<path d="M29.0423 13.9399H4.95898C4.37815 13.9399 3.89648 13.4583 3.89648 12.8774C3.89648 12.2966 4.37815 11.8149 4.95898 11.8149H29.0423C29.6232 11.8149 30.1048 12.2966 30.1048 12.8774C30.1048 13.4583 29.6232 13.9399 29.0423 13.9399Z" fill="#FFC54C"/>
<path d="M25.5007 33.6458C23.8432 33.6458 22.2707 33.0508 21.0665 31.96C20.5565 31.535 20.1032 30.9967 19.7348 30.3733C19.1115 29.3533 18.7715 28.1492 18.7715 26.9167C18.7715 23.205 21.789 20.1875 25.5007 20.1875C27.4273 20.1875 29.269 21.0233 30.544 22.4683C31.6348 23.715 32.2298 25.2875 32.2298 26.9167C32.2298 28.1492 31.8898 29.3534 31.2523 30.3875C30.0623 32.3992 27.8523 33.6458 25.5007 33.6458ZM25.5007 22.3125C22.9648 22.3125 20.8965 24.3808 20.8965 26.9167C20.8965 27.7525 21.1232 28.5742 21.5623 29.2825C21.8032 29.7075 22.1148 30.0617 22.4548 30.3592C23.3048 31.1242 24.3673 31.5208 25.5007 31.5208C27.1298 31.5208 28.6031 30.685 29.439 29.2967C29.8781 28.5742 30.1048 27.7667 30.1048 26.9167C30.1048 25.8117 29.694 24.735 28.9573 23.8708C28.079 22.8792 26.8182 22.3125 25.5007 22.3125Z" fill="#FFC54C"/>
<path d="M24.6919 29.3818C24.4228 29.3818 24.1536 29.2827 23.9411 29.0702L22.5386 27.6677C22.1278 27.2569 22.1278 26.5769 22.5386 26.166C22.9494 25.7552 23.6294 25.7552 24.0403 26.166L24.7203 26.846L26.9869 24.7494C27.4119 24.3527 28.0919 24.381 28.4886 24.806C28.8853 25.231 28.8569 25.911 28.4319 26.3077L25.4144 29.0985C25.2019 29.2827 24.9469 29.3818 24.6919 29.3818Z" fill="#FFC54C"/>
<path d="M21.7742 32.2293H11.3333C6.1625 32.2293 3.1875 29.2543 3.1875 24.0835V12.0418C3.1875 6.871 6.1625 3.896 11.3333 3.896H22.6667C27.8375 3.896 30.8125 6.871 30.8125 12.0418V23.1768C30.8125 23.616 30.5433 24.0127 30.1183 24.1685C29.7075 24.3243 29.24 24.211 28.9425 23.871C28.0642 22.8793 26.8033 22.3127 25.4858 22.3127C22.95 22.3127 20.8817 24.381 20.8817 26.9168C20.8817 27.7527 21.1083 28.5744 21.5475 29.2827C21.7883 29.7077 22.1 30.0618 22.44 30.3593C22.78 30.6427 22.9075 31.1102 22.7517 31.5352C22.6242 31.946 22.2275 32.2293 21.7742 32.2293ZM11.3333 6.021C7.28167 6.021 5.3125 7.99016 5.3125 12.0418V24.0835C5.3125 28.1352 7.28167 30.1043 11.3333 30.1043H19.5783C19.0542 29.141 18.7708 28.0502 18.7708 26.9168C18.7708 23.2052 21.7883 20.1877 25.5 20.1877C26.6192 20.1877 27.7242 20.471 28.6875 20.9952V12.0418C28.6875 7.99016 26.7183 6.021 22.6667 6.021H11.3333Z" fill="#FFC54C"/>
</svg>
