<svg width="50" height="50" viewBox="0 0 50 50" fill="none" xmlns="http://www.w3.org/2000/svg">
<path d="M29.6667 30.1458C29.6667 24.7083 25.25 20.2917 19.8125 20.2917" stroke="#3C3C40" stroke-width="3.75" stroke-linecap="round" stroke-linejoin="round"/>
<path d="M45.4365 8.20833C42.2282 16.2083 34.1865 27.0833 27.4574 32.4792L23.3532 35.7708C22.8324 36.1458 22.3115 36.4792 21.7282 36.7083C21.7282 36.3333 21.7074 35.9167 21.6449 35.5208C21.4157 33.7708 20.624 32.1458 19.2282 30.75C17.8115 29.3333 16.0824 28.5 14.3115 28.2708C13.8949 28.25 13.4782 28.2083 13.0615 28.25C13.2907 27.6042 13.6449 27 14.0824 26.5L17.3324 22.3958C22.7074 15.6667 33.624 7.58333 41.6032 4.39583C42.8324 3.9375 44.0199 4.27083 44.7699 5.04166C45.5615 5.8125 45.9365 7 45.4365 8.20833Z" stroke="#3A3C40" stroke-width="3.75" stroke-linecap="round" stroke-linejoin="round"/>
<path d="M21.7293 36.7083C21.7293 39 20.8543 41.1875 19.2085 42.8541C17.9377 44.125 16.2085 45 14.146 45.2708L9.021 45.8333C6.22933 46.1458 3.8335 43.7708 4.16683 40.9375L4.72933 35.8125C5.22933 31.25 9.04183 28.3333 13.0835 28.25C13.5002 28.2291 13.9377 28.25 14.3335 28.2708C16.1043 28.5 17.8335 29.3125 19.2502 30.75C20.646 32.1458 21.4377 33.7708 21.6668 35.5208C21.6877 35.9166 21.7293 36.3125 21.7293 36.7083Z" fill="#8792DA" stroke="#3A3C40" stroke-width="3.75" stroke-linecap="round" stroke-linejoin="round"/>
</svg>
