<svg width="34" height="34" viewBox="0 0 34 34" fill="none" xmlns="http://www.w3.org/2000/svg">
<path d="M7.64844 32.7249C6.52127 32.7249 5.44026 32.2771 4.64323 31.4801C3.8462 30.6831 3.39844 29.6021 3.39844 28.4749L3.39844 9.7749C3.39844 8.64773 3.8462 7.56673 4.64323 6.7697C5.44026 5.97267 6.52127 5.5249 7.64844 5.5249H10.3408C10.714 4.87852 11.2508 4.34182 11.8973 3.96879C12.4823 3.63123 13.1384 3.43847 13.8109 3.40512C13.9282 3.3993 14.0223 3.30446 14.0341 3.18765C14.0828 2.70202 14.2977 2.24547 14.6458 1.8973C15.0444 1.49879 15.5849 1.2749 16.1484 1.2749H17.8484C18.1275 1.2749 18.4038 1.32987 18.6616 1.43666C18.9195 1.54345 19.1537 1.69998 19.351 1.8973C19.5484 2.09462 19.7049 2.32888 19.8117 2.5867C19.8913 2.77894 19.9421 2.98148 19.9628 3.18776C19.9745 3.30453 20.0686 3.39935 20.1858 3.40522C20.8581 3.43887 21.5138 3.63178 22.0984 3.96932C22.7444 4.34234 23.2809 4.87884 23.6539 5.5249H26.3484C27.4756 5.5249 28.5566 5.97267 29.3536 6.7697C30.1507 7.56673 30.5984 8.64773 30.5984 9.7749V28.4749C30.5984 29.6021 30.1507 30.6831 29.3536 31.4801C28.5566 32.2771 27.4756 32.7249 26.3484 32.7249H7.64844Z" stroke="#FFC54C" stroke-width="2.125"/>
<path d="M24.2234 5.5249C24.2234 7.87211 22.3206 9.7749 19.9734 9.7749H14.0234C11.6762 9.7749 9.77344 7.87211 9.77344 5.5249" stroke="#FFC54C" stroke-width="2.125"/>
<path d="M8.49902 24.2246H21.249" stroke="#FFC54C" stroke-width="2.125" stroke-linecap="round" stroke-linejoin="round"/>
<path d="M8.49902 28.4746H16.999" stroke="#FFC54C" stroke-width="2.125" stroke-linecap="round" stroke-linejoin="round"/>
</svg>
