<svg width="50" height="50" viewBox="0 0 50 50" fill="none" xmlns="http://www.w3.org/2000/svg">
<path d="M20.9362 5.27083L8.39453 13.4583C4.3737 16.0833 4.3737 21.9583 8.39453 24.5833L20.9362 32.7708C23.1862 34.25 26.8945 34.25 29.1445 32.7708L41.6237 24.5833C45.6237 21.9583 45.6237 16.1042 41.6237 13.4792L29.1445 5.29167C26.8945 3.79166 23.1862 3.79167 20.9362 5.27083Z" fill="#5F6DCD" stroke="#080E21" stroke-width="3.75" stroke-linecap="round" stroke-linejoin="round"/>
<path d="M11.7288 27L11.708 36.7708C11.708 39.4167 13.7497 42.25 16.2497 43.0833L22.8955 45.2917C24.0413 45.6667 25.9372 45.6667 27.1038 45.2917L33.7497 43.0833C36.2497 42.25 38.2913 39.4167 38.2913 36.7708V27.1042" stroke="#080E21" stroke-width="3.75" stroke-linecap="round" stroke-linejoin="round"/>
<path d="M44.584 31.25V18.75" stroke="#080E21" stroke-width="3.75" stroke-linecap="round" stroke-linejoin="round"/>
</svg>
