<svg width="50" height="50" viewBox="0 0 50 50" fill="none" xmlns="http://www.w3.org/2000/svg">
<g opacity="0.9">
<path d="M45.8337 34.875V9.72917C45.8337 7.22917 43.792 5.375 41.3128 5.58333H41.1878C36.8128 5.95833 30.167 8.1875 26.4587 10.5208L26.1045 10.75C25.5003 11.125 24.5003 11.125 23.8962 10.75L23.3753 10.4375C19.667 8.125 13.042 5.91667 8.66699 5.5625C6.18782 5.35417 4.16699 7.22917 4.16699 9.70833V34.875C4.16699 36.875 5.79199 38.75 7.79199 39L8.39616 39.0833C12.917 39.6875 19.8962 41.9792 23.8962 44.1667L23.9795 44.2083C24.542 44.5208 25.4378 44.5208 25.9795 44.2083C29.9795 42 36.9795 39.6875 41.5212 39.0833L42.2087 39C44.2087 38.75 45.8337 36.875 45.8337 34.875Z" fill="#7B87D6" stroke="#353A4B" stroke-width="3.75" stroke-linecap="round" stroke-linejoin="round"/>
<path d="M25 11.4375V42.6875" stroke="#353A4B" stroke-width="3.75" stroke-linecap="round" stroke-linejoin="round"/>
<path d="M16.1455 17.6875H11.458" stroke="#F3F4FB" stroke-width="3.75" stroke-linecap="round" stroke-linejoin="round"/>
<path d="M17.708 23.9375H11.458" stroke="#F3F4FB" stroke-width="3.75" stroke-linecap="round" stroke-linejoin="round"/>
</g>
</svg>
