<svg width="50" height="50" viewBox="0 0 50 50" fill="none" xmlns="http://www.w3.org/2000/svg">
<path d="M36.4587 15.8958V10.4167C36.4587 6.25 34.3753 4.16666 30.2087 4.16666H19.792C15.6253 4.16666 13.542 6.25 13.542 10.4167V15.75" fill="#7B87D6"/>
<path d="M36.4587 15.8958V10.4167C36.4587 6.25 34.3753 4.16666 30.2087 4.16666H19.792C15.6253 4.16666 13.542 6.25 13.542 10.4167V15.75" stroke="#202537" stroke-width="3.75" stroke-linecap="round" stroke-linejoin="round"/>
<path d="M8.875 22.9583V33.3125C8.875 37.1042 8.875 37.1042 12.4583 39.5208L22.3125 45.2083C23.7917 46.0625 26.2083 46.0625 27.6875 45.2083L37.5417 39.5208C41.125 37.1042 41.125 37.1042 41.125 33.3125V22.9583C41.125 19.1667 41.125 19.1667 37.5417 16.75L27.6875 11.0625C26.2083 10.2083 23.7917 10.2083 22.3125 11.0625L12.4583 16.75C8.875 19.1667 8.875 19.1667 8.875 22.9583Z" fill="#F3F4FB" stroke="#202537" stroke-width="3.75" stroke-linecap="round" stroke-linejoin="round"/>
<path d="M26.3132 22.8958L27.5007 24.75C27.6882 25.0417 28.1048 25.3333 28.4173 25.4167L30.5423 25.9583C31.8548 26.2917 32.209 27.4167 31.3548 28.4583L29.959 30.1458C29.7507 30.4167 29.584 30.8958 29.6048 31.2292L29.7298 33.4167C29.8132 34.7708 28.8548 35.4583 27.6048 34.9583L25.5632 34.1458C25.2507 34.0208 24.7298 34.0208 24.4173 34.1458L22.3757 34.9583C21.1257 35.4583 20.1673 34.75 20.2507 33.4167L20.3757 31.2292C20.3965 30.8958 20.2298 30.3958 20.0215 30.1458L18.6257 28.4583C17.7715 27.4167 18.1257 26.2917 19.4382 25.9583L21.5632 25.4167C21.8965 25.3333 22.3132 25.0208 22.4798 24.75L23.6673 22.8958C24.4173 21.7708 25.584 21.7708 26.3132 22.8958Z" fill="#6E7BD2" stroke="#202537" stroke-width="3.75" stroke-linecap="round" stroke-linejoin="round"/>
</svg>
