<svg width="358" height="376" viewBox="0 0 358 376" fill="none" xmlns="http://www.w3.org/2000/svg">
<circle cx="243.5" cy="112.5" r="105.5" fill="url(#paint0_radial_737_1186)"/>
<g filter="url(#filter0_d_737_1186)">
<rect x="41" y="41" width="270" height="74" rx="8" fill="white"/>
</g>
<path d="M104.152 78V66.544H108.184C108.728 66.544 109.235 66.6347 109.704 66.816C110.184 66.9867 110.6 67.232 110.952 67.552C111.304 67.872 111.581 68.256 111.784 68.704C111.987 69.1413 112.088 69.6267 112.088 70.16C112.088 70.704 111.987 71.2 111.784 71.648C111.581 72.0853 111.304 72.464 110.952 72.784C110.6 73.104 110.184 73.3547 109.704 73.536C109.235 73.7067 108.728 73.792 108.184 73.792H106.312V78H104.152ZM108.216 71.744C108.781 71.744 109.208 71.584 109.496 71.264C109.784 70.944 109.928 70.576 109.928 70.16C109.928 69.9573 109.891 69.76 109.816 69.568C109.752 69.376 109.645 69.2107 109.496 69.072C109.357 68.9227 109.181 68.8053 108.968 68.72C108.755 68.6347 108.504 68.592 108.216 68.592H106.312V71.744H108.216ZM117.884 77.168H117.756C117.511 77.4667 117.212 77.7227 116.86 77.936C116.519 78.1493 116.076 78.256 115.532 78.256C115.127 78.256 114.743 78.1867 114.38 78.048C114.028 77.92 113.719 77.7387 113.452 77.504C113.186 77.2693 112.978 76.9867 112.828 76.656C112.679 76.3253 112.604 75.9627 112.604 75.568C112.604 75.1627 112.684 74.8 112.844 74.48C113.004 74.1493 113.228 73.8667 113.516 73.632C113.804 73.3973 114.14 73.2213 114.524 73.104C114.919 72.976 115.346 72.912 115.804 72.912C116.316 72.912 116.738 72.9547 117.068 73.04C117.399 73.1147 117.671 73.1947 117.884 73.28V73.04C117.884 72.624 117.719 72.2827 117.388 72.016C117.058 71.7387 116.647 71.6 116.156 71.6C115.431 71.6 114.818 71.904 114.316 72.512L112.796 71.472C113.628 70.4267 114.764 69.904 116.204 69.904C117.42 69.904 118.348 70.192 118.988 70.768C119.628 71.3333 119.948 72.176 119.948 73.296V78H117.884V77.168ZM117.884 74.816C117.639 74.6987 117.383 74.608 117.116 74.544C116.86 74.4693 116.578 74.432 116.268 74.432C115.767 74.432 115.378 74.544 115.1 74.768C114.834 74.9813 114.7 75.248 114.7 75.568C114.7 75.888 114.828 76.144 115.084 76.336C115.351 76.528 115.655 76.624 115.996 76.624C116.274 76.624 116.53 76.576 116.764 76.48C116.999 76.3733 117.196 76.24 117.356 76.08C117.527 75.9093 117.655 75.7173 117.74 75.504C117.836 75.28 117.884 75.0507 117.884 74.816ZM123.923 77.616L120.627 70.16H123.011L124.995 74.912H125.107L127.011 70.16H129.347L124.435 81.456H122.179L123.923 77.616ZM130.302 70.16H132.27V71.184H132.398C132.644 70.8 132.974 70.4907 133.39 70.256C133.817 70.0213 134.286 69.904 134.798 69.904C135.396 69.904 135.897 70.0427 136.302 70.32C136.708 70.5973 136.996 70.9387 137.166 71.344C137.412 70.9493 137.758 70.6133 138.206 70.336C138.654 70.048 139.198 69.904 139.838 69.904C140.318 69.904 140.734 69.984 141.086 70.144C141.438 70.2933 141.726 70.5067 141.95 70.784C142.185 71.0613 142.361 71.3973 142.478 71.792C142.596 72.176 142.654 72.5973 142.654 73.056V78H140.558V73.44C140.558 72.3733 140.121 71.84 139.246 71.84C138.969 71.84 138.724 71.904 138.51 72.032C138.297 72.1493 138.116 72.3147 137.966 72.528C137.828 72.7307 137.716 72.976 137.63 73.264C137.556 73.552 137.518 73.8613 137.518 74.192V78H135.422V73.44C135.422 72.3733 134.964 71.84 134.046 71.84C133.78 71.84 133.545 71.904 133.342 72.032C133.14 72.1493 132.969 72.3147 132.83 72.528C132.692 72.7307 132.585 72.976 132.51 73.264C132.436 73.552 132.398 73.8613 132.398 74.192V78H130.302V70.16ZM151.804 76.112C151.442 76.752 150.951 77.2693 150.332 77.664C149.724 78.0587 148.978 78.256 148.092 78.256C147.495 78.256 146.94 78.1547 146.428 77.952C145.927 77.7387 145.49 77.4453 145.116 77.072C144.743 76.6987 144.45 76.2613 144.236 75.76C144.034 75.248 143.932 74.688 143.932 74.08C143.932 73.5147 144.034 72.9813 144.236 72.48C144.439 71.968 144.722 71.5253 145.084 71.152C145.447 70.768 145.874 70.464 146.364 70.24C146.866 70.016 147.415 69.904 148.012 69.904C148.642 69.904 149.202 70.0107 149.692 70.224C150.183 70.4267 150.594 70.7147 150.924 71.088C151.255 71.4507 151.506 71.8827 151.676 72.384C151.847 72.8853 151.932 73.4293 151.932 74.016C151.932 74.0907 151.932 74.1547 151.932 74.208C151.922 74.272 151.916 74.3307 151.916 74.384C151.906 74.4373 151.9 74.496 151.9 74.56H145.996C146.039 74.88 146.124 75.1573 146.252 75.392C146.391 75.616 146.556 75.808 146.748 75.968C146.951 76.1173 147.17 76.2293 147.404 76.304C147.639 76.368 147.879 76.4 148.124 76.4C148.604 76.4 148.999 76.2933 149.308 76.08C149.628 75.856 149.879 75.5787 150.06 75.248L151.804 76.112ZM149.9 73.072C149.89 72.9333 149.842 72.7787 149.756 72.608C149.682 72.4373 149.564 72.2773 149.404 72.128C149.255 71.9787 149.063 71.856 148.828 71.76C148.604 71.664 148.332 71.616 148.012 71.616C147.564 71.616 147.17 71.744 146.828 72C146.487 72.256 146.247 72.6133 146.108 73.072H149.9ZM155.239 71.184H155.367C155.612 70.7893 155.943 70.48 156.359 70.256C156.775 70.0213 157.25 69.904 157.783 69.904C158.274 69.904 158.706 69.984 159.079 70.144C159.452 70.304 159.756 70.5333 159.991 70.832C160.236 71.12 160.418 71.472 160.535 71.888C160.663 72.2933 160.727 72.7467 160.727 73.248V78H158.631V73.504C158.631 72.9387 158.503 72.5227 158.247 72.256C158.002 71.9787 157.639 71.84 157.159 71.84C156.871 71.84 156.615 71.904 156.391 72.032C156.178 72.1493 155.991 72.3147 155.831 72.528C155.682 72.7307 155.564 72.976 155.479 73.264C155.404 73.5413 155.367 73.84 155.367 74.16V78H153.271V70.16H155.239V71.184ZM162.916 71.952H161.54V70.16H162.916V67.76H165.012V70.16H166.932V71.952H165.012V74.992C165.012 75.1733 165.028 75.344 165.06 75.504C165.103 75.6533 165.178 75.7813 165.284 75.888C165.434 76.0587 165.647 76.144 165.924 76.144C166.106 76.144 166.25 76.128 166.356 76.096C166.463 76.0533 166.564 76 166.66 75.936L167.252 77.776C167.007 77.8933 166.74 77.9787 166.452 78.032C166.175 78.096 165.866 78.128 165.524 78.128C165.13 78.128 164.772 78.0693 164.452 77.952C164.143 77.824 163.882 77.6533 163.668 77.44C163.167 76.96 162.916 76.2773 162.916 75.392V71.952ZM172.246 66.544H176.422C176.998 66.544 177.52 66.6347 177.99 66.816C178.459 66.9973 178.859 67.248 179.19 67.568C179.531 67.888 179.792 68.272 179.974 68.72C180.155 69.1573 180.246 69.6373 180.246 70.16C180.246 70.544 180.182 70.9067 180.054 71.248C179.926 71.5787 179.75 71.8827 179.526 72.16C179.302 72.4267 179.04 72.6667 178.742 72.88C178.443 73.0827 178.128 73.2427 177.798 73.36L177.782 73.472L180.854 77.872V78H178.374L175.414 73.696H174.406V78H172.246V66.544ZM176.406 71.712C176.896 71.712 177.296 71.5627 177.606 71.264C177.926 70.9653 178.086 70.5867 178.086 70.128C178.086 69.9253 178.048 69.728 177.974 69.536C177.91 69.344 177.808 69.1733 177.67 69.024C177.531 68.8747 177.355 68.7573 177.142 68.672C176.939 68.576 176.704 68.528 176.438 68.528H174.406V71.712H176.406ZM189.179 76.112C188.817 76.752 188.326 77.2693 187.707 77.664C187.099 78.0587 186.353 78.256 185.467 78.256C184.87 78.256 184.315 78.1547 183.803 77.952C183.302 77.7387 182.865 77.4453 182.491 77.072C182.118 76.6987 181.825 76.2613 181.611 75.76C181.409 75.248 181.307 74.688 181.307 74.08C181.307 73.5147 181.409 72.9813 181.611 72.48C181.814 71.968 182.097 71.5253 182.459 71.152C182.822 70.768 183.249 70.464 183.739 70.24C184.241 70.016 184.79 69.904 185.387 69.904C186.017 69.904 186.577 70.0107 187.067 70.224C187.558 70.4267 187.969 70.7147 188.299 71.088C188.63 71.4507 188.881 71.8827 189.051 72.384C189.222 72.8853 189.307 73.4293 189.307 74.016C189.307 74.0907 189.307 74.1547 189.307 74.208C189.297 74.272 189.291 74.3307 189.291 74.384C189.281 74.4373 189.275 74.496 189.275 74.56H183.371C183.414 74.88 183.499 75.1573 183.627 75.392C183.766 75.616 183.931 75.808 184.123 75.968C184.326 76.1173 184.545 76.2293 184.779 76.304C185.014 76.368 185.254 76.4 185.499 76.4C185.979 76.4 186.374 76.2933 186.683 76.08C187.003 75.856 187.254 75.5787 187.435 75.248L189.179 76.112ZM187.275 73.072C187.265 72.9333 187.217 72.7787 187.131 72.608C187.057 72.4373 186.939 72.2773 186.779 72.128C186.63 71.9787 186.438 71.856 186.203 71.76C185.979 71.664 185.707 71.616 185.387 71.616C184.939 71.616 184.545 71.744 184.203 72C183.862 72.256 183.622 72.6133 183.483 73.072H187.275ZM198.164 76C197.823 76.6613 197.343 77.2053 196.724 77.632C196.116 78.048 195.353 78.256 194.436 78.256C193.828 78.256 193.268 78.1547 192.756 77.952C192.255 77.7387 191.817 77.4453 191.444 77.072C191.081 76.6987 190.793 76.2613 190.58 75.76C190.377 75.248 190.276 74.688 190.276 74.08C190.276 73.472 190.377 72.912 190.58 72.4C190.793 71.888 191.081 71.4507 191.444 71.088C191.817 70.7147 192.255 70.4267 192.756 70.224C193.268 70.0107 193.828 69.904 194.436 69.904C195.343 69.904 196.105 70.112 196.724 70.528C197.343 70.944 197.796 71.4827 198.084 72.144L196.164 72.944C195.983 72.5813 195.748 72.3093 195.46 72.128C195.183 71.936 194.831 71.84 194.404 71.84C194.127 71.84 193.865 71.8933 193.62 72C193.375 72.1067 193.156 72.256 192.964 72.448C192.783 72.64 192.639 72.8747 192.532 73.152C192.425 73.4293 192.372 73.7387 192.372 74.08C192.372 74.4213 192.425 74.7307 192.532 75.008C192.639 75.2853 192.783 75.52 192.964 75.712C193.156 75.904 193.375 76.0533 193.62 76.16C193.865 76.2667 194.127 76.32 194.404 76.32C194.841 76.32 195.209 76.224 195.508 76.032C195.817 75.8293 196.063 75.5413 196.244 75.168L198.164 76ZM200.611 69.024C200.43 69.024 200.254 68.992 200.083 68.928C199.923 68.8533 199.779 68.7573 199.651 68.64C199.534 68.512 199.438 68.368 199.363 68.208C199.299 68.048 199.267 67.872 199.267 67.68C199.267 67.488 199.299 67.312 199.363 67.152C199.438 66.992 199.534 66.8533 199.651 66.736C199.779 66.608 199.923 66.512 200.083 66.448C200.254 66.3733 200.43 66.336 200.611 66.336C200.984 66.336 201.304 66.4693 201.571 66.736C201.838 66.992 201.971 67.3067 201.971 67.68C201.971 68.0533 201.838 68.3733 201.571 68.64C201.304 68.896 200.984 69.024 200.611 69.024ZM199.571 78V70.16H201.667V78H199.571ZM210.929 76.112C210.567 76.752 210.076 77.2693 209.457 77.664C208.849 78.0587 208.103 78.256 207.217 78.256C206.62 78.256 206.065 78.1547 205.553 77.952C205.052 77.7387 204.615 77.4453 204.241 77.072C203.868 76.6987 203.575 76.2613 203.361 75.76C203.159 75.248 203.057 74.688 203.057 74.08C203.057 73.5147 203.159 72.9813 203.361 72.48C203.564 71.968 203.847 71.5253 204.209 71.152C204.572 70.768 204.999 70.464 205.489 70.24C205.991 70.016 206.54 69.904 207.137 69.904C207.767 69.904 208.327 70.0107 208.817 70.224C209.308 70.4267 209.719 70.7147 210.049 71.088C210.38 71.4507 210.631 71.8827 210.801 72.384C210.972 72.8853 211.057 73.4293 211.057 74.016C211.057 74.0907 211.057 74.1547 211.057 74.208C211.047 74.272 211.041 74.3307 211.041 74.384C211.031 74.4373 211.025 74.496 211.025 74.56H205.121C205.164 74.88 205.249 75.1573 205.377 75.392C205.516 75.616 205.681 75.808 205.873 75.968C206.076 76.1173 206.295 76.2293 206.529 76.304C206.764 76.368 207.004 76.4 207.249 76.4C207.729 76.4 208.124 76.2933 208.433 76.08C208.753 75.856 209.004 75.5787 209.185 75.248L210.929 76.112ZM209.025 73.072C209.015 72.9333 208.967 72.7787 208.881 72.608C208.807 72.4373 208.689 72.2773 208.529 72.128C208.38 71.9787 208.188 71.856 207.953 71.76C207.729 71.664 207.457 71.616 207.137 71.616C206.689 71.616 206.295 71.744 205.953 72C205.612 72.256 205.372 72.6133 205.233 73.072H209.025ZM211.408 70.16H213.792L215.744 75.152H215.856L217.824 70.16H220.192L216.816 78H214.752L211.408 70.16ZM228.336 76.112C227.973 76.752 227.482 77.2693 226.864 77.664C226.256 78.0587 225.509 78.256 224.624 78.256C224.026 78.256 223.472 78.1547 222.96 77.952C222.458 77.7387 222.021 77.4453 221.648 77.072C221.274 76.6987 220.981 76.2613 220.768 75.76C220.565 75.248 220.464 74.688 220.464 74.08C220.464 73.5147 220.565 72.9813 220.768 72.48C220.97 71.968 221.253 71.5253 221.616 71.152C221.978 70.768 222.405 70.464 222.896 70.24C223.397 70.016 223.946 69.904 224.544 69.904C225.173 69.904 225.733 70.0107 226.224 70.224C226.714 70.4267 227.125 70.7147 227.456 71.088C227.786 71.4507 228.037 71.8827 228.208 72.384C228.378 72.8853 228.464 73.4293 228.464 74.016C228.464 74.0907 228.464 74.1547 228.464 74.208C228.453 74.272 228.448 74.3307 228.448 74.384C228.437 74.4373 228.432 74.496 228.432 74.56H222.528C222.57 74.88 222.656 75.1573 222.784 75.392C222.922 75.616 223.088 75.808 223.28 75.968C223.482 76.1173 223.701 76.2293 223.936 76.304C224.17 76.368 224.41 76.4 224.656 76.4C225.136 76.4 225.53 76.2933 225.84 76.08C226.16 75.856 226.41 75.5787 226.592 75.248L228.336 76.112ZM226.432 73.072C226.421 72.9333 226.373 72.7787 226.288 72.608C226.213 72.4373 226.096 72.2773 225.936 72.128C225.786 71.9787 225.594 71.856 225.36 71.76C225.136 71.664 224.864 71.616 224.544 71.616C224.096 71.616 223.701 71.744 223.36 72C223.018 72.256 222.778 72.6133 222.64 73.072H226.432ZM235.72 77.056H235.592C235.4 77.3867 235.102 77.6693 234.696 77.904C234.291 78.1387 233.79 78.256 233.192 78.256C232.691 78.256 232.211 78.1547 231.752 77.952C231.304 77.7387 230.904 77.4507 230.552 77.088C230.211 76.7147 229.939 76.272 229.736 75.76C229.534 75.248 229.432 74.688 229.432 74.08C229.432 73.472 229.534 72.912 229.736 72.4C229.939 71.888 230.211 71.4507 230.552 71.088C230.904 70.7147 231.304 70.4267 231.752 70.224C232.211 70.0107 232.691 69.904 233.192 69.904C233.79 69.904 234.291 70.0213 234.696 70.256C235.102 70.4907 235.4 70.7733 235.592 71.104H235.72L235.592 69.984V66.544H237.688V78H235.72V77.056ZM233.624 76.32C233.902 76.32 234.163 76.272 234.408 76.176C234.664 76.0693 234.888 75.92 235.08 75.728C235.272 75.536 235.427 75.3013 235.544 75.024C235.662 74.7467 235.72 74.432 235.72 74.08C235.72 73.728 235.662 73.4133 235.544 73.136C235.427 72.8587 235.272 72.624 235.08 72.432C234.888 72.24 234.664 72.096 234.408 72C234.163 71.8933 233.902 71.84 233.624 71.84C233.347 71.84 233.08 71.8933 232.824 72C232.579 72.1067 232.36 72.256 232.168 72.448C231.976 72.64 231.822 72.8747 231.704 73.152C231.587 73.4293 231.528 73.7387 231.528 74.08C231.528 74.4213 231.587 74.7307 231.704 75.008C231.822 75.2853 231.976 75.52 232.168 75.712C232.36 75.904 232.579 76.0533 232.824 76.16C233.08 76.2667 233.347 76.32 233.624 76.32ZM240.738 78.096C240.354 78.096 240.023 77.9627 239.746 77.696C239.479 77.4187 239.346 77.088 239.346 76.704C239.346 76.32 239.479 75.9947 239.746 75.728C240.023 75.4613 240.354 75.328 240.738 75.328C241.122 75.328 241.447 75.4613 241.714 75.728C241.981 75.9947 242.114 76.32 242.114 76.704C242.114 77.088 241.981 77.4187 241.714 77.696C241.447 77.9627 241.122 78.096 240.738 78.096ZM239.65 69.84V66.544H241.81V69.84L241.586 74.064H239.874L239.65 69.84Z" fill="#7D7D8C"/>
<path d="M105.76 91.336V94H105.024V91.336L103.096 88.272H103.96L105.376 90.6H105.408L106.792 88.272H107.656L105.76 91.336ZM107.177 92.04C107.177 91.4373 107.366 90.9387 107.745 90.544C108.129 90.1493 108.612 89.952 109.193 89.952C109.774 89.952 110.254 90.1493 110.633 90.544C111.017 90.9387 111.209 91.4373 111.209 92.04C111.209 92.648 111.017 93.1467 110.633 93.536C110.254 93.9307 109.774 94.128 109.193 94.128C108.612 94.128 108.129 93.9307 107.745 93.536C107.366 93.1413 107.177 92.6427 107.177 92.04ZM107.913 92.04C107.913 92.4613 108.036 92.8027 108.281 93.064C108.526 93.3253 108.83 93.456 109.193 93.456C109.556 93.456 109.86 93.3253 110.105 93.064C110.35 92.8027 110.473 92.4613 110.473 92.04C110.473 91.624 110.35 91.2853 110.105 91.024C109.854 90.7573 109.55 90.624 109.193 90.624C108.836 90.624 108.532 90.7573 108.281 91.024C108.036 91.2853 107.913 91.624 107.913 92.04ZM115.279 94H114.575V93.456H114.543C114.431 93.648 114.257 93.808 114.023 93.936C113.793 94.064 113.553 94.128 113.303 94.128C112.823 94.128 112.452 93.992 112.191 93.72C111.935 93.4427 111.807 93.0507 111.807 92.544V90.08H112.543V92.496C112.559 93.136 112.881 93.456 113.511 93.456C113.804 93.456 114.049 93.3387 114.247 93.104C114.444 92.864 114.543 92.5787 114.543 92.248V90.08H115.279V94ZM117.932 88.272H118.668V90.08L118.636 90.624H118.668C118.78 90.432 118.951 90.272 119.18 90.144C119.415 90.016 119.658 89.952 119.908 89.952C120.388 89.952 120.756 90.0907 121.012 90.368C121.274 90.64 121.404 91.0293 121.404 91.536V94H120.668V91.68C120.668 90.976 120.356 90.624 119.732 90.624C119.434 90.624 119.18 90.7493 118.972 91C118.77 91.2453 118.668 91.5333 118.668 91.864V94H117.932V88.272ZM122.765 92.8C122.765 92.992 122.845 93.152 123.005 93.28C123.171 93.408 123.363 93.472 123.581 93.472C123.891 93.472 124.165 93.3573 124.405 93.128C124.651 92.8987 124.773 92.6293 124.773 92.32C124.544 92.1387 124.224 92.048 123.813 92.048C123.515 92.048 123.264 92.12 123.061 92.264C122.864 92.408 122.765 92.5867 122.765 92.8ZM123.717 89.952C124.261 89.952 124.691 90.0987 125.005 90.392C125.32 90.68 125.477 91.0773 125.477 91.584V94H124.773V93.456H124.741C124.437 93.904 124.032 94.128 123.525 94.128C123.093 94.128 122.731 94 122.437 93.744C122.149 93.488 122.005 93.168 122.005 92.784C122.005 92.3787 122.157 92.056 122.461 91.816C122.771 91.576 123.181 91.456 123.693 91.456C124.131 91.456 124.491 91.536 124.773 91.696V91.528C124.773 91.272 124.672 91.056 124.469 90.88C124.267 90.6987 124.029 90.608 123.757 90.608C123.347 90.608 123.021 90.7813 122.781 91.128L122.133 90.72C122.491 90.208 123.019 89.952 123.717 89.952ZM128.133 94H127.397L125.813 90.08H126.613L127.765 93.12H127.781L128.949 90.08H129.733L128.133 94ZM131.856 94.128C131.28 94.128 130.806 93.9307 130.432 93.536C130.059 93.1413 129.872 92.6427 129.872 92.04C129.872 91.4427 130.054 90.9467 130.416 90.552C130.779 90.152 131.243 89.952 131.808 89.952C132.39 89.952 132.851 90.1413 133.192 90.52C133.539 90.8933 133.712 91.4187 133.712 92.096L133.704 92.176H130.624C130.635 92.56 130.763 92.8693 131.008 93.104C131.254 93.3387 131.547 93.456 131.888 93.456C132.358 93.456 132.726 93.2213 132.992 92.752L133.648 93.072C133.472 93.4027 133.227 93.6613 132.912 93.848C132.603 94.0347 132.251 94.128 131.856 94.128ZM130.68 91.568H132.928C132.907 91.296 132.795 91.072 132.592 90.896C132.395 90.7147 132.128 90.624 131.792 90.624C131.515 90.624 131.275 90.7093 131.072 90.88C130.875 91.0507 130.744 91.28 130.68 91.568ZM136.879 94H136.143V90.08H136.847V90.72H136.879C136.954 90.512 137.106 90.336 137.335 90.192C137.57 90.0427 137.799 89.968 138.023 89.968C138.237 89.968 138.418 90 138.567 90.064L138.343 90.776C138.253 90.7387 138.109 90.72 137.911 90.72C137.634 90.72 137.391 90.832 137.183 91.056C136.981 91.28 136.879 91.5413 136.879 91.84V94ZM140.567 94.128C139.991 94.128 139.517 93.9307 139.143 93.536C138.77 93.1413 138.583 92.6427 138.583 92.04C138.583 91.4427 138.765 90.9467 139.127 90.552C139.49 90.152 139.954 89.952 140.519 89.952C141.101 89.952 141.562 90.1413 141.903 90.52C142.25 90.8933 142.423 91.4187 142.423 92.096L142.415 92.176H139.335C139.346 92.56 139.474 92.8693 139.719 93.104C139.965 93.3387 140.258 93.456 140.599 93.456C141.069 93.456 141.437 93.2213 141.703 92.752L142.359 93.072C142.183 93.4027 141.938 93.6613 141.623 93.848C141.314 94.0347 140.962 94.128 140.567 94.128ZM139.391 91.568H141.639C141.618 91.296 141.506 91.072 141.303 90.896C141.106 90.7147 140.839 90.624 140.503 90.624C140.226 90.624 139.986 90.7093 139.783 90.88C139.586 91.0507 139.455 91.28 139.391 91.568ZM144.928 94.128C144.346 94.128 143.864 93.9307 143.48 93.536C143.101 93.1307 142.912 92.632 142.912 92.04C142.912 91.4373 143.101 90.9387 143.48 90.544C143.864 90.1493 144.346 89.952 144.928 89.952C145.328 89.952 145.677 90.0533 145.976 90.256C146.274 90.4533 146.498 90.728 146.648 91.08L145.976 91.36C145.768 90.8693 145.402 90.624 144.88 90.624C144.544 90.624 144.253 90.76 144.008 91.032C143.768 91.304 143.648 91.64 143.648 92.04C143.648 92.44 143.768 92.776 144.008 93.048C144.253 93.32 144.544 93.456 144.88 93.456C145.418 93.456 145.797 93.2107 146.016 92.72L146.672 93C146.528 93.352 146.301 93.6293 145.992 93.832C145.688 94.0293 145.333 94.128 144.928 94.128ZM148.267 88.728C148.267 88.872 148.217 88.9947 148.115 89.096C148.014 89.1973 147.891 89.248 147.747 89.248C147.603 89.248 147.481 89.1973 147.379 89.096C147.278 88.9947 147.227 88.872 147.227 88.728C147.227 88.584 147.278 88.4613 147.379 88.36C147.481 88.2587 147.603 88.208 147.747 88.208C147.891 88.208 148.014 88.2587 148.115 88.36C148.217 88.4613 148.267 88.584 148.267 88.728ZM148.115 90.08V94H147.379V90.08H148.115ZM150.794 94.128C150.218 94.128 149.743 93.9307 149.37 93.536C148.997 93.1413 148.81 92.6427 148.81 92.04C148.81 91.4427 148.991 90.9467 149.354 90.552C149.717 90.152 150.181 89.952 150.746 89.952C151.327 89.952 151.789 90.1413 152.13 90.52C152.477 90.8933 152.65 91.4187 152.65 92.096L152.642 92.176H149.562C149.573 92.56 149.701 92.8693 149.946 93.104C150.191 93.3387 150.485 93.456 150.826 93.456C151.295 93.456 151.663 93.2213 151.93 92.752L152.586 93.072C152.41 93.4027 152.165 93.6613 151.85 93.848C151.541 94.0347 151.189 94.128 150.794 94.128ZM149.618 91.568H151.866C151.845 91.296 151.733 91.072 151.53 90.896C151.333 90.7147 151.066 90.624 150.73 90.624C150.453 90.624 150.213 90.7093 150.01 90.88C149.813 91.0507 149.682 91.28 149.618 91.568ZM155.149 94H154.413L152.829 90.08H153.629L154.781 93.12H154.797L155.965 90.08H156.749L155.149 94ZM158.872 94.128C158.296 94.128 157.821 93.9307 157.448 93.536C157.075 93.1413 156.888 92.6427 156.888 92.04C156.888 91.4427 157.069 90.9467 157.432 90.552C157.795 90.152 158.259 89.952 158.824 89.952C159.405 89.952 159.867 90.1413 160.208 90.52C160.555 90.8933 160.728 91.4187 160.728 92.096L160.72 92.176H157.64C157.651 92.56 157.779 92.8693 158.024 93.104C158.269 93.3387 158.563 93.456 158.904 93.456C159.373 93.456 159.741 93.2213 160.008 92.752L160.664 93.072C160.488 93.4027 160.243 93.6613 159.928 93.848C159.619 94.0347 159.267 94.128 158.872 94.128ZM157.696 91.568H159.944C159.923 91.296 159.811 91.072 159.608 90.896C159.411 90.7147 159.144 90.624 158.808 90.624C158.531 90.624 158.291 90.7093 158.088 90.88C157.891 91.0507 157.76 91.28 157.696 91.568ZM163.2 93.456C163.563 93.456 163.859 93.3253 164.088 93.064C164.328 92.8027 164.448 92.4613 164.448 92.04C164.448 91.6293 164.328 91.2907 164.088 91.024C163.854 90.7573 163.558 90.624 163.2 90.624C162.848 90.624 162.552 90.7573 162.312 91.024C162.072 91.2907 161.952 91.6293 161.952 92.04C161.952 92.456 162.072 92.7947 162.312 93.056C162.552 93.3227 162.848 93.456 163.2 93.456ZM163.08 94.128C162.568 94.128 162.128 93.9253 161.76 93.52C161.398 93.1093 161.216 92.616 161.216 92.04C161.216 91.464 161.398 90.9707 161.76 90.56C162.128 90.1547 162.568 89.952 163.08 89.952C163.368 89.952 163.63 90.0133 163.864 90.136C164.104 90.2587 164.288 90.4213 164.416 90.624H164.448L164.416 90.08V88.272H165.152V94H164.448V93.456H164.416C164.288 93.6587 164.104 93.8213 163.864 93.944C163.63 94.0667 163.368 94.128 163.08 94.128ZM168.487 89.864C168.487 90.184 168.733 90.464 169.223 90.704V89.128C168.999 89.1653 168.821 89.2507 168.687 89.384C168.554 89.5173 168.487 89.6773 168.487 89.864ZM170.567 92.56C170.567 92.2293 170.322 91.952 169.831 91.728V93.384C170.322 93.272 170.567 92.9973 170.567 92.56ZM169.831 94.104V94.8H169.223V94.112C168.818 94.0587 168.463 93.9013 168.159 93.64C167.855 93.3787 167.653 93.048 167.551 92.648L168.207 92.384C168.271 92.64 168.394 92.8613 168.575 93.048C168.762 93.2293 168.978 93.3467 169.223 93.4V91.48C168.69 91.2667 168.311 91.032 168.087 90.776C167.863 90.5147 167.751 90.2107 167.751 89.864C167.751 89.4853 167.887 89.16 168.159 88.888C168.431 88.6107 168.786 88.4507 169.223 88.408V87.728H169.831V88.432C170.162 88.4853 170.447 88.6107 170.687 88.808C170.933 89.0053 171.098 89.2373 171.183 89.504L170.527 89.784C170.431 89.4533 170.199 89.2427 169.831 89.152V90.952C170.375 91.1813 170.757 91.4187 170.975 91.664C171.194 91.9093 171.303 92.2027 171.303 92.544C171.303 92.9653 171.17 93.3147 170.903 93.592C170.642 93.864 170.285 94.0347 169.831 94.104ZM175.553 92.448C175.553 92.928 175.374 93.328 175.017 93.648C174.665 93.968 174.228 94.128 173.705 94.128C173.294 94.128 172.924 94.0053 172.593 93.76C172.257 93.504 172.03 93.1707 171.913 92.76L172.585 92.48C172.67 92.784 172.809 93.0187 173.001 93.184C173.198 93.344 173.433 93.424 173.705 93.424C174.004 93.424 174.262 93.3307 174.481 93.144C174.694 92.952 174.801 92.72 174.801 92.448C174.801 92.176 174.689 91.9467 174.465 91.76C174.246 91.5733 173.982 91.48 173.673 91.48H173.201V90.792H173.617C173.91 90.792 174.15 90.712 174.337 90.552C174.524 90.3867 174.617 90.1733 174.617 89.912C174.617 89.672 174.529 89.4773 174.353 89.328C174.177 89.1787 173.945 89.104 173.657 89.104C173.193 89.104 172.876 89.3413 172.705 89.816L172.025 89.528C172.148 89.192 172.353 88.92 172.641 88.712C172.929 88.504 173.268 88.4 173.657 88.4C174.142 88.4 174.55 88.544 174.881 88.832C175.206 89.1093 175.369 89.4693 175.369 89.912C175.369 90.44 175.124 90.832 174.633 91.088V91.12C174.921 91.2427 175.145 91.4213 175.305 91.656C175.47 91.8907 175.553 92.1547 175.553 92.448ZM179.739 89.28L177.083 94.128L176.427 93.792L178.963 89.232H176.195L176.211 88.528H179.739V89.28ZM183.938 92.488C183.938 92.9573 183.76 93.3467 183.402 93.656C183.04 93.9707 182.6 94.128 182.082 94.128C181.565 94.128 181.125 93.9707 180.762 93.656C180.405 93.3467 180.226 92.9573 180.226 92.488C180.226 92.2 180.304 91.9387 180.458 91.704C180.613 91.464 180.834 91.2747 181.122 91.136V91.104C180.909 90.9653 180.736 90.7947 180.602 90.592C180.474 90.3893 180.41 90.176 180.41 89.952C180.41 89.5093 180.568 89.1387 180.882 88.84C181.192 88.5467 181.592 88.4 182.082 88.4C182.573 88.4 182.973 88.5467 183.282 88.84C183.597 89.1387 183.754 89.5093 183.754 89.952C183.754 90.176 183.688 90.3893 183.554 90.592C183.426 90.7947 183.256 90.9653 183.042 91.104V91.136C183.33 91.2747 183.552 91.464 183.706 91.704C183.861 91.9387 183.938 92.2 183.938 92.488ZM181.162 89.936C181.162 90.192 181.248 90.4 181.418 90.56C181.589 90.7147 181.81 90.792 182.082 90.792C182.354 90.792 182.576 90.7147 182.746 90.56C182.917 90.4 183.002 90.192 183.002 89.936C183.002 89.68 182.917 89.4773 182.746 89.328C182.576 89.1787 182.354 89.104 182.082 89.104C181.81 89.104 181.589 89.1787 181.418 89.328C181.248 89.4773 181.162 89.68 181.162 89.936ZM180.978 92.448C180.978 92.592 181.005 92.7227 181.058 92.84C181.117 92.9573 181.194 93.0613 181.29 93.152C181.392 93.2373 181.509 93.304 181.642 93.352C181.776 93.4 181.922 93.424 182.082 93.424C182.242 93.424 182.389 93.4 182.522 93.352C182.656 93.304 182.77 93.2373 182.866 93.152C182.968 93.0613 183.045 92.9573 183.098 92.84C183.157 92.7227 183.186 92.592 183.186 92.448C183.186 92.1707 183.08 91.9413 182.866 91.76C182.653 91.5733 182.392 91.48 182.082 91.48C181.773 91.48 181.509 91.5733 181.29 91.76C181.082 91.9467 180.978 92.176 180.978 92.448ZM185.73 93.504C185.73 93.6533 185.676 93.7813 185.57 93.888C185.468 93.9947 185.34 94.048 185.186 94.048C185.036 94.048 184.908 93.9947 184.802 93.888C184.695 93.7813 184.642 93.6533 184.642 93.504C184.642 93.3493 184.695 93.2213 184.802 93.12C184.908 93.0133 185.036 92.96 185.186 92.96C185.34 92.96 185.468 93.0133 185.57 93.12C185.676 93.2213 185.73 93.3493 185.73 93.504ZM188.149 92C187.712 92 187.315 91.8267 186.957 91.48C186.611 91.1227 186.437 90.7067 186.437 90.232C186.437 89.736 186.624 89.3093 186.997 88.952C187.371 88.584 187.808 88.4 188.309 88.4C188.837 88.4 189.283 88.5813 189.645 88.944C190.008 89.3067 190.189 89.736 190.189 90.232C190.189 90.6747 190.011 91.1787 189.653 91.744L188.061 94.128L187.469 93.72L188.821 91.848L188.805 91.832C188.635 91.944 188.416 92 188.149 92ZM189.445 90.224C189.445 89.9147 189.333 89.6507 189.109 89.432C188.891 89.2133 188.624 89.104 188.309 89.104C187.995 89.104 187.728 89.2133 187.509 89.432C187.291 89.6507 187.181 89.9147 187.181 90.224C187.181 90.5333 187.291 90.7973 187.509 91.016C187.739 91.2347 188.005 91.344 188.309 91.344C188.613 91.344 188.88 91.2347 189.109 91.016C189.333 90.8027 189.445 90.5387 189.445 90.224ZM192.54 92C192.102 92 191.705 91.8267 191.348 91.48C191.001 91.1227 190.828 90.7067 190.828 90.232C190.828 89.736 191.014 89.3093 191.388 88.952C191.761 88.584 192.198 88.4 192.7 88.4C193.228 88.4 193.673 88.5813 194.036 88.944C194.398 89.3067 194.58 89.736 194.58 90.232C194.58 90.6747 194.401 91.1787 194.044 91.744L192.452 94.128L191.86 93.72L193.212 91.848L193.196 91.832C193.025 91.944 192.806 92 192.54 92ZM193.836 90.224C193.836 89.9147 193.724 89.6507 193.5 89.432C193.281 89.2133 193.014 89.104 192.7 89.104C192.385 89.104 192.118 89.2133 191.9 89.432C191.681 89.6507 191.572 89.9147 191.572 90.224C191.572 90.5333 191.681 90.7973 191.9 91.016C192.129 91.2347 192.396 91.344 192.7 91.344C193.004 91.344 193.27 91.2347 193.5 91.016C193.724 90.8027 193.836 90.5387 193.836 90.224ZM198.056 88.728C198.056 88.872 198.006 88.9947 197.904 89.096C197.803 89.1973 197.68 89.248 197.536 89.248C197.392 89.248 197.27 89.1973 197.168 89.096C197.067 88.9947 197.016 88.872 197.016 88.728C197.016 88.584 197.067 88.4613 197.168 88.36C197.27 88.2587 197.392 88.208 197.536 88.208C197.68 88.208 197.803 88.2587 197.904 88.36C198.006 88.4613 198.056 88.584 198.056 88.728ZM197.904 90.08V94H197.168V90.08H197.904ZM198.862 90.08H199.566V90.624H199.598C199.71 90.432 199.881 90.272 200.11 90.144C200.345 90.016 200.587 89.952 200.838 89.952C201.318 89.952 201.686 90.0907 201.942 90.368C202.203 90.64 202.334 91.0293 202.334 91.536V94H201.598V91.584C201.582 90.944 201.259 90.624 200.63 90.624C200.337 90.624 200.091 90.744 199.894 90.984C199.697 91.2187 199.598 91.5013 199.598 91.832V94H198.862V90.08ZM208.46 90.08L206.004 95.728H205.244L206.156 93.752L204.54 90.08H205.34L206.508 92.896H206.524L207.66 90.08H208.46ZM208.56 92.04C208.56 91.4373 208.749 90.9387 209.128 90.544C209.512 90.1493 209.995 89.952 210.576 89.952C211.157 89.952 211.637 90.1493 212.016 90.544C212.4 90.9387 212.592 91.4373 212.592 92.04C212.592 92.648 212.4 93.1467 212.016 93.536C211.637 93.9307 211.157 94.128 210.576 94.128C209.995 94.128 209.512 93.9307 209.128 93.536C208.749 93.1413 208.56 92.6427 208.56 92.04ZM209.296 92.04C209.296 92.4613 209.419 92.8027 209.664 93.064C209.909 93.3253 210.213 93.456 210.576 93.456C210.939 93.456 211.243 93.3253 211.488 93.064C211.733 92.8027 211.856 92.4613 211.856 92.04C211.856 91.624 211.733 91.2853 211.488 91.024C211.237 90.7573 210.933 90.624 210.576 90.624C210.219 90.624 209.915 90.7573 209.664 91.024C209.419 91.2853 209.296 91.624 209.296 92.04ZM216.661 94H215.957V93.456H215.925C215.813 93.648 215.64 93.808 215.405 93.936C215.176 94.064 214.936 94.128 214.685 94.128C214.205 94.128 213.835 93.992 213.573 93.72C213.317 93.4427 213.189 93.0507 213.189 92.544V90.08H213.925V92.496C213.941 93.136 214.264 93.456 214.893 93.456C215.187 93.456 215.432 93.3387 215.629 93.104C215.827 92.864 215.925 92.5787 215.925 92.248V90.08H216.661V94ZM218.293 94H217.557V90.08H218.261V90.72H218.293C218.368 90.512 218.52 90.336 218.749 90.192C218.984 90.0427 219.213 89.968 219.437 89.968C219.651 89.968 219.832 90 219.981 90.064L219.757 90.776C219.667 90.7387 219.523 90.72 219.325 90.72C219.048 90.72 218.805 90.832 218.597 91.056C218.395 91.28 218.293 91.5413 218.293 91.84V94ZM223.085 88.976V90.992H224.269C224.568 90.992 224.821 90.896 225.029 90.704C225.237 90.5067 225.341 90.264 225.341 89.976C225.341 89.7093 225.243 89.4773 225.045 89.28C224.853 89.0773 224.611 88.976 224.317 88.976H223.085ZM223.085 94H222.349V88.272H224.301C224.797 88.272 225.219 88.4373 225.565 88.768C225.917 89.0933 226.093 89.496 226.093 89.976C226.093 90.3707 225.963 90.7227 225.701 91.032C225.445 91.336 225.12 91.5307 224.725 91.616L224.709 91.64L226.317 93.968V94H225.445L223.901 91.68H223.085V94ZM227.343 92.8C227.343 92.992 227.423 93.152 227.583 93.28C227.749 93.408 227.941 93.472 228.159 93.472C228.469 93.472 228.743 93.3573 228.983 93.128C229.229 92.8987 229.351 92.6293 229.351 92.32C229.122 92.1387 228.802 92.048 228.391 92.048C228.093 92.048 227.842 92.12 227.639 92.264C227.442 92.408 227.343 92.5867 227.343 92.8ZM228.295 89.952C228.839 89.952 229.269 90.0987 229.583 90.392C229.898 90.68 230.055 91.0773 230.055 91.584V94H229.351V93.456H229.319C229.015 93.904 228.61 94.128 228.103 94.128C227.671 94.128 227.309 94 227.015 93.744C226.727 93.488 226.583 93.168 226.583 92.784C226.583 92.3787 226.735 92.056 227.039 91.816C227.349 91.576 227.759 91.456 228.271 91.456C228.709 91.456 229.069 91.536 229.351 91.696V91.528C229.351 91.272 229.25 91.056 229.047 90.88C228.845 90.6987 228.607 90.608 228.335 90.608C227.925 90.608 227.599 90.7813 227.359 91.128L226.711 90.72C227.069 90.208 227.597 89.952 228.295 89.952ZM233.94 94H230.772V93.36L233.004 90.752H230.836V90.08H233.908V90.72L231.676 93.328H233.94V94ZM234.341 92.04C234.341 91.4373 234.531 90.9387 234.909 90.544C235.293 90.1493 235.776 89.952 236.357 89.952C236.939 89.952 237.419 90.1493 237.797 90.544C238.181 90.9387 238.373 91.4373 238.373 92.04C238.373 92.648 238.181 93.1467 237.797 93.536C237.419 93.9307 236.939 94.128 236.357 94.128C235.776 94.128 235.293 93.9307 234.909 93.536C234.531 93.1413 234.341 92.6427 234.341 92.04ZM235.077 92.04C235.077 92.4613 235.2 92.8027 235.445 93.064C235.691 93.3253 235.995 93.456 236.357 93.456C236.72 93.456 237.024 93.3253 237.269 93.064C237.515 92.8027 237.637 92.4613 237.637 92.04C237.637 91.624 237.515 91.2853 237.269 91.024C237.019 90.7573 236.715 90.624 236.357 90.624C236 90.624 235.696 90.7573 235.445 91.024C235.2 91.2853 235.077 91.624 235.077 92.04ZM239.7 94H238.964V90.08H239.668V90.72H239.7C239.774 90.512 239.926 90.336 240.156 90.192C240.39 90.0427 240.62 89.968 240.844 89.968C241.057 89.968 241.238 90 241.388 90.064L241.164 90.776C241.073 90.7387 240.929 90.72 240.732 90.72C240.454 90.72 240.212 90.832 240.004 91.056C239.801 91.28 239.7 91.5413 239.7 91.84V94ZM244.492 91.68V94H243.756V88.272H245.708C246.204 88.272 246.625 88.4373 246.972 88.768C247.324 89.0987 247.5 89.5013 247.5 89.976C247.5 90.4613 247.324 90.8667 246.972 91.192C246.63 91.5173 246.209 91.68 245.708 91.68H244.492ZM244.492 88.976V90.976H245.724C246.017 90.976 246.26 90.8773 246.452 90.68C246.649 90.4827 246.748 90.248 246.748 89.976C246.748 89.7093 246.649 89.4773 246.452 89.28C246.26 89.0773 246.017 88.976 245.724 88.976H244.492ZM248.523 92.8C248.523 92.992 248.603 93.152 248.763 93.28C248.928 93.408 249.12 93.472 249.339 93.472C249.648 93.472 249.923 93.3573 250.163 93.128C250.408 92.8987 250.531 92.6293 250.531 92.32C250.302 92.1387 249.982 92.048 249.571 92.048C249.272 92.048 249.022 92.12 248.819 92.264C248.622 92.408 248.523 92.5867 248.523 92.8ZM249.475 89.952C250.019 89.952 250.448 90.0987 250.763 90.392C251.078 90.68 251.235 91.0773 251.235 91.584V94H250.531V93.456H250.499C250.195 93.904 249.79 94.128 249.283 94.128C248.851 94.128 248.488 94 248.195 93.744C247.907 93.488 247.763 93.168 247.763 92.784C247.763 92.3787 247.915 92.056 248.219 91.816C248.528 91.576 248.939 91.456 249.451 91.456C249.888 91.456 250.248 91.536 250.531 91.696V91.528C250.531 91.272 250.43 91.056 250.227 90.88C250.024 90.6987 249.787 90.608 249.515 90.608C249.104 90.608 248.779 90.7813 248.539 91.128L247.891 90.72C248.248 90.208 248.776 89.952 249.475 89.952ZM255.491 90.08L253.035 95.728H252.275L253.187 93.752L251.571 90.08H252.371L253.539 92.896H253.555L254.691 90.08H255.491ZM259.695 89.176L258.759 91.76H260.663L259.727 89.176H259.695ZM257.951 94H257.135L259.295 88.272H260.127L262.287 94H261.471L260.919 92.448H258.511L257.951 94ZM264.506 94.128C263.924 94.128 263.442 93.9307 263.058 93.536C262.679 93.1307 262.49 92.632 262.49 92.04C262.49 91.4373 262.679 90.9387 263.058 90.544C263.442 90.1493 263.924 89.952 264.506 89.952C264.906 89.952 265.255 90.0533 265.554 90.256C265.852 90.4533 266.076 90.728 266.226 91.08L265.554 91.36C265.346 90.8693 264.98 90.624 264.458 90.624C264.122 90.624 263.831 90.76 263.586 91.032C263.346 91.304 263.226 91.64 263.226 92.04C263.226 92.44 263.346 92.776 263.586 93.048C263.831 93.32 264.122 93.456 264.458 93.456C264.996 93.456 265.375 93.2107 265.594 92.72L266.25 93C266.106 93.352 265.879 93.6293 265.57 93.832C265.266 94.0293 264.911 94.128 264.506 94.128ZM268.646 94.128C268.065 94.128 267.582 93.9307 267.198 93.536C266.82 93.1307 266.63 92.632 266.63 92.04C266.63 91.4373 266.82 90.9387 267.198 90.544C267.582 90.1493 268.065 89.952 268.646 89.952C269.046 89.952 269.396 90.0533 269.694 90.256C269.993 90.4533 270.217 90.728 270.366 91.08L269.694 91.36C269.486 90.8693 269.121 90.624 268.598 90.624C268.262 90.624 267.972 90.76 267.726 91.032C267.486 91.304 267.366 91.64 267.366 92.04C267.366 92.44 267.486 92.776 267.726 93.048C267.972 93.32 268.262 93.456 268.598 93.456C269.137 93.456 269.516 93.2107 269.734 92.72L270.39 93C270.246 93.352 270.02 93.6293 269.71 93.832C269.406 94.0293 269.052 94.128 268.646 94.128ZM270.771 92.04C270.771 91.4373 270.96 90.9387 271.339 90.544C271.723 90.1493 272.206 89.952 272.787 89.952C273.368 89.952 273.848 90.1493 274.227 90.544C274.611 90.9387 274.803 91.4373 274.803 92.04C274.803 92.648 274.611 93.1467 274.227 93.536C273.848 93.9307 273.368 94.128 272.787 94.128C272.206 94.128 271.723 93.9307 271.339 93.536C270.96 93.1413 270.771 92.6427 270.771 92.04ZM271.507 92.04C271.507 92.4613 271.63 92.8027 271.875 93.064C272.12 93.3253 272.424 93.456 272.787 93.456C273.15 93.456 273.454 93.3253 273.699 93.064C273.944 92.8027 274.067 92.4613 274.067 92.04C274.067 91.624 273.944 91.2853 273.699 91.024C273.448 90.7573 273.144 90.624 272.787 90.624C272.43 90.624 272.126 90.7573 271.875 91.024C271.63 91.2853 271.507 91.624 271.507 92.04ZM278.872 94H278.168V93.456H278.136C278.024 93.648 277.851 93.808 277.616 93.936C277.387 94.064 277.147 94.128 276.896 94.128C276.416 94.128 276.046 93.992 275.784 93.72C275.528 93.4427 275.4 93.0507 275.4 92.544V90.08H276.136V92.496C276.152 93.136 276.475 93.456 277.104 93.456C277.398 93.456 277.643 93.3387 277.84 93.104C278.038 92.864 278.136 92.5787 278.136 92.248V90.08H278.872V94ZM279.768 90.08H280.472V90.624H280.504C280.616 90.432 280.787 90.272 281.016 90.144C281.251 90.016 281.494 89.952 281.744 89.952C282.224 89.952 282.592 90.0907 282.848 90.368C283.11 90.64 283.24 91.0293 283.24 91.536V94H282.504V91.584C282.488 90.944 282.166 90.624 281.536 90.624C281.243 90.624 280.998 90.744 280.8 90.984C280.603 91.2187 280.504 91.5013 280.504 91.832V94H279.768V90.08ZM285.453 94.064C285.133 94.064 284.866 93.9653 284.653 93.768C284.445 93.5707 284.338 93.296 284.333 92.944V90.752H283.645V90.08H284.333V88.88H285.069V90.08H286.029V90.752H285.069V92.704C285.069 92.9653 285.12 93.144 285.221 93.24C285.322 93.3307 285.437 93.376 285.565 93.376C285.624 93.376 285.68 93.3707 285.733 93.36C285.792 93.344 285.845 93.3253 285.893 93.304L286.125 93.96C285.933 94.0293 285.709 94.064 285.453 94.064Z" fill="#85849A"/>
<circle cx="78" cy="79" r="13" fill="#0089FF"/>
<path d="M73 79.5L76.3333 83L83 76" stroke="white" stroke-width="2"/>
<g filter="url(#filter1_d_737_1186)">
<rect x="127" y="145" width="186" height="186" rx="8" fill="white"/>
</g>
<path d="M152.968 177.52V181H151.864V172.408H154.792C155.536 172.408 156.168 172.656 156.688 173.152C157.216 173.648 157.48 174.252 157.48 174.964C157.48 175.692 157.216 176.3 156.688 176.788C156.176 177.276 155.544 177.52 154.792 177.52H152.968ZM152.968 173.464V176.464H154.816C155.256 176.464 155.62 176.316 155.908 176.02C156.204 175.724 156.352 175.372 156.352 174.964C156.352 174.564 156.204 174.216 155.908 173.92C155.62 173.616 155.256 173.464 154.816 173.464H152.968ZM159.015 179.2C159.015 179.488 159.135 179.728 159.375 179.92C159.623 180.112 159.911 180.208 160.239 180.208C160.703 180.208 161.115 180.036 161.475 179.692C161.843 179.348 162.027 178.944 162.027 178.48C161.683 178.208 161.203 178.072 160.587 178.072C160.139 178.072 159.763 178.18 159.459 178.396C159.163 178.612 159.015 178.88 159.015 179.2ZM160.443 174.928C161.259 174.928 161.903 175.148 162.375 175.588C162.847 176.02 163.083 176.616 163.083 177.376V181H162.027V180.184H161.979C161.523 180.856 160.915 181.192 160.155 181.192C159.507 181.192 158.963 181 158.523 180.616C158.091 180.232 157.875 179.752 157.875 179.176C157.875 178.568 158.103 178.084 158.559 177.724C159.023 177.364 159.639 177.184 160.407 177.184C161.063 177.184 161.603 177.304 162.027 177.544V177.292C162.027 176.908 161.875 176.584 161.571 176.32C161.267 176.048 160.911 175.912 160.503 175.912C159.887 175.912 159.399 176.172 159.039 176.692L158.067 176.08C158.603 175.312 159.395 174.928 160.443 174.928ZM169.467 175.12L165.783 183.592H164.643L166.011 180.628L163.587 175.12H164.787L166.539 179.344H166.563L168.267 175.12H169.467ZM171.292 181H170.188V175.12H171.244V175.936H171.292C171.46 175.648 171.716 175.408 172.06 175.216C172.412 175.024 172.76 174.928 173.104 174.928C173.536 174.928 173.916 175.028 174.244 175.228C174.572 175.428 174.812 175.704 174.964 176.056C175.452 175.304 176.128 174.928 176.992 174.928C177.672 174.928 178.196 175.136 178.564 175.552C178.932 175.968 179.116 176.56 179.116 177.328V181H178.012V177.496C178.012 176.944 177.912 176.548 177.712 176.308C177.512 176.06 177.176 175.936 176.704 175.936C176.28 175.936 175.924 176.116 175.636 176.476C175.348 176.836 175.204 177.26 175.204 177.748V181H174.1V177.496C174.1 176.944 174 176.548 173.8 176.308C173.6 176.06 173.264 175.936 172.792 175.936C172.368 175.936 172.012 176.116 171.724 176.476C171.436 176.836 171.292 177.26 171.292 177.748V181ZM183.046 181.192C182.182 181.192 181.47 180.896 180.91 180.304C180.35 179.712 180.07 178.964 180.07 178.06C180.07 177.164 180.342 176.42 180.886 175.828C181.43 175.228 182.126 174.928 182.974 174.928C183.846 174.928 184.538 175.212 185.05 175.78C185.57 176.34 185.83 177.128 185.83 178.144L185.818 178.264H181.198C181.214 178.84 181.406 179.304 181.774 179.656C182.142 180.008 182.582 180.184 183.094 180.184C183.798 180.184 184.35 179.832 184.75 179.128L185.734 179.608C185.47 180.104 185.102 180.492 184.63 180.772C184.166 181.052 183.638 181.192 183.046 181.192ZM181.282 177.352H184.654C184.622 176.944 184.454 176.608 184.15 176.344C183.854 176.072 183.454 175.936 182.95 175.936C182.534 175.936 182.174 176.064 181.87 176.32C181.574 176.576 181.378 176.92 181.282 177.352ZM186.84 175.12H187.896V175.936H187.944C188.112 175.648 188.368 175.408 188.712 175.216C189.064 175.024 189.428 174.928 189.804 174.928C190.524 174.928 191.076 175.136 191.46 175.552C191.852 175.96 192.048 176.544 192.048 177.304V181H190.944V177.376C190.92 176.416 190.436 175.936 189.492 175.936C189.052 175.936 188.684 176.116 188.388 176.476C188.092 176.828 187.944 177.252 187.944 177.748V181H186.84V175.12ZM195.367 181.096C194.887 181.096 194.487 180.948 194.167 180.652C193.855 180.356 193.695 179.944 193.687 179.416V176.128H192.655V175.12H193.687V173.32H194.791V175.12H196.231V176.128H194.791V179.056C194.791 179.448 194.867 179.716 195.019 179.86C195.171 179.996 195.343 180.064 195.535 180.064C195.623 180.064 195.707 180.056 195.787 180.04C195.875 180.016 195.955 179.988 196.027 179.956L196.375 180.94C196.087 181.044 195.751 181.096 195.367 181.096ZM201.899 179.368C201.899 179.88 201.675 180.312 201.227 180.664C200.779 181.016 200.215 181.192 199.535 181.192C198.943 181.192 198.423 181.04 197.975 180.736C197.527 180.424 197.207 180.016 197.015 179.512L197.999 179.092C198.143 179.444 198.351 179.72 198.623 179.92C198.903 180.112 199.207 180.208 199.535 180.208C199.887 180.208 200.179 180.132 200.411 179.98C200.651 179.828 200.771 179.648 200.771 179.44C200.771 179.064 200.483 178.788 199.907 178.612L198.899 178.36C197.755 178.072 197.183 177.52 197.183 176.704C197.183 176.168 197.399 175.74 197.831 175.42C198.271 175.092 198.831 174.928 199.511 174.928C200.031 174.928 200.499 175.052 200.915 175.3C201.339 175.548 201.635 175.88 201.803 176.296L200.819 176.704C200.707 176.456 200.523 176.264 200.267 176.128C200.019 175.984 199.739 175.912 199.427 175.912C199.139 175.912 198.879 175.984 198.647 176.128C198.423 176.272 198.311 176.448 198.311 176.656C198.311 176.992 198.627 177.232 199.259 177.376L200.147 177.604C201.315 177.892 201.899 178.48 201.899 179.368ZM206.792 181H205.688V172.408H206.792L209.78 177.64H209.828L212.816 172.408H213.92V181H212.816V175.9L212.864 174.46H212.816L210.128 179.176H209.48L206.792 174.46H206.744L206.792 175.9V181ZM218.097 181.192C217.233 181.192 216.521 180.896 215.961 180.304C215.401 179.712 215.121 178.964 215.121 178.06C215.121 177.164 215.393 176.42 215.937 175.828C216.481 175.228 217.177 174.928 218.025 174.928C218.897 174.928 219.589 175.212 220.101 175.78C220.621 176.34 220.881 177.128 220.881 178.144L220.869 178.264H216.249C216.265 178.84 216.457 179.304 216.825 179.656C217.193 180.008 217.633 180.184 218.145 180.184C218.849 180.184 219.401 179.832 219.801 179.128L220.785 179.608C220.521 180.104 220.153 180.492 219.681 180.772C219.217 181.052 218.689 181.192 218.097 181.192ZM216.333 177.352H219.705C219.673 176.944 219.505 176.608 219.201 176.344C218.905 176.072 218.505 175.936 218.001 175.936C217.585 175.936 217.225 176.064 216.921 176.32C216.625 176.576 216.429 176.92 216.333 177.352ZM224.043 181.096C223.563 181.096 223.163 180.948 222.843 180.652C222.531 180.356 222.371 179.944 222.363 179.416V176.128H221.331V175.12H222.363V173.32H223.467V175.12H224.907V176.128H223.467V179.056C223.467 179.448 223.543 179.716 223.695 179.86C223.847 179.996 224.019 180.064 224.211 180.064C224.299 180.064 224.383 180.056 224.463 180.04C224.551 180.016 224.631 179.988 224.703 179.956L225.051 180.94C224.763 181.044 224.427 181.096 224.043 181.096ZM226.016 172.408H227.12V175.12L227.072 175.936H227.12C227.288 175.648 227.544 175.408 227.888 175.216C228.24 175.024 228.604 174.928 228.98 174.928C229.7 174.928 230.252 175.136 230.636 175.552C231.028 175.96 231.224 176.544 231.224 177.304V181H230.12V177.52C230.12 176.464 229.652 175.936 228.716 175.936C228.268 175.936 227.888 176.124 227.576 176.5C227.272 176.868 227.12 177.3 227.12 177.796V181H226.016V172.408ZM232.184 178.06C232.184 177.156 232.468 176.408 233.036 175.816C233.612 175.224 234.336 174.928 235.208 174.928C236.08 174.928 236.8 175.224 237.368 175.816C237.944 176.408 238.232 177.156 238.232 178.06C238.232 178.972 237.944 179.72 237.368 180.304C236.8 180.896 236.08 181.192 235.208 181.192C234.336 181.192 233.612 180.896 233.036 180.304C232.468 179.712 232.184 178.964 232.184 178.06ZM233.288 178.06C233.288 178.692 233.472 179.204 233.84 179.596C234.208 179.988 234.664 180.184 235.208 180.184C235.752 180.184 236.208 179.988 236.576 179.596C236.944 179.204 237.128 178.692 237.128 178.06C237.128 177.436 236.944 176.928 236.576 176.536C236.2 176.136 235.744 175.936 235.208 175.936C234.672 175.936 234.216 176.136 233.84 176.536C233.472 176.928 233.288 177.436 233.288 178.06ZM241.875 180.184C242.419 180.184 242.863 179.988 243.207 179.596C243.567 179.204 243.747 178.692 243.747 178.06C243.747 177.444 243.567 176.936 243.207 176.536C242.855 176.136 242.411 175.936 241.875 175.936C241.347 175.936 240.903 176.136 240.543 176.536C240.183 176.936 240.003 177.444 240.003 178.06C240.003 178.684 240.183 179.192 240.543 179.584C240.903 179.984 241.347 180.184 241.875 180.184ZM241.695 181.192C240.927 181.192 240.267 180.888 239.715 180.28C239.171 179.664 238.899 178.924 238.899 178.06C238.899 177.196 239.171 176.456 239.715 175.84C240.267 175.232 240.927 174.928 241.695 174.928C242.127 174.928 242.519 175.02 242.871 175.204C243.231 175.388 243.507 175.632 243.699 175.936H243.747L243.699 175.12V172.408H244.803V181H243.747V180.184H243.699C243.507 180.488 243.231 180.732 242.871 180.916C242.519 181.1 242.127 181.192 241.695 181.192Z" fill="#4F4F64"/>
<path d="M186.6 228H185.64L183.12 220.84H184.14L186.1 226.65H186.14L188.18 220.84H189.2L186.6 228ZM190.873 221.41C190.873 221.59 190.81 221.743 190.683 221.87C190.556 221.997 190.403 222.06 190.223 222.06C190.043 222.06 189.89 221.997 189.763 221.87C189.636 221.743 189.573 221.59 189.573 221.41C189.573 221.23 189.636 221.077 189.763 220.95C189.89 220.823 190.043 220.76 190.223 220.76C190.403 220.76 190.556 220.823 190.683 220.95C190.81 221.077 190.873 221.23 190.873 221.41ZM190.683 223.1V228H189.763V223.1H190.683ZM195.63 226.64C195.63 227.067 195.444 227.427 195.07 227.72C194.697 228.013 194.227 228.16 193.66 228.16C193.167 228.16 192.734 228.033 192.36 227.78C191.987 227.52 191.72 227.18 191.56 226.76L192.38 226.41C192.5 226.703 192.674 226.933 192.9 227.1C193.134 227.26 193.387 227.34 193.66 227.34C193.954 227.34 194.197 227.277 194.39 227.15C194.59 227.023 194.69 226.873 194.69 226.7C194.69 226.387 194.45 226.157 193.97 226.01L193.13 225.8C192.177 225.56 191.7 225.1 191.7 224.42C191.7 223.973 191.88 223.617 192.24 223.35C192.607 223.077 193.074 222.94 193.64 222.94C194.074 222.94 194.464 223.043 194.81 223.25C195.164 223.457 195.41 223.733 195.55 224.08L194.73 224.42C194.637 224.213 194.484 224.053 194.27 223.94C194.064 223.82 193.83 223.76 193.57 223.76C193.33 223.76 193.114 223.82 192.92 223.94C192.734 224.06 192.64 224.207 192.64 224.38C192.64 224.66 192.904 224.86 193.43 224.98L194.17 225.17C195.144 225.41 195.63 225.9 195.63 226.64ZM197.15 226.5C197.15 226.74 197.25 226.94 197.45 227.1C197.657 227.26 197.897 227.34 198.17 227.34C198.557 227.34 198.9 227.197 199.2 226.91C199.507 226.623 199.66 226.287 199.66 225.9C199.373 225.673 198.973 225.56 198.46 225.56C198.087 225.56 197.773 225.65 197.52 225.83C197.273 226.01 197.15 226.233 197.15 226.5ZM198.34 222.94C199.02 222.94 199.557 223.123 199.95 223.49C200.343 223.85 200.54 224.347 200.54 224.98V228H199.66V227.32H199.62C199.24 227.88 198.733 228.16 198.1 228.16C197.56 228.16 197.107 228 196.74 227.68C196.38 227.36 196.2 226.96 196.2 226.48C196.2 225.973 196.39 225.57 196.77 225.27C197.157 224.97 197.67 224.82 198.31 224.82C198.857 224.82 199.307 224.92 199.66 225.12V224.91C199.66 224.59 199.533 224.32 199.28 224.1C199.027 223.873 198.73 223.76 198.39 223.76C197.877 223.76 197.47 223.977 197.17 224.41L196.36 223.9C196.807 223.26 197.467 222.94 198.34 222.94ZM205.118 220.84L202.148 228H201.288L204.258 220.84H205.118ZM207.023 228H206.103V220.84H207.023L209.513 225.2H209.553L212.043 220.84H212.963V228H212.043V223.75L212.083 222.55H212.043L209.803 226.48H209.263L207.023 222.55H206.983L207.023 223.75V228ZM214.767 226.5C214.767 226.74 214.867 226.94 215.067 227.1C215.274 227.26 215.514 227.34 215.787 227.34C216.174 227.34 216.517 227.197 216.817 226.91C217.124 226.623 217.277 226.287 217.277 225.9C216.99 225.673 216.59 225.56 216.077 225.56C215.704 225.56 215.39 225.65 215.137 225.83C214.89 226.01 214.767 226.233 214.767 226.5ZM215.957 222.94C216.637 222.94 217.174 223.123 217.567 223.49C217.96 223.85 218.157 224.347 218.157 224.98V228H217.277V227.32H217.237C216.857 227.88 216.35 228.16 215.717 228.16C215.177 228.16 214.724 228 214.357 227.68C213.997 227.36 213.817 226.96 213.817 226.48C213.817 225.973 214.007 225.57 214.387 225.27C214.774 224.97 215.287 224.82 215.927 224.82C216.474 224.82 216.924 224.92 217.277 225.12V224.91C217.277 224.59 217.15 224.32 216.897 224.1C216.644 223.873 216.347 223.76 216.007 223.76C215.494 223.76 215.087 223.977 214.787 224.41L213.977 223.9C214.424 223.26 215.084 222.94 215.957 222.94ZM222.896 226.64C222.896 227.067 222.709 227.427 222.336 227.72C221.963 228.013 221.493 228.16 220.926 228.16C220.433 228.16 219.999 228.033 219.626 227.78C219.253 227.52 218.986 227.18 218.826 226.76L219.646 226.41C219.766 226.703 219.939 226.933 220.166 227.1C220.399 227.26 220.653 227.34 220.926 227.34C221.219 227.34 221.463 227.277 221.656 227.15C221.856 227.023 221.956 226.873 221.956 226.7C221.956 226.387 221.716 226.157 221.236 226.01L220.396 225.8C219.443 225.56 218.966 225.1 218.966 224.42C218.966 223.973 219.146 223.617 219.506 223.35C219.873 223.077 220.339 222.94 220.906 222.94C221.339 222.94 221.729 223.043 222.076 223.25C222.429 223.457 222.676 223.733 222.816 224.08L221.996 224.42C221.903 224.213 221.749 224.053 221.536 223.94C221.329 223.82 221.096 223.76 220.836 223.76C220.596 223.76 220.379 223.82 220.186 223.94C219.999 224.06 219.906 224.207 219.906 224.38C219.906 224.66 220.169 224.86 220.696 224.98L221.436 225.17C222.409 225.41 222.896 225.9 222.896 226.64ZM225.588 228.08C225.188 228.08 224.855 227.957 224.588 227.71C224.328 227.463 224.195 227.12 224.188 226.68V223.94H223.328V223.1H224.188V221.6H225.108V223.1H226.308V223.94H225.108V226.38C225.108 226.707 225.171 226.93 225.298 227.05C225.425 227.163 225.568 227.22 225.728 227.22C225.801 227.22 225.871 227.213 225.938 227.2C226.011 227.18 226.078 227.157 226.138 227.13L226.428 227.95C226.188 228.037 225.908 228.08 225.588 228.08ZM229.334 228.16C228.614 228.16 228.021 227.913 227.554 227.42C227.088 226.927 226.854 226.303 226.854 225.55C226.854 224.803 227.081 224.183 227.534 223.69C227.988 223.19 228.568 222.94 229.274 222.94C230.001 222.94 230.578 223.177 231.004 223.65C231.438 224.117 231.654 224.773 231.654 225.62L231.644 225.72H227.794C227.808 226.2 227.968 226.587 228.274 226.88C228.581 227.173 228.948 227.32 229.374 227.32C229.961 227.32 230.421 227.027 230.754 226.44L231.574 226.84C231.354 227.253 231.048 227.577 230.654 227.81C230.268 228.043 229.828 228.16 229.334 228.16ZM227.864 224.96H230.674C230.648 224.62 230.508 224.34 230.254 224.12C230.008 223.893 229.674 223.78 229.254 223.78C228.908 223.78 228.608 223.887 228.354 224.1C228.108 224.313 227.944 224.6 227.864 224.96ZM233.416 228H232.496V223.1H233.376V223.9H233.416C233.509 223.64 233.699 223.42 233.986 223.24C234.279 223.053 234.566 222.96 234.846 222.96C235.112 222.96 235.339 223 235.526 223.08L235.246 223.97C235.132 223.923 234.952 223.9 234.706 223.9C234.359 223.9 234.056 224.04 233.796 224.32C233.542 224.6 233.416 224.927 233.416 225.3V228ZM238.066 228.16C237.339 228.16 236.736 227.913 236.256 227.42C235.782 226.913 235.546 226.29 235.546 225.55C235.546 224.797 235.782 224.173 236.256 223.68C236.736 223.187 237.339 222.94 238.066 222.94C238.566 222.94 239.002 223.067 239.376 223.32C239.749 223.567 240.029 223.91 240.216 224.35L239.376 224.7C239.116 224.087 238.659 223.78 238.006 223.78C237.586 223.78 237.222 223.95 236.916 224.29C236.616 224.63 236.466 225.05 236.466 225.55C236.466 226.05 236.616 226.47 236.916 226.81C237.222 227.15 237.586 227.32 238.006 227.32C238.679 227.32 239.152 227.013 239.426 226.4L240.246 226.75C240.066 227.19 239.782 227.537 239.396 227.79C239.016 228.037 238.572 228.16 238.066 228.16ZM241.671 226.5C241.671 226.74 241.771 226.94 241.971 227.1C242.178 227.26 242.418 227.34 242.691 227.34C243.078 227.34 243.421 227.197 243.721 226.91C244.028 226.623 244.181 226.287 244.181 225.9C243.895 225.673 243.495 225.56 242.981 225.56C242.608 225.56 242.295 225.65 242.041 225.83C241.795 226.01 241.671 226.233 241.671 226.5ZM242.861 222.94C243.541 222.94 244.078 223.123 244.471 223.49C244.865 223.85 245.061 224.347 245.061 224.98V228H244.181V227.32H244.141C243.761 227.88 243.255 228.16 242.621 228.16C242.081 228.16 241.628 228 241.261 227.68C240.901 227.36 240.721 226.96 240.721 226.48C240.721 225.973 240.911 225.57 241.291 225.27C241.678 224.97 242.191 224.82 242.831 224.82C243.378 224.82 243.828 224.92 244.181 225.12V224.91C244.181 224.59 244.055 224.32 243.801 224.1C243.548 223.873 243.251 223.76 242.911 223.76C242.398 223.76 241.991 223.977 241.691 224.41L240.881 223.9C241.328 223.26 241.988 222.94 242.861 222.94ZM247.019 228H246.099V223.1H246.979V223.9H247.019C247.112 223.64 247.302 223.42 247.589 223.24C247.882 223.053 248.169 222.96 248.449 222.96C248.716 222.96 248.942 223 249.129 223.08L248.849 223.97C248.736 223.923 248.556 223.9 248.309 223.9C247.962 223.9 247.659 224.04 247.399 224.32C247.146 224.6 247.019 224.927 247.019 225.3V228ZM251.629 227.32C252.082 227.32 252.452 227.157 252.739 226.83C253.039 226.503 253.189 226.077 253.189 225.55C253.189 225.037 253.039 224.613 252.739 224.28C252.446 223.947 252.076 223.78 251.629 223.78C251.189 223.78 250.819 223.947 250.519 224.28C250.219 224.613 250.069 225.037 250.069 225.55C250.069 226.07 250.219 226.493 250.519 226.82C250.819 227.153 251.189 227.32 251.629 227.32ZM251.479 228.16C250.839 228.16 250.289 227.907 249.829 227.4C249.376 226.887 249.149 226.27 249.149 225.55C249.149 224.83 249.376 224.213 249.829 223.7C250.289 223.193 250.839 222.94 251.479 222.94C251.839 222.94 252.166 223.017 252.459 223.17C252.759 223.323 252.989 223.527 253.149 223.78H253.189L253.149 223.1V220.84H254.069V228H253.189V227.32H253.149C252.989 227.573 252.759 227.777 252.459 227.93C252.166 228.083 251.839 228.16 251.479 228.16Z" fill="#4F4F64"/>
<path d="M187.09 264.16C186.03 264.16 185.143 263.803 184.43 263.09C183.723 262.377 183.37 261.487 183.37 260.42C183.37 259.353 183.723 258.467 184.43 257.76C185.137 257.04 186.023 256.68 187.09 256.68C188.17 256.68 189.047 257.07 189.72 257.85L189.06 258.49C188.547 257.87 187.89 257.56 187.09 257.56C186.297 257.56 185.633 257.827 185.1 258.36C184.573 258.887 184.31 259.573 184.31 260.42C184.31 261.267 184.573 261.953 185.1 262.48C185.633 263.013 186.297 263.28 187.09 263.28C187.923 263.28 188.647 262.93 189.26 262.23L189.93 262.88C189.59 263.287 189.173 263.603 188.68 263.83C188.187 264.05 187.657 264.16 187.09 264.16ZM191.32 262.5C191.32 262.74 191.42 262.94 191.62 263.1C191.827 263.26 192.067 263.34 192.34 263.34C192.727 263.34 193.07 263.197 193.37 262.91C193.677 262.623 193.83 262.287 193.83 261.9C193.543 261.673 193.143 261.56 192.63 261.56C192.257 261.56 191.943 261.65 191.69 261.83C191.443 262.01 191.32 262.233 191.32 262.5ZM192.51 258.94C193.19 258.94 193.727 259.123 194.12 259.49C194.513 259.85 194.71 260.347 194.71 260.98V264H193.83V263.32H193.79C193.41 263.88 192.903 264.16 192.27 264.16C191.73 264.16 191.277 264 190.91 263.68C190.55 263.36 190.37 262.96 190.37 262.48C190.37 261.973 190.56 261.57 190.94 261.27C191.327 260.97 191.84 260.82 192.48 260.82C193.027 260.82 193.477 260.92 193.83 261.12V260.91C193.83 260.59 193.703 260.32 193.45 260.1C193.197 259.873 192.9 259.76 192.56 259.76C192.047 259.76 191.64 259.977 191.34 260.41L190.53 259.9C190.977 259.26 191.637 258.94 192.51 258.94ZM199.449 262.64C199.449 263.067 199.262 263.427 198.889 263.72C198.515 264.013 198.045 264.16 197.479 264.16C196.985 264.16 196.552 264.033 196.179 263.78C195.805 263.52 195.539 263.18 195.379 262.76L196.199 262.41C196.319 262.703 196.492 262.933 196.719 263.1C196.952 263.26 197.205 263.34 197.479 263.34C197.772 263.34 198.015 263.277 198.209 263.15C198.409 263.023 198.509 262.873 198.509 262.7C198.509 262.387 198.269 262.157 197.789 262.01L196.949 261.8C195.995 261.56 195.519 261.1 195.519 260.42C195.519 259.973 195.699 259.617 196.059 259.35C196.425 259.077 196.892 258.94 197.459 258.94C197.892 258.94 198.282 259.043 198.629 259.25C198.982 259.457 199.229 259.733 199.369 260.08L198.549 260.42C198.455 260.213 198.302 260.053 198.089 259.94C197.882 259.82 197.649 259.76 197.389 259.76C197.149 259.76 196.932 259.82 196.739 259.94C196.552 260.06 196.459 260.207 196.459 260.38C196.459 260.66 196.722 260.86 197.249 260.98L197.989 261.17C198.962 261.41 199.449 261.9 199.449 262.64ZM200.249 256.84H201.169V259.1L201.129 259.78H201.169C201.309 259.54 201.523 259.34 201.809 259.18C202.103 259.02 202.406 258.94 202.719 258.94C203.319 258.94 203.779 259.113 204.099 259.46C204.426 259.8 204.589 260.287 204.589 260.92V264H203.669V261.1C203.669 260.22 203.279 259.78 202.499 259.78C202.126 259.78 201.809 259.937 201.549 260.25C201.296 260.557 201.169 260.917 201.169 261.33V264H200.249V256.84ZM207.587 261.55C207.587 260.797 207.823 260.173 208.297 259.68C208.777 259.187 209.38 258.94 210.107 258.94C210.833 258.94 211.433 259.187 211.907 259.68C212.387 260.173 212.627 260.797 212.627 261.55C212.627 262.31 212.387 262.933 211.907 263.42C211.433 263.913 210.833 264.16 210.107 264.16C209.38 264.16 208.777 263.913 208.297 263.42C207.823 262.927 207.587 262.303 207.587 261.55ZM208.507 261.55C208.507 262.077 208.66 262.503 208.967 262.83C209.273 263.157 209.653 263.32 210.107 263.32C210.56 263.32 210.94 263.157 211.247 262.83C211.553 262.503 211.707 262.077 211.707 261.55C211.707 261.03 211.553 260.607 211.247 260.28C210.933 259.947 210.553 259.78 210.107 259.78C209.66 259.78 209.28 259.947 208.967 260.28C208.66 260.607 208.507 261.03 208.507 261.55ZM213.365 259.1H214.245V259.78H214.285C214.425 259.54 214.638 259.34 214.925 259.18C215.218 259.02 215.521 258.94 215.835 258.94C216.435 258.94 216.895 259.113 217.215 259.46C217.541 259.8 217.705 260.287 217.705 260.92V264H216.785V260.98C216.765 260.18 216.361 259.78 215.575 259.78C215.208 259.78 214.901 259.93 214.655 260.23C214.408 260.523 214.285 260.877 214.285 261.29V264H213.365V259.1ZM221.142 264V256.84H223.332C224.425 256.84 225.302 257.17 225.962 257.83C226.629 258.49 226.962 259.353 226.962 260.42C226.962 261.493 226.629 262.36 225.962 263.02C225.302 263.673 224.425 264 223.332 264H221.142ZM222.062 257.72V263.12H223.332C224.165 263.12 224.822 262.883 225.302 262.41C225.782 261.93 226.022 261.267 226.022 260.42C226.022 259.58 225.782 258.92 225.302 258.44C224.822 257.96 224.165 257.72 223.332 257.72H222.062ZM229.949 264.16C229.229 264.16 228.636 263.913 228.169 263.42C227.703 262.927 227.469 262.303 227.469 261.55C227.469 260.803 227.696 260.183 228.149 259.69C228.603 259.19 229.183 258.94 229.889 258.94C230.616 258.94 231.193 259.177 231.619 259.65C232.053 260.117 232.269 260.773 232.269 261.62L232.259 261.72H228.409C228.423 262.2 228.583 262.587 228.889 262.88C229.196 263.173 229.563 263.32 229.989 263.32C230.576 263.32 231.036 263.027 231.369 262.44L232.189 262.84C231.969 263.253 231.663 263.577 231.269 263.81C230.883 264.043 230.443 264.16 229.949 264.16ZM228.479 260.96H231.289C231.263 260.62 231.123 260.34 230.869 260.12C230.623 259.893 230.289 259.78 229.869 259.78C229.523 259.78 229.223 259.887 228.969 260.1C228.723 260.313 228.559 260.6 228.479 260.96ZM234.031 256.84V264H233.111V256.84H234.031ZM236.342 257.41C236.342 257.59 236.278 257.743 236.152 257.87C236.025 257.997 235.872 258.06 235.692 258.06C235.512 258.06 235.358 257.997 235.232 257.87C235.105 257.743 235.042 257.59 235.042 257.41C235.042 257.23 235.105 257.077 235.232 256.95C235.358 256.823 235.512 256.76 235.692 256.76C235.872 256.76 236.025 256.823 236.152 256.95C236.278 257.077 236.342 257.23 236.342 257.41ZM236.152 259.1V264H235.232V259.1H236.152ZM239.729 264H238.809L236.829 259.1H237.829L239.269 262.9H239.289L240.749 259.1H241.729L239.729 264ZM244.383 264.16C243.663 264.16 243.07 263.913 242.603 263.42C242.136 262.927 241.903 262.303 241.903 261.55C241.903 260.803 242.13 260.183 242.583 259.69C243.036 259.19 243.616 258.94 244.323 258.94C245.05 258.94 245.626 259.177 246.053 259.65C246.486 260.117 246.703 260.773 246.703 261.62L246.693 261.72H242.843C242.856 262.2 243.016 262.587 243.323 262.88C243.63 263.173 243.996 263.32 244.423 263.32C245.01 263.32 245.47 263.027 245.803 262.44L246.623 262.84C246.403 263.253 246.096 263.577 245.703 263.81C245.316 264.043 244.876 264.16 244.383 264.16ZM242.913 260.96H245.723C245.696 260.62 245.556 260.34 245.303 260.12C245.056 259.893 244.723 259.78 244.303 259.78C243.956 259.78 243.656 259.887 243.403 260.1C243.156 260.313 242.993 260.6 242.913 260.96ZM248.464 264H247.544V259.1H248.424V259.9H248.464C248.558 259.64 248.748 259.42 249.034 259.24C249.328 259.053 249.614 258.96 249.894 258.96C250.161 258.96 250.388 259 250.574 259.08L250.294 259.97C250.181 259.923 250.001 259.9 249.754 259.9C249.408 259.9 249.104 260.04 248.844 260.32C248.591 260.6 248.464 260.927 248.464 261.3V264ZM255.655 259.1L252.585 266.16H251.635L252.775 263.69L250.755 259.1H251.755L253.215 262.62H253.235L254.655 259.1H255.655Z" fill="#4F4F64"/>
<path d="M186.21 300.16C185.417 300.16 184.777 299.9 184.29 299.38C183.803 298.867 183.56 298.187 183.56 297.34V292.84H184.48V297.38C184.48 297.967 184.633 298.43 184.94 298.77C185.247 299.11 185.67 299.28 186.21 299.28C186.75 299.28 187.173 299.11 187.48 298.77C187.787 298.43 187.94 297.967 187.94 297.38V292.84H188.86V297.34C188.86 298.207 188.62 298.893 188.14 299.4C187.66 299.907 187.017 300.16 186.21 300.16ZM191.056 297.1V300H190.136V292.84H192.576C193.196 292.84 193.723 293.047 194.156 293.46C194.596 293.873 194.816 294.377 194.816 294.97C194.816 295.577 194.596 296.083 194.156 296.49C193.729 296.897 193.203 297.1 192.576 297.1H191.056ZM191.056 293.72V296.22H192.596C192.963 296.22 193.266 296.097 193.506 295.85C193.753 295.603 193.876 295.31 193.876 294.97C193.876 294.637 193.753 294.347 193.506 294.1C193.266 293.847 192.963 293.72 192.596 293.72H191.056ZM196.701 300H195.781V292.84H196.701V300ZM201.261 297.1V300H200.341V292.84H202.781C203.401 292.84 203.928 293.047 204.361 293.46C204.801 293.873 205.021 294.377 205.021 294.97C205.021 295.577 204.801 296.083 204.361 296.49C203.934 296.897 203.408 297.1 202.781 297.1H201.261ZM201.261 293.72V296.22H202.801C203.168 296.22 203.471 296.097 203.711 295.85C203.958 295.603 204.081 295.31 204.081 294.97C204.081 294.637 203.958 294.347 203.711 294.1C203.471 293.847 203.168 293.72 202.801 293.72H201.261ZM206.3 298.5C206.3 298.74 206.4 298.94 206.6 299.1C206.807 299.26 207.047 299.34 207.32 299.34C207.707 299.34 208.05 299.197 208.35 298.91C208.657 298.623 208.81 298.287 208.81 297.9C208.524 297.673 208.124 297.56 207.61 297.56C207.237 297.56 206.924 297.65 206.67 297.83C206.424 298.01 206.3 298.233 206.3 298.5ZM207.49 294.94C208.17 294.94 208.707 295.123 209.1 295.49C209.494 295.85 209.69 296.347 209.69 296.98V300H208.81V299.32H208.77C208.39 299.88 207.884 300.16 207.25 300.16C206.71 300.16 206.257 300 205.89 299.68C205.53 299.36 205.35 298.96 205.35 298.48C205.35 297.973 205.54 297.57 205.92 297.27C206.307 296.97 206.82 296.82 207.46 296.82C208.007 296.82 208.457 296.92 208.81 297.12V296.91C208.81 296.59 208.684 296.32 208.43 296.1C208.177 295.873 207.88 295.76 207.54 295.76C207.027 295.76 206.62 295.977 206.32 296.41L205.51 295.9C205.957 295.26 206.617 294.94 207.49 294.94ZM215.01 295.1L211.94 302.16H210.99L212.13 299.69L210.11 295.1H211.11L212.57 298.62H212.59L214.01 295.1H215.01ZM216.531 300H215.611V295.1H216.491V295.78H216.531C216.671 295.54 216.884 295.34 217.171 295.18C217.464 295.02 217.754 294.94 218.041 294.94C218.401 294.94 218.717 295.023 218.991 295.19C219.264 295.357 219.464 295.587 219.591 295.88C219.997 295.253 220.561 294.94 221.281 294.94C221.847 294.94 222.284 295.113 222.591 295.46C222.897 295.807 223.051 296.3 223.051 296.94V300H222.131V297.08C222.131 296.62 222.047 296.29 221.881 296.09C221.714 295.883 221.434 295.78 221.041 295.78C220.687 295.78 220.391 295.93 220.151 296.23C219.911 296.53 219.791 296.883 219.791 297.29V300H218.871V297.08C218.871 296.62 218.787 296.29 218.621 296.09C218.454 295.883 218.174 295.78 217.781 295.78C217.427 295.78 217.131 295.93 216.891 296.23C216.651 296.53 216.531 296.883 216.531 297.29V300ZM226.326 300.16C225.606 300.16 225.013 299.913 224.546 299.42C224.08 298.927 223.846 298.303 223.846 297.55C223.846 296.803 224.073 296.183 224.526 295.69C224.98 295.19 225.56 294.94 226.266 294.94C226.993 294.94 227.57 295.177 227.996 295.65C228.43 296.117 228.646 296.773 228.646 297.62L228.636 297.72H224.786C224.8 298.2 224.96 298.587 225.266 298.88C225.573 299.173 225.94 299.32 226.366 299.32C226.953 299.32 227.413 299.027 227.746 298.44L228.566 298.84C228.346 299.253 228.04 299.577 227.646 299.81C227.26 300.043 226.82 300.16 226.326 300.16ZM224.856 296.96H227.666C227.64 296.62 227.5 296.34 227.246 296.12C227 295.893 226.666 295.78 226.246 295.78C225.9 295.78 225.6 295.887 225.346 296.1C225.1 296.313 224.936 296.6 224.856 296.96ZM229.488 295.1H230.368V295.78H230.408C230.548 295.54 230.761 295.34 231.048 295.18C231.341 295.02 231.644 294.94 231.958 294.94C232.558 294.94 233.018 295.113 233.338 295.46C233.664 295.8 233.828 296.287 233.828 296.92V300H232.908V296.98C232.888 296.18 232.484 295.78 231.698 295.78C231.331 295.78 231.024 295.93 230.778 296.23C230.531 296.523 230.408 296.877 230.408 297.29V300H229.488V295.1ZM236.594 300.08C236.194 300.08 235.86 299.957 235.594 299.71C235.334 299.463 235.2 299.12 235.194 298.68V295.94H234.334V295.1H235.194V293.6H236.114V295.1H237.314V295.94H236.114V298.38C236.114 298.707 236.177 298.93 236.304 299.05C236.43 299.163 236.574 299.22 236.734 299.22C236.807 299.22 236.877 299.213 236.944 299.2C237.017 299.18 237.084 299.157 237.144 299.13L237.434 299.95C237.194 300.037 236.914 300.08 236.594 300.08Z" fill="#4F4F64"/>
<path d="M155.112 194.472C155.112 194.973 154.928 195.376 154.56 195.68C154.187 195.979 153.733 196.128 153.2 196.128C152.725 196.128 152.307 195.989 151.944 195.712C151.581 195.435 151.331 195.056 151.192 194.576L151.896 194.288C151.944 194.459 152.011 194.613 152.096 194.752C152.181 194.891 152.28 195.011 152.392 195.112C152.509 195.208 152.637 195.285 152.776 195.344C152.915 195.397 153.061 195.424 153.216 195.424C153.552 195.424 153.827 195.339 154.04 195.168C154.253 194.992 154.36 194.76 154.36 194.472C154.36 194.232 154.272 194.027 154.096 193.856C153.931 193.691 153.621 193.531 153.168 193.376C152.709 193.211 152.424 193.099 152.312 193.04C151.704 192.731 151.4 192.275 151.4 191.672C151.4 191.251 151.568 190.891 151.904 190.592C152.245 190.293 152.664 190.144 153.16 190.144C153.597 190.144 153.976 190.256 154.296 190.48C154.616 190.699 154.829 190.973 154.936 191.304L154.248 191.592C154.184 191.379 154.056 191.203 153.864 191.064C153.677 190.92 153.448 190.848 153.176 190.848C152.888 190.848 152.645 190.928 152.448 191.088C152.251 191.237 152.152 191.432 152.152 191.672C152.152 191.869 152.229 192.04 152.384 192.184C152.555 192.328 152.925 192.499 153.496 192.696C154.077 192.893 154.491 193.136 154.736 193.424C154.987 193.707 155.112 194.056 155.112 194.472ZM157.63 196.128C157.054 196.128 156.579 195.931 156.206 195.536C155.833 195.141 155.646 194.643 155.646 194.04C155.646 193.443 155.827 192.947 156.19 192.552C156.553 192.152 157.017 191.952 157.582 191.952C158.163 191.952 158.625 192.141 158.966 192.52C159.313 192.893 159.486 193.419 159.486 194.096L159.478 194.176H156.398C156.409 194.56 156.537 194.869 156.782 195.104C157.027 195.339 157.321 195.456 157.662 195.456C158.131 195.456 158.499 195.221 158.766 194.752L159.422 195.072C159.246 195.403 159.001 195.661 158.686 195.848C158.377 196.035 158.025 196.128 157.63 196.128ZM156.454 193.568H158.702C158.681 193.296 158.569 193.072 158.366 192.896C158.169 192.715 157.902 192.624 157.566 192.624C157.289 192.624 157.049 192.709 156.846 192.88C156.649 193.051 156.518 193.28 156.454 193.568ZM160.895 190.272V196H160.159V190.272H160.895ZM163.513 196.128C162.937 196.128 162.462 195.931 162.089 195.536C161.715 195.141 161.529 194.643 161.529 194.04C161.529 193.443 161.71 192.947 162.073 192.552C162.435 192.152 162.899 191.952 163.465 191.952C164.046 191.952 164.507 192.141 164.849 192.52C165.195 192.893 165.369 193.419 165.369 194.096L165.361 194.176H162.281C162.291 194.56 162.419 194.869 162.665 195.104C162.91 195.339 163.203 195.456 163.545 195.456C164.014 195.456 164.382 195.221 164.649 194.752L165.305 195.072C165.129 195.403 164.883 195.661 164.569 195.848C164.259 196.035 163.907 196.128 163.513 196.128ZM162.337 193.568H164.585C164.563 193.296 164.451 193.072 164.249 192.896C164.051 192.715 163.785 192.624 163.449 192.624C163.171 192.624 162.931 192.709 162.729 192.88C162.531 193.051 162.401 193.28 162.337 193.568ZM167.873 196.128C167.291 196.128 166.809 195.931 166.425 195.536C166.046 195.131 165.857 194.632 165.857 194.04C165.857 193.437 166.046 192.939 166.425 192.544C166.809 192.149 167.291 191.952 167.873 191.952C168.273 191.952 168.622 192.053 168.921 192.256C169.219 192.453 169.443 192.728 169.593 193.08L168.921 193.36C168.713 192.869 168.347 192.624 167.825 192.624C167.489 192.624 167.198 192.76 166.953 193.032C166.713 193.304 166.593 193.64 166.593 194.04C166.593 194.44 166.713 194.776 166.953 195.048C167.198 195.32 167.489 195.456 167.825 195.456C168.363 195.456 168.742 195.211 168.961 194.72L169.617 195C169.473 195.352 169.246 195.629 168.937 195.832C168.633 196.029 168.278 196.128 167.873 196.128ZM171.773 196.064C171.453 196.064 171.187 195.965 170.973 195.768C170.765 195.571 170.659 195.296 170.653 194.944V192.752H169.965V192.08H170.653V190.88H171.389V192.08H172.349V192.752H171.389V194.704C171.389 194.965 171.44 195.144 171.541 195.24C171.643 195.331 171.757 195.376 171.885 195.376C171.944 195.376 172 195.371 172.053 195.36C172.112 195.344 172.165 195.325 172.213 195.304L172.445 195.96C172.253 196.029 172.029 196.064 171.773 196.064ZM176.727 195.456C177.079 195.456 177.375 195.323 177.615 195.056C177.855 194.795 177.975 194.456 177.975 194.04C177.975 193.629 177.855 193.291 177.615 193.024C177.375 192.757 177.079 192.624 176.727 192.624C176.37 192.624 176.071 192.757 175.831 193.024C175.597 193.291 175.479 193.629 175.479 194.04C175.479 194.456 175.597 194.797 175.831 195.064C176.071 195.325 176.37 195.456 176.727 195.456ZM176.847 196.128C176.559 196.128 176.295 196.067 176.055 195.944C175.821 195.821 175.639 195.659 175.511 195.456H175.479L175.511 196V197.728H174.775V192.08H175.479V192.624H175.511C175.639 192.421 175.821 192.259 176.055 192.136C176.295 192.013 176.559 191.952 176.847 191.952C177.365 191.952 177.802 192.155 178.159 192.56C178.527 192.971 178.711 193.464 178.711 194.04C178.711 194.621 178.527 195.115 178.159 195.52C177.802 195.925 177.365 196.128 176.847 196.128ZM179.922 194.8C179.922 194.992 180.002 195.152 180.162 195.28C180.327 195.408 180.519 195.472 180.738 195.472C181.047 195.472 181.322 195.357 181.562 195.128C181.807 194.899 181.93 194.629 181.93 194.32C181.7 194.139 181.38 194.048 180.97 194.048C180.671 194.048 180.42 194.12 180.218 194.264C180.02 194.408 179.922 194.587 179.922 194.8ZM180.874 191.952C181.418 191.952 181.847 192.099 182.162 192.392C182.476 192.68 182.634 193.077 182.634 193.584V196H181.93V195.456H181.898C181.594 195.904 181.188 196.128 180.682 196.128C180.25 196.128 179.887 196 179.594 195.744C179.306 195.488 179.162 195.168 179.162 194.784C179.162 194.379 179.314 194.056 179.618 193.816C179.927 193.576 180.338 193.456 180.85 193.456C181.287 193.456 181.647 193.536 181.93 193.696V193.528C181.93 193.272 181.828 193.056 181.626 192.88C181.423 192.699 181.186 192.608 180.914 192.608C180.503 192.608 180.178 192.781 179.938 193.128L179.29 192.72C179.647 192.208 180.175 191.952 180.874 191.952ZM186.89 192.08L184.434 197.728H183.674L184.586 195.752L182.97 192.08H183.77L184.938 194.896H184.954L186.09 192.08H186.89ZM188.106 196H187.37V192.08H188.074V192.624H188.106C188.218 192.432 188.389 192.272 188.618 192.144C188.853 192.016 189.085 191.952 189.314 191.952C189.602 191.952 189.855 192.019 190.074 192.152C190.293 192.285 190.453 192.469 190.554 192.704C190.879 192.203 191.33 191.952 191.906 191.952C192.359 191.952 192.709 192.091 192.954 192.368C193.199 192.645 193.322 193.04 193.322 193.552V196H192.586V193.664C192.586 193.296 192.519 193.032 192.386 192.872C192.253 192.707 192.029 192.624 191.714 192.624C191.431 192.624 191.194 192.744 191.002 192.984C190.81 193.224 190.714 193.507 190.714 193.832V196H189.978V193.664C189.978 193.296 189.911 193.032 189.778 192.872C189.645 192.707 189.421 192.624 189.106 192.624C188.823 192.624 188.586 192.744 188.394 192.984C188.202 193.224 188.106 193.507 188.106 193.832V196ZM195.942 196.128C195.366 196.128 194.892 195.931 194.518 195.536C194.145 195.141 193.958 194.643 193.958 194.04C193.958 193.443 194.14 192.947 194.502 192.552C194.865 192.152 195.329 191.952 195.894 191.952C196.476 191.952 196.937 192.141 197.278 192.52C197.625 192.893 197.798 193.419 197.798 194.096L197.79 194.176H194.71C194.721 194.56 194.849 194.869 195.094 195.104C195.34 195.339 195.633 195.456 195.974 195.456C196.444 195.456 196.812 195.221 197.078 194.752L197.734 195.072C197.558 195.403 197.313 195.661 196.998 195.848C196.689 196.035 196.337 196.128 195.942 196.128ZM194.766 193.568H197.014C196.993 193.296 196.881 193.072 196.678 192.896C196.481 192.715 196.214 192.624 195.878 192.624C195.601 192.624 195.361 192.709 195.158 192.88C194.961 193.051 194.83 193.28 194.766 193.568ZM198.471 192.08H199.175V192.624H199.207C199.319 192.432 199.49 192.272 199.719 192.144C199.954 192.016 200.197 191.952 200.447 191.952C200.927 191.952 201.295 192.091 201.551 192.368C201.813 192.64 201.943 193.029 201.943 193.536V196H201.207V193.584C201.191 192.944 200.869 192.624 200.239 192.624C199.946 192.624 199.701 192.744 199.503 192.984C199.306 193.219 199.207 193.501 199.207 193.832V196H198.471V192.08ZM204.156 196.064C203.836 196.064 203.57 195.965 203.356 195.768C203.148 195.571 203.042 195.296 203.036 194.944V192.752H202.348V192.08H203.036V190.88H203.772V192.08H204.732V192.752H203.772V194.704C203.772 194.965 203.823 195.144 203.924 195.24C204.026 195.331 204.14 195.376 204.268 195.376C204.327 195.376 204.383 195.371 204.436 195.36C204.495 195.344 204.548 195.325 204.596 195.304L204.828 195.96C204.636 196.029 204.412 196.064 204.156 196.064ZM212.742 192.08L211.478 196H210.726L209.75 192.992L208.782 196H208.038L206.774 192.08H207.542L208.414 195.04H208.422L209.39 192.08H210.15L211.118 195.04H211.126L211.99 192.08H212.742ZM213.221 190.272H213.957V192.08L213.925 192.624H213.957C214.069 192.432 214.24 192.272 214.469 192.144C214.704 192.016 214.947 191.952 215.197 191.952C215.677 191.952 216.045 192.091 216.301 192.368C216.563 192.64 216.693 193.029 216.693 193.536V196H215.957V193.68C215.957 192.976 215.645 192.624 215.021 192.624C214.723 192.624 214.469 192.749 214.261 193C214.059 193.245 213.957 193.533 213.957 193.864V196H213.221V190.272ZM218.509 190.728C218.509 190.872 218.459 190.995 218.357 191.096C218.256 191.197 218.133 191.248 217.989 191.248C217.845 191.248 217.723 191.197 217.621 191.096C217.52 190.995 217.469 190.872 217.469 190.728C217.469 190.584 217.52 190.461 217.621 190.36C217.723 190.259 217.845 190.208 217.989 190.208C218.133 190.208 218.256 190.259 218.357 190.36C218.459 190.461 218.509 190.584 218.509 190.728ZM218.357 192.08V196H217.621V192.08H218.357ZM221.068 196.128C220.487 196.128 220.004 195.931 219.62 195.536C219.241 195.131 219.052 194.632 219.052 194.04C219.052 193.437 219.241 192.939 219.62 192.544C220.004 192.149 220.487 191.952 221.068 191.952C221.468 191.952 221.817 192.053 222.116 192.256C222.415 192.453 222.639 192.728 222.788 193.08L222.116 193.36C221.908 192.869 221.543 192.624 221.02 192.624C220.684 192.624 220.393 192.76 220.148 193.032C219.908 193.304 219.788 193.64 219.788 194.04C219.788 194.44 219.908 194.776 220.148 195.048C220.393 195.32 220.684 195.456 221.02 195.456C221.559 195.456 221.937 195.211 222.156 194.72L222.812 195C222.668 195.352 222.441 195.629 222.132 195.832C221.828 196.029 221.473 196.128 221.068 196.128ZM223.456 190.272H224.192V192.08L224.16 192.624H224.192C224.304 192.432 224.474 192.272 224.704 192.144C224.938 192.016 225.181 191.952 225.432 191.952C225.912 191.952 226.28 192.091 226.536 192.368C226.797 192.64 226.928 193.029 226.928 193.536V196H226.192V193.68C226.192 192.976 225.88 192.624 225.256 192.624C224.957 192.624 224.704 192.749 224.496 193C224.293 193.245 224.192 193.533 224.192 193.864V196H223.456V190.272ZM233.054 192.08L230.598 197.728H229.838L230.75 195.752L229.134 192.08H229.934L231.102 194.896H231.118L232.254 192.08H233.054ZM233.154 194.04C233.154 193.437 233.343 192.939 233.722 192.544C234.106 192.149 234.588 191.952 235.17 191.952C235.751 191.952 236.231 192.149 236.61 192.544C236.994 192.939 237.186 193.437 237.186 194.04C237.186 194.648 236.994 195.147 236.61 195.536C236.231 195.931 235.751 196.128 235.17 196.128C234.588 196.128 234.106 195.931 233.722 195.536C233.343 195.141 233.154 194.643 233.154 194.04ZM233.89 194.04C233.89 194.461 234.012 194.803 234.258 195.064C234.503 195.325 234.807 195.456 235.17 195.456C235.532 195.456 235.836 195.325 236.082 195.064C236.327 194.803 236.45 194.461 236.45 194.04C236.45 193.624 236.327 193.285 236.082 193.024C235.831 192.757 235.527 192.624 235.17 192.624C234.812 192.624 234.508 192.757 234.258 193.024C234.012 193.285 233.89 193.624 233.89 194.04ZM241.255 196H240.551V195.456H240.519C240.407 195.648 240.234 195.808 239.999 195.936C239.77 196.064 239.53 196.128 239.279 196.128C238.799 196.128 238.429 195.992 238.167 195.72C237.911 195.443 237.783 195.051 237.783 194.544V192.08H238.519V194.496C238.535 195.136 238.858 195.456 239.487 195.456C239.781 195.456 240.026 195.339 240.223 195.104C240.421 194.864 240.519 194.579 240.519 194.248V192.08H241.255V196ZM244.445 194.8C244.445 194.992 244.525 195.152 244.685 195.28C244.85 195.408 245.042 195.472 245.261 195.472C245.57 195.472 245.845 195.357 246.085 195.128C246.33 194.899 246.453 194.629 246.453 194.32C246.224 194.139 245.904 194.048 245.493 194.048C245.194 194.048 244.944 194.12 244.741 194.264C244.544 194.408 244.445 194.587 244.445 194.8ZM245.397 191.952C245.941 191.952 246.37 192.099 246.685 192.392C247 192.68 247.157 193.077 247.157 193.584V196H246.453V195.456H246.421C246.117 195.904 245.712 196.128 245.205 196.128C244.773 196.128 244.41 196 244.117 195.744C243.829 195.488 243.685 195.168 243.685 194.784C243.685 194.379 243.837 194.056 244.141 193.816C244.45 193.576 244.861 193.456 245.373 193.456C245.81 193.456 246.17 193.536 246.453 193.696V193.528C246.453 193.272 246.352 193.056 246.149 192.88C245.946 192.699 245.709 192.608 245.437 192.608C245.026 192.608 244.701 192.781 244.461 193.128L243.813 192.72C244.17 192.208 244.698 191.952 245.397 191.952ZM249.74 196.128C249.159 196.128 248.676 195.931 248.292 195.536C247.913 195.131 247.724 194.632 247.724 194.04C247.724 193.437 247.913 192.939 248.292 192.544C248.676 192.149 249.159 191.952 249.74 191.952C250.14 191.952 250.489 192.053 250.788 192.256C251.087 192.453 251.311 192.728 251.46 193.08L250.788 193.36C250.58 192.869 250.215 192.624 249.692 192.624C249.356 192.624 249.065 192.76 248.82 193.032C248.58 193.304 248.46 193.64 248.46 194.04C248.46 194.44 248.58 194.776 248.82 195.048C249.065 195.32 249.356 195.456 249.692 195.456C250.231 195.456 250.609 195.211 250.828 194.72L251.484 195C251.34 195.352 251.113 195.629 250.804 195.832C250.5 196.029 250.145 196.128 249.74 196.128ZM253.881 196.128C253.299 196.128 252.817 195.931 252.433 195.536C252.054 195.131 251.865 194.632 251.865 194.04C251.865 193.437 252.054 192.939 252.433 192.544C252.817 192.149 253.299 191.952 253.881 191.952C254.281 191.952 254.63 192.053 254.929 192.256C255.227 192.453 255.451 192.728 255.601 193.08L254.929 193.36C254.721 192.869 254.355 192.624 253.833 192.624C253.497 192.624 253.206 192.76 252.961 193.032C252.721 193.304 252.601 193.64 252.601 194.04C252.601 194.44 252.721 194.776 252.961 195.048C253.206 195.32 253.497 195.456 253.833 195.456C254.371 195.456 254.75 195.211 254.969 194.72L255.625 195C255.481 195.352 255.254 195.629 254.945 195.832C254.641 196.029 254.286 196.128 253.881 196.128ZM257.989 196.128C257.413 196.128 256.939 195.931 256.565 195.536C256.192 195.141 256.005 194.643 256.005 194.04C256.005 193.443 256.187 192.947 256.549 192.552C256.912 192.152 257.376 191.952 257.941 191.952C258.523 191.952 258.984 192.141 259.325 192.52C259.672 192.893 259.845 193.419 259.845 194.096L259.837 194.176H256.757C256.768 194.56 256.896 194.869 257.141 195.104C257.387 195.339 257.68 195.456 258.021 195.456C258.491 195.456 258.859 195.221 259.125 194.752L259.781 195.072C259.605 195.403 259.36 195.661 259.045 195.848C258.736 196.035 258.384 196.128 257.989 196.128ZM256.813 193.568H259.061C259.04 193.296 258.928 193.072 258.725 192.896C258.528 192.715 258.261 192.624 257.925 192.624C257.648 192.624 257.408 192.709 257.205 192.88C257.008 193.051 256.877 193.28 256.813 193.568ZM262.438 195.456C262.79 195.456 263.086 195.323 263.326 195.056C263.566 194.795 263.686 194.456 263.686 194.04C263.686 193.629 263.566 193.291 263.326 193.024C263.086 192.757 262.79 192.624 262.438 192.624C262.081 192.624 261.782 192.757 261.542 193.024C261.308 193.291 261.19 193.629 261.19 194.04C261.19 194.456 261.308 194.797 261.542 195.064C261.782 195.325 262.081 195.456 262.438 195.456ZM262.558 196.128C262.27 196.128 262.006 196.067 261.766 195.944C261.532 195.821 261.35 195.659 261.222 195.456H261.19L261.222 196V197.728H260.486V192.08H261.19V192.624H261.222C261.35 192.421 261.532 192.259 261.766 192.136C262.006 192.013 262.27 191.952 262.558 191.952C263.076 191.952 263.513 192.155 263.87 192.56C264.238 192.971 264.422 193.464 264.422 194.04C264.422 194.621 264.238 195.115 263.87 195.52C263.513 195.925 263.076 196.128 262.558 196.128ZM266.492 196.064C266.172 196.064 265.906 195.965 265.692 195.768C265.484 195.571 265.378 195.296 265.372 194.944V192.752H264.684V192.08H265.372V190.88H266.108V192.08H267.068V192.752H266.108V194.704C266.108 194.965 266.159 195.144 266.26 195.24C266.362 195.331 266.476 195.376 266.604 195.376C266.663 195.376 266.719 195.371 266.772 195.36C266.831 195.344 266.884 195.325 266.932 195.304L267.164 195.96C266.972 196.029 266.748 196.064 266.492 196.064Z" fill="#85849A"/>
<g filter="url(#filter2_d_737_1186)">
<rect x="151" y="213" width="22" height="22" rx="5" fill="#32BEA6"/>
</g>
<g filter="url(#filter3_d_737_1186)">
<rect x="151" y="249" width="22" height="22" rx="5" fill="#32BEA6"/>
</g>
<rect opacity="0.1" x="151.5" y="285.5" width="21" height="21" rx="4.5" stroke="black"/>
<path d="M157 224.5L160.333 228L167 221" stroke="white" stroke-width="2"/>
<path d="M157 260.5L160.333 264L167 257" stroke="white" stroke-width="2"/>
<defs>
<filter id="filter0_d_737_1186" x="0" y="0" width="356" height="160" filterUnits="userSpaceOnUse" color-interpolation-filters="sRGB">
<feFlood flood-opacity="0" result="BackgroundImageFix"/>
<feColorMatrix in="SourceAlpha" type="matrix" values="0 0 0 0 0 0 0 0 0 0 0 0 0 0 0 0 0 0 127 0" result="hardAlpha"/>
<feOffset dx="2" dy="2"/>
<feGaussianBlur stdDeviation="21.5"/>
<feComposite in2="hardAlpha" operator="out"/>
<feColorMatrix type="matrix" values="0 0 0 0 0.0759114 0 0 0 0 0.0658854 0 0 0 0 0.1375 0 0 0 0.12 0"/>
<feBlend mode="normal" in2="BackgroundImageFix" result="effect1_dropShadow_737_1186"/>
<feBlend mode="normal" in="SourceGraphic" in2="effect1_dropShadow_737_1186" result="shape"/>
</filter>
<filter id="filter1_d_737_1186" x="86" y="104" width="272" height="272" filterUnits="userSpaceOnUse" color-interpolation-filters="sRGB">
<feFlood flood-opacity="0" result="BackgroundImageFix"/>
<feColorMatrix in="SourceAlpha" type="matrix" values="0 0 0 0 0 0 0 0 0 0 0 0 0 0 0 0 0 0 127 0" result="hardAlpha"/>
<feOffset dx="2" dy="2"/>
<feGaussianBlur stdDeviation="21.5"/>
<feComposite in2="hardAlpha" operator="out"/>
<feColorMatrix type="matrix" values="0 0 0 0 0.0759114 0 0 0 0 0.0658854 0 0 0 0 0.1375 0 0 0 0.12 0"/>
<feBlend mode="normal" in2="BackgroundImageFix" result="effect1_dropShadow_737_1186"/>
<feBlend mode="normal" in="SourceGraphic" in2="effect1_dropShadow_737_1186" result="shape"/>
</filter>
<filter id="filter2_d_737_1186" x="124" y="190" width="76" height="76" filterUnits="userSpaceOnUse" color-interpolation-filters="sRGB">
<feFlood flood-opacity="0" result="BackgroundImageFix"/>
<feColorMatrix in="SourceAlpha" type="matrix" values="0 0 0 0 0 0 0 0 0 0 0 0 0 0 0 0 0 0 127 0" result="hardAlpha"/>
<feOffset dy="4"/>
<feGaussianBlur stdDeviation="13.5"/>
<feComposite in2="hardAlpha" operator="out"/>
<feColorMatrix type="matrix" values="0 0 0 0 0.196078 0 0 0 0 0.745098 0 0 0 0 0.65098 0 0 0 0.17 0"/>
<feBlend mode="normal" in2="BackgroundImageFix" result="effect1_dropShadow_737_1186"/>
<feBlend mode="normal" in="SourceGraphic" in2="effect1_dropShadow_737_1186" result="shape"/>
</filter>
<filter id="filter3_d_737_1186" x="124" y="226" width="76" height="76" filterUnits="userSpaceOnUse" color-interpolation-filters="sRGB">
<feFlood flood-opacity="0" result="BackgroundImageFix"/>
<feColorMatrix in="SourceAlpha" type="matrix" values="0 0 0 0 0 0 0 0 0 0 0 0 0 0 0 0 0 0 127 0" result="hardAlpha"/>
<feOffset dy="4"/>
<feGaussianBlur stdDeviation="13.5"/>
<feComposite in2="hardAlpha" operator="out"/>
<feColorMatrix type="matrix" values="0 0 0 0 0.196078 0 0 0 0 0.745098 0 0 0 0 0.65098 0 0 0 0.17 0"/>
<feBlend mode="normal" in2="BackgroundImageFix" result="effect1_dropShadow_737_1186"/>
<feBlend mode="normal" in="SourceGraphic" in2="effect1_dropShadow_737_1186" result="shape"/>
</filter>
<radialGradient id="paint0_radial_737_1186" cx="0" cy="0" r="1" gradientUnits="userSpaceOnUse" gradientTransform="translate(171.035 28.6683) rotate(43.5835) scale(254.018)">
<stop stop-color="#584BEE"/>
<stop offset="0.482292" stop-color="#E7BEF2"/>
<stop offset="1" stop-color="white"/>
</radialGradient>
</defs>
</svg>
