<svg width="24" height="24" viewBox="0 0 24 24" fill="none" xmlns="http://www.w3.org/2000/svg">
<path opacity="0.4" d="M21.2593 8.12023V13.7591L19.75 12.4628C19.0278 11.8425 17.8611 11.8425 17.1389 12.4628L13.287 15.7684C12.5648 16.3887 11.3982 16.3887 10.6759 15.7684L10.3611 15.5091C9.70371 14.935 8.65741 14.8795 7.91667 15.3795L3.36112 18.435L3.25926 18.5091C2.91667 17.7684 2.74075 16.8888 2.74075 15.8795V8.12023C2.74075 4.74986 4.75 2.7406 8.12038 2.7406H15.8796C19.25 2.7406 21.2593 4.74986 21.2593 8.12023Z" fill="#FFADBD"/>
<path d="M9.22222 10.5C10.4393 10.5 11.4259 9.51337 11.4259 8.29629C11.4259 7.07922 10.4393 6.09259 9.22222 6.09259C8.00515 6.09259 7.01852 7.07922 7.01852 8.29629C7.01852 9.51337 8.00515 10.5 9.22222 10.5Z" fill="#E33B73"/>
<path d="M21.2592 13.7591V15.8795C21.2592 19.2499 19.25 21.2591 15.8796 21.2591H8.12035C5.75924 21.2591 4.05554 20.2684 3.25924 18.5091L3.36109 18.4351L7.91665 15.3795C8.65739 14.8795 9.70368 14.9351 10.3611 15.5091L10.6759 15.7684C11.3981 16.3888 12.5648 16.3888 13.287 15.7684L17.1389 12.4628C17.8611 11.8425 19.0278 11.8425 19.75 12.4628L21.2592 13.7591Z" fill="#E33B73"/>
</svg>
