<svg width="24" height="24" viewBox="0 0 24 24" fill="none" xmlns="http://www.w3.org/2000/svg">
<path d="M17.537 10.8794V14.5831C17.537 14.8239 17.5278 15.0554 17.5 15.2776C17.287 17.7776 15.8148 19.0183 13.1019 19.0183H12.7315C12.5 19.0183 12.2778 19.1294 12.1389 19.3146L11.0278 20.7961C10.537 21.4535 9.74074 21.4535 9.25 20.7961L8.13887 19.3146C8.0185 19.1572 7.75 19.0183 7.5463 19.0183H7.17593C4.22223 19.0183 2.74074 18.2868 2.74074 14.5831V10.8794C2.74074 8.16647 3.99075 6.69425 6.48149 6.48129C6.70371 6.45351 6.93519 6.44424 7.17593 6.44424H13.1019C16.0556 6.44424 17.537 7.92573 17.537 10.8794Z" fill="#ACE495"/>
<path d="M10.1389 13.8517C9.62036 13.8517 9.21295 13.435 9.21295 12.9257C9.21295 12.4165 9.62962 11.9998 10.1389 11.9998C10.6481 11.9998 11.0648 12.4165 11.0648 12.9257C11.0648 13.435 10.6574 13.8517 10.1389 13.8517Z" fill="#459A1E"/>
<path d="M13.3796 13.8517C12.8611 13.8517 12.4537 13.435 12.4537 12.9257C12.4537 12.4165 12.8704 11.9998 13.3796 11.9998C13.8889 11.9998 14.3055 12.4165 14.3055 12.9257C14.3055 13.435 13.8889 13.8517 13.3796 13.8517Z" fill="#459A1E"/>
<path d="M6.9074 13.8517C6.38888 13.8517 5.98148 13.435 5.98148 12.9257C5.98148 12.4165 6.39814 11.9998 6.9074 11.9998C7.41666 11.9998 7.83333 12.4165 7.83333 12.9257C7.83333 13.435 7.41666 13.8517 6.9074 13.8517Z" fill="#459A1E"/>
<path d="M21.2407 7.17573V10.8794C21.2407 13.6017 19.9907 15.0646 17.5 15.2776C17.5278 15.0554 17.537 14.8239 17.537 14.5831V10.8794C17.537 7.92573 16.0556 6.44424 13.1018 6.44424H7.17593C6.93519 6.44424 6.70371 6.45351 6.48148 6.48129C6.69445 3.99055 8.16667 2.74054 10.8796 2.74054H16.8056C19.7593 2.74054 21.2407 4.22203 21.2407 7.17573Z" fill="#459A1E"/>
</svg>
