<svg width="1440" height="1598" viewBox="0 0 1440 1598" fill="none" xmlns="http://www.w3.org/2000/svg">
<g filter="url(#filter0_d_704_1452)">
<g filter="url(#filter1_b_704_1452)">
<path d="M0 60C0 26.8629 26.8629 0 60 0H1380C1413.14 0 1440 26.8629 1440 60V1590H0V60Z" fill="#EFEDF7"/>
</g>
<g filter="url(#filter2_dd_704_1452)">
<circle cx="38" cy="444" r="90" fill="#EFEDF6"/>
<circle cx="38" cy="444" r="89.25" stroke="url(#paint0_linear_704_1452)" stroke-opacity="0.4" stroke-width="1.5"/>
</g>
<g filter="url(#filter3_dd_704_1452)">
<circle cx="1397" cy="1015" r="90" fill="#EFEDF6"/>
<circle cx="1397" cy="1015" r="89.25" stroke="url(#paint1_linear_704_1452)" stroke-opacity="0.4" stroke-width="1.5"/>
</g>
<g filter="url(#filter4_d_704_1452)">
<circle cx="1269" cy="152" r="38" fill="#4B3FF5"/>
</g>
<g filter="url(#filter5_d_704_1452)">
<circle cx="140" cy="1154" r="38" fill="#4B3FF5"/>
</g>
<g opacity="0.8">
<path fill-rule="evenodd" clip-rule="evenodd" d="M54.1316 403.443C63.0157 402.796 69.5463 405.502 74.0766 409.738C78.3716 413.857 82.3723 418.975 82.9607 426.977C83.549 435.92 80.8426 442.274 76.6065 446.922C72.3704 451.511 67.2518 455.041 59.3091 455.688C50.5427 456.394 44.0121 453.511 39.4818 449.452C34.775 445.216 31.2449 440.156 30.5977 432.213C29.8329 423.329 32.6569 416.74 36.7165 412.327C38.6581 410.15 41.0115 408.032 43.8944 406.444C46.7185 404.855 50.1897 403.737 54.1316 403.443ZM50.1897 409.974C46.3066 411.386 43.1295 412.974 41.0115 415.975C39.8348 417.563 38.4816 418.858 37.6579 420.27C36.6577 422.035 35.5987 424.682 34.775 427.095C33.5983 430.566 33.6571 434.743 34.2455 437.92C34.422 438.862 34.6573 440.038 34.8927 440.568C36.0694 443.51 38.4816 446.157 40.8938 448.157C43.4825 450.452 46.4243 452.041 49.6602 452.982C57.3675 455.335 65.4867 453.453 71.2526 449.275C76.7242 445.333 80.5485 439.038 81.1368 431.801C81.431 427.448 80.5484 423.035 79.3129 420.034C77.489 415.681 74.312 411.503 70.0759 409.562C69.4875 409.268 68.8403 409.15 68.1931 408.915C67.6048 408.679 67.0753 408.326 66.2516 408.15C64.1924 407.797 60.5446 408.032 58.1912 408.15C54.6611 408.326 52.9549 408.974 50.1897 409.974Z" fill="#584C4C"/>
<path d="M55.8379 418.093C57.1323 417.975 59.4269 419.917 57.6618 421.505C55.3084 423.623 52.7197 418.446 55.8379 418.093Z" fill="#584C4C"/>
<path d="M76.3121 421.211C78.2537 420.681 78.4302 425.447 78.5478 427.212C78.6655 429.212 78.7243 432.095 78.4302 433.86C77.7241 438.567 74.9589 443.274 72.0172 445.921C70.6051 447.216 67.9576 448.51 66.2514 449.275C65.663 449.51 59.9561 452.276 59.7207 450.099C59.5442 448.628 61.1327 448.804 62.4859 448.392C65.1923 447.569 68.0164 446.392 70.0756 444.627C74.2529 441.215 76.9005 435.919 76.4298 427.859C76.371 427.153 76.1944 425.153 75.9591 423.976C75.6649 422.387 74.9001 421.564 76.3121 421.211Z" fill="#584C4C"/>
<path d="M54.2493 436.626C56.132 436.802 57.0734 434.273 58.6619 434.508C59.4268 434.567 59.6033 435.037 59.6033 435.449C59.6621 436.449 57.9559 437.273 57.6617 437.45C56.3673 438.332 55.9555 438.626 55.1318 438.744C52.4842 439.156 50.8369 437.744 51.0722 435.037C51.131 433.625 51.6606 431.684 52.1312 429.978C52.5431 428.389 53.6609 426.271 53.4844 425.388C53.4256 424.8 52.5431 424.506 52.5431 423.859C52.4842 421.505 54.8376 423.741 56.1908 423.329C56.5439 423.682 57.1322 424.094 57.1322 424.624C57.191 425.153 56.7204 425.506 56.485 426.036C55.426 428.86 54.4258 433.272 54.2493 436.626Z" fill="#584C4C"/>
<path d="M19.5958 456.217C19.5566 456.335 19.5958 456.393 19.7135 456.393C19.3605 457.57 18.0661 457.982 17.2425 458.688C16.4188 459.335 15.6539 460.335 14.5361 460.571C14.4968 460.414 14.3988 460.316 14.2419 460.277C14.4184 459.1 15.5951 458.629 16.3599 458.041C17.1836 457.335 17.9485 456.629 18.831 456.099C19.1252 456.099 19.4193 456.04 19.5958 456.217Z" fill="#584C4C"/>
<path d="M12.9473 462.632C13.2415 463.573 12.1237 463.691 11.8883 463.161C11.7707 462.396 12.5355 462.279 12.9473 462.632Z" fill="#584C4C"/>
<path d="M9.41764 465.22C8.77045 466.632 7.29959 467.515 6.18172 468.515C4.00484 470.574 1.59261 472.516 -0.525441 474.751C-1.6433 475.869 -2.9965 476.575 -4.05553 477.634C-4.58504 478.105 -4.70271 478.987 -5.7029 478.87C-6.11474 477.163 -3.82019 476.046 -2.70233 475.163C-1.40796 474.163 -0.290102 472.751 0.945428 471.751C3.65183 469.515 6.12289 466.985 8.47628 465.102C8.71162 464.867 9.06463 464.808 9.41764 465.22Z" fill="#584C4C"/>
<path fill-rule="evenodd" clip-rule="evenodd" d="M37.0107 455.865C34.8927 457.983 32.7746 460.042 29.774 461.219C30.0682 464.337 28.4797 465.867 26.5381 468.102C25.3614 469.456 24.3612 470.809 23.2434 471.809C18.4778 476.222 12.712 480.928 7.82867 484.87C6.59315 485.871 5.18111 486.988 3.65141 487.871C2.1217 488.753 0.650829 489.93 -0.878875 490.46C-6.99769 492.46 -13.7637 488.753 -12.1163 481.87C-11.7045 480.281 -10.1748 478.575 -8.99807 477.163C-7.76254 475.692 -6.23284 474.574 -5.05614 473.456C0.65083 467.985 5.23994 464.102 11.1234 458.571C12.359 457.453 13.6533 456.159 15.183 454.923C16.9481 453.511 19.478 451.511 22.4785 452.805C25.2438 451.04 27.3618 448.687 29.774 446.569C27.1265 442.097 25.1849 437.214 25.1261 430.86C25.1261 424.271 26.3616 418.858 28.8915 414.269C33.4806 406.032 42.247 398.854 53.7198 398.089C63.957 397.442 71.2526 400.384 76.7242 404.914C78.5481 406.444 80.4896 408.032 81.784 409.738C82.3723 410.621 82.843 411.739 83.4902 412.621C84.1374 413.563 85.0199 414.327 85.4906 415.21C85.9613 416.092 86.3143 417.269 86.7849 418.328C88.197 421.505 88.7853 425.918 89.256 430.389C89.7267 435.155 89.7267 441.156 88.4911 444.627C87.491 447.569 85.3729 450.334 83.7844 452.864C81.078 457.218 76.43 460.101 71.3702 462.219C69.8405 462.866 67.7813 463.396 65.6044 463.69C63.4275 463.984 61.3095 464.455 59.1914 464.455C57.1322 464.455 54.8377 464.102 52.5431 463.807C50.3662 463.513 48.0717 463.572 46.3654 462.866C44.7181 462.219 42.7177 460.748 41.3057 459.748C39.776 458.63 38.4228 457.453 37.0107 455.865ZM43.659 403.325C40.3055 405.032 37.5402 407.208 35.3045 409.68C30.9507 414.504 27.0088 421.623 27.4795 431.154C27.9502 440.038 31.7744 446.451 36.8342 451.099C41.8352 455.629 49.013 459.454 58.1324 458.865C66.7811 458.395 73.3706 454.865 78.1362 449.687C82.7253 444.686 86.4908 437.979 86.0201 428.271C85.6671 419.505 81.4898 412.915 76.8419 408.267C72.2528 403.678 64.4277 399.795 55.426 400.325C51.1899 400.619 46.895 401.678 43.659 403.325ZM54.367 461.16C48.8953 460.925 44.3062 458.983 40.7761 457.277C43.3649 459.748 47.0715 460.925 51.6017 461.572C54.6023 461.984 57.8382 462.513 61.4271 462.219C62.2508 462.101 63.0745 461.807 63.8982 461.689C73.0764 460.395 79.0188 456.394 82.9607 450.217C84.6669 447.51 86.2554 444.451 86.5496 440.685C81.6663 452.688 71.8409 461.748 54.367 461.16ZM29.6564 458.218C29.1269 458.571 27.5972 459.63 27.4795 458.454C27.4795 457.983 28.9504 457.277 29.1269 457.159C31.1861 455.924 32.7746 454.865 34.1278 453.335C34.1867 453.335 34.2455 453.217 34.1278 453.217C33.4806 453.864 32.4216 454.629 31.4803 455.335C30.7154 455.924 29.2445 457.512 28.5973 456.1C30.2447 454.629 32.3039 453.57 33.8336 451.923C32.7746 450.805 32.0686 449.393 30.8331 448.51C29.9505 449.334 29.0092 450.099 28.2443 451.099C28.715 450.982 28.8327 450.511 29.5387 450.628C29.5387 450.805 29.7152 450.805 29.774 450.982C29.8329 451.805 29.0092 451.982 28.5973 452.276C28.0678 452.57 27.656 452.864 27.1853 453.335C26.597 453.864 24.7731 455.159 24.7143 455.865C24.6554 456.512 25.6556 457.63 26.1263 458.159C28.3032 460.336 30.5389 458.63 32.5393 457.041C33.8336 456.041 35.128 455.1 35.4222 453.864C33.6571 455.394 31.8333 456.983 29.6564 458.218ZM24.3024 454.629C24.5966 454.159 25.5968 453.335 25.5968 453.217C25.1849 453.629 24.1847 454.041 24.3024 454.629ZM23.3022 457.924C22.5962 456.688 22.302 455.159 21.3018 454.629C18.7131 454.453 17.1834 455.982 15.5949 457.394C10.5351 461.925 5.71062 466.632 0.768501 471.103C-1.82023 473.398 -4.35013 475.339 -6.76235 477.928C-7.88021 479.105 -9.40992 480.87 -9.88059 481.987C-11.3515 485.988 -7.88021 489.224 -4.29129 488.518C-4.52663 487.577 -4.70313 486.518 -5.05614 485.341C-5.23265 484.576 -6.17401 482.635 -5.23265 482.458C-4.40896 482.282 -4.11479 484.223 -3.93828 484.812C-3.64411 485.988 -3.52644 486.753 -3.34993 487.753C-3.2911 488.224 -3.40877 488.4 -3.52644 488.636C-2.93809 488.695 -2.46741 488.577 -2.05557 488.4C-2.23207 486.93 -2.23207 485.282 -2.58508 483.811C-2.87926 482.517 -4.05595 480.811 -2.99693 480.105C-1.34955 481.752 -1.29072 484.988 -0.996542 487.989C-0.46703 487.93 -0.172857 487.577 0.297821 487.459C0.00364685 485.223 -0.0551872 482.399 -0.643535 480.517C-0.820039 479.928 -1.58489 479.105 -0.643535 478.81C0.474326 479.281 0.591996 480.811 0.827334 482.105C1.12151 483.517 1.23918 485.106 1.29801 486.577C1.82753 486.518 2.1217 486.165 2.53354 485.988C2.76888 483.929 2.47471 482.635 2.00403 480.399C1.88636 479.634 0.650828 476.81 1.82752 476.869C2.59238 476.928 2.88655 478.987 3.12189 479.869C3.53374 481.929 3.76907 483.223 3.76907 485.106C4.41626 484.87 4.88693 484.4 5.35761 483.929C5.23994 482.282 5.06344 480.634 4.8281 478.81C4.6516 477.693 3.71024 474.457 4.47509 474.28C5.53411 474.045 5.65179 476.751 5.76946 477.398C6.12247 479.693 6.29897 481.164 6.41664 483.046C6.82848 482.929 7.59333 482.282 8.00518 481.811C7.88751 479.399 7.76984 477.281 7.29916 475.339C7.00499 474.339 5.76946 472.809 7.06382 472.28C7.88751 472.986 8.12285 474.339 8.47586 475.574C8.82887 477.222 9.12304 479.046 9.0642 480.928C9.59372 480.575 10.4174 480.34 10.5939 479.752C10.7116 479.399 10.5351 479.046 10.4762 478.693C10.3586 477.398 10.1821 475.81 9.82906 474.398C9.53488 472.927 8.77003 471.515 9.18187 470.632C10.7116 470.985 10.5939 472.927 10.8881 474.28C11.1823 475.751 11.7118 477.398 11.6529 478.869C12.1236 478.575 13.1826 478.163 13.3591 477.398C13.5945 476.457 12.8885 474.457 12.5943 472.986C12.3001 471.397 11.6529 469.985 11.8883 469.044C13.065 468.573 13.4768 471.103 13.7122 472.28C14.0063 473.927 14.2417 475.457 14.3593 476.516C14.8888 476.28 15.3007 475.927 15.5949 475.457C15.0653 473.221 14.8888 470.338 14.124 468.397C13.8887 467.808 13.065 466.867 14.124 466.573C16.0067 468.161 15.9479 471.75 16.5951 474.633C18.6543 474.104 17.7718 471.044 17.2422 469.044C16.7716 467.514 16.0655 466.279 15.8302 465.22C16.0067 465.102 16.1244 464.925 16.3597 464.867C18.1248 466.514 18.4778 469.573 19.0661 472.456C19.4191 472.515 19.8898 471.691 20.4193 471.515C19.9486 469.985 19.8898 468.044 19.3603 466.396C19.0073 465.161 17.7129 463.807 18.7131 463.043C20.6547 464.514 20.8312 467.632 21.3018 470.573C21.6548 470.279 22.5374 469.75 22.655 469.161C22.9492 468.044 22.4197 465.808 22.0667 464.455C21.596 462.984 20.3605 461.748 20.9488 460.807C22.1844 461.042 22.655 462.572 23.008 463.69C23.4199 464.984 23.5376 466.514 23.7729 467.867C24.1259 467.808 24.6554 467.043 24.9496 466.573C24.2436 465.749 24.4201 464.278 24.0671 463.16C23.8317 462.337 23.1845 461.748 23.3022 461.042C25.1261 460.101 25.3026 464.396 25.7733 465.749C26.4793 464.396 27.8325 463.749 27.5972 461.572C25.5968 460.689 24.3612 459.63 23.3022 457.924Z" fill="#584C4C"/>
<path d="M24.8905 411.563C21.8311 413.916 21.0074 418.211 20.4779 421.8C19.8896 425.624 19.9484 429.449 19.9484 433.332C19.9484 433.861 20.8309 433.92 20.8309 433.332C20.8309 430.213 20.8309 427.036 21.1251 423.918C21.4781 419.976 22.1253 414.858 25.4789 412.269C25.8907 411.916 25.3024 411.269 24.8905 411.563Z" fill="#584C4C"/>
<path d="M19.1249 417.623C17.8893 419.211 17.301 421.212 17.301 423.212C17.2422 423.742 18.1835 423.8 18.1835 423.212C18.1835 421.388 18.7719 419.623 19.8897 418.093C20.2427 417.623 19.4779 417.152 19.1249 417.623Z" fill="#584C4C"/>
<path d="M92.786 432.978C92.7272 436.332 92.08 439.626 91.1386 442.862C90.1973 445.98 88.9029 449.805 86.0788 451.746C85.6082 452.04 86.2554 452.688 86.726 452.393C89.3148 450.57 90.6091 447.157 91.6093 444.215C92.8449 440.685 93.6685 436.802 93.6685 433.037C93.6685 432.448 92.786 432.448 92.786 432.978Z" fill="#584C4C"/>
<path d="M93.9627 441.333C93.6685 443.804 92.9037 446.334 91.1386 448.158C90.7856 448.57 91.374 449.217 91.727 448.805C93.6685 446.805 94.4922 444.098 94.9041 441.392C94.9629 440.803 94.0804 440.745 93.9627 441.333Z" fill="#584C4C"/>
<path d="M83.1959 405.091C82.0976 403.993 80.9994 402.894 79.9011 401.796C79.4893 401.384 78.8421 401.973 79.254 402.385C80.313 403.483 81.3916 404.581 82.4899 405.679C82.9017 406.091 83.5489 405.503 83.1959 405.091Z" fill="#584C4C"/>
</g>
<g opacity="0.8">
<path fill-rule="evenodd" clip-rule="evenodd" d="M1425.1 1010.86C1428.34 1012.24 1429.36 1015.07 1430.6 1018.97C1432.19 1023.9 1434.14 1028.73 1435.73 1033.56C1436.66 1036.18 1438.05 1038.8 1438.3 1041.68C1438.41 1042.96 1438.15 1044.25 1438.1 1045.53C1438.05 1046.76 1437.94 1048.05 1437.74 1049.33C1437.38 1051.29 1437.12 1054.73 1436.14 1056.06C1434.5 1058.32 1428.85 1057.4 1424.84 1057.4C1406.09 1057.4 1387.55 1057.4 1368.85 1057.4C1368.13 1057.4 1367.36 1057.35 1366.69 1057.4C1366.02 1057.45 1365.46 1057.71 1364.84 1057.66C1363.87 1057.66 1362.74 1057.14 1361.66 1056.83C1360.63 1056.52 1359.45 1056.06 1358.93 1055.5C1358.06 1054.57 1357.8 1052.36 1357.55 1050.87C1357.09 1048.41 1356.62 1046.76 1356.42 1044.61C1355.9 1039.62 1358.63 1035.15 1360.42 1031.61C1362.84 1026.99 1365.72 1022.57 1368.08 1018.15C1368.95 1016.51 1369.77 1014.5 1371.01 1013.27C1372.09 1012.19 1373.63 1011.52 1375.01 1010.65C1374.65 1009.98 1373.58 1009.16 1373.06 1008.34C1371.67 1006.18 1370.75 1003.46 1369.67 1000.79C1367.15 994.469 1365.15 987.226 1362.22 981.113C1361.61 979.88 1360.78 978.493 1360.63 977.312C1360.07 973.767 1361.25 972.072 1363.25 970.839C1364.28 970.223 1365.82 969.658 1367 969.349C1368.08 969.092 1369.67 969.092 1370.7 969.092C1380.36 968.836 1390.68 969.195 1400.9 969.195C1407.94 969.195 1415.7 969.195 1423.4 969.195C1425.97 969.195 1428.64 969.041 1430.44 969.658C1432.14 970.223 1434.71 971.815 1435.27 973.356C1435.79 974.641 1435.63 976.593 1435.27 978.134C1434.35 982.295 1432.91 986.661 1431.93 990.463C1430.85 994.726 1429.98 998.939 1428.95 1003.2C1428.13 1006.44 1427.57 1009.16 1425.1 1010.86ZM1365 972.072C1363.2 972.843 1362.12 973.921 1362.48 976.747C1362.63 978.031 1363.56 979.726 1364.17 981.062C1366.28 985.634 1367.36 989.281 1369.11 994.213C1370.08 996.987 1371.42 999.863 1372.6 1002.84C1373.73 1005.77 1374.96 1009.01 1377.84 1009.73C1379.12 1010.09 1381.23 1009.83 1383.03 1009.83C1394.89 1009.83 1405.63 1009.83 1417.45 1009.83C1419.4 1009.83 1421.76 1010.14 1423.15 1009.73C1425.87 1008.96 1426.33 1005.31 1427.05 1002.53C1428.13 998.374 1428.9 994.726 1430.03 990.463C1431.01 986.969 1432.04 982.552 1433.11 978.596C1433.47 977.466 1433.94 975.617 1433.52 974.332C1433.01 972.74 1430.9 971.764 1429.57 971.404C1427.67 970.89 1424.95 971.147 1422.22 971.147C1404.81 971.147 1386.68 971.25 1370.24 971.147C1369.52 971.147 1368.64 971.096 1368.28 971.147C1367.21 971.25 1366.13 971.61 1365 972.072ZM1435.68 1038.9C1433.58 1032.43 1431.32 1026.52 1429.11 1020.21C1427.62 1015.89 1426.59 1012.55 1422.02 1011.78C1418.83 1011.27 1414.67 1011.68 1411.54 1011.68C1404.81 1011.68 1397 1011.68 1390.32 1011.68C1386.78 1011.68 1383.08 1011.27 1379.69 1011.68C1378.46 1011.83 1376.76 1011.99 1375.68 1012.45C1371.57 1014.14 1370.29 1018.2 1368.08 1021.9C1366.79 1024.06 1365.56 1026.52 1364.17 1028.78C1362.94 1030.79 1361.55 1033.25 1360.32 1035.72C1359.81 1036.8 1359.29 1038.13 1358.83 1039.62C1358.42 1041.06 1357.91 1043.07 1358.27 1044.3C1359.09 1046.71 1361.71 1047.33 1364.53 1047.79C1365.56 1047.95 1366.44 1048.25 1367.15 1048.31C1369.57 1048.61 1372.29 1048.31 1374.91 1048.31C1390.43 1048.31 1406.14 1048.31 1421.45 1048.31C1424.07 1048.31 1426.85 1048.61 1429.31 1048.31C1432.96 1047.89 1435.12 1046.2 1436.4 1043.48C1436.5 1041.78 1436.09 1040.19 1435.68 1038.9ZM1435.94 1047.28C1434.71 1048.72 1432.14 1049.95 1429.52 1050.21C1426.95 1050.46 1424.18 1050.21 1421.56 1050.21C1405.68 1050.21 1389.4 1050.21 1373.63 1050.21C1370.85 1050.21 1367.82 1050.62 1365.56 1050.21C1365.1 1050.1 1364.59 1049.69 1363.97 1049.54C1363.1 1049.33 1362.02 1049.28 1361.2 1049.08C1360.27 1048.87 1359.65 1048.2 1358.93 1048.25C1359.5 1050.1 1359.6 1052.36 1360.27 1054.11C1361.61 1054.73 1363.15 1055.65 1364.84 1055.7C1366.08 1055.75 1367.36 1055.55 1368.64 1055.5C1372.81 1055.5 1376.71 1055.55 1380.82 1055.5C1396.74 1055.5 1414.11 1055.19 1429.42 1055.45C1431.32 1055.45 1432.86 1056.17 1434.45 1055.04C1435.37 1052.93 1435.73 1049.8 1435.94 1047.28Z" fill="#584C4C"/>
<path fill-rule="evenodd" clip-rule="evenodd" d="M1421.81 974.024C1423.2 973.973 1426.18 973.767 1427.46 974.332C1427.98 974.538 1428.39 975.051 1428.95 975.822C1429.36 976.387 1430.08 977.004 1430.13 977.569C1430.24 978.339 1429.67 980.291 1429.42 981.524C1427.98 987.997 1426.69 994.059 1424.89 1000.38C1424.59 1001.51 1424.48 1002.84 1424.07 1004.23C1423.76 1005.26 1423.15 1007.31 1422.79 1007.57C1422.02 1008.13 1419.35 1007.77 1417.81 1007.77C1408.71 1007.77 1400.39 1007.52 1391.56 1007.77C1388.11 1007.88 1384.52 1008.19 1381.18 1007.77C1379.89 1007.62 1378.15 1007.06 1377.74 1006.18C1377.58 1005.87 1377.48 1004.74 1377.33 1004.23C1376.4 1000.43 1374.55 996.267 1373.42 991.952C1372.55 988.613 1371.57 986.045 1370.13 983.168C1369.52 981.884 1368.49 980.497 1368.28 978.904C1368.03 976.901 1368.64 975.36 1369.98 975.154C1370.24 975.103 1370.65 975.308 1371.11 975.257C1373.42 975.051 1375.68 974.332 1378.66 974.384C1379.64 974.435 1380.31 974.795 1381.28 974.897C1388.94 975.668 1396.13 974.127 1403.68 974.127C1408.76 974.127 1413.8 974.538 1418.37 974.332C1419.55 974.281 1420.68 974.075 1421.81 974.024ZM1377.17 1000.22C1378.87 999.144 1380.77 997.346 1382.31 995.805C1382.72 995.394 1383.39 994.161 1384.16 994.983C1384 995.805 1383.18 996.216 1382.67 996.73C1381.02 998.425 1379.17 999.863 1377.53 1001.51C1377.63 1002.07 1377.99 1002.43 1377.99 1003.1C1379.48 1001.76 1381.38 1000.33 1382.87 998.99C1383.28 998.579 1383.95 997.654 1384.62 998.22C1384.72 998.99 1383.9 999.504 1383.44 999.915C1381.79 1001.4 1379.74 1002.59 1378.35 1004.23C1378.71 1004.64 1378.35 1005.72 1378.87 1005.98C1380.05 1005.21 1381.02 1003.77 1382.21 1002.64C1382.77 1002.07 1383.44 1001.56 1384.06 1001.04C1384.67 1000.53 1385.24 999.607 1386.11 999.709C1386.57 1000.58 1385.49 1001.1 1385.03 1001.51C1383.49 1002.79 1381.95 1004.18 1380.72 1005.62C1380.51 1005.82 1380.15 1006.18 1380.25 1006.44C1380.82 1006.7 1381.79 1006.85 1382.41 1006.75C1382.98 1005.62 1383.9 1004.69 1384.83 1003.77C1385.49 1003.1 1386.47 1001.87 1387.34 1002.53C1387.03 1003.46 1386.01 1003.97 1385.29 1004.69C1384.98 1005 1384.67 1005.46 1384.36 1005.82C1384.06 1006.13 1383.44 1006.39 1383.59 1006.85C1396.38 1006.8 1409.59 1006.59 1422.22 1006.75C1424.89 997.449 1427.26 987.843 1429.11 977.774C1428.03 976.541 1427.82 975.154 1425.92 974.949C1423.25 974.692 1420.37 975.206 1418.11 975.36C1415.75 975.462 1413.28 975.36 1410.82 975.257C1404.96 975 1398.85 975.308 1393.04 975.617C1389.55 975.822 1385.34 976.182 1381.54 975.925C1380.72 975.822 1379.79 975.514 1379.12 975.411C1377.79 975.308 1376.56 975.617 1375.37 975.719C1373.32 975.873 1371.32 976.027 1369.57 976.541C1368.64 978.288 1369.77 980.651 1370.6 981.781C1371.52 980.24 1373.01 979.007 1374.19 977.774C1374.55 977.363 1374.96 976.593 1375.68 976.849C1376.09 977.569 1375.22 978.031 1374.81 978.442C1373.94 979.418 1373.11 980.188 1372.29 981.113C1371.93 981.575 1371.57 982.346 1370.9 982.346C1371.26 983.117 1371.47 983.939 1371.93 984.606C1373.32 982.449 1375.37 980.702 1377.07 978.904C1377.58 978.339 1378.15 977.312 1379.12 977.517C1379.23 978.339 1378.4 979.007 1377.89 979.572C1376.2 981.37 1374.19 982.86 1372.86 984.966C1372.65 985.069 1372.5 985.223 1372.14 985.171C1373.37 987.278 1373.83 990.206 1374.76 992.723C1375.99 990.617 1378.25 988.716 1380.15 987.124C1380.66 986.661 1381.54 985.377 1382.31 986.302C1382 987.072 1381.23 987.534 1380.61 988.048C1379.28 989.178 1378.1 990.257 1376.97 991.49C1376.45 992.106 1375.89 992.928 1375.01 993.082C1374.91 993.082 1374.71 992.62 1374.76 993.031C1375.63 995.343 1376.3 997.86 1377.17 1000.22Z" fill="#584C4C"/>
<path d="M1383.13 977.568C1383.28 978.852 1382 979.571 1381.28 980.291C1379.33 982.243 1377.33 984.246 1375.48 986.352C1375.17 986.763 1374.86 987.482 1374.19 987.38C1373.78 986.301 1374.96 985.428 1375.58 984.76C1377.69 982.654 1379.89 980.188 1382.1 978.133C1382.21 977.825 1382.31 977.517 1382.57 977.414C1382.87 977.362 1383.08 977.414 1383.13 977.568Z" fill="#584C4C"/>
<path d="M1426.9 978.339C1426.38 979.367 1425.31 980.035 1424.33 980.754C1422.53 982.141 1420.73 983.528 1418.94 985.069C1418.17 985.737 1417.14 986.97 1416.06 986.456C1416.32 985.48 1417.5 984.915 1418.37 984.247C1420.68 982.295 1423.92 980.035 1425.92 978.031C1426.13 977.877 1426.74 977.928 1426.9 978.339Z" fill="#584C4C"/>
<path fill-rule="evenodd" clip-rule="evenodd" d="M1383.9 980.856C1384.21 981.575 1383.49 981.935 1383.23 982.449C1384.26 982.192 1385.65 982.449 1386.62 982.346C1387.14 982.295 1387.6 981.986 1388.01 982.141C1388.52 982.397 1388.52 983.271 1388.73 983.733C1389.4 985.274 1391.09 987.226 1391.76 988.716C1397.38 988.784 1402.86 988.682 1408.2 988.408C1409.02 988.716 1409.38 989.332 1409.12 990.565C1408.87 991.695 1408.05 993.031 1407.43 994.418C1406.81 995.856 1406.5 997.552 1405.48 997.963C1403.73 998.065 1401.98 997.654 1399.98 997.5C1398.18 997.346 1395.46 998.168 1394.38 997.398C1393.87 997.089 1393.87 996.113 1393.61 995.446C1392.94 993.699 1391.45 992.261 1390.43 990.463C1389.81 989.384 1389.35 988.305 1388.68 987.329C1387.96 986.25 1387.39 985.223 1386.88 984.247C1385.19 983.784 1382.67 985.223 1382.31 983.579C1380.61 985.223 1378.51 986.713 1376.86 988.511C1376.4 989.024 1375.99 990.052 1375.12 989.898C1374.81 988.819 1375.94 988.048 1376.61 987.38C1378.76 985.223 1381.54 983.271 1383.34 980.651C1383.64 980.599 1383.75 980.754 1383.9 980.856ZM1392.94 990.668C1393.92 992.312 1395.1 993.699 1395.66 995.702C1398.9 995.497 1401.83 995.754 1404.71 996.113C1405.43 994.059 1406.35 992.261 1407.17 990.308C1402.65 990.668 1397.57 990.617 1392.94 990.668Z" fill="#584C4C"/>
<path d="M1426.33 981.421C1427.26 981.935 1426.18 982.551 1425.87 982.808C1423.4 984.709 1421.04 986.455 1418.37 988.151C1417.86 988.459 1417.24 988.818 1416.78 989.178C1416.37 989.486 1415.9 990.257 1415.29 989.846C1414.98 989.127 1415.8 988.716 1416.21 988.407C1419.35 986.044 1423.25 983.938 1426.13 981.318C1426.23 981.318 1426.3 981.353 1426.33 981.421Z" fill="#584C4C"/>
<path d="M1414.52 993.852C1414 993.133 1414.98 992.619 1415.39 992.362C1418.88 989.845 1423.1 987.174 1426.49 984.605C1428.18 985.273 1424.89 987.02 1424.18 987.482C1421.3 989.383 1418.94 991.078 1416.11 993.03C1415.65 993.338 1415.19 994.109 1414.52 993.852Z" fill="#584C4C"/>
<path d="M1425.1 988.973C1425.15 990.154 1423.87 990.822 1423.05 991.439C1420.84 993.083 1418.32 994.367 1416.06 996.113C1415.65 996.37 1415.13 997.038 1414.52 996.73C1414.36 995.497 1415.85 995.035 1416.57 994.521C1419.14 992.774 1422.17 991.13 1424.33 988.973C1424.43 988.922 1424.53 988.87 1424.64 988.819C1424.84 988.767 1424.95 988.973 1425.1 988.973Z" fill="#584C4C"/>
<path d="M1382.77 989.384C1382.1 990.668 1380.92 991.541 1379.89 992.466C1379.38 992.877 1378.92 993.442 1378.35 993.956C1377.89 994.367 1377.33 995.034 1376.61 995.086C1376.25 993.75 1378.1 992.826 1378.92 992.055C1380.05 991.079 1381.08 990 1382 988.973C1382.46 988.921 1382.62 989.127 1382.77 989.384Z" fill="#584C4C"/>
<path d="M1383.23 992.364C1383.08 993.032 1382.41 993.34 1381.95 993.751C1380.97 994.573 1380 995.344 1379.02 996.268C1378.66 996.679 1378.3 997.604 1377.53 997.193C1377.38 996.32 1378.61 995.292 1379.59 994.419C1380.36 993.7 1382.1 991.953 1382.67 991.953C1382.93 992.004 1383.08 992.159 1383.23 992.364Z" fill="#584C4C"/>
<path d="M1425 993.082C1424.69 993.956 1423.66 994.11 1422.94 994.521C1418.83 996.935 1414.26 999.504 1410.15 1002.07C1409.53 1002.43 1408.82 1003.25 1407.99 1002.89C1407.94 1002.07 1408.82 1001.61 1409.38 1001.25C1411.44 999.966 1413.49 998.836 1415.55 997.603C1418.37 995.908 1421.45 994.161 1423.97 992.928C1424.23 992.774 1424.79 992.517 1425 993.082Z" fill="#584C4C"/>
<path d="M1423.3 996.832C1422.69 998.014 1421.25 998.373 1420.17 998.99C1417.34 1000.53 1414.42 1001.87 1411.85 1003.77C1411.38 1004.08 1410.87 1004.79 1410.15 1004.49C1410.1 1003.3 1411.74 1002.69 1412.67 1002.07C1415.44 1000.27 1419.71 998.425 1422.38 996.627C1422.69 996.472 1423.1 996.318 1423.3 996.832Z" fill="#584C4C"/>
<path d="M1395.56 998.99C1397 998.784 1398.44 999.863 1397.98 1001.61C1397.77 1002.64 1395.51 1003.66 1394.43 1002.43C1393.46 1001.3 1394.33 999.144 1395.56 998.99Z" fill="#584C4C"/>
<path d="M1404.45 1003.2C1400.03 1003.82 1402.5 997.191 1405.12 999.554C1406.09 1000.43 1405.73 1002.79 1404.45 1003.2Z" fill="#584C4C"/>
<path d="M1414.47 1004.38C1414.77 1003.2 1416.42 1002.53 1417.7 1001.87C1419.14 1001.15 1420.48 1000.38 1421.56 999.915C1421.76 999.812 1422.27 999.863 1422.27 1000.27C1422.38 1000.84 1420.99 1001.35 1420.43 1001.61C1418.99 1002.28 1417.6 1002.89 1416.32 1003.77C1415.75 1004.13 1415.13 1005 1414.47 1004.38Z" fill="#584C4C"/>
<path d="M1421.76 1002.84C1421.73 1002.95 1421.74 1003 1421.81 1003C1421.4 1004.18 1420.01 1004.8 1418.73 1004.8C1418.76 1004.69 1418.75 1004.62 1418.68 1004.59C1418.88 1003.36 1420.58 1003.61 1421.09 1002.74C1421.35 1002.74 1421.61 1002.69 1421.76 1002.84Z" fill="#584C4C"/>
<path d="M1387.24 1005.05C1385.29 1004.23 1387.14 1007.11 1387.24 1005.05V1005.05Z" fill="#584C4C"/>
<path fill-rule="evenodd" clip-rule="evenodd" d="M1421.76 1016.2C1421.92 1017.07 1421.97 1019.44 1421.92 1020.77C1421.97 1021.23 1421.35 1021.03 1421.09 1021.23C1421.25 1021.9 1421.14 1022.88 1421.25 1023.55C1421.56 1023.8 1422.38 1023.55 1422.69 1023.75C1423.46 1024.93 1423.3 1027.04 1423.82 1028.53C1424.28 1028.79 1424.64 1029.15 1425 1029.56C1424.89 1031.35 1425.31 1032.69 1425.56 1034.13C1423.4 1034.69 1421.04 1034.64 1418.68 1034.59C1412 1034.44 1404.14 1034.08 1397.15 1034.39C1394.95 1034.49 1393.25 1034.59 1391.35 1034.49C1384.72 1034.23 1377.58 1034.9 1370.8 1034.39C1370.6 1032.64 1371.88 1031.25 1372.19 1029.45C1372.5 1029.2 1373.06 1029.25 1373.42 1029.09C1373.42 1028.17 1373.99 1026.78 1373.88 1025.55C1373.83 1025.04 1373.63 1024.73 1373.73 1024.32C1373.94 1023.8 1374.45 1023.85 1375.12 1023.96C1375.17 1023.29 1375.42 1022.11 1375.78 1021.44C1375.32 1021.08 1375.07 1021.08 1374.91 1020.57C1374.65 1019.69 1376.14 1016.87 1377.07 1016.46C1378.2 1015.94 1381.38 1016.25 1383.23 1016.25C1389.65 1016.25 1394.48 1016.82 1401.37 1016.82C1404.96 1016.82 1408.66 1016.92 1411.95 1016.76C1413.34 1016.66 1414.88 1016.35 1416.42 1016.25C1418.11 1016.2 1419.76 1016.25 1420.99 1016.1C1421.2 1016.05 1421.56 1016.05 1421.76 1016.2ZM1419.71 1017.23C1419.91 1018.1 1419.6 1019.59 1419.86 1020.46C1420.22 1020.31 1420.73 1020.36 1420.99 1020.1C1420.89 1019.18 1420.94 1018 1420.79 1017.12C1420.48 1017.18 1420.12 1017.23 1419.71 1017.23ZM1415.96 1017.28C1416.01 1018.41 1415.8 1019.8 1416.06 1020.77C1416.95 1020.77 1417.84 1020.77 1418.73 1020.77C1418.73 1019.57 1418.73 1018.39 1418.73 1017.23C1417.7 1017.12 1416.93 1017.33 1415.96 1017.28ZM1377.17 1017.69C1376.45 1018.31 1376.4 1019.38 1375.94 1020.21C1377.55 1020.21 1379.14 1020.21 1380.72 1020.21C1380.92 1019.28 1381.18 1018.46 1381.08 1017.28C1379.48 1017.48 1378.04 1016.92 1377.17 1017.69ZM1381.74 1020.31C1383.39 1020.31 1385.03 1020.31 1386.68 1020.31C1386.78 1019.33 1387.09 1018.56 1387.09 1017.48C1385.75 1017.07 1383.75 1017.38 1382.1 1017.28C1382.26 1018.56 1381.9 1019.33 1381.74 1020.31ZM1388.11 1017.38C1387.96 1018.41 1387.91 1019.44 1387.7 1020.41C1389.14 1020.41 1390.58 1020.41 1392.02 1020.41C1391.71 1019.95 1391.91 1018.61 1391.91 1017.69C1390.53 1017.69 1389.45 1017.43 1388.11 1017.38ZM1410.82 1017.84C1411.13 1018.67 1411.08 1019.8 1411.08 1020.87C1412.31 1021.13 1413.64 1020.77 1415.03 1020.87C1414.98 1019.69 1415.08 1018.41 1414.93 1017.38C1413.59 1017.59 1412.1 1017.64 1410.82 1017.84ZM1392.94 1017.95C1392.94 1018.61 1392.79 1019.13 1392.84 1019.85C1392.99 1020.16 1392.22 1020.41 1392.69 1020.46C1393.82 1020.51 1394.79 1020.72 1396.02 1020.67C1396.02 1019.68 1396.02 1018.68 1396.02 1017.69C1395 1017.69 1393.97 1017.69 1392.94 1017.69C1392.94 1017.76 1392.94 1017.84 1392.94 1017.95ZM1397.05 1020.77C1398.28 1020.67 1399.62 1020.93 1400.55 1020.87C1400.39 1019.95 1400.44 1018.97 1400.44 1017.95C1399.36 1017.79 1398.23 1017.74 1397.05 1017.69C1397.05 1018.72 1397.05 1019.74 1397.05 1020.77ZM1401.47 1017.84C1401.52 1018.87 1401.37 1020.1 1401.57 1020.93C1402.75 1021.08 1404.09 1021.03 1405.37 1021.03C1405.32 1020 1405.53 1018.67 1405.27 1017.79C1404.19 1017.95 1402.7 1017.79 1401.47 1017.84ZM1406.4 1021.03C1407.74 1021.08 1408.82 1020.87 1410.15 1020.93C1410.05 1019.9 1410 1018.77 1409.89 1017.79C1408.73 1017.79 1407.57 1017.79 1406.4 1017.79C1406.3 1018.56 1406.45 1019.54 1406.4 1021.03ZM1376.81 1021.23C1376.5 1022.11 1376.3 1023.03 1376.04 1023.96C1376.66 1024.06 1377.43 1024.01 1378.2 1024.01C1378.46 1023.08 1378.61 1022.06 1379.02 1021.23C1378.35 1021.13 1377.79 1021.29 1376.81 1021.23ZM1379.95 1021.23C1379.89 1022.31 1379.28 1022.83 1379.33 1024.01C1381.13 1024.06 1382.87 1024.21 1384.62 1024.32C1384.57 1023.19 1384.83 1022.42 1384.83 1021.34C1383.13 1021.39 1381.64 1021.23 1379.95 1021.23ZM1385.6 1024.32C1386.78 1024.52 1388.42 1024.37 1389.76 1024.42C1389.86 1023.44 1389.65 1022.21 1389.86 1021.44C1388.11 1021.34 1387.09 1021.7 1385.75 1021.34C1385.8 1022.42 1385.7 1023.39 1385.6 1024.32ZM1390.78 1024.42C1392.15 1024.42 1393.51 1024.42 1394.84 1024.42C1394.89 1023.55 1394.95 1022.67 1394.89 1021.7C1393.56 1021.59 1392.02 1021.23 1390.63 1021.49C1390.99 1022.16 1390.73 1023.44 1390.78 1024.42ZM1395.87 1024.42C1396.85 1024.37 1397.57 1024.57 1398.54 1024.52C1398.54 1023.55 1398.44 1022.62 1398.28 1021.8C1397.67 1021.59 1396.69 1021.75 1395.92 1021.7C1396.02 1022.72 1395.82 1023.44 1395.87 1024.42ZM1399.31 1021.9C1399.47 1022.67 1399.52 1023.6 1399.57 1024.52C1400.65 1024.42 1401.93 1024.62 1402.86 1024.42C1402.81 1023.6 1402.96 1022.62 1402.75 1021.95C1401.57 1022.06 1400.19 1021.8 1399.31 1021.9ZM1415.03 1021.9C1415.08 1022.62 1415.13 1023.34 1415.08 1024.21C1415.9 1024.21 1416.52 1024.06 1417.34 1024.11C1417.34 1023.36 1417.34 1022.59 1417.34 1021.8C1416.47 1021.75 1415.8 1021.85 1415.03 1021.9ZM1418.37 1024.01C1419.04 1024.01 1419.65 1023.85 1420.22 1023.75C1420.27 1023.08 1420.27 1022.36 1420.17 1021.8C1419.52 1021.8 1418.88 1021.8 1418.27 1021.8C1418.27 1022.57 1418.22 1023.39 1418.37 1024.01ZM1411.64 1021.95C1411.8 1022.72 1411.64 1023.75 1411.85 1024.52C1412.41 1024.32 1413.49 1024.52 1414.06 1024.32C1414.06 1023.49 1414.16 1022.57 1414 1021.9C1413.08 1021.8 1412.51 1022.06 1411.64 1021.95ZM1407.74 1022.06C1407.79 1022.83 1407.58 1023.8 1407.84 1024.42C1408.87 1024.27 1409.95 1024.62 1410.82 1024.42C1410.77 1023.6 1410.67 1022.93 1410.72 1022.06C1409.95 1021.9 1408.51 1021.9 1407.74 1022.06ZM1403.88 1024.42C1404.84 1024.42 1405.8 1024.42 1406.76 1024.42C1406.76 1023.63 1406.76 1022.84 1406.76 1022.06C1405.77 1022.06 1404.77 1022.06 1403.78 1022.06C1403.99 1022.67 1403.83 1023.65 1403.88 1024.42ZM1420.43 1024.88C1420.79 1026.17 1420.73 1027.81 1421.25 1028.89C1421.92 1028.94 1422.27 1028.79 1422.84 1028.79C1422.58 1027.5 1422.22 1026.27 1422.22 1024.68C1421.56 1024.68 1420.84 1024.62 1420.43 1024.88ZM1416.68 1025.24C1417.29 1026.22 1417.09 1028.02 1417.55 1029.2C1418.42 1029.09 1419.35 1029.15 1420.17 1028.99C1419.86 1027.66 1419.71 1026.17 1419.4 1024.88C1418.73 1025.24 1417.34 1024.88 1416.68 1025.24ZM1374.35 1028.99C1375.42 1028.84 1376.66 1028.89 1377.84 1028.89C1378.25 1027.76 1378.35 1026.32 1378.66 1025.04C1377.38 1025.09 1376.25 1024.88 1374.91 1024.98C1375.01 1026.58 1374.65 1027.76 1374.35 1028.99ZM1379.69 1025.04C1379.43 1026.32 1379.18 1027.6 1378.92 1028.89C1380 1028.89 1381.33 1029.15 1382.21 1029.09C1382.67 1028.12 1382 1025.55 1382.87 1025.34C1384.11 1025.09 1383.13 1028.63 1383.23 1029.2C1384.72 1029.35 1386.57 1029.2 1388.16 1029.25C1388.27 1028.02 1387.96 1026.37 1388.37 1025.45C1385.29 1025.5 1382.67 1025.09 1379.69 1025.04ZM1413.34 1025.45C1413.64 1026.47 1413.59 1027.96 1413.8 1029.2C1414.69 1029.2 1415.6 1029.2 1416.52 1029.2C1416.11 1027.91 1416.26 1026.17 1415.65 1025.14C1414.93 1025.29 1414.06 1025.29 1413.34 1025.45ZM1389.19 1029.25C1390.53 1029.2 1392.07 1029.4 1393.25 1029.2C1392.94 1027.96 1393.46 1026.78 1393.35 1025.45C1391.5 1025.24 1390.48 1025.86 1389.14 1025.45C1389.35 1026.53 1389.14 1028.02 1389.19 1029.25ZM1394.07 1029.35C1395 1029.3 1395.61 1029.5 1396.49 1029.45C1396.59 1028.15 1396.62 1026.82 1396.59 1025.45C1395.8 1025.45 1395.03 1025.45 1394.28 1025.45C1394.28 1026.83 1394.23 1028.12 1394.07 1029.35ZM1397.72 1025.55C1397.57 1026.73 1397.62 1028.17 1397.51 1029.45C1398.64 1029.45 1399.62 1029.61 1400.8 1029.56C1400.85 1027.96 1400.75 1026.63 1400.9 1025.55C1400.03 1025.5 1398.44 1025.5 1397.72 1025.55ZM1401.93 1025.55C1401.73 1026.68 1401.88 1028.22 1401.83 1029.56C1402.89 1029.56 1403.95 1029.56 1405.01 1029.56C1405.12 1028.12 1404.81 1026.63 1405.01 1025.45C1403.99 1025.5 1402.81 1025.34 1401.93 1025.55ZM1406.04 1029.45C1407.02 1029.4 1408.3 1029.61 1409.02 1029.25C1408.71 1028.27 1408.82 1026.53 1408.92 1025.45C1407.89 1025.5 1406.61 1025.29 1405.73 1025.55C1406.04 1026.68 1406.09 1028.02 1406.04 1029.45ZM1410.05 1029.25C1410.61 1029.25 1412.05 1029.35 1412.77 1029.2C1412.72 1027.91 1412.41 1026.47 1412.46 1025.45C1411.61 1025.45 1410.75 1025.45 1409.89 1025.45C1409.95 1026.68 1409.69 1028.27 1410.05 1029.25ZM1418.83 1030.12C1418.83 1031.41 1418.99 1032.54 1419.3 1033.56C1421.04 1033.56 1422.89 1033.67 1424.33 1033.36C1424.28 1032.12 1423.87 1031.25 1423.97 1029.81C1422.38 1029.66 1420.58 1030.07 1418.83 1030.12ZM1373.16 1030.12C1372.6 1031.25 1372.29 1032.59 1371.62 1033.56C1372.79 1033.56 1373.95 1033.56 1375.12 1033.56C1375.37 1032.38 1375.58 1031.1 1375.84 1029.92C1374.81 1029.86 1374.09 1030.07 1373.16 1030.12ZM1376.86 1029.92C1376.66 1031.1 1376.3 1032.18 1376.25 1033.56C1377.31 1033.56 1378.35 1033.56 1379.38 1033.56C1379.33 1032.12 1380.05 1031.41 1380.05 1030.02C1379.18 1029.81 1377.89 1029.97 1376.86 1029.92ZM1381.08 1030.12C1380.92 1031.35 1380.56 1032.43 1380.25 1033.56C1381.54 1033.61 1382.77 1033.56 1384 1033.46C1384.11 1032.38 1384.21 1031.25 1384.47 1030.28C1383.34 1030.22 1382.26 1030.12 1381.08 1030.12ZM1413.13 1030.22C1413.34 1031.1 1413.18 1032.33 1413.23 1033.36C1414.98 1033.36 1416.52 1033.61 1418.27 1033.56C1418.01 1032.54 1417.86 1031.35 1417.81 1030.12C1416.21 1030.07 1414.77 1030.28 1413.13 1030.22ZM1412.1 1030.22C1410.56 1030.43 1408.51 1030.22 1407.07 1030.58C1407.27 1031.35 1407.07 1032.59 1407.33 1033.31C1408.97 1033.31 1410.6 1033.31 1412.21 1033.31C1412.1 1032.33 1412.36 1030.74 1412.1 1030.22ZM1384.93 1033.46C1387.45 1033 1390.07 1033.56 1392.79 1033.46C1392.63 1032.54 1392.99 1031.41 1392.94 1030.28C1389.96 1030.38 1387.86 1030.22 1385.08 1030.38C1385.6 1031.3 1384.98 1032.54 1384.93 1033.46ZM1394.07 1030.28C1393.82 1031.25 1393.87 1032.48 1393.61 1033.46C1397.75 1033.29 1401.98 1033.24 1406.3 1033.31C1406.14 1032.43 1406.09 1031.51 1406.14 1030.48C1402.19 1030.69 1397.87 1030.53 1394.07 1030.28Z" fill="#584C4C"/>
<path fill-rule="evenodd" clip-rule="evenodd" d="M1406.14 1042.81C1404.4 1045.07 1399.62 1045.79 1395.56 1045.43C1394.53 1045.33 1393.51 1044.81 1392.58 1044.66C1392.02 1044.61 1391.71 1044.71 1391.3 1044.61C1389.35 1043.99 1389.5 1042.35 1389.86 1040.29C1390.17 1038.7 1390.12 1036.8 1391.09 1035.98C1393.04 1035.62 1395.77 1035.57 1398.39 1035.36C1399.21 1035.26 1400.24 1035.31 1401.16 1035.36C1403.42 1035.41 1404.35 1035.62 1405.22 1037.21C1405.89 1038.55 1406.09 1040.75 1406.14 1042.81ZM1392.33 1037.57C1391.86 1039.01 1391.45 1040.96 1391.56 1042.6C1393.3 1042.81 1394.53 1043.48 1396.23 1043.58C1399.16 1043.68 1402.19 1043.43 1404.24 1042.09C1404.09 1040.24 1403.94 1038.39 1402.96 1037.41C1399.36 1036.85 1396.08 1037.77 1392.33 1037.57Z" fill="#584C4C"/>
<path d="M1376.61 1035.82C1376.55 1036.7 1375.84 1037.31 1375.37 1037.98C1374.91 1038.65 1374.5 1039.26 1373.99 1039.93C1372.96 1041.22 1371.67 1042.19 1370.7 1043.37C1370.34 1043.84 1370.24 1044.81 1369.31 1044.66C1368.95 1043.68 1369.83 1042.86 1370.44 1042.24C1371.06 1041.63 1371.83 1041.01 1372.39 1040.39C1373.73 1038.9 1374.65 1037.06 1375.94 1035.62C1376.3 1035.57 1376.45 1035.67 1376.61 1035.82Z" fill="#584C4C"/>
<path d="M1368.95 1036.9C1368.7 1037.83 1368.08 1038.7 1367.62 1039.47C1367.15 1040.19 1366.74 1041.16 1365.87 1041.52C1365.77 1041.37 1365.61 1041.32 1365.46 1041.22C1366.18 1039.47 1367.36 1038.13 1368.18 1036.54C1368.64 1036.49 1368.8 1036.7 1368.95 1036.9Z" fill="#584C4C"/>
<path d="M1422.48 1036.9C1420.22 1040.65 1416.01 1042.66 1413.13 1045.89C1412.77 1046.3 1412.46 1047.07 1411.74 1046.92C1411.38 1045.74 1412.72 1044.86 1413.59 1044.04C1415.29 1042.45 1417.39 1040.86 1419.14 1039.27C1420.07 1038.39 1420.89 1037.11 1421.76 1036.65C1422.04 1036.51 1422.27 1036.59 1422.48 1036.9Z" fill="#584C4C"/>
<path d="M1371.93 1036.85C1371.83 1037.83 1371.11 1038.65 1370.6 1039.47C1369.62 1041.06 1368.39 1042.24 1367.15 1043.63C1366.59 1044.3 1366.28 1045.43 1365.3 1045.63C1364.69 1044.71 1365.77 1043.99 1366.23 1043.37C1366.79 1042.71 1367.36 1041.94 1367.92 1041.32C1369.21 1039.78 1370.24 1038.24 1371.26 1036.64C1371.62 1036.59 1371.78 1036.7 1371.93 1036.85Z" fill="#584C4C"/>
<path d="M1379.33 1037.41C1378.4 1039.57 1376.76 1041.16 1375.27 1042.91C1374.81 1043.48 1374.5 1044.3 1373.73 1044.5C1373.68 1044.4 1373.58 1044.4 1373.52 1044.4C1373.32 1043.27 1374.71 1042.04 1375.78 1040.86C1376.25 1040.29 1376.76 1039.78 1377.17 1039.16C1377.69 1038.39 1378.25 1036.49 1379.33 1037.41Z" fill="#584C4C"/>
<path d="M1412.77 1037.78C1412.57 1038.65 1411.74 1039.21 1411.18 1039.83C1410.61 1040.45 1410.15 1041.37 1409.23 1041.53C1408.61 1040.86 1409.64 1040.04 1410.15 1039.47C1410.77 1038.75 1411.49 1038.08 1412 1037.47C1412.41 1037.42 1412.62 1037.57 1412.77 1037.78Z" fill="#584C4C"/>
<path d="M1416.11 1037.67C1415.55 1039.62 1413.8 1041.01 1412.41 1042.24C1411.69 1042.91 1410.87 1043.48 1410.15 1044.15C1409.43 1044.76 1408.97 1045.79 1407.89 1045.99C1407.38 1045.07 1408.56 1044.25 1409.12 1043.73C1411.28 1041.78 1413.85 1040.04 1415.49 1037.47C1415.8 1037.42 1415.96 1037.57 1416.11 1037.67Z" fill="#584C4C"/>
<path d="M1425.56 1038.44C1425.31 1039.26 1424.48 1039.78 1423.87 1040.39C1423.25 1041.01 1422.58 1041.52 1421.92 1042.09C1420.63 1043.17 1419.04 1044.14 1418.01 1045.43C1417.65 1045.84 1417.65 1046.56 1416.88 1046.46C1416.26 1045.43 1417.45 1044.61 1418.11 1044.04C1418.78 1043.37 1419.6 1042.65 1420.32 1042.09C1421.97 1040.7 1423.61 1039.26 1425 1038.03C1425.27 1038.07 1425.46 1038.2 1425.56 1038.44Z" fill="#584C4C"/>
<path d="M1426.59 1040.86C1426.59 1041.88 1425.46 1042.4 1424.84 1042.91C1424.18 1043.42 1423.46 1044.4 1422.48 1044.14C1422.48 1044.01 1422.45 1043.94 1422.38 1043.94C1422.63 1043.17 1423.4 1042.71 1423.97 1042.24C1424.64 1041.73 1425.41 1041.22 1426.02 1040.65C1426.33 1040.6 1426.38 1040.8 1426.59 1040.86Z" fill="#584C4C"/>
<path d="M1358.99 987.996C1356.52 983.321 1354.67 977.414 1356.67 972.225C1356.83 971.763 1356.11 971.506 1355.9 971.968C1353.85 977.362 1355.75 983.475 1358.27 988.356C1358.52 988.818 1359.19 988.458 1358.99 987.996Z" fill="#584C4C"/>
<path d="M1353.54 983.425C1353.06 981.61 1352.8 979.744 1352.77 977.826C1352.77 977.312 1352 977.261 1352 977.775C1352 979.727 1352.26 981.679 1352.77 983.579C1352.92 984.093 1353.7 983.939 1353.54 983.425Z" fill="#584C4C"/>
<path d="M1437.43 973.099C1437.38 977.876 1436.76 983.373 1434.09 987.431C1433.83 987.894 1434.45 988.304 1434.76 987.894C1437.48 983.681 1438.15 978.03 1438.2 973.15C1438.2 972.636 1437.43 972.585 1437.43 973.099Z" fill="#584C4C"/>
<path d="M1440.25 978.544C1440.25 979.982 1440 981.266 1439.28 982.499C1439.02 982.962 1439.69 983.373 1439.95 982.962C1440.72 981.575 1441.03 980.136 1441.03 978.595C1441.03 978.081 1440.25 978.081 1440.25 978.544Z" fill="#584C4C"/>
<path d="M1355.6 1039.67C1355.8 1039.26 1355.08 1039.01 1354.88 1039.47C1353.95 1041.58 1354.11 1044.3 1354.88 1046.4C1355.03 1046.87 1355.8 1046.71 1355.65 1046.25C1354.93 1044.25 1354.72 1041.73 1355.6 1039.67Z" fill="#584C4C"/>
<path d="M1400.7 1060.48H1395.77C1395.25 1060.48 1395.2 1061.25 1395.72 1061.25H1400.65C1401.16 1061.25 1401.21 1060.48 1400.7 1060.48Z" fill="#584C4C"/>
</g>
</g>
<defs>
<filter id="filter0_d_704_1452" x="-56" y="0" width="1547" height="1598" filterUnits="userSpaceOnUse" color-interpolation-filters="sRGB">
<feFlood flood-opacity="0" result="BackgroundImageFix"/>
<feColorMatrix in="SourceAlpha" type="matrix" values="0 0 0 0 0 0 0 0 0 0 0 0 0 0 0 0 0 0 127 0" result="hardAlpha"/>
<feOffset dy="4"/>
<feGaussianBlur stdDeviation="2"/>
<feComposite in2="hardAlpha" operator="out"/>
<feColorMatrix type="matrix" values="0 0 0 0 0 0 0 0 0 0 0 0 0 0 0 0 0 0 0.25 0"/>
<feBlend mode="normal" in2="BackgroundImageFix" result="effect1_dropShadow_704_1452"/>
<feBlend mode="normal" in="SourceGraphic" in2="effect1_dropShadow_704_1452" result="shape"/>
</filter>
<filter id="filter1_b_704_1452" x="-76.1119" y="-76.1119" width="1592.22" height="1742.22" filterUnits="userSpaceOnUse" color-interpolation-filters="sRGB">
<feFlood flood-opacity="0" result="BackgroundImageFix"/>
<feGaussianBlur in="BackgroundImageFix" stdDeviation="38.0559"/>
<feComposite in2="SourceAlpha" operator="in" result="effect1_backgroundBlur_704_1452"/>
<feBlend mode="normal" in="SourceGraphic" in2="effect1_backgroundBlur_704_1452" result="shape"/>
</filter>
<filter id="filter2_dd_704_1452" x="-150" y="266" width="368" height="350" filterUnits="userSpaceOnUse" color-interpolation-filters="sRGB">
<feFlood flood-opacity="0" result="BackgroundImageFix"/>
<feColorMatrix in="SourceAlpha" type="matrix" values="0 0 0 0 0 0 0 0 0 0 0 0 0 0 0 0 0 0 127 0" result="hardAlpha"/>
<feOffset dx="40" dy="32"/>
<feGaussianBlur stdDeviation="25"/>
<feComposite in2="hardAlpha" operator="out"/>
<feColorMatrix type="matrix" values="0 0 0 0 0 0 0 0 0 0 0 0 0 0 0 0 0 0 0.1 0"/>
<feBlend mode="normal" in2="BackgroundImageFix" result="effect1_dropShadow_704_1452"/>
<feColorMatrix in="SourceAlpha" type="matrix" values="0 0 0 0 0 0 0 0 0 0 0 0 0 0 0 0 0 0 127 0" result="hardAlpha"/>
<feOffset dx="-29" dy="-19"/>
<feGaussianBlur stdDeviation="34.5"/>
<feComposite in2="hardAlpha" operator="out"/>
<feColorMatrix type="matrix" values="0 0 0 0 1 0 0 0 0 1 0 0 0 0 1 0 0 0 0.67 0"/>
<feBlend mode="normal" in2="effect1_dropShadow_704_1452" result="effect2_dropShadow_704_1452"/>
<feBlend mode="normal" in="SourceGraphic" in2="effect2_dropShadow_704_1452" result="shape"/>
</filter>
<filter id="filter3_dd_704_1452" x="1212" y="840" width="365" height="347" filterUnits="userSpaceOnUse" color-interpolation-filters="sRGB">
<feFlood flood-opacity="0" result="BackgroundImageFix"/>
<feColorMatrix in="SourceAlpha" type="matrix" values="0 0 0 0 0 0 0 0 0 0 0 0 0 0 0 0 0 0 127 0" result="hardAlpha"/>
<feOffset dx="40" dy="32"/>
<feGaussianBlur stdDeviation="25"/>
<feComposite in2="hardAlpha" operator="out"/>
<feColorMatrix type="matrix" values="0 0 0 0 0 0 0 0 0 0 0 0 0 0 0 0 0 0 0.1 0"/>
<feBlend mode="normal" in2="BackgroundImageFix" result="effect1_dropShadow_704_1452"/>
<feColorMatrix in="SourceAlpha" type="matrix" values="0 0 0 0 0 0 0 0 0 0 0 0 0 0 0 0 0 0 127 0" result="hardAlpha"/>
<feOffset dx="-29" dy="-19"/>
<feGaussianBlur stdDeviation="33"/>
<feComposite in2="hardAlpha" operator="out"/>
<feColorMatrix type="matrix" values="0 0 0 0 1 0 0 0 0 1 0 0 0 0 1 0 0 0 0.6 0"/>
<feBlend mode="normal" in2="effect1_dropShadow_704_1452" result="effect2_dropShadow_704_1452"/>
<feBlend mode="normal" in="SourceGraphic" in2="effect2_dropShadow_704_1452" result="shape"/>
</filter>
<filter id="filter4_d_704_1452" x="1213" y="98" width="116" height="116" filterUnits="userSpaceOnUse" color-interpolation-filters="sRGB">
<feFlood flood-opacity="0" result="BackgroundImageFix"/>
<feColorMatrix in="SourceAlpha" type="matrix" values="0 0 0 0 0 0 0 0 0 0 0 0 0 0 0 0 0 0 127 0" result="hardAlpha"/>
<feOffset dx="2" dy="4"/>
<feGaussianBlur stdDeviation="10"/>
<feComposite in2="hardAlpha" operator="out"/>
<feColorMatrix type="matrix" values="0 0 0 0 0.366262 0 0 0 0 0.355115 0 0 0 0 0.9125 0 0 0 0.25 0"/>
<feBlend mode="normal" in2="BackgroundImageFix" result="effect1_dropShadow_704_1452"/>
<feBlend mode="normal" in="SourceGraphic" in2="effect1_dropShadow_704_1452" result="shape"/>
</filter>
<filter id="filter5_d_704_1452" x="84" y="1100" width="116" height="116" filterUnits="userSpaceOnUse" color-interpolation-filters="sRGB">
<feFlood flood-opacity="0" result="BackgroundImageFix"/>
<feColorMatrix in="SourceAlpha" type="matrix" values="0 0 0 0 0 0 0 0 0 0 0 0 0 0 0 0 0 0 127 0" result="hardAlpha"/>
<feOffset dx="2" dy="4"/>
<feGaussianBlur stdDeviation="10"/>
<feComposite in2="hardAlpha" operator="out"/>
<feColorMatrix type="matrix" values="0 0 0 0 0.366262 0 0 0 0 0.355115 0 0 0 0 0.9125 0 0 0 0.25 0"/>
<feBlend mode="normal" in2="BackgroundImageFix" result="effect1_dropShadow_704_1452"/>
<feBlend mode="normal" in="SourceGraphic" in2="effect1_dropShadow_704_1452" result="shape"/>
</filter>
<linearGradient id="paint0_linear_704_1452" x1="-115.5" y1="271" x2="128" y2="534" gradientUnits="userSpaceOnUse">
<stop stop-color="white" stop-opacity="0.35"/>
<stop offset="1" stop-color="white" stop-opacity="0.58"/>
</linearGradient>
<linearGradient id="paint1_linear_704_1452" x1="1222" y1="847.5" x2="1487" y2="1105" gradientUnits="userSpaceOnUse">
<stop stop-color="white" stop-opacity="0.35"/>
<stop offset="1" stop-color="white" stop-opacity="0.58"/>
</linearGradient>
</defs>
</svg>
