<svg width="20" height="20" viewBox="0 0 20 20" fill="none" xmlns="http://www.w3.org/2000/svg">
<path d="M2.5 4.14172C2.5 2.77506 3.61667 1.66675 5 1.66675H15C16.3833 1.66675 17.5 2.77506 17.5 4.14172V13.2334C17.5 14.6001 16.3833 15.7084 15 15.7084H14.3667C13.7 15.7084 13.0667 15.9667 12.6 16.4334L11.175 17.8417C10.525 18.4834 9.46668 18.4834 8.81668 17.8417L7.39166 16.4334C6.925 15.9667 6.28333 15.7084 5.625 15.7084H5C3.61667 15.7084 2.5 14.6001 2.5 13.2334V7.52511" stroke="#292D32" stroke-width="1.25" stroke-miterlimit="10" stroke-linecap="round" stroke-linejoin="round"/>
<path d="M9.99991 8.33351C11.0723 8.33351 11.9416 7.46418 11.9416 6.39183C11.9416 5.31947 11.0723 4.4502 9.99991 4.4502C8.92756 4.4502 8.05823 5.31947 8.05823 6.39183C8.05823 7.46418 8.92756 8.33351 9.99991 8.33351Z" stroke="#292D32" stroke-width="1.25" stroke-linecap="round" stroke-linejoin="round"/>
<path d="M13.3333 13.0501C13.3333 11.5501 11.8416 10.3335 9.99996 10.3335C8.15829 10.3335 6.66663 11.5501 6.66663 13.0501" stroke="#292D32" stroke-width="1.25" stroke-linecap="round" stroke-linejoin="round"/>
</svg>
