<svg width="20" height="20" viewBox="0 0 20 20" fill="none" xmlns="http://www.w3.org/2000/svg">
<path d="M15.0167 15.8C16.45 14.8333 16.45 14.8333 16.45 13.3166V9.17498C16.45 7.65832 16.45 7.65832 15.0167 6.69165L11.075 4.41665C10.4833 4.07498 9.51667 4.07498 8.925 4.41665L4.98334 6.69998C3.55 7.66665 3.55 7.66665 3.55 9.18332V13.325C3.55 14.8416 3.55 14.8416 4.98334 15.8083L8.925 18.0833C9.51667 18.425 10.4833 18.425 11.075 18.0833L12.3417 17.35" stroke="#292D32" stroke-width="1.25" stroke-linecap="round" stroke-linejoin="round"/>
<path d="M14.5833 6.35841V4.16675C14.5833 2.50008 13.75 1.66675 12.0833 1.66675H7.91666C6.25 1.66675 5.41666 2.50008 5.41666 4.16675V6.30008" stroke="#292D32" stroke-width="1.25" stroke-linecap="round" stroke-linejoin="round"/>
<path d="M10.2333 13.6833C10.1083 13.6333 9.9 13.6333 9.775 13.6833L8.95833 14.0083C8.45833 14.2083 8.075 13.925 8.10833 13.3917L8.15833 12.5167C8.16667 12.3833 8.1 12.1833 8.01667 12.0833L7.45833 11.4083C7.11667 10.9917 7.25833 10.5417 7.78333 10.4083L8.63333 10.1917C8.76667 10.1583 8.93333 10.0333 9 9.92502L9.475 9.18335C9.76667 8.72502 10.2417 8.72502 10.5333 9.18335L11.0083 9.92502C11.0833 10.0417 11.25 10.1583 11.375 10.1917L12.225 10.4083C12.75 10.5417 12.8917 10.9917 12.55 11.4083L11.9917 12.0833C11.9083 12.1917 11.8417 12.3833 11.85 12.5167" stroke="#292D32" stroke-width="1.25" stroke-linecap="round" stroke-linejoin="round"/>
</svg>
