<svg width="20" height="20" viewBox="0 0 20 20" fill="none" xmlns="http://www.w3.org/2000/svg">
<path d="M2.50864 13.0916C2.50864 16.8333 4.00864 18.3333 7.75031 18.3333H12.242C15.9836 18.3333 17.4836 16.8333 17.4836 13.0916V9.34998" stroke="#292D32" stroke-width="1.25" stroke-linecap="round" stroke-linejoin="round"/>
<path d="M10.0003 9.99996C11.5253 9.99996 12.6503 8.75829 12.5003 7.23329L11.9503 1.66663H8.05864L7.50031 7.23329C7.35031 8.75829 8.47531 9.99996 10.0003 9.99996Z" stroke="#292D32" stroke-width="1.25" stroke-linecap="round" stroke-linejoin="round"/>
<path d="M15.2586 9.99996C16.942 9.99996 18.1753 8.63329 18.0086 6.95829L17.7753 4.66663C17.4753 2.49996 16.642 1.66663 14.4586 1.66663H11.917L12.5003 7.50829C12.642 8.88329 13.8836 9.99996 15.2586 9.99996Z" stroke="#292D32" stroke-width="1.25" stroke-linecap="round" stroke-linejoin="round"/>
<path d="M4.70031 9.99996C6.07531 9.99996 7.31698 8.88329 7.45031 7.50829L7.63364 5.66663L8.03364 1.66663H5.49198C3.30864 1.66663 2.47531 2.49996 2.17531 4.66663L1.95031 6.95829C1.78364 8.63329 3.01698 9.99996 4.70031 9.99996Z" stroke="#292D32" stroke-width="1.25" stroke-linecap="round" stroke-linejoin="round"/>
<path d="M10.0003 14.1666C8.60864 14.1666 7.91698 14.8583 7.91698 16.25V18.3333H12.0836V16.25C12.0836 14.8583 11.392 14.1666 10.0003 14.1666Z" stroke="#292D32" stroke-width="1.25" stroke-linecap="round" stroke-linejoin="round"/>
</svg>
