<svg width="20" height="20" viewBox="0 0 20 20" fill="none" xmlns="http://www.w3.org/2000/svg">
<path d="M1.66666 5.61673C1.66666 2.8084 2.36666 2.1084 5.175 2.1084H13.95C16.7583 2.1084 17.4583 2.8084 17.4583 5.61673" stroke="#292D32" stroke-width="1.25" stroke-linecap="round" stroke-linejoin="round"/>
<path d="M8.33333 14.1253H5.175C2.36666 14.1253 1.66666 13.4253 1.66666 10.617V9.04199" stroke="#292D32" stroke-width="1.25" stroke-linecap="round" stroke-linejoin="round"/>
<path d="M8.33334 17.8917V14.125" stroke="#292D32" stroke-width="1.25" stroke-linecap="round" stroke-linejoin="round"/>
<path d="M1.66666 10.7915H8.33333" stroke="#292D32" stroke-width="1.25" stroke-linecap="round" stroke-linejoin="round"/>
<path d="M5.61666 17.8916H8.33333" stroke="#292D32" stroke-width="1.25" stroke-linecap="round" stroke-linejoin="round"/>
<path d="M18.3334 10.6669C18.3334 8.69186 17.8417 8.2002 15.8667 8.2002H12.9084C10.9334 8.2002 10.4417 8.69186 10.4417 10.6669V15.4252C10.4417 17.4002 10.9334 17.8919 12.9084 17.8919H15.8667C17.8417 17.8919 18.3334 17.4002 18.3334 15.4252V14.1169" stroke="#292D32" stroke-width="1.25" stroke-linecap="round" stroke-linejoin="round"/>
<path d="M14.3704 15.2082H14.3779" stroke="#292D32" stroke-width="1.66667" stroke-linecap="round" stroke-linejoin="round"/>
</svg>
