<svg width="20" height="20" viewBox="0 0 20 20" fill="none" xmlns="http://www.w3.org/2000/svg">
<path d="M16.6666 9.1915V14.1665C16.6666 17.4998 15.8333 18.3332 12.5 18.3332H7.49998C4.16665 18.3332 3.33331 17.4998 3.33331 14.1665V5.83317C3.33331 2.49984 4.16665 1.6665 7.49998 1.6665H12.5C15.8333 1.6665 16.6666 2.49984 16.6666 5.83317" stroke="#292D32" stroke-width="1.25" stroke-linecap="round" stroke-linejoin="round"/>
<path d="M11.6666 4.5835H8.33331" stroke="#292D32" stroke-width="1.25" stroke-linecap="round" stroke-linejoin="round"/>
<path d="M9.99998 15.9168C10.7133 15.9168 11.2916 15.3385 11.2916 14.6252C11.2916 13.9118 10.7133 13.3335 9.99998 13.3335C9.28661 13.3335 8.70831 13.9118 8.70831 14.6252C8.70831 15.3385 9.28661 15.9168 9.99998 15.9168Z" stroke="#292D32" stroke-width="1.25" stroke-linecap="round" stroke-linejoin="round"/>
</svg>
