<svg width="88" height="74" viewBox="0 0 88 74" fill="none" xmlns="http://www.w3.org/2000/svg">
<g clip-path="url(#clip0_178_1725)">
<path d="M31.4441 48.6441L38.6599 47.064V71.331H24.1285V74.0001H75.0934V71.331H60.5621V45.0386L78.7936 54.0221C79.0365 54.142 79.2953 54.1994 79.551 54.1994C80.1065 54.1994 80.6474 53.9289 80.9768 53.4404L87.7039 43.4706C88.2367 42.6807 88.0308 41.6071 87.244 41.0723C86.4569 40.5369 85.3869 40.7439 84.8543 41.5338L78.9665 50.2595L57.6473 39.7543C57.2987 39.5826 56.9021 39.5348 56.522 39.6172L31.7772 45.0358L3.08583 7.53747C2.50679 6.78051 1.42573 6.63867 0.67286 7.21947C-0.080951 7.80042 -0.222721 8.88457 0.355998 9.64108L29.7122 48.0084C30.118 48.5389 30.7911 48.7864 31.4441 48.6441Z" fill="url(#paint0_linear_178_1725)"/>
<path d="M20.2569 26.2573C23.2873 29.5446 27.8814 34.1067 30.094 39.0801C30.2747 39.4168 30.4489 39.719 30.6185 39.9929C30.9195 40.6851 31.4061 41.2564 32.0036 41.6635C32.1974 41.8106 32.3896 41.9176 32.5829 41.9908C33.3455 42.339 34.2232 42.4485 35.1016 42.2391L57.0646 37.0089L76.0861 46.0011C76.6248 46.2556 77.1919 46.3761 77.7501 46.3761C79.2177 46.3761 80.6245 45.5433 81.2912 44.1229C82.2115 42.1615 81.3737 39.823 79.4197 38.8991L59.1601 29.3218C58.358 28.943 57.4524 28.8486 56.5904 29.0538L48.8568 30.8954C48.4438 31.6174 47.7564 32.1809 46.8936 32.4116L33.1831 36.0789C33.003 36.1269 32.8175 36.1596 32.6321 36.1758C31.5143 36.2735 30.4455 35.7935 29.7728 34.8914L22.0127 24.4853C20.948 23.0573 21.2392 21.0263 22.662 19.9578C23.1437 19.596 23.7139 19.377 24.3108 19.3249C25.4298 19.227 26.4999 19.7071 27.1729 20.6092L33.6279 29.2652L37.0597 28.3472C34.8346 24.4847 32.4309 21.8258 28.5477 18.5942C24.8 15.5129 20.7433 16.3157 18.8205 18.293C16.8979 20.2694 17.8568 24.0714 20.2569 26.2573Z" fill="#646665"/>
<path d="M9.0008 11.1049C9.17768 11.3595 9.42145 11.5863 9.71629 11.7515C9.69551 12.3181 9.8971 12.8629 10.2393 13.2662C10.602 13.6934 11.0992 13.962 11.6459 14.026C11.7619 14.3441 11.9456 14.6218 12.1687 14.8377C12.7479 15.3984 13.554 15.5818 14.2805 15.3783C14.4101 15.5193 14.5524 15.6382 14.699 15.7321C15.3167 16.1303 16.0864 16.1781 16.7396 15.9038C16.6537 15.5208 16.5752 15.1423 16.5082 14.771C15.7613 15.3006 14.4627 14.7338 14.8814 13.2512C14.2785 15.3861 11.6351 14.0302 13.0065 12.2896C11.6351 14.0302 9.71003 11.7619 11.6408 10.6803C9.71003 11.7619 8.79671 8.9268 10.9928 8.66925C8.79671 8.9268 9.03344 5.95752 11.1607 6.56249C9.03341 5.95752 10.3851 3.30448 12.1193 4.68053C10.3851 3.30445 12.6451 1.37263 13.7228 3.30994C12.6451 1.37263 15.4697 0.45603 15.7263 2.66C15.519 0.87985 17.4088 0.693328 17.8259 1.81205C18.0301 1.35488 18.224 0.973959 18.3919 0.668615C18.2718 0.542948 18.1427 0.43383 18.0084 0.347823C17.2253 -0.156854 16.1939 -0.106927 15.4701 0.462405C15.4324 0.444914 15.3943 0.428523 15.3554 0.412823C14.6031 0.116648 13.7504 0.262035 13.1297 0.792555C12.9501 0.946106 12.7827 1.14349 12.6508 1.3785C12.1078 1.3557 11.5717 1.54009 11.1459 1.90399C10.7206 2.26755 10.454 2.76937 10.3899 3.31104C10.1374 3.40468 9.91653 3.53904 9.73691 3.6926C9.11663 4.22277 8.83791 5.04453 9.01013 5.83763C9.01914 5.87851 9.02884 5.91852 9.04007 5.95862C8.36448 6.58472 8.15122 7.59866 8.52346 8.45531C8.59258 8.61574 8.68682 8.77545 8.80484 8.9263C8.4891 9.61376 8.5412 10.4416 9.0008 11.1049Z" fill="#646665"/>
<path d="M17.6712 15.7634C18.1648 15.8748 18.6792 15.8087 19.1306 15.5819C22.803 15.6285 25.9328 12.811 26.2303 9.08287C26.5108 5.56725 24.1768 2.44781 20.8635 1.65019C20.7696 1.49868 20.661 1.36074 20.5392 1.24245C20.2337 0.94665 19.8651 0.758998 19.4787 0.674561C18.6642 2.03592 15.8199 7.57233 17.6712 15.7634Z" fill="#646665"/>
<path d="M26.5972 21.0421C25.7685 19.9316 24.2004 19.7043 23.0933 20.536C21.9865 21.3674 21.7608 22.9416 22.589 24.0525L30.3492 34.4587C30.8737 35.1621 31.7179 35.5307 32.5699 35.4563C32.713 35.4438 32.8562 35.4188 32.9979 35.3809L46.7084 31.7136C48.0441 31.3563 48.8384 29.98 48.4825 28.6393C48.126 27.2985 46.7505 26.5007 45.4191 26.8589L33.3435 30.0888L26.5972 21.0421Z" fill="#646665"/>
</g>
<defs>
<linearGradient id="paint0_linear_178_1725" x1="4.78261" y1="6.86207" x2="105.475" y2="37.7753" gradientUnits="userSpaceOnUse">
<stop offset="0.00164986" stop-color="#5552FF"/>
<stop offset="0.489583" stop-color="#00C1EB"/>
<stop offset="1" stop-color="#00E3AD"/>
</linearGradient>
<clipPath id="clip0_178_1725">
<rect width="88" height="74" fill="white"/>
</clipPath>
</defs>
</svg>
