<svg width="64" height="64" viewBox="0 0 64 64" fill="none" xmlns="http://www.w3.org/2000/svg">
<path d="M36.036 33.6085H46.7527C47.0571 33.6085 47.349 33.7294 47.5642 33.9446C47.7794 34.1599 47.9003 34.4518 47.9003 34.7561V41.1727C47.9003 41.4773 47.7794 41.7694 47.564 41.9847C47.3487 42.2001 47.0566 42.3211 46.752 42.3211H36.036C35.7315 42.3211 35.4394 42.2001 35.224 41.9847C35.0087 41.7694 34.8877 41.4773 34.8877 41.1727V34.7568C34.8877 34.606 34.9174 34.4567 34.9751 34.3174C35.0328 34.1781 35.1174 34.0515 35.224 33.9449C35.3307 33.8382 35.4573 33.7536 35.5966 33.6959C35.7359 33.6382 35.8852 33.6085 36.036 33.6085Z" fill="#222A4D"/>
<path d="M52.8933 29.5698C52.6462 29.5698 52.3991 29.5594 52.1546 29.5386V35.755H52.165V51.4702C52.1664 51.5642 52.1733 51.658 52.1858 51.7511H29.1462C29.1358 49.5949 29.1462 35.9995 29.1358 33.8251L17.5587 33.9681V51.7511H11.8131C11.8256 51.658 11.8326 51.5642 11.8339 51.4702V35.755H11.8443V29.5386C11.5998 29.5594 11.3527 29.5698 11.1057 29.5698C9.88165 29.5703 8.66996 29.3253 7.54229 28.8493L7.50586 55.4706H56.454L56.4567 28.852C55.3287 29.3266 54.1171 29.5707 52.8933 29.5698Z" fill="#222A4D"/>
<path d="M63.1149 22.6517L58.4259 8.52942H5.57425L0.885247 22.6517C0.885247 22.6517 0.818247 22.6517 0.885247 22.6547C2.991 22.7008 5.00645 23.5189 6.54857 24.9536C6.9005 25.3062 7.29297 25.6159 7.71776 25.8761C8.95249 26.6388 10.4084 26.9627 11.85 26.7952C13.2916 26.6278 14.6346 25.9789 15.6617 24.9536C16.9881 23.6659 18.7052 22.8561 20.5425 22.6517H22.4302C24.2891 22.8622 26.0295 23.6699 27.3902 24.9536C28.6205 26.1615 30.2759 26.8383 32 26.8383C33.7242 26.8383 35.3796 26.1615 36.6099 24.9536C37.9706 23.6699 39.711 22.8622 41.5699 22.6517H43.4576C45.2949 22.8561 47.012 23.6659 48.3384 24.9536C49.3655 25.9789 50.7085 26.6278 52.1501 26.7952C53.5917 26.9627 55.0476 26.6388 56.2823 25.8761C56.7071 25.6159 57.0996 25.3062 57.4515 24.9536C58.9937 23.5189 61.0091 22.7008 63.1149 22.6547C63.1819 22.6517 63.1149 22.6517 63.1149 22.6517Z" fill="#8661C1"/>
</svg>
