<svg width="500" height="500" viewBox="0 0 500 500" fill="none" xmlns="http://www.w3.org/2000/svg">
<path d="M409.539 284.78H334.359V368.04H409.539V284.78Z" fill="#EBEBEB"/>
<path d="M448.36 284.78H409.54V368.04H448.36V284.78Z" fill="#DBDBDB"/>
<path d="M445.69 362.3C442.816 356.38 439.966 350.44 437.14 344.48L428.72 326.58L420.41 308.58C417.65 302.58 414.92 296.553 412.22 290.5C415.086 296.42 417.933 302.36 420.76 308.32L429.19 326.23L437.5 344.23C440.26 350.23 442.99 356.253 445.69 362.3Z" fill="#EBEBEB"/>
<path d="M445.69 290.51C442.99 296.563 440.26 302.59 437.5 308.59L429.19 326.59L420.76 344.5C417.94 350.447 415.093 356.383 412.22 362.31C414.886 356.27 417.616 350.247 420.41 344.24L428.72 326.24L437.14 308.33C439.96 302.37 442.81 296.43 445.69 290.51Z" fill="#EBEBEB"/>
<path d="M409.539 159.04H334.359V236.56H409.539V159.04Z" fill="#EBEBEB"/>
<path d="M448.36 159.04H409.54V236.56H448.36V159.04Z" fill="#DBDBDB"/>
<path d="M378.33 177.03H376.74H375.55L374.86 175.64L373.9 177.03L372.61 174.18L371.38 177.03H367.86H366.25L365.67 175.13L365.12 177.03H364.08V159.04H378.33V177.03Z" fill="#DBDBDB"/>
<path d="M445.69 231.61C442.816 226.097 439.966 220.567 437.14 215.02L428.72 198.35L420.41 181.6C417.65 176.007 414.92 170.397 412.22 164.77C415.086 170.277 417.933 175.807 420.76 181.36L429.19 198L437.5 214.74C440.26 220.36 442.99 225.983 445.69 231.61Z" fill="#EBEBEB"/>
<path d="M445.69 164.77C442.99 170.397 440.26 176.007 437.5 181.6L429.19 198.35L420.76 215C417.94 220.547 415.093 226.077 412.22 231.59C414.886 225.97 417.616 220.36 420.41 214.76L428.72 198L437.14 181.32C439.96 175.773 442.81 170.257 445.69 164.77Z" fill="#EBEBEB"/>
<path d="M404.59 223.4H396.24V231.75H404.59V223.4Z" fill="white"/>
<path d="M131.8 217.68H56.6201V295.2H131.8V217.68Z" fill="#EBEBEB"/>
<path d="M170.62 217.68H131.8V295.2H170.62V217.68Z" fill="#DBDBDB"/>
<path d="M168 290.26C165.12 284.74 162.27 279.21 159.45 273.67L151 257L142.68 240.26C139.933 234.673 137.207 229.063 134.5 223.43C137.373 228.943 140.22 234.47 143.04 240.01L151.47 256.69L159.78 273.44C162.527 279.02 165.267 284.627 168 290.26Z" fill="#EBEBEB"/>
<path d="M168 223.42C165.293 229.04 162.563 234.65 159.81 240.25L151.45 257L143 273.67C140.18 279.217 137.333 284.747 134.46 290.26C137.16 284.633 139.887 279.023 142.64 273.43L151 256.68L159.4 240C162.22 234.46 165.087 228.933 168 223.42Z" fill="#EBEBEB"/>
<path d="M126.85 282.04H118.5V290.39H126.85V282.04Z" fill="white"/>
<path d="M414.55 236.56H339.37V284.78H414.55V236.56Z" fill="#DBDBDB"/>
<path d="M453.37 236.56H414.55V284.78H453.37V236.56Z" fill="#C7C7C7"/>
<path d="M383.34 254.55H381.75H380.55L379.87 253.17L378.91 254.55L377.62 251.7L376.39 254.55H372.87H371.26L370.68 252.65L370.13 254.55H369.09V236.56H383.34V254.55Z" fill="white"/>
<path d="M450.699 281.91C447.819 278.41 444.969 274.897 442.149 271.37L433.729 260.77L425.419 250.13C422.659 246.57 419.929 243.003 417.229 239.43C420.103 242.93 422.949 246.443 425.769 249.97L434.199 260.57L442.509 271.21C445.269 274.77 447.999 278.337 450.699 281.91Z" fill="#DBDBDB"/>
<path d="M450.699 239.43C447.999 243.01 445.269 246.573 442.509 250.12L434.199 260.77L425.769 271.37C422.949 274.89 420.103 278.403 417.229 281.91C419.896 278.33 422.626 274.763 425.419 271.21L433.729 260.57L442.149 249.97C444.969 246.45 447.819 242.937 450.699 239.43Z" fill="#DBDBDB"/>
<path d="M126.86 169.46H51.6797V217.68H126.86V169.46Z" fill="#DBDBDB"/>
<path d="M165.69 169.46H126.87V217.68H165.69V169.46Z" fill="#C7C7C7"/>
<path d="M95.6494 187.45H94.0594H92.8694L92.1794 186.07L91.2294 187.45L89.9294 184.6L88.6994 187.45H85.1794H83.5694L82.9894 185.55L82.4394 187.45H81.3994V169.46H95.6494V187.45Z" fill="white"/>
<path d="M163 214.81C160.127 211.31 157.28 207.797 154.46 204.27L146 193.67L137.73 183C134.97 179.44 132.24 175.873 129.54 172.3C132.42 175.8 135.27 179.313 138.09 182.84L146.51 193.44L154.82 204.08C157.607 207.66 160.333 211.237 163 214.81Z" fill="#DBDBDB"/>
<path d="M163 172.33C160.334 175.91 157.604 179.477 154.81 183.03L146.5 193.67L138.08 204.27C135.26 207.79 132.41 211.303 129.53 214.81C132.23 211.23 134.96 207.663 137.72 204.11L146 193.47L154.43 182.87C157.277 179.35 160.134 175.837 163 172.33Z" fill="#DBDBDB"/>
<path d="M121.81 295.2H46.6299V368.03H121.81V295.2Z" fill="#DBDBDB"/>
<path d="M160.63 295.2H121.81V368.03H160.63V295.2Z" fill="#C7C7C7"/>
<path d="M90.5998 313.2H89.0098H87.8098L87.1298 311.81L86.1698 313.2L84.8699 310.34L83.6398 313.2H80.1199H78.5198L77.9398 311.29L77.3898 313.2H76.3398V295.2H90.5998V313.2Z" fill="white"/>
<path d="M158 363.7C155.12 358.413 152.27 353.107 149.45 347.78L141.03 331.78L132.71 315.7C129.95 310.367 127.22 304.983 124.52 299.55C127.4 304.837 130.25 310.143 133.07 315.47L141.49 331.47L149.81 347.55C152.536 352.91 155.266 358.293 158 363.7Z" fill="#DBDBDB"/>
<path d="M158 299.54C155.286 304.94 152.556 310.323 149.81 315.69L141.49 331.77L133.07 347.77C130.25 353.103 127.4 358.41 124.52 363.69C127.226 358.29 129.956 352.907 132.71 347.54L141 331.47L149.42 315.47C152.233 310.143 155.093 304.833 158 299.54Z" fill="#DBDBDB"/>
<path d="M72.5894 325.06L59.4694 325.33L52.8094 325.45C50.5794 325.45 48.3394 325.45 46.1094 325.5H45.6694V325.06L45.6094 313.87V313.36H46.1094L59.3494 313.42C63.7694 313.42 68.1794 313.53 72.5894 313.58H72.8694V313.85C72.8694 315.74 72.7794 317.63 72.7394 319.5L72.5894 325.06ZM72.5894 325.06L72.4494 319.4C72.4494 317.54 72.3394 315.7 72.3194 313.87L72.5894 314.14C68.1794 314.19 63.7694 314.3 59.3494 314.3L46.1094 314.37L46.6094 313.87V325.06L46.1594 324.61C48.3394 324.61 50.5194 324.61 52.7094 324.66L59.2894 324.78L72.5894 325.06Z" fill="#EBEBEB"/>
<path d="M57.8198 339.17L44.6998 339.44L38.0398 339.56C35.8098 339.56 33.5698 339.56 31.3398 339.61H30.8998V339.17L30.8398 328V327.49H31.3398L44.5798 327.55C48.9898 327.55 53.4098 327.66 57.8198 327.71H58.0998V328C58.0998 329.89 58.0198 331.78 57.9698 333.65L57.8198 339.17ZM57.8198 339.17L57.6798 333.51C57.6798 331.65 57.5698 329.81 57.5498 327.98L57.8198 328.25C53.4098 328.3 48.9898 328.41 44.5798 328.41L31.3398 328.47L31.8398 327.98L31.7898 339.17L31.3398 338.72C33.5198 338.72 35.6998 338.72 37.8898 338.72L44.4698 338.84L57.8198 339.17Z" fill="#EBEBEB"/>
<path d="M338.6 136.6L325.47 136.88L318.81 136.99C316.59 136.99 314.35 136.99 312.12 137.05H311.68V136.6L311.63 125.41V124.91H312.13L325.37 124.97C329.78 124.97 334.2 125.09 338.61 125.14H338.89V125.41C338.89 127.31 338.81 129.2 338.76 131.06L338.6 136.6ZM338.6 136.6L338.46 130.95C338.46 129.08 338.35 127.24 338.33 125.41L338.6 125.68C334.19 125.68 329.77 125.84 325.36 125.85L312.12 125.91L312.62 125.41L312.56 136.6L312.12 136.15C314.3 136.15 316.48 136.15 318.66 136.21L325.24 136.32L338.6 136.6Z" fill="#EBEBEB"/>
<path d="M323.829 150.71L310.699 151L304.039 151.11C301.819 151.16 299.579 151.11 297.349 151.17H296.899V150.72V139.53V139H297.399L310.639 139.06C315.049 139.06 319.459 139.18 323.879 139.23H324.149V139.5C324.149 141.4 324.059 143.29 324.019 145.15L323.829 150.71ZM323.829 150.71L323.689 145.06C323.639 143.19 323.569 141.35 323.549 139.52L323.829 139.79C319.409 139.84 314.999 139.95 310.589 139.96L297.349 140.02L297.849 139.52L297.789 150.71L297.349 150.26C299.529 150.26 301.709 150.26 303.889 150.32L310.469 150.43L323.829 150.71Z" fill="#EBEBEB"/>
<path d="M309.11 136.6L295.99 136.88L289.33 136.99C287.1 136.99 284.87 136.99 282.63 137.05H282.19V136.6L282.13 125.41V124.91H282.63L295.87 124.97C300.29 124.97 304.7 125.09 309.11 125.14H309.39V125.41C309.39 127.31 309.3 129.2 309.26 131.06L309.11 136.6ZM309.11 136.6L309 131C309 129.13 308.89 127.29 308.87 125.46L309.14 125.73C304.73 125.73 300.32 125.89 295.9 125.9L282.66 125.96L283.16 125.46L283.11 136.65L282.66 136.2C284.85 136.2 287.02 136.2 289.21 136.26L295.79 136.37L309.11 136.6Z" fill="#EBEBEB"/>
<path d="M468.66 339.17L455.53 339.44L448.87 339.56C446.65 339.56 444.41 339.56 442.18 339.61H441.73V339.17L441.68 328V327.49H442.18L455.42 327.55C459.83 327.55 464.25 327.66 468.66 327.71H468.93V328C468.93 329.89 468.85 331.78 468.8 333.65L468.66 339.17ZM468.66 339.17L468.52 333.51C468.52 331.65 468.4 329.81 468.39 327.98L468.66 328.25C464.25 328.3 459.83 328.41 455.42 328.41L442.18 328.47L442.68 327.98L442.62 339.17L442.18 338.72C444.36 338.72 446.54 338.72 448.72 338.72L455.3 338.84L468.66 339.17Z" fill="#EBEBEB"/>
<path d="M453.89 65.49L440.76 65.76L434.1 65.88C431.88 65.88 429.64 65.88 427.41 65.93H427V65.48V54.29V53.78H427.51L440.75 53.84C445.16 53.84 449.57 53.95 453.99 54H454.26V54.27C454.26 56.17 454.17 58.05 454.13 59.92L453.89 65.49ZM453.89 65.49L453.75 59.83C453.7 57.97 453.63 56.13 453.61 54.3L453.89 54.57C449.47 54.57 445.06 54.73 440.65 54.73L427.41 54.8L427.91 54.3L427.85 65.49L427.41 65.04C429.59 65.04 431.76 65.04 433.95 65.1L440.53 65.21L453.89 65.49Z" fill="#EBEBEB"/>
<path d="M468.66 79.6L455.53 79.87L448.87 79.99C446.65 79.99 444.41 79.99 442.18 80.04H441.73V79.6L441.68 68.41V67.9H442.18L455.42 67.96C459.83 67.96 464.25 68.07 468.66 68.12H468.93V68.39C468.93 70.28 468.85 72.17 468.8 74.04L468.66 79.6ZM468.66 79.6L468.52 73.94C468.52 72.08 468.4 70.24 468.39 68.41L468.66 68.68C464.25 68.68 459.83 68.84 455.42 68.84L442.18 68.91L442.68 68.41L442.62 79.6L442.18 79.15C444.36 79.15 446.54 79.15 448.72 79.21L455.3 79.32L468.66 79.6Z" fill="#EBEBEB"/>
<path d="M72.5894 65.49L59.4694 65.76L52.8094 65.88C50.5794 65.88 48.3394 65.88 46.1094 65.93H45.6694V65.48L45.6094 54.3V53.79H46.1094L59.3494 53.85C63.7694 53.85 68.1794 53.96 72.5894 54.01H72.8694V54.28C72.8694 56.18 72.7794 58.06 72.7394 59.93L72.5894 65.49ZM72.5894 65.49L72.4494 59.83C72.4494 57.97 72.3394 56.13 72.3194 54.3L72.5894 54.57C68.1794 54.57 63.7694 54.73 59.3494 54.73L46.1094 54.8L46.6094 54.3V65.49L46.1094 65C48.2894 65 50.4694 65 52.6594 65.06L59.2394 65.17L72.5894 65.49Z" fill="#EBEBEB"/>
<path d="M40.29 368.18L92.72 367.93L145.14 367.84L250 367.68L354.86 367.84L407.28 367.93L459.71 368.18L407.28 368.42L354.86 368.51L250 368.67L145.14 368.51L92.72 368.42L40.29 368.18Z" fill="#263238"/>
<path d="M255.96 459.35C375.071 459.35 471.63 448.336 471.63 434.75C471.63 421.164 375.071 410.15 255.96 410.15C136.849 410.15 40.29 421.164 40.29 434.75C40.29 448.336 136.849 459.35 255.96 459.35Z" fill="#EBEBEB"/>
<path d="M169.88 56.3101H140.84V368.04H169.88V56.3101Z" fill="#263238"/>
<path d="M359.16 56.3101H330.12V368.04H359.16V56.3101Z" fill="#455A64"/>
<path d="M330.12 86.88H152.76V97.35H330.12V86.88Z" fill="#37474F"/>
<path d="M330.12 154.55H152.76V165.02H330.12V154.55Z" fill="#37474F"/>
<path d="M330.12 222.22H152.76V232.69H330.12V222.22Z" fill="#37474F"/>
<path d="M330.12 289.89H152.76V300.36H330.12V289.89Z" fill="#37474F"/>
<path d="M330.12 357.56H152.76V368.03H330.12V357.56Z" fill="#37474F"/>
<path d="M228.25 97.8701H173.29V154.54H228.25V97.8701Z" fill="#EBEBEB"/>
<path d="M256.64 97.8701H228.26V154.55H256.64V97.8701Z" fill="#DBDBDB"/>
<path d="M205.44 111.03H204.28H203.4L202.9 110.02L202.2 111.03L201.25 108.94L200.35 111.03H197.78H196.61L196.18 109.64L195.78 111.03H195.02V97.8701H205.44V111.03Z" fill="#DBDBDB"/>
<path d="M254.68 150.93C252.58 146.93 250.497 142.887 248.43 138.8L242.28 126.61L236.2 114.37C234.2 110.277 232.2 106.177 230.2 102.07C232.3 106.07 234.384 110.113 236.45 114.2L242.61 126.39L248.69 138.63C250.71 142.717 252.707 146.817 254.68 150.93Z" fill="#EBEBEB"/>
<path d="M254.679 102.07C252.679 106.183 250.679 110.283 248.679 114.37L242.599 126.61L236.439 138.81C234.379 142.863 232.296 146.903 230.189 150.93C232.189 146.817 234.189 142.717 236.189 138.63L242.269 126.39L248.419 114.2C250.499 110.14 252.586 106.097 254.679 102.07Z" fill="#EBEBEB"/>
<path d="M224.63 144.93H218.53V151.03H224.63V144.93Z" fill="white"/>
<path d="M262.87 186.97H207.91V222.22H262.87V186.97Z" fill="#DBDBDB"/>
<path d="M291.25 186.97H262.87V222.22H291.25V186.97Z" fill="#C7C7C7"/>
<path d="M240.05 200.12H238.89H238.01L237.51 199.11L236.81 200.12L235.87 198.04L234.97 200.12H232.39H231.22L230.79 198.73L230.4 200.12H229.63V186.97H240.05V200.12Z" fill="white"/>
<path d="M289.3 220.12C287.186 217.56 285.103 214.993 283.05 212.42L276.89 204.67L270.81 196.89C268.81 194.29 266.81 191.683 264.81 189.07C266.923 191.63 269.006 194.197 271.06 196.77L277.22 204.52L283.3 212.3C285.326 214.9 287.326 217.507 289.3 220.12Z" fill="#DBDBDB"/>
<path d="M289.3 189.07C287.3 191.683 285.3 194.29 283.3 196.89L277.22 204.67L271.06 212.42C269 214.993 266.916 217.56 264.81 220.12C266.81 217.507 268.81 214.9 270.81 212.3L276.89 204.52L283.05 196.78C285.11 194.2 287.193 191.63 289.3 189.07Z" fill="#DBDBDB"/>
<path d="M458.6 427C458.35 424.65 431.34 366.46 428.91 364.9C427.99 364.29 419.28 367.73 408.91 372.19L408.58 372.33C406.44 373.24 366.85 383.88 366.85 383.88L384.37 422L425.56 410.11L426.19 409.8C426.19 409.8 446.49 427.45 449.35 428.88C452.21 430.31 458.87 429.39 458.6 427Z" fill="#C95F50"/>
<path d="M401 374.58L419 411.97L425.48 410.1L426.12 409.8C426.12 409.8 446.42 427.45 449.27 428.88C452.12 430.31 458.81 429.39 458.53 427.04C458.25 424.69 431.27 366.49 428.84 364.94C427.92 364.33 419.21 367.76 408.84 372.23L408.53 372.37C408 372.6 405.1 373.44 401 374.58Z" fill="#EBEBEB"/>
<path d="M458.829 427.33C458.579 424.96 431.509 366.1 429.059 364.51C428.139 363.9 419.329 367.34 408.819 371.8L426.159 409.8C426.159 409.8 446.599 427.7 449.469 429.16C452.339 430.62 459.089 429.7 458.829 427.33Z" fill="#8661C1"/>
<path d="M456.09 427.57C451.31 417.82 433 378 429 368C429 367.92 429 367.9 429.07 368C434.01 377.56 452.07 417.5 456.28 427.51C456.34 427.71 456.19 427.78 456.09 427.57Z" fill="#263238"/>
<path d="M445.61 426.35C445.078 425.268 444.776 424.086 444.725 422.881C444.673 421.677 444.872 420.474 445.31 419.35C446.073 417.314 447.597 415.654 449.56 414.72C449.62 414.72 449.67 414.8 449.62 414.84C447.82 416.073 446.469 417.857 445.769 419.923C445.069 421.99 445.059 424.227 445.74 426.3C445.77 426.37 445.65 426.43 445.61 426.35Z" fill="#263238"/>
<path d="M428.9 413.18C427.03 409.25 426.31 404.03 428.42 400.09C428.5 399.94 428.71 400.09 428.71 400.2C428.487 404.486 428.722 408.784 429.41 413.02C429.42 413.084 429.407 413.15 429.373 413.205C429.339 413.26 429.286 413.302 429.224 413.321C429.162 413.34 429.095 413.337 429.035 413.311C428.976 413.285 428.928 413.239 428.9 413.18Z" fill="#263238"/>
<path d="M431.489 415.68C429.619 411.75 428.899 406.54 431.009 402.6C431.089 402.44 431.299 402.6 431.299 402.71C431.077 406.993 431.312 411.287 431.999 415.52C432.01 415.584 431.997 415.65 431.963 415.705C431.929 415.76 431.876 415.802 431.814 415.821C431.752 415.84 431.685 415.837 431.625 415.811C431.566 415.785 431.517 415.739 431.489 415.68Z" fill="#263238"/>
<path d="M434.08 418.18C432.21 414.26 431.49 409.04 433.6 405.1C433.68 404.95 433.89 405.1 433.89 405.21C433.668 409.496 433.903 413.794 434.59 418.03C434.597 418.093 434.582 418.156 434.547 418.209C434.511 418.262 434.459 418.301 434.398 418.319C434.337 418.336 434.272 418.332 434.214 418.307C434.156 418.282 434.108 418.237 434.08 418.18Z" fill="#263238"/>
<path d="M436.67 420.68C434.8 416.76 434.09 411.54 436.19 407.6C436.27 407.45 436.48 407.6 436.48 407.71C436.258 411.996 436.492 416.294 437.18 420.53C437.187 420.593 437.171 420.656 437.136 420.709C437.101 420.762 437.048 420.801 436.988 420.819C436.927 420.836 436.862 420.832 436.803 420.807C436.745 420.782 436.698 420.737 436.67 420.68Z" fill="#263238"/>
<path d="M420.759 374.84C418.759 370.4 425.629 367.25 427.649 371.69C429.669 376.13 422.789 379.28 420.759 374.84Z" fill="#263238"/>
<path d="M425.999 419.31C427.769 415.92 427.999 411.87 428.659 408.17C428.668 408.087 428.657 408.003 428.626 407.926C428.596 407.848 428.547 407.779 428.485 407.724C428.422 407.669 428.347 407.63 428.266 407.61C428.185 407.59 428.1 407.59 428.019 407.61C428.019 407.54 427.929 407.49 427.849 407.53C424.36 409.49 421.447 412.331 419.399 415.77C418.249 417.77 417.779 421.05 420.399 422.29C423.019 423.53 424.929 421.3 425.999 419.31ZM422.779 421C418.299 422.58 419.779 417.19 420.779 415.73C421.382 414.794 422.05 413.901 422.779 413.06C424.305 411.342 425.917 409.704 427.609 408.15C427.169 409.95 426.899 411.77 426.539 413.59C426.049 415.75 425.249 420.13 422.779 421Z" fill="#263238"/>
<path d="M418.84 394.67C416.41 396.16 417.2 399.36 418.56 401.26C420.95 404.467 424.139 406.991 427.81 408.58C427.826 408.586 427.844 408.588 427.861 408.587C427.879 408.586 427.896 408.581 427.911 408.572C427.926 408.564 427.939 408.552 427.95 408.537C427.96 408.523 427.967 408.507 427.97 408.49C428.29 408.49 428.66 408.24 428.55 407.86C427.55 404.24 426.87 400.25 424.76 397.05C423.53 395.18 421.15 393.25 418.84 394.67ZM425.84 402.67C426.39 404.44 426.84 406.23 427.46 407.97C425.66 406.54 423.81 405.19 422.15 403.58C421.346 402.812 420.591 401.994 419.89 401.13C418.84 399.77 416.77 394.56 421.39 395.68C424 396.31 425.21 400.59 425.87 402.69L425.84 402.67Z" fill="#263238"/>
<path d="M314.869 259.68C314.869 259.68 315.599 282.49 319.019 293.73C319.019 293.73 322.749 295.73 323.869 296.39C323.869 296.39 295.529 364.25 297.139 390.39C297.669 398.95 307.369 413.02 317.139 419.11C334.459 429.89 419.029 420.43 419.029 420.43L406.759 369.59C406.759 369.59 353.289 372.59 351.939 369.67C350.229 366 360.869 337.46 369.379 314.27C370.229 311.93 378.789 303.27 377.789 287.65C377.029 277.974 374.536 268.514 370.429 259.72L314.869 259.68Z" fill="#37474F"/>
<path d="M397 375.2C385.33 374.98 375.83 375.97 364.16 375.98H351C349.992 376.003 348.986 375.909 348 375.7C347.07 375.546 346.232 375.051 345.65 374.31C344.88 373.15 345.29 371.68 345.56 370.43C346.146 367.69 346.813 364.963 347.56 362.25C350.5 351.25 354.34 340.47 357.95 329.66L363.43 313C363.88 311.65 364.33 310.29 364.9 309C365.443 307.798 366.058 306.629 366.74 305.5C368.06 303.339 369.121 301.029 369.9 298.62C373.06 288.25 370.03 277.52 366.34 267.73C365.84 266.42 365.34 265.11 364.79 263.81C364.79 263.72 364.61 263.76 364.65 263.86C368.01 274.19 372.02 284.94 369.76 295.96C369.238 298.554 368.332 301.055 367.07 303.38C366.42 304.56 365.71 305.71 365.07 306.9C364.441 308.114 363.896 309.371 363.44 310.66C361.44 316.13 359.72 321.66 357.87 327.22C354.18 338.22 350.3 349.14 347.23 360.31C346.47 363.09 345.76 365.89 345.13 368.7C344.67 370.78 343.63 373.6 345.44 375.32C346.77 376.58 348.85 376.73 350.58 376.75C353.49 376.75 356.39 376.75 359.3 376.75C371.13 376.75 395.56 375.75 397.03 375.7C397.096 375.696 397.158 375.666 397.202 375.616C397.246 375.566 397.269 375.501 397.265 375.435C397.261 375.369 397.231 375.307 397.181 375.263C397.131 375.218 397.066 375.196 397 375.2Z" fill="#263238"/>
<path d="M410.07 418C408.93 412.06 407.83 406.09 406.52 400.19C405.21 394.29 403.78 388.37 402.25 382.5C401.81 380.84 401.37 379.19 400.92 377.5C400.71 376.71 400.5 375.93 400.27 375.14C400.077 374.335 399.833 373.544 399.54 372.77C399.54 372.69 399.39 372.77 399.4 372.82C399.561 374.357 399.832 375.881 400.21 377.38C400.5 378.81 400.77 380.25 401.07 381.68C401.683 384.627 402.307 387.57 402.94 390.51C404.23 396.4 405.69 402.24 407.19 408.08C408.05 411.39 408.9 414.71 409.77 418.02C409.82 418.27 410.11 418.23 410.07 418Z" fill="#263238"/>
<path d="M306.85 342.81L366.85 321.07C367.69 318.76 368.53 316.47 369.35 314.23C370.17 311.99 378.76 303.23 377.77 287.6C377.015 277.926 374.522 268.468 370.41 259.68H314.87C314.87 259.68 315.59 282.49 319.02 293.68C319.02 293.68 322.75 295.68 323.87 296.35C323.87 296.39 314.51 318.79 306.85 342.81Z" fill="#263238"/>
<path d="M215.59 429.77C217.85 430.45 281.97 428.33 284.36 426.7C285.28 426.1 285.51 416.7 285.47 405.42V405.06C285.47 402.73 280.16 363.62 280.16 363.62L235.28 365L244.09 406V406.7C244.09 406.7 220 418.46 217.51 420.53C215.02 422.6 213.32 429.1 215.59 429.77Z" fill="#C95F50"/>
<path d="M215.589 429.78C217.849 430.46 281.969 428.33 284.359 426.7C285.279 426.09 285.519 416.7 285.469 405.42V405.06C285.469 404.42 285.069 401.06 284.469 396.45L242.369 398.09L244.049 405.97V406.67C244.049 406.67 219.859 418.46 217.419 420.53C214.979 422.6 213.319 429.1 215.589 429.78Z" fill="#EBEBEB"/>
<path d="M215.1 430.05C217.39 430.73 282.1 428.58 284.55 426.94C285.47 426.32 285.71 416.87 285.67 405.45L243.92 406.72C243.92 406.72 219.5 418.63 217.04 420.72C214.58 422.81 212.81 429.37 215.1 430.05Z" fill="#8661C1"/>
<path d="M215.94 427.43C226.79 426.8 270.58 425.3 281.35 425.5C281.44 425.5 281.44 425.56 281.35 425.57C270.62 426.42 226.81 427.57 215.95 427.57C215.72 427.61 215.71 427.45 215.94 427.43Z" fill="#263238"/>
<path d="M221.13 418.25C222.335 418.177 223.542 418.355 224.675 418.773C225.808 419.192 226.841 419.841 227.71 420.68C229.284 422.176 230.223 424.221 230.33 426.39C230.33 426.46 230.21 426.46 230.2 426.39C229.756 424.255 228.633 422.321 226.998 420.879C225.362 419.436 223.303 418.563 221.13 418.39C221.111 418.39 221.093 418.383 221.08 418.369C221.067 418.356 221.06 418.338 221.06 418.32C221.06 418.301 221.067 418.284 221.08 418.27C221.093 418.257 221.111 418.25 221.13 418.25Z" fill="#263238"/>
<path d="M239.74 407.93C244.09 407.73 249.17 409.1 251.99 412.56C252.1 412.69 251.91 412.85 251.78 412.78C247.913 410.921 243.86 409.476 239.69 408.47C239.654 408.467 239.62 408.456 239.588 408.44C239.557 408.423 239.529 408.4 239.506 408.373C239.483 408.346 239.466 408.314 239.455 408.28C239.445 408.246 239.441 408.21 239.445 408.175C239.448 408.139 239.458 408.105 239.475 408.073C239.491 408.042 239.514 408.014 239.541 407.991C239.569 407.969 239.6 407.951 239.634 407.941C239.668 407.93 239.704 407.927 239.74 407.93Z" fill="#263238"/>
<path d="M236.43 409.35C240.78 409.15 245.86 410.51 248.68 413.98C248.79 414.11 248.6 414.26 248.47 414.2C244.605 412.337 240.552 410.892 236.38 409.89C236.308 409.883 236.242 409.848 236.196 409.793C236.15 409.738 236.128 409.667 236.135 409.595C236.142 409.523 236.176 409.457 236.232 409.411C236.287 409.365 236.358 409.343 236.43 409.35Z" fill="#263238"/>
<path d="M233.119 410.77C237.469 410.57 242.549 411.93 245.369 415.4C245.479 415.53 245.289 415.68 245.159 415.62C241.294 413.757 237.241 412.312 233.069 411.31C232.998 411.303 232.932 411.269 232.886 411.213C232.84 411.158 232.818 411.087 232.824 411.015C232.831 410.943 232.866 410.877 232.921 410.831C232.976 410.786 233.048 410.763 233.119 410.77Z" fill="#263238"/>
<path d="M229.81 412.19C234.16 411.99 239.24 413.35 242.06 416.82C242.17 416.95 241.98 417.1 241.85 417.04C237.985 415.177 233.932 413.732 229.76 412.73C229.724 412.727 229.69 412.716 229.658 412.7C229.627 412.683 229.599 412.661 229.576 412.633C229.553 412.606 229.536 412.574 229.526 412.54C229.515 412.506 229.512 412.47 229.515 412.435C229.518 412.4 229.528 412.365 229.545 412.334C229.562 412.302 229.584 412.274 229.612 412.251C229.639 412.229 229.671 412.212 229.705 412.201C229.739 412.19 229.774 412.187 229.81 412.19Z" fill="#263238"/>
<path d="M278.24 415.28C283.12 415.13 283.36 422.71 278.47 422.86C273.58 423.01 273.36 415.43 278.24 415.28Z" fill="#263238"/>
<path d="M235.22 402.85C237.67 405.8 241.3 407.59 244.47 409.62C244.543 409.659 244.625 409.68 244.708 409.682C244.791 409.684 244.873 409.666 244.948 409.63C245.023 409.594 245.089 409.541 245.139 409.475C245.19 409.409 245.224 409.332 245.24 409.25C245.31 409.25 245.38 409.25 245.37 409.12C244.921 405.137 243.431 401.343 241.05 398.12C239.63 396.27 236.8 394.58 234.66 396.48C232.52 398.38 233.8 401.13 235.22 402.85ZM234.9 399.26C235.18 394.52 239.56 398.01 240.55 399.41C241.176 400.332 241.741 401.294 242.24 402.29C243.3 404.29 244.05 406.51 244.9 408.65C243.41 407.55 241.83 406.59 240.3 405.55C238.48 404.32 234.75 401.88 234.9 399.26Z" fill="#263238"/>
<path d="M260.7 405.83C260.27 403.01 257.01 402.5 254.7 403.02C250.818 403.98 247.256 405.942 244.37 408.71C244.356 408.72 244.344 408.734 244.336 408.749C244.328 408.765 244.323 408.782 244.323 408.8C244.323 408.818 244.328 408.835 244.336 408.851C244.344 408.866 244.356 408.88 244.37 408.89C244.327 408.963 244.302 409.045 244.297 409.129C244.292 409.213 244.307 409.298 244.341 409.375C244.376 409.453 244.428 409.521 244.494 409.574C244.56 409.627 244.637 409.663 244.72 409.68C248.45 410.13 252.39 411.08 256.15 410.37C258.41 410 261.11 408.5 260.7 405.83ZM250.58 409.2C248.74 409.03 246.92 408.76 245.07 408.65C247.051 407.482 249.09 406.417 251.18 405.46C252.195 405.005 253.241 404.624 254.31 404.32C255.97 403.87 261.57 403.98 258.76 407.81C257.2 409.92 252.78 409.42 250.58 409.2Z" fill="#263238"/>
<path d="M240.429 402.84H290.639C290.639 402.84 281.699 334.49 284.639 330.03C285.949 328.03 351.129 334.6 370.199 313.95C387.629 295.06 369.889 259.68 369.889 259.68H316.389C316.389 259.68 315.299 274.85 312.389 280.91C311.159 283.51 251.389 279.8 242.029 296.91C229.589 319.7 240.429 402.84 240.429 402.84Z" fill="#37474F"/>
<path d="M285.35 393.29C279.68 393.12 274 392.9 268.35 392.91C262.7 392.92 256.98 393.03 251.29 393.25C249.69 393.32 244.95 393.54 244.19 393.6C243.413 393.616 242.638 393.683 241.87 393.8C241.78 393.8 241.8 393.94 241.87 393.95C243.1 394.16 255.95 394.31 258.77 394.31C264.42 394.31 270.06 394.16 275.71 393.96C278.923 393.853 282.133 393.733 285.34 393.6C285.51 393.59 285.53 393.3 285.35 393.29Z" fill="#263238"/>
<path d="M318.6 276.06C318.83 274.45 319.04 272.84 319.23 271.24C319.66 267.57 320.04 263.87 320.15 260.18C320.15 259.89 319.75 259.92 319.72 260.18C319.37 263.03 319.11 265.89 318.79 268.74C318.47 271.59 318.22 274.44 317.69 277.24C317.53 278.08 317.17 279.49 316.1 279.51C314.65 279.51 314.37 277.57 314.25 276.51C313.979 273.852 313.929 271.176 314.1 268.51C314.26 265.51 314.64 262.45 314.98 259.44C314.98 259.33 314.81 259.31 314.79 259.44C313.54 265.31 312.34 271.44 313.38 277.44C313.416 278.043 313.616 278.626 313.957 279.124C314.299 279.623 314.77 280.019 315.32 280.27H315.38C315.378 280.303 315.378 280.337 315.38 280.37C315.38 280.54 315.38 280.71 315.38 280.88C315.37 281.023 315.37 281.167 315.38 281.31C315.38 281.61 315.38 281.9 315.38 282.2C315.38 282.258 315.403 282.314 315.444 282.356C315.486 282.397 315.542 282.42 315.6 282.42C315.658 282.42 315.714 282.397 315.756 282.356C315.797 282.314 315.82 282.258 315.82 282.2C315.858 282.194 315.893 282.176 315.919 282.149C315.946 282.122 315.964 282.088 315.97 282.05C316.08 281.475 316.08 280.885 315.97 280.31C316.327 280.309 316.679 280.217 316.99 280.042C317.302 279.867 317.564 279.615 317.75 279.31C318.275 278.305 318.565 277.194 318.6 276.06Z" fill="#263238"/>
<path d="M313.28 280.4C317.385 283.216 321.236 286.385 324.79 289.87C324.822 289.895 324.842 289.932 324.847 289.972C324.852 290.013 324.84 290.053 324.815 290.085C324.79 290.117 324.753 290.137 324.713 290.142C324.672 290.147 324.632 290.135 324.6 290.11C320.68 287.11 316.6 284.11 312.91 280.87C312.855 280.819 312.82 280.748 312.814 280.673C312.808 280.598 312.831 280.523 312.878 280.464C312.924 280.404 312.992 280.365 313.066 280.353C313.141 280.341 313.217 280.358 313.28 280.4Z" fill="#263238"/>
<path d="M357.26 283.31C356.102 283.314 354.945 283.227 353.8 283.05C352.787 282.848 351.786 282.591 350.8 282.28C348.95 281.74 346.69 281.09 345.34 279.62C344.03 278.016 342.984 276.213 342.24 274.28C341.307 272.26 340.693 270.108 340.42 267.9C340.42 267.81 340.25 267.81 340.26 267.9C340.404 270.184 340.786 272.446 341.4 274.65C341.736 275.745 342.157 276.811 342.66 277.84C343.112 278.876 343.716 279.84 344.45 280.7C345.95 282.31 348.39 283.1 350.45 283.52C352.702 283.93 355.009 283.93 357.26 283.52C357.45 283.54 357.4 283.32 357.26 283.31Z" fill="#263238"/>
<path d="M279.26 326.79C279.378 326.195 279.678 325.651 280.119 325.233C280.56 324.816 281.119 324.546 281.72 324.46C283.161 324.3 284.613 324.27 286.06 324.37C289.4 324.37 292.75 324.44 296.06 324.45C309.24 324.45 322.53 324.11 335.49 321.51C341.835 320.324 348.039 318.477 354 316C359 313.82 364.05 310.84 367.19 306.21C370.8 300.89 371.08 293.92 370.95 287.69C370.821 280.964 369.737 274.291 367.73 267.87C367.21 266.24 366.64 264.63 365.99 263.05C365.99 262.95 366.1 262.86 366.14 262.96C368.773 269.025 370.517 275.437 371.32 282C371.711 285.241 371.858 288.507 371.76 291.77C371.757 294.973 371.344 298.162 370.53 301.26C367.11 312.92 354.05 317.73 343.53 320.69C330.81 324.26 317.53 325.25 304.4 325.44C297.8 325.54 291.18 325.44 284.57 325.35C283.31 325.35 281.23 324.98 280.48 326.3C280.148 327.064 279.949 327.879 279.89 328.71C279.75 329.64 279.64 330.57 279.57 331.51C279.387 335.026 279.433 338.55 279.71 342.06C280.13 349.187 280.623 356.317 281.19 363.45C281.76 370.61 282.56 377.76 283.08 384.93C283.21 386.69 283.38 388.44 283.55 390.19C283.55 390.39 283.22 390.43 283.19 390.19C281.36 376.02 280.05 361.8 279.12 347.55C278.89 344.03 278.63 340.5 278.53 336.98C278.314 333.566 278.56 330.138 279.26 326.79Z" fill="#263238"/>
<path d="M311.41 329.41C315.869 329.349 320.321 329.015 324.74 328.41C328.91 327.89 333.06 327.32 337.2 326.62C344.4 325.39 351.76 324.04 358.55 321.3C362.278 319.862 365.752 317.837 368.84 315.3C368.92 315.23 369.04 315.35 368.96 315.42C363.82 320.42 357.3 323.35 350.44 325.21C342.567 327.264 334.541 328.672 326.44 329.42C321.429 329.857 316.397 330.004 311.37 329.86C311.332 329.834 311.302 329.798 311.282 329.757C311.263 329.715 311.255 329.669 311.259 329.623C311.263 329.578 311.279 329.534 311.305 329.496C311.332 329.459 311.368 329.429 311.41 329.41Z" fill="#263238"/>
<path d="M326.999 199.32C327.149 215.75 322.689 240.68 316.539 252.76C312.139 261.39 285.949 278.37 272.039 282.19C267.119 283.55 264.669 263.1 267.039 258.09C268.479 255.09 294.649 240.56 297.329 236.56C301.399 230.47 309.649 213.19 315.749 198.42C318.999 190.63 326.879 189.11 326.999 199.32Z" fill="#C95F50"/>
<path d="M275.649 253.43C275.649 253.43 267.939 252.5 264.469 252.84C260.999 253.18 248.469 259.21 249.649 261.98C251.139 265.56 259.029 263.5 262.769 261.98C262.769 261.98 266.189 270.26 272.179 269.98C278.169 269.7 275.649 253.43 275.649 253.43Z" fill="#C95F50"/>
<path d="M276.579 280.46C273.859 281.68 260.919 286.15 257.039 286.59C253.159 287.03 241.899 287.49 241.259 284.59C240.619 281.69 243.899 281.26 243.899 281.26C243.899 281.26 239.119 280.7 238.749 277.68C238.379 274.66 243.499 274.21 243.499 274.21C243.499 274.21 238.629 273.28 238.499 270.21C238.369 267.14 243.579 267.58 243.579 267.58C243.579 267.58 239.089 266.94 240.009 264.38C241.119 261.31 249.269 263.44 253.519 262.63C254.519 262.44 272.809 257.52 272.809 257.52L276.579 280.46Z" fill="#C95F50"/>
<path d="M243.1 267.56C249.1 269.11 251.99 268.75 257.8 266.88C257.92 266.88 258 267.01 257.88 267.06C252.36 269.4 248.8 270.37 243.01 267.84C242.73 267.72 242.82 267.48 243.1 267.56Z" fill="#263238"/>
<path d="M243 274C249.37 275.07 252.51 274.71 258.74 273.2C258.83 273.2 258.87 273.33 258.74 273.36C252.74 275.36 249.18 276.23 242.96 274.36C242.74 274.29 242.74 274 243 274Z" fill="#263238"/>
<path d="M244.219 281.13C250.459 281.72 253.919 281.47 259.779 279.23C259.919 279.18 260.009 279.38 259.879 279.44C254.119 282.3 249.809 282.65 244.219 281.32C243.839 281.23 243.829 281.09 244.219 281.13Z" fill="#263238"/>
<path d="M250.38 262.83C254.09 265.12 258.86 262.83 262.6 261.61C262.654 261.591 262.712 261.585 262.769 261.593C262.826 261.601 262.881 261.622 262.928 261.656C262.975 261.689 263.013 261.733 263.04 261.784C263.066 261.835 263.08 261.892 263.08 261.95C264.75 265.32 268.08 269.6 272.01 270.19C272.034 270.19 272.057 270.199 272.073 270.216C272.09 270.233 272.1 270.256 272.1 270.28C272.1 270.304 272.09 270.327 272.073 270.344C272.057 270.36 272.034 270.37 272.01 270.37C267.71 270.31 264.09 266.37 262.5 262.56C258.69 263.85 253.8 265.95 250.37 262.86C250.34 262.85 250.36 262.82 250.38 262.83Z" fill="#263238"/>
<path d="M304.8 216.79L325.66 230.57C325.66 230.57 328.43 203.21 326.97 194.94C325.33 185.63 320.97 188.5 315.71 195.82C310.45 203.14 304.8 216.79 304.8 216.79Z" fill="#8661C1"/>
<path opacity="0.1" d="M304.8 216.79L325.66 230.57C325.66 230.57 328.43 203.21 326.97 194.94C325.33 185.63 320.97 188.5 315.71 195.82C310.45 203.14 304.8 216.79 304.8 216.79Z" fill="black"/>
<path d="M308 213.51C310.9 214.9 319 220.3 320.33 221.18C321.04 221.65 323.79 223.62 324.5 224.08C324.59 224.14 324.5 224.27 324.4 224.21C323.04 223.34 321.59 222.6 320.22 221.74C318.85 220.88 310.42 215.68 307.94 213.61C307.9 213.57 308 213.47 308 213.51Z" fill="#263238"/>
<path d="M378.21 267.69C378.21 267.69 310.91 277.03 310.91 277.04C311.1 278.36 307.35 223.8 320.41 189.59C321.3 187.26 331.55 183.46 336.81 187.11C359.86 203.11 378.33 268.55 378.21 267.69Z" fill="#8661C1"/>
<path opacity="0.1" d="M338.4 188.3L319.88 191C319.911 190.894 319.952 190.79 320 190.69L338.08 188.02C338.192 188.107 338.299 188.201 338.4 188.3ZM343.5 193.2L317.94 197C317.901 197.097 317.871 197.197 317.85 197.3L343.73 193.5L343.5 193.2ZM347.76 198.52L316.28 203.16C316.28 203.26 316.28 203.36 316.21 203.46L348 198.79L347.76 198.52ZM351.41 203.93L314.93 209.3L314.87 209.61L351.57 204.2L351.41 203.93ZM354.65 209.4L313.83 215.4C313.83 215.5 313.83 215.6 313.78 215.7L354.78 209.7L354.65 209.4ZM357.65 214.91L312.97 221.49C312.97 221.59 312.97 221.69 312.97 221.79L357.83 215.19C357.71 215.1 357.66 215 357.61 214.91H357.65ZM360.39 220.45L312.25 227.54V227.84L360.55 220.73L360.39 220.45ZM362.95 226.02L311.68 233.57V233.87L363 226.3C362.964 226.202 362.933 226.102 362.91 226L362.95 226.02ZM365.36 231.61L311.24 239.61C311.24 239.71 311.24 239.81 311.24 239.91L365.49 231.91C365.4 231.8 365.36 231.71 365.32 231.61H365.36ZM367.65 237.22L310.92 245.57C310.92 245.67 310.92 245.76 310.92 245.86L367.78 237.49C367.68 237.4 367.64 237.31 367.61 237.22H367.65ZM369.82 242.85L310.71 251.55C310.705 251.647 310.705 251.743 310.71 251.84L369.92 243.12L369.82 242.85ZM371.89 248.49L310.61 257.49C310.6 257.586 310.6 257.684 310.61 257.78L371.99 248.78C371.91 248.67 371.88 248.58 371.85 248.49H371.89ZM373.89 254.14L310.62 263.46V263.74L373.98 254.42L373.89 254.14ZM375.78 259.8L310.71 269.38C310.71 269.48 310.71 269.58 310.71 269.68L375.86 260.09L375.78 259.8ZM377.58 265.49L310.91 275.3C310.91 275.4 310.91 275.5 310.91 275.59L377.65 265.77C377.58 265.68 377.55 265.58 377.52 265.49H377.58Z" fill="black"/>
<path opacity="0.1" d="M326.41 210.9L337 209.4C337 209.4 339 220.27 339 220.57C339 220.87 333.91 225 333.45 224.83C332.99 224.66 327.98 223.27 327.82 222.96C327.66 222.65 326.41 210.9 326.41 210.9Z" fill="black"/>
<path d="M310.849 229.7H245.319V302.26H310.849V229.7Z" fill="#8661C1"/>
<path opacity="0.1" d="M310.849 229.7H245.319V302.26H310.849V229.7Z" fill="black"/>
<path d="M211.489 302.26H245.319V229.7H211.489V302.26Z" fill="#8661C1"/>
<path d="M272.529 245.38H273.909H274.949L275.549 244.17L276.379 245.38L277.519 242.9L278.589 245.38H281.649H283.059L283.559 243.72L284.039 245.38H284.949V229.7H272.529V245.38Z" fill="white"/>
<g opacity="0.1">
<path d="M213.819 297.26C216.333 292.1 218.816 286.927 221.269 281.74L228.609 266.13L235.859 250.45C238.259 245.223 240.636 239.973 242.989 234.7C240.489 239.86 238.006 245.037 235.539 250.23L228.199 265.83L220.999 281.51C218.566 286.743 216.173 291.993 213.819 297.26Z" fill="black"/>
<path d="M213.819 234.7C216.179 239.973 218.559 245.223 220.959 250.45L228.199 266.13L235.539 281.74C237.999 286.927 240.483 292.1 242.989 297.26C240.636 292 238.259 286.75 235.859 281.51L228.609 265.83L221.269 250.23C218.809 245.03 216.326 239.853 213.819 234.7Z" fill="black"/>
</g>
<path d="M321.73 245.39H256.21L245.33 229.69H310.85L321.73 245.39Z" fill="#8661C1"/>
<g opacity="0.2">
<path d="M321.73 245.39H256.21L245.33 229.69H310.85L321.73 245.39Z" fill="black"/>
</g>
<path d="M234.46 245.4H200.72L211.6 229.7H245.33L234.46 245.4Z" fill="#8661C1"/>
<path opacity="0.1" d="M234.46 245.4H200.72L211.6 229.7H245.33L234.46 245.4Z" fill="black"/>
<path d="M323.89 198.38C327.2 198.69 333.35 193.98 335 189.09C335.11 188.75 334.07 185.61 333 181.73C332.35 179.37 331.68 176.73 331.25 174.28C331.16 173.78 316.54 180.76 316.54 180.76C317.96 183.671 319.021 186.743 319.7 189.91C319.751 190.241 319.775 190.575 319.77 190.91C319.765 190.966 319.765 191.023 319.77 191.08C319.79 193.07 320.35 198 323.89 198.38Z" fill="#C95F50"/>
<path d="M319.75 190.93C319.745 190.986 319.745 191.043 319.75 191.1C320.284 191.073 320.815 191.006 321.34 190.9C330.34 189.09 330.72 177.34 330.67 174.39C328.01 175.26 316.51 180.76 316.51 180.76C317.93 183.671 318.991 186.743 319.67 189.91C319.725 190.247 319.752 190.588 319.75 190.93Z" fill="#263238"/>
<path d="M330.68 154.69C333.15 159.93 332.56 176.18 329.18 180.27C324.27 186.21 315.09 188.05 309.76 181.89C304.58 175.89 305.76 154.75 309.62 150.89C315.34 145.26 327 147 330.68 154.69Z" fill="#C95F50"/>
<path d="M316.62 166.41C316.62 166.41 316.7 166.47 316.7 166.51C316.63 167.61 316.7 168.87 317.7 169.27V169.33C316.5 169.12 316.38 167.44 316.62 166.41Z" fill="#263238"/>
<path d="M317.63 165.3C319.4 165.22 319.42 168.76 317.79 168.83C316.16 168.9 316.15 165.37 317.63 165.3Z" fill="#263238"/>
<path d="M310.279 166.64C310.279 166.64 310.189 166.69 310.189 166.74C310.239 167.83 310.099 169.09 309.109 169.46V169.53C310.329 169.35 310.489 167.67 310.279 166.64Z" fill="#263238"/>
<path d="M309.29 165.5C307.53 165.38 307.42 168.92 309.05 169.03C310.68 169.14 310.77 165.6 309.29 165.5Z" fill="#263238"/>
<path d="M319 163.67C318.534 163.542 318.076 163.385 317.63 163.2C317.123 163.099 316.663 162.835 316.32 162.45C316.237 162.308 316.204 162.142 316.225 161.979C316.247 161.816 316.322 161.665 316.44 161.55C316.701 161.35 317.013 161.225 317.34 161.188C317.668 161.151 318 161.203 318.299 161.34C318.954 161.518 319.518 161.936 319.88 162.51C319.957 162.645 319.993 162.799 319.984 162.954C319.974 163.109 319.918 163.258 319.824 163.382C319.731 163.506 319.602 163.599 319.455 163.65C319.309 163.702 319.15 163.708 319 163.67Z" fill="#263238"/>
<path d="M307.91 163.73C308.383 163.633 308.851 163.509 309.31 163.36C309.824 163.295 310.301 163.063 310.67 162.7C310.763 162.564 310.808 162.401 310.799 162.237C310.79 162.072 310.727 161.915 310.62 161.79C310.37 161.574 310.066 161.429 309.74 161.371C309.415 161.313 309.08 161.344 308.77 161.46C308.114 161.574 307.525 161.931 307.12 162.46C307.016 162.588 306.954 162.745 306.943 162.909C306.932 163.074 306.973 163.238 307.061 163.378C307.148 163.518 307.276 163.627 307.429 163.69C307.581 163.753 307.75 163.767 307.91 163.73Z" fill="#263238"/>
<path d="M317.709 176.57C317.449 176.83 317.189 177.18 316.789 177.22C316.381 177.22 315.977 177.127 315.609 176.95C315.609 176.95 315.539 176.95 315.559 177.01C315.718 177.225 315.932 177.393 316.178 177.497C316.425 177.601 316.694 177.636 316.959 177.6C317.185 177.537 317.386 177.409 317.538 177.23C317.689 177.052 317.784 176.832 317.809 176.6C317.829 176.56 317.739 176.53 317.709 176.57Z" fill="#263238"/>
<path d="M316.53 173.3C316.255 173.736 315.893 174.111 315.466 174.4C315.039 174.689 314.557 174.886 314.05 174.98C313.609 175.068 313.158 175.092 312.71 175.05C312.627 175.06 312.543 175.06 312.46 175.05H312.22C312.16 175.038 312.106 175.007 312.064 174.962C312.023 174.917 311.997 174.86 311.99 174.8C311.995 174.76 311.995 174.72 311.99 174.68V174.58C311.99 173.74 311.99 172.45 311.99 172.45C311.68 172.61 310.12 173.33 310.14 172.89C310.209 169.087 310.665 165.301 311.5 161.59C311.5 161.47 311.71 161.5 311.7 161.59C311.7 165.1 310.99 168.59 310.89 172.11C311.448 171.848 312.041 171.666 312.65 171.57C312.77 171.57 312.47 174.04 312.51 174.42C313.201 174.485 313.899 174.41 314.561 174.198C315.222 173.987 315.834 173.644 316.36 173.19C316.51 173.14 316.6 173.21 316.53 173.3Z" fill="#263238"/>
<path d="M313.21 174.62C313.677 175.227 314.294 175.703 315 176C315.387 176.144 315.809 176.169 316.21 176.07C317.08 175.83 317.1 175.07 316.93 174.34C316.836 173.992 316.702 173.657 316.53 173.34C315.588 174.109 314.425 174.558 313.21 174.62Z" fill="#263238"/>
<path d="M315 176C315.387 176.144 315.809 176.169 316.21 176.07C317.08 175.83 317.1 175.07 316.93 174.34C316.469 174.36 316.028 174.535 315.678 174.836C315.328 175.137 315.089 175.547 315 176Z" fill="#FF99BA"/>
<path d="M307.319 156.3C307.909 154.9 308.589 153.5 309.419 153.22C310.249 152.94 310.829 154.97 312.729 155.08C315.299 155.23 316.519 152.86 320.109 152.57C325.269 152.17 327.579 156.46 327.769 163.78C327.939 170.32 331.899 170.9 331.899 170.9C331.899 170.9 334.169 156.46 330.059 151.72C325.949 146.98 316.599 144.95 310.379 149.57C308.109 151.25 307.319 156.3 307.319 156.3Z" fill="#263238"/>
<path d="M328.58 168.35C328.58 168.35 331.53 162.77 334.02 163.76C336.51 164.75 334.74 172.53 332.13 173.89C331.809 174.088 331.452 174.22 331.08 174.277C330.707 174.334 330.327 174.315 329.962 174.222C329.597 174.129 329.254 173.963 328.955 173.734C328.656 173.505 328.406 173.218 328.22 172.89L328.58 168.35Z" fill="#C95F50"/>
<path d="M333.45 166V166.07C331.63 167.07 330.84 168.99 330.36 170.92C330.447 170.713 330.578 170.528 330.744 170.377C330.91 170.226 331.107 170.113 331.321 170.046C331.535 169.978 331.761 169.958 331.983 169.986C332.206 170.015 332.419 170.091 332.61 170.21C332.62 170.215 332.629 170.222 332.636 170.232C332.642 170.242 332.646 170.253 332.646 170.265C332.646 170.277 332.642 170.288 332.636 170.298C332.629 170.308 332.62 170.315 332.61 170.32C332.258 170.254 331.895 170.3 331.57 170.451C331.246 170.601 330.977 170.849 330.8 171.16C330.506 171.677 330.268 172.223 330.09 172.79C330.02 172.97 329.7 172.92 329.74 172.72C329.39 170.21 330.86 166.55 333.45 166Z" fill="#263238"/>
<path d="M345.75 199.71C352.45 214.63 367.27 245.21 363.46 256.71C358.46 271.81 332.29 288.46 325.52 293.13C322.57 295.13 307.89 276.34 308.79 272.62C309.69 268.9 337.2 247.11 338.68 244.62C340.16 242.13 333.94 217.37 332.89 203.52C331.55 186.09 340.07 187.08 345.75 199.71Z" fill="#C95F50"/>
<path d="M302 282.71C302.8 281.07 301.94 280.64 299 282.06C296.06 283.48 285.72 291.58 283.2 287.73C280.68 283.88 295.46 272.66 300.51 270.67C305.56 268.68 314.41 267.22 314.41 267.22C312 270 306.73 277.24 302 282.71Z" fill="#C95F50"/>
<path d="M332.68 287.29C325.52 294.82 317.08 304.62 305.82 307.84C304.576 308.228 303.238 308.189 302.02 307.73C297.02 309.26 294.77 307.35 294.77 307.35C289.65 307.35 287.64 305.08 287.64 305.08C287.64 305.08 281.72 306.82 280.08 303.42C278.23 299.61 286.9 297.91 291.08 294.07C300.7 285.25 311.91 270.07 314.43 267.22L332.68 287.29Z" fill="#C95F50"/>
<path d="M307.67 291.92C304.882 294.526 301.922 296.941 298.81 299.15C295.253 301.358 291.536 303.297 287.69 304.95C287.57 305 287.64 305.17 287.77 305.14C295.509 302.685 302.427 298.154 307.77 292.04C307.91 291.9 307.81 291.79 307.67 291.92Z" fill="#263238"/>
<path d="M313.83 297C310.89 299.31 305.69 303.34 294.72 307.29C294.72 307.29 294.72 307.36 294.72 307.35C301.943 305.794 308.591 302.259 313.92 297.14C314.11 296.93 314 296.79 313.83 297Z" fill="#263238"/>
<path d="M317.09 299.71C311.94 303.46 308.22 305.17 302.09 307.71C302.09 307.71 302.09 307.79 302.09 307.78C309.41 305.65 311.83 304.04 317.28 299.89C317.43 299.73 317.29 299.57 317.09 299.71Z" fill="#263238"/>
<path d="M334 222.6L359 223.8C359 223.8 347.43 198.86 342 192.49C335.84 185.31 333.52 190.03 332.76 198.99C332 207.95 334 222.6 334 222.6Z" fill="#8661C1"/>
<path opacity="0.1" d="M334 222.6L359 223.8C359 223.8 347.43 198.86 342 192.49C335.84 185.31 333.52 190.03 332.76 198.99C332 207.95 334 222.6 334 222.6Z" fill="black"/>
<path d="M335.13 218.12C338.33 217.84 348.04 218.37 349.65 218.44C350.49 218.44 353.87 218.77 354.71 218.8C354.82 218.8 354.79 218.97 354.71 218.97C353.09 218.91 351.47 219.02 349.85 218.97C348.23 218.92 338.34 218.75 335.14 218.24C335.129 218.235 335.12 218.227 335.113 218.217C335.106 218.207 335.102 218.195 335.101 218.183C335.1 218.171 335.102 218.159 335.107 218.148C335.112 218.137 335.12 218.127 335.13 218.12Z" fill="#263238"/>
<path d="M347.83 201.85C347.78 201.75 347.94 201.68 347.99 201.78C349.21 203.78 350.38 205.78 351.51 207.85C351.177 206.67 350.739 205.522 350.2 204.42C350.2 204.42 350.25 204.34 350.28 204.42C350.949 205.684 351.453 207.028 351.78 208.42C352.57 209.85 353.34 211.28 354.1 212.73C356.02 216.39 358 220.05 359.71 223.83C359.729 223.876 359.736 223.926 359.73 223.975C359.724 224.024 359.706 224.071 359.677 224.111C359.648 224.151 359.609 224.183 359.564 224.204C359.519 224.225 359.469 224.234 359.42 224.23C358.55 224.16 357.69 224.06 356.83 223.94C356.74 223.94 356.73 223.78 356.83 223.77C357.55 223.71 358.26 223.7 358.98 223.68C356.98 220.19 355.25 216.59 353.4 213.04C351.55 209.49 349.6 205.6 347.83 201.85Z" fill="#263238"/>
<path d="M332.5 212C332.24 210.71 331.97 209.42 331.75 208.12C331.98 209.06 332.19 210.01 332.4 210.96C332.29 209.02 332.22 207.09 332.24 205.16H332.29C332.69 208.06 332.93 210.99 333.29 213.9C333.65 216.81 333.9 219.62 334.17 222.48C334.73 222.6 335.3 222.7 335.87 222.8C335.888 222.806 335.903 222.818 335.914 222.833C335.925 222.848 335.93 222.866 335.93 222.885C335.93 222.904 335.925 222.922 335.914 222.937C335.903 222.952 335.888 222.964 335.87 222.97C335.24 222.97 334.61 222.97 333.98 222.97C333.907 222.981 333.833 222.964 333.773 222.921C333.713 222.878 333.672 222.813 333.66 222.74C333.14 219.17 332.74 215.58 332.5 212Z" fill="#263238"/>
<path d="M232.89 352.62H138.32V430.75H232.89V352.62Z" fill="#8661C1"/>
<path d="M270.35 352.62H232.88V430.76H270.35V352.62Z" fill="#8661C1"/>
<path opacity="0.1" d="M270.35 352.62H232.88V430.76H270.35V352.62Z" fill="black"/>
<path d="M267.77 425.38C265.004 419.82 262.254 414.243 259.52 408.65L251.39 391.85L243.39 374.97C240.724 369.33 238.09 363.663 235.49 357.97C238.264 363.53 241.014 369.107 243.74 374.7L251.86 391.5L259.86 408.38C262.527 414.04 265.164 419.707 267.77 425.38Z" fill="#8661C1"/>
<path d="M267.77 358C265.163 363.68 262.53 369.347 259.87 375L251.87 391.88L243.75 408.68C241.023 414.28 238.273 419.857 235.5 425.41C238.1 419.73 240.733 414.063 243.4 408.41L251.4 391.53L259.53 374.73C262.257 369.13 265.003 363.553 267.77 358Z" fill="#8661C1"/>
<path d="M192.29 369.51H190.8H189.67L189.03 368.2L188.13 369.51L186.92 366.83L185.76 369.51H182.46H180.95L180.41 367.72L179.89 369.51H178.91V352.62H192.29V369.51Z" fill="white"/>
<path d="M325.25 352.62H254.7V430.75H325.25V352.62Z" fill="#8661C1"/>
<path d="M361.68 352.62H325.25V430.75H361.68V352.62Z" fill="#8661C1"/>
<path opacity="0.1" d="M361.68 352.62H325.25V430.75H361.68V352.62Z" fill="black"/>
<g opacity="0.1">
<path d="M320.08 425.37C314.9 419.817 309.767 414.243 304.68 408.65L289.5 391.85L274.5 374.97C269.52 369.33 264.6 363.663 259.74 357.97C264.92 363.53 270.054 369.103 275.14 374.69L290.32 391.5L305.32 408.38C310.294 414.033 315.214 419.697 320.08 425.37Z" fill="black"/>
<path d="M320.08 358C315.207 363.68 310.287 369.347 305.32 375L290.32 391.88L275.14 408.68C270.06 414.273 264.927 419.847 259.74 425.4C264.614 419.733 269.534 414.067 274.5 408.4L289.5 391.52L304.68 374.71C309.76 369.13 314.894 363.56 320.08 358Z" fill="black"/>
</g>
<path d="M356.55 417.53H350.17V426.54H356.55V417.53Z" fill="white"/>
<path d="M234.63 302.09H154.08V352.61H234.63V302.09Z" fill="#8661C1"/>
<path opacity="0.1" d="M234.63 302.09H154.08V352.61H234.63V302.09Z" fill="black"/>
<path d="M271.071 302.1H234.641V352.63H271.071V302.1Z" fill="#8661C1"/>
<path opacity="0.2" d="M271.071 302.1H234.641V352.63H271.071V302.1Z" fill="black"/>
<path d="M268.56 349.64C265.86 346.173 263.193 342.687 260.56 339.18L252.65 328.66L244.85 318.1C242.257 314.567 239.697 311.027 237.17 307.48C239.837 310.96 242.503 314.447 245.17 317.94L253.07 328.46L260.87 339.03C263.463 342.55 266.027 346.087 268.56 349.64Z" fill="#8661C1"/>
<path d="M268.56 307.48C266.02 311.027 263.457 314.567 260.87 318.1L253.07 328.66L245.17 339.18C242.503 342.68 239.837 346.167 237.17 349.64C239.697 346.087 242.257 342.55 244.85 339.03L252.65 328.46L260.56 317.94C263.187 314.44 265.853 310.953 268.56 307.48Z" fill="#8661C1"/>
<path d="M187.501 87.54C187.082 91.5471 185.558 95.3589 183.099 98.5502C180.64 101.742 177.342 104.187 173.574 105.613C169.806 107.039 165.716 107.39 161.76 106.627C157.804 105.863 154.138 104.016 151.171 101.29L140.301 102.88L145.741 93.48C144.379 90.1652 143.867 86.5629 144.251 83C144.851 77.2647 147.706 72.0029 152.186 68.3722C156.666 64.7415 162.405 63.0393 168.141 63.64C173.876 64.2407 179.138 67.0951 182.769 71.5754C186.399 76.0556 188.101 81.7947 187.501 87.53V87.54Z" fill="white"/>
<path d="M187.5 87.54C187.07 91.539 185.552 95.3436 183.11 98.54C182.49 99.3331 181.822 100.088 181.11 100.8C180.385 101.512 179.617 102.18 178.81 102.8C175.582 105.233 171.744 106.724 167.72 107.11C166.723 107.204 165.72 107.224 164.72 107.17C163.714 107.146 162.711 107.043 161.72 106.86C157.722 106.106 154.011 104.257 151 101.52L151.26 101.6L140.39 103.26L139.61 103.39L140 102.69L145.41 93.27V93.64C144.132 90.5309 143.584 87.1697 143.81 83.8156C144.036 80.4615 145.03 77.2042 146.714 74.2948C148.398 71.3854 150.728 68.9017 153.524 67.0353C156.32 65.1689 159.508 63.9696 162.84 63.53C166.132 63.0684 169.487 63.3694 172.644 64.4098C175.801 65.4501 178.677 67.2019 181.05 69.53C183.419 71.8479 185.23 74.6733 186.347 77.7931C187.464 80.9129 187.859 84.2456 187.5 87.54ZM187.5 87.54C187.852 84.264 187.445 80.9512 186.313 77.8573C185.18 74.7633 183.352 71.971 180.968 69.6961C178.585 67.4211 175.711 65.7243 172.568 64.7366C169.425 63.749 166.096 63.497 162.84 64C159.608 64.4784 156.529 65.6929 153.84 67.55C151.185 69.4143 148.968 71.8335 147.34 74.64C145.737 77.4586 144.793 80.6041 144.58 83.84C144.379 87.0712 144.902 90.3066 146.11 93.31L146.19 93.5L146.08 93.68L140.61 103.07L140.22 102.49L151.13 101H151.28L151.39 101.1C154.296 103.818 157.9 105.674 161.8 106.46C162.773 106.656 163.759 106.776 164.75 106.82C167.736 107.022 170.729 106.582 173.53 105.53C175.407 104.855 177.173 103.905 178.77 102.71C179.573 102.114 180.341 101.473 181.07 100.79C181.782 100.085 182.45 99.3366 183.07 98.55C185.535 95.359 187.068 91.5484 187.5 87.54Z" fill="#263238"/>
<path d="M163.33 97.67L154.04 88.27L157.16 85.19L162.59 90.68L173.86 73.02L177.55 75.37L163.33 97.67Z" fill="#8661C1"/>
<path d="M93.4407 106.82C89.7807 106.18 80.5707 109.18 77.6707 114.16C74.7707 119.14 75.3807 127 77.0007 127.64C78.6207 128.28 85.5107 127.44 90.1307 124.64C94.7507 121.84 95.2507 107.13 93.4407 106.82Z" fill="#263238"/>
<path d="M93.45 106.84C93.57 106.84 93.58 106.6 93.45 106.61C90.27 106.67 86.92 107.89 83.94 108.9C81.4598 109.579 79.1498 110.771 77.16 112.4C76.2381 113.229 75.5082 114.249 75.0211 115.388C74.5341 116.528 74.3016 117.761 74.34 119C74.2857 121.992 74.9947 124.948 76.4 127.59C76.4 127.66 76.58 127.59 76.55 127.59C74.86 122.37 73.29 115.97 78.38 112.13C82.7 108.78 88.39 108.17 93.45 106.84Z" fill="#263238"/>
<path d="M77.48 126.24C74.33 126.79 66.36 133.24 65.24 139.24C64.12 145.24 69.42 154.02 71 154.6C72.58 155.18 79.33 149.09 81.43 144.74C82.83 141.84 81.43 138.58 80.64 135.33C79.4 130.56 78 126.16 77.48 126.24Z" fill="#263238"/>
<path d="M83.2905 143.94C83.9605 137.75 80.2105 131.83 77.8705 126.37C77.8705 126.31 77.7505 126.37 77.7705 126.37C79.1605 131.64 82.5805 136.28 82.9205 141.84C83.0902 143.466 82.8663 145.109 82.2675 146.63C81.6688 148.151 80.7129 149.506 79.4805 150.58C77.1905 152.44 74.2705 153.38 71.5705 154.47C71.4005 154.54 71.5705 154.8 71.7005 154.74C77.0805 152.75 82.6005 150.32 83.2905 143.94Z" fill="#263238"/>
<path d="M76.82 126.84C76.8482 126.821 76.8686 126.793 76.8775 126.761C76.8865 126.728 76.8834 126.693 76.8688 126.663C76.8542 126.632 76.829 126.608 76.798 126.595C76.767 126.581 76.7322 126.58 76.7 126.59C72.29 128.93 67 132.28 64.79 136.96C62.39 142.02 65.24 147.08 67.79 151.44H67.88C65.38 147.01 62.71 141.44 65.47 136.54C67.82 132.24 72.66 129.11 76.82 126.84Z" fill="#263238"/>
<path d="M71.5704 153.84C73.7504 154.84 77.0404 158.25 78.0004 162.46C79.6204 169.66 82.2804 168.07 90.3304 169.55C97.1304 170.79 98.9903 178.22 95.6304 182.14C95.6304 182.14 97.4404 177.39 92.7904 175.38C87.2304 172.98 75.1903 179.38 68.5903 172.09C60.0503 162.67 71.5704 153.84 71.5704 153.84Z" fill="#263238"/>
<path d="M74.6204 157C74.5304 156.9 74.6804 156.74 74.7804 156.83C75.7438 157.68 76.5466 158.696 77.1504 159.83C77.9204 161.33 78.0504 163 78.7004 164.53C80.3804 168.43 85.1804 168.02 88.7004 168.07C93.4004 168.13 97.3204 170.77 97.9004 175.68C97.9044 175.689 97.906 175.699 97.9052 175.709C97.9044 175.719 97.9011 175.728 97.8956 175.737C97.8902 175.745 97.8827 175.752 97.8739 175.757C97.8652 175.761 97.8554 175.764 97.8454 175.764C97.8355 175.764 97.8257 175.761 97.8169 175.757C97.8081 175.752 97.8007 175.745 97.7952 175.737C97.7898 175.728 97.7865 175.719 97.7856 175.709C97.7848 175.699 97.7864 175.689 97.7904 175.68C97.5796 174.185 96.9682 172.774 96.0211 171.598C95.074 170.422 93.8263 169.525 92.4104 169C89.6004 168 86.5504 168.79 83.6804 168.27C81.6804 167.92 79.6804 167.2 78.6804 165.36C78.209 164.307 77.8503 163.208 77.6104 162.08C77.0682 160.157 76.0382 158.407 74.6204 157Z" fill="#263238"/>
<path d="M70.3906 154.79C70.3906 154.79 70.5006 154.79 70.4606 154.86C67.9606 157.63 65.3106 160.42 64.7706 164.29C64.1806 168.45 66.5406 172.45 69.9206 174.75C73.7106 177.33 77.5106 175.75 81.5206 174.75C84.4106 174.01 87.3806 173.49 90.3106 174.33C90.4006 174.33 90.3106 174.5 90.3106 174.49C85.6206 173.68 81.4606 175.3 76.9606 176.3C75.29 176.71 73.5377 176.641 71.9049 176.099C70.2721 175.558 68.8252 174.567 67.7306 173.24C62.0506 167.19 64.8606 159.74 70.3906 154.79Z" fill="#263238"/>
<path d="M90.5201 103.62C89.4501 102.38 87.5201 104.06 88.6201 105.3C89.7201 106.54 91.5801 104.85 90.5201 103.62Z" fill="#8661C1"/>
<path d="M91.5903 105.71C90.5303 104.48 88.5903 106.16 89.7003 107.39C90.8103 108.62 92.6603 107 91.5903 105.71Z" fill="#8661C1"/>
<path d="M93.0006 107.61C91.9306 106.38 90.0006 108.05 91.1006 109.29C92.2006 110.53 94.0906 108.85 93.0006 107.61Z" fill="#8661C1"/>
<path d="M94.6499 109.25C93.5899 108.02 91.6499 109.7 92.7599 110.93C93.8699 112.16 95.7199 110.49 94.6499 109.25Z" fill="#8661C1"/>
<path d="M96.5807 110.62C95.5107 109.39 93.5807 111.07 94.6807 112.3C95.7807 113.53 97.6407 111.86 96.5807 110.62Z" fill="#8661C1"/>
<path d="M98.6403 111.59C97.5703 110.36 95.6403 112.03 96.7403 113.27C97.8403 114.51 99.7003 112.83 98.6403 111.59Z" fill="#8661C1"/>
<path d="M176.411 443.26C174.101 443.98 106.591 442.52 104.131 440.88C103.181 440.27 108.971 376.32 108.971 376.32L151.781 377.14L146.911 419.91C146.911 419.91 171.821 431.72 174.341 433.81C176.861 435.9 178.731 442.54 176.411 443.26Z" fill="#D3766A"/>
<path d="M176.42 443.26C174.11 443.98 106.59 442.52 104.13 440.87C103.83 440.69 103.74 434.19 104.82 425.74C117.06 427.79 160.75 434.5 164.16 432.5C166.53 431.1 164.43 428.92 162.48 427.5C168.06 430.28 173.27 432.95 174.34 433.85C176.85 435.9 178.72 442.55 176.42 443.26Z" fill="#263238"/>
<path d="M148.12 409.66L106.12 409.07C106.12 409.07 114.44 308.4 114.12 306.46C113.62 304 83.7998 187.05 83.7998 187.05H123.92C123.92 187.05 155.55 296.05 156.69 306.54C158.53 323.5 148.12 409.66 148.12 409.66Z" fill="#37474F"/>
<path d="M109.86 399.58C112.35 399.4 114.86 399.43 117.35 399.4C119.84 399.37 122.35 399.4 124.83 399.4C129.83 399.45 134.83 399.53 139.83 399.67C141.19 399.67 142.55 399.75 143.92 399.81C145.29 399.87 146.83 400.13 148.28 400.18C148.304 400.18 148.327 400.19 148.344 400.206C148.361 400.223 148.37 400.246 148.37 400.27C148.37 400.294 148.361 400.317 148.344 400.334C148.327 400.351 148.304 400.36 148.28 400.36C147.05 400.36 145.83 400.55 144.6 400.59C143.37 400.63 142.06 400.59 140.79 400.59H133.31C128.31 400.59 123.31 400.48 118.36 400.28C115.55 400.16 112.71 400.13 109.91 399.84C109.876 399.847 109.84 399.839 109.811 399.82C109.782 399.8 109.762 399.77 109.755 399.735C109.749 399.701 109.756 399.665 109.776 399.636C109.795 399.607 109.826 399.587 109.86 399.58Z" fill="#263238"/>
<path d="M92.63 196.5C96.22 209.21 99.5 222.03 102.71 234.84C105.92 247.65 109.13 260.48 112.32 273.3C113.92 279.72 115.517 286.133 117.11 292.54C118.66 298.78 120.47 305.06 120.85 311.54C121.23 318.02 120.41 324.71 119.85 331.24C119.29 337.77 118.75 344.36 118.17 350.93C117.02 364.05 115.92 377.19 114.49 390.29C114.32 391.93 114.14 393.57 113.97 395.21C113.97 395.35 113.74 395.35 113.75 395.21C114.62 382.07 115.53 368.94 116.58 355.82C117.1 349.253 117.633 342.69 118.18 336.13C118.72 329.58 119.48 323 119.69 316.43C119.9 309.86 118.69 303.43 117.09 297.05C115.49 290.67 113.94 284.5 112.37 278.22C109.157 265.413 105.957 252.593 102.77 239.76C99.21 225.4 95.65 211.02 92.51 196.56C92.5061 196.552 92.5037 196.544 92.5031 196.535C92.5025 196.526 92.5036 196.517 92.5064 196.509C92.5092 196.5 92.5136 196.493 92.5193 196.486C92.5251 196.479 92.5321 196.474 92.54 196.47C92.5479 196.466 92.5565 196.464 92.5653 196.463C92.574 196.462 92.5829 196.464 92.5912 196.466C92.5996 196.469 92.6073 196.474 92.614 196.479C92.6206 196.485 92.6261 196.492 92.63 196.5Z" fill="#263238"/>
<path d="M83.7998 187.06C83.7998 187.06 96.5998 237.22 105.55 272.53L122.62 187.06H83.7998Z" fill="#263238"/>
<path d="M126 443.41C123.69 444.14 56.1803 442.68 53.7203 441.03C52.7703 440.42 56.2903 376.44 56.2903 376.44L98.5403 377.26L96.5403 420.07C96.5403 420.07 121.45 431.87 123.97 433.97C126.49 436.07 128.31 442.7 126 443.41Z" fill="#D3766A"/>
<path d="M126 443.41C123.69 444.13 56.1801 442.68 53.7201 441.03C53.4201 440.84 53.4901 434.52 53.7201 425.89C65.9601 427.94 110.33 434.66 113.72 432.65C116.09 431.26 114 429.08 112.05 427.65C117.63 430.43 122.84 433.11 123.91 434.01C126.43 436.05 128.31 442.7 126 443.41Z" fill="#263238"/>
<path d="M122.62 187C122.62 187 121.45 206.18 116.87 221.33C116.5 222.58 116.1 223.81 115.68 224.99C111.631 226.563 107.735 228.505 104.04 230.79C104.04 230.79 101.15 304.15 101.2 308.71C101.39 325.8 97.0004 408.82 97.0004 408.82L54.6104 408.41C54.6104 408.41 59.0103 314.53 59.0303 308.29C59.0303 298.29 67.9203 187.05 67.9203 187.05L122.62 187Z" fill="#37474F"/>
<path d="M113.36 212.8L113.84 209.62C114.14 207.62 114.54 205.74 114.84 203.8C115.61 199.41 116.42 195 117.39 190.64C117.39 190.54 117.6 190.56 117.58 190.64C117.41 192.4 117.21 194.16 116.96 195.91C116.71 197.66 116.54 199.42 116.29 201.17C115.8 204.64 115.29 208.17 114.73 211.58C114.5 212.91 113.67 215.3 115.59 215.71C117.1 216.04 118.22 214.55 118.66 213.3C119.128 211.731 119.463 210.125 119.66 208.5C119.98 206.75 120.25 204.99 120.5 203.23C121.04 199.39 121.64 195.56 122.26 191.74C122.26 191.63 122.46 191.66 122.45 191.74C122.367 195.672 122.083 199.597 121.6 203.5C121.35 205.37 121.08 207.23 120.76 209.09C120.569 210.874 120.135 212.623 119.47 214.29C119.2 214.948 118.768 215.527 118.214 215.973C117.659 216.419 117.001 216.717 116.3 216.84H116.21C116.229 216.852 116.244 216.868 116.254 216.887C116.265 216.907 116.27 216.928 116.27 216.95C116.27 217.58 116.27 218.21 116.2 218.83C116.13 219.45 116.01 220.05 115.89 220.66C115.778 221.281 115.621 221.892 115.42 222.49C115.31 222.77 115.21 223.05 115.08 223.33C114.95 223.61 114.75 223.83 114.58 224.1C114.52 224.21 114.39 224.1 114.38 224.03C114.38 223.93 114.38 223.83 114.38 223.73C114.37 223.55 114.37 223.37 114.38 223.19C114.425 222.89 114.485 222.593 114.56 222.3C114.69 221.71 114.85 221.12 115.01 220.53C115.17 219.94 115.29 219.36 115.44 218.77C115.59 218.18 115.8 217.58 115.94 216.97C115.94 216.97 115.94 216.97 115.94 216.91C115.375 216.937 114.816 216.79 114.337 216.49C113.858 216.19 113.482 215.75 113.26 215.23C113.088 214.425 113.122 213.589 113.36 212.8Z" fill="#263238"/>
<path d="M100.611 232.29C101.88 231.32 103.217 230.441 104.611 229.66C106.073 228.773 107.593 227.985 109.161 227.3C112.221 225.97 115.381 225.06 118.551 224.02C118.641 224.02 118.701 224.14 118.611 224.18C115.551 225.4 112.611 227.02 109.611 228.47C108.151 229.183 106.677 229.85 105.191 230.47C103.711 231.13 102.191 231.9 100.701 232.47C100.611 232.54 100.521 232.36 100.611 232.29Z" fill="#263238"/>
<path d="M76.6901 205.57C78.8471 205.544 80.9928 205.255 83.0801 204.71C84.0801 204.46 84.9901 204.15 85.9301 203.84C86.8659 203.582 87.7423 203.144 88.5101 202.55C89.9601 201.29 90.64 199.32 91.2701 197.55C91.9588 195.589 92.5167 193.585 92.9401 191.55C92.9401 191.526 92.9495 191.503 92.9664 191.486C92.9833 191.469 93.0062 191.46 93.0301 191.46C93.0539 191.46 93.0768 191.469 93.0937 191.486C93.1106 191.503 93.1201 191.526 93.1201 191.55C93.1712 193.867 92.878 196.179 92.2501 198.41C91.7301 200.3 91.0301 202.41 89.5001 203.74C87.8015 205.017 85.7621 205.762 83.6401 205.88C81.3127 206.154 78.9596 206.124 76.6401 205.79C76.6193 205.777 76.6032 205.757 76.5939 205.734C76.5846 205.712 76.5825 205.686 76.5879 205.662C76.5934 205.638 76.6061 205.617 76.6244 205.6C76.6427 205.584 76.6656 205.573 76.6901 205.57Z" fill="#263238"/>
<path d="M62.7602 356.8C63.4802 343.413 64.2402 330.02 65.0402 316.62C66.5802 289.97 68.0402 263.31 69.7502 236.62C70.7502 221.62 71.6702 206.55 72.8502 191.53C72.858 191.503 72.8744 191.479 72.8969 191.462C72.9195 191.445 72.9469 191.436 72.9752 191.436C73.0034 191.436 73.0309 191.445 73.0535 191.462C73.076 191.479 73.0924 191.503 73.1002 191.53C72.0002 218.4 70.4002 245.18 68.8502 272C67.3002 298.82 65.7202 325.28 64.0002 351.92C63.1002 367 61.9102 382 61.0002 397C61.0049 397.014 61.0063 397.028 61.0043 397.042C61.0023 397.056 60.9969 397.07 60.9886 397.082C60.9802 397.093 60.9692 397.103 60.9565 397.11C60.9437 397.116 60.9296 397.12 60.9152 397.12C60.9008 397.12 60.8867 397.116 60.8739 397.11C60.8612 397.103 60.8502 397.093 60.8418 397.082C60.8335 397.07 60.8281 397.056 60.8261 397.042C60.8241 397.028 60.8255 397.014 60.8302 397C61.5202 383.6 62.0002 370.2 62.7602 356.8Z" fill="#263238"/>
<path d="M56.5297 400.2C59.0097 400.02 61.5297 400.05 64.0097 400.02C66.4897 399.99 69.0097 400.02 71.4897 400.02C76.4897 400.07 81.4897 400.15 86.4897 400.29C87.8497 400.29 89.2197 400.37 90.5797 400.43C91.9397 400.49 93.4897 400.75 94.9397 400.8C94.9636 400.8 94.9865 400.809 95.0034 400.826C95.0203 400.843 95.0297 400.866 95.0297 400.89C95.0297 400.914 95.0203 400.937 95.0034 400.954C94.9865 400.97 94.9636 400.98 94.9397 400.98C93.7197 400.98 92.4897 401.17 91.2597 401.21C90.0297 401.25 88.7197 401.21 87.4497 401.21C84.9597 401.21 82.4497 401.21 79.9797 401.21C74.9797 401.21 69.9797 401.11 64.9797 400.9C62.1597 400.78 59.3197 400.75 56.5197 400.47C56.502 400.469 56.4846 400.465 56.4685 400.458C56.4523 400.45 56.4378 400.44 56.4257 400.427C56.4137 400.414 56.4043 400.399 56.3981 400.382C56.3919 400.365 56.3891 400.348 56.3897 400.33C56.3904 400.312 56.3945 400.295 56.4019 400.279C56.4093 400.263 56.4198 400.248 56.4328 400.236C56.4458 400.224 56.4611 400.214 56.4777 400.208C56.4943 400.202 56.512 400.199 56.5297 400.2Z" fill="#263238"/>
<path d="M105.63 143.65C109.7 153.75 125.87 186.4 136.49 188.71C143.49 190.22 171.62 187.49 176.49 180.83C178.6 177.93 175.03 157.69 171.27 158.49C167.51 159.29 144.94 162.28 142.17 161.49C139.4 160.7 118.62 136.76 110.85 130.82C97.4504 120.56 103.44 138.21 105.63 143.65Z" fill="#D3766A"/>
<path d="M130.27 148.64L112.57 159.11C112.57 159.11 105.12 144.93 102.21 135.65C99.2999 126.37 101.8 122.13 112.48 131.36C118.757 136.752 124.698 142.523 130.27 148.64Z" fill="#8661C1"/>
<path d="M111.81 155.47C114.157 153.77 116.547 152.127 118.98 150.54C120.17 149.76 121.36 148.96 122.57 148.21C123.78 147.46 125.13 146.73 126.38 145.95C126.389 145.942 126.399 145.936 126.41 145.932C126.42 145.929 126.432 145.927 126.444 145.928C126.455 145.93 126.466 145.933 126.476 145.939C126.486 145.945 126.495 145.953 126.501 145.962C126.508 145.972 126.512 145.983 126.514 145.994C126.516 146.005 126.516 146.017 126.513 146.028C126.51 146.039 126.504 146.05 126.497 146.059C126.49 146.068 126.481 146.075 126.47 146.08C125.29 146.88 124.17 147.76 122.99 148.57C121.81 149.38 120.53 150.19 119.3 150.99C116.874 152.577 114.404 154.107 111.89 155.58C111.82 155.62 111.74 155.52 111.81 155.47Z" fill="#263238"/>
<path d="M129.34 199.88L125.34 177.31C125.34 177.31 131.49 166.58 127.92 158.87C126.12 154.97 110.32 130.69 103.67 125.87C97.4299 121.34 88.3699 126.18 84.9999 129.73C71.9999 143.41 68.5399 168.64 63.8799 205.62L129.34 199.88Z" fill="#8661C1"/>
<path d="M129 161.11C128.507 159.486 127.779 157.943 126.84 156.53C126.53 156 125.84 154.9 125 153.62C124.766 153.003 124.499 152.398 124.2 151.81C123.707 150.942 123.263 150.047 122.87 149.13C122.87 149.04 122.69 149.13 122.74 149.19C123.159 150.067 123.533 150.965 123.86 151.88C122.45 149.74 120.97 147.54 120.33 146.64C120.33 146.56 120.16 146.64 120.21 146.71C121.56 148.48 125.99 156.24 127.06 158.21C128.092 160.156 128.625 162.327 128.61 164.53C128.584 166.813 128.289 169.086 127.73 171.3C127.67 171.48 127.86 171.58 127.93 171.4C128.582 169.8 129.006 168.117 129.19 166.4C129.446 164.64 129.382 162.847 129 161.11Z" fill="#263238"/>
<path d="M102.53 145.64C102.53 145.64 98.5302 141.21 101.8 138.74C105.07 136.27 108.25 141.29 108.25 141.29L102.53 145.64Z" fill="#455A64"/>
<path d="M133.48 174.41L134.48 180.16L134.81 182.05L133.06 181.24L127.78 178.77L102.42 145.46L108.14 141.11L133.5 174.42L133.48 174.41Z" fill="#455A64"/>
<path d="M134.46 180.16L134.79 182.05L133.04 181.24L134.46 180.16Z" fill="#37474F"/>
<path d="M108.446 140.564L101.771 145.647L102.777 146.968L109.452 141.884L108.446 140.564Z" fill="#263238"/>
<path d="M109.563 142.027L102.888 147.11L103.893 148.431L110.568 143.347L109.563 142.027Z" fill="#263238"/>
<path d="M103.9 148.43L106.05 146.79L114.04 159.74L113.21 160.3L103.9 148.43Z" fill="#263238"/>
<path d="M79.0002 137C63.0002 157 45.5702 190.27 54.2902 196.6C62.2902 202.37 89.5602 194.72 106.53 186.84C109.76 185.34 94.5302 156.84 91.2502 158.84C87.8061 160.944 84.2323 162.828 80.5502 164.48C79.6102 164.8 84.4502 158.09 89.3202 142.37C94.2802 126.35 88.1702 125.49 79.0002 137Z" fill="#D3766A"/>
<path d="M133.4 154C133.63 157.4 125.19 157.25 125.19 157.25C126.467 157.983 127.446 159.14 127.96 160.52C128.75 162.99 125.22 165.31 125.22 165.31C126.383 166.347 127.209 167.709 127.59 169.22C128.11 171.66 124.88 174.51 124.88 174.51C125.427 176.051 125.399 177.738 124.8 179.26C123.05 183.26 116.34 183.75 112.25 184.88C107.681 186.229 103.227 187.942 98.9301 190L89.3301 159.89C89.3301 159.89 106.64 148.11 111.68 148.04C115.93 148 133.05 148.79 133.4 154Z" fill="#D3766A"/>
<path d="M125.11 157.15C120.59 156.15 115.82 156.15 111.23 156.32C111.209 156.32 111.189 156.328 111.174 156.343C111.159 156.358 111.15 156.379 111.15 156.4C111.15 156.421 111.159 156.442 111.174 156.457C111.189 156.472 111.209 156.48 111.23 156.48C115.8 156.31 120.53 157.36 125.09 157.37C125.105 157.371 125.119 157.37 125.133 157.365C125.147 157.361 125.16 157.354 125.171 157.345C125.182 157.336 125.191 157.324 125.198 157.311C125.205 157.298 125.209 157.284 125.21 157.27C125.212 157.256 125.21 157.241 125.206 157.227C125.202 157.213 125.195 157.2 125.185 157.189C125.176 157.178 125.165 157.169 125.152 157.162C125.139 157.155 125.125 157.151 125.11 157.15Z" fill="#263238"/>
<path d="M125.08 165C124.028 164.86 122.962 164.86 121.91 165C120.79 165.09 119.68 165.19 118.56 165.31C116.33 165.55 114.1 165.85 111.89 166.2C111.79 166.2 111.79 166.37 111.89 166.36C114.12 166.13 116.35 165.92 118.58 165.78C119.7 165.71 120.82 165.64 121.93 165.59C122.992 165.606 124.051 165.505 125.09 165.29C125.118 165.276 125.14 165.255 125.156 165.229C125.171 165.202 125.179 165.172 125.178 165.142C125.177 165.111 125.167 165.082 125.15 165.057C125.133 165.031 125.109 165.012 125.08 165Z" fill="#263238"/>
<path d="M124.79 174.5C123.837 174.397 122.874 174.454 121.94 174.67L118.94 175.05C116.94 175.29 114.87 175.53 112.83 175.7C112.73 175.7 112.74 175.87 112.83 175.86C114.9 175.7 116.98 175.56 119.05 175.38C120.05 175.3 121.05 175.2 122.05 175.1C122.986 175.101 123.915 174.931 124.79 174.6C124.798 174.594 124.805 174.587 124.81 174.578C124.814 174.57 124.817 174.56 124.817 174.55C124.817 174.54 124.814 174.53 124.81 174.522C124.805 174.513 124.798 174.505 124.79 174.5Z" fill="#263238"/>
<path d="M83.7799 162.31L66.4199 151.31C66.4199 151.31 75.6899 138.25 82.6399 131.45C89.5899 124.65 94.4999 124.95 91.1199 138.66C89.1573 146.685 86.7061 154.583 83.7799 162.31Z" fill="#8661C1"/>
<path d="M69.3207 149C71.9007 150.333 74.4474 151.717 76.9607 153.15C78.2007 153.86 79.4507 154.56 80.6707 155.3C81.8907 156.04 83.1507 156.9 84.4107 157.66C84.5007 157.72 84.4107 157.86 84.3407 157.81C83.0907 157.12 81.7907 156.52 80.5407 155.81C79.2907 155.1 77.9807 154.36 76.7107 153.62C74.1907 152.18 71.7107 150.67 69.2607 149.1C69.1907 149 69.2507 148.92 69.3207 149Z" fill="#263238"/>
<path d="M83.7804 162.4C84.6104 159.48 85.7804 156.68 86.7804 153.81C87.7804 150.94 88.7804 148.02 89.6204 145.11C89.6164 145.101 89.6148 145.091 89.6156 145.081C89.6164 145.071 89.6197 145.061 89.6252 145.053C89.6307 145.045 89.6381 145.038 89.6469 145.033C89.6556 145.028 89.6654 145.026 89.6754 145.026C89.6854 145.026 89.6952 145.028 89.7039 145.033C89.7127 145.038 89.7201 145.045 89.7256 145.053C89.731 145.061 89.7343 145.071 89.7352 145.081C89.736 145.091 89.7344 145.101 89.7304 145.11C89.3704 146.58 89.0404 148.11 88.6304 149.53C88.4304 150.25 88.2004 150.98 87.9704 151.69C88.1204 151.43 88.2604 151.17 88.4204 150.91C88.9082 150.143 89.4356 149.402 90.0004 148.69C90.0004 148.69 90.0904 148.69 90.0704 148.74C89.6753 149.559 89.2381 150.356 88.7604 151.13C88.4204 151.69 88.0404 152.23 87.6804 152.78L87.2504 154C86.407 156.905 85.299 159.727 83.9404 162.43C83.8904 162.53 83.7604 162.49 83.7804 162.4Z" fill="#263238"/>
<path d="M79.8705 164.68C75.4405 166.98 70.4305 170.39 67.8705 173.09C67.7905 173.17 67.8705 173.3 67.9705 173.23C70.5305 171.23 78.1305 166.59 80.0905 165.28C80.7005 164.87 81.1405 164 79.8705 164.68Z" fill="#263238"/>
<path d="M157.751 190.55L122.391 191.31L137.931 145.59L173.291 144.83L157.751 190.55Z" fill="#EBEBEB"/>
<path d="M160.171 190.5L124.811 191.25L140.351 145.54L175.711 144.78L160.171 190.5Z" fill="#37474F"/>
<path d="M144.11 145.46C143.882 146.256 143.351 146.932 142.63 147.34C142.3 147.53 142.2 147.09 142.53 146.91C142.989 146.643 143.342 146.226 143.53 145.73C143.53 145.64 143.59 145.55 143.61 145.47C143.684 145.188 143.684 144.892 143.61 144.61C143.582 144.486 143.511 144.377 143.41 144.3H143.34C143.261 144.281 143.179 144.281 143.1 144.3C142.947 144.356 142.809 144.449 142.7 144.57C142.563 144.714 142.445 144.875 142.35 145.05L142.2 145.31V145.37C142.196 145.4 142.196 145.43 142.2 145.46C142.197 145.483 142.197 145.507 142.2 145.53H141.7C141.811 145.213 141.966 144.914 142.16 144.64C142.305 144.403 142.5 144.201 142.732 144.047C142.963 143.893 143.226 143.792 143.5 143.75C143.7 143.744 143.895 143.814 144.045 143.946C144.195 144.077 144.29 144.261 144.31 144.46C144.327 144.805 144.258 145.148 144.11 145.46Z" fill="#C7C7C7"/>
<path d="M146.88 145.4C146.652 146.196 146.121 146.872 145.4 147.28C145.07 147.47 144.97 147.03 145.3 146.85C145.756 146.58 146.108 146.164 146.3 145.67C146.333 145.586 146.356 145.499 146.37 145.41C146.449 145.129 146.449 144.831 146.37 144.55C146.338 144.426 146.264 144.316 146.16 144.24H146.09C146.009 144.216 145.922 144.216 145.84 144.24C145.687 144.296 145.549 144.389 145.44 144.51C145.254 144.741 145.09 144.989 144.95 145.25V145.31C144.948 145.343 144.948 145.377 144.95 145.41C144.946 145.43 144.946 145.45 144.95 145.47H144.45C144.561 145.153 144.716 144.854 144.91 144.58C145.055 144.343 145.25 144.141 145.482 143.987C145.713 143.833 145.976 143.732 146.25 143.69C146.45 143.682 146.644 143.751 146.794 143.883C146.943 144.016 147.035 144.201 147.05 144.4C147.08 144.742 147.022 145.087 146.88 145.4Z" fill="#C7C7C7"/>
<path d="M149.64 145.34C149.533 145.735 149.347 146.105 149.095 146.428C148.842 146.751 148.528 147.02 148.17 147.22C147.84 147.41 147.74 146.97 148.06 146.79C148.518 146.521 148.87 146.105 149.06 145.61C149.06 145.53 149.11 145.44 149.13 145.35C149.209 145.069 149.209 144.771 149.13 144.49C149.098 144.366 149.024 144.256 148.92 144.18C148.897 144.185 148.873 144.185 148.85 144.18C148.769 144.156 148.682 144.156 148.6 144.18C148.447 144.236 148.309 144.329 148.2 144.45C148.068 144.596 147.954 144.757 147.86 144.93C147.804 145.013 147.754 145.1 147.71 145.19V145.26C147.706 145.29 147.706 145.32 147.71 145.35C147.71 145.35 147.71 145.35 147.71 145.41H147.2C147.316 145.095 147.47 144.796 147.66 144.52C147.81 144.287 148.006 144.088 148.237 143.934C148.467 143.781 148.727 143.677 149 143.63C149.201 143.621 149.397 143.69 149.547 143.823C149.698 143.955 149.792 144.14 149.81 144.34C149.837 144.682 149.778 145.026 149.64 145.34Z" fill="#C7C7C7"/>
<path d="M152.41 145.28C152.302 145.675 152.117 146.045 151.864 146.368C151.612 146.691 151.298 146.96 150.94 147.16C150.6 147.35 150.5 146.91 150.83 146.73C151.288 146.463 151.641 146.046 151.83 145.55C151.861 145.468 151.888 145.385 151.91 145.3C151.989 145.015 151.989 144.714 151.91 144.43C151.882 144.306 151.811 144.197 151.71 144.12H151.6C151.518 144.095 151.431 144.095 151.35 144.12C151.197 144.178 151.061 144.27 150.95 144.39C150.815 144.533 150.7 144.695 150.61 144.87C150.552 144.955 150.502 145.046 150.46 145.14V145.2C150.457 145.23 150.457 145.26 150.46 145.29C150.46 145.29 150.46 145.29 150.46 145.35H149.96C150.075 145.038 150.23 144.743 150.42 144.47C150.565 144.232 150.76 144.028 150.991 143.873C151.223 143.718 151.485 143.614 151.76 143.57C151.96 143.561 152.156 143.63 152.307 143.763C152.458 143.895 152.552 144.08 152.57 144.28C152.599 144.621 152.544 144.965 152.41 145.28Z" fill="#C7C7C7"/>
<path d="M155.18 145.23C154.953 146.026 154.421 146.701 153.701 147.11C153.371 147.29 153.271 146.85 153.601 146.68C154.057 146.406 154.409 145.987 154.601 145.49C154.632 145.408 154.658 145.325 154.68 145.24C154.755 144.955 154.755 144.655 154.68 144.37C154.654 144.248 154.583 144.141 154.48 144.07H154.411C154.332 144.045 154.249 144.045 154.171 144.07C154.018 144.128 153.881 144.22 153.771 144.34C153.636 144.486 153.518 144.647 153.421 144.82L153.271 145.09V145.15C153.267 145.18 153.267 145.21 153.271 145.24C153.271 145.24 153.271 145.24 153.271 145.3H152.771C152.882 144.986 153.037 144.69 153.23 144.42C153.379 144.185 153.575 143.984 153.806 143.829C154.036 143.674 154.297 143.569 154.571 143.52C154.77 143.514 154.965 143.584 155.115 143.715C155.266 143.847 155.36 144.031 155.381 144.23C155.396 144.574 155.327 144.918 155.18 145.23Z" fill="#C7C7C7"/>
<path d="M158 145.17C157.769 145.965 157.239 146.639 156.52 147.05C156.19 147.23 156.09 146.79 156.42 146.62C156.879 146.348 157.231 145.929 157.42 145.43C157.453 145.349 157.476 145.266 157.49 145.18C157.569 144.895 157.569 144.595 157.49 144.31C157.46 144.19 157.389 144.084 157.29 144.01H157.22C157.138 143.986 157.052 143.986 156.97 144.01C156.819 144.07 156.682 144.162 156.57 144.28C156.438 144.426 156.324 144.587 156.23 144.76C156.174 144.846 156.124 144.937 156.08 145.03V145.09C156.076 145.12 156.076 145.15 156.08 145.18C156.076 145.2 156.076 145.22 156.08 145.24H155.58C155.691 144.926 155.846 144.63 156.04 144.36C156.189 144.125 156.385 143.924 156.615 143.769C156.846 143.614 157.106 143.509 157.38 143.46C157.579 143.452 157.774 143.521 157.923 143.653C158.073 143.786 158.165 143.971 158.18 144.17C158.207 144.513 158.145 144.858 158 145.17Z" fill="#C7C7C7"/>
<path d="M160.71 145.11C160.487 145.906 159.959 146.581 159.24 146.99C158.91 147.17 158.81 146.74 159.14 146.56C159.411 146.41 159.647 146.204 159.831 145.956C160.016 145.707 160.145 145.422 160.21 145.12C160.289 144.835 160.289 144.535 160.21 144.25C160.181 144.127 160.106 144.02 160 143.95H159.93C159.849 143.926 159.762 143.926 159.68 143.95C159.529 144.01 159.393 144.102 159.28 144.22C159.148 144.366 159.034 144.527 158.94 144.7C158.88 144.79 158.84 144.88 158.79 144.97V145.03C158.787 145.06 158.787 145.09 158.79 145.12C158.79 145.12 158.79 145.12 158.79 145.18H158.28C158.396 144.868 158.55 144.573 158.74 144.3C158.886 144.064 159.082 143.862 159.313 143.709C159.544 143.555 159.806 143.453 160.08 143.41C160.279 143.401 160.474 143.469 160.624 143.599C160.775 143.729 160.87 143.912 160.89 144.11C160.912 144.453 160.85 144.796 160.71 145.11Z" fill="#C7C7C7"/>
<path d="M163.48 145.05C163.371 145.445 163.185 145.814 162.933 146.137C162.68 146.459 162.367 146.729 162.01 146.93C161.67 147.12 161.57 146.68 161.9 146.5C162.361 146.231 162.714 145.81 162.9 145.31C162.931 145.228 162.958 145.145 162.98 145.06C163.059 144.775 163.059 144.475 162.98 144.19C162.951 144.069 162.88 143.963 162.78 143.89H162.72C162.639 143.861 162.551 143.861 162.47 143.89C162.314 143.94 162.175 144.034 162.07 144.16C161.933 144.298 161.818 144.457 161.73 144.63C161.67 144.72 161.63 144.81 161.58 144.9V144.96L161.53 145.05C161.53 145.05 161.53 145.05 161.53 145.11H161C161.115 144.798 161.27 144.503 161.46 144.23C161.605 143.993 161.8 143.791 162.032 143.637C162.263 143.483 162.525 143.382 162.8 143.34C162.999 143.331 163.193 143.399 163.344 143.529C163.495 143.659 163.59 143.842 163.61 144.04C163.649 144.382 163.604 144.729 163.48 145.05Z" fill="#C7C7C7"/>
<path d="M166.25 145C166.025 145.798 165.493 146.474 164.77 146.88C164.44 147.07 164.34 146.63 164.67 146.45C165.131 146.181 165.484 145.76 165.67 145.26C165.701 145.178 165.728 145.095 165.75 145.01C165.824 144.728 165.824 144.432 165.75 144.15C165.722 144.026 165.651 143.917 165.55 143.84H165.48C165.403 143.811 165.317 143.811 165.24 143.84C165.084 143.89 164.945 143.984 164.84 144.11C164.7 144.252 164.582 144.413 164.49 144.59C164.49 144.67 164.4 144.76 164.34 144.85V144.91C164.336 144.94 164.336 144.97 164.34 145C164.34 145 164.34 145 164.34 145.06H163.84C163.953 144.747 164.108 144.451 164.3 144.18C164.445 143.943 164.64 143.741 164.872 143.587C165.103 143.433 165.365 143.332 165.64 143.29C165.839 143.281 166.033 143.349 166.184 143.479C166.334 143.609 166.43 143.792 166.45 143.99C166.467 144.338 166.398 144.685 166.25 145Z" fill="#C7C7C7"/>
<path d="M169 144.93C168.772 145.726 168.241 146.401 167.52 146.81C167.19 147 167.09 146.56 167.42 146.38C167.879 146.108 168.231 145.689 168.42 145.19C168.451 145.108 168.478 145.025 168.5 144.94C168.574 144.658 168.574 144.362 168.5 144.08C168.467 143.958 168.397 143.85 168.3 143.77H168.23C168.148 143.746 168.062 143.746 167.98 143.77C167.826 143.826 167.689 143.919 167.58 144.04C167.443 144.182 167.329 144.344 167.24 144.52C167.184 144.603 167.134 144.69 167.09 144.78V144.84C167.086 144.87 167.086 144.9 167.09 144.93C167.086 144.95 167.086 144.97 167.09 144.99H166.59C166.703 144.677 166.858 144.381 167.05 144.11C167.195 143.873 167.39 143.671 167.622 143.517C167.853 143.363 168.115 143.262 168.39 143.22C168.588 143.211 168.781 143.279 168.93 143.41C169.079 143.54 169.172 143.723 169.19 143.92C169.216 144.267 169.15 144.616 169 144.93Z" fill="#C7C7C7"/>
<path d="M171.78 144.87C171.671 145.265 171.485 145.634 171.233 145.957C170.981 146.279 170.667 146.549 170.31 146.75C169.98 146.94 169.88 146.5 170.21 146.32C170.481 146.17 170.717 145.964 170.901 145.716C171.086 145.467 171.215 145.182 171.28 144.88C171.359 144.599 171.359 144.301 171.28 144.02C171.248 143.896 171.174 143.786 171.07 143.71H171C170.919 143.686 170.832 143.686 170.75 143.71C170.597 143.766 170.46 143.859 170.35 143.98C170.214 144.122 170.099 144.284 170.01 144.46C169.954 144.543 169.904 144.63 169.86 144.72V144.78C169.857 144.81 169.857 144.84 169.86 144.87C169.86 144.87 169.86 144.87 169.86 144.93H169.36C169.467 144.612 169.622 144.311 169.82 144.04C169.964 143.804 170.157 143.602 170.387 143.448C170.617 143.294 170.877 143.193 171.15 143.15C171.349 143.141 171.544 143.209 171.694 143.339C171.845 143.469 171.94 143.652 171.96 143.85C171.995 144.2 171.933 144.553 171.78 144.87Z" fill="#C7C7C7"/>
<path d="M174.55 144.81C174.441 145.205 174.255 145.574 174.003 145.897C173.75 146.219 173.437 146.489 173.08 146.69C172.74 146.88 172.64 146.44 172.97 146.26C173.428 145.993 173.781 145.576 173.97 145.08C173.97 144.99 174.03 144.9 174.05 144.82C174.124 144.538 174.124 144.242 174.05 143.96C174.014 143.837 173.94 143.729 173.84 143.65H173.79H173.73C173.648 143.63 173.562 143.63 173.48 143.65C173.327 143.706 173.189 143.799 173.08 143.92C172.943 144.062 172.828 144.223 172.74 144.4C172.684 144.483 172.634 144.57 172.59 144.66V144.72C172.586 144.75 172.586 144.78 172.59 144.81C172.586 144.833 172.586 144.857 172.59 144.88H172C172.115 144.565 172.27 144.266 172.46 143.99C172.605 143.753 172.8 143.551 173.032 143.397C173.263 143.243 173.525 143.142 173.8 143.1C174 143.091 174.196 143.16 174.347 143.293C174.498 143.425 174.592 143.61 174.61 143.81C174.671 144.143 174.651 144.486 174.55 144.81Z" fill="#C7C7C7"/>
<path d="M173.45 155.12C175.12 159.03 179.51 163.98 179.77 167.12C179.856 167.895 179.692 168.677 179.302 169.352C178.911 170.027 178.315 170.559 177.6 170.87C177.6 170.87 180.67 172.55 180.43 175.44C180.3 176.94 177.81 178.05 177.81 178.05C178.477 178.471 179.016 179.066 179.368 179.771C179.721 180.476 179.874 181.264 179.81 182.05C179.51 184.05 177.06 184.9 177.06 184.9C177.06 184.9 178.71 187.37 177.74 189.35C175.74 193.35 158.08 192.67 155.6 186.05C154.45 182.96 158.76 183.36 158.76 183.36C158.76 183.36 152.7 181.28 152.76 177.63C152.82 173.98 158.38 174.85 158.38 174.85C158.38 174.85 152.55 172.8 153 169C153.45 165.06 158.88 166.88 158.88 166.88C158.88 166.88 155.05 164.06 156.04 161.24C157.69 156.59 164.9 162.81 168.83 162.04L171.23 155.71L173.45 155.12Z" fill="#D3766A"/>
<path d="M176.77 160.84C175.51 157 180.38 152.51 179.71 148.67C178.8 143.47 172.79 148.29 171.21 155.73L170.99 161.73L176.77 160.84Z" fill="#D3766A"/>
<path d="M176.72 185.1C176.733 185.1 176.746 185.105 176.756 185.115C176.765 185.124 176.77 185.137 176.77 185.15C176.77 185.163 176.765 185.176 176.756 185.185C176.746 185.195 176.733 185.2 176.72 185.2C170.617 186.456 164.276 185.825 158.54 183.39C158.36 183.31 158.42 182.98 158.63 183.03C164.527 184.597 170.622 185.295 176.72 185.1Z" fill="#263238"/>
<path d="M177.9 178.1C177.97 178.1 177.97 178.21 177.9 178.22C171.159 179.539 164.168 178.404 158.19 175.02C157.98 174.89 157.92 174.58 158.19 174.7C162.33 176.81 172.18 178.36 177.9 178.1Z" fill="#263238"/>
<path d="M158.5 166.5C164.38 169.76 170.71 170.8 177.36 170.94C177.44 170.94 177.43 171.06 177.36 171.08C174.09 171.9 169.86 171.37 166.6 170.68C163.562 170.085 160.731 168.706 158.39 166.68C158.3 166.63 158.38 166.43 158.5 166.5Z" fill="#263238"/>
<path d="M92.25 124.88C92.5 125.95 100.25 132.73 105.18 132.5C106.77 132.43 104.03 123.9 104.03 123.9L104.18 123.26L106.18 114.26L95.63 107.47L94.1 106.57C94.1 106.57 93.71 109.07 93.26 112.18C93.26 112.32 93.26 112.47 93.19 112.62C93.12 112.77 93.13 112.96 93.11 113.13C93.03 113.59 92.96 114.07 92.9 114.54C92.84 115.01 92.8 115.25 92.76 115.63C92.72 116.01 92.67 116.38 92.62 116.76C92.3091 119.455 92.1855 122.168 92.25 124.88Z" fill="#D3766A"/>
<path d="M93.2803 112.18C94.1852 114.707 95.6288 117.006 97.511 118.919C99.3931 120.833 101.669 122.314 104.18 123.26L106.18 114.26L95.6303 107.47L94.1003 106.57C94.1003 106.57 93.7303 109.07 93.2803 112.18Z" fill="#263238"/>
<path d="M120.08 103C118.87 119.13 109.08 120.23 105.59 120C102.44 119.76 91.7205 118.54 91.2505 102.37C90.7805 86.2 98.6705 81.66 105.92 81.83C113.17 82 121.28 86.86 120.08 103Z" fill="#D3766A"/>
<path d="M91.6798 101.25C95.4698 101.9 96.4198 95.9 96.4198 95.9C96.4198 95.9 100.8 96.2 102.25 89.29C102.862 90.8253 103.821 92.1977 105.053 93.2995C106.285 94.4013 107.756 95.2024 109.35 95.64C110.56 96.02 106.93 92.14 106.93 92.14C106.93 92.14 111.17 97.45 120.68 97.24C121.35 97.24 121.54 87.24 114.84 82.76C108.14 78.28 101.3 79.09 96.0798 82.93C94.6956 83.392 93.4463 84.1873 92.4419 85.2458C91.4375 86.3043 90.7087 87.5936 90.3198 89C88.9098 94 90.1998 101 91.6798 101.25Z" fill="#263238"/>
<path d="M93.9998 102.68C93.9998 102.68 91.2998 97.1299 88.8398 97.9999C86.3798 98.8699 87.8398 106.53 90.3098 108C90.618 108.204 90.9643 108.344 91.3279 108.411C91.6915 108.477 92.0648 108.47 92.4255 108.389C92.7861 108.307 93.1265 108.154 93.4263 107.938C93.7261 107.721 93.979 107.447 94.1698 107.13L93.9998 102.68Z" fill="#D3766A"/>
<path d="M89.3001 100.18C89.3001 100.18 89.2401 100.18 89.3001 100.25C91.0401 101.31 91.7401 103.19 92.1301 105.1C92.0535 104.895 91.9332 104.71 91.7776 104.557C91.6219 104.404 91.4347 104.286 91.229 104.213C91.0233 104.14 90.8041 104.112 90.5866 104.132C90.3692 104.153 90.1588 104.22 89.9701 104.33C89.9101 104.33 89.9701 104.44 89.9701 104.43C90.3154 104.38 90.6675 104.438 90.9788 104.596C91.2901 104.753 91.5454 105.002 91.7101 105.31C91.9758 105.827 92.1869 106.37 92.3401 106.93C92.4001 107.11 92.7201 107.07 92.6801 106.87V106.82C93.1201 104.46 91.8101 100.84 89.3001 100.18Z" fill="#263238"/>
<path d="M117.251 99.82C116.881 99.72 116.551 99.57 116.251 99.44C115.861 99.3592 115.51 99.1517 115.251 98.85C115.188 98.7386 115.164 98.6096 115.182 98.483C115.2 98.3564 115.259 98.2393 115.351 98.15C115.557 98.0023 115.8 97.9124 116.053 97.8896C116.306 97.8667 116.561 97.9117 116.791 98.02C117.291 98.1661 117.719 98.4943 117.991 98.94C118.054 99.0487 118.083 99.1745 118.072 99.3C118.062 99.4256 118.012 99.5448 117.931 99.6413C117.85 99.7378 117.741 99.8067 117.619 99.8387C117.497 99.8707 117.369 99.8642 117.251 99.82Z" fill="#263238"/>
<path d="M106.921 98.27C107.282 98.2655 107.642 98.2421 108.001 98.2C108.396 98.2284 108.789 98.1266 109.121 97.91C109.212 97.8207 109.271 97.7036 109.29 97.577C109.308 97.4504 109.283 97.3214 109.221 97.21C109.063 97.0093 108.855 96.8543 108.618 96.7611C108.38 96.6679 108.122 96.6399 107.871 96.68C107.351 96.6813 106.852 96.8776 106.471 97.23C106.384 97.3165 106.326 97.4268 106.304 97.5467C106.281 97.6666 106.295 97.7905 106.343 97.9025C106.392 98.0145 106.473 98.1093 106.575 98.1748C106.678 98.2404 106.799 98.2735 106.921 98.27Z" fill="#263238"/>
<path d="M108.64 102.65C108.64 102.6 108.55 102.65 108.54 102.73C108.45 103.83 108.16 105.07 107.12 105.32V105.38C108.35 105.35 108.73 103.7 108.64 102.65Z" fill="#263238"/>
<path d="M107.8 101.39C106.05 101.05 105.5 104.56 107.12 104.88C108.74 105.2 109.26 101.68 107.8 101.39Z" fill="#263238"/>
<path d="M107.08 101.47C106.74 101.62 106.38 101.92 106.01 101.9C105.64 101.88 105.31 101.45 105.09 101.06C105.09 101.06 105.03 101.06 105.02 101.06C104.9 101.73 105.02 102.46 105.76 102.67C106.5 102.88 106.97 102.35 107.24 101.67C107.29 101.61 107.22 101.41 107.08 101.47Z" fill="#263238"/>
<path d="M114.57 103.52C114.57 103.52 114.64 103.58 114.64 103.62C114.42 104.71 114.36 105.98 115.28 106.5C115.28 106.5 115.28 106.57 115.28 106.56C114.09 106.2 114.19 104.5 114.57 103.52Z" fill="#263238"/>
<path d="M115.73 102.54C117.5 102.7 117.05 106.23 115.41 106.08C113.77 105.93 114.24 102.41 115.73 102.54Z" fill="#263238"/>
<path d="M116.43 102.87C116.69 103.09 116.92 103.46 117.25 103.53C117.58 103.6 117.97 103.25 118.25 102.92C118.18 103.6 117.87 104.28 117.25 104.32C116.63 104.36 116.25 103.73 116.25 103.04C116.21 103 116.33 102.78 116.43 102.87Z" fill="#263238"/>
<path d="M107.3 111.44C107.5 111.74 107.69 112.14 108.07 112.25C108.473 112.334 108.888 112.334 109.29 112.25C109.29 112.25 109.35 112.25 109.29 112.32C109.091 112.498 108.848 112.62 108.586 112.673C108.324 112.725 108.053 112.707 107.8 112.62C107.59 112.519 107.415 112.357 107.297 112.156C107.18 111.955 107.125 111.723 107.14 111.49C107.18 111.4 107.27 111.39 107.3 111.44Z" fill="#263238"/>
<path d="M112.43 108.16C112.429 108.972 112.385 109.783 112.3 110.59C112.3 110.66 112.1 110.67 111.84 110.59C111.163 110.613 110.493 110.45 109.902 110.119C109.312 109.787 108.823 109.3 108.49 108.71C108.482 108.693 108.48 108.673 108.485 108.655C108.49 108.636 108.501 108.62 108.517 108.609C108.533 108.598 108.552 108.593 108.571 108.595C108.59 108.597 108.607 108.606 108.62 108.62C109.504 109.433 110.626 109.938 111.82 110.06C111.9 109.86 111.74 107.22 111.82 107.23C112.406 107.368 112.971 107.583 113.5 107.87C113.63 104.42 113.2 100.96 113.38 97.5199C113.38 97.4934 113.391 97.468 113.41 97.4492C113.428 97.4305 113.454 97.4199 113.48 97.4199C113.507 97.4199 113.532 97.4305 113.551 97.4492C113.57 97.468 113.58 97.4934 113.58 97.5199C114.157 101.207 114.361 104.942 114.19 108.67C114.21 109.14 112.72 108.33 112.43 108.16Z" fill="#263238"/>
<path d="M111.391 110.16C110.92 110.653 110.332 111.018 109.681 111.22C109.326 111.335 108.945 111.335 108.591 111.22C107.831 110.93 107.881 110.22 108.091 109.61C108.205 109.293 108.356 108.991 108.541 108.71C109.312 109.485 110.31 109.993 111.391 110.16Z" fill="#263238"/>
<path d="M109.681 111.22C109.326 111.335 108.945 111.335 108.591 111.22C107.831 110.93 107.881 110.22 108.091 109.61C108.496 109.666 108.871 109.854 109.159 110.145C109.446 110.436 109.629 110.814 109.681 111.22Z" fill="#FF9CBD"/>
<path d="M119.821 86.9999C117.961 86.5599 107.621 86.8599 102.971 88.8599C98.3205 90.8599 90.0705 97.5499 89.6505 97.8599C89.2305 98.1699 87.1005 81.16 100.921 78.05C116.001 74.72 119.821 86.9999 119.821 86.9999Z" fill="#8661C1"/>
<path d="M90.4404 97.2199C90.4404 97.2199 99.5804 85.2199 104.66 82.4099C109.74 79.5999 121.11 78.0999 128.14 81.1999C133.63 83.6099 120.24 90.6699 120.24 90.6699C120.117 90.0885 119.86 89.5441 119.488 89.0804C119.116 88.6167 118.641 88.2466 118.1 87.9999C114.68 86.6399 108.18 87.6899 104.47 88.9299C99.8104 90.5199 90.4404 97.2199 90.4404 97.2199Z" fill="#8661C1"/>
<path opacity="0.2" d="M90.4404 97.2199C90.4404 97.2199 99.5804 85.2199 104.66 82.4099C109.74 79.5999 121.11 78.0999 128.14 81.1999C133.63 83.6099 120.24 90.6699 120.24 90.6699C120.117 90.0885 119.86 89.5441 119.488 89.0804C119.116 88.6167 118.641 88.2466 118.1 87.9999C114.68 86.6399 108.18 87.6899 104.47 88.9299C99.8104 90.5199 90.4404 97.2199 90.4404 97.2199Z" fill="black"/>
<path d="M104 123.88L101.82 131.27L92.1099 123.11L89.8799 126.23C89.8799 126.23 99.8799 139.73 99.8799 139.07L102.23 132.66L106.87 136.53L105.51 125.84L104 123.88Z" fill="#8661C1"/>
<path d="M106.55 131.2C106.26 129.45 106.03 127.67 105.66 125.93C105.66 125.87 105.55 125.85 105.54 125.93C105.35 127.67 106.47 134.39 106.62 136.01C106.42 135.84 102.33 132.63 102.3 132.69C101.76 133.69 100.03 138.4 99.9202 138.82C98.3302 136.67 92.3002 128.91 90.4802 126.91C90.4709 126.897 90.4567 126.888 90.4408 126.885C90.4248 126.882 90.4084 126.886 90.3952 126.895C90.3819 126.904 90.3729 126.918 90.3701 126.934C90.3673 126.95 90.3709 126.967 90.3802 126.98C91.8202 129.27 99.8202 139.74 99.9202 139.7C100.855 137.484 101.673 135.221 102.37 132.92C103.08 133.64 107.25 137.31 107.24 137.04C107.13 135.23 106.83 133 106.55 131.2Z" fill="#263238"/>
</svg>
