<svg width="500" height="500" viewBox="0 0 500 500" fill="none" xmlns="http://www.w3.org/2000/svg">
<path d="M410 72.0701C353.83 72.0701 353.74 151.94 410 151.94C466.26 151.94 466.29 72.0701 410 72.0701Z" fill="#EBEBEB"/>
<path d="M444.18 119.49C441.18 133.23 429.8 145.15 410.02 145.15C363.34 145.15 363.41 78.8601 410.02 78.8601C410.33 78.8601 410.63 78.8601 410.94 78.8601C367.07 79.6601 367.29 142.44 411.8 142.44C430 142.46 440.78 132 444.18 119.49Z" fill="#DBDBDB"/>
<path d="M410.36 87.6C410.729 87.5889 411.087 87.7214 411.359 87.9696C411.632 88.2178 411.797 88.5622 411.82 88.93V91.16C415.72 91.4185 419.469 92.7663 422.64 95.05C423.18 95.44 423.49 95.77 423.49 96.33C423.462 96.7227 423.281 97.0885 422.985 97.3486C422.689 97.6086 422.303 97.742 421.91 97.72C421.508 97.7331 421.115 97.5939 420.81 97.33C418.164 95.3105 415.012 94.0613 411.7 93.72V109.28C420.94 111.06 424.83 114.28 424.83 119.68C424.83 125.58 419.42 129.74 411.83 129.97V134.3C411.8 134.665 411.634 135.005 411.364 135.253C411.095 135.502 410.742 135.639 410.375 135.639C410.009 135.639 409.656 135.502 409.387 135.253C409.117 135.005 408.951 134.665 408.92 134.3V129.91C403.909 129.589 399.124 127.704 395.24 124.52C395.041 124.395 394.876 124.223 394.759 124.019C394.642 123.815 394.577 123.585 394.57 123.35C394.605 122.971 394.78 122.618 395.061 122.361C395.342 122.104 395.709 121.961 396.09 121.96C396.493 121.947 396.886 122.086 397.19 122.35C400.48 125.263 404.622 127.037 409 127.41V111.56C399.88 109.73 396.11 106.67 396.11 101.11C396.11 95.55 401.46 91.21 408.88 91.05V88.93C408.901 88.5577 409.068 88.2087 409.346 87.9594C409.623 87.7101 409.988 87.5809 410.36 87.6ZM409 108.73V93.55C403.1 93.66 399.21 96.89 399.21 100.89C399.24 104.67 401.19 107 409 108.73ZM411.67 112.12V127.47C417.75 127.35 421.67 124.13 421.67 119.9C421.73 116.07 419.6 113.73 411.7 112.12H411.67Z" fill="#DBDBDB"/>
<path d="M116.44 134.4C74.4403 134.4 74.3703 194.12 116.44 194.12C158.51 194.12 158.5 134.4 116.44 134.4Z" fill="#EBEBEB"/>
<path d="M142 169.86C139.74 180.13 131.22 189 116.43 189C81.5297 189 81.5797 139.44 116.43 139.44H117.12C84.3197 140.04 84.4797 186.98 117.76 186.98C131.34 187 139.43 179.17 142 169.86Z" fill="#DBDBDB"/>
<path d="M116.69 146C116.966 145.992 117.235 146.092 117.438 146.278C117.642 146.465 117.764 146.724 117.78 147V148.66C120.695 148.857 123.497 149.865 125.87 151.57C126.27 151.86 126.5 152.11 126.5 152.57C126.47 152.856 126.33 153.12 126.11 153.306C125.89 153.493 125.607 153.587 125.32 153.57C125.02 153.581 124.726 153.478 124.5 153.28C122.523 151.768 120.166 150.833 117.69 150.58V162.21C124.59 163.54 127.5 165.91 127.5 169.99C127.5 174.39 123.5 177.51 117.78 177.68V180.92C117.78 181.209 117.665 181.486 117.461 181.691C117.256 181.895 116.979 182.01 116.69 182.01C116.401 182.01 116.124 181.895 115.919 181.691C115.715 181.486 115.6 181.209 115.6 180.92V177.64C111.857 177.415 108.281 176.015 105.38 173.64C105.227 173.552 105.101 173.425 105.013 173.272C104.925 173.119 104.879 172.946 104.88 172.77C104.914 172.494 105.048 172.24 105.256 172.056C105.464 171.872 105.732 171.77 106.01 171.77C106.309 171.764 106.601 171.867 106.83 172.06C109.298 174.245 112.405 175.574 115.69 175.85V163.93C108.87 162.56 106.06 160.27 106.06 156.11C106.06 151.95 110.06 148.71 115.6 148.59V147C115.615 146.724 115.738 146.465 115.942 146.278C116.145 146.092 116.414 145.992 116.69 146ZM115.69 161.8V150.46C111.28 150.54 108.37 152.95 108.37 155.95C108.37 158.77 109.83 160.52 115.69 161.81V161.8ZM117.69 164.33V175.81C122.23 175.73 125.19 173.31 125.19 170.15C125.19 167.3 123.59 165.55 117.69 164.34V164.33Z" fill="#DBDBDB"/>
<path d="M79.7099 269.16C29.1399 278.23 42.4899 353.16 93.1499 344.06C143.81 334.96 130.37 260.07 79.7099 269.16Z" fill="#DBDBDB"/>
<path d="M84.4598 268.3C36.2598 277 49.6198 351.87 97.8998 343.21C146.18 334.55 132.74 259.64 84.4598 268.3Z" fill="#EBEBEB"/>
<path d="M121.75 307.52C121.49 320.87 113.75 333.8 96.7496 336.84C56.6896 344.03 45.5996 281.84 85.5996 274.67C85.8596 274.67 86.1196 274.58 86.3796 274.55C48.8696 282.06 59.6196 340.9 97.8196 334.05C113.4 331.25 120.92 319.73 121.75 307.52Z" fill="#DBDBDB"/>
<path d="M87.3604 282.82C87.6872 282.764 88.0231 282.837 88.2973 283.023C88.5715 283.21 88.7626 283.495 88.8304 283.82L89.2104 285.91C92.6488 285.575 96.1092 286.271 99.1504 287.91C99.6804 288.2 100 288.46 100.09 288.98C100.146 289.329 100.063 289.687 99.8597 289.976C99.6562 290.266 99.348 290.464 99.0004 290.53C98.8288 290.566 98.6517 290.567 98.4798 290.533C98.3078 290.499 98.1447 290.43 98.0004 290.33C95.4452 288.856 92.5152 288.161 89.5704 288.33L92.1504 303C100.38 303.24 104.25 305.62 105.15 310.73C106.15 316.26 102.15 321 95.7204 322.38L96.4504 326.44C96.4799 326.604 96.4768 326.773 96.4413 326.936C96.4058 327.098 96.3385 327.253 96.2433 327.39C96.1482 327.527 96.0269 327.644 95.8866 327.734C95.7462 327.824 95.5895 327.885 95.4254 327.915C95.2612 327.945 95.0928 327.942 94.9299 327.906C94.7669 327.87 94.6125 327.803 94.4756 327.708C94.3386 327.613 94.2217 327.492 94.1316 327.351C94.0415 327.211 93.9799 327.054 93.9504 326.89L93.2104 322.77C88.78 323.214 84.3288 322.157 80.5704 319.77C80.308 319.656 80.0894 319.461 79.9469 319.213C79.8044 318.965 79.7456 318.677 79.7793 318.393C79.813 318.109 79.9373 317.844 80.1338 317.636C80.3304 317.428 80.5887 317.289 80.8704 317.24C81.042 317.206 81.2187 317.206 81.3903 317.24C81.5619 317.275 81.725 317.343 81.8704 317.44C85.0971 319.639 88.9781 320.669 92.8704 320.36L90.2404 305.5C82.1104 305.18 78.3704 302.89 77.4304 297.68C76.4904 292.47 80.3504 287.57 86.6904 286.28L86.3304 284.28C86.2804 283.951 86.3597 283.615 86.5517 283.343C86.7436 283.071 87.0334 282.883 87.3604 282.82ZM89.7704 302.82L87.2104 288.6C82.2104 289.6 79.3804 293.24 80.0504 296.99C80.6904 300.54 82.7504 302.43 89.7704 302.84V302.82ZM92.6304 305.59L95.2104 320C100.41 319 103.26 315.33 102.55 311.36C101.9 307.77 99.6804 305.9 92.6304 305.61V305.59Z" fill="#DBDBDB"/>
<path d="M404.76 257.48C366.95 264.27 376.94 320.28 414.81 313.48C452.68 306.68 442.64 250.68 404.76 257.48Z" fill="#DBDBDB"/>
<path d="M408.31 256.84C372.31 263.31 382.31 319.33 418.36 312.84C454.41 306.35 444.41 250.37 408.31 256.84Z" fill="#EBEBEB"/>
<path d="M436.19 286.16C436 296.16 430.19 305.81 417.5 308.09C387.55 313.46 379.26 266.97 409.16 261.61L409.75 261.51C381.75 267.13 389.75 311.12 418.3 306C430 303.91 435.57 295.29 436.19 286.16Z" fill="#DBDBDB"/>
<path d="M415.51 267.67C415.755 267.712 415.976 267.843 416.13 268.039C416.283 268.235 416.358 268.482 416.339 268.73L416.149 270.3C418.685 270.796 421.013 272.043 422.829 273.88C422.985 273.993 423.108 274.145 423.187 274.321C423.265 274.496 423.297 274.689 423.279 274.88C423.262 275.012 423.219 275.139 423.152 275.254C423.085 275.369 422.996 275.469 422.89 275.549C422.784 275.629 422.663 275.688 422.534 275.72C422.405 275.753 422.271 275.76 422.14 275.74C422.008 275.728 421.88 275.69 421.763 275.628C421.647 275.566 421.543 275.482 421.459 275.38C419.952 273.771 418.005 272.641 415.859 272.13L414.57 283.13C420.4 285.13 422.65 287.64 422.2 291.49C421.71 295.66 417.86 298.2 412.92 297.78L412.559 300.85C412.518 301.094 412.388 301.313 412.194 301.467C412 301.62 411.756 301.696 411.51 301.68C411.262 301.641 411.039 301.51 410.883 301.314C410.728 301.117 410.651 300.87 410.67 300.62L411.04 297.52C407.776 296.882 404.819 295.171 402.64 292.66C402.515 292.553 402.419 292.416 402.359 292.263C402.3 292.109 402.279 291.943 402.299 291.78C402.334 291.521 402.469 291.287 402.675 291.126C402.88 290.966 403.14 290.892 403.399 290.92C403.664 290.942 403.908 291.068 404.079 291.27C405.912 293.551 408.471 295.136 411.329 295.76L412.649 284.54C406.899 282.54 404.709 280.1 405.179 276.17C405.649 272.24 409.459 269.57 414.269 270.02L414.45 268.52C414.487 268.271 414.616 268.045 414.813 267.887C415.009 267.73 415.258 267.652 415.51 267.67ZM412.88 282.52L414.149 271.78C410.319 271.41 407.53 273.39 407.2 276.23C406.89 278.9 408 280.7 412.88 282.52ZM414.329 285.12L413.049 296C416.999 296.38 419.82 294.4 420.17 291.41C420.49 288.68 419.309 286.86 414.329 285.12Z" fill="#DBDBDB"/>
<path d="M47 393C175.75 392.39 320.19 392.39 448.94 393C320.19 393.62 175.75 393.61 47 393Z" fill="#263238"/>
<path d="M250 470.29C359.888 470.29 448.97 458.103 448.97 443.07C448.97 428.037 359.888 415.85 250 415.85C140.112 415.85 51.0303 428.037 51.0303 443.07C51.0303 458.103 140.112 470.29 250 470.29Z" fill="#EBEBEB"/>
<path d="M380.85 102.99H214.53V429.48H380.85V102.99Z" fill="#37474F"/>
<path d="M402.851 126.02H380.851V383.94H402.851V126.02Z" fill="#455A64"/>
<path d="M386.731 126.02H380.851V383.94H386.731V126.02Z" fill="#263238"/>
<path d="M271.33 302.44H235.71V318.31H271.33V302.44Z" fill="#EBEBEB"/>
<path d="M315.5 302.44H279.88V318.31H315.5V302.44Z" fill="#EBEBEB"/>
<path d="M359.681 302.44H324.061V318.31H359.681V302.44Z" fill="#EBEBEB"/>
<path d="M271.33 324.98H235.71V340.85H271.33V324.98Z" fill="#EBEBEB"/>
<path d="M315.5 324.98H279.88V340.85H315.5V324.98Z" fill="#EBEBEB"/>
<path d="M359.681 324.98H324.061V340.85H359.681V324.98Z" fill="#EBEBEB"/>
<path d="M271.33 347.52H235.71V363.39H271.33V347.52Z" fill="#EBEBEB"/>
<path d="M315.5 347.52H279.88V363.39H315.5V347.52Z" fill="#EBEBEB"/>
<path d="M359.681 347.52H324.061V363.39H359.681V347.52Z" fill="#EBEBEB"/>
<path d="M271.33 370.06H235.71V385.93H271.33V370.06Z" fill="#EBEBEB"/>
<path d="M315.5 370.06H279.88V385.93H315.5V370.06Z" fill="#EBEBEB"/>
<path d="M359.681 370.06H324.061V385.93H359.681V370.06Z" fill="#EBEBEB"/>
<path d="M271.33 392.6H235.71V408.47H271.33V392.6Z" fill="#263238"/>
<path d="M315.5 392.6H279.88V408.47H315.5V392.6Z" fill="#8661C1"/>
<path d="M359.681 392.6H324.061V408.47H359.681V392.6Z" fill="#A6A6A6"/>
<path d="M371.89 84.5701H223.49V293.08H371.89V84.5701Z" fill="#263238"/>
<path d="M362.56 147.96H232.83V248.84H362.56V147.96Z" fill="white"/>
<path d="M347.78 45.96H247.61V121.42H347.78V45.96Z" fill="#EBEBEB"/>
<path d="M318.251 55.73H277.141V57.28H318.251V55.73Z" fill="#C7C7C7"/>
<path d="M308.251 60.1599H287.141V61.7099H308.251V60.1599Z" fill="#C7C7C7"/>
<path d="M298.251 73.46H257.141V75.01H298.251V73.46Z" fill="#C7C7C7"/>
<path d="M308.251 77.8899H257.141V79.4399H308.251V77.8899Z" fill="#C7C7C7"/>
<path d="M283.741 82.3301H257.141V83.8801H283.741V82.3301Z" fill="#C7C7C7"/>
<path d="M302.701 86.76H257.141V88.31H302.701V86.76Z" fill="#C7C7C7"/>
<path d="M307.351 91.2H257.141V92.75H307.351V91.2Z" fill="#C7C7C7"/>
<path d="M303.141 95.6299H257.141V97.1799H303.141V95.6299Z" fill="#C7C7C7"/>
<path d="M308.251 100.06H257.141V101.61H308.251V100.06Z" fill="#C7C7C7"/>
<path d="M304.361 104.5H257.141V106.05H304.361V104.5Z" fill="#C7C7C7"/>
<path d="M295.711 108.93H257.141V110.48H295.711V108.93Z" fill="#C7C7C7"/>
<path d="M307.791 113.37H257.141V114.92H307.791V113.37Z" fill="#C7C7C7"/>
<path d="M304.911 117.8H257.141V119.35H304.911V117.8Z" fill="#C7C7C7"/>
<path d="M338.251 77.8899H322.761V79.4399H338.251V77.8899Z" fill="#C7C7C7"/>
<path d="M338.251 82.3301H322.761V83.8801H338.251V82.3301Z" fill="#C7C7C7"/>
<path d="M338.251 86.76H322.761V88.31H338.251V86.76Z" fill="#C7C7C7"/>
<path d="M338.251 91.2H322.761V92.75H338.251V91.2Z" fill="#C7C7C7"/>
<path d="M338.251 95.6299H322.761V97.1799H338.251V95.6299Z" fill="#C7C7C7"/>
<path d="M338.251 100.06H322.761V101.61H338.251V100.06Z" fill="#C7C7C7"/>
<path d="M338.251 104.5H322.761V106.05H338.251V104.5Z" fill="#C7C7C7"/>
<path d="M338.251 108.93H322.761V110.48H338.251V108.93Z" fill="#C7C7C7"/>
<path d="M338.251 113.37H322.761V114.92H338.251V113.37Z" fill="#C7C7C7"/>
<path d="M338.251 117.8H322.761V119.35H338.251V117.8Z" fill="#C7C7C7"/>
<path d="M296.92 285.12C304.774 285.12 311.14 278.753 311.14 270.9C311.14 263.046 304.774 256.68 296.92 256.68C289.067 256.68 282.7 263.046 282.7 270.9C282.7 278.753 289.067 285.12 296.92 285.12Z" fill="#A6A6A6"/>
<path d="M269.501 256.69H236.351V267.67H269.501V256.69Z" fill="#A6A6A6"/>
<path d="M269.501 274.14H236.351V285.12H269.501V274.14Z" fill="#A6A6A6"/>
<path d="M359.68 256.69H326.53V267.67H359.68V256.69Z" fill="#A6A6A6"/>
<path d="M359.68 274.14H326.53V285.12H359.68V274.14Z" fill="#A6A6A6"/>
<path d="M297.69 227C313.485 227 326.29 214.195 326.29 198.4C326.29 182.605 313.485 169.8 297.69 169.8C281.895 169.8 269.09 182.605 269.09 198.4C269.09 214.195 281.895 227 297.69 227Z" fill="#8661C1"/>
<path d="M293.51 218.92L278.61 203.83L283.61 198.88L292.32 207.7L310.41 179.34L316.34 183.12L293.51 218.92Z" fill="#263238"/>
<path d="M230.62 454.31C228.47 455.03 167.08 454.85 164.74 453.36C163.86 452.81 163.36 443.86 163.07 433.04C163 430.7 162.95 428.29 162.92 425.83C162.92 422.93 162.83 419.99 162.81 417.13C162.74 404.31 162.92 393.02 162.92 393.02H202.92V417.13V425.83L202.71 433.04C202.71 433.04 226.18 443.62 228.57 445.53C230.96 447.44 232.76 453.61 230.62 454.31Z" fill="#AD6359"/>
<path d="M230.621 454.31C228.471 455.03 167.081 454.85 164.741 453.36C163.861 452.81 163.361 443.86 163.071 433.04C163.001 430.7 162.951 428.29 162.921 425.83C162.921 422.93 162.831 419.99 162.811 417.13H202.861V425.83L202.651 433.04C202.651 433.04 226.121 443.62 228.511 445.53C230.901 447.44 232.761 453.61 230.621 454.31Z" fill="white"/>
<path d="M230.81 454.41C229.41 454.87 203.26 454.96 184.22 454.56C179.81 454.47 175.78 454.35 172.53 454.21C168.05 454 165.05 453.76 164.53 453.45C163.45 452.75 162.93 439.62 162.69 425.77H202.85L202.64 433.01C202.64 433.01 226.25 443.65 228.64 445.57C231.03 447.49 233 453.68 230.81 454.41Z" fill="#8661C1"/>
<path d="M229.93 451.93C219.58 451.65 177.82 451.48 167.56 451.99C167.48 451.99 167.48 452.05 167.56 452.05C177.81 452.56 219.56 452.39 229.93 452.1C230.15 452.1 230.15 451.94 229.93 451.93Z" fill="#263238"/>
<path d="M204.14 430.71C200.07 429.94 195.14 430.55 191.97 433.45C191.85 433.56 191.97 433.73 192.14 433.69C196.04 432.441 200.064 431.616 204.14 431.23C204.209 431.23 204.275 431.203 204.324 431.154C204.373 431.105 204.4 431.039 204.4 430.97C204.4 430.901 204.373 430.835 204.324 430.786C204.275 430.737 204.209 430.71 204.14 430.71Z" fill="#263238"/>
<path d="M207.081 432.49C203.011 431.72 198.021 432.33 194.901 435.23C194.781 435.34 194.901 435.51 195.081 435.47C198.98 434.22 203.004 433.395 207.081 433.01C207.15 433.01 207.216 432.983 207.265 432.934C207.313 432.885 207.341 432.819 207.341 432.75C207.341 432.681 207.313 432.615 207.265 432.566C207.216 432.517 207.15 432.49 207.081 432.49Z" fill="#263238"/>
<path d="M210.001 434.27C205.931 433.5 201.001 434.11 197.831 437.01C197.711 437.12 197.831 437.29 198.001 437.25C201.901 436.001 205.924 435.176 210.001 434.79C210.07 434.79 210.136 434.763 210.185 434.714C210.233 434.665 210.261 434.599 210.261 434.53C210.261 434.461 210.233 434.395 210.185 434.346C210.136 434.298 210.07 434.27 210.001 434.27Z" fill="#263238"/>
<path d="M213.001 436.05C208.931 435.28 203.941 435.89 200.821 438.79C200.701 438.9 200.821 439.07 201.001 439.03C204.9 437.78 208.924 436.955 213.001 436.57C213.07 436.57 213.136 436.543 213.185 436.494C213.233 436.445 213.261 436.379 213.261 436.31C213.261 436.241 213.233 436.175 213.185 436.126C213.136 436.077 213.07 436.05 213.001 436.05Z" fill="#263238"/>
<path d="M211.69 421.32C210.1 419.11 207.11 420.09 205.41 421.52C202.529 424.016 200.356 427.227 199.11 430.83C199.11 430.91 199.11 430.96 199.21 430.97C199.21 431.28 199.5 431.61 199.84 431.48C203.21 430.25 206.96 429.34 209.84 427.11C211.54 425.81 213.2 423.41 211.69 421.32ZM204.57 428.57C202.92 429.21 201.26 429.78 199.65 430.49C200.822 428.64 202.087 426.851 203.44 425.13C204.114 424.308 204.839 423.53 205.61 422.8C206.82 421.71 211.61 419.37 210.9 423.8C210.49 426.3 206.52 427.79 204.57 428.57Z" fill="#263238"/>
<path d="M188.76 429.73C192.12 431.17 195.98 431.11 199.54 431.47C199.621 431.471 199.7 431.452 199.771 431.416C199.843 431.381 199.905 431.328 199.953 431.264C200 431.2 200.032 431.125 200.046 431.046C200.059 430.968 200.054 430.887 200.031 430.81C200.047 430.807 200.063 430.799 200.076 430.788C200.089 430.777 200.099 430.763 200.105 430.747C200.112 430.731 200.113 430.714 200.111 430.697C200.108 430.68 200.101 430.664 200.091 430.65C197.984 427.475 195.081 424.909 191.671 423.21C189.671 422.21 186.531 422.05 185.531 424.58C184.531 427.11 186.81 428.89 188.76 429.73ZM186.93 426.82C185.11 422.68 190.351 423.74 191.801 424.5C192.728 425.009 193.62 425.58 194.471 426.21C196.271 427.49 197.841 429.01 199.471 430.45C197.731 430.17 195.981 430.04 194.221 429.82C192.161 429.56 187.94 429.11 186.93 426.82Z" fill="#263238"/>
<path d="M149.58 222.7C149.58 222.7 160.39 329.54 160.64 330.89C160.64 331.07 160.75 333.12 160.86 336.48C161.44 354.87 162.86 412.22 162.86 412.22H207C207 412.22 204.12 344.29 202.47 328.45C200.37 308.23 187.1 222.7 187.1 222.7H149.58Z" fill="#455A64"/>
<path d="M165.901 334.66C164.567 311.507 162.524 288.41 159.771 265.37C158.221 252.37 156.361 239.46 154.501 226.52C154.501 226.41 154.311 226.41 154.331 226.52C157.741 249.52 160.161 272.76 162.241 295.95C164.321 319.14 165.771 342.31 166.711 365.54C167.251 378.7 167.661 391.87 168.081 405.04C168.092 405.097 168.123 405.147 168.167 405.184C168.212 405.22 168.268 405.24 168.326 405.24C168.383 405.24 168.439 405.22 168.484 405.184C168.528 405.147 168.559 405.097 168.571 405.04C168.001 381.56 167.271 358.09 165.901 334.66Z" fill="#263238"/>
<path d="M204.171 405.11C203.011 404.96 201.761 405.01 200.591 404.97C199.261 404.92 197.941 404.91 196.591 404.86C194.031 404.76 191.481 404.7 188.931 404.66C183.784 404.567 178.637 404.603 173.491 404.77C172.071 404.77 170.651 404.86 169.241 404.92C167.831 404.98 166.241 405.11 164.711 405.1C164.692 405.1 164.674 405.108 164.661 405.121C164.648 405.134 164.641 405.152 164.641 405.17C164.641 405.189 164.648 405.206 164.661 405.22C164.674 405.233 164.692 405.24 164.711 405.24C167.311 405.24 169.931 405.46 172.521 405.56C175.111 405.66 177.621 405.69 180.181 405.73C185.321 405.8 190.481 405.73 195.621 405.57C197.031 405.51 198.451 405.49 199.861 405.45C200.621 405.45 201.371 405.38 202.131 405.36C202.891 405.34 203.471 405.36 204.131 405.29C204.142 405.293 204.155 405.293 204.167 405.291C204.179 405.289 204.19 405.284 204.2 405.278C204.21 405.271 204.219 405.263 204.226 405.253C204.233 405.243 204.238 405.232 204.241 405.22C204.243 405.208 204.244 405.196 204.241 405.184C204.239 405.172 204.235 405.161 204.228 405.151C204.222 405.14 204.213 405.132 204.204 405.125C204.194 405.118 204.182 405.113 204.171 405.11Z" fill="#263238"/>
<path d="M149.58 222.7C149.58 222.7 160.39 329.54 160.64 330.89C160.64 331.07 160.75 333.12 160.86 336.48L181.63 222.7H149.58Z" fill="#263238"/>
<path d="M119.92 447.9C117.69 447.49 63.9205 417.9 62.5705 415.47C62.0505 414.56 65.9105 406.47 70.8505 396.84L89.0005 361.16L125.76 381.25L114 401.34L109.18 409.59L105.55 415.81C105.55 415.81 121.07 436.36 122.26 439.17C123.45 441.98 122.14 448.3 119.92 447.9Z" fill="#AD6359"/>
<path d="M119.92 447.9C117.69 447.49 63.9205 417.9 62.5705 415.47C62.0505 414.56 65.9105 406.47 70.8505 396.84C71.9105 394.75 76.5105 385.18 78.0705 382.65C88.6005 388.34 104.57 396.35 114.07 401.34L109.25 409.59L105.62 415.81C105.62 415.81 121.14 436.36 122.33 439.17C123.52 441.98 122.14 448.3 119.92 447.9Z" fill="white"/>
<path d="M120 448.06C117.77 447.65 63.6804 417.9 62.3304 415.46C61.7104 414.33 67.5604 402.56 73.9904 390.28L109.23 409.54L105.58 415.8C105.58 415.8 121.19 436.45 122.38 439.29C123.57 442.13 122.28 448.47 120 448.06Z" fill="#8661C1"/>
<path d="M120.46 445.47C111.51 440.26 74.9503 420.09 65.7103 415.61C65.6303 415.61 65.6103 415.61 65.7103 415.67C74.4603 421.03 111.19 440.91 120.41 445.62C120.57 445.72 120.65 445.58 120.46 445.47Z" fill="#263238"/>
<path d="M108 414.49C104.79 411.86 100.13 410 96.0001 411.05C95.8401 411.05 95.9001 411.31 96.0001 411.34C100.014 412.114 103.933 413.318 107.69 414.93C107.748 414.971 107.821 414.987 107.891 414.975C107.961 414.963 108.024 414.923 108.065 414.865C108.106 414.807 108.122 414.734 108.11 414.664C108.098 414.594 108.058 414.531 108 414.49Z" fill="#263238"/>
<path d="M109.731 417.46C106.531 414.83 101.861 412.97 97.7306 414.02C97.5706 414.02 97.6306 414.28 97.7306 414.31C101.748 415.086 105.67 416.289 109.431 417.9C109.459 417.92 109.492 417.934 109.526 417.941C109.56 417.948 109.596 417.948 109.63 417.942C109.664 417.935 109.697 417.922 109.726 417.903C109.756 417.884 109.781 417.859 109.801 417.83C109.82 417.801 109.834 417.769 109.841 417.735C109.848 417.7 109.849 417.665 109.842 417.631C109.836 417.596 109.823 417.564 109.803 417.534C109.784 417.505 109.759 417.48 109.731 417.46Z" fill="#263238"/>
<path d="M111.45 420.42C108.25 417.8 103.58 415.94 99.4503 416.98C99.2903 416.98 99.3503 417.25 99.4503 417.28C103.467 418.056 107.39 419.259 111.15 420.87C111.21 420.91 111.283 420.924 111.353 420.91C111.424 420.896 111.486 420.855 111.525 420.795C111.565 420.735 111.58 420.662 111.565 420.592C111.551 420.522 111.51 420.46 111.45 420.42Z" fill="#263238"/>
<path d="M113.17 423.39C109.97 420.76 105.3 418.91 101.17 419.95C101.01 419.95 101.07 420.22 101.17 420.25C105.188 421.02 109.111 422.224 112.87 423.84C112.93 423.88 113.003 423.894 113.073 423.88C113.143 423.866 113.205 423.825 113.245 423.765C113.285 423.705 113.299 423.632 113.285 423.562C113.271 423.492 113.23 423.43 113.17 423.39Z" fill="#263238"/>
<path d="M119.141 409.86C118.801 407.16 115.711 406.59 113.531 407.02C109.804 407.831 106.355 409.607 103.531 412.17C103.461 412.23 103.531 412.3 103.531 412.35C103.489 412.418 103.464 412.495 103.458 412.575C103.453 412.654 103.466 412.734 103.497 412.808C103.528 412.881 103.577 412.946 103.638 412.997C103.7 413.048 103.773 413.083 103.851 413.1C107.391 413.63 111.121 414.64 114.721 414.1C116.841 413.73 119.461 412.42 119.141 409.86ZM109.411 412.8C107.661 412.59 105.931 412.28 104.171 412.13C106.087 411.07 108.056 410.109 110.071 409.25C111.047 408.848 112.049 408.514 113.071 408.25C114.671 407.87 120.001 408.12 117.221 411.69C115.691 413.66 111.491 413.06 109.411 412.8Z" fill="#263238"/>
<path d="M95.0007 406.25C97.2507 409.12 100.671 410.92 103.631 412.94C103.7 412.98 103.777 413.002 103.857 413.006C103.937 413.009 104.016 412.994 104.088 412.961C104.161 412.927 104.224 412.877 104.273 412.815C104.322 412.752 104.356 412.678 104.371 412.6C104.441 412.6 104.511 412.6 104.501 412.49C104.176 408.69 102.858 405.041 100.681 401.91C99.3707 400.12 96.6807 398.43 94.6807 400.18C92.6807 401.93 93.6707 404.58 95.0007 406.25ZM94.7907 402.82C95.1807 398.31 99.2607 401.75 100.171 403.12C100.743 404.011 101.254 404.94 101.701 405.9C102.593 407.899 103.384 409.941 104.071 412.02C102.671 410.94 101.201 410.02 99.7707 408.96C98.0007 407.73 94.5607 405.31 94.7707 402.82H94.7907Z" fill="#263238"/>
<path d="M187.05 222.7C187.05 222.7 184.34 238.86 173.94 247.19C173.94 247.19 158.6 311.38 155.24 323.31C150.18 341.31 119.16 397.31 119.16 397.31L80.3604 377.36C80.3604 377.36 112.17 316.96 115.59 312.24C117.86 309.1 127.3 256.6 127 254.95C123.46 235.35 132.31 222.67 132.31 222.67L187.05 222.7Z" fill="#455A64"/>
<path d="M151 226.13C150.258 229.274 148.501 232.085 146 234.13C143.226 236.303 139.881 237.623 136.37 237.93C135.78 238.01 135.78 238.93 136.37 238.93C143.55 238.64 150.59 233.73 151.3 226.23C151.26 226 151 226 151 226.13Z" fill="#263238"/>
<path d="M180.611 242C178.055 243.17 175.628 244.605 173.371 246.28C170.981 247.91 168.781 249.81 166.481 251.56C166.391 251.63 166.481 251.77 166.571 251.71C169.001 250.16 171.571 248.8 173.941 247.2C176.346 245.74 178.615 244.067 180.721 242.2C180.801 242.11 180.711 242 180.611 242Z" fill="#263238"/>
<path d="M180.931 227C180.631 228.67 180.221 230.31 179.861 232C179.501 233.69 179.281 235.13 178.861 236.66C178.524 238.143 177.771 239.5 176.691 240.57C176.081 241.14 175.411 241.64 174.761 242.16C174.411 242.44 174.031 242.7 173.671 242.99C173.671 242.77 173.761 242.54 173.801 242.32C173.911 241.69 174.011 241.06 174.121 240.43C174.351 239.03 174.581 237.62 174.791 236.22C175.211 233.46 175.601 230.68 176.181 227.95C176.181 227.84 176.031 227.79 176.011 227.95C175.321 230.66 174.561 233.34 173.961 236.06C173.671 237.4 172.621 244.06 172.581 244.48C172.541 244.9 172.491 245.48 172.471 245.93C172.406 246.421 172.406 246.919 172.471 247.41C172.48 247.432 172.495 247.45 172.515 247.463C172.534 247.475 172.557 247.482 172.581 247.482C172.604 247.482 172.627 247.475 172.646 247.463C172.666 247.45 172.681 247.432 172.691 247.41C172.891 246.953 173.032 246.473 173.111 245.98C173.231 245.51 173.341 245.03 173.421 244.55C173.421 244.38 173.481 244.2 173.501 244.02C174.151 243.63 174.761 243.11 175.371 242.66C175.981 242.21 176.691 241.73 177.311 241.21C178.458 240.242 179.284 238.948 179.681 237.5C180.08 235.943 180.341 234.353 180.461 232.75C180.671 230.87 180.821 228.99 181.091 227.12C181.121 226.92 181.001 226.87 180.931 227Z" fill="#263238"/>
<path d="M121 388.5C120 387.83 118.91 387.29 117.89 386.72C116.87 386.15 115.56 385.45 114.41 384.8C112.19 383.53 109.95 382.3 107.71 381.09C103.18 378.65 98.5901 376.3 93.9501 374.09L90.1101 372.27C88.7401 371.62 87.3401 371.05 86.0001 370.35C85.9001 370.29 85.8401 370.42 85.9401 370.47C88.2501 371.65 90.4701 373.07 92.7301 374.34C94.9901 375.61 97.1901 376.82 99.4401 378.02C103.98 380.45 108.58 382.79 113.23 385.02C114.51 385.62 115.77 386.26 117.05 386.87C117.73 387.2 118.42 387.5 119.05 387.87C119.68 388.24 120.24 388.5 120.87 388.73C120.901 388.747 120.937 388.752 120.97 388.742C121.004 388.733 121.033 388.71 121.05 388.68C121.067 388.649 121.072 388.613 121.062 388.58C121.053 388.546 121.031 388.517 121 388.5Z" fill="#263238"/>
<path d="M140 219.55C134.295 226.596 131.125 235.355 131 244.42C130.966 246.806 131.134 249.192 131.5 251.55C131.973 254.143 132.207 256.774 132.2 259.41C132.034 262.143 131.666 264.861 131.1 267.54C130.6 270.24 130.08 272.933 129.54 275.62C128.473 280.953 127.337 286.267 126.13 291.56C124.94 296.81 123.78 302.09 122.33 307.27C121.052 312.259 118.986 317.012 116.21 321.35C113.52 325.84 110.91 330.35 108.55 335.02C106.083 339.92 103.637 344.837 101.21 349.77C100.01 352.2 98.8301 354.64 97.6401 357.08C96.4501 359.52 95.1501 362 94.0001 364.55C93.4401 365.82 92.8501 367.06 92.2401 368.31C92.1801 368.43 92.3701 368.54 92.4301 368.41C93.6901 365.95 95.0401 363.55 96.3201 361.1C97.6001 358.65 98.8101 356.29 100.06 353.88C102.57 349.02 105.06 344.13 107.5 339.24C109.94 334.35 112.3 329.7 115.05 325.12C117.66 320.79 120.28 316.53 121.92 311.72C123.56 306.91 124.72 301.6 125.92 296.51C127.173 291.23 128.35 285.927 129.45 280.6C130.57 275.26 131.7 269.9 132.57 264.51C133.033 261.968 133.187 259.379 133.03 256.8C132.82 254.16 132.25 251.57 132.03 248.94C131.147 239.691 133.355 230.41 138.31 222.55C138.92 221.55 139.54 220.62 140.21 219.69C140.27 219.58 140.09 219.45 140 219.55Z" fill="#263238"/>
<path d="M168.111 163.27C181.973 163.27 193.211 151.598 193.211 137.2C193.211 122.802 181.973 111.13 168.111 111.13C154.248 111.13 143.011 122.802 143.011 137.2C143.011 151.598 154.248 163.27 168.111 163.27Z" fill="#263238"/>
<path d="M156.09 156C156.09 156.685 155.887 157.354 155.506 157.923C155.125 158.493 154.585 158.936 153.952 159.198C153.319 159.459 152.623 159.527 151.951 159.393C151.28 159.259 150.663 158.928 150.18 158.443C149.696 157.958 149.368 157.341 149.235 156.669C149.103 155.997 149.173 155.301 149.436 154.669C149.7 154.037 150.145 153.497 150.715 153.118C151.285 152.739 151.955 152.538 152.64 152.54C153.094 152.539 153.544 152.627 153.964 152.801C154.384 152.974 154.765 153.229 155.086 153.551C155.407 153.873 155.661 154.255 155.833 154.675C156.005 155.095 156.093 155.546 156.09 156Z" fill="#263238"/>
<path d="M192.771 150.78C192.773 151.465 192.571 152.135 192.192 152.705C191.813 153.275 191.274 153.72 190.642 153.984C190.01 154.247 189.314 154.317 188.642 154.185C187.97 154.052 187.352 153.724 186.868 153.24C186.383 152.757 186.052 152.14 185.918 151.469C185.783 150.797 185.851 150.101 186.113 149.468C186.375 148.835 186.818 148.295 187.387 147.914C187.956 147.533 188.626 147.33 189.311 147.33C190.226 147.33 191.105 147.693 191.754 148.34C192.402 148.987 192.768 149.864 192.771 150.78Z" fill="#263238"/>
<path d="M196.231 134.65C196.231 135.334 196.028 136.003 195.647 136.572C195.267 137.141 194.727 137.585 194.095 137.847C193.462 138.108 192.767 138.177 192.096 138.043C191.424 137.91 190.808 137.58 190.324 137.097C189.84 136.613 189.511 135.996 189.377 135.325C189.244 134.654 189.312 133.958 189.574 133.326C189.836 132.694 190.279 132.153 190.848 131.773C191.417 131.393 192.086 131.19 192.771 131.19C193.225 131.189 193.676 131.277 194.096 131.451C194.517 131.624 194.899 131.879 195.22 132.2C195.542 132.522 195.796 132.904 195.97 133.324C196.143 133.745 196.232 134.195 196.231 134.65Z" fill="#263238"/>
<path d="M148.19 131.5C148.192 132.185 147.991 132.855 147.612 133.425C147.233 133.995 146.694 134.44 146.062 134.704C145.429 134.967 144.733 135.037 144.062 134.905C143.39 134.772 142.772 134.444 142.287 133.96C141.803 133.477 141.472 132.86 141.338 132.189C141.203 131.517 141.271 130.821 141.533 130.188C141.795 129.555 142.238 129.014 142.807 128.634C143.376 128.253 144.046 128.05 144.73 128.05C145.646 128.05 146.525 128.413 147.174 129.06C147.822 129.707 148.188 130.584 148.19 131.5Z" fill="#263238"/>
<path d="M152.641 122.19C152.641 122.874 152.438 123.543 152.058 124.112C151.677 124.681 151.137 125.125 150.505 125.387C149.873 125.648 149.177 125.717 148.506 125.583C147.835 125.45 147.218 125.12 146.734 124.637C146.25 124.153 145.921 123.536 145.787 122.865C145.654 122.194 145.722 121.498 145.984 120.866C146.246 120.234 146.689 119.693 147.258 119.313C147.827 118.933 148.496 118.73 149.181 118.73C150.098 118.73 150.978 119.095 151.627 119.743C152.276 120.392 152.641 121.272 152.641 122.19Z" fill="#263238"/>
<path d="M156.84 118.28C156.842 118.965 156.641 119.635 156.262 120.205C155.883 120.775 155.343 121.22 154.711 121.484C154.079 121.747 153.383 121.817 152.711 121.685C152.039 121.552 151.422 121.224 150.937 120.74C150.452 120.257 150.121 119.64 149.987 118.969C149.853 118.297 149.921 117.601 150.182 116.968C150.444 116.336 150.887 115.795 151.457 115.414C152.026 115.033 152.695 114.83 153.38 114.83C154.296 114.83 155.174 115.193 155.823 115.84C156.472 116.487 156.837 117.364 156.84 118.28Z" fill="#263238"/>
<path d="M161 114C161 114.684 160.797 115.353 160.417 115.922C160.037 116.491 159.496 116.935 158.864 117.197C158.232 117.459 157.536 117.527 156.865 117.394C156.194 117.26 155.577 116.931 155.093 116.447C154.61 115.963 154.28 115.346 154.147 114.675C154.013 114.004 154.082 113.308 154.343 112.676C154.605 112.044 155.049 111.503 155.618 111.123C156.187 110.743 156.856 110.54 157.54 110.54C158.458 110.54 159.338 110.905 159.987 111.553C160.636 112.202 161 113.082 161 114Z" fill="#263238"/>
<path d="M166.471 113.36C166.473 114.045 166.271 114.715 165.892 115.286C165.512 115.856 164.972 116.302 164.339 116.565C163.707 116.828 163.01 116.897 162.338 116.764C161.666 116.631 161.049 116.301 160.564 115.816C160.08 115.332 159.75 114.715 159.617 114.042C159.484 113.37 159.553 112.674 159.816 112.041C160.079 111.409 160.524 110.868 161.095 110.489C161.665 110.109 162.336 109.908 163.021 109.91C163.936 109.91 164.813 110.273 165.46 110.92C166.107 111.567 166.471 112.445 166.471 113.36Z" fill="#263238"/>
<path d="M182.5 113.36C182.502 114.045 182.301 114.715 181.922 115.285C181.543 115.855 181.003 116.3 180.371 116.564C179.739 116.827 179.043 116.897 178.371 116.765C177.699 116.633 177.082 116.304 176.597 115.82C176.112 115.337 175.782 114.72 175.647 114.049C175.513 113.377 175.581 112.681 175.843 112.048C176.104 111.416 176.548 110.875 177.117 110.494C177.686 110.113 178.355 109.91 179.04 109.91C179.956 109.91 180.835 110.273 181.483 110.92C182.132 111.567 182.497 112.444 182.5 113.36Z" fill="#263238"/>
<path d="M186.7 123.61C188.611 123.61 190.16 122.061 190.16 120.15C190.16 118.239 188.611 116.69 186.7 116.69C184.789 116.69 183.24 118.239 183.24 120.15C183.24 122.061 184.789 123.61 186.7 123.61Z" fill="#263238"/>
<path d="M149.931 146.7C149.931 147.384 149.728 148.053 149.348 148.622C148.967 149.191 148.427 149.635 147.795 149.897C147.163 150.158 146.467 150.227 145.796 150.094C145.125 149.96 144.508 149.63 144.024 149.147C143.54 148.663 143.211 148.046 143.077 147.375C142.944 146.704 143.012 146.008 143.274 145.376C143.536 144.744 143.979 144.203 144.548 143.823C145.117 143.443 145.786 143.24 146.471 143.24C146.925 143.24 147.375 143.329 147.795 143.503C148.215 143.677 148.596 143.932 148.917 144.253C149.239 144.575 149.493 144.956 149.667 145.376C149.841 145.796 149.931 146.246 149.931 146.7Z" fill="#263238"/>
<path d="M165.21 160.59C165.212 161.275 165.011 161.945 164.632 162.515C164.253 163.085 163.713 163.53 163.081 163.794C162.449 164.057 161.753 164.127 161.081 163.995C160.409 163.862 159.792 163.534 159.307 163.05C158.822 162.567 158.492 161.95 158.357 161.279C158.223 160.607 158.291 159.911 158.552 159.278C158.814 158.646 159.258 158.105 159.827 157.724C160.396 157.343 161.065 157.14 161.75 157.14C162.666 157.14 163.544 157.503 164.193 158.15C164.842 158.797 165.207 159.674 165.21 160.59Z" fill="#263238"/>
<path d="M170.12 160.64C170.12 161.324 169.917 161.993 169.537 162.562C169.157 163.131 168.617 163.575 167.984 163.837C167.352 164.098 166.656 164.167 165.985 164.033C165.314 163.9 164.697 163.57 164.214 163.087C163.73 162.603 163.4 161.986 163.267 161.315C163.133 160.644 163.202 159.948 163.464 159.316C163.725 158.684 164.169 158.143 164.738 157.763C165.307 157.383 165.976 157.18 166.66 157.18C167.578 157.18 168.458 157.544 169.107 158.193C169.756 158.842 170.12 159.722 170.12 160.64Z" fill="#263238"/>
<path d="M148.191 141.63C148.191 142.314 147.988 142.983 147.607 143.552C147.227 144.121 146.687 144.565 146.055 144.827C145.422 145.088 144.727 145.157 144.056 145.023C143.384 144.89 142.768 144.56 142.284 144.077C141.8 143.593 141.47 142.976 141.337 142.305C141.203 141.634 141.272 140.938 141.534 140.306C141.796 139.674 142.239 139.133 142.808 138.753C143.377 138.373 144.046 138.17 144.731 138.17C145.648 138.17 146.528 138.534 147.177 139.183C147.826 139.832 148.191 140.712 148.191 141.63Z" fill="#263238"/>
<path d="M152.001 151.77C152.001 152.391 151.817 152.998 151.472 153.515C151.126 154.031 150.636 154.433 150.062 154.671C149.489 154.909 148.857 154.971 148.248 154.85C147.639 154.729 147.08 154.43 146.64 153.99C146.201 153.551 145.902 152.992 145.781 152.383C145.66 151.774 145.722 151.142 145.96 150.568C146.197 149.995 146.6 149.504 147.116 149.159C147.633 148.814 148.24 148.63 148.861 148.63C149.693 148.633 150.49 148.964 151.078 149.553C151.666 150.141 151.998 150.938 152.001 151.77Z" fill="#263238"/>
<path d="M171.57 111.68C171.57 112.301 171.386 112.908 171.041 113.425C170.696 113.941 170.205 114.343 169.632 114.581C169.058 114.819 168.427 114.881 167.817 114.76C167.208 114.639 166.649 114.339 166.21 113.9C165.771 113.461 165.472 112.902 165.35 112.293C165.229 111.684 165.291 111.052 165.529 110.478C165.767 109.905 166.169 109.414 166.686 109.069C167.202 108.724 167.809 108.54 168.43 108.54C169.262 108.543 170.059 108.874 170.647 109.463C171.236 110.051 171.567 110.848 171.57 111.68Z" fill="#263238"/>
<path d="M147.871 136.59C147.871 137.211 147.687 137.818 147.342 138.334C146.997 138.851 146.506 139.253 145.932 139.491C145.359 139.729 144.727 139.791 144.118 139.67C143.509 139.548 142.95 139.249 142.511 138.81C142.071 138.371 141.772 137.812 141.651 137.203C141.53 136.593 141.592 135.962 141.83 135.388C142.068 134.815 142.47 134.324 142.986 133.979C143.503 133.634 144.11 133.45 144.731 133.45C145.563 133.453 146.36 133.784 146.948 134.373C147.537 134.961 147.868 135.758 147.871 136.59Z" fill="#263238"/>
<path d="M149.61 126.75C149.61 127.371 149.426 127.978 149.081 128.495C148.736 129.011 148.245 129.413 147.672 129.651C147.098 129.889 146.467 129.951 145.858 129.83C145.248 129.709 144.689 129.41 144.25 128.97C143.811 128.531 143.512 127.972 143.39 127.363C143.269 126.754 143.331 126.122 143.569 125.548C143.807 124.975 144.209 124.484 144.726 124.139C145.242 123.794 145.849 123.61 146.47 123.61C147.302 123.613 148.099 123.944 148.687 124.533C149.276 125.121 149.607 125.918 149.61 126.75Z" fill="#263238"/>
<path d="M176.66 112.06C176.662 112.683 176.479 113.293 176.134 113.813C175.789 114.332 175.298 114.737 174.723 114.977C174.147 115.217 173.514 115.281 172.902 115.161C172.29 115.04 171.728 114.741 171.287 114.301C170.845 113.861 170.544 113.299 170.422 112.688C170.299 112.077 170.361 111.443 170.599 110.867C170.837 110.291 171.241 109.798 171.759 109.451C172.277 109.105 172.887 108.92 173.51 108.92C174.344 108.92 175.144 109.25 175.734 109.839C176.325 110.428 176.658 111.226 176.66 112.06Z" fill="#263238"/>
<path d="M160.371 158.67C160.371 159.291 160.187 159.898 159.842 160.415C159.497 160.931 159.006 161.333 158.432 161.571C157.859 161.809 157.227 161.871 156.618 161.75C156.009 161.629 155.45 161.329 155.011 160.89C154.571 160.451 154.272 159.892 154.151 159.283C154.03 158.674 154.092 158.042 154.33 157.468C154.568 156.895 154.97 156.404 155.486 156.059C156.003 155.714 156.61 155.53 157.231 155.53C158.064 155.53 158.862 155.861 159.451 156.45C160.04 157.039 160.371 157.837 160.371 158.67Z" fill="#263238"/>
<path d="M174.711 161.81C174.711 162.431 174.527 163.038 174.181 163.554C173.836 164.071 173.346 164.473 172.772 164.711C172.199 164.949 171.567 165.011 170.958 164.89C170.349 164.768 169.789 164.469 169.35 164.03C168.911 163.591 168.612 163.032 168.491 162.423C168.37 161.813 168.432 161.182 168.67 160.608C168.907 160.035 169.31 159.544 169.826 159.199C170.343 158.854 170.95 158.67 171.571 158.67C172.403 158.673 173.2 159.004 173.788 159.593C174.376 160.181 174.708 160.978 174.711 161.81Z" fill="#263238"/>
<path d="M180.32 160.64C180.32 161.261 180.136 161.868 179.791 162.384C179.446 162.901 178.955 163.303 178.382 163.541C177.808 163.779 177.177 163.841 176.567 163.72C175.958 163.599 175.399 163.299 174.96 162.86C174.521 162.421 174.222 161.862 174.1 161.253C173.979 160.643 174.041 160.012 174.279 159.438C174.517 158.865 174.919 158.374 175.436 158.029C175.952 157.684 176.559 157.5 177.18 157.5C178.013 157.5 178.811 157.831 179.4 158.42C179.989 159.009 180.32 159.807 180.32 160.64Z" fill="#263238"/>
<path d="M184.751 157.5C184.751 158.121 184.567 158.728 184.222 159.245C183.876 159.761 183.386 160.163 182.812 160.401C182.239 160.639 181.607 160.701 180.998 160.58C180.389 160.459 179.83 160.16 179.39 159.72C178.951 159.281 178.652 158.722 178.531 158.113C178.41 157.504 178.472 156.872 178.71 156.298C178.947 155.725 179.35 155.234 179.866 154.889C180.383 154.544 180.99 154.36 181.611 154.36C182.443 154.363 183.24 154.694 183.828 155.283C184.416 155.871 184.748 156.668 184.751 157.5Z" fill="#263238"/>
<path d="M189.841 155.32C189.841 155.941 189.656 156.548 189.311 157.064C188.966 157.581 188.476 157.983 187.902 158.221C187.328 158.459 186.697 158.521 186.088 158.4C185.479 158.278 184.919 157.979 184.48 157.54C184.041 157.101 183.742 156.542 183.621 155.933C183.5 155.323 183.562 154.692 183.8 154.118C184.037 153.545 184.44 153.054 184.956 152.709C185.472 152.364 186.08 152.18 186.701 152.18C187.533 152.183 188.33 152.514 188.918 153.103C189.506 153.691 189.838 154.488 189.841 155.32Z" fill="#263238"/>
<path d="M195.411 146.35C195.411 146.971 195.227 147.578 194.882 148.094C194.537 148.611 194.046 149.013 193.472 149.251C192.899 149.489 192.267 149.551 191.658 149.43C191.049 149.308 190.49 149.009 190.051 148.57C189.611 148.131 189.312 147.572 189.191 146.963C189.07 146.353 189.132 145.722 189.37 145.148C189.608 144.575 190.01 144.084 190.526 143.739C191.043 143.394 191.65 143.21 192.271 143.21C192.684 143.209 193.092 143.289 193.474 143.446C193.856 143.604 194.202 143.835 194.494 144.127C194.786 144.419 195.017 144.765 195.175 145.147C195.332 145.528 195.412 145.937 195.411 146.35Z" fill="#263238"/>
<path d="M195.411 140.56C195.411 141.181 195.227 141.788 194.882 142.304C194.537 142.821 194.046 143.223 193.472 143.461C192.899 143.699 192.267 143.761 191.658 143.64C191.049 143.518 190.49 143.219 190.051 142.78C189.611 142.341 189.312 141.782 189.191 141.173C189.07 140.563 189.132 139.932 189.37 139.358C189.608 138.785 190.01 138.294 190.526 137.949C191.043 137.604 191.65 137.42 192.271 137.42C193.104 137.42 193.902 137.751 194.491 138.34C195.08 138.928 195.411 139.727 195.411 140.56Z" fill="#263238"/>
<path d="M183.56 118.73C185.294 118.73 186.7 117.324 186.7 115.59C186.7 113.856 185.294 112.45 183.56 112.45C181.826 112.45 180.42 113.856 180.42 115.59C180.42 117.324 181.826 118.73 183.56 118.73Z" fill="#263238"/>
<path d="M190.84 127.31C192.574 127.31 193.98 125.904 193.98 124.17C193.98 122.436 192.574 121.03 190.84 121.03C189.106 121.03 187.7 122.436 187.7 124.17C187.7 125.904 189.106 127.31 190.84 127.31Z" fill="#263238"/>
<path d="M194.671 129.14C194.671 129.761 194.486 130.368 194.141 130.884C193.796 131.401 193.306 131.803 192.732 132.041C192.158 132.279 191.527 132.341 190.918 132.22C190.309 132.099 189.749 131.799 189.31 131.36C188.871 130.921 188.572 130.362 188.451 129.753C188.33 129.143 188.392 128.512 188.63 127.938C188.867 127.365 189.27 126.874 189.786 126.529C190.303 126.184 190.91 126 191.531 126C192.363 126 193.162 126.331 193.751 126.92C194.34 127.509 194.671 128.307 194.671 129.14Z" fill="#263238"/>
<path d="M171.91 170.06C174.84 176.52 195.74 197.48 213.2 204.23C219.6 206.71 247.63 200.7 254.3 198.07C262.1 194.99 257.43 175.6 252.49 175.5C246.33 175.37 219.76 181.07 214.11 180.8C207.24 180.47 191.56 169.57 178.11 163.98C171.22 161.11 169.65 165.08 171.91 170.06Z" fill="#AD6359"/>
<path d="M254.301 198.07C256.801 197.22 267.951 192.33 270.741 190.27C273.531 188.21 281.161 181.72 279.801 179.42C278.441 177.12 276.061 178.84 276.061 178.84C276.061 178.84 278.851 175.59 277.271 173.39C275.691 171.19 272.071 174 272.071 174C272.071 174 274.691 170.45 272.961 168.38C271.231 166.31 268.061 169.74 268.061 169.74C268.061 169.74 270.611 166.6 268.461 165.49C265.881 164.16 261.851 170.49 258.591 172.49C257.851 172.96 242.931 180.8 242.931 180.8L254.301 198.07Z" fill="#AD6359"/>
<path d="M268.34 169.45C265.34 174.08 263.26 175.59 258.34 177.88C258.24 177.93 258.29 178.08 258.34 178.04C263.34 176.23 266.27 174.72 268.51 169.58C268.68 169.33 268.48 169.23 268.34 169.45Z" fill="#263238"/>
<path d="M272.3 173.63C268.79 178.17 266.531 179.83 261.561 182.63C261.491 182.63 261.561 182.79 261.621 182.76C266.72 180.44 269.621 178.86 272.511 173.87C272.641 173.62 272.46 173.43 272.3 173.63Z" fill="#263238"/>
<path d="M275.811 179C272.091 183.15 269.681 185.08 264.511 187.16C264.485 187.169 264.465 187.188 264.454 187.213C264.442 187.237 264.441 187.265 264.451 187.29C264.46 187.315 264.479 187.336 264.503 187.347C264.528 187.358 264.555 187.359 264.581 187.35C269.293 186.204 273.366 183.252 275.921 179.13C276.111 178.81 276.001 178.71 275.811 179Z" fill="#263238"/>
<path d="M238.37 181.14C238.37 181.14 242.83 175.88 245.3 174.01C247.77 172.14 259.56 168.52 260.48 171.01C261.67 174.24 255.28 177.67 251.93 178.93C251.93 178.93 254.69 186.4 250.64 189.85C246.59 193.3 238.37 181.14 238.37 181.14Z" fill="#AD6359"/>
<path d="M260.52 172C259.52 175.73 254.98 177.11 251.82 178.58C251.772 178.598 251.729 178.628 251.695 178.668C251.661 178.707 251.637 178.754 251.626 178.805C251.615 178.856 251.617 178.908 251.632 178.958C251.647 179.008 251.674 179.053 251.71 179.09C252.65 182.3 253.06 187.09 250.85 189.86C250.836 189.876 250.828 189.897 250.829 189.919C250.83 189.94 250.84 189.96 250.855 189.975C250.871 189.99 250.892 189.997 250.914 189.996C250.936 189.995 250.956 189.986 250.97 189.97C253.74 187.33 253.73 182.58 252.46 179.13C255.72 177.68 260.18 176.13 260.56 172.01L260.52 172Z" fill="#263238"/>
<path d="M191 193.86L203.06 175.41C203.06 175.41 188.47 167.15 180.27 163.94C172.07 160.73 165.41 163.24 173.27 174.18C179.88 183.47 191 193.86 191 193.86Z" fill="#263238"/>
<path d="M189.21 208.13L189.51 234.13C189.51 234.13 137.28 228.43 126.23 225.73C126.23 225.73 145.85 182.78 162.4 165.1C169.84 158.9 176.87 162.41 181.27 167.38C182.36 168.62 193.79 188.76 194.05 195.87C194.27 202.13 189.21 208.13 189.21 208.13Z" fill="#8661C1"/>
<path d="M168.65 164C168.9 165 173.65 171.28 178.18 171C179.64 170.91 179.48 162.9 179.48 162.9L179.61 162.31L181.33 154L171.5 148L170.08 147.2C170.08 147.2 169.76 149.5 169.39 152.37C169.39 152.51 169.39 152.64 169.39 152.78C169.39 152.92 169.34 153.1 169.32 153.25C169.26 153.68 169.2 154.12 169.15 154.55C169.1 154.98 169.07 155.21 169.04 155.55C169.01 155.89 168.97 156.24 168.93 156.6C168.666 159.057 168.573 161.53 168.65 164Z" fill="#AD6359"/>
<path d="M169.391 152.32C170.266 154.629 171.633 156.72 173.398 158.447C175.163 160.174 177.283 161.495 179.611 162.32L181.331 154.01L171.501 148L170.081 147.2C170.081 147.2 169.761 149.45 169.391 152.32Z" fill="#263238"/>
<path d="M192.391 140.62C193.981 155.43 185.291 158.06 182.091 158.39C179.191 158.7 169.281 159.39 166.171 144.81C163.061 130.23 169.451 124.81 176.051 123.81C182.651 122.81 190.811 125.81 192.391 140.62Z" fill="#AD6359"/>
<path d="M189.42 138.66C189.07 138.66 188.75 138.55 188.42 138.49C188.055 138.475 187.704 138.342 187.42 138.11C187.35 138.016 187.312 137.902 187.312 137.785C187.312 137.668 187.35 137.554 187.42 137.46C187.585 137.292 187.791 137.171 188.018 137.11C188.244 137.048 188.484 137.048 188.71 137.11C189.186 137.161 189.626 137.389 189.94 137.75C190.013 137.838 190.057 137.946 190.067 138.059C190.077 138.172 190.052 138.286 189.995 138.385C189.939 138.484 189.853 138.563 189.751 138.612C189.648 138.661 189.533 138.678 189.42 138.66Z" fill="#263238"/>
<path d="M179.131 139.36C179.481 139.3 179.791 139.2 180.131 139.11C180.505 139.076 180.857 138.918 181.131 138.66C181.201 138.566 181.239 138.452 181.239 138.335C181.239 138.218 181.201 138.104 181.131 138.01C180.956 137.856 180.744 137.751 180.516 137.705C180.287 137.659 180.051 137.675 179.831 137.75C179.357 137.837 178.933 138.098 178.641 138.48C178.584 138.567 178.553 138.668 178.549 138.771C178.546 138.875 178.57 138.977 178.621 139.068C178.671 139.158 178.745 139.233 178.835 139.285C178.925 139.336 179.027 139.362 179.131 139.36Z" fill="#263238"/>
<path d="M181.251 143C181.251 143 181.181 143.05 181.181 143.09C181.271 144.09 181.181 145.28 180.311 145.67C181.431 145.54 181.501 144 181.251 143Z" fill="#263238"/>
<path d="M180.281 142C178.651 142 178.721 145.24 180.231 145.27C181.741 145.3 181.651 142.06 180.281 142Z" fill="#263238"/>
<path d="M179.64 142.22C179.36 142.41 179.09 142.75 178.75 142.79C178.41 142.83 178.04 142.5 177.75 142.18H177.7C177.7 142.8 177.96 143.44 178.63 143.52C179.3 143.6 179.63 143.03 179.82 142.39C179.86 142.32 179.76 142.15 179.64 142.22Z" fill="#263238"/>
<path d="M187.59 142.44C187.59 142.44 187.67 142.49 187.67 142.53C187.67 143.53 187.8 144.71 188.73 145.04C188.73 145.04 188.73 145.1 188.73 145.09C187.6 145 187.41 143.4 187.59 142.44Z" fill="#263238"/>
<path d="M188.49 141.37C190.12 141.23 190.29 144.5 188.78 144.63C187.27 144.76 187.12 141.49 188.49 141.37Z" fill="#263238"/>
<path d="M189.18 141.55C189.45 141.71 189.72 142.01 190.03 142.02C190.34 142.03 190.63 141.65 190.84 141.3C190.84 141.3 190.84 141.3 190.9 141.3C190.9 141.92 190.77 142.58 190.18 142.73C189.59 142.88 189.18 142.36 189.03 141.73C189 141.67 189.07 141.49 189.18 141.55Z" fill="#263238"/>
<path d="M181.91 150.81C182.15 151.05 182.39 151.38 182.75 151.42C183.128 151.423 183.502 151.348 183.85 151.2C183.85 151.2 183.91 151.2 183.85 151.25C183.7 151.445 183.5 151.596 183.271 151.687C183.043 151.779 182.794 151.807 182.55 151.77C182.345 151.711 182.161 151.592 182.024 151.428C181.887 151.264 181.802 151.063 181.78 150.85C181.8 150.79 181.88 150.77 181.91 150.81Z" fill="#263238"/>
<path d="M186.001 147C186.001 147 186.261 148.5 186.291 149.22C186.291 149.28 186.121 149.32 185.871 149.34C185.261 149.474 184.627 149.436 184.037 149.232C183.447 149.027 182.926 148.663 182.531 148.18C182.471 148.12 182.531 148.04 182.631 148.08C183.561 148.675 184.659 148.953 185.761 148.87C185.761 148.67 185.231 146.3 185.341 146.29C185.899 146.318 186.451 146.422 186.981 146.6C186.531 143.45 185.581 140.39 185.181 137.24C185.181 137.13 185.331 137.09 185.361 137.19C186.483 140.436 187.277 143.786 187.731 147.19C187.811 147.61 186.321 147.12 186.001 147Z" fill="#263238"/>
<path d="M167.8 145.73C170.37 146.8 169.24 142.42 169.24 142.42C169.24 142.42 171.47 141.09 170.32 137.97C170.32 137.97 173.4 138.88 173.73 134.51C174.109 134.472 174.475 134.356 174.807 134.17C175.138 133.984 175.428 133.731 175.658 133.428C175.888 133.125 176.053 132.778 176.143 132.408C176.233 132.039 176.245 131.655 176.18 131.28C176.18 131.28 179.81 133.28 181.29 129.91C181.29 129.91 183.92 132.83 186.01 129.91C186.3 130.462 186.772 130.897 187.347 131.14C187.921 131.382 188.562 131.418 189.16 131.24C189.256 131.814 189.475 132.359 189.804 132.84C190.132 133.32 190.561 133.723 191.06 134.02C191.06 134.02 186.68 118.82 172.94 124.15C160.25 129.11 164.81 144.5 167.8 145.73Z" fill="#263238"/>
<path d="M168.76 146.14C168.76 146.14 165.42 141.56 163.33 142.76C161.24 143.96 163.82 150.65 166.33 151.52C166.642 151.653 166.979 151.721 167.318 151.721C167.658 151.721 167.994 151.653 168.306 151.521C168.619 151.388 168.902 151.194 169.138 150.95C169.374 150.706 169.558 150.417 169.68 150.1L168.76 146.14Z" fill="#AD6359"/>
<path d="M164.121 144.66C164.121 144.66 164.071 144.71 164.121 144.72C165.871 145.39 166.811 146.98 167.491 148.64C167.386 148.469 167.245 148.323 167.078 148.211C166.911 148.099 166.722 148.025 166.524 147.992C166.325 147.96 166.122 147.971 165.929 148.024C165.735 148.077 165.555 148.171 165.401 148.3C165.401 148.3 165.401 148.4 165.451 148.39C165.754 148.289 166.081 148.283 166.387 148.374C166.693 148.466 166.963 148.649 167.161 148.9C167.493 149.321 167.778 149.777 168.011 150.26C168.091 150.41 168.371 150.33 168.311 150.15C168.281 147.89 166.501 144.83 164.121 144.66Z" fill="#263238"/>
<path d="M345.731 150.2L345.951 233.72C345.953 234.83 345.738 235.929 345.315 236.955C344.893 237.982 344.273 238.915 343.49 239.701C342.707 240.488 341.777 241.112 340.753 241.539C339.729 241.966 338.631 242.188 337.521 242.19L205.071 242.54C203.96 242.543 202.86 242.326 201.833 241.904C200.806 241.481 199.873 240.86 199.086 240.076C198.3 239.292 197.675 238.361 197.249 237.335C196.822 236.31 196.602 235.211 196.601 234.1L196.381 150.59C196.378 148.504 197.203 146.501 198.675 145.022C200.146 143.543 202.144 142.708 204.231 142.7L337.851 142.36C338.883 142.358 339.906 142.558 340.86 142.951C341.815 143.343 342.683 143.92 343.415 144.648C344.146 145.376 344.727 146.241 345.125 147.194C345.522 148.146 345.728 149.168 345.731 150.2Z" fill="#8661C1"/>
<path opacity="0.2" d="M345.731 150.2L345.951 233.72C345.953 234.83 345.738 235.929 345.315 236.955C344.893 237.982 344.273 238.915 343.49 239.701C342.707 240.488 341.777 241.112 340.753 241.539C339.729 241.966 338.631 242.188 337.521 242.19L205.071 242.54C203.96 242.543 202.86 242.326 201.833 241.904C200.806 241.481 199.873 240.86 199.086 240.076C198.3 239.292 197.675 238.361 197.249 237.335C196.822 236.31 196.602 235.211 196.601 234.1L196.381 150.59C196.378 148.504 197.203 146.501 198.675 145.022C200.146 143.543 202.144 142.708 204.231 142.7L337.851 142.36C338.883 142.358 339.906 142.558 340.86 142.951C341.815 143.343 342.683 143.92 343.415 144.648C344.146 145.376 344.727 146.241 345.125 147.194C345.522 148.146 345.728 149.168 345.731 150.2Z" fill="black"/>
<path d="M232.791 156.97L213.151 157.021C210.832 157.028 208.956 158.913 208.962 161.232L208.991 172.202C208.997 174.522 210.882 176.397 213.202 176.391L232.842 176.34C235.161 176.334 237.037 174.449 237.031 172.129L237.002 161.159C236.996 158.839 235.111 156.964 232.791 156.97Z" fill="#8661C1"/>
<path d="M208 194.07L206.86 194.75C206.819 194.779 206.771 194.797 206.72 194.8C206.67 194.8 206.62 194.788 206.577 194.763C206.533 194.738 206.496 194.703 206.47 194.66C206.451 194.628 206.439 194.593 206.434 194.556C206.429 194.519 206.432 194.482 206.442 194.446C206.453 194.41 206.47 194.377 206.494 194.349C206.518 194.32 206.547 194.297 206.58 194.28L208.14 193.28C208.206 193.247 208.282 193.24 208.354 193.258C208.425 193.276 208.488 193.32 208.53 193.38C208.549 193.449 208.549 193.521 208.53 193.59V201.06C208.532 201.097 208.525 201.134 208.512 201.169C208.498 201.203 208.477 201.235 208.451 201.261C208.425 201.287 208.394 201.308 208.359 201.321C208.324 201.335 208.287 201.341 208.25 201.34C208.176 201.34 208.105 201.31 208.052 201.258C208 201.205 207.97 201.134 207.97 201.06L208 194.07Z" fill="#F8F8F8"/>
<path d="M210.59 200.88L214.38 197.44C214.597 197.242 214.769 197 214.888 196.732C215.007 196.464 215.069 196.173 215.07 195.88C215.067 195.364 214.871 194.868 214.52 194.49C214.333 194.283 214.107 194.114 213.855 193.995C213.603 193.875 213.33 193.806 213.051 193.792C212.773 193.778 212.494 193.819 212.231 193.913C211.968 194.007 211.727 194.152 211.52 194.34L211.12 194.71C211.095 194.736 211.065 194.757 211.031 194.772C210.998 194.786 210.962 194.793 210.925 194.793C210.889 194.793 210.853 194.786 210.819 194.772C210.786 194.757 210.755 194.736 210.73 194.71C210.702 194.685 210.68 194.654 210.665 194.619C210.65 194.585 210.642 194.548 210.642 194.51C210.642 194.472 210.65 194.435 210.665 194.401C210.68 194.366 210.702 194.335 210.73 194.31L211.12 193.94C211.614 193.495 212.256 193.25 212.92 193.25C213.288 193.245 213.652 193.32 213.989 193.468C214.325 193.617 214.626 193.835 214.87 194.11C215.322 194.593 215.576 195.228 215.58 195.89C215.582 196.265 215.506 196.637 215.356 196.982C215.206 197.326 214.986 197.635 214.71 197.89L211.47 200.84H215.31C215.385 200.843 215.457 200.874 215.509 200.928C215.561 200.982 215.59 201.055 215.59 201.13C215.59 201.204 215.561 201.275 215.508 201.328C215.456 201.38 215.385 201.41 215.31 201.41H210.78H210.73C210.692 201.412 210.654 201.405 210.619 201.389C210.585 201.373 210.554 201.35 210.53 201.32C210.502 201.289 210.481 201.251 210.468 201.211C210.456 201.171 210.452 201.128 210.458 201.086C210.463 201.044 210.478 201.004 210.501 200.968C210.524 200.933 210.554 200.903 210.59 200.88Z" fill="#F8F8F8"/>
<path d="M222.341 193.72L220.251 195.89C220.737 195.99 221.188 196.22 221.554 196.555C221.921 196.891 222.19 197.319 222.332 197.795C222.475 198.271 222.486 198.776 222.364 199.258C222.242 199.74 221.992 200.179 221.641 200.53C221.387 200.79 221.083 200.996 220.748 201.137C220.414 201.278 220.054 201.35 219.691 201.35C219.33 201.353 218.971 201.283 218.638 201.143C218.305 201.004 218.003 200.799 217.751 200.54C217.698 200.487 217.668 200.415 217.668 200.34C217.668 200.265 217.698 200.193 217.751 200.14C217.804 200.087 217.876 200.057 217.951 200.057C218.026 200.057 218.098 200.087 218.151 200.14C218.566 200.536 219.117 200.758 219.691 200.76C219.977 200.761 220.262 200.706 220.527 200.597C220.792 200.488 221.033 200.327 221.235 200.125C221.438 199.922 221.598 199.681 221.708 199.416C221.817 199.151 221.872 198.867 221.871 198.58C221.872 198.295 221.817 198.013 221.707 197.75C221.597 197.487 221.435 197.249 221.231 197.05C221.031 196.845 220.791 196.684 220.526 196.575C220.261 196.467 219.977 196.414 219.691 196.42C219.646 196.418 219.602 196.406 219.563 196.385C219.523 196.365 219.488 196.336 219.461 196.3C219.432 196.273 219.41 196.24 219.394 196.204C219.379 196.168 219.371 196.129 219.371 196.09C219.371 196.051 219.379 196.012 219.394 195.976C219.41 195.94 219.432 195.907 219.461 195.88L221.461 193.8H218.351C218.312 193.802 218.274 193.795 218.238 193.781C218.202 193.767 218.17 193.746 218.143 193.718C218.115 193.691 218.094 193.659 218.08 193.623C218.066 193.587 218.059 193.549 218.061 193.51C218.059 193.472 218.066 193.433 218.08 193.398C218.094 193.362 218.115 193.329 218.143 193.302C218.17 193.275 218.202 193.253 218.238 193.239C218.274 193.225 218.312 193.219 218.351 193.22H222.141C222.18 193.219 222.219 193.225 222.255 193.239C222.291 193.253 222.324 193.274 222.352 193.301C222.38 193.329 222.403 193.361 222.418 193.397C222.433 193.433 222.441 193.471 222.441 193.51C222.457 193.552 222.457 193.598 222.441 193.64C222.431 193.66 222.417 193.678 222.4 193.691C222.382 193.705 222.362 193.715 222.341 193.72Z" fill="#F8F8F8"/>
<path d="M229.19 199.66H224.75C224.685 199.664 224.62 199.643 224.57 199.6C224.542 199.575 224.52 199.544 224.505 199.509C224.489 199.475 224.481 199.438 224.481 199.4C224.481 199.362 224.489 199.325 224.505 199.291C224.52 199.256 224.542 199.225 224.57 199.2L229.26 193.34C229.284 193.312 229.314 193.29 229.348 193.275C229.382 193.26 229.418 193.252 229.455 193.252C229.492 193.252 229.528 193.26 229.562 193.275C229.596 193.29 229.626 193.312 229.65 193.34C229.7 193.34 229.72 193.43 229.75 193.48V199.1H230.3C230.374 199.1 230.446 199.129 230.498 199.182C230.551 199.235 230.58 199.306 230.58 199.38C230.58 199.454 230.551 199.525 230.498 199.578C230.446 199.63 230.374 199.66 230.3 199.66H229.75V201.06C229.738 201.126 229.702 201.186 229.65 201.23C229.598 201.273 229.533 201.296 229.465 201.296C229.397 201.296 229.332 201.273 229.28 201.23C229.228 201.186 229.193 201.126 229.18 201.06L229.19 199.66ZM229.19 199.1V194.33L225.36 199.11L229.19 199.1Z" fill="#F8F8F8"/>
<path d="M239.38 200.5C239.352 200.474 239.33 200.442 239.314 200.407C239.299 200.372 239.291 200.333 239.291 200.295C239.291 200.257 239.299 200.218 239.314 200.183C239.33 200.148 239.352 200.116 239.38 200.09C239.438 200.037 239.512 200.008 239.59 200.008C239.668 200.008 239.743 200.037 239.8 200.09C240 200.293 240.239 200.453 240.501 200.563C240.764 200.673 241.046 200.73 241.33 200.73C241.615 200.73 241.897 200.673 242.159 200.563C242.422 200.453 242.66 200.293 242.86 200.09C243.064 199.891 243.225 199.653 243.335 199.39C243.445 199.127 243.501 198.845 243.5 198.56C243.503 198.273 243.448 197.988 243.34 197.722C243.232 197.456 243.072 197.214 242.87 197.01C242.458 196.61 241.905 196.388 241.33 196.39C241.044 196.388 240.76 196.444 240.495 196.554C240.231 196.664 239.991 196.826 239.79 197.03C239.764 197.058 239.732 197.081 239.697 197.096C239.662 197.111 239.624 197.119 239.585 197.119C239.547 197.119 239.509 197.111 239.473 197.096C239.438 197.081 239.406 197.058 239.38 197.03C239.347 197.01 239.322 196.978 239.31 196.94C239.305 196.907 239.305 196.873 239.31 196.84C239.312 196.82 239.312 196.8 239.31 196.78L239.7 193.51C239.697 193.468 239.705 193.426 239.725 193.389C239.744 193.352 239.774 193.321 239.81 193.3C239.836 193.276 239.866 193.258 239.898 193.246C239.931 193.234 239.966 193.228 240 193.23H243.78C243.857 193.23 243.931 193.261 243.985 193.315C244.04 193.369 244.07 193.443 244.07 193.52C244.07 193.597 244.04 193.671 243.985 193.725C243.931 193.779 243.857 193.81 243.78 193.81H240.23L239.95 196.23C240.367 195.981 240.844 195.849 241.33 195.85C242.06 195.85 242.759 196.14 243.275 196.655C243.791 197.171 244.08 197.871 244.08 198.6C244.09 198.97 244.024 199.339 243.887 199.683C243.749 200.027 243.543 200.339 243.28 200.6C242.757 201.108 242.06 201.398 241.33 201.41C240.961 201.397 240.598 201.309 240.263 201.153C239.928 200.997 239.628 200.775 239.38 200.5Z" fill="#F8F8F8"/>
<path d="M247.11 194.93C247.381 194.406 247.787 193.965 248.287 193.651C248.786 193.338 249.361 193.165 249.95 193.15C250.024 193.15 250.095 193.178 250.149 193.228C250.203 193.278 250.235 193.347 250.24 193.42C250.241 193.496 250.212 193.57 250.16 193.626C250.108 193.681 250.036 193.715 249.96 193.72C249.471 193.735 248.995 193.88 248.58 194.141C248.165 194.401 247.827 194.766 247.6 195.2C247.322 195.709 247.126 196.259 247.02 196.83C247.433 196.363 247.996 196.054 248.612 195.957C249.228 195.86 249.858 195.981 250.395 196.298C250.931 196.616 251.34 197.111 251.551 197.697C251.762 198.284 251.762 198.926 251.55 199.513C251.339 200.099 250.93 200.594 250.393 200.911C249.857 201.229 249.226 201.349 248.61 201.251C247.995 201.154 247.432 200.845 247.019 200.378C246.607 199.91 246.37 199.313 246.35 198.69C246.34 198.514 246.34 198.337 246.35 198.16C246.326 197.037 246.588 195.925 247.11 194.93ZM246.92 198.64C246.91 198.693 246.91 198.747 246.92 198.8C246.93 198.826 246.93 198.854 246.92 198.88C246.957 199.445 247.211 199.974 247.63 200.354C248.05 200.735 248.6 200.937 249.166 200.919C249.732 200.901 250.268 200.663 250.662 200.257C251.056 199.85 251.276 199.306 251.276 198.74C251.276 198.174 251.056 197.63 250.662 197.224C250.268 196.817 249.732 196.579 249.166 196.561C248.6 196.543 248.05 196.746 247.63 197.126C247.211 197.507 246.957 198.035 246.92 198.6V198.64Z" fill="#F8F8F8"/>
<path d="M254.7 200.87L257.7 193.73H253.77C253.696 193.73 253.625 193.701 253.572 193.648C253.52 193.596 253.49 193.524 253.49 193.45C253.49 193.376 253.52 193.305 253.572 193.252C253.625 193.2 253.696 193.17 253.77 193.17H258.07C258.126 193.155 258.185 193.155 258.24 193.17C258.276 193.186 258.307 193.21 258.333 193.239C258.359 193.268 258.378 193.303 258.39 193.34C258.39 193.34 258.39 193.4 258.39 193.43C258.389 193.487 258.372 193.543 258.34 193.59L255.21 201.08C255.187 201.128 255.152 201.169 255.108 201.199C255.064 201.229 255.013 201.246 254.96 201.25C254.921 201.26 254.88 201.26 254.84 201.25C254.774 201.216 254.722 201.158 254.696 201.087C254.671 201.017 254.672 200.939 254.7 200.87Z" fill="#F8F8F8"/>
<path d="M262.71 193.11C263.053 193.124 263.384 193.241 263.659 193.447C263.933 193.654 264.139 193.939 264.247 194.264C264.356 194.59 264.363 194.941 264.267 195.271C264.171 195.601 263.977 195.894 263.71 196.11C264.194 196.31 264.608 196.648 264.899 197.082C265.191 197.516 265.348 198.027 265.35 198.55C265.309 199.221 265.013 199.851 264.524 200.311C264.034 200.771 263.387 201.028 262.715 201.028C262.043 201.028 261.396 200.771 260.907 200.311C260.417 199.851 260.121 199.221 260.08 198.55C260.08 198.029 260.234 197.52 260.522 197.086C260.81 196.652 261.22 196.313 261.7 196.11C261.489 195.95 261.317 195.743 261.199 195.505C261.081 195.267 261.02 195.005 261.02 194.74C261.033 194.302 261.217 193.885 261.533 193.581C261.849 193.276 262.271 193.107 262.71 193.11ZM262.71 200.68C262.983 200.681 263.254 200.629 263.506 200.524C263.759 200.42 263.988 200.267 264.18 200.073C264.373 199.88 264.525 199.65 264.628 199.397C264.731 199.144 264.783 198.873 264.78 198.6C264.78 198.188 264.658 197.786 264.429 197.444C264.2 197.101 263.874 196.835 263.494 196.678C263.113 196.52 262.694 196.48 262.291 196.561C261.887 196.642 261.516 196.841 261.226 197.133C260.935 197.425 260.738 197.796 260.659 198.201C260.58 198.605 260.622 199.023 260.781 199.403C260.94 199.783 261.208 200.107 261.552 200.334C261.895 200.562 262.298 200.682 262.71 200.68ZM262.71 195.94C262.86 195.939 263.008 195.908 263.146 195.85C263.283 195.791 263.408 195.706 263.513 195.599C263.618 195.492 263.701 195.366 263.757 195.227C263.813 195.088 263.841 194.94 263.84 194.79C263.84 194.49 263.721 194.203 263.509 193.991C263.297 193.779 263.01 193.66 262.71 193.66C262.41 193.66 262.123 193.779 261.911 193.991C261.699 194.203 261.58 194.49 261.58 194.79C261.579 194.941 261.607 195.09 261.664 195.229C261.721 195.369 261.804 195.496 261.91 195.603C262.016 195.71 262.143 195.795 262.282 195.852C262.42 195.91 262.57 195.94 262.72 195.94H262.71Z" fill="#F8F8F8"/>
<path d="M277.171 193.07C277.828 193.065 278.464 193.304 278.957 193.739C279.45 194.175 279.764 194.777 279.841 195.43C279.843 195.45 279.843 195.47 279.841 195.49C279.841 195.71 279.841 195.94 279.841 196.19C279.867 197.318 279.602 198.434 279.071 199.43C278.796 199.951 278.389 200.389 277.89 200.702C277.392 201.015 276.819 201.19 276.231 201.21C276.194 201.211 276.157 201.205 276.123 201.193C276.088 201.18 276.057 201.16 276.03 201.135C276.003 201.11 275.981 201.08 275.966 201.046C275.951 201.013 275.942 200.977 275.941 200.94C275.94 200.902 275.946 200.864 275.959 200.828C275.972 200.792 275.993 200.76 276.019 200.732C276.045 200.704 276.076 200.682 276.111 200.666C276.145 200.65 276.183 200.641 276.221 200.64C276.71 200.623 277.185 200.477 277.6 200.217C278.014 199.957 278.352 199.592 278.581 199.16C278.867 198.654 279.064 198.103 279.161 197.53C278.864 197.87 278.486 198.129 278.063 198.285C277.64 198.44 277.184 198.487 276.738 198.42C276.292 198.354 275.869 198.176 275.51 197.903C275.151 197.631 274.865 197.272 274.681 196.86C274.496 196.449 274.418 195.997 274.454 195.548C274.489 195.098 274.637 194.665 274.884 194.287C275.131 193.91 275.469 193.6 275.867 193.388C276.265 193.175 276.71 193.066 277.161 193.07H277.171ZM279.301 195.74C279.301 195.321 279.177 194.911 278.944 194.562C278.711 194.214 278.38 193.942 277.992 193.781C277.605 193.621 277.178 193.579 276.767 193.661C276.356 193.742 275.978 193.944 275.682 194.241C275.385 194.537 275.183 194.915 275.102 195.326C275.02 195.738 275.062 196.164 275.222 196.551C275.383 196.939 275.654 197.27 276.003 197.503C276.352 197.736 276.762 197.86 277.181 197.86C277.46 197.861 277.736 197.807 277.994 197.701C278.252 197.595 278.486 197.439 278.683 197.242C278.88 197.045 279.036 196.811 279.142 196.553C279.248 196.295 279.302 196.019 279.301 195.74Z" fill="#F8F8F8"/>
<path d="M281.93 197.13C281.907 196.124 282.178 195.134 282.71 194.28C282.917 193.926 283.207 193.629 283.556 193.415C283.905 193.2 284.301 193.075 284.71 193.05C285.117 193.078 285.511 193.203 285.859 193.416C286.207 193.628 286.499 193.921 286.71 194.27C287.243 195.121 287.521 196.106 287.51 197.11C287.523 198.111 287.252 199.096 286.73 199.95C286.522 200.302 286.231 200.598 285.882 200.812C285.534 201.027 285.138 201.153 284.73 201.18C284.322 201.156 283.926 201.033 283.578 200.82C283.229 200.607 282.938 200.312 282.73 199.96C282.196 199.114 281.918 198.131 281.93 197.13ZM282.5 197.13C282.488 198.02 282.731 198.894 283.2 199.65C283.354 199.935 283.578 200.177 283.851 200.352C284.124 200.527 284.437 200.629 284.76 200.65C285.08 200.62 285.387 200.513 285.657 200.339C285.927 200.165 286.151 199.929 286.31 199.65C286.757 198.893 286.993 198.029 286.993 197.15C286.993 196.271 286.757 195.407 286.31 194.65C286.166 194.359 285.944 194.114 285.668 193.943C285.393 193.772 285.075 193.681 284.75 193.681C284.426 193.681 284.107 193.772 283.832 193.943C283.556 194.114 283.334 194.359 283.19 194.65C282.735 195.393 282.496 196.249 282.5 197.12V197.13Z" fill="#F8F8F8"/>
<path d="M291.32 193.86L290.17 194.54C290.124 194.551 290.076 194.551 290.03 194.54C289.981 194.542 289.933 194.53 289.89 194.505C289.848 194.48 289.813 194.444 289.79 194.4C289.769 194.369 289.755 194.334 289.749 194.298C289.743 194.261 289.744 194.223 289.754 194.187C289.763 194.151 289.78 194.118 289.804 194.089C289.827 194.06 289.857 194.036 289.89 194.02L291.46 193.02C291.526 192.987 291.602 192.98 291.672 193C291.743 193.021 291.803 193.067 291.84 193.13C291.864 193.198 291.864 193.272 291.84 193.34V200.81C291.84 200.884 291.811 200.956 291.758 201.008C291.706 201.061 291.635 201.09 291.56 201.09C291.487 201.088 291.417 201.057 291.365 201.005C291.313 200.953 291.283 200.884 291.28 200.81L291.32 193.86Z" fill="#F8F8F8"/>
<path d="M293.89 200.66L297.68 197.22C297.99 196.936 298.207 196.566 298.302 196.157C298.398 195.748 298.369 195.32 298.218 194.928C298.066 194.536 297.801 194.199 297.455 193.96C297.11 193.722 296.7 193.593 296.28 193.59C295.757 193.59 295.252 193.782 294.86 194.13L294.47 194.49C294.445 194.518 294.414 194.54 294.38 194.555C294.345 194.571 294.308 194.579 294.27 194.579C294.233 194.579 294.195 194.571 294.161 194.555C294.127 194.54 294.096 194.518 294.07 194.49C294.044 194.464 294.023 194.433 294.008 194.398C293.994 194.364 293.986 194.327 293.986 194.29C293.986 194.253 293.994 194.216 294.008 194.182C294.023 194.147 294.044 194.116 294.07 194.09L294.47 193.72C294.967 193.28 295.607 193.034 296.27 193.03C296.97 193.035 297.639 193.315 298.135 193.808C298.631 194.302 298.913 194.971 298.92 195.67C298.925 196.045 298.851 196.417 298.703 196.761C298.555 197.106 298.336 197.415 298.06 197.67L294.81 200.67H298.66C298.735 200.675 298.805 200.707 298.856 200.761C298.908 200.815 298.938 200.886 298.94 200.96C298.938 201.034 298.908 201.103 298.856 201.155C298.804 201.207 298.734 201.238 298.66 201.24H294.08C294.042 201.243 294.003 201.238 293.966 201.224C293.93 201.21 293.897 201.188 293.87 201.16C293.834 201.129 293.805 201.089 293.786 201.045C293.767 201.001 293.758 200.953 293.76 200.905C293.762 200.857 293.775 200.81 293.797 200.768C293.82 200.725 293.852 200.688 293.89 200.66Z" fill="#F8F8F8"/>
<path d="M312.62 193.49L310.52 195.66C311.048 195.759 311.533 196.017 311.91 196.4C312.184 196.651 312.404 196.955 312.558 197.294C312.712 197.633 312.795 197.999 312.804 198.371C312.812 198.743 312.745 199.112 312.607 199.458C312.47 199.803 312.263 200.117 312.001 200.381C311.739 200.644 311.426 200.852 311.081 200.992C310.737 201.131 310.367 201.2 309.995 201.193C309.624 201.187 309.257 201.105 308.917 200.953C308.578 200.802 308.273 200.583 308.02 200.31C307.992 200.284 307.969 200.252 307.954 200.217C307.939 200.181 307.931 200.143 307.931 200.105C307.931 200.066 307.939 200.028 307.954 199.993C307.969 199.958 307.992 199.926 308.02 199.9C308.076 199.848 308.149 199.819 308.225 199.819C308.301 199.819 308.374 199.848 308.43 199.9C308.837 200.304 309.387 200.53 309.96 200.53C310.537 200.524 311.089 200.294 311.5 199.89C311.703 199.688 311.865 199.449 311.975 199.184C312.084 198.92 312.141 198.636 312.14 198.35C312.143 198.065 312.087 197.782 311.977 197.519C311.867 197.256 311.705 197.018 311.5 196.82C311.299 196.616 311.059 196.454 310.795 196.344C310.53 196.234 310.246 196.178 309.96 196.18C309.872 196.174 309.789 196.135 309.73 196.07C309.702 196.043 309.679 196.01 309.663 195.974C309.648 195.938 309.64 195.899 309.64 195.86C309.64 195.821 309.648 195.782 309.663 195.746C309.679 195.71 309.702 195.677 309.73 195.65L311.73 193.56H308.62C308.543 193.56 308.469 193.529 308.415 193.475C308.361 193.421 308.33 193.347 308.33 193.27C308.329 193.231 308.335 193.193 308.349 193.157C308.363 193.122 308.385 193.089 308.412 193.062C308.439 193.035 308.472 193.013 308.507 192.999C308.543 192.985 308.581 192.979 308.62 192.98H312.42C312.497 192.98 312.571 193.01 312.625 193.065C312.679 193.119 312.71 193.193 312.71 193.27C312.724 193.312 312.724 193.358 312.71 193.4C312.688 193.437 312.657 193.468 312.62 193.49Z" fill="#F8F8F8"/>
<path d="M319.46 199.42H315C314.935 199.425 314.87 199.403 314.82 199.36C314.793 199.336 314.771 199.306 314.755 199.272C314.74 199.239 314.732 199.202 314.732 199.165C314.732 199.128 314.74 199.092 314.755 199.058C314.771 199.025 314.793 198.995 314.82 198.97L319.51 193.1C319.537 193.074 319.568 193.052 319.602 193.038C319.636 193.024 319.673 193.016 319.71 193.016C319.748 193.016 319.785 193.024 319.819 193.038C319.853 193.052 319.884 193.074 319.91 193.1C319.947 193.142 319.978 193.189 320 193.24C319.998 193.257 319.998 193.274 320 193.29V198.9H320.55C320.626 198.9 320.698 198.929 320.752 198.982C320.806 199.034 320.838 199.105 320.84 199.18C320.84 199.218 320.833 199.255 320.818 199.29C320.804 199.324 320.782 199.356 320.755 199.382C320.728 199.408 320.696 199.428 320.661 199.442C320.626 199.455 320.588 199.462 320.55 199.46H320V200.85C320 200.888 319.993 200.925 319.978 200.96C319.964 200.994 319.942 201.026 319.915 201.052C319.888 201.078 319.856 201.098 319.821 201.112C319.786 201.125 319.748 201.132 319.71 201.13C319.638 201.13 319.568 201.102 319.516 201.052C319.464 201.001 319.433 200.933 319.43 200.86L319.46 199.42ZM319.46 198.86V194.1L315.63 198.87L319.46 198.86Z" fill="#F8F8F8"/>
<path d="M322.681 200.28C322.654 200.254 322.633 200.223 322.619 200.188C322.604 200.154 322.597 200.117 322.597 200.08C322.597 200.043 322.604 200.006 322.619 199.972C322.633 199.937 322.654 199.906 322.681 199.88C322.708 199.852 322.74 199.829 322.776 199.813C322.813 199.798 322.851 199.79 322.891 199.79C322.93 199.79 322.969 199.798 323.005 199.813C323.041 199.829 323.074 199.852 323.101 199.88C323.515 200.278 324.067 200.5 324.641 200.5C325.192 200.463 325.709 200.217 326.086 199.813C326.463 199.41 326.673 198.878 326.673 198.325C326.673 197.772 326.463 197.24 326.086 196.837C325.709 196.433 325.192 196.187 324.641 196.15C324.059 196.155 323.502 196.389 323.091 196.8C323.065 196.827 323.034 196.848 322.999 196.862C322.965 196.877 322.928 196.884 322.891 196.884C322.853 196.884 322.817 196.877 322.782 196.862C322.748 196.848 322.717 196.827 322.691 196.8C322.656 196.78 322.631 196.748 322.621 196.71C322.61 196.681 322.61 196.649 322.621 196.62C322.621 196.62 322.621 196.62 322.621 196.56L323.011 193.28C323.012 193.238 323.024 193.197 323.045 193.16C323.066 193.124 323.095 193.093 323.131 193.07C323.18 193.025 323.244 193 323.311 193H327.101C327.178 193 327.251 193.031 327.306 193.085C327.36 193.139 327.391 193.213 327.391 193.29C327.392 193.328 327.386 193.367 327.372 193.403C327.357 193.438 327.336 193.471 327.309 193.498C327.282 193.525 327.249 193.547 327.213 193.561C327.178 193.575 327.139 193.581 327.101 193.58H323.561L323.271 196C323.693 195.755 324.172 195.624 324.661 195.62C325.021 195.618 325.378 195.688 325.711 195.825C326.044 195.963 326.346 196.165 326.601 196.42C327.11 196.941 327.395 197.641 327.395 198.37C327.395 199.099 327.11 199.799 326.601 200.32C326.081 200.834 325.382 201.125 324.651 201.13C324.282 201.128 323.918 201.051 323.579 200.905C323.241 200.759 322.935 200.546 322.681 200.28Z" fill="#F8F8F8"/>
<path d="M330.411 194.71C330.685 194.188 331.094 193.748 331.595 193.437C332.096 193.126 332.671 192.954 333.261 192.94C333.333 192.937 333.404 192.963 333.458 193.011C333.513 193.06 333.546 193.128 333.551 193.2C333.551 193.277 333.523 193.352 333.471 193.409C333.419 193.467 333.348 193.503 333.271 193.51C332.779 193.525 332.3 193.67 331.883 193.932C331.466 194.194 331.127 194.563 330.901 195C330.622 195.508 330.43 196.059 330.331 196.63C330.742 196.165 331.303 195.859 331.917 195.763C332.53 195.667 333.158 195.788 333.691 196.104C334.225 196.421 334.632 196.914 334.842 197.498C335.052 198.082 335.052 198.721 334.841 199.306C334.631 199.89 334.224 200.382 333.689 200.698C333.155 201.015 332.527 201.135 331.914 201.038C331.301 200.942 330.74 200.634 330.329 200.169C329.918 199.704 329.682 199.111 329.661 198.49C329.646 198.31 329.646 198.13 329.661 197.95C329.638 196.825 329.896 195.711 330.411 194.71ZM330.231 198.43C330.225 198.48 330.225 198.53 330.231 198.58C330.237 198.607 330.237 198.634 330.231 198.66C330.267 199.225 330.522 199.754 330.941 200.134C331.36 200.515 331.911 200.717 332.476 200.699C333.042 200.681 333.579 200.443 333.972 200.037C334.366 199.63 334.586 199.086 334.586 198.52C334.586 197.954 334.366 197.41 333.972 197.004C333.579 196.597 333.042 196.359 332.476 196.341C331.911 196.323 331.36 196.526 330.941 196.906C330.522 197.287 330.267 197.815 330.231 198.38V198.43Z" fill="#F8F8F8"/>
<path d="M280.023 215.146L209.104 215.332L209.113 218.822L280.032 218.636L280.023 215.146Z" fill="#37474F"/>
<path d="M258.75 223.62H208.54V227.11H258.75V223.62Z" fill="#37474F"/>
<path d="M305.61 156.779L270.24 156.872L270.249 160.362L305.619 160.269L305.61 156.779Z" fill="#37474F"/>
<path d="M331.48 171.68L330.82 171.02C330.69 170.89 330.56 170.77 330.44 170.64C331.29 169.803 331.965 168.805 332.425 167.704C332.886 166.604 333.123 165.423 333.123 164.23C333.123 163.037 332.886 161.856 332.425 160.756C331.965 159.655 331.29 158.657 330.44 157.82L330.81 157.46L331.47 156.8V156.85C331.72 157.13 331.98 157.4 332.22 157.69C332.708 158.308 333.124 158.979 333.46 159.69C333.864 160.503 334.154 161.368 334.32 162.26C334.4 162.69 334.44 163.12 334.49 163.55C334.49 163.7 334.49 164.65 334.49 164.68C334.49 164.97 334.49 165.27 334.43 165.56C334.337 166.367 334.146 167.159 333.86 167.92C333.662 168.476 333.41 169.012 333.11 169.52C332.805 170.064 332.446 170.576 332.04 171.05C331.84 171.29 331.62 171.52 331.41 171.75L331.48 171.68Z" fill="white"/>
<path d="M328.35 159.93L329.35 158.88C330.054 159.582 330.613 160.415 330.995 161.333C331.376 162.252 331.572 163.236 331.572 164.23C331.572 165.224 331.376 166.209 330.995 167.127C330.613 168.045 330.054 168.879 329.35 169.58L328.35 168.53C328.914 167.966 329.362 167.295 329.668 166.557C329.974 165.82 330.131 165.029 330.131 164.23C330.131 163.431 329.974 162.641 329.668 161.903C329.362 161.165 328.914 160.495 328.35 159.93Z" fill="white"/>
<path d="M327.3 167.48L326.25 166.48C326.543 166.194 326.775 165.851 326.933 165.473C327.091 165.095 327.172 164.69 327.17 164.28C327.167 163.454 326.836 162.663 326.25 162.08L327.25 161.03C328.107 161.881 328.594 163.037 328.603 164.245C328.612 165.453 328.144 166.616 327.3 167.48Z" fill="white"/>
<path d="M160.14 176.64C159.14 191.64 159.14 222.4 166.14 231.08C175.24 242.48 199.94 248.69 207.25 250.55C210.43 251.36 217.07 230.55 215.12 227.55C213.17 224.55 187.68 219.2 185.63 217.55C183.58 215.9 175.94 188.03 172.46 175.79C168 160.41 161 164 160.14 176.64Z" fill="#AD6359"/>
<path d="M199.21 247.8C207.75 252 218.12 257.74 228.83 256.94C230.023 256.879 231.161 256.418 232.06 255.63C236.87 255.36 238.18 253.01 238.18 253.01C242.58 251.38 243.59 248.79 243.59 248.79C243.59 248.79 249.23 248.4 249.59 244.95C249.97 241.09 241.98 242.39 237.15 240.41C226.08 235.89 211.6 226.41 208.54 224.74L199.21 247.8Z" fill="#AD6359"/>
<path d="M222.181 243.83C225.408 245.185 228.722 246.324 232.101 247.24C235.86 248.003 239.67 248.488 243.501 248.69C243.521 248.697 243.538 248.709 243.551 248.726C243.563 248.743 243.57 248.764 243.57 248.785C243.57 248.806 243.563 248.827 243.551 248.844C243.538 248.861 243.521 248.873 243.501 248.88C236.06 249.23 228.666 247.536 222.121 243.98C222.001 243.89 222.001 243.76 222.181 243.83Z" fill="#263238"/>
<path d="M218.481 250.11C221.751 251.17 227.481 252.99 238.181 252.89V252.95C231.473 253.911 224.63 252.983 218.421 250.27C218.231 250.19 218.261 250 218.481 250.11Z" fill="#263238"/>
<path d="M216.55 253.53C222.17 255.11 225.92 255.4 232.04 255.61V255.67C225.04 256.16 222.47 255.55 216.47 253.67C216.27 253.65 216.34 253.47 216.55 253.53Z" fill="#263238"/>
<path d="M224.121 234.12C222.911 232.96 223.511 232.32 226.481 232.61C229.451 232.9 240.921 236.61 241.871 232.47C242.821 228.33 226.541 223.4 221.561 223.29C216.581 223.18 208.511 224.74 208.511 224.74C211.481 226.34 218.331 230.91 224.121 234.12Z" fill="#AD6359"/>
<path d="M158.29 200.16L179.83 195.5C179.83 195.5 175.27 179.37 171.69 171.32C168.11 163.27 161.6 160.38 159.48 173.67C157.68 184.94 158.29 200.16 158.29 200.16Z" fill="#263238"/>
<path d="M351.75 446.2H438.89L426.18 357.44H364.45L351.75 446.2Z" fill="#8661C1"/>
<path opacity="0.1" d="M364.45 357.44L374.13 446.2H351.75L364.45 357.44Z" fill="#263238"/>
<path d="M408.34 363.66C408.34 363.58 406.75 356.14 405.07 348.66C403.66 342.39 397.44 339.51 392.24 340.36C390.4 340.66 384.47 342.22 385.24 349.89C386.12 358.7 386.8 362.96 386.81 363L383.15 363.6C383.15 363.42 382.44 359.2 381.54 350.26C380.83 343.13 384.8 337.8 391.65 336.7C398.5 335.6 406.8 339.45 408.65 347.85C410.34 355.38 411.91 362.85 411.93 362.92L408.34 363.66Z" fill="#263238"/>
<path d="M373 445.52C371 444.61 369.06 443.59 367.12 442.57C365.18 441.55 363.28 440.46 361.39 439.35H361.89C360.4 440.44 358.89 441.51 357.37 442.53C355.85 443.55 354.31 444.59 352.72 445.53C354.1 444.3 355.53 443.13 356.97 441.98C358.41 440.83 359.87 439.71 361.35 438.61L361.59 438.43L361.85 438.58C363.75 439.66 365.633 440.777 367.5 441.93C369.31 443.08 371.16 444.25 373 445.52Z" fill="white"/>
<path d="M361.58 439C361.58 433.32 361.68 427.65 361.8 422C361.92 416.35 362.12 410.67 362.27 405C362.42 399.33 362.69 393.67 362.96 388L363.38 379.5C363.55 376.67 363.69 373.84 363.89 371.01C363.89 373.85 363.89 376.68 363.83 379.52L363.67 388.02C363.55 393.69 363.35 399.36 363.2 405.02C363.05 410.68 362.78 416.36 362.51 422.02C362.24 427.68 362 433.3 361.58 439Z" fill="white"/>
<path d="M406.46 363.27C406.46 364.002 406.677 364.718 407.084 365.327C407.491 365.935 408.07 366.41 408.746 366.689C409.423 366.969 410.167 367.042 410.885 366.898C411.603 366.755 412.263 366.401 412.78 365.883C413.297 365.364 413.648 364.704 413.79 363.986C413.932 363.267 413.857 362.523 413.575 361.847C413.294 361.171 412.818 360.594 412.208 360.189C411.599 359.783 410.882 359.568 410.15 359.57C409.17 359.573 408.232 359.964 407.54 360.657C406.848 361.351 406.46 362.29 406.46 363.27Z" fill="#263238"/>
<path d="M381.56 363.27C381.56 364.002 381.777 364.717 382.183 365.326C382.59 365.934 383.168 366.408 383.844 366.688C384.52 366.968 385.264 367.042 385.981 366.899C386.699 366.756 387.358 366.404 387.876 365.886C388.393 365.369 388.746 364.71 388.888 363.992C389.031 363.274 388.958 362.53 388.678 361.854C388.398 361.178 387.924 360.6 387.315 360.194C386.707 359.787 385.991 359.57 385.26 359.57C384.278 359.57 383.337 359.96 382.643 360.654C381.949 361.348 381.56 362.289 381.56 363.27Z" fill="#263238"/>
<path d="M413.27 241.49L408.21 236.39L405.31 233.5C418.59 219.81 425.67 203.5 425.68 184.44C425.69 165.38 418.62 149.05 405.25 135.26C406.2 134.36 407.18 133.45 408.13 132.51L413.18 127.51C413.216 127.46 413.246 127.407 413.27 127.35H413.39C413.5 127.48 413.59 127.61 413.7 127.73C415.6 129.87 417.58 131.96 419.4 134.17C427.523 144.232 433.064 156.127 435.54 168.82C436.14 172.08 436.44 175.4 436.85 178.69C436.99 179.81 437.01 187.1 436.99 187.33C436.83 189.57 436.73 191.82 436.49 194.05C435.787 200.243 434.333 206.328 432.16 212.17C430.602 216.412 428.685 220.514 426.43 224.43C424.061 228.573 421.316 232.49 418.23 236.13C416.67 237.96 415.01 239.72 413.39 241.51L413.27 241.49Z" fill="#8661C1"/>
<path d="M389.29 151.43C391.97 148.74 394.59 146.1 397.29 143.38C406.29 152.55 412.02 163.38 413.74 176.14C416.32 195.19 410.53 211.55 397.41 225.42L389.41 217.33C398.25 208.22 403.03 197.25 403.02 184.39C403.01 171.53 398.18 160.61 389.29 151.43Z" fill="#8661C1"/>
<path d="M381.26 209.28L373.26 201.28C375.485 199.068 377.251 196.438 378.456 193.541C379.661 190.644 380.282 187.538 380.282 184.4C380.282 181.262 379.661 178.156 378.456 175.259C377.251 172.362 375.485 169.732 373.26 167.52L381.26 159.52C394.56 172.25 395.62 195.18 381.26 209.28Z" fill="#8661C1"/>
</svg>
