<svg width="64" height="64" viewBox="0 0 64 64" fill="none" xmlns="http://www.w3.org/2000/svg">
<path d="M31.9996 1.88318C26.0431 1.88318 20.2203 3.6495 15.2676 6.95878C10.315 10.2681 6.4548 14.9717 4.17533 20.4748C1.89586 25.9779 1.29945 32.0334 2.46151 37.8755C3.62358 43.7176 6.49193 49.0839 10.7038 53.2958C14.9158 57.5077 20.2821 60.3761 26.1241 61.5381C31.9662 62.7002 38.0217 62.1038 43.5249 59.8243C49.028 57.5448 53.7316 53.6847 57.0409 48.732C60.3501 43.7793 62.1165 37.9565 62.1165 32C62.1077 24.0152 58.9318 16.36 53.2857 10.7139C47.6396 5.06784 39.9844 1.892 31.9996 1.88318ZM31.9996 56.2103C27.2113 56.2103 22.5305 54.7904 18.5491 52.1301C14.5678 49.4699 11.4647 45.6887 9.63226 41.2649C7.79984 36.841 7.3204 31.9731 8.25455 27.2768C9.18871 22.5805 11.4945 18.2666 14.8804 14.8807C18.2663 11.4949 22.5801 9.18907 27.2765 8.25491C31.9728 7.32075 36.8407 7.80019 41.2645 9.63261C45.6884 11.465 49.4695 14.5681 52.1298 18.5495C54.79 22.5308 56.2099 27.2117 56.2099 32C56.2028 38.4188 53.6498 44.5726 49.1111 49.1114C44.5723 53.6502 38.4184 56.2032 31.9996 56.2103Z" fill="#2D3E50"/>
<path d="M32.5126 18.743C32.7915 18.7763 33.0684 18.8188 33.3433 18.8703L35.5487 14.7277V14.7246C35.5048 14.7155 35.4608 14.7064 35.4169 14.6989C35.3593 14.6867 35.3002 14.6746 35.241 14.664C35.2259 14.661 35.2092 14.6579 35.194 14.6564C35.1122 14.6398 35.0303 14.6261 34.9485 14.614C34.8863 14.6019 34.8242 14.5913 34.7605 14.5822C34.706 14.5731 34.6514 14.564 34.5968 14.5579C34.5104 14.5443 34.4225 14.5321 34.3346 14.52C34.2785 14.5124 34.2209 14.5049 34.1633 14.4988C34.0708 14.4867 33.9799 14.4761 33.8874 14.467C33.8344 14.4609 33.7798 14.4548 33.7253 14.4518C33.6404 14.4427 33.5555 14.4336 33.4706 14.4291C33.4191 14.423 33.366 14.4185 33.3145 14.4154C33.1932 14.4063 33.072 14.3987 32.9507 14.3927C32.9325 14.3912 32.9143 14.3897 32.8976 14.3897C32.7506 14.3821 32.6021 14.376 32.455 14.373C32.3034 14.3684 32.1519 14.3669 32.0003 14.3669C28.4081 14.3656 24.9012 15.4618 21.9493 17.5089C18.9974 19.5559 16.7414 22.456 15.4834 25.8207C14.2254 29.1855 14.0255 32.8543 14.9104 36.3358C15.7953 39.8173 17.7229 42.9453 20.4349 45.301L20.4364 45.2995L21.5308 44.0414C21.4247 43.9337 21.3216 43.8261 21.2185 43.7155C20.7246 43.1892 20.2644 42.6323 19.8407 42.0481C19.3393 41.3471 18.8958 40.6065 18.5144 39.8336C18.1352 39.0708 17.8228 38.2766 17.5807 37.4598C17.3333 36.656 17.1583 35.8317 17.0577 34.9967C17.0365 34.789 16.9971 34.5844 16.9895 34.3752L16.9471 33.7522C16.938 33.5445 16.9425 33.3354 16.938 33.1292C16.938 33.0246 16.9334 32.9215 16.935 32.8185L16.9501 32.5077C16.9622 32.3001 16.9622 32.0939 16.9835 31.8878L17.0441 31.2724C17.1032 30.8646 17.1563 30.4584 17.2457 30.0597C17.4073 29.2643 17.636 28.4839 17.9293 27.727C18.2228 26.981 18.5745 26.2593 18.9813 25.5685C19.7895 24.2105 20.814 22.9935 22.0143 21.9655C23.188 20.9668 24.5165 20.1661 25.9478 19.5948C28.0325 18.7743 30.2876 18.4816 32.5126 18.743Z" fill="#8661C1"/>
<path d="M39.3756 16.1174C39.1112 15.993 38.8165 15.9478 38.527 15.9872C38.2903 16.0204 38.0645 16.108 37.8674 16.2433C37.6703 16.3786 37.5074 16.5579 37.3914 16.7669L31.2594 27.3754L30.9919 27.4335C30.2824 27.5825 29.6179 27.8965 29.0522 28.3501C28.4865 28.8036 28.0355 29.3839 27.7357 30.0441C27.3983 30.7695 27.2519 31.5691 27.3104 32.367C27.369 33.1649 27.6305 33.9346 28.0702 34.603C28.5098 35.2714 29.1131 35.8163 29.8226 36.186C30.5321 36.5557 31.3243 36.7379 32.124 36.7153C32.9237 36.6927 33.7044 36.466 34.3919 36.0568C35.0794 35.6477 35.6508 35.0695 36.0521 34.3774C36.4533 33.6852 36.6709 32.902 36.6843 32.1021C36.6977 31.3021 36.5063 30.5121 36.1285 29.8069L35.9991 29.566L40.1819 18.0509C40.3095 17.6859 40.2978 17.2866 40.149 16.9297C40.0002 16.5728 39.7247 16.2835 39.3756 16.1174Z" fill="#2D3E50"/>
<path d="M46.3358 25.9831C46.5208 25.8918 46.6881 25.7682 46.8298 25.6182C47.1282 25.318 47.3309 24.9361 47.4122 24.5207C47.4936 24.1053 47.4499 23.6751 47.2867 23.2845C47.1236 22.894 46.8483 22.5606 46.4956 22.3265C46.143 22.0924 45.7288 21.9681 45.3056 21.9694C44.8823 21.9706 44.4689 22.0974 44.1177 22.3336C43.7664 22.5698 43.4931 22.9049 43.3323 23.2964C43.1715 23.688 43.1304 24.1184 43.2143 24.5333C43.2981 24.9482 43.5031 25.3289 43.8033 25.6273C44.1289 25.9546 44.5526 26.1664 45.0097 26.2306C45.4669 26.2949 45.9326 26.2079 46.3358 25.9831Z" fill="#8661C1"/>
<path d="M49.4531 32.6637C49.3714 32.245 49.1465 31.8677 48.8169 31.5967C48.4874 31.3258 48.0738 31.178 47.6472 31.1787C47.5303 31.1788 47.4137 31.1899 47.2988 31.2117C47.0622 31.2563 46.8369 31.3477 46.6361 31.4805C46.4352 31.6133 46.263 31.785 46.1294 31.9853C45.856 32.3899 45.7543 32.8865 45.8469 33.366L45.847 33.3666C45.9214 33.7548 46.1201 34.1083 46.4131 34.3737C46.706 34.6392 47.0773 34.8021 47.471 34.838L47.492 34.8406C47.6609 34.8635 47.8325 34.8559 47.9987 34.8184C48.4771 34.7252 48.8989 34.4459 49.1716 34.0419C49.4443 33.638 49.5455 33.1423 49.4531 32.6637Z" fill="#8661C1"/>
<path d="M45.0699 40.6066C44.8809 40.5245 44.677 40.4821 44.4709 40.4821C44.17 40.4829 43.8759 40.5717 43.6247 40.7374C43.3735 40.9032 43.1763 41.1387 43.0572 41.4151L43.0566 41.4161C42.9262 41.7185 42.8978 42.0551 42.9755 42.3751C43.0532 42.6952 43.2328 42.9812 43.4873 43.1902L43.5191 43.2182C43.6199 43.3071 43.7355 43.3774 43.8608 43.4259C44.046 43.5056 44.245 43.548 44.4466 43.5507C44.6482 43.5535 44.8483 43.5164 45.0356 43.4417C45.2228 43.367 45.3935 43.2561 45.5379 43.1154C45.6823 42.9747 45.7975 42.8069 45.8769 42.6216C45.9564 42.4363 45.9985 42.2372 46.001 42.0356C46.0034 41.834 45.9661 41.6339 45.8911 41.4468C45.8162 41.2596 45.705 41.0891 45.5641 40.9449C45.4232 40.8008 45.2552 40.6858 45.0699 40.6066Z" fill="#8661C1"/>
</svg>
