<svg width="118" height="22" viewBox="0 0 118 22" fill="none" xmlns="http://www.w3.org/2000/svg">
<path d="M11 0L14.5044 6.17664L21.4616 7.60081L16.6702 12.8424L17.4656 19.8992L11 16.962L4.53436 19.8992L5.3298 12.8424L0.538379 7.60081L7.49562 6.17664L11 0Z" fill="#EFAF02"/>
<path d="M35 0L38.5044 6.17664L45.4616 7.60081L40.6702 12.8424L41.4656 19.8992L35 16.962L28.5344 19.8992L29.3298 12.8424L24.5384 7.60081L31.4956 6.17664L35 0Z" fill="#EFAF02"/>
<path d="M59 0L62.5044 6.17664L69.4616 7.60081L64.6702 12.8424L65.4656 19.8992L59 16.962L52.5344 19.8992L53.3298 12.8424L48.5384 7.60081L55.4956 6.17664L59 0Z" fill="#EFAF02"/>
<path d="M83 0L86.5044 6.17664L93.4616 7.60081L88.6702 12.8424L89.4656 19.8992L83 16.962L76.5344 19.8992L77.3298 12.8424L72.5384 7.60081L79.4956 6.17664L83 0Z" fill="#EFAF02"/>
<path d="M107 0L110.504 6.17664L117.462 7.60081L112.67 12.8424L113.466 19.8992L107 16.962L100.534 19.8992L101.33 12.8424L96.5384 7.60081L103.496 6.17664L107 0Z" fill="#EFAF02"/>
</svg>
