<svg width="71" height="72" viewBox="0 0 71 72" fill="none" xmlns="http://www.w3.org/2000/svg">
<g clip-path="url(#clip0_571_3050)">
<path d="M54.6199 21.1056C54.6199 21.7677 54.0841 22.3068 53.4261 22.3068C52.7681 22.3068 52.2324 21.7677 52.2324 21.1056V16.424C52.2324 14.59 51.7608 12.715 50.9455 11.004C50.0954 9.2228 48.8842 7.60561 47.4459 6.381C44.3772 3.76186 40.3535 2.4435 36.3065 2.39662C32.2071 2.34975 28.1019 3.60951 24.9458 6.14076C23.4202 7.36537 22.0285 8.96498 21.056 10.758C20.2117 12.3165 19.6876 14.0216 19.6876 15.7384V21.1525L19.7225 21.1408L20.7998 22.4826C20.7183 20.3322 20.7066 18.0236 20.7998 15.9904C20.8697 15.2931 21.0036 14.5958 21.1958 13.8986C22.9368 7.62905 30.0467 3.96694 36.2308 4.30678C41.0173 4.57045 45.5127 6.33412 48.3543 9.62709C52.3139 14.2384 51.2891 19.922 51.1552 25.547C52.0461 25.8224 52.6167 26.3849 52.8497 27.3048C53.1059 28.3244 52.8264 29.754 51.9704 31.7111C51.9529 31.7462 51.9355 31.7814 51.918 31.8165L48.2611 37.8751C46.852 40.2072 45.4195 42.5509 43.5154 44.3498L43.4571 44.4025C43.6784 44.7482 43.923 45.1408 44.1734 45.5568C44.7673 46.5236 45.437 47.6017 46.0833 48.5216C50.0954 51.5626 60.373 52.2599 64.2802 54.4513C65.5613 55.172 66.7201 56.0861 67.6459 57.3224C69.946 60.381 70.1265 64.6115 71.0058 68.3439C70.802 70.547 69.5617 71.8126 67.1161 72.0001H3.88977C1.44993 71.8126 0.209628 70.547 0 68.3439C0.879275 64.6115 1.05397 60.381 3.35988 57.3224C4.29156 56.0861 5.44452 55.172 6.72558 54.4513C10.6386 52.254 20.9221 51.5568 24.9283 48.5158C25.5572 47.1095 26.2094 44.924 26.617 43.5705L26.6228 43.5412L26.7859 43.0197C26.8033 42.9552 26.8324 42.9025 26.8616 42.8439C25.7144 41.4669 24.7245 39.9201 23.7754 38.4025L20.6368 33.381C20.398 33.3634 20.1651 33.3224 19.9322 33.2462C17.4166 32.4494 15.332 26.8244 15.7396 24.1701C15.9725 22.6642 16.5024 22.1251 17.3584 21.797C17.3176 21.674 17.2943 21.5451 17.2943 21.4103V15.7384C17.2943 13.6056 17.9291 11.5138 18.9597 9.61537C20.0894 7.52944 21.7024 5.67201 23.4551 4.26576C27.0421 1.38295 31.6947 -0.0467354 36.3181 0.000139603C40.9067 0.052874 45.4777 1.55287 48.9832 4.54701C50.6719 5.98842 52.0985 7.881 53.0942 9.9728C54.0609 12.0119 54.6257 14.2384 54.6257 16.4298V21.1056H54.6199ZM42.3042 45.3576C40.5573 46.6466 38.4494 47.4494 35.7649 47.4435C32.6555 47.4376 30.3146 46.2423 28.393 44.4728C28.2533 44.3439 28.1135 44.215 27.9796 44.0802C27.4497 45.8556 26.5122 48.9845 25.6329 50.3322C26.6461 56.1915 28.8996 60.381 30.9551 64.84L33.7851 54.9552C33.4241 54.34 33.2552 53.8009 33.2319 53.338C31.782 54.1583 30.2214 54.7033 28.5968 55.0665C26.8266 53.0392 26.6752 50.924 28.5968 48.6798C30.7688 49.2306 32.7661 50.1681 34.6003 51.4337C35.0371 51.2873 35.532 51.2521 36.0095 51.3283C37.9602 49.9162 40.4641 49.3595 42.6477 48.3048C45.239 50.8419 44.9595 53.1798 42.4148 55.3537C40.8776 54.9962 39.4218 54.4337 38.0359 53.6955C38.0185 54.0705 37.9253 54.4923 37.7448 54.9552L40.5748 64.84C42.7642 60.2052 45.041 55.6056 45.5593 50.3439C44.6916 49.2189 43.7716 47.7423 42.9797 46.4533C42.7409 46.0665 42.5138 45.6974 42.3042 45.3576ZM22.3778 26.7365L23.7695 30.5744C23.9209 31.0197 23.9675 31.4064 23.9035 31.7404L23.9151 31.7287C26.0929 34.1603 28.7773 35.9181 32.0091 36.9494C32.1721 36.5744 32.3992 36.2462 32.7312 35.9884C33.7152 35.2208 36.6035 35.2912 37.4944 36.0353C38.2397 36.6564 38.2514 38.0861 37.6982 38.8302C36.5452 40.3829 31.7471 39.0763 30.1399 38.5548C27.5778 37.7228 25.2428 35.7247 23.1174 33.9318L25.301 37.424C26.5879 39.4806 27.933 41.5783 29.61 43.1193C31.223 44.6017 33.1737 45.6037 35.7591 45.6095C38.56 45.6154 40.6039 44.5724 42.2692 43.008C43.9987 41.379 45.3613 39.1466 46.7064 36.9201L50.3167 30.9318C50.9921 29.3849 51.2367 28.3478 51.0795 27.7443C50.9863 27.381 50.5903 27.2052 49.9149 27.1701C49.7693 27.1642 49.6237 27.1642 49.4723 27.1642C49.3093 27.1701 49.1404 27.1818 48.9657 27.1935C48.8667 27.1994 48.7736 27.1935 48.6862 27.1759C48.3659 27.1935 48.034 27.1701 47.6963 27.1232L48.9366 21.6154C39.7537 23.0685 32.8884 16.213 23.1872 20.2443L23.886 26.7365C23.4959 26.754 23.1232 26.7423 22.7796 26.6896C22.6457 26.713 22.5059 26.7247 22.3778 26.7365Z" fill="black"/>
</g>
<defs>
<clipPath id="clip0_571_3050">
<rect width="71" height="72" fill="white"/>
</clipPath>
</defs>
</svg>
