<svg width="59" height="59" viewBox="0 0 59 59" fill="none" xmlns="http://www.w3.org/2000/svg">
<path d="M37.6875 49.4062H22.1875V57.1563H37.6875V49.4062Z" fill="#6F6F6F"/>
<path d="M58.0312 43.5938V45.5312C58.0312 46.559 57.623 47.5446 56.8962 48.2712C56.1696 48.998 55.184 49.4062 54.1562 49.4062H5.71875C4.69104 49.4062 3.70541 48.998 2.97871 48.2712C2.25201 47.5446 1.84375 46.559 1.84375 45.5312V43.5938H58.0312Z" fill="#D3D3D3"/>
<path d="M58.0312 16.4688V43.5938H1.84375V16.4688C1.84375 15.441 2.25201 14.4554 2.97871 13.7288C3.70541 13.002 4.69104 12.5938 5.71875 12.5938H54.1562C55.184 12.5938 56.1696 13.002 56.8962 13.7288C57.623 14.4554 58.0312 15.441 58.0312 16.4688Z" fill="#1B79DC"/>
<path d="M54.1563 12.5938H50.2037L42.9963 43.5938H58.0313V16.4688C58.0313 15.441 57.623 14.4554 56.8962 13.7288C56.1695 13.002 55.1839 12.5938 54.1563 12.5938Z" fill="#0057B8"/>
<path d="M6.6875 37.7813C7.75755 37.7813 8.625 36.9138 8.625 35.8438C8.625 34.7737 7.75755 33.9062 6.6875 33.9062C5.61745 33.9062 4.75 34.7737 4.75 35.8438C4.75 36.9138 5.61745 37.7813 6.6875 37.7813Z" fill="#0057B8"/>
<path d="M8.625 28.0937C8.625 27.0237 7.75755 26.1562 6.6875 26.1562C5.61745 26.1562 4.75 27.0237 4.75 28.0937V30.0312C4.75 31.1013 5.61745 31.9687 6.6875 31.9687C7.75755 31.9687 8.625 31.1013 8.625 30.0312V28.0937Z" fill="#0057B8"/>
<path d="M58.0312 16.4687V18.4062H1.84375V16.4687C1.84375 15.441 2.25201 14.4554 2.97871 13.7288C3.70541 13.002 4.69104 12.5938 5.71875 12.5938H54.1562C55.184 12.5938 56.1696 13.002 56.8962 13.7288C57.623 14.4554 58.0312 15.441 58.0312 16.4687Z" fill="#D3D3D3"/>
<path d="M43.5 0.96875H16.375V18.4062H43.5V0.96875Z" fill="#6F6F6F"/>
<path d="M23.1562 22.2812H14.4375V24.2188H23.1562V22.2812Z" fill="black"/>
<path d="M20.25 26.1562H14.4375V28.0938H20.25V26.1562Z" fill="black"/>
<path d="M28.9687 26.1562H22.1875V28.0938H28.9687V26.1562Z" fill="black"/>
<path d="M16.375 30.0312H14.4375V31.9688H16.375V30.0312Z" fill="black"/>
<path d="M28.9687 30.0312H18.3125V31.9688H28.9687V30.0312Z" fill="black"/>
<path d="M20.25 33.9062H14.4375V35.8438H20.25V33.9062Z" fill="black"/>
<path d="M28.9687 33.9062H22.1875V35.8438H28.9687V33.9062Z" fill="black"/>
<path d="M18.3125 37.7812H14.4375V39.7188H18.3125V37.7812Z" fill="black"/>
<path d="M28.9687 37.7812H20.25V39.7188H28.9687V37.7812Z" fill="black"/>
<path d="M36.7187 30.0312H30.9062V31.9688H36.7187V30.0312Z" fill="black"/>
<path d="M36.7187 37.7812H30.9062V39.7188H36.7187V37.7812Z" fill="black"/>
<path d="M12.5 26.1562H10.5625V28.0938H12.5V26.1562Z" fill="black"/>
<path d="M12.5 30.0312H10.5625V31.9688H12.5V30.0312Z" fill="black"/>
<path d="M12.5 33.9062H10.5625V35.8438H12.5V33.9062Z" fill="black"/>
<path d="M12.5 37.7812H10.5625V39.7188H12.5V37.7812Z" fill="black"/>
<path d="M12.5 22.2812H10.5625V24.2188H12.5V22.2812Z" fill="black"/>
<path d="M49.3125 26.1562H47.375V28.0938H49.3125V26.1562Z" fill="black"/>
<path d="M49.3125 30.0312H47.375V31.9688H49.3125V30.0312Z" fill="black"/>
<path d="M49.3125 33.9062H47.375V35.8438H49.3125V33.9062Z" fill="black"/>
<path d="M49.3125 37.7812H47.375V39.7188H49.3125V37.7812Z" fill="black"/>
<path d="M49.3125 22.2812H47.375V24.2188H49.3125V22.2812Z" fill="black"/>
<path d="M44.4687 18.4062V0.96875C44.4687 0.711822 44.3667 0.465413 44.185 0.283743C44.0033 0.102062 43.7569 0 43.5 0H16.375C16.1181 0 15.8717 0.102062 15.69 0.283743C15.5083 0.465413 15.4062 0.711822 15.4062 0.96875V18.4062C15.4062 18.6631 15.5083 18.9096 15.69 19.0912C15.8717 19.2729 16.1181 19.375 16.375 19.375H43.5C43.7569 19.375 44.0033 19.2729 44.185 19.0912C44.3667 18.9096 44.4687 18.6631 44.4687 18.4062ZM42.5312 17.4375H17.3437V1.9375H42.5312V17.4375Z" fill="black"/>
<path d="M23.4372 14.2499L24.8129 12.8743L21.616 9.68709L24.8129 6.49991L23.4372 5.12428L19.5622 8.9993C19.4715 9.08931 19.3994 9.19646 19.3502 9.31457C19.301 9.43258 19.2757 9.55916 19.2757 9.68709C19.2757 9.81502 19.301 9.9416 19.3502 10.0596C19.3994 10.1777 19.4715 10.2849 19.5622 10.3749L23.4372 14.2499Z" fill="black"/>
<path d="M36.4379 14.2499L40.3129 10.3749C40.4037 10.2849 40.4757 10.1777 40.5249 10.0596C40.5741 9.9416 40.5994 9.81502 40.5994 9.68709C40.5994 9.55916 40.5741 9.43258 40.5249 9.31457C40.4757 9.19646 40.4037 9.08931 40.3129 8.9993L36.4379 5.12428L35.0623 6.49991L38.2591 9.68709L35.0623 12.8743L36.4379 14.2499Z" fill="black"/>
<path d="M33.001 3.33893L25.2522 14.9622L26.8643 16.0369L34.6131 4.41366L33.001 3.33893Z" fill="black"/>
<path d="M54.1562 11.625H46.4062V13.5625H54.1562C54.927 13.5625 55.6663 13.8687 56.2112 14.4138C56.7563 14.9587 57.0625 15.698 57.0625 16.4687V17.4375H46.4062V19.375H57.0625V42.625H2.8125V19.375H13.4687V17.4375H2.8125V16.4687C2.8125 15.698 3.1187 14.9587 3.66372 14.4138C4.20875 13.8687 4.94797 13.5625 5.71875 13.5625H13.4687V11.625H5.71875C4.43411 11.625 3.20208 12.1354 2.2937 13.0437C1.38532 13.9521 0.875 15.1841 0.875 16.4687V45.5312C0.875 46.8159 1.38532 48.0479 2.2937 48.9563C3.20208 49.8646 4.43411 50.375 5.71875 50.375H21.2187V56.1875H15.4062V58.125H44.4687V56.1875H38.6562V50.375H54.1562C55.4409 50.375 56.6729 49.8646 57.5813 48.9563C58.4896 48.0479 59 46.8159 59 45.5312V16.4687C59 15.1841 58.4896 13.9521 57.5813 13.0437C56.6729 12.1354 55.4409 11.625 54.1562 11.625ZM36.7187 56.1875H23.1562V50.375H36.7187V56.1875ZM57.0625 45.5312C57.0625 46.302 56.7563 47.0413 56.2112 47.5862C55.6663 48.1313 54.927 48.4375 54.1562 48.4375H5.71875C4.94797 48.4375 4.20875 48.1313 3.66372 47.5862C3.1187 47.0413 2.8125 46.302 2.8125 45.5312V44.5625H57.0625V45.5312Z" fill="black"/>
<path d="M30.0149 47.4691C30.5071 47.4691 30.9061 47.0701 30.9061 46.5779C30.9061 46.0856 30.5071 45.6866 30.0149 45.6866C29.5227 45.6866 29.1236 46.0856 29.1236 46.5779C29.1236 47.0701 29.5227 47.4691 30.0149 47.4691Z" fill="black"/>
</svg>
