<svg width="62" height="61" viewBox="0 0 62 61" fill="none" xmlns="http://www.w3.org/2000/svg">
<path d="M37.7177 42.5547H23.5173C22.4411 42.5547 21.4091 42.9821 20.6483 43.743C19.8874 44.5039 19.46 45.5359 19.46 46.612V60.8125H41.775V46.612C41.775 45.5359 41.3476 44.5039 40.5867 43.743C39.8258 42.9821 38.7938 42.5547 37.7177 42.5547Z" fill="#7CB2F8"/>
<path d="M30.6175 41.5403C33.6985 41.5403 36.1963 39.0427 36.1963 35.9615C36.1963 32.8805 33.6985 30.3828 30.6175 30.3828C27.5365 30.3828 25.0387 32.8805 25.0387 35.9615C25.0387 39.0427 27.5365 41.5403 30.6175 41.5403Z" fill="#FFDBAC"/>
<path d="M30.6175 42.5547L27.5746 52.6979L30.6175 57.7695L33.6604 52.6979L30.6175 42.5547Z" fill="#E6EEF3"/>
<path d="M30.6175 0.967407L34.0652 7.97939L41.775 9.10328L36.1962 14.5614L37.5129 22.2682L30.6175 18.6298L23.7221 22.2682L25.0387 14.5614L19.46 9.10328L27.1698 7.97939L30.6175 0.967407Z" fill="#FFE66D"/>
<path d="M54.4582 15.4079L55.1428 20.9471L60.0825 23.5103L55.0404 25.888L54.1255 31.3967L50.3238 27.3273L44.818 28.1681L47.511 23.2761L45.0239 18.2866L50.4891 19.3324L54.4582 15.4079Z" fill="#FFE66D"/>
<path d="M6.82754 15.4079L6.14186 20.9471L1.2021 23.5103L6.2443 25.888L7.15922 31.3967L10.9619 27.3273L16.4667 28.1681L13.7736 23.2761L16.2608 18.2866L10.7955 19.3324L6.82754 15.4079Z" fill="#FFE66D"/>
<path d="M20.4743 46.612C20.4743 45.8049 20.7949 45.0309 21.3656 44.4603C21.9362 43.8895 22.7102 43.5689 23.5173 43.5689H29.2543L26.6028 52.4068C26.5624 52.5416 26.5507 52.6834 26.5681 52.8232C26.5856 52.9629 26.632 53.0974 26.7042 53.2183L29.7472 58.2898C29.8374 58.4398 29.9648 58.5639 30.1172 58.65C30.2695 58.7362 30.4415 58.7814 30.6165 58.7814C30.7915 58.7814 30.9635 58.7362 31.1158 58.65C31.2682 58.5639 31.3956 58.4398 31.4857 58.2898L34.5287 53.2183C34.6011 53.0974 34.6473 52.9629 34.6649 52.8232C34.6823 52.6834 34.6705 52.5416 34.6302 52.4068L31.9808 43.5689H37.7177C38.5248 43.5689 39.2988 43.8895 39.8694 44.4603C40.4401 45.0309 40.7607 45.8049 40.7607 46.612V60.8125H42.7894V46.612C42.7878 45.2674 42.2529 43.9783 41.3021 43.0275C40.3514 42.0768 39.0623 41.542 37.7177 41.5403H34.1149C35.3278 40.7808 36.2606 39.6471 36.7724 38.3107C37.2843 36.9742 37.3474 35.5076 36.9523 34.1321C36.5571 32.7566 35.7251 31.547 34.582 30.686C33.4389 29.8252 32.0466 29.3594 30.6155 29.3594C29.1843 29.3594 27.7921 29.8252 26.649 30.686C25.5058 31.547 24.6738 32.7566 24.2787 34.1321C23.8835 35.5076 23.9467 36.9742 24.4585 38.3107C24.9704 39.6471 25.9032 40.7808 27.1161 41.5403H23.5173C22.1727 41.542 20.8836 42.0768 19.9329 43.0275C18.9821 43.9783 18.4472 45.2674 18.4456 46.612V60.8125H20.4743V46.612ZM32.5599 52.5599L30.6175 55.7977L28.6751 52.5599L30.6175 46.0845L32.5599 52.5599ZM26.053 35.9615C26.053 35.0588 26.3208 34.1763 26.8223 33.4257C27.3238 32.6751 28.0367 32.09 28.8708 31.7446C29.7048 31.3991 30.6226 31.3087 31.508 31.4848C32.3934 31.6609 33.2068 32.0957 33.8451 32.734C34.4834 33.3724 34.9181 34.1856 35.0943 35.0711C35.2704 35.9564 35.1799 36.8743 34.8345 37.7083C34.489 38.5424 33.904 39.2552 33.1533 39.7568C32.4027 40.2583 31.5203 40.526 30.6175 40.526C29.4074 40.5246 28.2471 40.0433 27.3914 39.1876C26.5357 38.3319 26.0544 37.1717 26.053 35.9615Z" fill="black"/>
<path d="M23.9493 14.9143L22.722 22.0977C22.6903 22.2843 22.7115 22.4759 22.7831 22.6511C22.8546 22.8262 22.9737 22.9778 23.1269 23.0888C23.2801 23.1998 23.4613 23.2658 23.65 23.2792C23.8387 23.2927 24.0274 23.253 24.1948 23.1649L30.6175 19.776L37.0402 23.1649C37.2076 23.253 37.3963 23.2927 37.585 23.2792C37.7736 23.2658 37.9549 23.1998 38.1081 23.0888C38.2613 22.9778 38.3803 22.8262 38.4519 22.6511C38.5235 22.4759 38.5447 22.2843 38.5129 22.0977L37.2857 14.9143L42.4851 9.82848C42.6189 9.69624 42.7133 9.52922 42.7577 9.34634C42.8021 9.16346 42.7947 8.97186 42.7364 8.79288C42.6781 8.61398 42.5712 8.45475 42.4275 8.33308C42.2839 8.2115 42.1092 8.13221 41.9231 8.1042L34.7397 7.05333L31.5304 0.520066C31.4371 0.361688 31.3041 0.230408 31.1445 0.139191C30.9849 0.0479734 30.8044 0 30.6206 0C30.4368 0 30.2561 0.0479734 30.0965 0.139191C29.937 0.230408 29.804 0.361688 29.7107 0.520066L26.4953 7.05333L19.3129 8.10114C19.1268 8.12915 18.9522 8.20844 18.8085 8.33011C18.6648 8.45169 18.5579 8.61092 18.4996 8.78982C18.4413 8.9688 18.4339 9.1604 18.4783 9.34328C18.5227 9.52625 18.6171 9.69318 18.7509 9.82552L23.9493 14.9143ZM27.3158 8.98058C27.4787 8.95684 27.6334 8.89378 27.7664 8.79696C27.8995 8.70014 28.007 8.57235 28.0796 8.42471L30.6175 3.26584L33.1533 8.42675C33.2259 8.57439 33.3334 8.70218 33.4665 8.799C33.5996 8.89582 33.7543 8.95888 33.9171 8.98262L39.5973 9.81123L35.4863 13.8371C35.3689 13.9517 35.2811 14.0931 35.2305 14.2491C35.1798 14.4051 35.1676 14.5711 35.1951 14.7328L36.1658 20.413L31.0943 17.7341C30.9481 17.6575 30.7855 17.6176 30.6206 17.6176C30.4556 17.6176 30.293 17.6575 30.1469 17.7341L25.0752 20.413L26.046 14.7328C26.0734 14.5711 26.0614 14.4051 26.0106 14.2491C25.9599 14.0931 25.8722 13.9517 25.7549 13.8371L21.6407 9.81123L27.3158 8.98058Z" fill="black"/>
<path d="M60.5503 22.61L56.0873 20.2933L55.4685 15.2835C55.4458 15.0946 55.3705 14.9158 55.2511 14.7677C55.1315 14.6195 54.9729 14.508 54.7929 14.4457C54.6131 14.3835 54.4194 14.3732 54.2339 14.4159C54.0484 14.4585 53.8787 14.5526 53.7442 14.6871L50.1555 18.2372L45.2148 17.292C45.0291 17.2564 44.8372 17.2735 44.6607 17.3412C44.4843 17.4089 44.3302 17.5246 44.216 17.6752C44.1017 17.8259 44.0319 18.0054 44.0143 18.1936C43.9966 18.3818 44.032 18.5712 44.1162 18.7403L46.366 23.2541L43.9316 27.6806C43.8402 27.8465 43.7972 28.0347 43.8072 28.2238C43.8172 28.4128 43.88 28.5954 43.9884 28.7507C44.0968 28.9059 44.2465 29.0278 44.4205 29.1024C44.5946 29.1769 44.7861 29.2013 44.9734 29.1727L49.9496 28.4119L53.3861 32.0909C53.5154 32.2292 53.6808 32.3285 53.8636 32.3778C54.0464 32.4269 54.2394 32.424 54.4206 32.3691C54.6018 32.3144 54.7641 32.21 54.889 32.0677C55.014 31.9256 55.0967 31.7512 55.1277 31.5645L55.9564 26.5801L60.5209 24.4287C60.6918 24.348 60.8369 24.2213 60.9396 24.0625C61.0423 23.9038 61.0987 23.7195 61.1023 23.5305C61.1058 23.3415 61.0566 23.1553 60.9599 22.9929C60.8633 22.8304 60.7232 22.6981 60.5553 22.611L60.5503 22.61ZM54.6084 24.9713C54.4601 25.0413 54.3309 25.146 54.2321 25.2768C54.1331 25.4075 54.0674 25.5603 54.0404 25.722L53.4621 29.2011L51.0653 26.6349C50.9704 26.5333 50.8556 26.4524 50.728 26.3971C50.6004 26.3417 50.4629 26.3133 50.3239 26.3133C50.2726 26.3133 50.2213 26.3173 50.1707 26.3255L46.6987 26.8549L48.3997 23.7654C48.479 23.6215 48.5221 23.4607 48.5254 23.2966C48.5288 23.1324 48.4922 22.9699 48.419 22.8231L46.8468 19.6685L50.2955 20.3298C50.4572 20.3607 50.624 20.3516 50.7815 20.3035C50.9389 20.2555 51.0823 20.1698 51.1992 20.0539L53.7016 17.58L54.1337 21.0723C54.1541 21.2356 54.2138 21.3914 54.3078 21.5264C54.4018 21.6614 54.5272 21.7715 54.6733 21.8473L57.7934 23.4702L54.6084 24.9713Z" fill="black"/>
<path d="M0.769931 24.4277L5.33438 26.579L6.16207 31.5634C6.1931 31.7502 6.27578 31.9246 6.40074 32.0667C6.52571 32.209 6.68798 32.3134 6.8692 32.3681C7.05041 32.4229 7.24334 32.4259 7.42617 32.3767C7.60897 32.3275 7.77442 32.2282 7.90369 32.0899L11.3402 28.4109L16.3164 29.1717C16.5037 29.2003 16.6952 29.1759 16.8692 29.1013C17.0433 29.0268 17.193 28.9049 17.3014 28.7497C17.4098 28.5943 17.4726 28.4118 17.4826 28.2227C17.4926 28.0336 17.4495 27.8455 17.3582 27.6796L14.9238 23.2531L17.1745 18.7393C17.2588 18.5702 17.2942 18.3808 17.2766 18.1925C17.2589 18.0044 17.189 17.8248 17.0748 17.6742C16.9606 17.5236 16.8066 17.4079 16.6301 17.3402C16.4536 17.2725 16.2617 17.2554 16.0761 17.2909L11.1343 18.2362L7.54563 14.6861C7.41104 14.5515 7.24132 14.4575 7.05586 14.4148C6.8704 14.3722 6.67666 14.3825 6.4968 14.4447C6.31694 14.5069 6.15821 14.6185 6.03876 14.7667C5.91929 14.9148 5.84392 15.0936 5.82126 15.2825L5.20151 20.2923L0.738484 22.609C0.570693 22.6961 0.430574 22.8283 0.333941 22.9908C0.237308 23.1533 0.188009 23.3395 0.191588 23.5285C0.195177 23.7175 0.251516 23.9018 0.354242 24.0605C0.456968 24.2192 0.602001 24.346 0.772973 24.4267L0.769931 24.4277ZM6.60837 21.8473C6.75443 21.7715 6.87986 21.6614 6.97386 21.5264C7.06787 21.3914 7.12763 21.2356 7.148 21.0723L7.58013 17.58L10.0815 20.0539C10.1989 20.1693 10.3424 20.2548 10.5 20.3028C10.6576 20.3508 10.8243 20.3601 10.9862 20.3298L14.4349 19.6685L12.8627 22.823C12.7894 22.9699 12.7529 23.1324 12.7562 23.2966C12.7596 23.4607 12.8028 23.6215 12.882 23.7654L14.5911 26.8549L11.114 26.3255C10.9515 26.3 10.7853 26.3144 10.6296 26.3673C10.4739 26.4204 10.3335 26.5104 10.2204 26.6298L7.82255 29.196L7.24537 25.7168C7.21829 25.5551 7.15238 25.4023 7.05327 25.2715C6.95416 25.1408 6.82482 25.0361 6.67633 24.9663L3.48832 23.4671L6.60837 21.8473Z" fill="black"/>
</svg>
