<svg width="58" height="62" viewBox="0 0 58 62" fill="none" xmlns="http://www.w3.org/2000/svg">
<path d="M52.3613 61.1324C55.5222 56.8731 57.4376 51.8192 57.8938 46.5348C58.3502 41.2504 57.3293 35.9431 54.9452 31.205C52.5611 26.4669 48.9076 22.4843 44.3921 19.7015C39.8767 16.9187 34.6769 15.4451 29.3728 15.4451C24.0686 15.4451 18.8688 16.9187 14.3534 19.7015C9.83799 22.4843 6.18438 26.4669 3.80033 31.205C1.41625 35.9431 0.395396 41.2504 0.85165 46.5348C1.3079 51.8192 3.22335 56.8731 6.38426 61.1324H52.3613Z" fill="#8242EB"/>
<path d="M57.3638 60.5537H55.0505V61.7103H57.3638V60.5537Z" fill="black"/>
<path d="M3.00101 60.5537H0.109375V61.7103H3.00101V60.5537Z" fill="black"/>
<path d="M35.9657 42.6255V51.9423C36.544 51.6474 36.544 51.4218 37.1224 51.2657V42.6255H35.9657Z" fill="#7DC4C4"/>
<path d="M27.3486 58.0499C27.3547 57.488 27.4897 56.9351 27.7434 56.4337C27.9971 55.9323 28.3627 55.4959 28.8118 55.1582C28.0905 54.9132 27.3057 54.9316 26.5967 55.2104L26.4348 54.6782C26.2069 53.9569 25.7353 53.3371 25.1007 52.9252C24.4662 52.5132 23.7081 52.3347 22.9564 52.4201C22.2047 52.5056 21.506 52.8496 20.9801 53.3934C20.4541 53.9372 20.1335 54.647 20.0733 55.4011L20.0328 56.02L19.4197 55.9333C19.3177 55.9275 19.2153 55.9275 19.1132 55.9333C18.4943 55.9333 17.9008 56.179 17.4632 56.6167C17.0255 57.0543 16.7796 57.6479 16.7796 58.2668C16.7796 58.8856 17.0255 59.4792 17.4632 59.9168C17.9008 60.3545 18.4943 60.6003 19.1132 60.6003H27.8691C28.0187 60.5946 28.1676 60.5771 28.3145 60.5483C27.686 59.8689 27.3405 58.9753 27.3486 58.0499Z" fill="white"/>
<path d="M23.2425 46.0954V51.3004H23.3119C23.6766 51.2894 24.0415 51.3205 24.3991 51.3929V46.0954H23.2425Z" fill="#7DC4C4"/>
<path d="M52.7719 60.5537H43.6979C44.3399 59.8779 44.6981 58.9816 44.6984 58.0495C44.694 57.2597 44.4366 56.4923 43.9641 55.8595C43.4916 55.2267 42.8287 54.7619 42.0728 54.5332C42.0225 53.5963 41.6149 52.7143 40.9339 52.0688C40.2529 51.4233 39.3503 51.0634 38.412 51.0633C37.9923 51.0643 37.5757 51.1366 37.1802 51.2773C36.7571 51.4317 36.3654 51.6608 36.0235 51.954C36.0235 51.954 35.9657 51.954 35.9541 51.954C35.418 51.6633 34.827 51.4879 34.2192 51.4392V40.3122H37.1107V37.9989H38.0245L39.6786 45.5171H42.3273V31.059H37.1224V11.9163C37.1224 10.1813 33.6524 0.985886 30.2865 0.985886H30.1824C26.8281 0.985886 23.2425 10.1582 23.2425 11.9163V31.059H18.0375V45.5171H20.7903L22.4444 37.9989H23.2425V40.3122H26.1342V52.2489C25.6186 51.8508 25.0288 51.5598 24.3991 51.393C24.0329 51.3125 23.6575 51.2814 23.283 51.3004C22.2726 51.2896 21.2897 51.6295 20.502 52.2623C19.7142 52.895 19.1702 53.7815 18.9629 54.7703C18.0597 54.7959 17.2022 55.1728 16.5726 55.8209C15.9429 56.4688 15.5909 57.3368 15.5912 58.2404C15.6003 58.9747 15.8503 59.6859 16.3026 60.2645C16.3778 60.3628 16.453 60.4727 16.5397 60.5652H5.31427V61.7219H52.7372V60.5652L52.7719 60.5537ZM37.1224 32.2156H41.1706V44.3605H40.5923L38.9383 36.8422H37.1224V32.2156ZM23.2425 36.8422H21.5076L19.8535 44.3605H19.1941V32.2156H23.2425V36.8422ZM24.3991 11.9741H29.0257V10.8174H24.671C25.4517 8.08777 28.2623 2.35074 30.2403 2.09049C32.2182 2.35074 35.0288 8.08777 35.8096 10.8174H33.6524V11.9741H35.9657V14.2874H24.3991V11.9741ZM24.3991 39.1555V36.8422H26.1342V35.6856H24.3991V15.444H35.9657V35.6856H33.074V36.8422H35.9657V39.1555H31.9174V31.059H28.4474V39.1555H24.3991ZM29.6041 48.4088V54.2383C29.0563 53.8946 28.4371 53.6809 27.7939 53.6137H27.2908V40.3122H28.4474V46.0954H31.9174V40.3122H33.074V51.5202C32.2077 51.7691 31.4141 52.2234 30.7608 52.8445V48.4088H29.6041ZM29.6041 44.9388V32.2156H30.7608V44.9388H29.6041ZM19.0959 60.5537C18.4769 60.5537 17.8835 60.3078 17.4459 59.8702C17.0082 59.4326 16.7623 58.839 16.7623 58.2201C16.7623 57.6012 17.0082 57.0076 17.4459 56.57C17.8835 56.1324 18.4769 55.8865 19.0959 55.8865C19.1979 55.8808 19.3003 55.8808 19.4024 55.8865L20.0154 55.9733L20.0559 55.3545C20.1162 54.6003 20.4367 53.8906 20.9627 53.3467C21.4886 52.8029 22.1873 52.4588 22.939 52.3734C23.6908 52.288 24.4488 52.4665 25.0833 52.8784C25.7179 53.2905 26.1896 53.9102 26.4175 54.6316L26.5794 55.1636C27.2883 54.885 28.0731 54.8665 28.7945 55.1116C28.3871 55.4156 28.0479 55.8016 27.7986 56.2446C27.5492 56.6876 27.3955 57.1779 27.3469 57.6839C27.2985 58.1899 27.3565 58.7005 27.5171 59.1828C27.6777 59.665 27.9374 60.1083 28.2798 60.4843C28.1329 60.5131 27.984 60.5305 27.8344 60.5363L19.0959 60.5537ZM41.0376 60.5537H31.0094C30.3854 60.5583 29.782 60.3297 29.3176 59.9127C28.8534 59.4957 28.5614 58.9203 28.4992 58.2994C28.4369 57.6783 28.6089 57.0565 28.9812 56.5556C29.3535 56.0547 29.8995 55.7109 30.5121 55.5916L30.9054 55.5106L30.9689 55.1174C31.0524 54.6091 31.2646 54.1305 31.5856 53.7276C31.9065 53.3247 32.3254 53.0107 32.8022 52.8158C33.2791 52.6209 33.798 52.5516 34.3093 52.6143C34.8206 52.677 35.3073 52.8698 35.7228 53.1742L36.1565 53.498L36.5093 53.0874C36.7432 52.811 37.0346 52.589 37.3633 52.4371C37.692 52.2853 38.0499 52.2072 38.412 52.2084C39.0767 52.2084 39.7142 52.472 40.1847 52.9415C40.6553 53.4109 40.9204 54.0478 40.9219 54.7126C40.9219 54.7877 40.9219 54.8687 40.9219 54.9439L40.8699 55.4875L41.4136 55.5684C42.0447 55.6546 42.6192 55.978 43.0203 56.4729C43.4215 56.9677 43.6189 57.5969 43.5724 58.2321C43.5259 58.8675 43.2392 59.4612 42.7705 59.8925C42.3017 60.3238 41.6862 60.5602 41.0492 60.5537H41.0376Z" fill="black"/>
<path d="M33.074 51.5202V40.3122H31.9174V46.0954H28.4474V40.3122H27.2908V53.6137H27.794C28.4371 53.6809 29.0563 53.8946 29.6041 54.2383V48.4087H30.7608V52.8445C31.4141 52.2234 32.2077 51.7691 33.074 51.5202Z" fill="#FFE787"/>
<path d="M24.3991 15.444V35.6856H26.1342V36.8422H24.3991V39.1555H28.4474V31.059H31.9174V39.1555H35.9657V36.8422H33.074V35.6856H35.9657V15.444H24.3991Z" fill="white"/>
<path d="M30.2403 25.8829C31.8373 25.8829 33.1319 24.5883 33.1319 22.9913C33.1319 21.3942 31.8373 20.0996 30.2403 20.0996C28.6432 20.0996 27.3486 21.3942 27.3486 22.9913C27.3486 24.5883 28.6432 25.8829 30.2403 25.8829Z" fill="#7DC4C4"/>
<path d="M26.1919 22.9913C26.1919 23.7919 26.4294 24.5746 26.8742 25.2403C27.319 25.9061 27.9513 26.4249 28.691 26.7314C29.4308 27.0378 30.2447 27.1179 31.0301 26.9617C31.8154 26.8055 32.5367 26.42 33.1029 25.8539C33.669 25.2877 34.0545 24.5664 34.2107 23.7811C34.3669 22.9957 34.2868 22.1818 33.9804 21.442C33.6739 20.7023 33.1551 20.07 32.4894 19.6252C31.8236 19.1803 31.0409 18.9429 30.2403 18.9429C29.1666 18.9429 28.1369 19.3695 27.3777 20.1287C26.6185 20.8879 26.1919 21.9176 26.1919 22.9913ZM30.2403 20.0996C30.8122 20.0996 31.3712 20.2692 31.8468 20.5869C32.3223 20.9047 32.6929 21.3563 32.9118 21.8847C33.1307 22.4131 33.1879 22.9945 33.0763 23.5554C32.9648 24.1163 32.6894 24.6315 32.285 25.036C31.8806 25.4404 31.3653 25.7158 30.8044 25.8273C30.2435 25.9389 29.662 25.8816 29.1337 25.6628C28.6053 25.4439 28.1537 25.0733 27.8359 24.5978C27.5183 24.1222 27.3486 23.5632 27.3486 22.9913C27.3486 22.2244 27.6533 21.4889 28.1956 20.9466C28.7379 20.4043 29.4734 20.0996 30.2403 20.0996Z" fill="black"/>
<path d="M33.6524 11.9746V10.8179H35.8096C35.0288 8.0882 32.2182 2.35117 30.2403 2.09091C28.2623 2.35117 25.4517 8.0882 24.671 10.8179H29.0257V11.9746H24.3991V14.2879H35.9657V11.9746H33.6524Z" fill="#8242EB"/>
<path d="M36.0235 60.5536H41.0376C41.6746 60.5602 42.29 60.3237 42.7588 59.8925C43.2276 59.4611 43.5143 58.8674 43.5608 58.2321C43.6073 57.5968 43.4098 56.9677 43.0087 56.4729C42.6076 55.978 42.0331 55.6546 41.4019 55.5684L40.8583 55.4875L40.9104 54.9439C40.9104 54.8687 40.9104 54.7877 40.9104 54.7126C40.9088 54.0478 40.6437 53.4109 40.1732 52.9415C39.7026 52.472 39.065 52.2084 38.4004 52.2084C38.0383 52.2072 37.6803 52.2853 37.3516 52.4371C37.023 52.589 36.7315 52.811 36.4977 53.0874L36.1449 53.498L35.7111 53.1742C35.2956 52.8698 34.809 52.677 34.2977 52.6143C33.7864 52.5516 33.2674 52.6209 32.7906 52.8158C32.3138 53.0107 31.8949 53.3247 31.5739 53.7276C31.253 54.1305 31.0407 54.609 30.9573 55.1174L30.8937 55.5106L30.5004 55.5916C29.8878 55.7109 29.3419 56.0547 28.9696 56.5556C28.5972 57.0565 28.4253 57.6783 28.4876 58.2993C28.5498 58.9203 28.8417 59.4957 29.3061 59.9127C29.7703 60.3297 30.3738 60.5583 30.9978 60.5536H36.0235Z" fill="white"/>
<path d="M8.073 35.8764C9.03121 35.8764 9.80796 35.0996 9.80796 34.1414C9.80796 33.1832 9.03121 32.4064 8.073 32.4064C7.11479 32.4064 6.33804 33.1832 6.33804 34.1414C6.33804 35.0996 7.11479 35.8764 8.073 35.8764Z" fill="white"/>
<path d="M10.9647 34.1414C10.9647 33.5695 10.795 33.0104 10.4773 32.5349C10.1596 32.0594 9.70792 31.6887 9.17959 31.4699C8.65126 31.251 8.06983 31.1938 7.50882 31.3054C6.94792 31.4169 6.4327 31.6923 6.0283 32.0967C5.62391 32.5011 5.34853 33.0164 5.23697 33.5773C5.1254 34.1382 5.18261 34.7196 5.40152 35.248C5.62032 35.7764 5.99097 36.228 6.46654 36.5458C6.942 36.8634 7.5011 37.0331 8.07301 37.0331C8.83992 37.0331 9.57542 36.7284 10.1177 36.1861C10.66 35.6438 10.9647 34.9083 10.9647 34.1414ZM8.07301 35.8764C7.72984 35.8764 7.3944 35.7746 7.10908 35.584C6.82377 35.3934 6.60137 35.1223 6.47013 34.8054C6.33879 34.4884 6.30442 34.1395 6.37136 33.8029C6.4383 33.4664 6.60359 33.1573 6.84619 32.9146C7.08878 32.672 7.398 32.5067 7.7345 32.4398C8.0711 32.3728 8.41987 32.4072 8.73691 32.5385C9.05396 32.6699 9.32489 32.8922 9.51556 33.1775C9.70623 33.4628 9.80796 33.7982 9.80796 34.1414C9.80796 34.6015 9.62523 35.0428 9.29983 35.3682C8.97443 35.6936 8.53313 35.8764 8.07301 35.8764Z" fill="black"/>
<path d="M45.4675 49.3746C45.2388 49.3746 45.0151 49.4424 44.825 49.5695C44.6347 49.6966 44.4865 49.8772 44.3989 50.0886C44.3115 50.2999 44.2885 50.5324 44.3331 50.7568C44.3778 50.9813 44.488 51.1874 44.6497 51.3491C44.8115 51.5109 45.0176 51.621 45.242 51.6657C45.4663 51.7103 45.6988 51.6874 45.9102 51.5998C46.1215 51.5122 46.3022 51.3641 46.4293 51.1738C46.5564 50.9836 46.6242 50.76 46.6242 50.5312C46.6242 50.2245 46.5024 49.9303 46.2854 49.7133C46.0685 49.4964 45.7743 49.3746 45.4675 49.3746Z" fill="white"/>
<path d="M43.1542 50.5312C43.1542 50.9888 43.2899 51.436 43.5441 51.8164C43.7984 52.1969 44.1596 52.4934 44.5823 52.6684C45.005 52.8435 45.4702 52.8893 45.9189 52.8001C46.3676 52.7108 46.7798 52.4905 47.1033 52.1669C47.4269 51.8434 47.6472 51.4312 47.7364 50.9825C47.8257 50.5338 47.7799 50.0686 47.6048 49.6459C47.4298 49.2232 47.1332 48.862 46.7527 48.6078C46.3724 48.3535 45.9251 48.2179 45.4675 48.2179C44.8541 48.2179 44.2657 48.4616 43.8318 48.8954C43.398 49.3293 43.1542 49.9177 43.1542 50.5312ZM45.4675 51.6879C45.2388 51.6879 45.0151 51.62 44.825 51.493C44.6348 51.3659 44.4865 51.1851 44.3989 50.9738C44.3115 50.7625 44.2885 50.5299 44.3332 50.3056C44.3778 50.0812 44.488 49.8751 44.6497 49.7133C44.8115 49.5516 45.0176 49.4414 45.242 49.3968C45.4663 49.3522 45.6988 49.3751 45.9102 49.4626C46.1215 49.5501 46.3022 49.6984 46.4294 49.8886C46.5564 50.0788 46.6243 50.3024 46.6243 50.5312C46.6243 50.838 46.5023 51.1322 46.2854 51.3491C46.0685 51.566 45.7743 51.6879 45.4675 51.6879Z" fill="black"/>
<path d="M50.4239 42.6255H51.5805V41.4688H52.7372V40.3122H51.5805V39.1555H50.4239V40.3122H49.2673V41.4688H50.4239V42.6255Z" fill="black"/>
<path d="M16.3026 26.4323V25.2756H17.4592V24.119H16.3026V22.9623H15.1459V24.119H13.9893V25.2756H15.1459V26.4323H16.3026Z" fill="white"/>
<path d="M43.484 26.4323H44.6407V25.2756H45.7973V24.119H44.6407V22.9623H43.484V24.119H42.3273V25.2756H43.484V26.4323Z" fill="#FFEFA6"/>
<path d="M11.0976 47.2521H9.94089V48.9871H8.20593V50.1437H9.94089V51.8788H11.0976V50.1437H12.8326V48.9871H11.0976V47.2521Z" fill="#FFEFA6"/>
<path d="M9.36264 11.3958H10.5192V9.66082H12.2543V8.50411H10.5192V6.76915H9.36264V8.50411H7.62769V9.66082H9.36264V11.3958Z" fill="black"/>
<path d="M19.1941 44.3605H19.8593L21.5133 36.8422H23.2425V32.2156H19.1941V44.3605Z" fill="#DE856F"/>
<path d="M37.1224 36.8422H38.9672L40.6213 44.3605H41.1707V32.2156H37.1224V36.8422Z" fill="#DE856F"/>
<path d="M30.7608 32.2156H29.6041V44.9388H30.7608V32.2156Z" fill="#DE856F"/>
<path d="M49.2673 15.444H50.4239V14.2874H51.5805V13.1307H50.4239V11.9741H49.2673V13.1307H48.1106V14.2874H49.2673V15.444Z" fill="#DE856F"/>
<path d="M29.8297 4.04483C28.5542 5.46757 27.533 7.0991 26.8108 8.86811L27.8865 9.29608C28.551 7.67375 29.4858 6.17589 30.6509 4.86605L29.8297 4.04483Z" fill="#7DC4C4"/>
</svg>
